<?xml version="1.0" encoding="utf-8" standalone="no"?>
<!DOCTYPE svg PUBLIC "-//W3C//DTD SVG 1.1//EN"
  "http://www.w3.org/Graphics/SVG/1.1/DTD/svg11.dtd">
<!-- Created with matplotlib (https://matplotlib.org/) -->
<svg height="345.6pt" version="1.1" viewBox="0 0 389.52 345.6" width="389.52pt" xmlns="http://www.w3.org/2000/svg" xmlns:xlink="http://www.w3.org/1999/xlink">
 <defs>
  <style type="text/css">
*{stroke-linecap:butt;stroke-linejoin:round;}
  </style>
 </defs>
 <g id="figure_1">
  <g id="patch_1">
   <path d="M 0 345.6 
L 389.52 345.6 
L 389.52 0 
L 0 0 
z
" style="fill:#ffffff;"/>
  </g>
  <g id="axes_1">
   <g id="patch_2">
    <path d="M 38.024571 304.457143 
L 383.955429 304.457143 
L 383.955429 24.685714 
L 38.024571 24.685714 
z
" style="fill:#ffffff;"/>
   </g>
   <g id="PathCollection_1">
    <defs>
     <path d="M 0 3 
C 0.795609 3 1.55874 2.683901 2.12132 2.12132 
C 2.683901 1.55874 3 0.795609 3 0 
C 3 -0.795609 2.683901 -1.55874 2.12132 -2.12132 
C 1.55874 -2.683901 0.795609 -3 0 -3 
C -0.795609 -3 -1.55874 -2.683901 -2.12132 -2.12132 
C -2.683901 -1.55874 -3 -0.795609 -3 0 
C -3 0.795609 -2.683901 1.55874 -2.12132 2.12132 
C -1.55874 2.683901 -0.795609 3 0 3 
z
" id="m8a9064df6d" style="stroke:#1f77b4;"/>
    </defs>
    <g clip-path="url(#pcd40e5d783)">
     <use style="fill:#1f77b4;stroke:#1f77b4;" x="53.748701" xlink:href="#m8a9064df6d" y="164.571429"/>
     <use style="fill:#1f77b4;stroke:#1f77b4;" x="55.845252" xlink:href="#m8a9064df6d" y="164.571429"/>
     <use style="fill:#1f77b4;stroke:#1f77b4;" x="57.941803" xlink:href="#m8a9064df6d" y="291.74026"/>
     <use style="fill:#1f77b4;stroke:#1f77b4;" x="60.038353" xlink:href="#m8a9064df6d" y="291.74026"/>
     <use style="fill:#1f77b4;stroke:#1f77b4;" x="62.134904" xlink:href="#m8a9064df6d" y="164.571429"/>
     <use style="fill:#1f77b4;stroke:#1f77b4;" x="64.231455" xlink:href="#m8a9064df6d" y="164.571429"/>
     <use style="fill:#1f77b4;stroke:#1f77b4;" x="66.328005" xlink:href="#m8a9064df6d" y="291.74026"/>
     <use style="fill:#1f77b4;stroke:#1f77b4;" x="68.424556" xlink:href="#m8a9064df6d" y="164.571429"/>
     <use style="fill:#1f77b4;stroke:#1f77b4;" x="70.521106" xlink:href="#m8a9064df6d" y="164.571429"/>
     <use style="fill:#1f77b4;stroke:#1f77b4;" x="72.617657" xlink:href="#m8a9064df6d" y="164.571429"/>
     <use style="fill:#1f77b4;stroke:#1f77b4;" x="74.714208" xlink:href="#m8a9064df6d" y="164.571429"/>
     <use style="fill:#1f77b4;stroke:#1f77b4;" x="76.810758" xlink:href="#m8a9064df6d" y="164.571429"/>
     <use style="fill:#1f77b4;stroke:#1f77b4;" x="78.907309" xlink:href="#m8a9064df6d" y="164.571429"/>
     <use style="fill:#1f77b4;stroke:#1f77b4;" x="81.00386" xlink:href="#m8a9064df6d" y="164.571429"/>
     <use style="fill:#1f77b4;stroke:#1f77b4;" x="83.10041" xlink:href="#m8a9064df6d" y="164.571429"/>
     <use style="fill:#1f77b4;stroke:#1f77b4;" x="85.196961" xlink:href="#m8a9064df6d" y="164.571429"/>
     <use style="fill:#1f77b4;stroke:#1f77b4;" x="87.293512" xlink:href="#m8a9064df6d" y="291.74026"/>
     <use style="fill:#1f77b4;stroke:#1f77b4;" x="89.390062" xlink:href="#m8a9064df6d" y="164.571429"/>
     <use style="fill:#1f77b4;stroke:#1f77b4;" x="91.486613" xlink:href="#m8a9064df6d" y="164.571429"/>
     <use style="fill:#1f77b4;stroke:#1f77b4;" x="93.583164" xlink:href="#m8a9064df6d" y="291.74026"/>
     <use style="fill:#1f77b4;stroke:#1f77b4;" x="95.679714" xlink:href="#m8a9064df6d" y="164.571429"/>
     <use style="fill:#1f77b4;stroke:#1f77b4;" x="97.776265" xlink:href="#m8a9064df6d" y="164.571429"/>
     <use style="fill:#1f77b4;stroke:#1f77b4;" x="99.872816" xlink:href="#m8a9064df6d" y="164.571429"/>
     <use style="fill:#1f77b4;stroke:#1f77b4;" x="101.969366" xlink:href="#m8a9064df6d" y="164.571429"/>
     <use style="fill:#1f77b4;stroke:#1f77b4;" x="104.065917" xlink:href="#m8a9064df6d" y="164.571429"/>
     <use style="fill:#1f77b4;stroke:#1f77b4;" x="106.162468" xlink:href="#m8a9064df6d" y="164.571429"/>
     <use style="fill:#1f77b4;stroke:#1f77b4;" x="108.259018" xlink:href="#m8a9064df6d" y="164.571429"/>
     <use style="fill:#1f77b4;stroke:#1f77b4;" x="110.355569" xlink:href="#m8a9064df6d" y="164.571429"/>
     <use style="fill:#1f77b4;stroke:#1f77b4;" x="112.452119" xlink:href="#m8a9064df6d" y="164.571429"/>
     <use style="fill:#1f77b4;stroke:#1f77b4;" x="114.54867" xlink:href="#m8a9064df6d" y="37.402597"/>
     <use style="fill:#1f77b4;stroke:#1f77b4;" x="116.645221" xlink:href="#m8a9064df6d" y="151.854545"/>
     <use style="fill:#1f77b4;stroke:#1f77b4;" x="118.741771" xlink:href="#m8a9064df6d" y="164.571429"/>
     <use style="fill:#1f77b4;stroke:#1f77b4;" x="120.838322" xlink:href="#m8a9064df6d" y="151.854545"/>
     <use style="fill:#1f77b4;stroke:#1f77b4;" x="122.934873" xlink:href="#m8a9064df6d" y="164.571429"/>
     <use style="fill:#1f77b4;stroke:#1f77b4;" x="125.031423" xlink:href="#m8a9064df6d" y="164.571429"/>
     <use style="fill:#1f77b4;stroke:#1f77b4;" x="127.127974" xlink:href="#m8a9064df6d" y="164.571429"/>
     <use style="fill:#1f77b4;stroke:#1f77b4;" x="129.224525" xlink:href="#m8a9064df6d" y="151.854545"/>
     <use style="fill:#1f77b4;stroke:#1f77b4;" x="131.321075" xlink:href="#m8a9064df6d" y="164.571429"/>
     <use style="fill:#1f77b4;stroke:#1f77b4;" x="133.417626" xlink:href="#m8a9064df6d" y="164.571429"/>
     <use style="fill:#1f77b4;stroke:#1f77b4;" x="135.514177" xlink:href="#m8a9064df6d" y="164.571429"/>
     <use style="fill:#1f77b4;stroke:#1f77b4;" x="137.610727" xlink:href="#m8a9064df6d" y="164.571429"/>
     <use style="fill:#1f77b4;stroke:#1f77b4;" x="139.707278" xlink:href="#m8a9064df6d" y="164.571429"/>
     <use style="fill:#1f77b4;stroke:#1f77b4;" x="141.803829" xlink:href="#m8a9064df6d" y="164.571429"/>
     <use style="fill:#1f77b4;stroke:#1f77b4;" x="143.900379" xlink:href="#m8a9064df6d" y="164.571429"/>
     <use style="fill:#1f77b4;stroke:#1f77b4;" x="145.99693" xlink:href="#m8a9064df6d" y="164.571429"/>
     <use style="fill:#1f77b4;stroke:#1f77b4;" x="148.093481" xlink:href="#m8a9064df6d" y="164.571429"/>
     <use style="fill:#1f77b4;stroke:#1f77b4;" x="150.190031" xlink:href="#m8a9064df6d" y="164.571429"/>
     <use style="fill:#1f77b4;stroke:#1f77b4;" x="152.286582" xlink:href="#m8a9064df6d" y="164.571429"/>
     <use style="fill:#1f77b4;stroke:#1f77b4;" x="154.383132" xlink:href="#m8a9064df6d" y="164.571429"/>
     <use style="fill:#1f77b4;stroke:#1f77b4;" x="156.479683" xlink:href="#m8a9064df6d" y="164.571429"/>
     <use style="fill:#1f77b4;stroke:#1f77b4;" x="158.576234" xlink:href="#m8a9064df6d" y="164.571429"/>
     <use style="fill:#1f77b4;stroke:#1f77b4;" x="160.672784" xlink:href="#m8a9064df6d" y="164.571429"/>
     <use style="fill:#1f77b4;stroke:#1f77b4;" x="162.769335" xlink:href="#m8a9064df6d" y="164.571429"/>
     <use style="fill:#1f77b4;stroke:#1f77b4;" x="164.865886" xlink:href="#m8a9064df6d" y="190.005195"/>
     <use style="fill:#1f77b4;stroke:#1f77b4;" x="166.962436" xlink:href="#m8a9064df6d" y="164.571429"/>
     <use style="fill:#1f77b4;stroke:#1f77b4;" x="169.058987" xlink:href="#m8a9064df6d" y="164.571429"/>
     <use style="fill:#1f77b4;stroke:#1f77b4;" x="171.155538" xlink:href="#m8a9064df6d" y="164.571429"/>
     <use style="fill:#1f77b4;stroke:#1f77b4;" x="173.252088" xlink:href="#m8a9064df6d" y="164.571429"/>
     <use style="fill:#1f77b4;stroke:#1f77b4;" x="175.348639" xlink:href="#m8a9064df6d" y="164.571429"/>
     <use style="fill:#1f77b4;stroke:#1f77b4;" x="177.44519" xlink:href="#m8a9064df6d" y="164.571429"/>
     <use style="fill:#1f77b4;stroke:#1f77b4;" x="179.54174" xlink:href="#m8a9064df6d" y="164.571429"/>
     <use style="fill:#1f77b4;stroke:#1f77b4;" x="181.638291" xlink:href="#m8a9064df6d" y="177.288312"/>
     <use style="fill:#1f77b4;stroke:#1f77b4;" x="183.734842" xlink:href="#m8a9064df6d" y="177.288312"/>
     <use style="fill:#1f77b4;stroke:#1f77b4;" x="185.831392" xlink:href="#m8a9064df6d" y="177.288312"/>
     <use style="fill:#1f77b4;stroke:#1f77b4;" x="187.927943" xlink:href="#m8a9064df6d" y="177.288312"/>
     <use style="fill:#1f77b4;stroke:#1f77b4;" x="190.024494" xlink:href="#m8a9064df6d" y="177.288312"/>
     <use style="fill:#1f77b4;stroke:#1f77b4;" x="192.121044" xlink:href="#m8a9064df6d" y="190.005195"/>
     <use style="fill:#1f77b4;stroke:#1f77b4;" x="194.217595" xlink:href="#m8a9064df6d" y="190.005195"/>
     <use style="fill:#1f77b4;stroke:#1f77b4;" x="196.314145" xlink:href="#m8a9064df6d" y="190.005195"/>
     <use style="fill:#1f77b4;stroke:#1f77b4;" x="198.410696" xlink:href="#m8a9064df6d" y="190.005195"/>
     <use style="fill:#1f77b4;stroke:#1f77b4;" x="200.507247" xlink:href="#m8a9064df6d" y="190.005195"/>
     <use style="fill:#1f77b4;stroke:#1f77b4;" x="202.603797" xlink:href="#m8a9064df6d" y="190.005195"/>
     <use style="fill:#1f77b4;stroke:#1f77b4;" x="204.700348" xlink:href="#m8a9064df6d" y="190.005195"/>
     <use style="fill:#1f77b4;stroke:#1f77b4;" x="206.796899" xlink:href="#m8a9064df6d" y="291.74026"/>
     <use style="fill:#1f77b4;stroke:#1f77b4;" x="208.893449" xlink:href="#m8a9064df6d" y="202.722078"/>
     <use style="fill:#1f77b4;stroke:#1f77b4;" x="210.99" xlink:href="#m8a9064df6d" y="291.74026"/>
     <use style="fill:#1f77b4;stroke:#1f77b4;" x="213.086551" xlink:href="#m8a9064df6d" y="202.722078"/>
     <use style="fill:#1f77b4;stroke:#1f77b4;" x="215.183101" xlink:href="#m8a9064df6d" y="291.74026"/>
     <use style="fill:#1f77b4;stroke:#1f77b4;" x="217.279652" xlink:href="#m8a9064df6d" y="202.722078"/>
     <use style="fill:#1f77b4;stroke:#1f77b4;" x="219.376203" xlink:href="#m8a9064df6d" y="291.74026"/>
     <use style="fill:#1f77b4;stroke:#1f77b4;" x="221.472753" xlink:href="#m8a9064df6d" y="215.438961"/>
     <use style="fill:#1f77b4;stroke:#1f77b4;" x="223.569304" xlink:href="#m8a9064df6d" y="215.438961"/>
     <use style="fill:#1f77b4;stroke:#1f77b4;" x="225.665855" xlink:href="#m8a9064df6d" y="215.438961"/>
     <use style="fill:#1f77b4;stroke:#1f77b4;" x="227.762405" xlink:href="#m8a9064df6d" y="215.438961"/>
     <use style="fill:#1f77b4;stroke:#1f77b4;" x="229.858956" xlink:href="#m8a9064df6d" y="215.438961"/>
     <use style="fill:#1f77b4;stroke:#1f77b4;" x="231.955506" xlink:href="#m8a9064df6d" y="228.155844"/>
     <use style="fill:#1f77b4;stroke:#1f77b4;" x="234.052057" xlink:href="#m8a9064df6d" y="228.155844"/>
     <use style="fill:#1f77b4;stroke:#1f77b4;" x="236.148608" xlink:href="#m8a9064df6d" y="228.155844"/>
     <use style="fill:#1f77b4;stroke:#1f77b4;" x="238.245158" xlink:href="#m8a9064df6d" y="228.155844"/>
     <use style="fill:#1f77b4;stroke:#1f77b4;" x="240.341709" xlink:href="#m8a9064df6d" y="253.58961"/>
     <use style="fill:#1f77b4;stroke:#1f77b4;" x="242.43826" xlink:href="#m8a9064df6d" y="228.155844"/>
     <use style="fill:#1f77b4;stroke:#1f77b4;" x="244.53481" xlink:href="#m8a9064df6d" y="228.155844"/>
     <use style="fill:#1f77b4;stroke:#1f77b4;" x="246.631361" xlink:href="#m8a9064df6d" y="228.155844"/>
     <use style="fill:#1f77b4;stroke:#1f77b4;" x="248.727912" xlink:href="#m8a9064df6d" y="228.155844"/>
     <use style="fill:#1f77b4;stroke:#1f77b4;" x="250.824462" xlink:href="#m8a9064df6d" y="240.872727"/>
     <use style="fill:#1f77b4;stroke:#1f77b4;" x="252.921013" xlink:href="#m8a9064df6d" y="240.872727"/>
     <use style="fill:#1f77b4;stroke:#1f77b4;" x="255.017564" xlink:href="#m8a9064df6d" y="240.872727"/>
     <use style="fill:#1f77b4;stroke:#1f77b4;" x="257.114114" xlink:href="#m8a9064df6d" y="240.872727"/>
     <use style="fill:#1f77b4;stroke:#1f77b4;" x="259.210665" xlink:href="#m8a9064df6d" y="240.872727"/>
     <use style="fill:#1f77b4;stroke:#1f77b4;" x="261.307216" xlink:href="#m8a9064df6d" y="240.872727"/>
     <use style="fill:#1f77b4;stroke:#1f77b4;" x="263.403766" xlink:href="#m8a9064df6d" y="240.872727"/>
     <use style="fill:#1f77b4;stroke:#1f77b4;" x="265.500317" xlink:href="#m8a9064df6d" y="240.872727"/>
     <use style="fill:#1f77b4;stroke:#1f77b4;" x="267.596868" xlink:href="#m8a9064df6d" y="240.872727"/>
     <use style="fill:#1f77b4;stroke:#1f77b4;" x="269.693418" xlink:href="#m8a9064df6d" y="253.58961"/>
     <use style="fill:#1f77b4;stroke:#1f77b4;" x="271.789969" xlink:href="#m8a9064df6d" y="253.58961"/>
     <use style="fill:#1f77b4;stroke:#1f77b4;" x="273.886519" xlink:href="#m8a9064df6d" y="253.58961"/>
     <use style="fill:#1f77b4;stroke:#1f77b4;" x="275.98307" xlink:href="#m8a9064df6d" y="253.58961"/>
     <use style="fill:#1f77b4;stroke:#1f77b4;" x="278.079621" xlink:href="#m8a9064df6d" y="253.58961"/>
     <use style="fill:#1f77b4;stroke:#1f77b4;" x="280.176171" xlink:href="#m8a9064df6d" y="253.58961"/>
     <use style="fill:#1f77b4;stroke:#1f77b4;" x="282.272722" xlink:href="#m8a9064df6d" y="253.58961"/>
     <use style="fill:#1f77b4;stroke:#1f77b4;" x="284.369273" xlink:href="#m8a9064df6d" y="253.58961"/>
     <use style="fill:#1f77b4;stroke:#1f77b4;" x="286.465823" xlink:href="#m8a9064df6d" y="253.58961"/>
     <use style="fill:#1f77b4;stroke:#1f77b4;" x="288.562374" xlink:href="#m8a9064df6d" y="253.58961"/>
     <use style="fill:#1f77b4;stroke:#1f77b4;" x="290.658925" xlink:href="#m8a9064df6d" y="253.58961"/>
     <use style="fill:#1f77b4;stroke:#1f77b4;" x="292.755475" xlink:href="#m8a9064df6d" y="266.306494"/>
     <use style="fill:#1f77b4;stroke:#1f77b4;" x="294.852026" xlink:href="#m8a9064df6d" y="266.306494"/>
     <use style="fill:#1f77b4;stroke:#1f77b4;" x="296.948577" xlink:href="#m8a9064df6d" y="266.306494"/>
     <use style="fill:#1f77b4;stroke:#1f77b4;" x="299.045127" xlink:href="#m8a9064df6d" y="266.306494"/>
     <use style="fill:#1f77b4;stroke:#1f77b4;" x="301.141678" xlink:href="#m8a9064df6d" y="266.306494"/>
     <use style="fill:#1f77b4;stroke:#1f77b4;" x="303.238229" xlink:href="#m8a9064df6d" y="266.306494"/>
     <use style="fill:#1f77b4;stroke:#1f77b4;" x="305.334779" xlink:href="#m8a9064df6d" y="291.74026"/>
     <use style="fill:#1f77b4;stroke:#1f77b4;" x="307.43133" xlink:href="#m8a9064df6d" y="291.74026"/>
     <use style="fill:#1f77b4;stroke:#1f77b4;" x="309.527881" xlink:href="#m8a9064df6d" y="279.023377"/>
     <use style="fill:#1f77b4;stroke:#1f77b4;" x="311.624431" xlink:href="#m8a9064df6d" y="279.023377"/>
     <use style="fill:#1f77b4;stroke:#1f77b4;" x="313.720982" xlink:href="#m8a9064df6d" y="279.023377"/>
     <use style="fill:#1f77b4;stroke:#1f77b4;" x="315.817532" xlink:href="#m8a9064df6d" y="279.023377"/>
     <use style="fill:#1f77b4;stroke:#1f77b4;" x="317.914083" xlink:href="#m8a9064df6d" y="279.023377"/>
     <use style="fill:#1f77b4;stroke:#1f77b4;" x="320.010634" xlink:href="#m8a9064df6d" y="279.023377"/>
     <use style="fill:#1f77b4;stroke:#1f77b4;" x="322.107184" xlink:href="#m8a9064df6d" y="279.023377"/>
     <use style="fill:#1f77b4;stroke:#1f77b4;" x="324.203735" xlink:href="#m8a9064df6d" y="279.023377"/>
     <use style="fill:#1f77b4;stroke:#1f77b4;" x="326.300286" xlink:href="#m8a9064df6d" y="279.023377"/>
     <use style="fill:#1f77b4;stroke:#1f77b4;" x="328.396836" xlink:href="#m8a9064df6d" y="279.023377"/>
     <use style="fill:#1f77b4;stroke:#1f77b4;" x="330.493387" xlink:href="#m8a9064df6d" y="279.023377"/>
     <use style="fill:#1f77b4;stroke:#1f77b4;" x="332.589938" xlink:href="#m8a9064df6d" y="279.023377"/>
     <use style="fill:#1f77b4;stroke:#1f77b4;" x="334.686488" xlink:href="#m8a9064df6d" y="279.023377"/>
     <use style="fill:#1f77b4;stroke:#1f77b4;" x="336.783039" xlink:href="#m8a9064df6d" y="279.023377"/>
     <use style="fill:#1f77b4;stroke:#1f77b4;" x="338.87959" xlink:href="#m8a9064df6d" y="279.023377"/>
     <use style="fill:#1f77b4;stroke:#1f77b4;" x="340.97614" xlink:href="#m8a9064df6d" y="279.023377"/>
     <use style="fill:#1f77b4;stroke:#1f77b4;" x="343.072691" xlink:href="#m8a9064df6d" y="291.74026"/>
     <use style="fill:#1f77b4;stroke:#1f77b4;" x="345.169242" xlink:href="#m8a9064df6d" y="279.023377"/>
     <use style="fill:#1f77b4;stroke:#1f77b4;" x="347.265792" xlink:href="#m8a9064df6d" y="279.023377"/>
     <use style="fill:#1f77b4;stroke:#1f77b4;" x="349.362343" xlink:href="#m8a9064df6d" y="279.023377"/>
     <use style="fill:#1f77b4;stroke:#1f77b4;" x="351.458894" xlink:href="#m8a9064df6d" y="291.74026"/>
     <use style="fill:#1f77b4;stroke:#1f77b4;" x="353.555444" xlink:href="#m8a9064df6d" y="279.023377"/>
     <use style="fill:#1f77b4;stroke:#1f77b4;" x="355.651995" xlink:href="#m8a9064df6d" y="279.023377"/>
     <use style="fill:#1f77b4;stroke:#1f77b4;" x="357.748545" xlink:href="#m8a9064df6d" y="291.74026"/>
     <use style="fill:#1f77b4;stroke:#1f77b4;" x="359.845096" xlink:href="#m8a9064df6d" y="291.74026"/>
     <use style="fill:#1f77b4;stroke:#1f77b4;" x="361.941647" xlink:href="#m8a9064df6d" y="279.023377"/>
     <use style="fill:#1f77b4;stroke:#1f77b4;" x="364.038197" xlink:href="#m8a9064df6d" y="279.023377"/>
     <use style="fill:#1f77b4;stroke:#1f77b4;" x="366.134748" xlink:href="#m8a9064df6d" y="279.023377"/>
     <use style="fill:#1f77b4;stroke:#1f77b4;" x="368.231299" xlink:href="#m8a9064df6d" y="291.74026"/>
    </g>
   </g>
   <g id="PathCollection_2">
    <defs>
     <path d="M 0 3 
C 0.795609 3 1.55874 2.683901 2.12132 2.12132 
C 2.683901 1.55874 3 0.795609 3 0 
C 3 -0.795609 2.683901 -1.55874 2.12132 -2.12132 
C 1.55874 -2.683901 0.795609 -3 0 -3 
C -0.795609 -3 -1.55874 -2.683901 -2.12132 -2.12132 
C -2.683901 -1.55874 -3 -0.795609 -3 0 
C -3 0.795609 -2.683901 1.55874 -2.12132 2.12132 
C -1.55874 2.683901 -0.795609 3 0 3 
z
" id="md84320e683" style="stroke:#ff7f0e;"/>
    </defs>
    <g clip-path="url(#pcd40e5d783)">
     <use style="fill:#ff7f0e;stroke:#ff7f0e;" x="53.748701" xlink:href="#md84320e683" y="165.688165"/>
     <use style="fill:#ff7f0e;stroke:#ff7f0e;" x="55.845252" xlink:href="#md84320e683" y="165.680946"/>
     <use style="fill:#ff7f0e;stroke:#ff7f0e;" x="57.941803" xlink:href="#md84320e683" y="165.708697"/>
     <use style="fill:#ff7f0e;stroke:#ff7f0e;" x="60.038353" xlink:href="#md84320e683" y="165.718243"/>
     <use style="fill:#ff7f0e;stroke:#ff7f0e;" x="62.134904" xlink:href="#md84320e683" y="165.73283"/>
     <use style="fill:#ff7f0e;stroke:#ff7f0e;" x="64.231455" xlink:href="#md84320e683" y="165.733659"/>
     <use style="fill:#ff7f0e;stroke:#ff7f0e;" x="66.328005" xlink:href="#md84320e683" y="165.757912"/>
     <use style="fill:#ff7f0e;stroke:#ff7f0e;" x="68.424556" xlink:href="#md84320e683" y="165.78526"/>
     <use style="fill:#ff7f0e;stroke:#ff7f0e;" x="70.521106" xlink:href="#md84320e683" y="165.801915"/>
     <use style="fill:#ff7f0e;stroke:#ff7f0e;" x="72.617657" xlink:href="#md84320e683" y="165.835204"/>
     <use style="fill:#ff7f0e;stroke:#ff7f0e;" x="74.714208" xlink:href="#md84320e683" y="165.855025"/>
     <use style="fill:#ff7f0e;stroke:#ff7f0e;" x="76.810758" xlink:href="#md84320e683" y="165.928449"/>
     <use style="fill:#ff7f0e;stroke:#ff7f0e;" x="78.907309" xlink:href="#md84320e683" y="166.016904"/>
     <use style="fill:#ff7f0e;stroke:#ff7f0e;" x="81.00386" xlink:href="#md84320e683" y="166.11002"/>
     <use style="fill:#ff7f0e;stroke:#ff7f0e;" x="83.10041" xlink:href="#md84320e683" y="166.298453"/>
     <use style="fill:#ff7f0e;stroke:#ff7f0e;" x="85.196961" xlink:href="#md84320e683" y="166.414214"/>
     <use style="fill:#ff7f0e;stroke:#ff7f0e;" x="87.293512" xlink:href="#md84320e683" y="166.590491"/>
     <use style="fill:#ff7f0e;stroke:#ff7f0e;" x="89.390062" xlink:href="#md84320e683" y="166.72066"/>
     <use style="fill:#ff7f0e;stroke:#ff7f0e;" x="91.486613" xlink:href="#md84320e683" y="166.792589"/>
     <use style="fill:#ff7f0e;stroke:#ff7f0e;" x="93.583164" xlink:href="#md84320e683" y="166.920858"/>
     <use style="fill:#ff7f0e;stroke:#ff7f0e;" x="95.679714" xlink:href="#md84320e683" y="166.996144"/>
     <use style="fill:#ff7f0e;stroke:#ff7f0e;" x="97.776265" xlink:href="#md84320e683" y="167.061303"/>
     <use style="fill:#ff7f0e;stroke:#ff7f0e;" x="99.872816" xlink:href="#md84320e683" y="167.081824"/>
     <use style="fill:#ff7f0e;stroke:#ff7f0e;" x="101.969366" xlink:href="#md84320e683" y="167.130823"/>
     <use style="fill:#ff7f0e;stroke:#ff7f0e;" x="104.065917" xlink:href="#md84320e683" y="167.140182"/>
     <use style="fill:#ff7f0e;stroke:#ff7f0e;" x="106.162468" xlink:href="#md84320e683" y="167.163064"/>
     <use style="fill:#ff7f0e;stroke:#ff7f0e;" x="108.259018" xlink:href="#md84320e683" y="167.166711"/>
     <use style="fill:#ff7f0e;stroke:#ff7f0e;" x="110.355569" xlink:href="#md84320e683" y="167.164029"/>
     <use style="fill:#ff7f0e;stroke:#ff7f0e;" x="112.452119" xlink:href="#md84320e683" y="167.142909"/>
     <use style="fill:#ff7f0e;stroke:#ff7f0e;" x="114.54867" xlink:href="#md84320e683" y="167.123222"/>
     <use style="fill:#ff7f0e;stroke:#ff7f0e;" x="116.645221" xlink:href="#md84320e683" y="167.082005"/>
     <use style="fill:#ff7f0e;stroke:#ff7f0e;" x="118.741771" xlink:href="#md84320e683" y="167.014586"/>
     <use style="fill:#ff7f0e;stroke:#ff7f0e;" x="120.838322" xlink:href="#md84320e683" y="166.929908"/>
     <use style="fill:#ff7f0e;stroke:#ff7f0e;" x="122.934873" xlink:href="#md84320e683" y="166.808908"/>
     <use style="fill:#ff7f0e;stroke:#ff7f0e;" x="125.031423" xlink:href="#md84320e683" y="166.723189"/>
     <use style="fill:#ff7f0e;stroke:#ff7f0e;" x="127.127974" xlink:href="#md84320e683" y="166.551089"/>
     <use style="fill:#ff7f0e;stroke:#ff7f0e;" x="129.224525" xlink:href="#md84320e683" y="166.39619"/>
     <use style="fill:#ff7f0e;stroke:#ff7f0e;" x="131.321075" xlink:href="#md84320e683" y="166.228278"/>
     <use style="fill:#ff7f0e;stroke:#ff7f0e;" x="133.417626" xlink:href="#md84320e683" y="166.051254"/>
     <use style="fill:#ff7f0e;stroke:#ff7f0e;" x="135.514177" xlink:href="#md84320e683" y="165.812505"/>
     <use style="fill:#ff7f0e;stroke:#ff7f0e;" x="137.610727" xlink:href="#md84320e683" y="165.619271"/>
     <use style="fill:#ff7f0e;stroke:#ff7f0e;" x="139.707278" xlink:href="#md84320e683" y="165.448536"/>
     <use style="fill:#ff7f0e;stroke:#ff7f0e;" x="141.803829" xlink:href="#md84320e683" y="165.163646"/>
     <use style="fill:#ff7f0e;stroke:#ff7f0e;" x="143.900379" xlink:href="#md84320e683" y="164.926129"/>
     <use style="fill:#ff7f0e;stroke:#ff7f0e;" x="145.99693" xlink:href="#md84320e683" y="164.645356"/>
     <use style="fill:#ff7f0e;stroke:#ff7f0e;" x="148.093481" xlink:href="#md84320e683" y="164.404514"/>
     <use style="fill:#ff7f0e;stroke:#ff7f0e;" x="150.190031" xlink:href="#md84320e683" y="164.163011"/>
     <use style="fill:#ff7f0e;stroke:#ff7f0e;" x="152.286582" xlink:href="#md84320e683" y="163.955353"/>
     <use style="fill:#ff7f0e;stroke:#ff7f0e;" x="154.383132" xlink:href="#md84320e683" y="163.803051"/>
     <use style="fill:#ff7f0e;stroke:#ff7f0e;" x="156.479683" xlink:href="#md84320e683" y="163.736941"/>
     <use style="fill:#ff7f0e;stroke:#ff7f0e;" x="158.576234" xlink:href="#md84320e683" y="163.760467"/>
     <use style="fill:#ff7f0e;stroke:#ff7f0e;" x="160.672784" xlink:href="#md84320e683" y="163.927278"/>
     <use style="fill:#ff7f0e;stroke:#ff7f0e;" x="162.769335" xlink:href="#md84320e683" y="164.193117"/>
     <use style="fill:#ff7f0e;stroke:#ff7f0e;" x="164.865886" xlink:href="#md84320e683" y="164.623562"/>
     <use style="fill:#ff7f0e;stroke:#ff7f0e;" x="166.962436" xlink:href="#md84320e683" y="165.159007"/>
     <use style="fill:#ff7f0e;stroke:#ff7f0e;" x="169.058987" xlink:href="#md84320e683" y="165.975047"/>
     <use style="fill:#ff7f0e;stroke:#ff7f0e;" x="171.155538" xlink:href="#md84320e683" y="166.806051"/>
     <use style="fill:#ff7f0e;stroke:#ff7f0e;" x="173.252088" xlink:href="#md84320e683" y="167.769312"/>
     <use style="fill:#ff7f0e;stroke:#ff7f0e;" x="175.348639" xlink:href="#md84320e683" y="168.900026"/>
     <use style="fill:#ff7f0e;stroke:#ff7f0e;" x="177.44519" xlink:href="#md84320e683" y="170.149931"/>
     <use style="fill:#ff7f0e;stroke:#ff7f0e;" x="179.54174" xlink:href="#md84320e683" y="171.536794"/>
     <use style="fill:#ff7f0e;stroke:#ff7f0e;" x="181.638291" xlink:href="#md84320e683" y="173.336553"/>
     <use style="fill:#ff7f0e;stroke:#ff7f0e;" x="183.734842" xlink:href="#md84320e683" y="174.997725"/>
     <use style="fill:#ff7f0e;stroke:#ff7f0e;" x="185.831392" xlink:href="#md84320e683" y="176.675738"/>
     <use style="fill:#ff7f0e;stroke:#ff7f0e;" x="187.927943" xlink:href="#md84320e683" y="178.550645"/>
     <use style="fill:#ff7f0e;stroke:#ff7f0e;" x="190.024494" xlink:href="#md84320e683" y="180.42305"/>
     <use style="fill:#ff7f0e;stroke:#ff7f0e;" x="192.121044" xlink:href="#md84320e683" y="182.76271"/>
     <use style="fill:#ff7f0e;stroke:#ff7f0e;" x="194.217595" xlink:href="#md84320e683" y="184.706818"/>
     <use style="fill:#ff7f0e;stroke:#ff7f0e;" x="196.314145" xlink:href="#md84320e683" y="186.823356"/>
     <use style="fill:#ff7f0e;stroke:#ff7f0e;" x="198.410696" xlink:href="#md84320e683" y="188.563441"/>
     <use style="fill:#ff7f0e;stroke:#ff7f0e;" x="200.507247" xlink:href="#md84320e683" y="191.053453"/>
     <use style="fill:#ff7f0e;stroke:#ff7f0e;" x="202.603797" xlink:href="#md84320e683" y="193.25563"/>
     <use style="fill:#ff7f0e;stroke:#ff7f0e;" x="204.700348" xlink:href="#md84320e683" y="195.881255"/>
     <use style="fill:#ff7f0e;stroke:#ff7f0e;" x="206.796899" xlink:href="#md84320e683" y="198.053367"/>
     <use style="fill:#ff7f0e;stroke:#ff7f0e;" x="208.893449" xlink:href="#md84320e683" y="200.222367"/>
     <use style="fill:#ff7f0e;stroke:#ff7f0e;" x="210.99" xlink:href="#md84320e683" y="202.29649"/>
     <use style="fill:#ff7f0e;stroke:#ff7f0e;" x="213.086551" xlink:href="#md84320e683" y="204.351608"/>
     <use style="fill:#ff7f0e;stroke:#ff7f0e;" x="215.183101" xlink:href="#md84320e683" y="206.318842"/>
     <use style="fill:#ff7f0e;stroke:#ff7f0e;" x="217.279652" xlink:href="#md84320e683" y="208.594942"/>
     <use style="fill:#ff7f0e;stroke:#ff7f0e;" x="219.376203" xlink:href="#md84320e683" y="210.369516"/>
     <use style="fill:#ff7f0e;stroke:#ff7f0e;" x="221.472753" xlink:href="#md84320e683" y="212.137306"/>
     <use style="fill:#ff7f0e;stroke:#ff7f0e;" x="223.569304" xlink:href="#md84320e683" y="213.779615"/>
     <use style="fill:#ff7f0e;stroke:#ff7f0e;" x="225.665855" xlink:href="#md84320e683" y="215.446469"/>
     <use style="fill:#ff7f0e;stroke:#ff7f0e;" x="227.762405" xlink:href="#md84320e683" y="217.386173"/>
     <use style="fill:#ff7f0e;stroke:#ff7f0e;" x="229.858956" xlink:href="#md84320e683" y="218.936661"/>
     <use style="fill:#ff7f0e;stroke:#ff7f0e;" x="231.955506" xlink:href="#md84320e683" y="220.433016"/>
     <use style="fill:#ff7f0e;stroke:#ff7f0e;" x="234.052057" xlink:href="#md84320e683" y="221.947982"/>
     <use style="fill:#ff7f0e;stroke:#ff7f0e;" x="236.148608" xlink:href="#md84320e683" y="223.423051"/>
     <use style="fill:#ff7f0e;stroke:#ff7f0e;" x="238.245158" xlink:href="#md84320e683" y="224.786263"/>
     <use style="fill:#ff7f0e;stroke:#ff7f0e;" x="240.341709" xlink:href="#md84320e683" y="226.33369"/>
     <use style="fill:#ff7f0e;stroke:#ff7f0e;" x="242.43826" xlink:href="#md84320e683" y="227.715221"/>
     <use style="fill:#ff7f0e;stroke:#ff7f0e;" x="244.53481" xlink:href="#md84320e683" y="229.249841"/>
     <use style="fill:#ff7f0e;stroke:#ff7f0e;" x="246.631361" xlink:href="#md84320e683" y="230.54991"/>
     <use style="fill:#ff7f0e;stroke:#ff7f0e;" x="248.727912" xlink:href="#md84320e683" y="231.844943"/>
     <use style="fill:#ff7f0e;stroke:#ff7f0e;" x="250.824462" xlink:href="#md84320e683" y="233.360483"/>
     <use style="fill:#ff7f0e;stroke:#ff7f0e;" x="252.921013" xlink:href="#md84320e683" y="234.585906"/>
     <use style="fill:#ff7f0e;stroke:#ff7f0e;" x="255.017564" xlink:href="#md84320e683" y="235.827829"/>
     <use style="fill:#ff7f0e;stroke:#ff7f0e;" x="257.114114" xlink:href="#md84320e683" y="237.046729"/>
     <use style="fill:#ff7f0e;stroke:#ff7f0e;" x="259.210665" xlink:href="#md84320e683" y="238.329101"/>
     <use style="fill:#ff7f0e;stroke:#ff7f0e;" x="261.307216" xlink:href="#md84320e683" y="239.591443"/>
     <use style="fill:#ff7f0e;stroke:#ff7f0e;" x="263.403766" xlink:href="#md84320e683" y="241.132999"/>
     <use style="fill:#ff7f0e;stroke:#ff7f0e;" x="265.500317" xlink:href="#md84320e683" y="242.447982"/>
     <use style="fill:#ff7f0e;stroke:#ff7f0e;" x="267.596868" xlink:href="#md84320e683" y="243.724536"/>
     <use style="fill:#ff7f0e;stroke:#ff7f0e;" x="269.693418" xlink:href="#md84320e683" y="244.996288"/>
     <use style="fill:#ff7f0e;stroke:#ff7f0e;" x="271.789969" xlink:href="#md84320e683" y="246.260999"/>
     <use style="fill:#ff7f0e;stroke:#ff7f0e;" x="273.886519" xlink:href="#md84320e683" y="247.788851"/>
     <use style="fill:#ff7f0e;stroke:#ff7f0e;" x="275.98307" xlink:href="#md84320e683" y="248.978614"/>
     <use style="fill:#ff7f0e;stroke:#ff7f0e;" x="278.079621" xlink:href="#md84320e683" y="250.211525"/>
     <use style="fill:#ff7f0e;stroke:#ff7f0e;" x="280.176171" xlink:href="#md84320e683" y="251.395068"/>
     <use style="fill:#ff7f0e;stroke:#ff7f0e;" x="282.272722" xlink:href="#md84320e683" y="252.566613"/>
     <use style="fill:#ff7f0e;stroke:#ff7f0e;" x="284.369273" xlink:href="#md84320e683" y="253.660796"/>
     <use style="fill:#ff7f0e;stroke:#ff7f0e;" x="286.465823" xlink:href="#md84320e683" y="255.126951"/>
     <use style="fill:#ff7f0e;stroke:#ff7f0e;" x="288.562374" xlink:href="#md84320e683" y="256.333514"/>
     <use style="fill:#ff7f0e;stroke:#ff7f0e;" x="290.658925" xlink:href="#md84320e683" y="257.513771"/>
     <use style="fill:#ff7f0e;stroke:#ff7f0e;" x="292.755475" xlink:href="#md84320e683" y="258.77075"/>
     <use style="fill:#ff7f0e;stroke:#ff7f0e;" x="294.852026" xlink:href="#md84320e683" y="260.026949"/>
     <use style="fill:#ff7f0e;stroke:#ff7f0e;" x="296.948577" xlink:href="#md84320e683" y="261.401336"/>
     <use style="fill:#ff7f0e;stroke:#ff7f0e;" x="299.045127" xlink:href="#md84320e683" y="263.021403"/>
     <use style="fill:#ff7f0e;stroke:#ff7f0e;" x="301.141678" xlink:href="#md84320e683" y="264.38055"/>
     <use style="fill:#ff7f0e;stroke:#ff7f0e;" x="303.238229" xlink:href="#md84320e683" y="265.711011"/>
     <use style="fill:#ff7f0e;stroke:#ff7f0e;" x="305.334779" xlink:href="#md84320e683" y="266.977947"/>
     <use style="fill:#ff7f0e;stroke:#ff7f0e;" x="307.43133" xlink:href="#md84320e683" y="268.165711"/>
     <use style="fill:#ff7f0e;stroke:#ff7f0e;" x="309.527881" xlink:href="#md84320e683" y="269.484622"/>
     <use style="fill:#ff7f0e;stroke:#ff7f0e;" x="311.624431" xlink:href="#md84320e683" y="270.46558"/>
     <use style="fill:#ff7f0e;stroke:#ff7f0e;" x="313.720982" xlink:href="#md84320e683" y="271.408007"/>
     <use style="fill:#ff7f0e;stroke:#ff7f0e;" x="315.817532" xlink:href="#md84320e683" y="272.257163"/>
     <use style="fill:#ff7f0e;stroke:#ff7f0e;" x="317.914083" xlink:href="#md84320e683" y="273.011932"/>
     <use style="fill:#ff7f0e;stroke:#ff7f0e;" x="320.010634" xlink:href="#md84320e683" y="273.556631"/>
     <use style="fill:#ff7f0e;stroke:#ff7f0e;" x="322.107184" xlink:href="#md84320e683" y="274.391049"/>
     <use style="fill:#ff7f0e;stroke:#ff7f0e;" x="324.203735" xlink:href="#md84320e683" y="274.885546"/>
     <use style="fill:#ff7f0e;stroke:#ff7f0e;" x="326.300286" xlink:href="#md84320e683" y="275.282882"/>
     <use style="fill:#ff7f0e;stroke:#ff7f0e;" x="328.396836" xlink:href="#md84320e683" y="275.627601"/>
     <use style="fill:#ff7f0e;stroke:#ff7f0e;" x="330.493387" xlink:href="#md84320e683" y="275.941233"/>
     <use style="fill:#ff7f0e;stroke:#ff7f0e;" x="332.589938" xlink:href="#md84320e683" y="276.245426"/>
     <use style="fill:#ff7f0e;stroke:#ff7f0e;" x="334.686488" xlink:href="#md84320e683" y="276.433141"/>
     <use style="fill:#ff7f0e;stroke:#ff7f0e;" x="336.783039" xlink:href="#md84320e683" y="276.637765"/>
     <use style="fill:#ff7f0e;stroke:#ff7f0e;" x="338.87959" xlink:href="#md84320e683" y="276.775153"/>
     <use style="fill:#ff7f0e;stroke:#ff7f0e;" x="340.97614" xlink:href="#md84320e683" y="276.930888"/>
     <use style="fill:#ff7f0e;stroke:#ff7f0e;" x="343.072691" xlink:href="#md84320e683" y="277.049433"/>
     <use style="fill:#ff7f0e;stroke:#ff7f0e;" x="345.169242" xlink:href="#md84320e683" y="277.195029"/>
     <use style="fill:#ff7f0e;stroke:#ff7f0e;" x="347.265792" xlink:href="#md84320e683" y="277.298707"/>
     <use style="fill:#ff7f0e;stroke:#ff7f0e;" x="349.362343" xlink:href="#md84320e683" y="277.372795"/>
     <use style="fill:#ff7f0e;stroke:#ff7f0e;" x="351.458894" xlink:href="#md84320e683" y="277.405587"/>
     <use style="fill:#ff7f0e;stroke:#ff7f0e;" x="353.555444" xlink:href="#md84320e683" y="277.379519"/>
     <use style="fill:#ff7f0e;stroke:#ff7f0e;" x="355.651995" xlink:href="#md84320e683" y="277.347694"/>
     <use style="fill:#ff7f0e;stroke:#ff7f0e;" x="357.748545" xlink:href="#md84320e683" y="277.251673"/>
     <use style="fill:#ff7f0e;stroke:#ff7f0e;" x="359.845096" xlink:href="#md84320e683" y="277.071762"/>
     <use style="fill:#ff7f0e;stroke:#ff7f0e;" x="361.941647" xlink:href="#md84320e683" y="276.796563"/>
     <use style="fill:#ff7f0e;stroke:#ff7f0e;" x="364.038197" xlink:href="#md84320e683" y="276.459919"/>
     <use style="fill:#ff7f0e;stroke:#ff7f0e;" x="366.134748" xlink:href="#md84320e683" y="276.013966"/>
     <use style="fill:#ff7f0e;stroke:#ff7f0e;" x="368.231299" xlink:href="#md84320e683" y="275.402493"/>
    </g>
   </g>
   <g id="matplotlib.axis_1">
    <g id="xtick_1">
     <g id="line2d_1">
      <defs>
       <path d="M 0 0 
L 0 3.5 
" id="mc461c6e257" style="stroke:#000000;stroke-width:0.8;"/>
      </defs>
      <g>
       <use style="stroke:#000000;stroke-width:0.8;" x="53.748701" xlink:href="#mc461c6e257" y="304.457143"/>
      </g>
     </g>
     <g id="text_1">
      <!-- 0 -->
      <defs>
       <path d="M 31.78125 66.40625 
Q 24.171875 66.40625 20.328125 58.90625 
Q 16.5 51.421875 16.5 36.375 
Q 16.5 21.390625 20.328125 13.890625 
Q 24.171875 6.390625 31.78125 6.390625 
Q 39.453125 6.390625 43.28125 13.890625 
Q 47.125 21.390625 47.125 36.375 
Q 47.125 51.421875 43.28125 58.90625 
Q 39.453125 66.40625 31.78125 66.40625 
z
M 31.78125 74.21875 
Q 44.046875 74.21875 50.515625 64.515625 
Q 56.984375 54.828125 56.984375 36.375 
Q 56.984375 17.96875 50.515625 8.265625 
Q 44.046875 -1.421875 31.78125 -1.421875 
Q 19.53125 -1.421875 13.0625 8.265625 
Q 6.59375 17.96875 6.59375 36.375 
Q 6.59375 54.828125 13.0625 64.515625 
Q 19.53125 74.21875 31.78125 74.21875 
z
" id="DejaVuSans-48"/>
      </defs>
      <g transform="translate(48.976826 322.854799)scale(0.15 -0.15)">
       <use xlink:href="#DejaVuSans-48"/>
      </g>
     </g>
    </g>
    <g id="xtick_2">
     <g id="line2d_2">
      <g>
       <use style="stroke:#000000;stroke-width:0.8;" x="118.135293" xlink:href="#mc461c6e257" y="304.457143"/>
      </g>
     </g>
     <g id="text_2">
      <!-- 2 -->
      <defs>
       <path d="M 19.1875 8.296875 
L 53.609375 8.296875 
L 53.609375 0 
L 7.328125 0 
L 7.328125 8.296875 
Q 12.9375 14.109375 22.625 23.890625 
Q 32.328125 33.6875 34.8125 36.53125 
Q 39.546875 41.84375 41.421875 45.53125 
Q 43.3125 49.21875 43.3125 52.78125 
Q 43.3125 58.59375 39.234375 62.25 
Q 35.15625 65.921875 28.609375 65.921875 
Q 23.96875 65.921875 18.8125 64.3125 
Q 13.671875 62.703125 7.8125 59.421875 
L 7.8125 69.390625 
Q 13.765625 71.78125 18.9375 73 
Q 24.125 74.21875 28.421875 74.21875 
Q 39.75 74.21875 46.484375 68.546875 
Q 53.21875 62.890625 53.21875 53.421875 
Q 53.21875 48.921875 51.53125 44.890625 
Q 49.859375 40.875 45.40625 35.40625 
Q 44.1875 33.984375 37.640625 27.21875 
Q 31.109375 20.453125 19.1875 8.296875 
z
" id="DejaVuSans-50"/>
      </defs>
      <g transform="translate(113.363418 322.854799)scale(0.15 -0.15)">
       <use xlink:href="#DejaVuSans-50"/>
      </g>
     </g>
    </g>
    <g id="xtick_3">
     <g id="line2d_3">
      <g>
       <use style="stroke:#000000;stroke-width:0.8;" x="182.521885" xlink:href="#mc461c6e257" y="304.457143"/>
      </g>
     </g>
     <g id="text_3">
      <!-- 4 -->
      <defs>
       <path d="M 37.796875 64.3125 
L 12.890625 25.390625 
L 37.796875 25.390625 
z
M 35.203125 72.90625 
L 47.609375 72.90625 
L 47.609375 25.390625 
L 58.015625 25.390625 
L 58.015625 17.1875 
L 47.609375 17.1875 
L 47.609375 0 
L 37.796875 0 
L 37.796875 17.1875 
L 4.890625 17.1875 
L 4.890625 26.703125 
z
" id="DejaVuSans-52"/>
      </defs>
      <g transform="translate(177.75001 322.854799)scale(0.15 -0.15)">
       <use xlink:href="#DejaVuSans-52"/>
      </g>
     </g>
    </g>
    <g id="xtick_4">
     <g id="line2d_4">
      <g>
       <use style="stroke:#000000;stroke-width:0.8;" x="246.908477" xlink:href="#mc461c6e257" y="304.457143"/>
      </g>
     </g>
     <g id="text_4">
      <!-- 6 -->
      <defs>
       <path d="M 33.015625 40.375 
Q 26.375 40.375 22.484375 35.828125 
Q 18.609375 31.296875 18.609375 23.390625 
Q 18.609375 15.53125 22.484375 10.953125 
Q 26.375 6.390625 33.015625 6.390625 
Q 39.65625 6.390625 43.53125 10.953125 
Q 47.40625 15.53125 47.40625 23.390625 
Q 47.40625 31.296875 43.53125 35.828125 
Q 39.65625 40.375 33.015625 40.375 
z
M 52.59375 71.296875 
L 52.59375 62.3125 
Q 48.875 64.0625 45.09375 64.984375 
Q 41.3125 65.921875 37.59375 65.921875 
Q 27.828125 65.921875 22.671875 59.328125 
Q 17.53125 52.734375 16.796875 39.40625 
Q 19.671875 43.65625 24.015625 45.921875 
Q 28.375 48.1875 33.59375 48.1875 
Q 44.578125 48.1875 50.953125 41.515625 
Q 57.328125 34.859375 57.328125 23.390625 
Q 57.328125 12.15625 50.6875 5.359375 
Q 44.046875 -1.421875 33.015625 -1.421875 
Q 20.359375 -1.421875 13.671875 8.265625 
Q 6.984375 17.96875 6.984375 36.375 
Q 6.984375 53.65625 15.1875 63.9375 
Q 23.390625 74.21875 37.203125 74.21875 
Q 40.921875 74.21875 44.703125 73.484375 
Q 48.484375 72.75 52.59375 71.296875 
z
" id="DejaVuSans-54"/>
      </defs>
      <g transform="translate(242.136602 322.854799)scale(0.15 -0.15)">
       <use xlink:href="#DejaVuSans-54"/>
      </g>
     </g>
    </g>
    <g id="xtick_5">
     <g id="line2d_5">
      <g>
       <use style="stroke:#000000;stroke-width:0.8;" x="311.295069" xlink:href="#mc461c6e257" y="304.457143"/>
      </g>
     </g>
     <g id="text_5">
      <!-- 8 -->
      <defs>
       <path d="M 31.78125 34.625 
Q 24.75 34.625 20.71875 30.859375 
Q 16.703125 27.09375 16.703125 20.515625 
Q 16.703125 13.921875 20.71875 10.15625 
Q 24.75 6.390625 31.78125 6.390625 
Q 38.8125 6.390625 42.859375 10.171875 
Q 46.921875 13.96875 46.921875 20.515625 
Q 46.921875 27.09375 42.890625 30.859375 
Q 38.875 34.625 31.78125 34.625 
z
M 21.921875 38.8125 
Q 15.578125 40.375 12.03125 44.71875 
Q 8.5 49.078125 8.5 55.328125 
Q 8.5 64.0625 14.71875 69.140625 
Q 20.953125 74.21875 31.78125 74.21875 
Q 42.671875 74.21875 48.875 69.140625 
Q 55.078125 64.0625 55.078125 55.328125 
Q 55.078125 49.078125 51.53125 44.71875 
Q 48 40.375 41.703125 38.8125 
Q 48.828125 37.15625 52.796875 32.3125 
Q 56.78125 27.484375 56.78125 20.515625 
Q 56.78125 9.90625 50.3125 4.234375 
Q 43.84375 -1.421875 31.78125 -1.421875 
Q 19.734375 -1.421875 13.25 4.234375 
Q 6.78125 9.90625 6.78125 20.515625 
Q 6.78125 27.484375 10.78125 32.3125 
Q 14.796875 37.15625 21.921875 38.8125 
z
M 18.3125 54.390625 
Q 18.3125 48.734375 21.84375 45.5625 
Q 25.390625 42.390625 31.78125 42.390625 
Q 38.140625 42.390625 41.71875 45.5625 
Q 45.3125 48.734375 45.3125 54.390625 
Q 45.3125 60.0625 41.71875 63.234375 
Q 38.140625 66.40625 31.78125 66.40625 
Q 25.390625 66.40625 21.84375 63.234375 
Q 18.3125 60.0625 18.3125 54.390625 
z
" id="DejaVuSans-56"/>
      </defs>
      <g transform="translate(306.523194 322.854799)scale(0.15 -0.15)">
       <use xlink:href="#DejaVuSans-56"/>
      </g>
     </g>
    </g>
    <g id="xtick_6">
     <g id="line2d_6">
      <g>
       <use style="stroke:#000000;stroke-width:0.8;" x="375.681661" xlink:href="#mc461c6e257" y="304.457143"/>
      </g>
     </g>
     <g id="text_6">
      <!-- 10 -->
      <defs>
       <path d="M 12.40625 8.296875 
L 28.515625 8.296875 
L 28.515625 63.921875 
L 10.984375 60.40625 
L 10.984375 69.390625 
L 28.421875 72.90625 
L 38.28125 72.90625 
L 38.28125 8.296875 
L 54.390625 8.296875 
L 54.390625 0 
L 12.40625 0 
z
" id="DejaVuSans-49"/>
      </defs>
      <g transform="translate(366.137911 322.854799)scale(0.15 -0.15)">
       <use xlink:href="#DejaVuSans-49"/>
       <use x="63.623047" xlink:href="#DejaVuSans-48"/>
      </g>
     </g>
    </g>
    <g id="text_7">
     <!-- time [s] -->
     <defs>
      <path d="M 18.3125 70.21875 
L 18.3125 54.6875 
L 36.8125 54.6875 
L 36.8125 47.703125 
L 18.3125 47.703125 
L 18.3125 18.015625 
Q 18.3125 11.328125 20.140625 9.421875 
Q 21.96875 7.515625 27.59375 7.515625 
L 36.8125 7.515625 
L 36.8125 0 
L 27.59375 0 
Q 17.1875 0 13.234375 3.875 
Q 9.28125 7.765625 9.28125 18.015625 
L 9.28125 47.703125 
L 2.6875 47.703125 
L 2.6875 54.6875 
L 9.28125 54.6875 
L 9.28125 70.21875 
z
" id="DejaVuSans-116"/>
      <path d="M 9.421875 54.6875 
L 18.40625 54.6875 
L 18.40625 0 
L 9.421875 0 
z
M 9.421875 75.984375 
L 18.40625 75.984375 
L 18.40625 64.59375 
L 9.421875 64.59375 
z
" id="DejaVuSans-105"/>
      <path d="M 52 44.1875 
Q 55.375 50.25 60.0625 53.125 
Q 64.75 56 71.09375 56 
Q 79.640625 56 84.28125 50.015625 
Q 88.921875 44.046875 88.921875 33.015625 
L 88.921875 0 
L 79.890625 0 
L 79.890625 32.71875 
Q 79.890625 40.578125 77.09375 44.375 
Q 74.3125 48.1875 68.609375 48.1875 
Q 61.625 48.1875 57.5625 43.546875 
Q 53.515625 38.921875 53.515625 30.90625 
L 53.515625 0 
L 44.484375 0 
L 44.484375 32.71875 
Q 44.484375 40.625 41.703125 44.40625 
Q 38.921875 48.1875 33.109375 48.1875 
Q 26.21875 48.1875 22.15625 43.53125 
Q 18.109375 38.875 18.109375 30.90625 
L 18.109375 0 
L 9.078125 0 
L 9.078125 54.6875 
L 18.109375 54.6875 
L 18.109375 46.1875 
Q 21.1875 51.21875 25.484375 53.609375 
Q 29.78125 56 35.6875 56 
Q 41.65625 56 45.828125 52.96875 
Q 50 49.953125 52 44.1875 
z
" id="DejaVuSans-109"/>
      <path d="M 56.203125 29.59375 
L 56.203125 25.203125 
L 14.890625 25.203125 
Q 15.484375 15.921875 20.484375 11.0625 
Q 25.484375 6.203125 34.421875 6.203125 
Q 39.59375 6.203125 44.453125 7.46875 
Q 49.3125 8.734375 54.109375 11.28125 
L 54.109375 2.78125 
Q 49.265625 0.734375 44.1875 -0.34375 
Q 39.109375 -1.421875 33.890625 -1.421875 
Q 20.796875 -1.421875 13.15625 6.1875 
Q 5.515625 13.8125 5.515625 26.8125 
Q 5.515625 40.234375 12.765625 48.109375 
Q 20.015625 56 32.328125 56 
Q 43.359375 56 49.78125 48.890625 
Q 56.203125 41.796875 56.203125 29.59375 
z
M 47.21875 32.234375 
Q 47.125 39.59375 43.09375 43.984375 
Q 39.0625 48.390625 32.421875 48.390625 
Q 24.90625 48.390625 20.390625 44.140625 
Q 15.875 39.890625 15.1875 32.171875 
z
" id="DejaVuSans-101"/>
      <path id="DejaVuSans-32"/>
      <path d="M 8.59375 75.984375 
L 29.296875 75.984375 
L 29.296875 69 
L 17.578125 69 
L 17.578125 -6.203125 
L 29.296875 -6.203125 
L 29.296875 -13.1875 
L 8.59375 -13.1875 
z
" id="DejaVuSans-91"/>
      <path d="M 44.28125 53.078125 
L 44.28125 44.578125 
Q 40.484375 46.53125 36.375 47.5 
Q 32.28125 48.484375 27.875 48.484375 
Q 21.1875 48.484375 17.84375 46.4375 
Q 14.5 44.390625 14.5 40.28125 
Q 14.5 37.15625 16.890625 35.375 
Q 19.28125 33.59375 26.515625 31.984375 
L 29.59375 31.296875 
Q 39.15625 29.25 43.1875 25.515625 
Q 47.21875 21.78125 47.21875 15.09375 
Q 47.21875 7.46875 41.1875 3.015625 
Q 35.15625 -1.421875 24.609375 -1.421875 
Q 20.21875 -1.421875 15.453125 -0.5625 
Q 10.6875 0.296875 5.421875 2 
L 5.421875 11.28125 
Q 10.40625 8.6875 15.234375 7.390625 
Q 20.0625 6.109375 24.8125 6.109375 
Q 31.15625 6.109375 34.5625 8.28125 
Q 37.984375 10.453125 37.984375 14.40625 
Q 37.984375 18.0625 35.515625 20.015625 
Q 33.0625 21.96875 24.703125 23.78125 
L 21.578125 24.515625 
Q 13.234375 26.265625 9.515625 29.90625 
Q 5.8125 33.546875 5.8125 39.890625 
Q 5.8125 47.609375 11.28125 51.796875 
Q 16.75 56 26.8125 56 
Q 31.78125 56 36.171875 55.265625 
Q 40.578125 54.546875 44.28125 53.078125 
z
" id="DejaVuSans-115"/>
      <path d="M 30.421875 75.984375 
L 30.421875 -13.1875 
L 9.71875 -13.1875 
L 9.71875 -6.203125 
L 21.390625 -6.203125 
L 21.390625 69 
L 9.71875 69 
L 9.71875 75.984375 
z
" id="DejaVuSans-93"/>
     </defs>
     <g transform="translate(181.902891 341.371987)scale(0.15 -0.15)">
      <use xlink:href="#DejaVuSans-116"/>
      <use x="39.208984" xlink:href="#DejaVuSans-105"/>
      <use x="66.992188" xlink:href="#DejaVuSans-109"/>
      <use x="164.404297" xlink:href="#DejaVuSans-101"/>
      <use x="225.927734" xlink:href="#DejaVuSans-32"/>
      <use x="257.714844" xlink:href="#DejaVuSans-91"/>
      <use x="296.728516" xlink:href="#DejaVuSans-115"/>
      <use x="348.828125" xlink:href="#DejaVuSans-93"/>
     </g>
    </g>
   </g>
   <g id="matplotlib.axis_2">
    <g id="ytick_1">
     <g id="line2d_7">
      <defs>
       <path d="M 0 0 
L -3.5 0 
" id="m14c0ede935" style="stroke:#000000;stroke-width:0.8;"/>
      </defs>
      <g>
       <use style="stroke:#000000;stroke-width:0.8;" x="38.024571" xlink:href="#m14c0ede935" y="304.457143"/>
      </g>
     </g>
     <g id="text_8">
      <!-- 0 -->
      <g transform="translate(21.480821 310.155971)scale(0.15 -0.15)">
       <use xlink:href="#DejaVuSans-48"/>
      </g>
     </g>
    </g>
    <g id="ytick_2">
     <g id="line2d_8">
      <g>
       <use style="stroke:#000000;stroke-width:0.8;" x="38.024571" xlink:href="#m14c0ede935" y="271.901922"/>
      </g>
     </g>
     <g id="text_9">
      <!-- 1 -->
      <g transform="translate(21.480821 277.60075)scale(0.15 -0.15)">
       <use xlink:href="#DejaVuSans-49"/>
      </g>
     </g>
    </g>
    <g id="ytick_3">
     <g id="line2d_9">
      <g>
       <use style="stroke:#000000;stroke-width:0.8;" x="38.024571" xlink:href="#m14c0ede935" y="239.346701"/>
      </g>
     </g>
     <g id="text_10">
      <!-- 2 -->
      <g transform="translate(21.480821 245.045529)scale(0.15 -0.15)">
       <use xlink:href="#DejaVuSans-50"/>
      </g>
     </g>
    </g>
    <g id="ytick_4">
     <g id="line2d_10">
      <g>
       <use style="stroke:#000000;stroke-width:0.8;" x="38.024571" xlink:href="#m14c0ede935" y="206.791481"/>
      </g>
     </g>
     <g id="text_11">
      <!-- 3 -->
      <defs>
       <path d="M 40.578125 39.3125 
Q 47.65625 37.796875 51.625 33 
Q 55.609375 28.21875 55.609375 21.1875 
Q 55.609375 10.40625 48.1875 4.484375 
Q 40.765625 -1.421875 27.09375 -1.421875 
Q 22.515625 -1.421875 17.65625 -0.515625 
Q 12.796875 0.390625 7.625 2.203125 
L 7.625 11.71875 
Q 11.71875 9.328125 16.59375 8.109375 
Q 21.484375 6.890625 26.8125 6.890625 
Q 36.078125 6.890625 40.9375 10.546875 
Q 45.796875 14.203125 45.796875 21.1875 
Q 45.796875 27.640625 41.28125 31.265625 
Q 36.765625 34.90625 28.71875 34.90625 
L 20.21875 34.90625 
L 20.21875 43.015625 
L 29.109375 43.015625 
Q 36.375 43.015625 40.234375 45.921875 
Q 44.09375 48.828125 44.09375 54.296875 
Q 44.09375 59.90625 40.109375 62.90625 
Q 36.140625 65.921875 28.71875 65.921875 
Q 24.65625 65.921875 20.015625 65.03125 
Q 15.375 64.15625 9.8125 62.3125 
L 9.8125 71.09375 
Q 15.4375 72.65625 20.34375 73.4375 
Q 25.25 74.21875 29.59375 74.21875 
Q 40.828125 74.21875 47.359375 69.109375 
Q 53.90625 64.015625 53.90625 55.328125 
Q 53.90625 49.265625 50.4375 45.09375 
Q 46.96875 40.921875 40.578125 39.3125 
z
" id="DejaVuSans-51"/>
      </defs>
      <g transform="translate(21.480821 212.490309)scale(0.15 -0.15)">
       <use xlink:href="#DejaVuSans-51"/>
      </g>
     </g>
    </g>
    <g id="ytick_5">
     <g id="line2d_11">
      <g>
       <use style="stroke:#000000;stroke-width:0.8;" x="38.024571" xlink:href="#m14c0ede935" y="174.23626"/>
      </g>
     </g>
     <g id="text_12">
      <!-- 4 -->
      <g transform="translate(21.480821 179.935088)scale(0.15 -0.15)">
       <use xlink:href="#DejaVuSans-52"/>
      </g>
     </g>
    </g>
    <g id="ytick_6">
     <g id="line2d_12">
      <g>
       <use style="stroke:#000000;stroke-width:0.8;" x="38.024571" xlink:href="#m14c0ede935" y="141.681039"/>
      </g>
     </g>
     <g id="text_13">
      <!-- 5 -->
      <defs>
       <path d="M 10.796875 72.90625 
L 49.515625 72.90625 
L 49.515625 64.59375 
L 19.828125 64.59375 
L 19.828125 46.734375 
Q 21.96875 47.46875 24.109375 47.828125 
Q 26.265625 48.1875 28.421875 48.1875 
Q 40.625 48.1875 47.75 41.5 
Q 54.890625 34.8125 54.890625 23.390625 
Q 54.890625 11.625 47.5625 5.09375 
Q 40.234375 -1.421875 26.90625 -1.421875 
Q 22.3125 -1.421875 17.546875 -0.640625 
Q 12.796875 0.140625 7.71875 1.703125 
L 7.71875 11.625 
Q 12.109375 9.234375 16.796875 8.0625 
Q 21.484375 6.890625 26.703125 6.890625 
Q 35.15625 6.890625 40.078125 11.328125 
Q 45.015625 15.765625 45.015625 23.390625 
Q 45.015625 31 40.078125 35.4375 
Q 35.15625 39.890625 26.703125 39.890625 
Q 22.75 39.890625 18.8125 39.015625 
Q 14.890625 38.140625 10.796875 36.28125 
z
" id="DejaVuSans-53"/>
      </defs>
      <g transform="translate(21.480821 147.379867)scale(0.15 -0.15)">
       <use xlink:href="#DejaVuSans-53"/>
      </g>
     </g>
    </g>
    <g id="ytick_7">
     <g id="line2d_13">
      <g>
       <use style="stroke:#000000;stroke-width:0.8;" x="38.024571" xlink:href="#m14c0ede935" y="109.125818"/>
      </g>
     </g>
     <g id="text_14">
      <!-- 6 -->
      <g transform="translate(21.480821 114.824646)scale(0.15 -0.15)">
       <use xlink:href="#DejaVuSans-54"/>
      </g>
     </g>
    </g>
    <g id="ytick_8">
     <g id="line2d_14">
      <g>
       <use style="stroke:#000000;stroke-width:0.8;" x="38.024571" xlink:href="#m14c0ede935" y="76.570597"/>
      </g>
     </g>
     <g id="text_15">
      <!-- 7 -->
      <defs>
       <path d="M 8.203125 72.90625 
L 55.078125 72.90625 
L 55.078125 68.703125 
L 28.609375 0 
L 18.3125 0 
L 43.21875 64.59375 
L 8.203125 64.59375 
z
" id="DejaVuSans-55"/>
      </defs>
      <g transform="translate(21.480821 82.269426)scale(0.15 -0.15)">
       <use xlink:href="#DejaVuSans-55"/>
      </g>
     </g>
    </g>
    <g id="ytick_9">
     <g id="line2d_15">
      <g>
       <use style="stroke:#000000;stroke-width:0.8;" x="38.024571" xlink:href="#m14c0ede935" y="44.015377"/>
      </g>
     </g>
     <g id="text_16">
      <!-- 8 -->
      <g transform="translate(21.480821 49.714205)scale(0.15 -0.15)">
       <use xlink:href="#DejaVuSans-56"/>
      </g>
     </g>
    </g>
    <g id="text_17">
     <!-- range [m] -->
     <defs>
      <path d="M 41.109375 46.296875 
Q 39.59375 47.171875 37.8125 47.578125 
Q 36.03125 48 33.890625 48 
Q 26.265625 48 22.1875 43.046875 
Q 18.109375 38.09375 18.109375 28.8125 
L 18.109375 0 
L 9.078125 0 
L 9.078125 54.6875 
L 18.109375 54.6875 
L 18.109375 46.1875 
Q 20.953125 51.171875 25.484375 53.578125 
Q 30.03125 56 36.53125 56 
Q 37.453125 56 38.578125 55.875 
Q 39.703125 55.765625 41.0625 55.515625 
z
" id="DejaVuSans-114"/>
      <path d="M 34.28125 27.484375 
Q 23.390625 27.484375 19.1875 25 
Q 14.984375 22.515625 14.984375 16.5 
Q 14.984375 11.71875 18.140625 8.90625 
Q 21.296875 6.109375 26.703125 6.109375 
Q 34.1875 6.109375 38.703125 11.40625 
Q 43.21875 16.703125 43.21875 25.484375 
L 43.21875 27.484375 
z
M 52.203125 31.203125 
L 52.203125 0 
L 43.21875 0 
L 43.21875 8.296875 
Q 40.140625 3.328125 35.546875 0.953125 
Q 30.953125 -1.421875 24.3125 -1.421875 
Q 15.921875 -1.421875 10.953125 3.296875 
Q 6 8.015625 6 15.921875 
Q 6 25.140625 12.171875 29.828125 
Q 18.359375 34.515625 30.609375 34.515625 
L 43.21875 34.515625 
L 43.21875 35.40625 
Q 43.21875 41.609375 39.140625 45 
Q 35.0625 48.390625 27.6875 48.390625 
Q 23 48.390625 18.546875 47.265625 
Q 14.109375 46.140625 10.015625 43.890625 
L 10.015625 52.203125 
Q 14.9375 54.109375 19.578125 55.046875 
Q 24.21875 56 28.609375 56 
Q 40.484375 56 46.34375 49.84375 
Q 52.203125 43.703125 52.203125 31.203125 
z
" id="DejaVuSans-97"/>
      <path d="M 54.890625 33.015625 
L 54.890625 0 
L 45.90625 0 
L 45.90625 32.71875 
Q 45.90625 40.484375 42.875 44.328125 
Q 39.84375 48.1875 33.796875 48.1875 
Q 26.515625 48.1875 22.3125 43.546875 
Q 18.109375 38.921875 18.109375 30.90625 
L 18.109375 0 
L 9.078125 0 
L 9.078125 54.6875 
L 18.109375 54.6875 
L 18.109375 46.1875 
Q 21.34375 51.125 25.703125 53.5625 
Q 30.078125 56 35.796875 56 
Q 45.21875 56 50.046875 50.171875 
Q 54.890625 44.34375 54.890625 33.015625 
z
" id="DejaVuSans-110"/>
      <path d="M 45.40625 27.984375 
Q 45.40625 37.75 41.375 43.109375 
Q 37.359375 48.484375 30.078125 48.484375 
Q 22.859375 48.484375 18.828125 43.109375 
Q 14.796875 37.75 14.796875 27.984375 
Q 14.796875 18.265625 18.828125 12.890625 
Q 22.859375 7.515625 30.078125 7.515625 
Q 37.359375 7.515625 41.375 12.890625 
Q 45.40625 18.265625 45.40625 27.984375 
z
M 54.390625 6.78125 
Q 54.390625 -7.171875 48.1875 -13.984375 
Q 42 -20.796875 29.203125 -20.796875 
Q 24.46875 -20.796875 20.265625 -20.09375 
Q 16.0625 -19.390625 12.109375 -17.921875 
L 12.109375 -9.1875 
Q 16.0625 -11.328125 19.921875 -12.34375 
Q 23.78125 -13.375 27.78125 -13.375 
Q 36.625 -13.375 41.015625 -8.765625 
Q 45.40625 -4.15625 45.40625 5.171875 
L 45.40625 9.625 
Q 42.625 4.78125 38.28125 2.390625 
Q 33.9375 0 27.875 0 
Q 17.828125 0 11.671875 7.65625 
Q 5.515625 15.328125 5.515625 27.984375 
Q 5.515625 40.671875 11.671875 48.328125 
Q 17.828125 56 27.875 56 
Q 33.9375 56 38.28125 53.609375 
Q 42.625 51.21875 45.40625 46.390625 
L 45.40625 54.6875 
L 54.390625 54.6875 
z
" id="DejaVuSans-103"/>
     </defs>
     <g transform="translate(14.36129 201.921429)rotate(-90)scale(0.15 -0.15)">
      <use xlink:href="#DejaVuSans-114"/>
      <use x="41.113281" xlink:href="#DejaVuSans-97"/>
      <use x="102.392578" xlink:href="#DejaVuSans-110"/>
      <use x="165.771484" xlink:href="#DejaVuSans-103"/>
      <use x="229.248047" xlink:href="#DejaVuSans-101"/>
      <use x="290.771484" xlink:href="#DejaVuSans-32"/>
      <use x="322.558594" xlink:href="#DejaVuSans-91"/>
      <use x="361.572266" xlink:href="#DejaVuSans-109"/>
      <use x="458.984375" xlink:href="#DejaVuSans-93"/>
     </g>
    </g>
   </g>
   <g id="patch_3">
    <path d="M 38.024571 304.457143 
L 38.024571 24.685714 
" style="fill:none;stroke:#000000;stroke-linecap:square;stroke-linejoin:miter;stroke-width:0.8;"/>
   </g>
   <g id="patch_4">
    <path d="M 383.955429 304.457143 
L 383.955429 24.685714 
" style="fill:none;stroke:#000000;stroke-linecap:square;stroke-linejoin:miter;stroke-width:0.8;"/>
   </g>
   <g id="patch_5">
    <path d="M 38.024571 304.457143 
L 383.955429 304.457143 
" style="fill:none;stroke:#000000;stroke-linecap:square;stroke-linejoin:miter;stroke-width:0.8;"/>
   </g>
   <g id="patch_6">
    <path d="M 38.024571 24.685714 
L 383.955429 24.685714 
" style="fill:none;stroke:#000000;stroke-linecap:square;stroke-linejoin:miter;stroke-width:0.8;"/>
   </g>
   <g id="text_18">
    <!-- Bag 10 -->
    <defs>
     <path d="M 19.671875 34.8125 
L 19.671875 8.109375 
L 35.5 8.109375 
Q 43.453125 8.109375 47.28125 11.40625 
Q 51.125 14.703125 51.125 21.484375 
Q 51.125 28.328125 47.28125 31.5625 
Q 43.453125 34.8125 35.5 34.8125 
z
M 19.671875 64.796875 
L 19.671875 42.828125 
L 34.28125 42.828125 
Q 41.5 42.828125 45.03125 45.53125 
Q 48.578125 48.25 48.578125 53.8125 
Q 48.578125 59.328125 45.03125 62.0625 
Q 41.5 64.796875 34.28125 64.796875 
z
M 9.8125 72.90625 
L 35.015625 72.90625 
Q 46.296875 72.90625 52.390625 68.21875 
Q 58.5 63.53125 58.5 54.890625 
Q 58.5 48.1875 55.375 44.234375 
Q 52.25 40.28125 46.1875 39.3125 
Q 53.46875 37.75 57.5 32.78125 
Q 61.53125 27.828125 61.53125 20.40625 
Q 61.53125 10.640625 54.890625 5.3125 
Q 48.25 0 35.984375 0 
L 9.8125 0 
z
" id="DejaVuSans-66"/>
    </defs>
    <g transform="translate(179.273437 18.685714)scale(0.18 -0.18)">
     <use xlink:href="#DejaVuSans-66"/>
     <use x="68.603516" xlink:href="#DejaVuSans-97"/>
     <use x="129.882812" xlink:href="#DejaVuSans-103"/>
     <use x="193.359375" xlink:href="#DejaVuSans-32"/>
     <use x="225.146484" xlink:href="#DejaVuSans-49"/>
     <use x="288.769531" xlink:href="#DejaVuSans-48"/>
    </g>
   </g>
   <g id="legend_1">
    <g id="patch_7">
     <path d="M 255.904647 80.720089 
L 373.455429 80.720089 
Q 376.455429 80.720089 376.455429 77.720089 
L 376.455429 35.185714 
Q 376.455429 32.185714 373.455429 32.185714 
L 255.904647 32.185714 
Q 252.904647 32.185714 252.904647 35.185714 
L 252.904647 77.720089 
Q 252.904647 80.720089 255.904647 80.720089 
z
" style="fill:#ffffff;opacity:0.8;stroke:#cccccc;stroke-linejoin:miter;"/>
    </g>
    <g id="PathCollection_3">
     <g>
      <use style="fill:#1f77b4;stroke:#1f77b4;" x="273.904647" xlink:href="#m8a9064df6d" y="45.645871"/>
     </g>
    </g>
    <g id="text_19">
     <!-- Radar -->
     <defs>
      <path d="M 44.390625 34.1875 
Q 47.5625 33.109375 50.5625 29.59375 
Q 53.5625 26.078125 56.59375 19.921875 
L 66.609375 0 
L 56 0 
L 46.6875 18.703125 
Q 43.0625 26.03125 39.671875 28.421875 
Q 36.28125 30.8125 30.421875 30.8125 
L 19.671875 30.8125 
L 19.671875 0 
L 9.8125 0 
L 9.8125 72.90625 
L 32.078125 72.90625 
Q 44.578125 72.90625 50.734375 67.671875 
Q 56.890625 62.453125 56.890625 51.90625 
Q 56.890625 45.015625 53.6875 40.46875 
Q 50.484375 35.9375 44.390625 34.1875 
z
M 19.671875 64.796875 
L 19.671875 38.921875 
L 32.078125 38.921875 
Q 39.203125 38.921875 42.84375 42.21875 
Q 46.484375 45.515625 46.484375 51.90625 
Q 46.484375 58.296875 42.84375 61.546875 
Q 39.203125 64.796875 32.078125 64.796875 
z
" id="DejaVuSans-82"/>
      <path d="M 45.40625 46.390625 
L 45.40625 75.984375 
L 54.390625 75.984375 
L 54.390625 0 
L 45.40625 0 
L 45.40625 8.203125 
Q 42.578125 3.328125 38.25 0.953125 
Q 33.9375 -1.421875 27.875 -1.421875 
Q 17.96875 -1.421875 11.734375 6.484375 
Q 5.515625 14.40625 5.515625 27.296875 
Q 5.515625 40.1875 11.734375 48.09375 
Q 17.96875 56 27.875 56 
Q 33.9375 56 38.25 53.625 
Q 42.578125 51.265625 45.40625 46.390625 
z
M 14.796875 27.296875 
Q 14.796875 17.390625 18.875 11.75 
Q 22.953125 6.109375 30.078125 6.109375 
Q 37.203125 6.109375 41.296875 11.75 
Q 45.40625 17.390625 45.40625 27.296875 
Q 45.40625 37.203125 41.296875 42.84375 
Q 37.203125 48.484375 30.078125 48.484375 
Q 22.953125 48.484375 18.875 42.84375 
Q 14.796875 37.203125 14.796875 27.296875 
z
" id="DejaVuSans-100"/>
     </defs>
     <g transform="translate(300.904647 49.583371)scale(0.15 -0.15)">
      <use xlink:href="#DejaVuSans-82"/>
      <use x="67.232422" xlink:href="#DejaVuSans-97"/>
      <use x="128.511719" xlink:href="#DejaVuSans-100"/>
      <use x="191.988281" xlink:href="#DejaVuSans-97"/>
      <use x="253.267578" xlink:href="#DejaVuSans-114"/>
     </g>
    </g>
    <g id="PathCollection_4">
     <g>
      <use style="fill:#ff7f0e;stroke:#ff7f0e;" x="273.904647" xlink:href="#md84320e683" y="67.663058"/>
     </g>
    </g>
    <g id="text_20">
     <!-- Optitrack -->
     <defs>
      <path d="M 39.40625 66.21875 
Q 28.65625 66.21875 22.328125 58.203125 
Q 16.015625 50.203125 16.015625 36.375 
Q 16.015625 22.609375 22.328125 14.59375 
Q 28.65625 6.59375 39.40625 6.59375 
Q 50.140625 6.59375 56.421875 14.59375 
Q 62.703125 22.609375 62.703125 36.375 
Q 62.703125 50.203125 56.421875 58.203125 
Q 50.140625 66.21875 39.40625 66.21875 
z
M 39.40625 74.21875 
Q 54.734375 74.21875 63.90625 63.9375 
Q 73.09375 53.65625 73.09375 36.375 
Q 73.09375 19.140625 63.90625 8.859375 
Q 54.734375 -1.421875 39.40625 -1.421875 
Q 24.03125 -1.421875 14.8125 8.828125 
Q 5.609375 19.09375 5.609375 36.375 
Q 5.609375 53.65625 14.8125 63.9375 
Q 24.03125 74.21875 39.40625 74.21875 
z
" id="DejaVuSans-79"/>
      <path d="M 18.109375 8.203125 
L 18.109375 -20.796875 
L 9.078125 -20.796875 
L 9.078125 54.6875 
L 18.109375 54.6875 
L 18.109375 46.390625 
Q 20.953125 51.265625 25.265625 53.625 
Q 29.59375 56 35.59375 56 
Q 45.5625 56 51.78125 48.09375 
Q 58.015625 40.1875 58.015625 27.296875 
Q 58.015625 14.40625 51.78125 6.484375 
Q 45.5625 -1.421875 35.59375 -1.421875 
Q 29.59375 -1.421875 25.265625 0.953125 
Q 20.953125 3.328125 18.109375 8.203125 
z
M 48.6875 27.296875 
Q 48.6875 37.203125 44.609375 42.84375 
Q 40.53125 48.484375 33.40625 48.484375 
Q 26.265625 48.484375 22.1875 42.84375 
Q 18.109375 37.203125 18.109375 27.296875 
Q 18.109375 17.390625 22.1875 11.75 
Q 26.265625 6.109375 33.40625 6.109375 
Q 40.53125 6.109375 44.609375 11.75 
Q 48.6875 17.390625 48.6875 27.296875 
z
" id="DejaVuSans-112"/>
      <path d="M 48.78125 52.59375 
L 48.78125 44.1875 
Q 44.96875 46.296875 41.140625 47.34375 
Q 37.3125 48.390625 33.40625 48.390625 
Q 24.65625 48.390625 19.8125 42.84375 
Q 14.984375 37.3125 14.984375 27.296875 
Q 14.984375 17.28125 19.8125 11.734375 
Q 24.65625 6.203125 33.40625 6.203125 
Q 37.3125 6.203125 41.140625 7.25 
Q 44.96875 8.296875 48.78125 10.40625 
L 48.78125 2.09375 
Q 45.015625 0.34375 40.984375 -0.53125 
Q 36.96875 -1.421875 32.421875 -1.421875 
Q 20.0625 -1.421875 12.78125 6.34375 
Q 5.515625 14.109375 5.515625 27.296875 
Q 5.515625 40.671875 12.859375 48.328125 
Q 20.21875 56 33.015625 56 
Q 37.15625 56 41.109375 55.140625 
Q 45.0625 54.296875 48.78125 52.59375 
z
" id="DejaVuSans-99"/>
      <path d="M 9.078125 75.984375 
L 18.109375 75.984375 
L 18.109375 31.109375 
L 44.921875 54.6875 
L 56.390625 54.6875 
L 27.390625 29.109375 
L 57.625 0 
L 45.90625 0 
L 18.109375 26.703125 
L 18.109375 0 
L 9.078125 0 
z
" id="DejaVuSans-107"/>
     </defs>
     <g transform="translate(300.904647 71.600558)scale(0.15 -0.15)">
      <use xlink:href="#DejaVuSans-79"/>
      <use x="78.710938" xlink:href="#DejaVuSans-112"/>
      <use x="142.1875" xlink:href="#DejaVuSans-116"/>
      <use x="181.396484" xlink:href="#DejaVuSans-105"/>
      <use x="209.179688" xlink:href="#DejaVuSans-116"/>
      <use x="248.388672" xlink:href="#DejaVuSans-114"/>
      <use x="289.501953" xlink:href="#DejaVuSans-97"/>
      <use x="350.78125" xlink:href="#DejaVuSans-99"/>
      <use x="405.761719" xlink:href="#DejaVuSans-107"/>
     </g>
    </g>
   </g>
  </g>
 </g>
 <defs>
  <clipPath id="pcd40e5d783">
   <rect height="279.771429" width="345.930857" x="38.024571" y="24.685714"/>
  </clipPath>
 </defs>
</svg>
