<?xml version="1.0" encoding="utf-8" standalone="no"?>
<!DOCTYPE svg PUBLIC "-//W3C//DTD SVG 1.1//EN"
  "http://www.w3.org/Graphics/SVG/1.1/DTD/svg11.dtd">
<!-- Created with matplotlib (https://matplotlib.org/) -->
<svg height="345.6pt" version="1.1" viewBox="0 0 403.2 345.6" width="403.2pt" xmlns="http://www.w3.org/2000/svg" xmlns:xlink="http://www.w3.org/1999/xlink">
 <defs>
  <style type="text/css">
*{stroke-linecap:butt;stroke-linejoin:round;}
  </style>
 </defs>
 <g id="figure_1">
  <g id="patch_1">
   <path d="M 0 345.6 
L 403.2 345.6 
L 403.2 0 
L 0 0 
z
" style="fill:#ffffff;"/>
  </g>
  <g id="axes_1">
   <g id="patch_2">
    <path d="M 28.8 312.685714 
L 399.36 312.685714 
L 399.36 16.457143 
L 28.8 16.457143 
z
" style="fill:#ffffff;"/>
   </g>
   <g id="PathCollection_1">
    <defs>
     <path d="M 0 3 
C 0.795609 3 1.55874 2.683901 2.12132 2.12132 
C 2.683901 1.55874 3 0.795609 3 0 
C 3 -0.795609 2.683901 -1.55874 2.12132 -2.12132 
C 1.55874 -2.683901 0.795609 -3 0 -3 
C -0.795609 -3 -1.55874 -2.683901 -2.12132 -2.12132 
C -2.683901 -1.55874 -3 -0.795609 -3 0 
C -3 0.795609 -2.683901 1.55874 -2.12132 2.12132 
C -1.55874 2.683901 -0.795609 3 0 3 
z
" id="m71bc8bb862" style="stroke:#1f77b4;"/>
    </defs>
    <g clip-path="url(#pa53af6eb0a)">
     <use style="fill:#1f77b4;stroke:#1f77b4;" x="45.643636" xlink:href="#m71bc8bb862" y="164.571429"/>
     <use style="fill:#1f77b4;stroke:#1f77b4;" x="47.889455" xlink:href="#m71bc8bb862" y="164.571429"/>
     <use style="fill:#1f77b4;stroke:#1f77b4;" x="50.135273" xlink:href="#m71bc8bb862" y="299.220779"/>
     <use style="fill:#1f77b4;stroke:#1f77b4;" x="52.381091" xlink:href="#m71bc8bb862" y="299.220779"/>
     <use style="fill:#1f77b4;stroke:#1f77b4;" x="54.626909" xlink:href="#m71bc8bb862" y="164.571429"/>
     <use style="fill:#1f77b4;stroke:#1f77b4;" x="56.872727" xlink:href="#m71bc8bb862" y="164.571429"/>
     <use style="fill:#1f77b4;stroke:#1f77b4;" x="59.118545" xlink:href="#m71bc8bb862" y="299.220779"/>
     <use style="fill:#1f77b4;stroke:#1f77b4;" x="61.364364" xlink:href="#m71bc8bb862" y="164.571429"/>
     <use style="fill:#1f77b4;stroke:#1f77b4;" x="63.610182" xlink:href="#m71bc8bb862" y="164.571429"/>
     <use style="fill:#1f77b4;stroke:#1f77b4;" x="65.856" xlink:href="#m71bc8bb862" y="164.571429"/>
     <use style="fill:#1f77b4;stroke:#1f77b4;" x="68.101818" xlink:href="#m71bc8bb862" y="164.571429"/>
     <use style="fill:#1f77b4;stroke:#1f77b4;" x="70.347636" xlink:href="#m71bc8bb862" y="164.571429"/>
     <use style="fill:#1f77b4;stroke:#1f77b4;" x="72.593455" xlink:href="#m71bc8bb862" y="164.571429"/>
     <use style="fill:#1f77b4;stroke:#1f77b4;" x="74.839273" xlink:href="#m71bc8bb862" y="164.571429"/>
     <use style="fill:#1f77b4;stroke:#1f77b4;" x="77.085091" xlink:href="#m71bc8bb862" y="164.571429"/>
     <use style="fill:#1f77b4;stroke:#1f77b4;" x="79.330909" xlink:href="#m71bc8bb862" y="164.571429"/>
     <use style="fill:#1f77b4;stroke:#1f77b4;" x="81.576727" xlink:href="#m71bc8bb862" y="299.220779"/>
     <use style="fill:#1f77b4;stroke:#1f77b4;" x="83.822545" xlink:href="#m71bc8bb862" y="164.571429"/>
     <use style="fill:#1f77b4;stroke:#1f77b4;" x="86.068364" xlink:href="#m71bc8bb862" y="164.571429"/>
     <use style="fill:#1f77b4;stroke:#1f77b4;" x="88.314182" xlink:href="#m71bc8bb862" y="299.220779"/>
     <use style="fill:#1f77b4;stroke:#1f77b4;" x="90.56" xlink:href="#m71bc8bb862" y="164.571429"/>
     <use style="fill:#1f77b4;stroke:#1f77b4;" x="92.805818" xlink:href="#m71bc8bb862" y="164.571429"/>
     <use style="fill:#1f77b4;stroke:#1f77b4;" x="95.051636" xlink:href="#m71bc8bb862" y="164.571429"/>
     <use style="fill:#1f77b4;stroke:#1f77b4;" x="97.297455" xlink:href="#m71bc8bb862" y="164.571429"/>
     <use style="fill:#1f77b4;stroke:#1f77b4;" x="99.543273" xlink:href="#m71bc8bb862" y="164.571429"/>
     <use style="fill:#1f77b4;stroke:#1f77b4;" x="101.789091" xlink:href="#m71bc8bb862" y="164.571429"/>
     <use style="fill:#1f77b4;stroke:#1f77b4;" x="104.034909" xlink:href="#m71bc8bb862" y="164.571429"/>
     <use style="fill:#1f77b4;stroke:#1f77b4;" x="106.280727" xlink:href="#m71bc8bb862" y="164.571429"/>
     <use style="fill:#1f77b4;stroke:#1f77b4;" x="108.526545" xlink:href="#m71bc8bb862" y="164.571429"/>
     <use style="fill:#1f77b4;stroke:#1f77b4;" x="110.772364" xlink:href="#m71bc8bb862" y="29.922078"/>
     <use style="fill:#1f77b4;stroke:#1f77b4;" x="113.018182" xlink:href="#m71bc8bb862" y="151.106494"/>
     <use style="fill:#1f77b4;stroke:#1f77b4;" x="115.264" xlink:href="#m71bc8bb862" y="164.571429"/>
     <use style="fill:#1f77b4;stroke:#1f77b4;" x="117.509818" xlink:href="#m71bc8bb862" y="151.106494"/>
     <use style="fill:#1f77b4;stroke:#1f77b4;" x="119.755636" xlink:href="#m71bc8bb862" y="164.571429"/>
     <use style="fill:#1f77b4;stroke:#1f77b4;" x="122.001455" xlink:href="#m71bc8bb862" y="164.571429"/>
     <use style="fill:#1f77b4;stroke:#1f77b4;" x="124.247273" xlink:href="#m71bc8bb862" y="164.571429"/>
     <use style="fill:#1f77b4;stroke:#1f77b4;" x="126.493091" xlink:href="#m71bc8bb862" y="151.106494"/>
     <use style="fill:#1f77b4;stroke:#1f77b4;" x="128.738909" xlink:href="#m71bc8bb862" y="164.571429"/>
     <use style="fill:#1f77b4;stroke:#1f77b4;" x="130.984727" xlink:href="#m71bc8bb862" y="164.571429"/>
     <use style="fill:#1f77b4;stroke:#1f77b4;" x="133.230545" xlink:href="#m71bc8bb862" y="164.571429"/>
     <use style="fill:#1f77b4;stroke:#1f77b4;" x="135.476364" xlink:href="#m71bc8bb862" y="164.571429"/>
     <use style="fill:#1f77b4;stroke:#1f77b4;" x="137.722182" xlink:href="#m71bc8bb862" y="164.571429"/>
     <use style="fill:#1f77b4;stroke:#1f77b4;" x="139.968" xlink:href="#m71bc8bb862" y="164.571429"/>
     <use style="fill:#1f77b4;stroke:#1f77b4;" x="142.213818" xlink:href="#m71bc8bb862" y="164.571429"/>
     <use style="fill:#1f77b4;stroke:#1f77b4;" x="144.459636" xlink:href="#m71bc8bb862" y="164.571429"/>
     <use style="fill:#1f77b4;stroke:#1f77b4;" x="146.705455" xlink:href="#m71bc8bb862" y="164.571429"/>
     <use style="fill:#1f77b4;stroke:#1f77b4;" x="148.951273" xlink:href="#m71bc8bb862" y="164.571429"/>
     <use style="fill:#1f77b4;stroke:#1f77b4;" x="151.197091" xlink:href="#m71bc8bb862" y="164.571429"/>
     <use style="fill:#1f77b4;stroke:#1f77b4;" x="153.442909" xlink:href="#m71bc8bb862" y="164.571429"/>
     <use style="fill:#1f77b4;stroke:#1f77b4;" x="155.688727" xlink:href="#m71bc8bb862" y="164.571429"/>
     <use style="fill:#1f77b4;stroke:#1f77b4;" x="157.934545" xlink:href="#m71bc8bb862" y="164.571429"/>
     <use style="fill:#1f77b4;stroke:#1f77b4;" x="160.180364" xlink:href="#m71bc8bb862" y="164.571429"/>
     <use style="fill:#1f77b4;stroke:#1f77b4;" x="162.426182" xlink:href="#m71bc8bb862" y="164.571429"/>
     <use style="fill:#1f77b4;stroke:#1f77b4;" x="164.672" xlink:href="#m71bc8bb862" y="191.501299"/>
     <use style="fill:#1f77b4;stroke:#1f77b4;" x="166.917818" xlink:href="#m71bc8bb862" y="164.571429"/>
     <use style="fill:#1f77b4;stroke:#1f77b4;" x="169.163636" xlink:href="#m71bc8bb862" y="164.571429"/>
     <use style="fill:#1f77b4;stroke:#1f77b4;" x="171.409455" xlink:href="#m71bc8bb862" y="164.571429"/>
     <use style="fill:#1f77b4;stroke:#1f77b4;" x="173.655273" xlink:href="#m71bc8bb862" y="164.571429"/>
     <use style="fill:#1f77b4;stroke:#1f77b4;" x="175.901091" xlink:href="#m71bc8bb862" y="164.571429"/>
     <use style="fill:#1f77b4;stroke:#1f77b4;" x="178.146909" xlink:href="#m71bc8bb862" y="164.571429"/>
     <use style="fill:#1f77b4;stroke:#1f77b4;" x="180.392727" xlink:href="#m71bc8bb862" y="164.571429"/>
     <use style="fill:#1f77b4;stroke:#1f77b4;" x="182.638545" xlink:href="#m71bc8bb862" y="178.036364"/>
     <use style="fill:#1f77b4;stroke:#1f77b4;" x="184.884364" xlink:href="#m71bc8bb862" y="178.036364"/>
     <use style="fill:#1f77b4;stroke:#1f77b4;" x="187.130182" xlink:href="#m71bc8bb862" y="178.036364"/>
     <use style="fill:#1f77b4;stroke:#1f77b4;" x="189.376" xlink:href="#m71bc8bb862" y="178.036364"/>
     <use style="fill:#1f77b4;stroke:#1f77b4;" x="191.621818" xlink:href="#m71bc8bb862" y="178.036364"/>
     <use style="fill:#1f77b4;stroke:#1f77b4;" x="193.867636" xlink:href="#m71bc8bb862" y="191.501299"/>
     <use style="fill:#1f77b4;stroke:#1f77b4;" x="196.113455" xlink:href="#m71bc8bb862" y="191.501299"/>
     <use style="fill:#1f77b4;stroke:#1f77b4;" x="198.359273" xlink:href="#m71bc8bb862" y="191.501299"/>
     <use style="fill:#1f77b4;stroke:#1f77b4;" x="200.605091" xlink:href="#m71bc8bb862" y="191.501299"/>
     <use style="fill:#1f77b4;stroke:#1f77b4;" x="202.850909" xlink:href="#m71bc8bb862" y="191.501299"/>
     <use style="fill:#1f77b4;stroke:#1f77b4;" x="205.096727" xlink:href="#m71bc8bb862" y="191.501299"/>
     <use style="fill:#1f77b4;stroke:#1f77b4;" x="207.342545" xlink:href="#m71bc8bb862" y="191.501299"/>
     <use style="fill:#1f77b4;stroke:#1f77b4;" x="209.588364" xlink:href="#m71bc8bb862" y="299.220779"/>
     <use style="fill:#1f77b4;stroke:#1f77b4;" x="211.834182" xlink:href="#m71bc8bb862" y="204.966234"/>
     <use style="fill:#1f77b4;stroke:#1f77b4;" x="214.08" xlink:href="#m71bc8bb862" y="299.220779"/>
     <use style="fill:#1f77b4;stroke:#1f77b4;" x="216.325818" xlink:href="#m71bc8bb862" y="204.966234"/>
     <use style="fill:#1f77b4;stroke:#1f77b4;" x="218.571636" xlink:href="#m71bc8bb862" y="299.220779"/>
     <use style="fill:#1f77b4;stroke:#1f77b4;" x="220.817455" xlink:href="#m71bc8bb862" y="204.966234"/>
     <use style="fill:#1f77b4;stroke:#1f77b4;" x="223.063273" xlink:href="#m71bc8bb862" y="299.220779"/>
     <use style="fill:#1f77b4;stroke:#1f77b4;" x="225.309091" xlink:href="#m71bc8bb862" y="218.431169"/>
     <use style="fill:#1f77b4;stroke:#1f77b4;" x="227.554909" xlink:href="#m71bc8bb862" y="218.431169"/>
     <use style="fill:#1f77b4;stroke:#1f77b4;" x="229.800727" xlink:href="#m71bc8bb862" y="218.431169"/>
     <use style="fill:#1f77b4;stroke:#1f77b4;" x="232.046545" xlink:href="#m71bc8bb862" y="218.431169"/>
     <use style="fill:#1f77b4;stroke:#1f77b4;" x="234.292364" xlink:href="#m71bc8bb862" y="218.431169"/>
     <use style="fill:#1f77b4;stroke:#1f77b4;" x="236.538182" xlink:href="#m71bc8bb862" y="231.896104"/>
     <use style="fill:#1f77b4;stroke:#1f77b4;" x="238.784" xlink:href="#m71bc8bb862" y="231.896104"/>
     <use style="fill:#1f77b4;stroke:#1f77b4;" x="241.029818" xlink:href="#m71bc8bb862" y="231.896104"/>
     <use style="fill:#1f77b4;stroke:#1f77b4;" x="243.275636" xlink:href="#m71bc8bb862" y="231.896104"/>
     <use style="fill:#1f77b4;stroke:#1f77b4;" x="245.521455" xlink:href="#m71bc8bb862" y="258.825974"/>
     <use style="fill:#1f77b4;stroke:#1f77b4;" x="247.767273" xlink:href="#m71bc8bb862" y="231.896104"/>
     <use style="fill:#1f77b4;stroke:#1f77b4;" x="250.013091" xlink:href="#m71bc8bb862" y="231.896104"/>
     <use style="fill:#1f77b4;stroke:#1f77b4;" x="252.258909" xlink:href="#m71bc8bb862" y="231.896104"/>
     <use style="fill:#1f77b4;stroke:#1f77b4;" x="254.504727" xlink:href="#m71bc8bb862" y="231.896104"/>
     <use style="fill:#1f77b4;stroke:#1f77b4;" x="256.750545" xlink:href="#m71bc8bb862" y="245.361039"/>
     <use style="fill:#1f77b4;stroke:#1f77b4;" x="258.996364" xlink:href="#m71bc8bb862" y="245.361039"/>
     <use style="fill:#1f77b4;stroke:#1f77b4;" x="261.242182" xlink:href="#m71bc8bb862" y="245.361039"/>
     <use style="fill:#1f77b4;stroke:#1f77b4;" x="263.488" xlink:href="#m71bc8bb862" y="245.361039"/>
     <use style="fill:#1f77b4;stroke:#1f77b4;" x="265.733818" xlink:href="#m71bc8bb862" y="245.361039"/>
     <use style="fill:#1f77b4;stroke:#1f77b4;" x="267.979636" xlink:href="#m71bc8bb862" y="245.361039"/>
     <use style="fill:#1f77b4;stroke:#1f77b4;" x="270.225455" xlink:href="#m71bc8bb862" y="245.361039"/>
     <use style="fill:#1f77b4;stroke:#1f77b4;" x="272.471273" xlink:href="#m71bc8bb862" y="245.361039"/>
     <use style="fill:#1f77b4;stroke:#1f77b4;" x="274.717091" xlink:href="#m71bc8bb862" y="245.361039"/>
     <use style="fill:#1f77b4;stroke:#1f77b4;" x="276.962909" xlink:href="#m71bc8bb862" y="258.825974"/>
     <use style="fill:#1f77b4;stroke:#1f77b4;" x="279.208727" xlink:href="#m71bc8bb862" y="258.825974"/>
     <use style="fill:#1f77b4;stroke:#1f77b4;" x="281.454545" xlink:href="#m71bc8bb862" y="258.825974"/>
     <use style="fill:#1f77b4;stroke:#1f77b4;" x="283.700364" xlink:href="#m71bc8bb862" y="258.825974"/>
     <use style="fill:#1f77b4;stroke:#1f77b4;" x="285.946182" xlink:href="#m71bc8bb862" y="258.825974"/>
     <use style="fill:#1f77b4;stroke:#1f77b4;" x="288.192" xlink:href="#m71bc8bb862" y="258.825974"/>
     <use style="fill:#1f77b4;stroke:#1f77b4;" x="290.437818" xlink:href="#m71bc8bb862" y="258.825974"/>
     <use style="fill:#1f77b4;stroke:#1f77b4;" x="292.683636" xlink:href="#m71bc8bb862" y="258.825974"/>
     <use style="fill:#1f77b4;stroke:#1f77b4;" x="294.929455" xlink:href="#m71bc8bb862" y="258.825974"/>
     <use style="fill:#1f77b4;stroke:#1f77b4;" x="297.175273" xlink:href="#m71bc8bb862" y="258.825974"/>
     <use style="fill:#1f77b4;stroke:#1f77b4;" x="299.421091" xlink:href="#m71bc8bb862" y="258.825974"/>
     <use style="fill:#1f77b4;stroke:#1f77b4;" x="301.666909" xlink:href="#m71bc8bb862" y="272.290909"/>
     <use style="fill:#1f77b4;stroke:#1f77b4;" x="303.912727" xlink:href="#m71bc8bb862" y="272.290909"/>
     <use style="fill:#1f77b4;stroke:#1f77b4;" x="306.158545" xlink:href="#m71bc8bb862" y="272.290909"/>
     <use style="fill:#1f77b4;stroke:#1f77b4;" x="308.404364" xlink:href="#m71bc8bb862" y="272.290909"/>
     <use style="fill:#1f77b4;stroke:#1f77b4;" x="310.650182" xlink:href="#m71bc8bb862" y="272.290909"/>
     <use style="fill:#1f77b4;stroke:#1f77b4;" x="312.896" xlink:href="#m71bc8bb862" y="272.290909"/>
     <use style="fill:#1f77b4;stroke:#1f77b4;" x="315.141818" xlink:href="#m71bc8bb862" y="299.220779"/>
     <use style="fill:#1f77b4;stroke:#1f77b4;" x="317.387636" xlink:href="#m71bc8bb862" y="299.220779"/>
     <use style="fill:#1f77b4;stroke:#1f77b4;" x="319.633455" xlink:href="#m71bc8bb862" y="285.755844"/>
     <use style="fill:#1f77b4;stroke:#1f77b4;" x="321.879273" xlink:href="#m71bc8bb862" y="285.755844"/>
     <use style="fill:#1f77b4;stroke:#1f77b4;" x="324.125091" xlink:href="#m71bc8bb862" y="285.755844"/>
     <use style="fill:#1f77b4;stroke:#1f77b4;" x="326.370909" xlink:href="#m71bc8bb862" y="285.755844"/>
     <use style="fill:#1f77b4;stroke:#1f77b4;" x="328.616727" xlink:href="#m71bc8bb862" y="285.755844"/>
     <use style="fill:#1f77b4;stroke:#1f77b4;" x="330.862545" xlink:href="#m71bc8bb862" y="285.755844"/>
     <use style="fill:#1f77b4;stroke:#1f77b4;" x="333.108364" xlink:href="#m71bc8bb862" y="285.755844"/>
     <use style="fill:#1f77b4;stroke:#1f77b4;" x="335.354182" xlink:href="#m71bc8bb862" y="285.755844"/>
     <use style="fill:#1f77b4;stroke:#1f77b4;" x="337.6" xlink:href="#m71bc8bb862" y="285.755844"/>
     <use style="fill:#1f77b4;stroke:#1f77b4;" x="339.845818" xlink:href="#m71bc8bb862" y="285.755844"/>
     <use style="fill:#1f77b4;stroke:#1f77b4;" x="342.091636" xlink:href="#m71bc8bb862" y="285.755844"/>
     <use style="fill:#1f77b4;stroke:#1f77b4;" x="344.337455" xlink:href="#m71bc8bb862" y="285.755844"/>
     <use style="fill:#1f77b4;stroke:#1f77b4;" x="346.583273" xlink:href="#m71bc8bb862" y="285.755844"/>
     <use style="fill:#1f77b4;stroke:#1f77b4;" x="348.829091" xlink:href="#m71bc8bb862" y="285.755844"/>
     <use style="fill:#1f77b4;stroke:#1f77b4;" x="351.074909" xlink:href="#m71bc8bb862" y="285.755844"/>
     <use style="fill:#1f77b4;stroke:#1f77b4;" x="353.320727" xlink:href="#m71bc8bb862" y="285.755844"/>
     <use style="fill:#1f77b4;stroke:#1f77b4;" x="355.566545" xlink:href="#m71bc8bb862" y="299.220779"/>
     <use style="fill:#1f77b4;stroke:#1f77b4;" x="357.812364" xlink:href="#m71bc8bb862" y="285.755844"/>
     <use style="fill:#1f77b4;stroke:#1f77b4;" x="360.058182" xlink:href="#m71bc8bb862" y="285.755844"/>
     <use style="fill:#1f77b4;stroke:#1f77b4;" x="362.304" xlink:href="#m71bc8bb862" y="285.755844"/>
     <use style="fill:#1f77b4;stroke:#1f77b4;" x="364.549818" xlink:href="#m71bc8bb862" y="299.220779"/>
     <use style="fill:#1f77b4;stroke:#1f77b4;" x="366.795636" xlink:href="#m71bc8bb862" y="285.755844"/>
     <use style="fill:#1f77b4;stroke:#1f77b4;" x="369.041455" xlink:href="#m71bc8bb862" y="285.755844"/>
     <use style="fill:#1f77b4;stroke:#1f77b4;" x="371.287273" xlink:href="#m71bc8bb862" y="299.220779"/>
     <use style="fill:#1f77b4;stroke:#1f77b4;" x="373.533091" xlink:href="#m71bc8bb862" y="299.220779"/>
     <use style="fill:#1f77b4;stroke:#1f77b4;" x="375.778909" xlink:href="#m71bc8bb862" y="285.755844"/>
     <use style="fill:#1f77b4;stroke:#1f77b4;" x="378.024727" xlink:href="#m71bc8bb862" y="285.755844"/>
     <use style="fill:#1f77b4;stroke:#1f77b4;" x="380.270545" xlink:href="#m71bc8bb862" y="285.755844"/>
     <use style="fill:#1f77b4;stroke:#1f77b4;" x="382.516364" xlink:href="#m71bc8bb862" y="299.220779"/>
    </g>
   </g>
   <g id="PathCollection_2">
    <defs>
     <path d="M 0 3 
C 0.795609 3 1.55874 2.683901 2.12132 2.12132 
C 2.683901 1.55874 3 0.795609 3 0 
C 3 -0.795609 2.683901 -1.55874 2.12132 -2.12132 
C 1.55874 -2.683901 0.795609 -3 0 -3 
C -0.795609 -3 -1.55874 -2.683901 -2.12132 -2.12132 
C -2.683901 -1.55874 -3 -0.795609 -3 0 
C -3 0.795609 -2.683901 1.55874 -2.12132 2.12132 
C -1.55874 2.683901 -0.795609 3 0 3 
z
" id="m6ac790fc17" style="stroke:#ff7f0e;"/>
    </defs>
    <g clip-path="url(#pa53af6eb0a)">
     <use style="fill:#ff7f0e;stroke:#ff7f0e;" x="45.643636" xlink:href="#m6ac790fc17" y="165.753855"/>
     <use style="fill:#ff7f0e;stroke:#ff7f0e;" x="47.889455" xlink:href="#m6ac790fc17" y="165.746212"/>
     <use style="fill:#ff7f0e;stroke:#ff7f0e;" x="50.135273" xlink:href="#m6ac790fc17" y="165.775595"/>
     <use style="fill:#ff7f0e;stroke:#ff7f0e;" x="52.381091" xlink:href="#m6ac790fc17" y="165.785703"/>
     <use style="fill:#ff7f0e;stroke:#ff7f0e;" x="54.626909" xlink:href="#m6ac790fc17" y="165.801148"/>
     <use style="fill:#ff7f0e;stroke:#ff7f0e;" x="56.872727" xlink:href="#m6ac790fc17" y="165.802026"/>
     <use style="fill:#ff7f0e;stroke:#ff7f0e;" x="59.118545" xlink:href="#m6ac790fc17" y="165.827705"/>
     <use style="fill:#ff7f0e;stroke:#ff7f0e;" x="61.364364" xlink:href="#m6ac790fc17" y="165.856662"/>
     <use style="fill:#ff7f0e;stroke:#ff7f0e;" x="63.610182" xlink:href="#m6ac790fc17" y="165.874297"/>
     <use style="fill:#ff7f0e;stroke:#ff7f0e;" x="65.856" xlink:href="#m6ac790fc17" y="165.909544"/>
     <use style="fill:#ff7f0e;stroke:#ff7f0e;" x="68.101818" xlink:href="#m6ac790fc17" y="165.93053"/>
     <use style="fill:#ff7f0e;stroke:#ff7f0e;" x="70.347636" xlink:href="#m6ac790fc17" y="166.008274"/>
     <use style="fill:#ff7f0e;stroke:#ff7f0e;" x="72.593455" xlink:href="#m6ac790fc17" y="166.101932"/>
     <use style="fill:#ff7f0e;stroke:#ff7f0e;" x="74.839273" xlink:href="#m6ac790fc17" y="166.200525"/>
     <use style="fill:#ff7f0e;stroke:#ff7f0e;" x="77.085091" xlink:href="#m6ac790fc17" y="166.400043"/>
     <use style="fill:#ff7f0e;stroke:#ff7f0e;" x="79.330909" xlink:href="#m6ac790fc17" y="166.522613"/>
     <use style="fill:#ff7f0e;stroke:#ff7f0e;" x="81.576727" xlink:href="#m6ac790fc17" y="166.70926"/>
     <use style="fill:#ff7f0e;stroke:#ff7f0e;" x="83.822545" xlink:href="#m6ac790fc17" y="166.847085"/>
     <use style="fill:#ff7f0e;stroke:#ff7f0e;" x="86.068364" xlink:href="#m6ac790fc17" y="166.923246"/>
     <use style="fill:#ff7f0e;stroke:#ff7f0e;" x="88.314182" xlink:href="#m6ac790fc17" y="167.05906"/>
     <use style="fill:#ff7f0e;stroke:#ff7f0e;" x="90.56" xlink:href="#m6ac790fc17" y="167.138774"/>
     <use style="fill:#ff7f0e;stroke:#ff7f0e;" x="92.805818" xlink:href="#m6ac790fc17" y="167.207766"/>
     <use style="fill:#ff7f0e;stroke:#ff7f0e;" x="95.051636" xlink:href="#m6ac790fc17" y="167.229495"/>
     <use style="fill:#ff7f0e;stroke:#ff7f0e;" x="97.297455" xlink:href="#m6ac790fc17" y="167.281375"/>
     <use style="fill:#ff7f0e;stroke:#ff7f0e;" x="99.543273" xlink:href="#m6ac790fc17" y="167.291286"/>
     <use style="fill:#ff7f0e;stroke:#ff7f0e;" x="101.789091" xlink:href="#m6ac790fc17" y="167.315514"/>
     <use style="fill:#ff7f0e;stroke:#ff7f0e;" x="104.034909" xlink:href="#m6ac790fc17" y="167.319374"/>
     <use style="fill:#ff7f0e;stroke:#ff7f0e;" x="106.280727" xlink:href="#m6ac790fc17" y="167.316535"/>
     <use style="fill:#ff7f0e;stroke:#ff7f0e;" x="108.526545" xlink:href="#m6ac790fc17" y="167.294173"/>
     <use style="fill:#ff7f0e;stroke:#ff7f0e;" x="110.772364" xlink:href="#m6ac790fc17" y="167.273327"/>
     <use style="fill:#ff7f0e;stroke:#ff7f0e;" x="113.018182" xlink:href="#m6ac790fc17" y="167.229686"/>
     <use style="fill:#ff7f0e;stroke:#ff7f0e;" x="115.264" xlink:href="#m6ac790fc17" y="167.158301"/>
     <use style="fill:#ff7f0e;stroke:#ff7f0e;" x="117.509818" xlink:href="#m6ac790fc17" y="167.068643"/>
     <use style="fill:#ff7f0e;stroke:#ff7f0e;" x="119.755636" xlink:href="#m6ac790fc17" y="166.940524"/>
     <use style="fill:#ff7f0e;stroke:#ff7f0e;" x="122.001455" xlink:href="#m6ac790fc17" y="166.849763"/>
     <use style="fill:#ff7f0e;stroke:#ff7f0e;" x="124.247273" xlink:href="#m6ac790fc17" y="166.667539"/>
     <use style="fill:#ff7f0e;stroke:#ff7f0e;" x="126.493091" xlink:href="#m6ac790fc17" y="166.503529"/>
     <use style="fill:#ff7f0e;stroke:#ff7f0e;" x="128.738909" xlink:href="#m6ac790fc17" y="166.32574"/>
     <use style="fill:#ff7f0e;stroke:#ff7f0e;" x="130.984727" xlink:href="#m6ac790fc17" y="166.138303"/>
     <use style="fill:#ff7f0e;stroke:#ff7f0e;" x="133.230545" xlink:href="#m6ac790fc17" y="165.885509"/>
     <use style="fill:#ff7f0e;stroke:#ff7f0e;" x="135.476364" xlink:href="#m6ac790fc17" y="165.680909"/>
     <use style="fill:#ff7f0e;stroke:#ff7f0e;" x="137.722182" xlink:href="#m6ac790fc17" y="165.50013"/>
     <use style="fill:#ff7f0e;stroke:#ff7f0e;" x="139.968" xlink:href="#m6ac790fc17" y="165.198482"/>
     <use style="fill:#ff7f0e;stroke:#ff7f0e;" x="142.213818" xlink:href="#m6ac790fc17" y="164.946994"/>
     <use style="fill:#ff7f0e;stroke:#ff7f0e;" x="144.459636" xlink:href="#m6ac790fc17" y="164.649705"/>
     <use style="fill:#ff7f0e;stroke:#ff7f0e;" x="146.705455" xlink:href="#m6ac790fc17" y="164.394695"/>
     <use style="fill:#ff7f0e;stroke:#ff7f0e;" x="148.951273" xlink:href="#m6ac790fc17" y="164.138987"/>
     <use style="fill:#ff7f0e;stroke:#ff7f0e;" x="151.197091" xlink:href="#m6ac790fc17" y="163.919113"/>
     <use style="fill:#ff7f0e;stroke:#ff7f0e;" x="153.442909" xlink:href="#m6ac790fc17" y="163.757852"/>
     <use style="fill:#ff7f0e;stroke:#ff7f0e;" x="155.688727" xlink:href="#m6ac790fc17" y="163.687854"/>
     <use style="fill:#ff7f0e;stroke:#ff7f0e;" x="157.934545" xlink:href="#m6ac790fc17" y="163.712764"/>
     <use style="fill:#ff7f0e;stroke:#ff7f0e;" x="160.180364" xlink:href="#m6ac790fc17" y="163.889387"/>
     <use style="fill:#ff7f0e;stroke:#ff7f0e;" x="162.426182" xlink:href="#m6ac790fc17" y="164.170863"/>
     <use style="fill:#ff7f0e;stroke:#ff7f0e;" x="164.672" xlink:href="#m6ac790fc17" y="164.626629"/>
     <use style="fill:#ff7f0e;stroke:#ff7f0e;" x="166.917818" xlink:href="#m6ac790fc17" y="165.193571"/>
     <use style="fill:#ff7f0e;stroke:#ff7f0e;" x="169.163636" xlink:href="#m6ac790fc17" y="166.057613"/>
     <use style="fill:#ff7f0e;stroke:#ff7f0e;" x="171.409455" xlink:href="#m6ac790fc17" y="166.937499"/>
     <use style="fill:#ff7f0e;stroke:#ff7f0e;" x="173.655273" xlink:href="#m6ac790fc17" y="167.957423"/>
     <use style="fill:#ff7f0e;stroke:#ff7f0e;" x="175.901091" xlink:href="#m6ac790fc17" y="169.154649"/>
     <use style="fill:#ff7f0e;stroke:#ff7f0e;" x="178.146909" xlink:href="#m6ac790fc17" y="170.478078"/>
     <use style="fill:#ff7f0e;stroke:#ff7f0e;" x="180.392727" xlink:href="#m6ac790fc17" y="171.946521"/>
     <use style="fill:#ff7f0e;stroke:#ff7f0e;" x="182.638545" xlink:href="#m6ac790fc17" y="173.852148"/>
     <use style="fill:#ff7f0e;stroke:#ff7f0e;" x="184.884364" xlink:href="#m6ac790fc17" y="175.611037"/>
     <use style="fill:#ff7f0e;stroke:#ff7f0e;" x="187.130182" xlink:href="#m6ac790fc17" y="177.387756"/>
     <use style="fill:#ff7f0e;stroke:#ff7f0e;" x="189.376" xlink:href="#m6ac790fc17" y="179.372952"/>
     <use style="fill:#ff7f0e;stroke:#ff7f0e;" x="191.621818" xlink:href="#m6ac790fc17" y="181.355498"/>
     <use style="fill:#ff7f0e;stroke:#ff7f0e;" x="193.867636" xlink:href="#m6ac790fc17" y="183.832785"/>
     <use style="fill:#ff7f0e;stroke:#ff7f0e;" x="196.113455" xlink:href="#m6ac790fc17" y="185.891252"/>
     <use style="fill:#ff7f0e;stroke:#ff7f0e;" x="198.359273" xlink:href="#m6ac790fc17" y="188.132293"/>
     <use style="fill:#ff7f0e;stroke:#ff7f0e;" x="200.605091" xlink:href="#m6ac790fc17" y="189.974736"/>
     <use style="fill:#ff7f0e;stroke:#ff7f0e;" x="202.850909" xlink:href="#m6ac790fc17" y="192.61122"/>
     <use style="fill:#ff7f0e;stroke:#ff7f0e;" x="205.096727" xlink:href="#m6ac790fc17" y="194.942936"/>
     <use style="fill:#ff7f0e;stroke:#ff7f0e;" x="207.342545" xlink:href="#m6ac790fc17" y="197.72301"/>
     <use style="fill:#ff7f0e;stroke:#ff7f0e;" x="209.588364" xlink:href="#m6ac790fc17" y="200.022892"/>
     <use style="fill:#ff7f0e;stroke:#ff7f0e;" x="211.834182" xlink:href="#m6ac790fc17" y="202.319481"/>
     <use style="fill:#ff7f0e;stroke:#ff7f0e;" x="214.08" xlink:href="#m6ac790fc17" y="204.515611"/>
     <use style="fill:#ff7f0e;stroke:#ff7f0e;" x="216.325818" xlink:href="#m6ac790fc17" y="206.691619"/>
     <use style="fill:#ff7f0e;stroke:#ff7f0e;" x="218.571636" xlink:href="#m6ac790fc17" y="208.774573"/>
     <use style="fill:#ff7f0e;stroke:#ff7f0e;" x="220.817455" xlink:href="#m6ac790fc17" y="211.18456"/>
     <use style="fill:#ff7f0e;stroke:#ff7f0e;" x="223.063273" xlink:href="#m6ac790fc17" y="213.063521"/>
     <use style="fill:#ff7f0e;stroke:#ff7f0e;" x="225.309091" xlink:href="#m6ac790fc17" y="214.935298"/>
     <use style="fill:#ff7f0e;stroke:#ff7f0e;" x="227.554909" xlink:href="#m6ac790fc17" y="216.674214"/>
     <use style="fill:#ff7f0e;stroke:#ff7f0e;" x="229.800727" xlink:href="#m6ac790fc17" y="218.439118"/>
     <use style="fill:#ff7f0e;stroke:#ff7f0e;" x="232.046545" xlink:href="#m6ac790fc17" y="220.492922"/>
     <use style="fill:#ff7f0e;stroke:#ff7f0e;" x="234.292364" xlink:href="#m6ac790fc17" y="222.134616"/>
     <use style="fill:#ff7f0e;stroke:#ff7f0e;" x="236.538182" xlink:href="#m6ac790fc17" y="223.718991"/>
     <use style="fill:#ff7f0e;stroke:#ff7f0e;" x="238.784" xlink:href="#m6ac790fc17" y="225.323073"/>
     <use style="fill:#ff7f0e;stroke:#ff7f0e;" x="241.029818" xlink:href="#m6ac790fc17" y="226.884911"/>
     <use style="fill:#ff7f0e;stroke:#ff7f0e;" x="243.275636" xlink:href="#m6ac790fc17" y="228.328313"/>
     <use style="fill:#ff7f0e;stroke:#ff7f0e;" x="245.521455" xlink:href="#m6ac790fc17" y="229.966764"/>
     <use style="fill:#ff7f0e;stroke:#ff7f0e;" x="247.767273" xlink:href="#m6ac790fc17" y="231.429562"/>
     <use style="fill:#ff7f0e;stroke:#ff7f0e;" x="250.013091" xlink:href="#m6ac790fc17" y="233.054453"/>
     <use style="fill:#ff7f0e;stroke:#ff7f0e;" x="252.258909" xlink:href="#m6ac790fc17" y="234.430997"/>
     <use style="fill:#ff7f0e;stroke:#ff7f0e;" x="254.504727" xlink:href="#m6ac790fc17" y="235.802209"/>
     <use style="fill:#ff7f0e;stroke:#ff7f0e;" x="256.750545" xlink:href="#m6ac790fc17" y="237.406898"/>
     <use style="fill:#ff7f0e;stroke:#ff7f0e;" x="258.996364" xlink:href="#m6ac790fc17" y="238.704404"/>
     <use style="fill:#ff7f0e;stroke:#ff7f0e;" x="261.242182" xlink:href="#m6ac790fc17" y="240.019382"/>
     <use style="fill:#ff7f0e;stroke:#ff7f0e;" x="263.488" xlink:href="#m6ac790fc17" y="241.309982"/>
     <use style="fill:#ff7f0e;stroke:#ff7f0e;" x="265.733818" xlink:href="#m6ac790fc17" y="242.667788"/>
     <use style="fill:#ff7f0e;stroke:#ff7f0e;" x="267.979636" xlink:href="#m6ac790fc17" y="244.004385"/>
     <use style="fill:#ff7f0e;stroke:#ff7f0e;" x="270.225455" xlink:href="#m6ac790fc17" y="245.636621"/>
     <use style="fill:#ff7f0e;stroke:#ff7f0e;" x="272.471273" xlink:href="#m6ac790fc17" y="247.028956"/>
     <use style="fill:#ff7f0e;stroke:#ff7f0e;" x="274.717091" xlink:href="#m6ac790fc17" y="248.380602"/>
     <use style="fill:#ff7f0e;stroke:#ff7f0e;" x="276.962909" xlink:href="#m6ac790fc17" y="249.727162"/>
     <use style="fill:#ff7f0e;stroke:#ff7f0e;" x="279.208727" xlink:href="#m6ac790fc17" y="251.066268"/>
     <use style="fill:#ff7f0e;stroke:#ff7f0e;" x="281.454545" xlink:href="#m6ac790fc17" y="252.683994"/>
     <use style="fill:#ff7f0e;stroke:#ff7f0e;" x="283.700364" xlink:href="#m6ac790fc17" y="253.943743"/>
     <use style="fill:#ff7f0e;stroke:#ff7f0e;" x="285.946182" xlink:href="#m6ac790fc17" y="255.249177"/>
     <use style="fill:#ff7f0e;stroke:#ff7f0e;" x="288.192" xlink:href="#m6ac790fc17" y="256.502341"/>
     <use style="fill:#ff7f0e;stroke:#ff7f0e;" x="290.437818" xlink:href="#m6ac790fc17" y="257.7428"/>
     <use style="fill:#ff7f0e;stroke:#ff7f0e;" x="292.683636" xlink:href="#m6ac790fc17" y="258.901347"/>
     <use style="fill:#ff7f0e;stroke:#ff7f0e;" x="294.929455" xlink:href="#m6ac790fc17" y="260.453746"/>
     <use style="fill:#ff7f0e;stroke:#ff7f0e;" x="297.175273" xlink:href="#m6ac790fc17" y="261.731284"/>
     <use style="fill:#ff7f0e;stroke:#ff7f0e;" x="299.421091" xlink:href="#m6ac790fc17" y="262.980968"/>
     <use style="fill:#ff7f0e;stroke:#ff7f0e;" x="301.666909" xlink:href="#m6ac790fc17" y="264.311887"/>
     <use style="fill:#ff7f0e;stroke:#ff7f0e;" x="303.912727" xlink:href="#m6ac790fc17" y="265.64198"/>
     <use style="fill:#ff7f0e;stroke:#ff7f0e;" x="306.158545" xlink:href="#m6ac790fc17" y="267.097213"/>
     <use style="fill:#ff7f0e;stroke:#ff7f0e;" x="308.404364" xlink:href="#m6ac790fc17" y="268.812578"/>
     <use style="fill:#ff7f0e;stroke:#ff7f0e;" x="310.650182" xlink:href="#m6ac790fc17" y="270.251675"/>
     <use style="fill:#ff7f0e;stroke:#ff7f0e;" x="312.896" xlink:href="#m6ac790fc17" y="271.660399"/>
     <use style="fill:#ff7f0e;stroke:#ff7f0e;" x="315.141818" xlink:href="#m6ac790fc17" y="273.00186"/>
     <use style="fill:#ff7f0e;stroke:#ff7f0e;" x="317.387636" xlink:href="#m6ac790fc17" y="274.259493"/>
     <use style="fill:#ff7f0e;stroke:#ff7f0e;" x="319.633455" xlink:href="#m6ac790fc17" y="275.655987"/>
     <use style="fill:#ff7f0e;stroke:#ff7f0e;" x="321.879273" xlink:href="#m6ac790fc17" y="276.694648"/>
     <use style="fill:#ff7f0e;stroke:#ff7f0e;" x="324.125091" xlink:href="#m6ac790fc17" y="277.692511"/>
     <use style="fill:#ff7f0e;stroke:#ff7f0e;" x="326.370909" xlink:href="#m6ac790fc17" y="278.591618"/>
     <use style="fill:#ff7f0e;stroke:#ff7f0e;" x="328.616727" xlink:href="#m6ac790fc17" y="279.390785"/>
     <use style="fill:#ff7f0e;stroke:#ff7f0e;" x="330.862545" xlink:href="#m6ac790fc17" y="279.967525"/>
     <use style="fill:#ff7f0e;stroke:#ff7f0e;" x="333.108364" xlink:href="#m6ac790fc17" y="280.851026"/>
     <use style="fill:#ff7f0e;stroke:#ff7f0e;" x="335.354182" xlink:href="#m6ac790fc17" y="281.374611"/>
     <use style="fill:#ff7f0e;stroke:#ff7f0e;" x="337.6" xlink:href="#m6ac790fc17" y="281.79532"/>
     <use style="fill:#ff7f0e;stroke:#ff7f0e;" x="339.845818" xlink:href="#m6ac790fc17" y="282.160317"/>
     <use style="fill:#ff7f0e;stroke:#ff7f0e;" x="342.091636" xlink:href="#m6ac790fc17" y="282.492398"/>
     <use style="fill:#ff7f0e;stroke:#ff7f0e;" x="344.337455" xlink:href="#m6ac790fc17" y="282.814485"/>
     <use style="fill:#ff7f0e;stroke:#ff7f0e;" x="346.583273" xlink:href="#m6ac790fc17" y="283.013242"/>
     <use style="fill:#ff7f0e;stroke:#ff7f0e;" x="348.829091" xlink:href="#m6ac790fc17" y="283.229903"/>
     <use style="fill:#ff7f0e;stroke:#ff7f0e;" x="351.074909" xlink:href="#m6ac790fc17" y="283.375372"/>
     <use style="fill:#ff7f0e;stroke:#ff7f0e;" x="353.320727" xlink:href="#m6ac790fc17" y="283.540268"/>
     <use style="fill:#ff7f0e;stroke:#ff7f0e;" x="355.566545" xlink:href="#m6ac790fc17" y="283.665786"/>
     <use style="fill:#ff7f0e;stroke:#ff7f0e;" x="357.812364" xlink:href="#m6ac790fc17" y="283.819947"/>
     <use style="fill:#ff7f0e;stroke:#ff7f0e;" x="360.058182" xlink:href="#m6ac790fc17" y="283.929724"/>
     <use style="fill:#ff7f0e;stroke:#ff7f0e;" x="362.304" xlink:href="#m6ac790fc17" y="284.008169"/>
     <use style="fill:#ff7f0e;stroke:#ff7f0e;" x="364.549818" xlink:href="#m6ac790fc17" y="284.04289"/>
     <use style="fill:#ff7f0e;stroke:#ff7f0e;" x="366.795636" xlink:href="#m6ac790fc17" y="284.015289"/>
     <use style="fill:#ff7f0e;stroke:#ff7f0e;" x="369.041455" xlink:href="#m6ac790fc17" y="283.981592"/>
     <use style="fill:#ff7f0e;stroke:#ff7f0e;" x="371.287273" xlink:href="#m6ac790fc17" y="283.879923"/>
     <use style="fill:#ff7f0e;stroke:#ff7f0e;" x="373.533091" xlink:href="#m6ac790fc17" y="283.689428"/>
     <use style="fill:#ff7f0e;stroke:#ff7f0e;" x="375.778909" xlink:href="#m6ac790fc17" y="283.398041"/>
     <use style="fill:#ff7f0e;stroke:#ff7f0e;" x="378.024727" xlink:href="#m6ac790fc17" y="283.041595"/>
     <use style="fill:#ff7f0e;stroke:#ff7f0e;" x="380.270545" xlink:href="#m6ac790fc17" y="282.569409"/>
     <use style="fill:#ff7f0e;stroke:#ff7f0e;" x="382.516364" xlink:href="#m6ac790fc17" y="281.921968"/>
    </g>
   </g>
   <g id="matplotlib.axis_1">
    <g id="xtick_1">
     <g id="line2d_1">
      <defs>
       <path d="M 0 0 
L 0 3.5 
" id="m21f760d693" style="stroke:#000000;stroke-width:0.8;"/>
      </defs>
      <g>
       <use style="stroke:#000000;stroke-width:0.8;" x="45.643636" xlink:href="#m21f760d693" y="312.685714"/>
      </g>
     </g>
     <g id="text_1">
      <!-- 0 -->
      <defs>
       <path d="M 31.78125 66.40625 
Q 24.171875 66.40625 20.328125 58.90625 
Q 16.5 51.421875 16.5 36.375 
Q 16.5 21.390625 20.328125 13.890625 
Q 24.171875 6.390625 31.78125 6.390625 
Q 39.453125 6.390625 43.28125 13.890625 
Q 47.125 21.390625 47.125 36.375 
Q 47.125 51.421875 43.28125 58.90625 
Q 39.453125 66.40625 31.78125 66.40625 
z
M 31.78125 74.21875 
Q 44.046875 74.21875 50.515625 64.515625 
Q 56.984375 54.828125 56.984375 36.375 
Q 56.984375 17.96875 50.515625 8.265625 
Q 44.046875 -1.421875 31.78125 -1.421875 
Q 19.53125 -1.421875 13.0625 8.265625 
Q 6.59375 17.96875 6.59375 36.375 
Q 6.59375 54.828125 13.0625 64.515625 
Q 19.53125 74.21875 31.78125 74.21875 
z
" id="DejaVuSans-48"/>
      </defs>
      <g transform="translate(42.462386 327.284152)scale(0.1 -0.1)">
       <use xlink:href="#DejaVuSans-48"/>
      </g>
     </g>
    </g>
    <g id="xtick_2">
     <g id="line2d_2">
      <g>
       <use style="stroke:#000000;stroke-width:0.8;" x="114.614343" xlink:href="#m21f760d693" y="312.685714"/>
      </g>
     </g>
     <g id="text_2">
      <!-- 2 -->
      <defs>
       <path d="M 19.1875 8.296875 
L 53.609375 8.296875 
L 53.609375 0 
L 7.328125 0 
L 7.328125 8.296875 
Q 12.9375 14.109375 22.625 23.890625 
Q 32.328125 33.6875 34.8125 36.53125 
Q 39.546875 41.84375 41.421875 45.53125 
Q 43.3125 49.21875 43.3125 52.78125 
Q 43.3125 58.59375 39.234375 62.25 
Q 35.15625 65.921875 28.609375 65.921875 
Q 23.96875 65.921875 18.8125 64.3125 
Q 13.671875 62.703125 7.8125 59.421875 
L 7.8125 69.390625 
Q 13.765625 71.78125 18.9375 73 
Q 24.125 74.21875 28.421875 74.21875 
Q 39.75 74.21875 46.484375 68.546875 
Q 53.21875 62.890625 53.21875 53.421875 
Q 53.21875 48.921875 51.53125 44.890625 
Q 49.859375 40.875 45.40625 35.40625 
Q 44.1875 33.984375 37.640625 27.21875 
Q 31.109375 20.453125 19.1875 8.296875 
z
" id="DejaVuSans-50"/>
      </defs>
      <g transform="translate(111.433093 327.284152)scale(0.1 -0.1)">
       <use xlink:href="#DejaVuSans-50"/>
      </g>
     </g>
    </g>
    <g id="xtick_3">
     <g id="line2d_3">
      <g>
       <use style="stroke:#000000;stroke-width:0.8;" x="183.585049" xlink:href="#m21f760d693" y="312.685714"/>
      </g>
     </g>
     <g id="text_3">
      <!-- 4 -->
      <defs>
       <path d="M 37.796875 64.3125 
L 12.890625 25.390625 
L 37.796875 25.390625 
z
M 35.203125 72.90625 
L 47.609375 72.90625 
L 47.609375 25.390625 
L 58.015625 25.390625 
L 58.015625 17.1875 
L 47.609375 17.1875 
L 47.609375 0 
L 37.796875 0 
L 37.796875 17.1875 
L 4.890625 17.1875 
L 4.890625 26.703125 
z
" id="DejaVuSans-52"/>
      </defs>
      <g transform="translate(180.403799 327.284152)scale(0.1 -0.1)">
       <use xlink:href="#DejaVuSans-52"/>
      </g>
     </g>
    </g>
    <g id="xtick_4">
     <g id="line2d_4">
      <g>
       <use style="stroke:#000000;stroke-width:0.8;" x="252.555755" xlink:href="#m21f760d693" y="312.685714"/>
      </g>
     </g>
     <g id="text_4">
      <!-- 6 -->
      <defs>
       <path d="M 33.015625 40.375 
Q 26.375 40.375 22.484375 35.828125 
Q 18.609375 31.296875 18.609375 23.390625 
Q 18.609375 15.53125 22.484375 10.953125 
Q 26.375 6.390625 33.015625 6.390625 
Q 39.65625 6.390625 43.53125 10.953125 
Q 47.40625 15.53125 47.40625 23.390625 
Q 47.40625 31.296875 43.53125 35.828125 
Q 39.65625 40.375 33.015625 40.375 
z
M 52.59375 71.296875 
L 52.59375 62.3125 
Q 48.875 64.0625 45.09375 64.984375 
Q 41.3125 65.921875 37.59375 65.921875 
Q 27.828125 65.921875 22.671875 59.328125 
Q 17.53125 52.734375 16.796875 39.40625 
Q 19.671875 43.65625 24.015625 45.921875 
Q 28.375 48.1875 33.59375 48.1875 
Q 44.578125 48.1875 50.953125 41.515625 
Q 57.328125 34.859375 57.328125 23.390625 
Q 57.328125 12.15625 50.6875 5.359375 
Q 44.046875 -1.421875 33.015625 -1.421875 
Q 20.359375 -1.421875 13.671875 8.265625 
Q 6.984375 17.96875 6.984375 36.375 
Q 6.984375 53.65625 15.1875 63.9375 
Q 23.390625 74.21875 37.203125 74.21875 
Q 40.921875 74.21875 44.703125 73.484375 
Q 48.484375 72.75 52.59375 71.296875 
z
" id="DejaVuSans-54"/>
      </defs>
      <g transform="translate(249.374505 327.284152)scale(0.1 -0.1)">
       <use xlink:href="#DejaVuSans-54"/>
      </g>
     </g>
    </g>
    <g id="xtick_5">
     <g id="line2d_5">
      <g>
       <use style="stroke:#000000;stroke-width:0.8;" x="321.526461" xlink:href="#m21f760d693" y="312.685714"/>
      </g>
     </g>
     <g id="text_5">
      <!-- 8 -->
      <defs>
       <path d="M 31.78125 34.625 
Q 24.75 34.625 20.71875 30.859375 
Q 16.703125 27.09375 16.703125 20.515625 
Q 16.703125 13.921875 20.71875 10.15625 
Q 24.75 6.390625 31.78125 6.390625 
Q 38.8125 6.390625 42.859375 10.171875 
Q 46.921875 13.96875 46.921875 20.515625 
Q 46.921875 27.09375 42.890625 30.859375 
Q 38.875 34.625 31.78125 34.625 
z
M 21.921875 38.8125 
Q 15.578125 40.375 12.03125 44.71875 
Q 8.5 49.078125 8.5 55.328125 
Q 8.5 64.0625 14.71875 69.140625 
Q 20.953125 74.21875 31.78125 74.21875 
Q 42.671875 74.21875 48.875 69.140625 
Q 55.078125 64.0625 55.078125 55.328125 
Q 55.078125 49.078125 51.53125 44.71875 
Q 48 40.375 41.703125 38.8125 
Q 48.828125 37.15625 52.796875 32.3125 
Q 56.78125 27.484375 56.78125 20.515625 
Q 56.78125 9.90625 50.3125 4.234375 
Q 43.84375 -1.421875 31.78125 -1.421875 
Q 19.734375 -1.421875 13.25 4.234375 
Q 6.78125 9.90625 6.78125 20.515625 
Q 6.78125 27.484375 10.78125 32.3125 
Q 14.796875 37.15625 21.921875 38.8125 
z
M 18.3125 54.390625 
Q 18.3125 48.734375 21.84375 45.5625 
Q 25.390625 42.390625 31.78125 42.390625 
Q 38.140625 42.390625 41.71875 45.5625 
Q 45.3125 48.734375 45.3125 54.390625 
Q 45.3125 60.0625 41.71875 63.234375 
Q 38.140625 66.40625 31.78125 66.40625 
Q 25.390625 66.40625 21.84375 63.234375 
Q 18.3125 60.0625 18.3125 54.390625 
z
" id="DejaVuSans-56"/>
      </defs>
      <g transform="translate(318.345211 327.284152)scale(0.1 -0.1)">
       <use xlink:href="#DejaVuSans-56"/>
      </g>
     </g>
    </g>
    <g id="xtick_6">
     <g id="line2d_6">
      <g>
       <use style="stroke:#000000;stroke-width:0.8;" x="390.497168" xlink:href="#m21f760d693" y="312.685714"/>
      </g>
     </g>
     <g id="text_6">
      <!-- 10 -->
      <defs>
       <path d="M 12.40625 8.296875 
L 28.515625 8.296875 
L 28.515625 63.921875 
L 10.984375 60.40625 
L 10.984375 69.390625 
L 28.421875 72.90625 
L 38.28125 72.90625 
L 38.28125 8.296875 
L 54.390625 8.296875 
L 54.390625 0 
L 12.40625 0 
z
" id="DejaVuSans-49"/>
      </defs>
      <g transform="translate(384.134668 327.284152)scale(0.1 -0.1)">
       <use xlink:href="#DejaVuSans-49"/>
       <use x="63.623047" xlink:href="#DejaVuSans-48"/>
      </g>
     </g>
    </g>
    <g id="text_7">
     <!-- time [s] -->
     <defs>
      <path d="M 18.3125 70.21875 
L 18.3125 54.6875 
L 36.8125 54.6875 
L 36.8125 47.703125 
L 18.3125 47.703125 
L 18.3125 18.015625 
Q 18.3125 11.328125 20.140625 9.421875 
Q 21.96875 7.515625 27.59375 7.515625 
L 36.8125 7.515625 
L 36.8125 0 
L 27.59375 0 
Q 17.1875 0 13.234375 3.875 
Q 9.28125 7.765625 9.28125 18.015625 
L 9.28125 47.703125 
L 2.6875 47.703125 
L 2.6875 54.6875 
L 9.28125 54.6875 
L 9.28125 70.21875 
z
" id="DejaVuSans-116"/>
      <path d="M 9.421875 54.6875 
L 18.40625 54.6875 
L 18.40625 0 
L 9.421875 0 
z
M 9.421875 75.984375 
L 18.40625 75.984375 
L 18.40625 64.59375 
L 9.421875 64.59375 
z
" id="DejaVuSans-105"/>
      <path d="M 52 44.1875 
Q 55.375 50.25 60.0625 53.125 
Q 64.75 56 71.09375 56 
Q 79.640625 56 84.28125 50.015625 
Q 88.921875 44.046875 88.921875 33.015625 
L 88.921875 0 
L 79.890625 0 
L 79.890625 32.71875 
Q 79.890625 40.578125 77.09375 44.375 
Q 74.3125 48.1875 68.609375 48.1875 
Q 61.625 48.1875 57.5625 43.546875 
Q 53.515625 38.921875 53.515625 30.90625 
L 53.515625 0 
L 44.484375 0 
L 44.484375 32.71875 
Q 44.484375 40.625 41.703125 44.40625 
Q 38.921875 48.1875 33.109375 48.1875 
Q 26.21875 48.1875 22.15625 43.53125 
Q 18.109375 38.875 18.109375 30.90625 
L 18.109375 0 
L 9.078125 0 
L 9.078125 54.6875 
L 18.109375 54.6875 
L 18.109375 46.1875 
Q 21.1875 51.21875 25.484375 53.609375 
Q 29.78125 56 35.6875 56 
Q 41.65625 56 45.828125 52.96875 
Q 50 49.953125 52 44.1875 
z
" id="DejaVuSans-109"/>
      <path d="M 56.203125 29.59375 
L 56.203125 25.203125 
L 14.890625 25.203125 
Q 15.484375 15.921875 20.484375 11.0625 
Q 25.484375 6.203125 34.421875 6.203125 
Q 39.59375 6.203125 44.453125 7.46875 
Q 49.3125 8.734375 54.109375 11.28125 
L 54.109375 2.78125 
Q 49.265625 0.734375 44.1875 -0.34375 
Q 39.109375 -1.421875 33.890625 -1.421875 
Q 20.796875 -1.421875 13.15625 6.1875 
Q 5.515625 13.8125 5.515625 26.8125 
Q 5.515625 40.234375 12.765625 48.109375 
Q 20.015625 56 32.328125 56 
Q 43.359375 56 49.78125 48.890625 
Q 56.203125 41.796875 56.203125 29.59375 
z
M 47.21875 32.234375 
Q 47.125 39.59375 43.09375 43.984375 
Q 39.0625 48.390625 32.421875 48.390625 
Q 24.90625 48.390625 20.390625 44.140625 
Q 15.875 39.890625 15.1875 32.171875 
z
" id="DejaVuSans-101"/>
      <path id="DejaVuSans-32"/>
      <path d="M 8.59375 75.984375 
L 29.296875 75.984375 
L 29.296875 69 
L 17.578125 69 
L 17.578125 -6.203125 
L 29.296875 -6.203125 
L 29.296875 -13.1875 
L 8.59375 -13.1875 
z
" id="DejaVuSans-91"/>
      <path d="M 44.28125 53.078125 
L 44.28125 44.578125 
Q 40.484375 46.53125 36.375 47.5 
Q 32.28125 48.484375 27.875 48.484375 
Q 21.1875 48.484375 17.84375 46.4375 
Q 14.5 44.390625 14.5 40.28125 
Q 14.5 37.15625 16.890625 35.375 
Q 19.28125 33.59375 26.515625 31.984375 
L 29.59375 31.296875 
Q 39.15625 29.25 43.1875 25.515625 
Q 47.21875 21.78125 47.21875 15.09375 
Q 47.21875 7.46875 41.1875 3.015625 
Q 35.15625 -1.421875 24.609375 -1.421875 
Q 20.21875 -1.421875 15.453125 -0.5625 
Q 10.6875 0.296875 5.421875 2 
L 5.421875 11.28125 
Q 10.40625 8.6875 15.234375 7.390625 
Q 20.0625 6.109375 24.8125 6.109375 
Q 31.15625 6.109375 34.5625 8.28125 
Q 37.984375 10.453125 37.984375 14.40625 
Q 37.984375 18.0625 35.515625 20.015625 
Q 33.0625 21.96875 24.703125 23.78125 
L 21.578125 24.515625 
Q 13.234375 26.265625 9.515625 29.90625 
Q 5.8125 33.546875 5.8125 39.890625 
Q 5.8125 47.609375 11.28125 51.796875 
Q 16.75 56 26.8125 56 
Q 31.78125 56 36.171875 55.265625 
Q 40.578125 54.546875 44.28125 53.078125 
z
" id="DejaVuSans-115"/>
      <path d="M 30.421875 75.984375 
L 30.421875 -13.1875 
L 9.71875 -13.1875 
L 9.71875 -6.203125 
L 21.390625 -6.203125 
L 21.390625 69 
L 9.71875 69 
L 9.71875 75.984375 
z
" id="DejaVuSans-93"/>
     </defs>
     <g transform="translate(194.688594 340.962277)scale(0.1 -0.1)">
      <use xlink:href="#DejaVuSans-116"/>
      <use x="39.208984" xlink:href="#DejaVuSans-105"/>
      <use x="66.992188" xlink:href="#DejaVuSans-109"/>
      <use x="164.404297" xlink:href="#DejaVuSans-101"/>
      <use x="225.927734" xlink:href="#DejaVuSans-32"/>
      <use x="257.714844" xlink:href="#DejaVuSans-91"/>
      <use x="296.728516" xlink:href="#DejaVuSans-115"/>
      <use x="348.828125" xlink:href="#DejaVuSans-93"/>
     </g>
    </g>
   </g>
   <g id="matplotlib.axis_2">
    <g id="ytick_1">
     <g id="line2d_7">
      <defs>
       <path d="M 0 0 
L -3.5 0 
" id="mbf3096ec55" style="stroke:#000000;stroke-width:0.8;"/>
      </defs>
      <g>
       <use style="stroke:#000000;stroke-width:0.8;" x="28.8" xlink:href="#mbf3096ec55" y="312.685714"/>
      </g>
     </g>
     <g id="text_8">
      <!-- 0 -->
      <g transform="translate(15.4375 316.484933)scale(0.1 -0.1)">
       <use xlink:href="#DejaVuSans-48"/>
      </g>
     </g>
    </g>
    <g id="ytick_2">
     <g id="line2d_8">
      <g>
       <use style="stroke:#000000;stroke-width:0.8;" x="28.8" xlink:href="#mbf3096ec55" y="278.215481"/>
      </g>
     </g>
     <g id="text_9">
      <!-- 1 -->
      <g transform="translate(15.4375 282.014699)scale(0.1 -0.1)">
       <use xlink:href="#DejaVuSans-49"/>
      </g>
     </g>
    </g>
    <g id="ytick_3">
     <g id="line2d_9">
      <g>
       <use style="stroke:#000000;stroke-width:0.8;" x="28.8" xlink:href="#mbf3096ec55" y="243.745247"/>
      </g>
     </g>
     <g id="text_10">
      <!-- 2 -->
      <g transform="translate(15.4375 247.544466)scale(0.1 -0.1)">
       <use xlink:href="#DejaVuSans-50"/>
      </g>
     </g>
    </g>
    <g id="ytick_4">
     <g id="line2d_10">
      <g>
       <use style="stroke:#000000;stroke-width:0.8;" x="28.8" xlink:href="#mbf3096ec55" y="209.275013"/>
      </g>
     </g>
     <g id="text_11">
      <!-- 3 -->
      <defs>
       <path d="M 40.578125 39.3125 
Q 47.65625 37.796875 51.625 33 
Q 55.609375 28.21875 55.609375 21.1875 
Q 55.609375 10.40625 48.1875 4.484375 
Q 40.765625 -1.421875 27.09375 -1.421875 
Q 22.515625 -1.421875 17.65625 -0.515625 
Q 12.796875 0.390625 7.625 2.203125 
L 7.625 11.71875 
Q 11.71875 9.328125 16.59375 8.109375 
Q 21.484375 6.890625 26.8125 6.890625 
Q 36.078125 6.890625 40.9375 10.546875 
Q 45.796875 14.203125 45.796875 21.1875 
Q 45.796875 27.640625 41.28125 31.265625 
Q 36.765625 34.90625 28.71875 34.90625 
L 20.21875 34.90625 
L 20.21875 43.015625 
L 29.109375 43.015625 
Q 36.375 43.015625 40.234375 45.921875 
Q 44.09375 48.828125 44.09375 54.296875 
Q 44.09375 59.90625 40.109375 62.90625 
Q 36.140625 65.921875 28.71875 65.921875 
Q 24.65625 65.921875 20.015625 65.03125 
Q 15.375 64.15625 9.8125 62.3125 
L 9.8125 71.09375 
Q 15.4375 72.65625 20.34375 73.4375 
Q 25.25 74.21875 29.59375 74.21875 
Q 40.828125 74.21875 47.359375 69.109375 
Q 53.90625 64.015625 53.90625 55.328125 
Q 53.90625 49.265625 50.4375 45.09375 
Q 46.96875 40.921875 40.578125 39.3125 
z
" id="DejaVuSans-51"/>
      </defs>
      <g transform="translate(15.4375 213.074232)scale(0.1 -0.1)">
       <use xlink:href="#DejaVuSans-51"/>
      </g>
     </g>
    </g>
    <g id="ytick_5">
     <g id="line2d_11">
      <g>
       <use style="stroke:#000000;stroke-width:0.8;" x="28.8" xlink:href="#mbf3096ec55" y="174.804779"/>
      </g>
     </g>
     <g id="text_12">
      <!-- 4 -->
      <g transform="translate(15.4375 178.603998)scale(0.1 -0.1)">
       <use xlink:href="#DejaVuSans-52"/>
      </g>
     </g>
    </g>
    <g id="ytick_6">
     <g id="line2d_12">
      <g>
       <use style="stroke:#000000;stroke-width:0.8;" x="28.8" xlink:href="#mbf3096ec55" y="140.334545"/>
      </g>
     </g>
     <g id="text_13">
      <!-- 5 -->
      <defs>
       <path d="M 10.796875 72.90625 
L 49.515625 72.90625 
L 49.515625 64.59375 
L 19.828125 64.59375 
L 19.828125 46.734375 
Q 21.96875 47.46875 24.109375 47.828125 
Q 26.265625 48.1875 28.421875 48.1875 
Q 40.625 48.1875 47.75 41.5 
Q 54.890625 34.8125 54.890625 23.390625 
Q 54.890625 11.625 47.5625 5.09375 
Q 40.234375 -1.421875 26.90625 -1.421875 
Q 22.3125 -1.421875 17.546875 -0.640625 
Q 12.796875 0.140625 7.71875 1.703125 
L 7.71875 11.625 
Q 12.109375 9.234375 16.796875 8.0625 
Q 21.484375 6.890625 26.703125 6.890625 
Q 35.15625 6.890625 40.078125 11.328125 
Q 45.015625 15.765625 45.015625 23.390625 
Q 45.015625 31 40.078125 35.4375 
Q 35.15625 39.890625 26.703125 39.890625 
Q 22.75 39.890625 18.8125 39.015625 
Q 14.890625 38.140625 10.796875 36.28125 
z
" id="DejaVuSans-53"/>
      </defs>
      <g transform="translate(15.4375 144.133764)scale(0.1 -0.1)">
       <use xlink:href="#DejaVuSans-53"/>
      </g>
     </g>
    </g>
    <g id="ytick_7">
     <g id="line2d_13">
      <g>
       <use style="stroke:#000000;stroke-width:0.8;" x="28.8" xlink:href="#mbf3096ec55" y="105.864312"/>
      </g>
     </g>
     <g id="text_14">
      <!-- 6 -->
      <g transform="translate(15.4375 109.66353)scale(0.1 -0.1)">
       <use xlink:href="#DejaVuSans-54"/>
      </g>
     </g>
    </g>
    <g id="ytick_8">
     <g id="line2d_14">
      <g>
       <use style="stroke:#000000;stroke-width:0.8;" x="28.8" xlink:href="#mbf3096ec55" y="71.394078"/>
      </g>
     </g>
     <g id="text_15">
      <!-- 7 -->
      <defs>
       <path d="M 8.203125 72.90625 
L 55.078125 72.90625 
L 55.078125 68.703125 
L 28.609375 0 
L 18.3125 0 
L 43.21875 64.59375 
L 8.203125 64.59375 
z
" id="DejaVuSans-55"/>
      </defs>
      <g transform="translate(15.4375 75.193297)scale(0.1 -0.1)">
       <use xlink:href="#DejaVuSans-55"/>
      </g>
     </g>
    </g>
    <g id="ytick_9">
     <g id="line2d_15">
      <g>
       <use style="stroke:#000000;stroke-width:0.8;" x="28.8" xlink:href="#mbf3096ec55" y="36.923844"/>
      </g>
     </g>
     <g id="text_16">
      <!-- 8 -->
      <g transform="translate(15.4375 40.723063)scale(0.1 -0.1)">
       <use xlink:href="#DejaVuSans-56"/>
      </g>
     </g>
    </g>
    <g id="text_17">
     <!-- range [m] -->
     <defs>
      <path d="M 41.109375 46.296875 
Q 39.59375 47.171875 37.8125 47.578125 
Q 36.03125 48 33.890625 48 
Q 26.265625 48 22.1875 43.046875 
Q 18.109375 38.09375 18.109375 28.8125 
L 18.109375 0 
L 9.078125 0 
L 9.078125 54.6875 
L 18.109375 54.6875 
L 18.109375 46.1875 
Q 20.953125 51.171875 25.484375 53.578125 
Q 30.03125 56 36.53125 56 
Q 37.453125 56 38.578125 55.875 
Q 39.703125 55.765625 41.0625 55.515625 
z
" id="DejaVuSans-114"/>
      <path d="M 34.28125 27.484375 
Q 23.390625 27.484375 19.1875 25 
Q 14.984375 22.515625 14.984375 16.5 
Q 14.984375 11.71875 18.140625 8.90625 
Q 21.296875 6.109375 26.703125 6.109375 
Q 34.1875 6.109375 38.703125 11.40625 
Q 43.21875 16.703125 43.21875 25.484375 
L 43.21875 27.484375 
z
M 52.203125 31.203125 
L 52.203125 0 
L 43.21875 0 
L 43.21875 8.296875 
Q 40.140625 3.328125 35.546875 0.953125 
Q 30.953125 -1.421875 24.3125 -1.421875 
Q 15.921875 -1.421875 10.953125 3.296875 
Q 6 8.015625 6 15.921875 
Q 6 25.140625 12.171875 29.828125 
Q 18.359375 34.515625 30.609375 34.515625 
L 43.21875 34.515625 
L 43.21875 35.40625 
Q 43.21875 41.609375 39.140625 45 
Q 35.0625 48.390625 27.6875 48.390625 
Q 23 48.390625 18.546875 47.265625 
Q 14.109375 46.140625 10.015625 43.890625 
L 10.015625 52.203125 
Q 14.9375 54.109375 19.578125 55.046875 
Q 24.21875 56 28.609375 56 
Q 40.484375 56 46.34375 49.84375 
Q 52.203125 43.703125 52.203125 31.203125 
z
" id="DejaVuSans-97"/>
      <path d="M 54.890625 33.015625 
L 54.890625 0 
L 45.90625 0 
L 45.90625 32.71875 
Q 45.90625 40.484375 42.875 44.328125 
Q 39.84375 48.1875 33.796875 48.1875 
Q 26.515625 48.1875 22.3125 43.546875 
Q 18.109375 38.921875 18.109375 30.90625 
L 18.109375 0 
L 9.078125 0 
L 9.078125 54.6875 
L 18.109375 54.6875 
L 18.109375 46.1875 
Q 21.34375 51.125 25.703125 53.5625 
Q 30.078125 56 35.796875 56 
Q 45.21875 56 50.046875 50.171875 
Q 54.890625 44.34375 54.890625 33.015625 
z
" id="DejaVuSans-110"/>
      <path d="M 45.40625 27.984375 
Q 45.40625 37.75 41.375 43.109375 
Q 37.359375 48.484375 30.078125 48.484375 
Q 22.859375 48.484375 18.828125 43.109375 
Q 14.796875 37.75 14.796875 27.984375 
Q 14.796875 18.265625 18.828125 12.890625 
Q 22.859375 7.515625 30.078125 7.515625 
Q 37.359375 7.515625 41.375 12.890625 
Q 45.40625 18.265625 45.40625 27.984375 
z
M 54.390625 6.78125 
Q 54.390625 -7.171875 48.1875 -13.984375 
Q 42 -20.796875 29.203125 -20.796875 
Q 24.46875 -20.796875 20.265625 -20.09375 
Q 16.0625 -19.390625 12.109375 -17.921875 
L 12.109375 -9.1875 
Q 16.0625 -11.328125 19.921875 -12.34375 
Q 23.78125 -13.375 27.78125 -13.375 
Q 36.625 -13.375 41.015625 -8.765625 
Q 45.40625 -4.15625 45.40625 5.171875 
L 45.40625 9.625 
Q 42.625 4.78125 38.28125 2.390625 
Q 33.9375 0 27.875 0 
Q 17.828125 0 11.671875 7.65625 
Q 5.515625 15.328125 5.515625 27.984375 
Q 5.515625 40.671875 11.671875 48.328125 
Q 17.828125 56 27.875 56 
Q 33.9375 56 38.28125 53.609375 
Q 42.625 51.21875 45.40625 46.390625 
L 45.40625 54.6875 
L 54.390625 54.6875 
z
" id="DejaVuSans-103"/>
     </defs>
     <g transform="translate(9.357812 189.471429)rotate(-90)scale(0.1 -0.1)">
      <use xlink:href="#DejaVuSans-114"/>
      <use x="41.113281" xlink:href="#DejaVuSans-97"/>
      <use x="102.392578" xlink:href="#DejaVuSans-110"/>
      <use x="165.771484" xlink:href="#DejaVuSans-103"/>
      <use x="229.248047" xlink:href="#DejaVuSans-101"/>
      <use x="290.771484" xlink:href="#DejaVuSans-32"/>
      <use x="322.558594" xlink:href="#DejaVuSans-91"/>
      <use x="361.572266" xlink:href="#DejaVuSans-109"/>
      <use x="458.984375" xlink:href="#DejaVuSans-93"/>
     </g>
    </g>
   </g>
   <g id="patch_3">
    <path d="M 28.8 312.685714 
L 28.8 16.457143 
" style="fill:none;stroke:#000000;stroke-linecap:square;stroke-linejoin:miter;stroke-width:0.8;"/>
   </g>
   <g id="patch_4">
    <path d="M 399.36 312.685714 
L 399.36 16.457143 
" style="fill:none;stroke:#000000;stroke-linecap:square;stroke-linejoin:miter;stroke-width:0.8;"/>
   </g>
   <g id="patch_5">
    <path d="M 28.8 312.685714 
L 399.36 312.685714 
" style="fill:none;stroke:#000000;stroke-linecap:square;stroke-linejoin:miter;stroke-width:0.8;"/>
   </g>
   <g id="patch_6">
    <path d="M 28.8 16.457143 
L 399.36 16.457143 
" style="fill:none;stroke:#000000;stroke-linecap:square;stroke-linejoin:miter;stroke-width:0.8;"/>
   </g>
   <g id="text_18">
    <!-- Bag 10 -->
    <defs>
     <path d="M 19.671875 34.8125 
L 19.671875 8.109375 
L 35.5 8.109375 
Q 43.453125 8.109375 47.28125 11.40625 
Q 51.125 14.703125 51.125 21.484375 
Q 51.125 28.328125 47.28125 31.5625 
Q 43.453125 34.8125 35.5 34.8125 
z
M 19.671875 64.796875 
L 19.671875 42.828125 
L 34.28125 42.828125 
Q 41.5 42.828125 45.03125 45.53125 
Q 48.578125 48.25 48.578125 53.8125 
Q 48.578125 59.328125 45.03125 62.0625 
Q 41.5 64.796875 34.28125 64.796875 
z
M 9.8125 72.90625 
L 35.015625 72.90625 
Q 46.296875 72.90625 52.390625 68.21875 
Q 58.5 63.53125 58.5 54.890625 
Q 58.5 48.1875 55.375 44.234375 
Q 52.25 40.28125 46.1875 39.3125 
Q 53.46875 37.75 57.5 32.78125 
Q 61.53125 27.828125 61.53125 20.40625 
Q 61.53125 10.640625 54.890625 5.3125 
Q 48.25 0 35.984375 0 
L 9.8125 0 
z
" id="DejaVuSans-66"/>
    </defs>
    <g transform="translate(192.935625 10.457143)scale(0.12 -0.12)">
     <use xlink:href="#DejaVuSans-66"/>
     <use x="68.603516" xlink:href="#DejaVuSans-97"/>
     <use x="129.882812" xlink:href="#DejaVuSans-103"/>
     <use x="193.359375" xlink:href="#DejaVuSans-32"/>
     <use x="225.146484" xlink:href="#DejaVuSans-49"/>
     <use x="288.769531" xlink:href="#DejaVuSans-48"/>
    </g>
   </g>
   <g id="legend_1">
    <g id="patch_7">
     <path d="M 313.992813 53.813393 
L 392.36 53.813393 
Q 394.36 53.813393 394.36 51.813393 
L 394.36 23.457143 
Q 394.36 21.457143 392.36 21.457143 
L 313.992813 21.457143 
Q 311.992813 21.457143 311.992813 23.457143 
L 311.992813 51.813393 
Q 311.992813 53.813393 313.992813 53.813393 
z
" style="fill:#ffffff;opacity:0.8;stroke:#cccccc;stroke-linejoin:miter;"/>
    </g>
    <g id="PathCollection_3">
     <g>
      <use style="fill:#1f77b4;stroke:#1f77b4;" x="325.992813" xlink:href="#m71bc8bb862" y="30.43058"/>
     </g>
    </g>
    <g id="text_19">
     <!-- Radar -->
     <defs>
      <path d="M 44.390625 34.1875 
Q 47.5625 33.109375 50.5625 29.59375 
Q 53.5625 26.078125 56.59375 19.921875 
L 66.609375 0 
L 56 0 
L 46.6875 18.703125 
Q 43.0625 26.03125 39.671875 28.421875 
Q 36.28125 30.8125 30.421875 30.8125 
L 19.671875 30.8125 
L 19.671875 0 
L 9.8125 0 
L 9.8125 72.90625 
L 32.078125 72.90625 
Q 44.578125 72.90625 50.734375 67.671875 
Q 56.890625 62.453125 56.890625 51.90625 
Q 56.890625 45.015625 53.6875 40.46875 
Q 50.484375 35.9375 44.390625 34.1875 
z
M 19.671875 64.796875 
L 19.671875 38.921875 
L 32.078125 38.921875 
Q 39.203125 38.921875 42.84375 42.21875 
Q 46.484375 45.515625 46.484375 51.90625 
Q 46.484375 58.296875 42.84375 61.546875 
Q 39.203125 64.796875 32.078125 64.796875 
z
" id="DejaVuSans-82"/>
      <path d="M 45.40625 46.390625 
L 45.40625 75.984375 
L 54.390625 75.984375 
L 54.390625 0 
L 45.40625 0 
L 45.40625 8.203125 
Q 42.578125 3.328125 38.25 0.953125 
Q 33.9375 -1.421875 27.875 -1.421875 
Q 17.96875 -1.421875 11.734375 6.484375 
Q 5.515625 14.40625 5.515625 27.296875 
Q 5.515625 40.1875 11.734375 48.09375 
Q 17.96875 56 27.875 56 
Q 33.9375 56 38.25 53.625 
Q 42.578125 51.265625 45.40625 46.390625 
z
M 14.796875 27.296875 
Q 14.796875 17.390625 18.875 11.75 
Q 22.953125 6.109375 30.078125 6.109375 
Q 37.203125 6.109375 41.296875 11.75 
Q 45.40625 17.390625 45.40625 27.296875 
Q 45.40625 37.203125 41.296875 42.84375 
Q 37.203125 48.484375 30.078125 48.484375 
Q 22.953125 48.484375 18.875 42.84375 
Q 14.796875 37.203125 14.796875 27.296875 
z
" id="DejaVuSans-100"/>
     </defs>
     <g transform="translate(343.992813 33.05558)scale(0.1 -0.1)">
      <use xlink:href="#DejaVuSans-82"/>
      <use x="67.232422" xlink:href="#DejaVuSans-97"/>
      <use x="128.511719" xlink:href="#DejaVuSans-100"/>
      <use x="191.988281" xlink:href="#DejaVuSans-97"/>
      <use x="253.267578" xlink:href="#DejaVuSans-114"/>
     </g>
    </g>
    <g id="PathCollection_4">
     <g>
      <use style="fill:#ff7f0e;stroke:#ff7f0e;" x="325.992813" xlink:href="#m6ac790fc17" y="45.108705"/>
     </g>
    </g>
    <g id="text_20">
     <!-- Optitrack -->
     <defs>
      <path d="M 39.40625 66.21875 
Q 28.65625 66.21875 22.328125 58.203125 
Q 16.015625 50.203125 16.015625 36.375 
Q 16.015625 22.609375 22.328125 14.59375 
Q 28.65625 6.59375 39.40625 6.59375 
Q 50.140625 6.59375 56.421875 14.59375 
Q 62.703125 22.609375 62.703125 36.375 
Q 62.703125 50.203125 56.421875 58.203125 
Q 50.140625 66.21875 39.40625 66.21875 
z
M 39.40625 74.21875 
Q 54.734375 74.21875 63.90625 63.9375 
Q 73.09375 53.65625 73.09375 36.375 
Q 73.09375 19.140625 63.90625 8.859375 
Q 54.734375 -1.421875 39.40625 -1.421875 
Q 24.03125 -1.421875 14.8125 8.828125 
Q 5.609375 19.09375 5.609375 36.375 
Q 5.609375 53.65625 14.8125 63.9375 
Q 24.03125 74.21875 39.40625 74.21875 
z
" id="DejaVuSans-79"/>
      <path d="M 18.109375 8.203125 
L 18.109375 -20.796875 
L 9.078125 -20.796875 
L 9.078125 54.6875 
L 18.109375 54.6875 
L 18.109375 46.390625 
Q 20.953125 51.265625 25.265625 53.625 
Q 29.59375 56 35.59375 56 
Q 45.5625 56 51.78125 48.09375 
Q 58.015625 40.1875 58.015625 27.296875 
Q 58.015625 14.40625 51.78125 6.484375 
Q 45.5625 -1.421875 35.59375 -1.421875 
Q 29.59375 -1.421875 25.265625 0.953125 
Q 20.953125 3.328125 18.109375 8.203125 
z
M 48.6875 27.296875 
Q 48.6875 37.203125 44.609375 42.84375 
Q 40.53125 48.484375 33.40625 48.484375 
Q 26.265625 48.484375 22.1875 42.84375 
Q 18.109375 37.203125 18.109375 27.296875 
Q 18.109375 17.390625 22.1875 11.75 
Q 26.265625 6.109375 33.40625 6.109375 
Q 40.53125 6.109375 44.609375 11.75 
Q 48.6875 17.390625 48.6875 27.296875 
z
" id="DejaVuSans-112"/>
      <path d="M 48.78125 52.59375 
L 48.78125 44.1875 
Q 44.96875 46.296875 41.140625 47.34375 
Q 37.3125 48.390625 33.40625 48.390625 
Q 24.65625 48.390625 19.8125 42.84375 
Q 14.984375 37.3125 14.984375 27.296875 
Q 14.984375 17.28125 19.8125 11.734375 
Q 24.65625 6.203125 33.40625 6.203125 
Q 37.3125 6.203125 41.140625 7.25 
Q 44.96875 8.296875 48.78125 10.40625 
L 48.78125 2.09375 
Q 45.015625 0.34375 40.984375 -0.53125 
Q 36.96875 -1.421875 32.421875 -1.421875 
Q 20.0625 -1.421875 12.78125 6.34375 
Q 5.515625 14.109375 5.515625 27.296875 
Q 5.515625 40.671875 12.859375 48.328125 
Q 20.21875 56 33.015625 56 
Q 37.15625 56 41.109375 55.140625 
Q 45.0625 54.296875 48.78125 52.59375 
z
" id="DejaVuSans-99"/>
      <path d="M 9.078125 75.984375 
L 18.109375 75.984375 
L 18.109375 31.109375 
L 44.921875 54.6875 
L 56.390625 54.6875 
L 27.390625 29.109375 
L 57.625 0 
L 45.90625 0 
L 18.109375 26.703125 
L 18.109375 0 
L 9.078125 0 
z
" id="DejaVuSans-107"/>
     </defs>
     <g transform="translate(343.992813 47.733705)scale(0.1 -0.1)">
      <use xlink:href="#DejaVuSans-79"/>
      <use x="78.710938" xlink:href="#DejaVuSans-112"/>
      <use x="142.1875" xlink:href="#DejaVuSans-116"/>
      <use x="181.396484" xlink:href="#DejaVuSans-105"/>
      <use x="209.179688" xlink:href="#DejaVuSans-116"/>
      <use x="248.388672" xlink:href="#DejaVuSans-114"/>
      <use x="289.501953" xlink:href="#DejaVuSans-97"/>
      <use x="350.78125" xlink:href="#DejaVuSans-99"/>
      <use x="405.761719" xlink:href="#DejaVuSans-107"/>
     </g>
    </g>
   </g>
  </g>
 </g>
 <defs>
  <clipPath id="pa53af6eb0a">
   <rect height="296.228571" width="370.56" x="28.8" y="16.457143"/>
  </clipPath>
 </defs>
</svg>
