<?xml version="1.0" encoding="utf-8" standalone="no"?>
<!DOCTYPE svg PUBLIC "-//W3C//DTD SVG 1.1//EN"
  "http://www.w3.org/Graphics/SVG/1.1/DTD/svg11.dtd">
<!-- Created with matplotlib (https://matplotlib.org/) -->
<svg height="345.6pt" version="1.1" viewBox="0 0 398.16 345.6" width="398.16pt" xmlns="http://www.w3.org/2000/svg" xmlns:xlink="http://www.w3.org/1999/xlink">
 <defs>
  <style type="text/css">
*{stroke-linecap:butt;stroke-linejoin:round;}
  </style>
 </defs>
 <g id="figure_1">
  <g id="patch_1">
   <path d="M 0 345.6 
L 398.16 345.6 
L 398.16 0 
L 0 0 
z
" style="fill:#ffffff;"/>
  </g>
  <g id="axes_1">
   <g id="patch_2">
    <path d="M 47.4 303.634286 
L 393.42 303.634286 
L 393.42 23.04 
L 47.4 23.04 
z
" style="fill:#ffffff;"/>
   </g>
   <g id="PathCollection_1">
    <defs>
     <path d="M 0 3 
C 0.795609 3 1.55874 2.683901 2.12132 2.12132 
C 2.683901 1.55874 3 0.795609 3 0 
C 3 -0.795609 2.683901 -1.55874 2.12132 -2.12132 
C 1.55874 -2.683901 0.795609 -3 0 -3 
C -0.795609 -3 -1.55874 -2.683901 -2.12132 -2.12132 
C -2.683901 -1.55874 -3 -0.795609 -3 0 
C -3 0.795609 -2.683901 1.55874 -2.12132 2.12132 
C -1.55874 2.683901 -0.795609 3 0 3 
z
" id="m2da9f99988" style="stroke:#1f77b4;"/>
    </defs>
    <g clip-path="url(#pfebdbad22e)">
     <use style="fill:#1f77b4;stroke:#1f77b4;" x="63.128182" xlink:href="#m2da9f99988" y="282.979416"/>
     <use style="fill:#1f77b4;stroke:#1f77b4;" x="65.225273" xlink:href="#m2da9f99988" y="282.503994"/>
     <use style="fill:#1f77b4;stroke:#1f77b4;" x="67.322364" xlink:href="#m2da9f99988" y="283.299758"/>
     <use style="fill:#1f77b4;stroke:#1f77b4;" x="69.419455" xlink:href="#m2da9f99988" y="283.172338"/>
     <use style="fill:#1f77b4;stroke:#1f77b4;" x="71.516545" xlink:href="#m2da9f99988" y="282.688399"/>
     <use style="fill:#1f77b4;stroke:#1f77b4;" x="73.613636" xlink:href="#m2da9f99988" y="282.666102"/>
     <use style="fill:#1f77b4;stroke:#1f77b4;" x="75.710727" xlink:href="#m2da9f99988" y="283.286131"/>
     <use style="fill:#1f77b4;stroke:#1f77b4;" x="77.807818" xlink:href="#m2da9f99988" y="282.716519"/>
     <use style="fill:#1f77b4;stroke:#1f77b4;" x="79.904909" xlink:href="#m2da9f99988" y="282.866201"/>
     <use style="fill:#1f77b4;stroke:#1f77b4;" x="82.002" xlink:href="#m2da9f99988" y="282.909211"/>
     <use style="fill:#1f77b4;stroke:#1f77b4;" x="84.099091" xlink:href="#m2da9f99988" y="283.445328"/>
     <use style="fill:#1f77b4;stroke:#1f77b4;" x="86.196182" xlink:href="#m2da9f99988" y="281.683947"/>
     <use style="fill:#1f77b4;stroke:#1f77b4;" x="88.293273" xlink:href="#m2da9f99988" y="280.773922"/>
     <use style="fill:#1f77b4;stroke:#1f77b4;" x="90.390364" xlink:href="#m2da9f99988" y="281.312502"/>
     <use style="fill:#1f77b4;stroke:#1f77b4;" x="92.487455" xlink:href="#m2da9f99988" y="280.7775"/>
     <use style="fill:#1f77b4;stroke:#1f77b4;" x="94.584545" xlink:href="#m2da9f99988" y="281.847318"/>
     <use style="fill:#1f77b4;stroke:#1f77b4;" x="96.681636" xlink:href="#m2da9f99988" y="283.189952"/>
     <use style="fill:#1f77b4;stroke:#1f77b4;" x="98.778727" xlink:href="#m2da9f99988" y="281.853487"/>
     <use style="fill:#1f77b4;stroke:#1f77b4;" x="100.875818" xlink:href="#m2da9f99988" y="282.124324"/>
     <use style="fill:#1f77b4;stroke:#1f77b4;" x="102.972909" xlink:href="#m2da9f99988" y="282.204398"/>
     <use style="fill:#1f77b4;stroke:#1f77b4;" x="105.07" xlink:href="#m2da9f99988" y="283.047017"/>
     <use style="fill:#1f77b4;stroke:#1f77b4;" x="107.167091" xlink:href="#m2da9f99988" y="283.390096"/>
     <use style="fill:#1f77b4;stroke:#1f77b4;" x="109.264182" xlink:href="#m2da9f99988" y="283.310004"/>
     <use style="fill:#1f77b4;stroke:#1f77b4;" x="111.361273" xlink:href="#m2da9f99988" y="283.214731"/>
     <use style="fill:#1f77b4;stroke:#1f77b4;" x="113.458364" xlink:href="#m2da9f99988" y="282.552715"/>
     <use style="fill:#1f77b4;stroke:#1f77b4;" x="115.555455" xlink:href="#m2da9f99988" y="282.994637"/>
     <use style="fill:#1f77b4;stroke:#1f77b4;" x="117.652545" xlink:href="#m2da9f99988" y="283.404461"/>
     <use style="fill:#1f77b4;stroke:#1f77b4;" x="119.749636" xlink:href="#m2da9f99988" y="282.987843"/>
     <use style="fill:#1f77b4;stroke:#1f77b4;" x="121.846727" xlink:href="#m2da9f99988" y="283.064994"/>
     <use style="fill:#1f77b4;stroke:#1f77b4;" x="123.943818" xlink:href="#m2da9f99988" y="283.049908"/>
     <use style="fill:#1f77b4;stroke:#1f77b4;" x="126.040909" xlink:href="#m2da9f99988" y="283.03643"/>
     <use style="fill:#1f77b4;stroke:#1f77b4;" x="128.138" xlink:href="#m2da9f99988" y="283.360509"/>
     <use style="fill:#1f77b4;stroke:#1f77b4;" x="130.235091" xlink:href="#m2da9f99988" y="282.28769"/>
     <use style="fill:#1f77b4;stroke:#1f77b4;" x="132.332182" xlink:href="#m2da9f99988" y="281.286648"/>
     <use style="fill:#1f77b4;stroke:#1f77b4;" x="134.429273" xlink:href="#m2da9f99988" y="283.265018"/>
     <use style="fill:#1f77b4;stroke:#1f77b4;" x="136.526364" xlink:href="#m2da9f99988" y="281.727219"/>
     <use style="fill:#1f77b4;stroke:#1f77b4;" x="138.623455" xlink:href="#m2da9f99988" y="280.935109"/>
     <use style="fill:#1f77b4;stroke:#1f77b4;" x="140.720545" xlink:href="#m2da9f99988" y="281.836749"/>
     <use style="fill:#1f77b4;stroke:#1f77b4;" x="142.817636" xlink:href="#m2da9f99988" y="282.658389"/>
     <use style="fill:#1f77b4;stroke:#1f77b4;" x="144.914727" xlink:href="#m2da9f99988" y="281.807728"/>
     <use style="fill:#1f77b4;stroke:#1f77b4;" x="147.011818" xlink:href="#m2da9f99988" y="280.979921"/>
     <use style="fill:#1f77b4;stroke:#1f77b4;" x="149.108909" xlink:href="#m2da9f99988" y="281.944087"/>
     <use style="fill:#1f77b4;stroke:#1f77b4;" x="151.206" xlink:href="#m2da9f99988" y="282.36314"/>
     <use style="fill:#1f77b4;stroke:#1f77b4;" x="153.303091" xlink:href="#m2da9f99988" y="280.249438"/>
     <use style="fill:#1f77b4;stroke:#1f77b4;" x="155.400182" xlink:href="#m2da9f99988" y="280.452337"/>
     <use style="fill:#1f77b4;stroke:#1f77b4;" x="157.497273" xlink:href="#m2da9f99988" y="281.550821"/>
     <use style="fill:#1f77b4;stroke:#1f77b4;" x="159.594364" xlink:href="#m2da9f99988" y="280.796732"/>
     <use style="fill:#1f77b4;stroke:#1f77b4;" x="161.691455" xlink:href="#m2da9f99988" y="281.486529"/>
     <use style="fill:#1f77b4;stroke:#1f77b4;" x="163.788545" xlink:href="#m2da9f99988" y="281.842199"/>
     <use style="fill:#1f77b4;stroke:#1f77b4;" x="165.885636" xlink:href="#m2da9f99988" y="282.675844"/>
     <use style="fill:#1f77b4;stroke:#1f77b4;" x="167.982727" xlink:href="#m2da9f99988" y="282.899592"/>
     <use style="fill:#1f77b4;stroke:#1f77b4;" x="170.079818" xlink:href="#m2da9f99988" y="280.9925"/>
     <use style="fill:#1f77b4;stroke:#1f77b4;" x="172.176909" xlink:href="#m2da9f99988" y="280.306201"/>
     <use style="fill:#1f77b4;stroke:#1f77b4;" x="174.274" xlink:href="#m2da9f99988" y="279.853239"/>
     <use style="fill:#1f77b4;stroke:#1f77b4;" x="176.371091" xlink:href="#m2da9f99988" y="275.576938"/>
     <use style="fill:#1f77b4;stroke:#1f77b4;" x="178.468182" xlink:href="#m2da9f99988" y="277.382115"/>
     <use style="fill:#1f77b4;stroke:#1f77b4;" x="180.565273" xlink:href="#m2da9f99988" y="275.747916"/>
     <use style="fill:#1f77b4;stroke:#1f77b4;" x="182.662364" xlink:href="#m2da9f99988" y="273.546344"/>
     <use style="fill:#1f77b4;stroke:#1f77b4;" x="184.759455" xlink:href="#m2da9f99988" y="271.847206"/>
     <use style="fill:#1f77b4;stroke:#1f77b4;" x="186.856545" xlink:href="#m2da9f99988" y="46.297876"/>
     <use style="fill:#1f77b4;stroke:#1f77b4;" x="188.953636" xlink:href="#m2da9f99988" y="269.210496"/>
     <use style="fill:#1f77b4;stroke:#1f77b4;" x="191.050727" xlink:href="#m2da9f99988" y="269.963333"/>
     <use style="fill:#1f77b4;stroke:#1f77b4;" x="193.147818" xlink:href="#m2da9f99988" y="265.294427"/>
     <use style="fill:#1f77b4;stroke:#1f77b4;" x="195.244909" xlink:href="#m2da9f99988" y="265.041471"/>
     <use style="fill:#1f77b4;stroke:#1f77b4;" x="197.342" xlink:href="#m2da9f99988" y="266.675178"/>
     <use style="fill:#1f77b4;stroke:#1f77b4;" x="199.439091" xlink:href="#m2da9f99988" y="264.189548"/>
     <use style="fill:#1f77b4;stroke:#1f77b4;" x="201.536182" xlink:href="#m2da9f99988" y="265.164142"/>
     <use style="fill:#1f77b4;stroke:#1f77b4;" x="203.633273" xlink:href="#m2da9f99988" y="264.705058"/>
     <use style="fill:#1f77b4;stroke:#1f77b4;" x="205.730364" xlink:href="#m2da9f99988" y="263.393341"/>
     <use style="fill:#1f77b4;stroke:#1f77b4;" x="207.827455" xlink:href="#m2da9f99988" y="263.737264"/>
     <use style="fill:#1f77b4;stroke:#1f77b4;" x="209.924545" xlink:href="#m2da9f99988" y="261.049209"/>
     <use style="fill:#1f77b4;stroke:#1f77b4;" x="212.021636" xlink:href="#m2da9f99988" y="260.851114"/>
     <use style="fill:#1f77b4;stroke:#1f77b4;" x="214.118727" xlink:href="#m2da9f99988" y="261.015513"/>
     <use style="fill:#1f77b4;stroke:#1f77b4;" x="216.215818" xlink:href="#m2da9f99988" y="278.768818"/>
     <use style="fill:#1f77b4;stroke:#1f77b4;" x="218.312909" xlink:href="#m2da9f99988" y="258.76696"/>
     <use style="fill:#1f77b4;stroke:#1f77b4;" x="220.41" xlink:href="#m2da9f99988" y="279.412862"/>
     <use style="fill:#1f77b4;stroke:#1f77b4;" x="222.507091" xlink:href="#m2da9f99988" y="264.065521"/>
     <use style="fill:#1f77b4;stroke:#1f77b4;" x="224.604182" xlink:href="#m2da9f99988" y="280.688203"/>
     <use style="fill:#1f77b4;stroke:#1f77b4;" x="226.701273" xlink:href="#m2da9f99988" y="265.623609"/>
     <use style="fill:#1f77b4;stroke:#1f77b4;" x="228.798364" xlink:href="#m2da9f99988" y="280.747746"/>
     <use style="fill:#1f77b4;stroke:#1f77b4;" x="230.895455" xlink:href="#m2da9f99988" y="267.327132"/>
     <use style="fill:#1f77b4;stroke:#1f77b4;" x="232.992545" xlink:href="#m2da9f99988" y="266.186923"/>
     <use style="fill:#1f77b4;stroke:#1f77b4;" x="235.089636" xlink:href="#m2da9f99988" y="267.323684"/>
     <use style="fill:#1f77b4;stroke:#1f77b4;" x="237.186727" xlink:href="#m2da9f99988" y="47.955767"/>
     <use style="fill:#1f77b4;stroke:#1f77b4;" x="239.283818" xlink:href="#m2da9f99988" y="269.130033"/>
     <use style="fill:#1f77b4;stroke:#1f77b4;" x="241.380909" xlink:href="#m2da9f99988" y="270.771635"/>
     <use style="fill:#1f77b4;stroke:#1f77b4;" x="243.478" xlink:href="#m2da9f99988" y="269.930064"/>
     <use style="fill:#1f77b4;stroke:#1f77b4;" x="245.575091" xlink:href="#m2da9f99988" y="268.711773"/>
     <use style="fill:#1f77b4;stroke:#1f77b4;" x="247.672182" xlink:href="#m2da9f99988" y="269.30858"/>
     <use style="fill:#1f77b4;stroke:#1f77b4;" x="249.769273" xlink:href="#m2da9f99988" y="273.075396"/>
     <use style="fill:#1f77b4;stroke:#1f77b4;" x="251.866364" xlink:href="#m2da9f99988" y="271.169754"/>
     <use style="fill:#1f77b4;stroke:#1f77b4;" x="253.963455" xlink:href="#m2da9f99988" y="270.681984"/>
     <use style="fill:#1f77b4;stroke:#1f77b4;" x="256.060545" xlink:href="#m2da9f99988" y="270.49169"/>
     <use style="fill:#1f77b4;stroke:#1f77b4;" x="258.157636" xlink:href="#m2da9f99988" y="272.641452"/>
     <use style="fill:#1f77b4;stroke:#1f77b4;" x="260.254727" xlink:href="#m2da9f99988" y="269.248756"/>
     <use style="fill:#1f77b4;stroke:#1f77b4;" x="262.351818" xlink:href="#m2da9f99988" y="271.337132"/>
     <use style="fill:#1f77b4;stroke:#1f77b4;" x="264.448909" xlink:href="#m2da9f99988" y="270.994715"/>
     <use style="fill:#1f77b4;stroke:#1f77b4;" x="266.546" xlink:href="#m2da9f99988" y="273.548109"/>
     <use style="fill:#1f77b4;stroke:#1f77b4;" x="268.643091" xlink:href="#m2da9f99988" y="270.815816"/>
     <use style="fill:#1f77b4;stroke:#1f77b4;" x="270.740182" xlink:href="#m2da9f99988" y="271.311089"/>
     <use style="fill:#1f77b4;stroke:#1f77b4;" x="272.837273" xlink:href="#m2da9f99988" y="271.458269"/>
     <use style="fill:#1f77b4;stroke:#1f77b4;" x="274.934364" xlink:href="#m2da9f99988" y="269.357151"/>
     <use style="fill:#1f77b4;stroke:#1f77b4;" x="277.031455" xlink:href="#m2da9f99988" y="271.051205"/>
     <use style="fill:#1f77b4;stroke:#1f77b4;" x="279.128545" xlink:href="#m2da9f99988" y="269.971146"/>
     <use style="fill:#1f77b4;stroke:#1f77b4;" x="281.225636" xlink:href="#m2da9f99988" y="271.838707"/>
     <use style="fill:#1f77b4;stroke:#1f77b4;" x="283.322727" xlink:href="#m2da9f99988" y="272.274377"/>
     <use style="fill:#1f77b4;stroke:#1f77b4;" x="285.419818" xlink:href="#m2da9f99988" y="269.484994"/>
     <use style="fill:#1f77b4;stroke:#1f77b4;" x="287.516909" xlink:href="#m2da9f99988" y="272.302901"/>
     <use style="fill:#1f77b4;stroke:#1f77b4;" x="289.614" xlink:href="#m2da9f99988" y="270.494585"/>
     <use style="fill:#1f77b4;stroke:#1f77b4;" x="291.711091" xlink:href="#m2da9f99988" y="46.4402"/>
     <use style="fill:#1f77b4;stroke:#1f77b4;" x="293.808182" xlink:href="#m2da9f99988" y="270.347273"/>
     <use style="fill:#1f77b4;stroke:#1f77b4;" x="295.905273" xlink:href="#m2da9f99988" y="272.288014"/>
     <use style="fill:#1f77b4;stroke:#1f77b4;" x="298.002364" xlink:href="#m2da9f99988" y="270.843644"/>
     <use style="fill:#1f77b4;stroke:#1f77b4;" x="300.099455" xlink:href="#m2da9f99988" y="271.954485"/>
     <use style="fill:#1f77b4;stroke:#1f77b4;" x="302.196545" xlink:href="#m2da9f99988" y="270.055853"/>
     <use style="fill:#1f77b4;stroke:#1f77b4;" x="304.293636" xlink:href="#m2da9f99988" y="272.066838"/>
     <use style="fill:#1f77b4;stroke:#1f77b4;" x="306.390727" xlink:href="#m2da9f99988" y="269.547242"/>
     <use style="fill:#1f77b4;stroke:#1f77b4;" x="308.487818" xlink:href="#m2da9f99988" y="268.402513"/>
     <use style="fill:#1f77b4;stroke:#1f77b4;" x="310.584909" xlink:href="#m2da9f99988" y="269.125231"/>
     <use style="fill:#1f77b4;stroke:#1f77b4;" x="312.682" xlink:href="#m2da9f99988" y="268.721926"/>
     <use style="fill:#1f77b4;stroke:#1f77b4;" x="314.779091" xlink:href="#m2da9f99988" y="277.46891"/>
     <use style="fill:#1f77b4;stroke:#1f77b4;" x="316.876182" xlink:href="#m2da9f99988" y="280.040366"/>
     <use style="fill:#1f77b4;stroke:#1f77b4;" x="318.973273" xlink:href="#m2da9f99988" y="277.569389"/>
     <use style="fill:#1f77b4;stroke:#1f77b4;" x="321.070364" xlink:href="#m2da9f99988" y="275.880013"/>
     <use style="fill:#1f77b4;stroke:#1f77b4;" x="323.167455" xlink:href="#m2da9f99988" y="273.163716"/>
     <use style="fill:#1f77b4;stroke:#1f77b4;" x="325.264545" xlink:href="#m2da9f99988" y="276.784772"/>
     <use style="fill:#1f77b4;stroke:#1f77b4;" x="327.361636" xlink:href="#m2da9f99988" y="270.97783"/>
     <use style="fill:#1f77b4;stroke:#1f77b4;" x="329.458727" xlink:href="#m2da9f99988" y="275.473707"/>
     <use style="fill:#1f77b4;stroke:#1f77b4;" x="331.555818" xlink:href="#m2da9f99988" y="277.3339"/>
     <use style="fill:#1f77b4;stroke:#1f77b4;" x="333.652909" xlink:href="#m2da9f99988" y="278.336097"/>
     <use style="fill:#1f77b4;stroke:#1f77b4;" x="335.75" xlink:href="#m2da9f99988" y="279.994345"/>
     <use style="fill:#1f77b4;stroke:#1f77b4;" x="337.847091" xlink:href="#m2da9f99988" y="279.762184"/>
     <use style="fill:#1f77b4;stroke:#1f77b4;" x="339.944182" xlink:href="#m2da9f99988" y="280.153093"/>
     <use style="fill:#1f77b4;stroke:#1f77b4;" x="342.041273" xlink:href="#m2da9f99988" y="280.894934"/>
     <use style="fill:#1f77b4;stroke:#1f77b4;" x="344.138364" xlink:href="#m2da9f99988" y="280.941728"/>
     <use style="fill:#1f77b4;stroke:#1f77b4;" x="346.235455" xlink:href="#m2da9f99988" y="280.839538"/>
     <use style="fill:#1f77b4;stroke:#1f77b4;" x="348.332545" xlink:href="#m2da9f99988" y="282.521848"/>
     <use style="fill:#1f77b4;stroke:#1f77b4;" x="350.429636" xlink:href="#m2da9f99988" y="282.434105"/>
     <use style="fill:#1f77b4;stroke:#1f77b4;" x="352.526727" xlink:href="#m2da9f99988" y="282.504624"/>
     <use style="fill:#1f77b4;stroke:#1f77b4;" x="354.623818" xlink:href="#m2da9f99988" y="282.194938"/>
     <use style="fill:#1f77b4;stroke:#1f77b4;" x="356.720909" xlink:href="#m2da9f99988" y="282.022309"/>
     <use style="fill:#1f77b4;stroke:#1f77b4;" x="358.818" xlink:href="#m2da9f99988" y="281.713375"/>
     <use style="fill:#1f77b4;stroke:#1f77b4;" x="360.915091" xlink:href="#m2da9f99988" y="35.794286"/>
     <use style="fill:#1f77b4;stroke:#1f77b4;" x="363.012182" xlink:href="#m2da9f99988" y="283.238641"/>
     <use style="fill:#1f77b4;stroke:#1f77b4;" x="365.109273" xlink:href="#m2da9f99988" y="283.199983"/>
     <use style="fill:#1f77b4;stroke:#1f77b4;" x="367.206364" xlink:href="#m2da9f99988" y="283.398253"/>
     <use style="fill:#1f77b4;stroke:#1f77b4;" x="369.303455" xlink:href="#m2da9f99988" y="283.058599"/>
     <use style="fill:#1f77b4;stroke:#1f77b4;" x="371.400545" xlink:href="#m2da9f99988" y="281.081985"/>
     <use style="fill:#1f77b4;stroke:#1f77b4;" x="373.497636" xlink:href="#m2da9f99988" y="280.447454"/>
     <use style="fill:#1f77b4;stroke:#1f77b4;" x="375.594727" xlink:href="#m2da9f99988" y="280.880253"/>
     <use style="fill:#1f77b4;stroke:#1f77b4;" x="377.691818" xlink:href="#m2da9f99988" y="280.106027"/>
    </g>
   </g>
   <g id="PathCollection_2">
    <defs>
     <path d="M 0 3 
C 0.795609 3 1.55874 2.683901 2.12132 2.12132 
C 2.683901 1.55874 3 0.795609 3 0 
C 3 -0.795609 2.683901 -1.55874 2.12132 -2.12132 
C 1.55874 -2.683901 0.795609 -3 0 -3 
C -0.795609 -3 -1.55874 -2.683901 -2.12132 -2.12132 
C -2.683901 -1.55874 -3 -0.795609 -3 0 
C -3 0.795609 -2.683901 1.55874 -2.12132 2.12132 
C -1.55874 2.683901 -0.795609 3 0 3 
z
" id="m507095a530" style="stroke:#ff7f0e;"/>
    </defs>
    <g clip-path="url(#pfebdbad22e)">
     <use style="fill:#ff7f0e;stroke:#ff7f0e;" x="63.128182" xlink:href="#m507095a530" y="283.534692"/>
     <use style="fill:#ff7f0e;stroke:#ff7f0e;" x="65.225273" xlink:href="#m507095a530" y="283.106384"/>
     <use style="fill:#ff7f0e;stroke:#ff7f0e;" x="67.322364" xlink:href="#m507095a530" y="283.328748"/>
     <use style="fill:#ff7f0e;stroke:#ff7f0e;" x="69.419455" xlink:href="#m507095a530" y="283.267508"/>
     <use style="fill:#ff7f0e;stroke:#ff7f0e;" x="71.516545" xlink:href="#m507095a530" y="283.436566"/>
     <use style="fill:#ff7f0e;stroke:#ff7f0e;" x="73.613636" xlink:href="#m507095a530" y="283.149061"/>
     <use style="fill:#ff7f0e;stroke:#ff7f0e;" x="75.710727" xlink:href="#m507095a530" y="283.110741"/>
     <use style="fill:#ff7f0e;stroke:#ff7f0e;" x="77.807818" xlink:href="#m507095a530" y="283.242288"/>
     <use style="fill:#ff7f0e;stroke:#ff7f0e;" x="79.904909" xlink:href="#m507095a530" y="283.038785"/>
     <use style="fill:#ff7f0e;stroke:#ff7f0e;" x="82.002" xlink:href="#m507095a530" y="283.203632"/>
     <use style="fill:#ff7f0e;stroke:#ff7f0e;" x="84.099091" xlink:href="#m507095a530" y="282.544897"/>
     <use style="fill:#ff7f0e;stroke:#ff7f0e;" x="86.196182" xlink:href="#m507095a530" y="282.370688"/>
     <use style="fill:#ff7f0e;stroke:#ff7f0e;" x="88.293273" xlink:href="#m507095a530" y="282.30139"/>
     <use style="fill:#ff7f0e;stroke:#ff7f0e;" x="90.390364" xlink:href="#m507095a530" y="281.129505"/>
     <use style="fill:#ff7f0e;stroke:#ff7f0e;" x="92.487455" xlink:href="#m507095a530" y="282.027129"/>
     <use style="fill:#ff7f0e;stroke:#ff7f0e;" x="94.584545" xlink:href="#m507095a530" y="281.302937"/>
     <use style="fill:#ff7f0e;stroke:#ff7f0e;" x="96.681636" xlink:href="#m507095a530" y="281.837707"/>
     <use style="fill:#ff7f0e;stroke:#ff7f0e;" x="98.778727" xlink:href="#m507095a530" y="282.563584"/>
     <use style="fill:#ff7f0e;stroke:#ff7f0e;" x="100.875818" xlink:href="#m507095a530" y="281.870462"/>
     <use style="fill:#ff7f0e;stroke:#ff7f0e;" x="102.972909" xlink:href="#m507095a530" y="282.530409"/>
     <use style="fill:#ff7f0e;stroke:#ff7f0e;" x="105.07" xlink:href="#m507095a530" y="282.645669"/>
     <use style="fill:#ff7f0e;stroke:#ff7f0e;" x="107.167091" xlink:href="#m507095a530" y="283.194961"/>
     <use style="fill:#ff7f0e;stroke:#ff7f0e;" x="109.264182" xlink:href="#m507095a530" y="282.850142"/>
     <use style="fill:#ff7f0e;stroke:#ff7f0e;" x="111.361273" xlink:href="#m507095a530" y="283.331826"/>
     <use style="fill:#ff7f0e;stroke:#ff7f0e;" x="113.458364" xlink:href="#m507095a530" y="283.166215"/>
     <use style="fill:#ff7f0e;stroke:#ff7f0e;" x="115.555455" xlink:href="#m507095a530" y="283.402414"/>
     <use style="fill:#ff7f0e;stroke:#ff7f0e;" x="117.652545" xlink:href="#m507095a530" y="283.479604"/>
     <use style="fill:#ff7f0e;stroke:#ff7f0e;" x="119.749636" xlink:href="#m507095a530" y="283.704009"/>
     <use style="fill:#ff7f0e;stroke:#ff7f0e;" x="121.846727" xlink:href="#m507095a530" y="283.687988"/>
     <use style="fill:#ff7f0e;stroke:#ff7f0e;" x="123.943818" xlink:href="#m507095a530" y="283.949588"/>
     <use style="fill:#ff7f0e;stroke:#ff7f0e;" x="126.040909" xlink:href="#m507095a530" y="284.27376"/>
     <use style="fill:#ff7f0e;stroke:#ff7f0e;" x="128.138" xlink:href="#m507095a530" y="284.486523"/>
     <use style="fill:#ff7f0e;stroke:#ff7f0e;" x="130.235091" xlink:href="#m507095a530" y="284.909397"/>
     <use style="fill:#ff7f0e;stroke:#ff7f0e;" x="132.332182" xlink:href="#m507095a530" y="284.491183"/>
     <use style="fill:#ff7f0e;stroke:#ff7f0e;" x="134.429273" xlink:href="#m507095a530" y="285.560101"/>
     <use style="fill:#ff7f0e;stroke:#ff7f0e;" x="136.526364" xlink:href="#m507095a530" y="285.334318"/>
     <use style="fill:#ff7f0e;stroke:#ff7f0e;" x="138.623455" xlink:href="#m507095a530" y="285.500646"/>
     <use style="fill:#ff7f0e;stroke:#ff7f0e;" x="140.720545" xlink:href="#m507095a530" y="285.622189"/>
     <use style="fill:#ff7f0e;stroke:#ff7f0e;" x="142.817636" xlink:href="#m507095a530" y="286.384705"/>
     <use style="fill:#ff7f0e;stroke:#ff7f0e;" x="144.914727" xlink:href="#m507095a530" y="285.819175"/>
     <use style="fill:#ff7f0e;stroke:#ff7f0e;" x="147.011818" xlink:href="#m507095a530" y="285.544119"/>
     <use style="fill:#ff7f0e;stroke:#ff7f0e;" x="149.108909" xlink:href="#m507095a530" y="286.93835"/>
     <use style="fill:#ff7f0e;stroke:#ff7f0e;" x="151.206" xlink:href="#m507095a530" y="286.366264"/>
     <use style="fill:#ff7f0e;stroke:#ff7f0e;" x="153.303091" xlink:href="#m507095a530" y="286.869486"/>
     <use style="fill:#ff7f0e;stroke:#ff7f0e;" x="155.400182" xlink:href="#m507095a530" y="286.374047"/>
     <use style="fill:#ff7f0e;stroke:#ff7f0e;" x="157.497273" xlink:href="#m507095a530" y="286.406095"/>
     <use style="fill:#ff7f0e;stroke:#ff7f0e;" x="159.594364" xlink:href="#m507095a530" y="285.990854"/>
     <use style="fill:#ff7f0e;stroke:#ff7f0e;" x="161.691455" xlink:href="#m507095a530" y="285.321366"/>
     <use style="fill:#ff7f0e;stroke:#ff7f0e;" x="163.788545" xlink:href="#m507095a530" y="284.250132"/>
     <use style="fill:#ff7f0e;stroke:#ff7f0e;" x="165.885636" xlink:href="#m507095a530" y="283.157739"/>
     <use style="fill:#ff7f0e;stroke:#ff7f0e;" x="167.982727" xlink:href="#m507095a530" y="281.413931"/>
     <use style="fill:#ff7f0e;stroke:#ff7f0e;" x="170.079818" xlink:href="#m507095a530" y="280.20338"/>
     <use style="fill:#ff7f0e;stroke:#ff7f0e;" x="172.176909" xlink:href="#m507095a530" y="278.204601"/>
     <use style="fill:#ff7f0e;stroke:#ff7f0e;" x="174.274" xlink:href="#m507095a530" y="276.878054"/>
     <use style="fill:#ff7f0e;stroke:#ff7f0e;" x="176.371091" xlink:href="#m507095a530" y="273.428716"/>
     <use style="fill:#ff7f0e;stroke:#ff7f0e;" x="178.468182" xlink:href="#m507095a530" y="273.227712"/>
     <use style="fill:#ff7f0e;stroke:#ff7f0e;" x="180.565273" xlink:href="#m507095a530" y="271.691852"/>
     <use style="fill:#ff7f0e;stroke:#ff7f0e;" x="182.662364" xlink:href="#m507095a530" y="269.595892"/>
     <use style="fill:#ff7f0e;stroke:#ff7f0e;" x="184.759455" xlink:href="#m507095a530" y="268.077047"/>
     <use style="fill:#ff7f0e;stroke:#ff7f0e;" x="186.856545" xlink:href="#m507095a530" y="266.536815"/>
     <use style="fill:#ff7f0e;stroke:#ff7f0e;" x="188.953636" xlink:href="#m507095a530" y="261.510622"/>
     <use style="fill:#ff7f0e;stroke:#ff7f0e;" x="191.050727" xlink:href="#m507095a530" y="263.046837"/>
     <use style="fill:#ff7f0e;stroke:#ff7f0e;" x="193.147818" xlink:href="#m507095a530" y="262.899803"/>
     <use style="fill:#ff7f0e;stroke:#ff7f0e;" x="195.244909" xlink:href="#m507095a530" y="260.558953"/>
     <use style="fill:#ff7f0e;stroke:#ff7f0e;" x="197.342" xlink:href="#m507095a530" y="260.503337"/>
     <use style="fill:#ff7f0e;stroke:#ff7f0e;" x="199.439091" xlink:href="#m507095a530" y="254.779068"/>
     <use style="fill:#ff7f0e;stroke:#ff7f0e;" x="201.536182" xlink:href="#m507095a530" y="259.542624"/>
     <use style="fill:#ff7f0e;stroke:#ff7f0e;" x="203.633273" xlink:href="#m507095a530" y="257.771701"/>
     <use style="fill:#ff7f0e;stroke:#ff7f0e;" x="205.730364" xlink:href="#m507095a530" y="262.123368"/>
     <use style="fill:#ff7f0e;stroke:#ff7f0e;" x="207.827455" xlink:href="#m507095a530" y="253.127044"/>
     <use style="fill:#ff7f0e;stroke:#ff7f0e;" x="209.924545" xlink:href="#m507095a530" y="256.413313"/>
     <use style="fill:#ff7f0e;stroke:#ff7f0e;" x="212.021636" xlink:href="#m507095a530" y="251.478575"/>
     <use style="fill:#ff7f0e;stroke:#ff7f0e;" x="214.118727" xlink:href="#m507095a530" y="257.024304"/>
     <use style="fill:#ff7f0e;stroke:#ff7f0e;" x="216.215818" xlink:href="#m507095a530" y="256.772598"/>
     <use style="fill:#ff7f0e;stroke:#ff7f0e;" x="218.312909" xlink:href="#m507095a530" y="258.206368"/>
     <use style="fill:#ff7f0e;stroke:#ff7f0e;" x="220.41" xlink:href="#m507095a530" y="258.260238"/>
     <use style="fill:#ff7f0e;stroke:#ff7f0e;" x="222.507091" xlink:href="#m507095a530" y="259.286897"/>
     <use style="fill:#ff7f0e;stroke:#ff7f0e;" x="224.604182" xlink:href="#m507095a530" y="255.748635"/>
     <use style="fill:#ff7f0e;stroke:#ff7f0e;" x="226.701273" xlink:href="#m507095a530" y="262.016312"/>
     <use style="fill:#ff7f0e;stroke:#ff7f0e;" x="228.798364" xlink:href="#m507095a530" y="261.744075"/>
     <use style="fill:#ff7f0e;stroke:#ff7f0e;" x="230.895455" xlink:href="#m507095a530" y="263.307635"/>
     <use style="fill:#ff7f0e;stroke:#ff7f0e;" x="232.992545" xlink:href="#m507095a530" y="263.316555"/>
     <use style="fill:#ff7f0e;stroke:#ff7f0e;" x="235.089636" xlink:href="#m507095a530" y="259.626776"/>
     <use style="fill:#ff7f0e;stroke:#ff7f0e;" x="237.186727" xlink:href="#m507095a530" y="264.422954"/>
     <use style="fill:#ff7f0e;stroke:#ff7f0e;" x="239.283818" xlink:href="#m507095a530" y="265.066423"/>
     <use style="fill:#ff7f0e;stroke:#ff7f0e;" x="241.380909" xlink:href="#m507095a530" y="265.016807"/>
     <use style="fill:#ff7f0e;stroke:#ff7f0e;" x="243.478" xlink:href="#m507095a530" y="265.449619"/>
     <use style="fill:#ff7f0e;stroke:#ff7f0e;" x="245.575091" xlink:href="#m507095a530" y="266.713307"/>
     <use style="fill:#ff7f0e;stroke:#ff7f0e;" x="247.672182" xlink:href="#m507095a530" y="264.45711"/>
     <use style="fill:#ff7f0e;stroke:#ff7f0e;" x="249.769273" xlink:href="#m507095a530" y="266.342509"/>
     <use style="fill:#ff7f0e;stroke:#ff7f0e;" x="251.866364" xlink:href="#m507095a530" y="264.585313"/>
     <use style="fill:#ff7f0e;stroke:#ff7f0e;" x="253.963455" xlink:href="#m507095a530" y="267.602815"/>
     <use style="fill:#ff7f0e;stroke:#ff7f0e;" x="256.060545" xlink:href="#m507095a530" y="267.680691"/>
     <use style="fill:#ff7f0e;stroke:#ff7f0e;" x="258.157636" xlink:href="#m507095a530" y="264.972057"/>
     <use style="fill:#ff7f0e;stroke:#ff7f0e;" x="260.254727" xlink:href="#m507095a530" y="268.513788"/>
     <use style="fill:#ff7f0e;stroke:#ff7f0e;" x="262.351818" xlink:href="#m507095a530" y="268.313769"/>
     <use style="fill:#ff7f0e;stroke:#ff7f0e;" x="264.448909" xlink:href="#m507095a530" y="268.474321"/>
     <use style="fill:#ff7f0e;stroke:#ff7f0e;" x="266.546" xlink:href="#m507095a530" y="267.849097"/>
     <use style="fill:#ff7f0e;stroke:#ff7f0e;" x="268.643091" xlink:href="#m507095a530" y="268.117766"/>
     <use style="fill:#ff7f0e;stroke:#ff7f0e;" x="270.740182" xlink:href="#m507095a530" y="264.831301"/>
     <use style="fill:#ff7f0e;stroke:#ff7f0e;" x="272.837273" xlink:href="#m507095a530" y="267.636297"/>
     <use style="fill:#ff7f0e;stroke:#ff7f0e;" x="274.934364" xlink:href="#m507095a530" y="268.033224"/>
     <use style="fill:#ff7f0e;stroke:#ff7f0e;" x="277.031455" xlink:href="#m507095a530" y="268.086049"/>
     <use style="fill:#ff7f0e;stroke:#ff7f0e;" x="279.128545" xlink:href="#m507095a530" y="267.911519"/>
     <use style="fill:#ff7f0e;stroke:#ff7f0e;" x="281.225636" xlink:href="#m507095a530" y="264.736403"/>
     <use style="fill:#ff7f0e;stroke:#ff7f0e;" x="283.322727" xlink:href="#m507095a530" y="268.943865"/>
     <use style="fill:#ff7f0e;stroke:#ff7f0e;" x="285.419818" xlink:href="#m507095a530" y="268.460718"/>
     <use style="fill:#ff7f0e;stroke:#ff7f0e;" x="287.516909" xlink:href="#m507095a530" y="269.02439"/>
     <use style="fill:#ff7f0e;stroke:#ff7f0e;" x="289.614" xlink:href="#m507095a530" y="269.168579"/>
     <use style="fill:#ff7f0e;stroke:#ff7f0e;" x="291.711091" xlink:href="#m507095a530" y="270.203739"/>
     <use style="fill:#ff7f0e;stroke:#ff7f0e;" x="293.808182" xlink:href="#m507095a530" y="265.595904"/>
     <use style="fill:#ff7f0e;stroke:#ff7f0e;" x="295.905273" xlink:href="#m507095a530" y="268.870693"/>
     <use style="fill:#ff7f0e;stroke:#ff7f0e;" x="298.002364" xlink:href="#m507095a530" y="269.081259"/>
     <use style="fill:#ff7f0e;stroke:#ff7f0e;" x="300.099455" xlink:href="#m507095a530" y="268.143156"/>
     <use style="fill:#ff7f0e;stroke:#ff7f0e;" x="302.196545" xlink:href="#m507095a530" y="268.136834"/>
     <use style="fill:#ff7f0e;stroke:#ff7f0e;" x="304.293636" xlink:href="#m507095a530" y="266.705735"/>
     <use style="fill:#ff7f0e;stroke:#ff7f0e;" x="306.390727" xlink:href="#m507095a530" y="263.717132"/>
     <use style="fill:#ff7f0e;stroke:#ff7f0e;" x="308.487818" xlink:href="#m507095a530" y="266.972076"/>
     <use style="fill:#ff7f0e;stroke:#ff7f0e;" x="310.584909" xlink:href="#m507095a530" y="267.229129"/>
     <use style="fill:#ff7f0e;stroke:#ff7f0e;" x="312.682" xlink:href="#m507095a530" y="267.997458"/>
     <use style="fill:#ff7f0e;stroke:#ff7f0e;" x="314.779091" xlink:href="#m507095a530" y="269.078353"/>
     <use style="fill:#ff7f0e;stroke:#ff7f0e;" x="316.876182" xlink:href="#m507095a530" y="267.583182"/>
     <use style="fill:#ff7f0e;stroke:#ff7f0e;" x="318.973273" xlink:href="#m507095a530" y="271.474548"/>
     <use style="fill:#ff7f0e;stroke:#ff7f0e;" x="321.070364" xlink:href="#m507095a530" y="271.969039"/>
     <use style="fill:#ff7f0e;stroke:#ff7f0e;" x="323.167455" xlink:href="#m507095a530" y="273.096417"/>
     <use style="fill:#ff7f0e;stroke:#ff7f0e;" x="325.264545" xlink:href="#m507095a530" y="274.248026"/>
     <use style="fill:#ff7f0e;stroke:#ff7f0e;" x="327.361636" xlink:href="#m507095a530" y="276.85397"/>
     <use style="fill:#ff7f0e;stroke:#ff7f0e;" x="329.458727" xlink:href="#m507095a530" y="273.349229"/>
     <use style="fill:#ff7f0e;stroke:#ff7f0e;" x="331.555818" xlink:href="#m507095a530" y="277.466853"/>
     <use style="fill:#ff7f0e;stroke:#ff7f0e;" x="333.652909" xlink:href="#m507095a530" y="278.600274"/>
     <use style="fill:#ff7f0e;stroke:#ff7f0e;" x="335.75" xlink:href="#m507095a530" y="279.513149"/>
     <use style="fill:#ff7f0e;stroke:#ff7f0e;" x="337.847091" xlink:href="#m507095a530" y="279.318143"/>
     <use style="fill:#ff7f0e;stroke:#ff7f0e;" x="339.944182" xlink:href="#m507095a530" y="279.740683"/>
     <use style="fill:#ff7f0e;stroke:#ff7f0e;" x="342.041273" xlink:href="#m507095a530" y="281.157088"/>
     <use style="fill:#ff7f0e;stroke:#ff7f0e;" x="344.138364" xlink:href="#m507095a530" y="280.95069"/>
     <use style="fill:#ff7f0e;stroke:#ff7f0e;" x="346.235455" xlink:href="#m507095a530" y="281.774726"/>
     <use style="fill:#ff7f0e;stroke:#ff7f0e;" x="348.332545" xlink:href="#m507095a530" y="281.548861"/>
     <use style="fill:#ff7f0e;stroke:#ff7f0e;" x="350.429636" xlink:href="#m507095a530" y="282.001732"/>
     <use style="fill:#ff7f0e;stroke:#ff7f0e;" x="352.526727" xlink:href="#m507095a530" y="281.675089"/>
     <use style="fill:#ff7f0e;stroke:#ff7f0e;" x="354.623818" xlink:href="#m507095a530" y="282.266382"/>
     <use style="fill:#ff7f0e;stroke:#ff7f0e;" x="356.720909" xlink:href="#m507095a530" y="282.48639"/>
     <use style="fill:#ff7f0e;stroke:#ff7f0e;" x="358.818" xlink:href="#m507095a530" y="283.046566"/>
     <use style="fill:#ff7f0e;stroke:#ff7f0e;" x="360.915091" xlink:href="#m507095a530" y="283.764449"/>
     <use style="fill:#ff7f0e;stroke:#ff7f0e;" x="363.012182" xlink:href="#m507095a530" y="283.832106"/>
     <use style="fill:#ff7f0e;stroke:#ff7f0e;" x="365.109273" xlink:href="#m507095a530" y="284.617471"/>
     <use style="fill:#ff7f0e;stroke:#ff7f0e;" x="367.206364" xlink:href="#m507095a530" y="285.636782"/>
     <use style="fill:#ff7f0e;stroke:#ff7f0e;" x="369.303455" xlink:href="#m507095a530" y="286.797764"/>
     <use style="fill:#ff7f0e;stroke:#ff7f0e;" x="371.400545" xlink:href="#m507095a530" y="287.551524"/>
     <use style="fill:#ff7f0e;stroke:#ff7f0e;" x="373.497636" xlink:href="#m507095a530" y="288.873186"/>
     <use style="fill:#ff7f0e;stroke:#ff7f0e;" x="375.594727" xlink:href="#m507095a530" y="290.88"/>
     <use style="fill:#ff7f0e;stroke:#ff7f0e;" x="377.691818" xlink:href="#m507095a530" y="290.230398"/>
    </g>
   </g>
   <g id="matplotlib.axis_1">
    <g id="xtick_1">
     <g id="line2d_1">
      <defs>
       <path d="M 0 0 
L 0 3.5 
" id="m53e37e9f50" style="stroke:#000000;stroke-width:0.8;"/>
      </defs>
      <g>
       <use style="stroke:#000000;stroke-width:0.8;" x="63.128182" xlink:href="#m53e37e9f50" y="303.634286"/>
      </g>
     </g>
     <g id="text_1">
      <!-- 0 -->
      <defs>
       <path d="M 31.78125 66.40625 
Q 24.171875 66.40625 20.328125 58.90625 
Q 16.5 51.421875 16.5 36.375 
Q 16.5 21.390625 20.328125 13.890625 
Q 24.171875 6.390625 31.78125 6.390625 
Q 39.453125 6.390625 43.28125 13.890625 
Q 47.125 21.390625 47.125 36.375 
Q 47.125 51.421875 43.28125 58.90625 
Q 39.453125 66.40625 31.78125 66.40625 
z
M 31.78125 74.21875 
Q 44.046875 74.21875 50.515625 64.515625 
Q 56.984375 54.828125 56.984375 36.375 
Q 56.984375 17.96875 50.515625 8.265625 
Q 44.046875 -1.421875 31.78125 -1.421875 
Q 19.53125 -1.421875 13.0625 8.265625 
Q 6.59375 17.96875 6.59375 36.375 
Q 6.59375 54.828125 13.0625 64.515625 
Q 19.53125 74.21875 31.78125 74.21875 
z
" id="DejaVuSans-48"/>
      </defs>
      <g transform="translate(58.356307 322.031942)scale(0.15 -0.15)">
       <use xlink:href="#DejaVuSans-48"/>
      </g>
     </g>
    </g>
    <g id="xtick_2">
     <g id="line2d_2">
      <g>
       <use style="stroke:#000000;stroke-width:0.8;" x="127.531366" xlink:href="#m53e37e9f50" y="303.634286"/>
      </g>
     </g>
     <g id="text_2">
      <!-- 2 -->
      <defs>
       <path d="M 19.1875 8.296875 
L 53.609375 8.296875 
L 53.609375 0 
L 7.328125 0 
L 7.328125 8.296875 
Q 12.9375 14.109375 22.625 23.890625 
Q 32.328125 33.6875 34.8125 36.53125 
Q 39.546875 41.84375 41.421875 45.53125 
Q 43.3125 49.21875 43.3125 52.78125 
Q 43.3125 58.59375 39.234375 62.25 
Q 35.15625 65.921875 28.609375 65.921875 
Q 23.96875 65.921875 18.8125 64.3125 
Q 13.671875 62.703125 7.8125 59.421875 
L 7.8125 69.390625 
Q 13.765625 71.78125 18.9375 73 
Q 24.125 74.21875 28.421875 74.21875 
Q 39.75 74.21875 46.484375 68.546875 
Q 53.21875 62.890625 53.21875 53.421875 
Q 53.21875 48.921875 51.53125 44.890625 
Q 49.859375 40.875 45.40625 35.40625 
Q 44.1875 33.984375 37.640625 27.21875 
Q 31.109375 20.453125 19.1875 8.296875 
z
" id="DejaVuSans-50"/>
      </defs>
      <g transform="translate(122.759491 322.031942)scale(0.15 -0.15)">
       <use xlink:href="#DejaVuSans-50"/>
      </g>
     </g>
    </g>
    <g id="xtick_3">
     <g id="line2d_3">
      <g>
       <use style="stroke:#000000;stroke-width:0.8;" x="191.934549" xlink:href="#m53e37e9f50" y="303.634286"/>
      </g>
     </g>
     <g id="text_3">
      <!-- 4 -->
      <defs>
       <path d="M 37.796875 64.3125 
L 12.890625 25.390625 
L 37.796875 25.390625 
z
M 35.203125 72.90625 
L 47.609375 72.90625 
L 47.609375 25.390625 
L 58.015625 25.390625 
L 58.015625 17.1875 
L 47.609375 17.1875 
L 47.609375 0 
L 37.796875 0 
L 37.796875 17.1875 
L 4.890625 17.1875 
L 4.890625 26.703125 
z
" id="DejaVuSans-52"/>
      </defs>
      <g transform="translate(187.162674 322.031942)scale(0.15 -0.15)">
       <use xlink:href="#DejaVuSans-52"/>
      </g>
     </g>
    </g>
    <g id="xtick_4">
     <g id="line2d_4">
      <g>
       <use style="stroke:#000000;stroke-width:0.8;" x="256.337733" xlink:href="#m53e37e9f50" y="303.634286"/>
      </g>
     </g>
     <g id="text_4">
      <!-- 6 -->
      <defs>
       <path d="M 33.015625 40.375 
Q 26.375 40.375 22.484375 35.828125 
Q 18.609375 31.296875 18.609375 23.390625 
Q 18.609375 15.53125 22.484375 10.953125 
Q 26.375 6.390625 33.015625 6.390625 
Q 39.65625 6.390625 43.53125 10.953125 
Q 47.40625 15.53125 47.40625 23.390625 
Q 47.40625 31.296875 43.53125 35.828125 
Q 39.65625 40.375 33.015625 40.375 
z
M 52.59375 71.296875 
L 52.59375 62.3125 
Q 48.875 64.0625 45.09375 64.984375 
Q 41.3125 65.921875 37.59375 65.921875 
Q 27.828125 65.921875 22.671875 59.328125 
Q 17.53125 52.734375 16.796875 39.40625 
Q 19.671875 43.65625 24.015625 45.921875 
Q 28.375 48.1875 33.59375 48.1875 
Q 44.578125 48.1875 50.953125 41.515625 
Q 57.328125 34.859375 57.328125 23.390625 
Q 57.328125 12.15625 50.6875 5.359375 
Q 44.046875 -1.421875 33.015625 -1.421875 
Q 20.359375 -1.421875 13.671875 8.265625 
Q 6.984375 17.96875 6.984375 36.375 
Q 6.984375 53.65625 15.1875 63.9375 
Q 23.390625 74.21875 37.203125 74.21875 
Q 40.921875 74.21875 44.703125 73.484375 
Q 48.484375 72.75 52.59375 71.296875 
z
" id="DejaVuSans-54"/>
      </defs>
      <g transform="translate(251.565858 322.031942)scale(0.15 -0.15)">
       <use xlink:href="#DejaVuSans-54"/>
      </g>
     </g>
    </g>
    <g id="xtick_5">
     <g id="line2d_5">
      <g>
       <use style="stroke:#000000;stroke-width:0.8;" x="320.740917" xlink:href="#m53e37e9f50" y="303.634286"/>
      </g>
     </g>
     <g id="text_5">
      <!-- 8 -->
      <defs>
       <path d="M 31.78125 34.625 
Q 24.75 34.625 20.71875 30.859375 
Q 16.703125 27.09375 16.703125 20.515625 
Q 16.703125 13.921875 20.71875 10.15625 
Q 24.75 6.390625 31.78125 6.390625 
Q 38.8125 6.390625 42.859375 10.171875 
Q 46.921875 13.96875 46.921875 20.515625 
Q 46.921875 27.09375 42.890625 30.859375 
Q 38.875 34.625 31.78125 34.625 
z
M 21.921875 38.8125 
Q 15.578125 40.375 12.03125 44.71875 
Q 8.5 49.078125 8.5 55.328125 
Q 8.5 64.0625 14.71875 69.140625 
Q 20.953125 74.21875 31.78125 74.21875 
Q 42.671875 74.21875 48.875 69.140625 
Q 55.078125 64.0625 55.078125 55.328125 
Q 55.078125 49.078125 51.53125 44.71875 
Q 48 40.375 41.703125 38.8125 
Q 48.828125 37.15625 52.796875 32.3125 
Q 56.78125 27.484375 56.78125 20.515625 
Q 56.78125 9.90625 50.3125 4.234375 
Q 43.84375 -1.421875 31.78125 -1.421875 
Q 19.734375 -1.421875 13.25 4.234375 
Q 6.78125 9.90625 6.78125 20.515625 
Q 6.78125 27.484375 10.78125 32.3125 
Q 14.796875 37.15625 21.921875 38.8125 
z
M 18.3125 54.390625 
Q 18.3125 48.734375 21.84375 45.5625 
Q 25.390625 42.390625 31.78125 42.390625 
Q 38.140625 42.390625 41.71875 45.5625 
Q 45.3125 48.734375 45.3125 54.390625 
Q 45.3125 60.0625 41.71875 63.234375 
Q 38.140625 66.40625 31.78125 66.40625 
Q 25.390625 66.40625 21.84375 63.234375 
Q 18.3125 60.0625 18.3125 54.390625 
z
" id="DejaVuSans-56"/>
      </defs>
      <g transform="translate(315.969042 322.031942)scale(0.15 -0.15)">
       <use xlink:href="#DejaVuSans-56"/>
      </g>
     </g>
    </g>
    <g id="xtick_6">
     <g id="line2d_6">
      <g>
       <use style="stroke:#000000;stroke-width:0.8;" x="385.144101" xlink:href="#m53e37e9f50" y="303.634286"/>
      </g>
     </g>
     <g id="text_6">
      <!-- 10 -->
      <defs>
       <path d="M 12.40625 8.296875 
L 28.515625 8.296875 
L 28.515625 63.921875 
L 10.984375 60.40625 
L 10.984375 69.390625 
L 28.421875 72.90625 
L 38.28125 72.90625 
L 38.28125 8.296875 
L 54.390625 8.296875 
L 54.390625 0 
L 12.40625 0 
z
" id="DejaVuSans-49"/>
      </defs>
      <g transform="translate(375.600351 322.031942)scale(0.15 -0.15)">
       <use xlink:href="#DejaVuSans-49"/>
       <use x="63.623047" xlink:href="#DejaVuSans-48"/>
      </g>
     </g>
    </g>
    <g id="text_7">
     <!-- time [s] -->
     <defs>
      <path d="M 18.3125 70.21875 
L 18.3125 54.6875 
L 36.8125 54.6875 
L 36.8125 47.703125 
L 18.3125 47.703125 
L 18.3125 18.015625 
Q 18.3125 11.328125 20.140625 9.421875 
Q 21.96875 7.515625 27.59375 7.515625 
L 36.8125 7.515625 
L 36.8125 0 
L 27.59375 0 
Q 17.1875 0 13.234375 3.875 
Q 9.28125 7.765625 9.28125 18.015625 
L 9.28125 47.703125 
L 2.6875 47.703125 
L 2.6875 54.6875 
L 9.28125 54.6875 
L 9.28125 70.21875 
z
" id="DejaVuSans-116"/>
      <path d="M 9.421875 54.6875 
L 18.40625 54.6875 
L 18.40625 0 
L 9.421875 0 
z
M 9.421875 75.984375 
L 18.40625 75.984375 
L 18.40625 64.59375 
L 9.421875 64.59375 
z
" id="DejaVuSans-105"/>
      <path d="M 52 44.1875 
Q 55.375 50.25 60.0625 53.125 
Q 64.75 56 71.09375 56 
Q 79.640625 56 84.28125 50.015625 
Q 88.921875 44.046875 88.921875 33.015625 
L 88.921875 0 
L 79.890625 0 
L 79.890625 32.71875 
Q 79.890625 40.578125 77.09375 44.375 
Q 74.3125 48.1875 68.609375 48.1875 
Q 61.625 48.1875 57.5625 43.546875 
Q 53.515625 38.921875 53.515625 30.90625 
L 53.515625 0 
L 44.484375 0 
L 44.484375 32.71875 
Q 44.484375 40.625 41.703125 44.40625 
Q 38.921875 48.1875 33.109375 48.1875 
Q 26.21875 48.1875 22.15625 43.53125 
Q 18.109375 38.875 18.109375 30.90625 
L 18.109375 0 
L 9.078125 0 
L 9.078125 54.6875 
L 18.109375 54.6875 
L 18.109375 46.1875 
Q 21.1875 51.21875 25.484375 53.609375 
Q 29.78125 56 35.6875 56 
Q 41.65625 56 45.828125 52.96875 
Q 50 49.953125 52 44.1875 
z
" id="DejaVuSans-109"/>
      <path d="M 56.203125 29.59375 
L 56.203125 25.203125 
L 14.890625 25.203125 
Q 15.484375 15.921875 20.484375 11.0625 
Q 25.484375 6.203125 34.421875 6.203125 
Q 39.59375 6.203125 44.453125 7.46875 
Q 49.3125 8.734375 54.109375 11.28125 
L 54.109375 2.78125 
Q 49.265625 0.734375 44.1875 -0.34375 
Q 39.109375 -1.421875 33.890625 -1.421875 
Q 20.796875 -1.421875 13.15625 6.1875 
Q 5.515625 13.8125 5.515625 26.8125 
Q 5.515625 40.234375 12.765625 48.109375 
Q 20.015625 56 32.328125 56 
Q 43.359375 56 49.78125 48.890625 
Q 56.203125 41.796875 56.203125 29.59375 
z
M 47.21875 32.234375 
Q 47.125 39.59375 43.09375 43.984375 
Q 39.0625 48.390625 32.421875 48.390625 
Q 24.90625 48.390625 20.390625 44.140625 
Q 15.875 39.890625 15.1875 32.171875 
z
" id="DejaVuSans-101"/>
      <path id="DejaVuSans-32"/>
      <path d="M 8.59375 75.984375 
L 29.296875 75.984375 
L 29.296875 69 
L 17.578125 69 
L 17.578125 -6.203125 
L 29.296875 -6.203125 
L 29.296875 -13.1875 
L 8.59375 -13.1875 
z
" id="DejaVuSans-91"/>
      <path d="M 44.28125 53.078125 
L 44.28125 44.578125 
Q 40.484375 46.53125 36.375 47.5 
Q 32.28125 48.484375 27.875 48.484375 
Q 21.1875 48.484375 17.84375 46.4375 
Q 14.5 44.390625 14.5 40.28125 
Q 14.5 37.15625 16.890625 35.375 
Q 19.28125 33.59375 26.515625 31.984375 
L 29.59375 31.296875 
Q 39.15625 29.25 43.1875 25.515625 
Q 47.21875 21.78125 47.21875 15.09375 
Q 47.21875 7.46875 41.1875 3.015625 
Q 35.15625 -1.421875 24.609375 -1.421875 
Q 20.21875 -1.421875 15.453125 -0.5625 
Q 10.6875 0.296875 5.421875 2 
L 5.421875 11.28125 
Q 10.40625 8.6875 15.234375 7.390625 
Q 20.0625 6.109375 24.8125 6.109375 
Q 31.15625 6.109375 34.5625 8.28125 
Q 37.984375 10.453125 37.984375 14.40625 
Q 37.984375 18.0625 35.515625 20.015625 
Q 33.0625 21.96875 24.703125 23.78125 
L 21.578125 24.515625 
Q 13.234375 26.265625 9.515625 29.90625 
Q 5.8125 33.546875 5.8125 39.890625 
Q 5.8125 47.609375 11.28125 51.796875 
Q 16.75 56 26.8125 56 
Q 31.78125 56 36.171875 55.265625 
Q 40.578125 54.546875 44.28125 53.078125 
z
" id="DejaVuSans-115"/>
      <path d="M 30.421875 75.984375 
L 30.421875 -13.1875 
L 9.71875 -13.1875 
L 9.71875 -6.203125 
L 21.390625 -6.203125 
L 21.390625 69 
L 9.71875 69 
L 9.71875 75.984375 
z
" id="DejaVuSans-93"/>
     </defs>
     <g transform="translate(191.322891 340.549129)scale(0.15 -0.15)">
      <use xlink:href="#DejaVuSans-116"/>
      <use x="39.208984" xlink:href="#DejaVuSans-105"/>
      <use x="66.992188" xlink:href="#DejaVuSans-109"/>
      <use x="164.404297" xlink:href="#DejaVuSans-101"/>
      <use x="225.927734" xlink:href="#DejaVuSans-32"/>
      <use x="257.714844" xlink:href="#DejaVuSans-91"/>
      <use x="296.728516" xlink:href="#DejaVuSans-115"/>
      <use x="348.828125" xlink:href="#DejaVuSans-93"/>
     </g>
    </g>
   </g>
   <g id="matplotlib.axis_2">
    <g id="ytick_1">
     <g id="line2d_7">
      <defs>
       <path d="M 0 0 
L -3.5 0 
" id="m5a286b6740" style="stroke:#000000;stroke-width:0.8;"/>
      </defs>
      <g>
       <use style="stroke:#000000;stroke-width:0.8;" x="47.4" xlink:href="#m5a286b6740" y="283.446723"/>
      </g>
     </g>
     <g id="text_8">
      <!-- 0 -->
      <g transform="translate(30.85625 289.145551)scale(0.15 -0.15)">
       <use xlink:href="#DejaVuSans-48"/>
      </g>
     </g>
    </g>
    <g id="ytick_2">
     <g id="line2d_8">
      <g>
       <use style="stroke:#000000;stroke-width:0.8;" x="47.4" xlink:href="#m5a286b6740" y="232.382137"/>
      </g>
     </g>
     <g id="text_9">
      <!-- 2 -->
      <g transform="translate(30.85625 238.080965)scale(0.15 -0.15)">
       <use xlink:href="#DejaVuSans-50"/>
      </g>
     </g>
    </g>
    <g id="ytick_3">
     <g id="line2d_9">
      <g>
       <use style="stroke:#000000;stroke-width:0.8;" x="47.4" xlink:href="#m5a286b6740" y="181.317551"/>
      </g>
     </g>
     <g id="text_10">
      <!-- 4 -->
      <g transform="translate(30.85625 187.016379)scale(0.15 -0.15)">
       <use xlink:href="#DejaVuSans-52"/>
      </g>
     </g>
    </g>
    <g id="ytick_4">
     <g id="line2d_10">
      <g>
       <use style="stroke:#000000;stroke-width:0.8;" x="47.4" xlink:href="#m5a286b6740" y="130.252965"/>
      </g>
     </g>
     <g id="text_11">
      <!-- 6 -->
      <g transform="translate(30.85625 135.951793)scale(0.15 -0.15)">
       <use xlink:href="#DejaVuSans-54"/>
      </g>
     </g>
    </g>
    <g id="ytick_5">
     <g id="line2d_11">
      <g>
       <use style="stroke:#000000;stroke-width:0.8;" x="47.4" xlink:href="#m5a286b6740" y="79.188378"/>
      </g>
     </g>
     <g id="text_12">
      <!-- 8 -->
      <g transform="translate(30.85625 84.887207)scale(0.15 -0.15)">
       <use xlink:href="#DejaVuSans-56"/>
      </g>
     </g>
    </g>
    <g id="ytick_6">
     <g id="line2d_12">
      <g>
       <use style="stroke:#000000;stroke-width:0.8;" x="47.4" xlink:href="#m5a286b6740" y="28.123792"/>
      </g>
     </g>
     <g id="text_13">
      <!-- 10 -->
      <g transform="translate(21.3125 33.82262)scale(0.15 -0.15)">
       <use xlink:href="#DejaVuSans-49"/>
       <use x="63.623047" xlink:href="#DejaVuSans-48"/>
      </g>
     </g>
    </g>
    <g id="text_14">
     <!-- velocity [m/s] -->
     <defs>
      <path d="M 2.984375 54.6875 
L 12.5 54.6875 
L 29.59375 8.796875 
L 46.6875 54.6875 
L 56.203125 54.6875 
L 35.6875 0 
L 23.484375 0 
z
" id="DejaVuSans-118"/>
      <path d="M 9.421875 75.984375 
L 18.40625 75.984375 
L 18.40625 0 
L 9.421875 0 
z
" id="DejaVuSans-108"/>
      <path d="M 30.609375 48.390625 
Q 23.390625 48.390625 19.1875 42.75 
Q 14.984375 37.109375 14.984375 27.296875 
Q 14.984375 17.484375 19.15625 11.84375 
Q 23.34375 6.203125 30.609375 6.203125 
Q 37.796875 6.203125 41.984375 11.859375 
Q 46.1875 17.53125 46.1875 27.296875 
Q 46.1875 37.015625 41.984375 42.703125 
Q 37.796875 48.390625 30.609375 48.390625 
z
M 30.609375 56 
Q 42.328125 56 49.015625 48.375 
Q 55.71875 40.765625 55.71875 27.296875 
Q 55.71875 13.875 49.015625 6.21875 
Q 42.328125 -1.421875 30.609375 -1.421875 
Q 18.84375 -1.421875 12.171875 6.21875 
Q 5.515625 13.875 5.515625 27.296875 
Q 5.515625 40.765625 12.171875 48.375 
Q 18.84375 56 30.609375 56 
z
" id="DejaVuSans-111"/>
      <path d="M 48.78125 52.59375 
L 48.78125 44.1875 
Q 44.96875 46.296875 41.140625 47.34375 
Q 37.3125 48.390625 33.40625 48.390625 
Q 24.65625 48.390625 19.8125 42.84375 
Q 14.984375 37.3125 14.984375 27.296875 
Q 14.984375 17.28125 19.8125 11.734375 
Q 24.65625 6.203125 33.40625 6.203125 
Q 37.3125 6.203125 41.140625 7.25 
Q 44.96875 8.296875 48.78125 10.40625 
L 48.78125 2.09375 
Q 45.015625 0.34375 40.984375 -0.53125 
Q 36.96875 -1.421875 32.421875 -1.421875 
Q 20.0625 -1.421875 12.78125 6.34375 
Q 5.515625 14.109375 5.515625 27.296875 
Q 5.515625 40.671875 12.859375 48.328125 
Q 20.21875 56 33.015625 56 
Q 37.15625 56 41.109375 55.140625 
Q 45.0625 54.296875 48.78125 52.59375 
z
" id="DejaVuSans-99"/>
      <path d="M 32.171875 -5.078125 
Q 28.375 -14.84375 24.75 -17.8125 
Q 21.140625 -20.796875 15.09375 -20.796875 
L 7.90625 -20.796875 
L 7.90625 -13.28125 
L 13.1875 -13.28125 
Q 16.890625 -13.28125 18.9375 -11.515625 
Q 21 -9.765625 23.484375 -3.21875 
L 25.09375 0.875 
L 2.984375 54.6875 
L 12.5 54.6875 
L 29.59375 11.921875 
L 46.6875 54.6875 
L 56.203125 54.6875 
z
" id="DejaVuSans-121"/>
      <path d="M 25.390625 72.90625 
L 33.6875 72.90625 
L 8.296875 -9.28125 
L 0 -9.28125 
z
" id="DejaVuSans-47"/>
     </defs>
     <g transform="translate(14.192969 214.625424)rotate(-90)scale(0.15 -0.15)">
      <use xlink:href="#DejaVuSans-118"/>
      <use x="59.179688" xlink:href="#DejaVuSans-101"/>
      <use x="120.703125" xlink:href="#DejaVuSans-108"/>
      <use x="148.486328" xlink:href="#DejaVuSans-111"/>
      <use x="209.667969" xlink:href="#DejaVuSans-99"/>
      <use x="264.648438" xlink:href="#DejaVuSans-105"/>
      <use x="292.431641" xlink:href="#DejaVuSans-116"/>
      <use x="331.640625" xlink:href="#DejaVuSans-121"/>
      <use x="390.820312" xlink:href="#DejaVuSans-32"/>
      <use x="422.607422" xlink:href="#DejaVuSans-91"/>
      <use x="461.621094" xlink:href="#DejaVuSans-109"/>
      <use x="559.033203" xlink:href="#DejaVuSans-47"/>
      <use x="592.724609" xlink:href="#DejaVuSans-115"/>
      <use x="644.824219" xlink:href="#DejaVuSans-93"/>
     </g>
    </g>
   </g>
   <g id="patch_3">
    <path d="M 47.4 303.634286 
L 47.4 23.04 
" style="fill:none;stroke:#000000;stroke-linecap:square;stroke-linejoin:miter;stroke-width:0.8;"/>
   </g>
   <g id="patch_4">
    <path d="M 393.42 303.634286 
L 393.42 23.04 
" style="fill:none;stroke:#000000;stroke-linecap:square;stroke-linejoin:miter;stroke-width:0.8;"/>
   </g>
   <g id="patch_5">
    <path d="M 47.4 303.634286 
L 393.42 303.634286 
" style="fill:none;stroke:#000000;stroke-linecap:square;stroke-linejoin:miter;stroke-width:0.8;"/>
   </g>
   <g id="patch_6">
    <path d="M 47.4 23.04 
L 393.42 23.04 
" style="fill:none;stroke:#000000;stroke-linecap:square;stroke-linejoin:miter;stroke-width:0.8;"/>
   </g>
   <g id="text_15">
    <!-- Bag 10 -->
    <defs>
     <path d="M 19.671875 34.8125 
L 19.671875 8.109375 
L 35.5 8.109375 
Q 43.453125 8.109375 47.28125 11.40625 
Q 51.125 14.703125 51.125 21.484375 
Q 51.125 28.328125 47.28125 31.5625 
Q 43.453125 34.8125 35.5 34.8125 
z
M 19.671875 64.796875 
L 19.671875 42.828125 
L 34.28125 42.828125 
Q 41.5 42.828125 45.03125 45.53125 
Q 48.578125 48.25 48.578125 53.8125 
Q 48.578125 59.328125 45.03125 62.0625 
Q 41.5 64.796875 34.28125 64.796875 
z
M 9.8125 72.90625 
L 35.015625 72.90625 
Q 46.296875 72.90625 52.390625 68.21875 
Q 58.5 63.53125 58.5 54.890625 
Q 58.5 48.1875 55.375 44.234375 
Q 52.25 40.28125 46.1875 39.3125 
Q 53.46875 37.75 57.5 32.78125 
Q 61.53125 27.828125 61.53125 20.40625 
Q 61.53125 10.640625 54.890625 5.3125 
Q 48.25 0 35.984375 0 
L 9.8125 0 
z
" id="DejaVuSans-66"/>
     <path d="M 34.28125 27.484375 
Q 23.390625 27.484375 19.1875 25 
Q 14.984375 22.515625 14.984375 16.5 
Q 14.984375 11.71875 18.140625 8.90625 
Q 21.296875 6.109375 26.703125 6.109375 
Q 34.1875 6.109375 38.703125 11.40625 
Q 43.21875 16.703125 43.21875 25.484375 
L 43.21875 27.484375 
z
M 52.203125 31.203125 
L 52.203125 0 
L 43.21875 0 
L 43.21875 8.296875 
Q 40.140625 3.328125 35.546875 0.953125 
Q 30.953125 -1.421875 24.3125 -1.421875 
Q 15.921875 -1.421875 10.953125 3.296875 
Q 6 8.015625 6 15.921875 
Q 6 25.140625 12.171875 29.828125 
Q 18.359375 34.515625 30.609375 34.515625 
L 43.21875 34.515625 
L 43.21875 35.40625 
Q 43.21875 41.609375 39.140625 45 
Q 35.0625 48.390625 27.6875 48.390625 
Q 23 48.390625 18.546875 47.265625 
Q 14.109375 46.140625 10.015625 43.890625 
L 10.015625 52.203125 
Q 14.9375 54.109375 19.578125 55.046875 
Q 24.21875 56 28.609375 56 
Q 40.484375 56 46.34375 49.84375 
Q 52.203125 43.703125 52.203125 31.203125 
z
" id="DejaVuSans-97"/>
     <path d="M 45.40625 27.984375 
Q 45.40625 37.75 41.375 43.109375 
Q 37.359375 48.484375 30.078125 48.484375 
Q 22.859375 48.484375 18.828125 43.109375 
Q 14.796875 37.75 14.796875 27.984375 
Q 14.796875 18.265625 18.828125 12.890625 
Q 22.859375 7.515625 30.078125 7.515625 
Q 37.359375 7.515625 41.375 12.890625 
Q 45.40625 18.265625 45.40625 27.984375 
z
M 54.390625 6.78125 
Q 54.390625 -7.171875 48.1875 -13.984375 
Q 42 -20.796875 29.203125 -20.796875 
Q 24.46875 -20.796875 20.265625 -20.09375 
Q 16.0625 -19.390625 12.109375 -17.921875 
L 12.109375 -9.1875 
Q 16.0625 -11.328125 19.921875 -12.34375 
Q 23.78125 -13.375 27.78125 -13.375 
Q 36.625 -13.375 41.015625 -8.765625 
Q 45.40625 -4.15625 45.40625 5.171875 
L 45.40625 9.625 
Q 42.625 4.78125 38.28125 2.390625 
Q 33.9375 0 27.875 0 
Q 17.828125 0 11.671875 7.65625 
Q 5.515625 15.328125 5.515625 27.984375 
Q 5.515625 40.671875 11.671875 48.328125 
Q 17.828125 56 27.875 56 
Q 33.9375 56 38.28125 53.609375 
Q 42.625 51.21875 45.40625 46.390625 
L 45.40625 54.6875 
L 54.390625 54.6875 
z
" id="DejaVuSans-103"/>
    </defs>
    <g transform="translate(188.693437 17.04)scale(0.18 -0.18)">
     <use xlink:href="#DejaVuSans-66"/>
     <use x="68.603516" xlink:href="#DejaVuSans-97"/>
     <use x="129.882812" xlink:href="#DejaVuSans-103"/>
     <use x="193.359375" xlink:href="#DejaVuSans-32"/>
     <use x="225.146484" xlink:href="#DejaVuSans-49"/>
     <use x="288.769531" xlink:href="#DejaVuSans-48"/>
    </g>
   </g>
   <g id="legend_1">
    <g id="patch_7">
     <path d="M 57.9 79.074375 
L 175.450781 79.074375 
Q 178.450781 79.074375 178.450781 76.074375 
L 178.450781 33.54 
Q 178.450781 30.54 175.450781 30.54 
L 57.9 30.54 
Q 54.9 30.54 54.9 33.54 
L 54.9 76.074375 
Q 54.9 79.074375 57.9 79.074375 
z
" style="fill:#ffffff;opacity:0.8;stroke:#cccccc;stroke-linejoin:miter;"/>
    </g>
    <g id="PathCollection_3">
     <g>
      <use style="fill:#1f77b4;stroke:#1f77b4;" x="75.9" xlink:href="#m2da9f99988" y="44.000156"/>
     </g>
    </g>
    <g id="text_16">
     <!-- Radar -->
     <defs>
      <path d="M 44.390625 34.1875 
Q 47.5625 33.109375 50.5625 29.59375 
Q 53.5625 26.078125 56.59375 19.921875 
L 66.609375 0 
L 56 0 
L 46.6875 18.703125 
Q 43.0625 26.03125 39.671875 28.421875 
Q 36.28125 30.8125 30.421875 30.8125 
L 19.671875 30.8125 
L 19.671875 0 
L 9.8125 0 
L 9.8125 72.90625 
L 32.078125 72.90625 
Q 44.578125 72.90625 50.734375 67.671875 
Q 56.890625 62.453125 56.890625 51.90625 
Q 56.890625 45.015625 53.6875 40.46875 
Q 50.484375 35.9375 44.390625 34.1875 
z
M 19.671875 64.796875 
L 19.671875 38.921875 
L 32.078125 38.921875 
Q 39.203125 38.921875 42.84375 42.21875 
Q 46.484375 45.515625 46.484375 51.90625 
Q 46.484375 58.296875 42.84375 61.546875 
Q 39.203125 64.796875 32.078125 64.796875 
z
" id="DejaVuSans-82"/>
      <path d="M 45.40625 46.390625 
L 45.40625 75.984375 
L 54.390625 75.984375 
L 54.390625 0 
L 45.40625 0 
L 45.40625 8.203125 
Q 42.578125 3.328125 38.25 0.953125 
Q 33.9375 -1.421875 27.875 -1.421875 
Q 17.96875 -1.421875 11.734375 6.484375 
Q 5.515625 14.40625 5.515625 27.296875 
Q 5.515625 40.1875 11.734375 48.09375 
Q 17.96875 56 27.875 56 
Q 33.9375 56 38.25 53.625 
Q 42.578125 51.265625 45.40625 46.390625 
z
M 14.796875 27.296875 
Q 14.796875 17.390625 18.875 11.75 
Q 22.953125 6.109375 30.078125 6.109375 
Q 37.203125 6.109375 41.296875 11.75 
Q 45.40625 17.390625 45.40625 27.296875 
Q 45.40625 37.203125 41.296875 42.84375 
Q 37.203125 48.484375 30.078125 48.484375 
Q 22.953125 48.484375 18.875 42.84375 
Q 14.796875 37.203125 14.796875 27.296875 
z
" id="DejaVuSans-100"/>
      <path d="M 41.109375 46.296875 
Q 39.59375 47.171875 37.8125 47.578125 
Q 36.03125 48 33.890625 48 
Q 26.265625 48 22.1875 43.046875 
Q 18.109375 38.09375 18.109375 28.8125 
L 18.109375 0 
L 9.078125 0 
L 9.078125 54.6875 
L 18.109375 54.6875 
L 18.109375 46.1875 
Q 20.953125 51.171875 25.484375 53.578125 
Q 30.03125 56 36.53125 56 
Q 37.453125 56 38.578125 55.875 
Q 39.703125 55.765625 41.0625 55.515625 
z
" id="DejaVuSans-114"/>
     </defs>
     <g transform="translate(102.9 47.937656)scale(0.15 -0.15)">
      <use xlink:href="#DejaVuSans-82"/>
      <use x="67.232422" xlink:href="#DejaVuSans-97"/>
      <use x="128.511719" xlink:href="#DejaVuSans-100"/>
      <use x="191.988281" xlink:href="#DejaVuSans-97"/>
      <use x="253.267578" xlink:href="#DejaVuSans-114"/>
     </g>
    </g>
    <g id="PathCollection_4">
     <g>
      <use style="fill:#ff7f0e;stroke:#ff7f0e;" x="75.9" xlink:href="#m507095a530" y="66.017344"/>
     </g>
    </g>
    <g id="text_17">
     <!-- Optitrack -->
     <defs>
      <path d="M 39.40625 66.21875 
Q 28.65625 66.21875 22.328125 58.203125 
Q 16.015625 50.203125 16.015625 36.375 
Q 16.015625 22.609375 22.328125 14.59375 
Q 28.65625 6.59375 39.40625 6.59375 
Q 50.140625 6.59375 56.421875 14.59375 
Q 62.703125 22.609375 62.703125 36.375 
Q 62.703125 50.203125 56.421875 58.203125 
Q 50.140625 66.21875 39.40625 66.21875 
z
M 39.40625 74.21875 
Q 54.734375 74.21875 63.90625 63.9375 
Q 73.09375 53.65625 73.09375 36.375 
Q 73.09375 19.140625 63.90625 8.859375 
Q 54.734375 -1.421875 39.40625 -1.421875 
Q 24.03125 -1.421875 14.8125 8.828125 
Q 5.609375 19.09375 5.609375 36.375 
Q 5.609375 53.65625 14.8125 63.9375 
Q 24.03125 74.21875 39.40625 74.21875 
z
" id="DejaVuSans-79"/>
      <path d="M 18.109375 8.203125 
L 18.109375 -20.796875 
L 9.078125 -20.796875 
L 9.078125 54.6875 
L 18.109375 54.6875 
L 18.109375 46.390625 
Q 20.953125 51.265625 25.265625 53.625 
Q 29.59375 56 35.59375 56 
Q 45.5625 56 51.78125 48.09375 
Q 58.015625 40.1875 58.015625 27.296875 
Q 58.015625 14.40625 51.78125 6.484375 
Q 45.5625 -1.421875 35.59375 -1.421875 
Q 29.59375 -1.421875 25.265625 0.953125 
Q 20.953125 3.328125 18.109375 8.203125 
z
M 48.6875 27.296875 
Q 48.6875 37.203125 44.609375 42.84375 
Q 40.53125 48.484375 33.40625 48.484375 
Q 26.265625 48.484375 22.1875 42.84375 
Q 18.109375 37.203125 18.109375 27.296875 
Q 18.109375 17.390625 22.1875 11.75 
Q 26.265625 6.109375 33.40625 6.109375 
Q 40.53125 6.109375 44.609375 11.75 
Q 48.6875 17.390625 48.6875 27.296875 
z
" id="DejaVuSans-112"/>
      <path d="M 9.078125 75.984375 
L 18.109375 75.984375 
L 18.109375 31.109375 
L 44.921875 54.6875 
L 56.390625 54.6875 
L 27.390625 29.109375 
L 57.625 0 
L 45.90625 0 
L 18.109375 26.703125 
L 18.109375 0 
L 9.078125 0 
z
" id="DejaVuSans-107"/>
     </defs>
     <g transform="translate(102.9 69.954844)scale(0.15 -0.15)">
      <use xlink:href="#DejaVuSans-79"/>
      <use x="78.710938" xlink:href="#DejaVuSans-112"/>
      <use x="142.1875" xlink:href="#DejaVuSans-116"/>
      <use x="181.396484" xlink:href="#DejaVuSans-105"/>
      <use x="209.179688" xlink:href="#DejaVuSans-116"/>
      <use x="248.388672" xlink:href="#DejaVuSans-114"/>
      <use x="289.501953" xlink:href="#DejaVuSans-97"/>
      <use x="350.78125" xlink:href="#DejaVuSans-99"/>
      <use x="405.761719" xlink:href="#DejaVuSans-107"/>
     </g>
    </g>
   </g>
  </g>
 </g>
 <defs>
  <clipPath id="pfebdbad22e">
   <rect height="280.594286" width="346.02" x="47.4" y="23.04"/>
  </clipPath>
 </defs>
</svg>
