<?xml version="1.0" encoding="utf-8" standalone="no"?>
<!DOCTYPE svg PUBLIC "-//W3C//DTD SVG 1.1//EN"
  "http://www.w3.org/Graphics/SVG/1.1/DTD/svg11.dtd">
<!-- Created with matplotlib (https://matplotlib.org/) -->
<svg height="345.6pt" version="1.1" viewBox="0 0 425.52 345.6" width="425.52pt" xmlns="http://www.w3.org/2000/svg" xmlns:xlink="http://www.w3.org/1999/xlink">
 <defs>
  <style type="text/css">
*{stroke-linecap:butt;stroke-linejoin:round;}
  </style>
 </defs>
 <g id="figure_1">
  <g id="patch_1">
   <path d="M 0 345.6 
L 425.52 345.6 
L 425.52 0 
L 0 0 
z
" style="fill:#ffffff;"/>
  </g>
  <g id="axes_1">
   <g id="patch_2">
    <path d="M 36.473143 313.508571 
L 421.467429 313.508571 
L 421.467429 16.457143 
L 36.473143 16.457143 
z
" style="fill:#ffffff;"/>
   </g>
   <g id="PathCollection_1">
    <defs>
     <path d="M 0 3 
C 0.795609 3 1.55874 2.683901 2.12132 2.12132 
C 2.683901 1.55874 3 0.795609 3 0 
C 3 -0.795609 2.683901 -1.55874 2.12132 -2.12132 
C 1.55874 -2.683901 0.795609 -3 0 -3 
C -0.795609 -3 -1.55874 -2.683901 -2.12132 -2.12132 
C -2.683901 -1.55874 -3 -0.795609 -3 0 
C -3 0.795609 -2.683901 1.55874 -2.12132 2.12132 
C -1.55874 2.683901 -0.795609 3 0 3 
z
" id="mbbfaa15563" style="stroke:#1f77b4;"/>
    </defs>
    <g clip-path="url(#p14dbfb938a)">
     <use style="fill:#1f77b4;stroke:#1f77b4;" x="53.972883" xlink:href="#mbbfaa15563" y="291.642273"/>
     <use style="fill:#1f77b4;stroke:#1f77b4;" x="56.306182" xlink:href="#mbbfaa15563" y="291.138967"/>
     <use style="fill:#1f77b4;stroke:#1f77b4;" x="58.639481" xlink:href="#mbbfaa15563" y="291.981403"/>
     <use style="fill:#1f77b4;stroke:#1f77b4;" x="60.972779" xlink:href="#mbbfaa15563" y="291.846509"/>
     <use style="fill:#1f77b4;stroke:#1f77b4;" x="63.306078" xlink:href="#mbbfaa15563" y="291.334187"/>
     <use style="fill:#1f77b4;stroke:#1f77b4;" x="65.639377" xlink:href="#mbbfaa15563" y="291.310582"/>
     <use style="fill:#1f77b4;stroke:#1f77b4;" x="67.972675" xlink:href="#mbbfaa15563" y="291.966976"/>
     <use style="fill:#1f77b4;stroke:#1f77b4;" x="70.305974" xlink:href="#mbbfaa15563" y="291.363956"/>
     <use style="fill:#1f77b4;stroke:#1f77b4;" x="72.639273" xlink:href="#mbbfaa15563" y="291.522418"/>
     <use style="fill:#1f77b4;stroke:#1f77b4;" x="74.972571" xlink:href="#mbbfaa15563" y="291.56795"/>
     <use style="fill:#1f77b4;stroke:#1f77b4;" x="77.30587" xlink:href="#mbbfaa15563" y="292.135511"/>
     <use style="fill:#1f77b4;stroke:#1f77b4;" x="79.639169" xlink:href="#mbbfaa15563" y="290.270823"/>
     <use style="fill:#1f77b4;stroke:#1f77b4;" x="81.972468" xlink:href="#mbbfaa15563" y="289.307424"/>
     <use style="fill:#1f77b4;stroke:#1f77b4;" x="84.305766" xlink:href="#mbbfaa15563" y="289.877592"/>
     <use style="fill:#1f77b4;stroke:#1f77b4;" x="86.639065" xlink:href="#mbbfaa15563" y="289.311212"/>
     <use style="fill:#1f77b4;stroke:#1f77b4;" x="88.972364" xlink:href="#mbbfaa15563" y="290.443776"/>
     <use style="fill:#1f77b4;stroke:#1f77b4;" x="91.305662" xlink:href="#mbbfaa15563" y="291.865157"/>
     <use style="fill:#1f77b4;stroke:#1f77b4;" x="93.638961" xlink:href="#mbbfaa15563" y="290.450307"/>
     <use style="fill:#1f77b4;stroke:#1f77b4;" x="95.97226" xlink:href="#mbbfaa15563" y="290.737028"/>
     <use style="fill:#1f77b4;stroke:#1f77b4;" x="98.305558" xlink:href="#mbbfaa15563" y="290.821799"/>
     <use style="fill:#1f77b4;stroke:#1f77b4;" x="100.638857" xlink:href="#mbbfaa15563" y="291.713838"/>
     <use style="fill:#1f77b4;stroke:#1f77b4;" x="102.972156" xlink:href="#mbbfaa15563" y="292.077039"/>
     <use style="fill:#1f77b4;stroke:#1f77b4;" x="105.305455" xlink:href="#mbbfaa15563" y="291.99225"/>
     <use style="fill:#1f77b4;stroke:#1f77b4;" x="107.638753" xlink:href="#mbbfaa15563" y="291.891389"/>
     <use style="fill:#1f77b4;stroke:#1f77b4;" x="109.972052" xlink:href="#mbbfaa15563" y="291.190545"/>
     <use style="fill:#1f77b4;stroke:#1f77b4;" x="112.305351" xlink:href="#mbbfaa15563" y="291.658386"/>
     <use style="fill:#1f77b4;stroke:#1f77b4;" x="114.638649" xlink:href="#mbbfaa15563" y="292.092247"/>
     <use style="fill:#1f77b4;stroke:#1f77b4;" x="116.971948" xlink:href="#mbbfaa15563" y="291.651194"/>
     <use style="fill:#1f77b4;stroke:#1f77b4;" x="119.305247" xlink:href="#mbbfaa15563" y="291.732869"/>
     <use style="fill:#1f77b4;stroke:#1f77b4;" x="121.638545" xlink:href="#mbbfaa15563" y="291.716899"/>
     <use style="fill:#1f77b4;stroke:#1f77b4;" x="123.971844" xlink:href="#mbbfaa15563" y="291.702631"/>
     <use style="fill:#1f77b4;stroke:#1f77b4;" x="126.305143" xlink:href="#mbbfaa15563" y="292.045717"/>
     <use style="fill:#1f77b4;stroke:#1f77b4;" x="128.638442" xlink:href="#mbbfaa15563" y="290.909976"/>
     <use style="fill:#1f77b4;stroke:#1f77b4;" x="130.97174" xlink:href="#mbbfaa15563" y="289.850222"/>
     <use style="fill:#1f77b4;stroke:#1f77b4;" x="133.305039" xlink:href="#mbbfaa15563" y="291.944625"/>
     <use style="fill:#1f77b4;stroke:#1f77b4;" x="135.638338" xlink:href="#mbbfaa15563" y="290.316633"/>
     <use style="fill:#1f77b4;stroke:#1f77b4;" x="137.971636" xlink:href="#mbbfaa15563" y="289.478065"/>
     <use style="fill:#1f77b4;stroke:#1f77b4;" x="140.304935" xlink:href="#mbbfaa15563" y="290.432586"/>
     <use style="fill:#1f77b4;stroke:#1f77b4;" x="142.638234" xlink:href="#mbbfaa15563" y="291.302417"/>
     <use style="fill:#1f77b4;stroke:#1f77b4;" x="144.971532" xlink:href="#mbbfaa15563" y="290.401863"/>
     <use style="fill:#1f77b4;stroke:#1f77b4;" x="147.304831" xlink:href="#mbbfaa15563" y="289.525505"/>
     <use style="fill:#1f77b4;stroke:#1f77b4;" x="149.63813" xlink:href="#mbbfaa15563" y="290.54622"/>
     <use style="fill:#1f77b4;stroke:#1f77b4;" x="151.971429" xlink:href="#mbbfaa15563" y="290.989851"/>
     <use style="fill:#1f77b4;stroke:#1f77b4;" x="154.304727" xlink:href="#mbbfaa15563" y="288.752178"/>
     <use style="fill:#1f77b4;stroke:#1f77b4;" x="156.638026" xlink:href="#mbbfaa15563" y="288.966977"/>
     <use style="fill:#1f77b4;stroke:#1f77b4;" x="158.971325" xlink:href="#mbbfaa15563" y="290.129889"/>
     <use style="fill:#1f77b4;stroke:#1f77b4;" x="161.304623" xlink:href="#mbbfaa15563" y="289.331572"/>
     <use style="fill:#1f77b4;stroke:#1f77b4;" x="163.637922" xlink:href="#mbbfaa15563" y="290.061826"/>
     <use style="fill:#1f77b4;stroke:#1f77b4;" x="165.971221" xlink:href="#mbbfaa15563" y="290.438357"/>
     <use style="fill:#1f77b4;stroke:#1f77b4;" x="168.304519" xlink:href="#mbbfaa15563" y="291.320896"/>
     <use style="fill:#1f77b4;stroke:#1f77b4;" x="170.637818" xlink:href="#mbbfaa15563" y="291.557767"/>
     <use style="fill:#1f77b4;stroke:#1f77b4;" x="172.971117" xlink:href="#mbbfaa15563" y="289.538821"/>
     <use style="fill:#1f77b4;stroke:#1f77b4;" x="175.304416" xlink:href="#mbbfaa15563" y="288.81227"/>
     <use style="fill:#1f77b4;stroke:#1f77b4;" x="177.637714" xlink:href="#mbbfaa15563" y="288.332742"/>
     <use style="fill:#1f77b4;stroke:#1f77b4;" x="179.971013" xlink:href="#mbbfaa15563" y="283.805632"/>
     <use style="fill:#1f77b4;stroke:#1f77b4;" x="182.304312" xlink:href="#mbbfaa15563" y="285.716684"/>
     <use style="fill:#1f77b4;stroke:#1f77b4;" x="184.63761" xlink:href="#mbbfaa15563" y="283.986637"/>
     <use style="fill:#1f77b4;stroke:#1f77b4;" x="186.970909" xlink:href="#mbbfaa15563" y="281.655941"/>
     <use style="fill:#1f77b4;stroke:#1f77b4;" x="189.304208" xlink:href="#mbbfaa15563" y="279.857147"/>
     <use style="fill:#1f77b4;stroke:#1f77b4;" x="191.637506" xlink:href="#mbbfaa15563" y="41.079117"/>
     <use style="fill:#1f77b4;stroke:#1f77b4;" x="193.970805" xlink:href="#mbbfaa15563" y="277.065791"/>
     <use style="fill:#1f77b4;stroke:#1f77b4;" x="196.304104" xlink:href="#mbbfaa15563" y="277.862783"/>
     <use style="fill:#1f77b4;stroke:#1f77b4;" x="198.637403" xlink:href="#mbbfaa15563" y="272.920041"/>
     <use style="fill:#1f77b4;stroke:#1f77b4;" x="200.970701" xlink:href="#mbbfaa15563" y="272.652248"/>
     <use style="fill:#1f77b4;stroke:#1f77b4;" x="203.304" xlink:href="#mbbfaa15563" y="274.381774"/>
     <use style="fill:#1f77b4;stroke:#1f77b4;" x="205.637299" xlink:href="#mbbfaa15563" y="271.750359"/>
     <use style="fill:#1f77b4;stroke:#1f77b4;" x="207.970597" xlink:href="#mbbfaa15563" y="272.782114"/>
     <use style="fill:#1f77b4;stroke:#1f77b4;" x="210.303896" xlink:href="#mbbfaa15563" y="272.296105"/>
     <use style="fill:#1f77b4;stroke:#1f77b4;" x="212.637195" xlink:href="#mbbfaa15563" y="270.907454"/>
     <use style="fill:#1f77b4;stroke:#1f77b4;" x="214.970494" xlink:href="#mbbfaa15563" y="271.271549"/>
     <use style="fill:#1f77b4;stroke:#1f77b4;" x="217.303792" xlink:href="#mbbfaa15563" y="268.425836"/>
     <use style="fill:#1f77b4;stroke:#1f77b4;" x="219.637091" xlink:href="#mbbfaa15563" y="268.216122"/>
     <use style="fill:#1f77b4;stroke:#1f77b4;" x="221.97039" xlink:href="#mbbfaa15563" y="268.390164"/>
     <use style="fill:#1f77b4;stroke:#1f77b4;" x="224.303688" xlink:href="#mbbfaa15563" y="287.184718"/>
     <use style="fill:#1f77b4;stroke:#1f77b4;" x="226.636987" xlink:href="#mbbfaa15563" y="266.009731"/>
     <use style="fill:#1f77b4;stroke:#1f77b4;" x="228.970286" xlink:href="#mbbfaa15563" y="287.866537"/>
     <use style="fill:#1f77b4;stroke:#1f77b4;" x="231.303584" xlink:href="#mbbfaa15563" y="271.619058"/>
     <use style="fill:#1f77b4;stroke:#1f77b4;" x="233.636883" xlink:href="#mbbfaa15563" y="289.216678"/>
     <use style="fill:#1f77b4;stroke:#1f77b4;" x="235.970182" xlink:href="#mbbfaa15563" y="273.268529"/>
     <use style="fill:#1f77b4;stroke:#1f77b4;" x="238.303481" xlink:href="#mbbfaa15563" y="289.279712"/>
     <use style="fill:#1f77b4;stroke:#1f77b4;" x="240.636779" xlink:href="#mbbfaa15563" y="275.071966"/>
     <use style="fill:#1f77b4;stroke:#1f77b4;" x="242.970078" xlink:href="#mbbfaa15563" y="273.864883"/>
     <use style="fill:#1f77b4;stroke:#1f77b4;" x="245.303377" xlink:href="#mbbfaa15563" y="275.068315"/>
     <use style="fill:#1f77b4;stroke:#1f77b4;" x="247.636675" xlink:href="#mbbfaa15563" y="42.834245"/>
     <use style="fill:#1f77b4;stroke:#1f77b4;" x="249.969974" xlink:href="#mbbfaa15563" y="276.980609"/>
     <use style="fill:#1f77b4;stroke:#1f77b4;" x="252.303273" xlink:href="#mbbfaa15563" y="278.718492"/>
     <use style="fill:#1f77b4;stroke:#1f77b4;" x="254.636571" xlink:href="#mbbfaa15563" y="277.827563"/>
     <use style="fill:#1f77b4;stroke:#1f77b4;" x="256.96987" xlink:href="#mbbfaa15563" y="276.537818"/>
     <use style="fill:#1f77b4;stroke:#1f77b4;" x="259.303169" xlink:href="#mbbfaa15563" y="277.169628"/>
     <use style="fill:#1f77b4;stroke:#1f77b4;" x="261.636468" xlink:href="#mbbfaa15563" y="281.157372"/>
     <use style="fill:#1f77b4;stroke:#1f77b4;" x="263.969766" xlink:href="#mbbfaa15563" y="279.139961"/>
     <use style="fill:#1f77b4;stroke:#1f77b4;" x="266.303065" xlink:href="#mbbfaa15563" y="278.623584"/>
     <use style="fill:#1f77b4;stroke:#1f77b4;" x="268.636364" xlink:href="#mbbfaa15563" y="278.422129"/>
     <use style="fill:#1f77b4;stroke:#1f77b4;" x="270.969662" xlink:href="#mbbfaa15563" y="280.697977"/>
     <use style="fill:#1f77b4;stroke:#1f77b4;" x="273.302961" xlink:href="#mbbfaa15563" y="277.106295"/>
     <use style="fill:#1f77b4;stroke:#1f77b4;" x="275.63626" xlink:href="#mbbfaa15563" y="279.317156"/>
     <use style="fill:#1f77b4;stroke:#1f77b4;" x="277.969558" xlink:href="#mbbfaa15563" y="278.954656"/>
     <use style="fill:#1f77b4;stroke:#1f77b4;" x="280.302857" xlink:href="#mbbfaa15563" y="281.65781"/>
     <use style="fill:#1f77b4;stroke:#1f77b4;" x="282.636156" xlink:href="#mbbfaa15563" y="278.765264"/>
     <use style="fill:#1f77b4;stroke:#1f77b4;" x="284.969455" xlink:href="#mbbfaa15563" y="279.289586"/>
     <use style="fill:#1f77b4;stroke:#1f77b4;" x="287.302753" xlink:href="#mbbfaa15563" y="279.445398"/>
     <use style="fill:#1f77b4;stroke:#1f77b4;" x="289.636052" xlink:href="#mbbfaa15563" y="277.221047"/>
     <use style="fill:#1f77b4;stroke:#1f77b4;" x="291.969351" xlink:href="#mbbfaa15563" y="279.01446"/>
     <use style="fill:#1f77b4;stroke:#1f77b4;" x="294.302649" xlink:href="#mbbfaa15563" y="277.871055"/>
     <use style="fill:#1f77b4;stroke:#1f77b4;" x="296.635948" xlink:href="#mbbfaa15563" y="279.848149"/>
     <use style="fill:#1f77b4;stroke:#1f77b4;" x="298.969247" xlink:href="#mbbfaa15563" y="280.309372"/>
     <use style="fill:#1f77b4;stroke:#1f77b4;" x="301.302545" xlink:href="#mbbfaa15563" y="277.356389"/>
     <use style="fill:#1f77b4;stroke:#1f77b4;" x="303.635844" xlink:href="#mbbfaa15563" y="280.339569"/>
     <use style="fill:#1f77b4;stroke:#1f77b4;" x="305.969143" xlink:href="#mbbfaa15563" y="278.425193"/>
     <use style="fill:#1f77b4;stroke:#1f77b4;" x="308.302442" xlink:href="#mbbfaa15563" y="41.229788"/>
     <use style="fill:#1f77b4;stroke:#1f77b4;" x="310.63574" xlink:href="#mbbfaa15563" y="278.269241"/>
     <use style="fill:#1f77b4;stroke:#1f77b4;" x="312.969039" xlink:href="#mbbfaa15563" y="280.323809"/>
     <use style="fill:#1f77b4;stroke:#1f77b4;" x="315.302338" xlink:href="#mbbfaa15563" y="278.794725"/>
     <use style="fill:#1f77b4;stroke:#1f77b4;" x="317.635636" xlink:href="#mbbfaa15563" y="279.970717"/>
     <use style="fill:#1f77b4;stroke:#1f77b4;" x="319.968935" xlink:href="#mbbfaa15563" y="277.960729"/>
     <use style="fill:#1f77b4;stroke:#1f77b4;" x="322.302234" xlink:href="#mbbfaa15563" y="280.089661"/>
     <use style="fill:#1f77b4;stroke:#1f77b4;" x="324.635532" xlink:href="#mbbfaa15563" y="277.422288"/>
     <use style="fill:#1f77b4;stroke:#1f77b4;" x="326.968831" xlink:href="#mbbfaa15563" y="276.210419"/>
     <use style="fill:#1f77b4;stroke:#1f77b4;" x="329.30213" xlink:href="#mbbfaa15563" y="276.975525"/>
     <use style="fill:#1f77b4;stroke:#1f77b4;" x="331.635429" xlink:href="#mbbfaa15563" y="276.548566"/>
     <use style="fill:#1f77b4;stroke:#1f77b4;" x="333.968727" xlink:href="#mbbfaa15563" y="285.808569"/>
     <use style="fill:#1f77b4;stroke:#1f77b4;" x="336.302026" xlink:href="#mbbfaa15563" y="288.530845"/>
     <use style="fill:#1f77b4;stroke:#1f77b4;" x="338.635325" xlink:href="#mbbfaa15563" y="285.914942"/>
     <use style="fill:#1f77b4;stroke:#1f77b4;" x="340.968623" xlink:href="#mbbfaa15563" y="284.126482"/>
     <use style="fill:#1f77b4;stroke:#1f77b4;" x="343.301922" xlink:href="#mbbfaa15563" y="281.250872"/>
     <use style="fill:#1f77b4;stroke:#1f77b4;" x="345.635221" xlink:href="#mbbfaa15563" y="285.084306"/>
     <use style="fill:#1f77b4;stroke:#1f77b4;" x="347.968519" xlink:href="#mbbfaa15563" y="278.936782"/>
     <use style="fill:#1f77b4;stroke:#1f77b4;" x="350.301818" xlink:href="#mbbfaa15563" y="283.696346"/>
     <use style="fill:#1f77b4;stroke:#1f77b4;" x="352.635117" xlink:href="#mbbfaa15563" y="285.665641"/>
     <use style="fill:#1f77b4;stroke:#1f77b4;" x="354.968416" xlink:href="#mbbfaa15563" y="286.726618"/>
     <use style="fill:#1f77b4;stroke:#1f77b4;" x="357.301714" xlink:href="#mbbfaa15563" y="288.482124"/>
     <use style="fill:#1f77b4;stroke:#1f77b4;" x="359.635013" xlink:href="#mbbfaa15563" y="288.236347"/>
     <use style="fill:#1f77b4;stroke:#1f77b4;" x="361.968312" xlink:href="#mbbfaa15563" y="288.650183"/>
     <use style="fill:#1f77b4;stroke:#1f77b4;" x="364.30161" xlink:href="#mbbfaa15563" y="289.435533"/>
     <use style="fill:#1f77b4;stroke:#1f77b4;" x="366.634909" xlink:href="#mbbfaa15563" y="289.485072"/>
     <use style="fill:#1f77b4;stroke:#1f77b4;" x="368.968208" xlink:href="#mbbfaa15563" y="289.376888"/>
     <use style="fill:#1f77b4;stroke:#1f77b4;" x="371.301506" xlink:href="#mbbfaa15563" y="291.157868"/>
     <use style="fill:#1f77b4;stroke:#1f77b4;" x="373.634805" xlink:href="#mbbfaa15563" y="291.064978"/>
     <use style="fill:#1f77b4;stroke:#1f77b4;" x="375.968104" xlink:href="#mbbfaa15563" y="291.139633"/>
     <use style="fill:#1f77b4;stroke:#1f77b4;" x="378.301403" xlink:href="#mbbfaa15563" y="290.811784"/>
     <use style="fill:#1f77b4;stroke:#1f77b4;" x="380.634701" xlink:href="#mbbfaa15563" y="290.62903"/>
     <use style="fill:#1f77b4;stroke:#1f77b4;" x="382.968" xlink:href="#mbbfaa15563" y="290.301977"/>
     <use style="fill:#1f77b4;stroke:#1f77b4;" x="385.301299" xlink:href="#mbbfaa15563" y="29.959481"/>
     <use style="fill:#1f77b4;stroke:#1f77b4;" x="387.634597" xlink:href="#mbbfaa15563" y="291.916702"/>
     <use style="fill:#1f77b4;stroke:#1f77b4;" x="389.967896" xlink:href="#mbbfaa15563" y="291.875776"/>
     <use style="fill:#1f77b4;stroke:#1f77b4;" x="392.301195" xlink:href="#mbbfaa15563" y="292.085675"/>
     <use style="fill:#1f77b4;stroke:#1f77b4;" x="394.634494" xlink:href="#mbbfaa15563" y="291.726099"/>
     <use style="fill:#1f77b4;stroke:#1f77b4;" x="396.967792" xlink:href="#mbbfaa15563" y="289.633555"/>
     <use style="fill:#1f77b4;stroke:#1f77b4;" x="399.301091" xlink:href="#mbbfaa15563" y="288.961809"/>
     <use style="fill:#1f77b4;stroke:#1f77b4;" x="401.63439" xlink:href="#mbbfaa15563" y="289.419992"/>
     <use style="fill:#1f77b4;stroke:#1f77b4;" x="403.967688" xlink:href="#mbbfaa15563" y="288.600357"/>
    </g>
   </g>
   <g id="PathCollection_2">
    <defs>
     <path d="M 0 3 
C 0.795609 3 1.55874 2.683901 2.12132 2.12132 
C 2.683901 1.55874 3 0.795609 3 0 
C 3 -0.795609 2.683901 -1.55874 2.12132 -2.12132 
C 1.55874 -2.683901 0.795609 -3 0 -3 
C -0.795609 -3 -1.55874 -2.683901 -2.12132 -2.12132 
C -2.683901 -1.55874 -3 -0.795609 -3 0 
C -3 0.795609 -2.683901 1.55874 -2.12132 2.12132 
C -1.55874 2.683901 -0.795609 3 0 3 
z
" id="mcdd9ddb962" style="stroke:#ff7f0e;"/>
    </defs>
    <g clip-path="url(#p14dbfb938a)">
     <use style="fill:#ff7f0e;stroke:#ff7f0e;" x="53.972883" xlink:href="#mcdd9ddb962" y="292.230116"/>
     <use style="fill:#ff7f0e;stroke:#ff7f0e;" x="56.306182" xlink:href="#mcdd9ddb962" y="291.776688"/>
     <use style="fill:#ff7f0e;stroke:#ff7f0e;" x="58.639481" xlink:href="#mcdd9ddb962" y="292.012094"/>
     <use style="fill:#ff7f0e;stroke:#ff7f0e;" x="60.972779" xlink:href="#mcdd9ddb962" y="291.947261"/>
     <use style="fill:#ff7f0e;stroke:#ff7f0e;" x="63.306078" xlink:href="#mcdd9ddb962" y="292.126235"/>
     <use style="fill:#ff7f0e;stroke:#ff7f0e;" x="65.639377" xlink:href="#mcdd9ddb962" y="291.821867"/>
     <use style="fill:#ff7f0e;stroke:#ff7f0e;" x="67.972675" xlink:href="#mcdd9ddb962" y="291.7813"/>
     <use style="fill:#ff7f0e;stroke:#ff7f0e;" x="70.305974" xlink:href="#mcdd9ddb962" y="291.920562"/>
     <use style="fill:#ff7f0e;stroke:#ff7f0e;" x="72.639273" xlink:href="#mcdd9ddb962" y="291.705123"/>
     <use style="fill:#ff7f0e;stroke:#ff7f0e;" x="74.972571" xlink:href="#mcdd9ddb962" y="291.879639"/>
     <use style="fill:#ff7f0e;stroke:#ff7f0e;" x="77.30587" xlink:href="#mcdd9ddb962" y="291.182269"/>
     <use style="fill:#ff7f0e;stroke:#ff7f0e;" x="79.639169" xlink:href="#mcdd9ddb962" y="290.997842"/>
     <use style="fill:#ff7f0e;stroke:#ff7f0e;" x="81.972468" xlink:href="#mcdd9ddb962" y="290.924479"/>
     <use style="fill:#ff7f0e;stroke:#ff7f0e;" x="84.305766" xlink:href="#mcdd9ddb962" y="289.683862"/>
     <use style="fill:#ff7f0e;stroke:#ff7f0e;" x="86.639065" xlink:href="#mcdd9ddb962" y="290.634132"/>
     <use style="fill:#ff7f0e;stroke:#ff7f0e;" x="88.972364" xlink:href="#mcdd9ddb962" y="289.867467"/>
     <use style="fill:#ff7f0e;stroke:#ff7f0e;" x="91.305662" xlink:href="#mcdd9ddb962" y="290.433601"/>
     <use style="fill:#ff7f0e;stroke:#ff7f0e;" x="93.638961" xlink:href="#mcdd9ddb962" y="291.202052"/>
     <use style="fill:#ff7f0e;stroke:#ff7f0e;" x="95.97226" xlink:href="#mcdd9ddb962" y="290.468278"/>
     <use style="fill:#ff7f0e;stroke:#ff7f0e;" x="98.305558" xlink:href="#mcdd9ddb962" y="291.166931"/>
     <use style="fill:#ff7f0e;stroke:#ff7f0e;" x="100.638857" xlink:href="#mcdd9ddb962" y="291.28895"/>
     <use style="fill:#ff7f0e;stroke:#ff7f0e;" x="102.972156" xlink:href="#mcdd9ddb962" y="291.87046"/>
     <use style="fill:#ff7f0e;stroke:#ff7f0e;" x="105.305455" xlink:href="#mcdd9ddb962" y="291.505416"/>
     <use style="fill:#ff7f0e;stroke:#ff7f0e;" x="107.638753" xlink:href="#mcdd9ddb962" y="292.015351"/>
     <use style="fill:#ff7f0e;stroke:#ff7f0e;" x="109.972052" xlink:href="#mcdd9ddb962" y="291.840028"/>
     <use style="fill:#ff7f0e;stroke:#ff7f0e;" x="112.305351" xlink:href="#mcdd9ddb962" y="292.09008"/>
     <use style="fill:#ff7f0e;stroke:#ff7f0e;" x="114.638649" xlink:href="#mcdd9ddb962" y="292.171797"/>
     <use style="fill:#ff7f0e;stroke:#ff7f0e;" x="116.971948" xlink:href="#mcdd9ddb962" y="292.409364"/>
     <use style="fill:#ff7f0e;stroke:#ff7f0e;" x="119.305247" xlink:href="#mcdd9ddb962" y="292.392402"/>
     <use style="fill:#ff7f0e;stroke:#ff7f0e;" x="121.638545" xlink:href="#mcdd9ddb962" y="292.669346"/>
     <use style="fill:#ff7f0e;stroke:#ff7f0e;" x="123.971844" xlink:href="#mcdd9ddb962" y="293.01253"/>
     <use style="fill:#ff7f0e;stroke:#ff7f0e;" x="126.305143" xlink:href="#mcdd9ddb962" y="293.237773"/>
     <use style="fill:#ff7f0e;stroke:#ff7f0e;" x="128.638442" xlink:href="#mcdd9ddb962" y="293.685449"/>
     <use style="fill:#ff7f0e;stroke:#ff7f0e;" x="130.97174" xlink:href="#mcdd9ddb962" y="293.242706"/>
     <use style="fill:#ff7f0e;stroke:#ff7f0e;" x="133.305039" xlink:href="#mcdd9ddb962" y="294.374317"/>
     <use style="fill:#ff7f0e;stroke:#ff7f0e;" x="135.638338" xlink:href="#mcdd9ddb962" y="294.135292"/>
     <use style="fill:#ff7f0e;stroke:#ff7f0e;" x="137.971636" xlink:href="#mcdd9ddb962" y="294.311375"/>
     <use style="fill:#ff7f0e;stroke:#ff7f0e;" x="140.304935" xlink:href="#mcdd9ddb962" y="294.440047"/>
     <use style="fill:#ff7f0e;stroke:#ff7f0e;" x="142.638234" xlink:href="#mcdd9ddb962" y="295.247285"/>
     <use style="fill:#ff7f0e;stroke:#ff7f0e;" x="144.971532" xlink:href="#mcdd9ddb962" y="294.648586"/>
     <use style="fill:#ff7f0e;stroke:#ff7f0e;" x="147.304831" xlink:href="#mcdd9ddb962" y="294.357398"/>
     <use style="fill:#ff7f0e;stroke:#ff7f0e;" x="149.63813" xlink:href="#mcdd9ddb962" y="295.833402"/>
     <use style="fill:#ff7f0e;stroke:#ff7f0e;" x="151.971429" xlink:href="#mcdd9ddb962" y="295.227763"/>
     <use style="fill:#ff7f0e;stroke:#ff7f0e;" x="154.304727" xlink:href="#mcdd9ddb962" y="295.760499"/>
     <use style="fill:#ff7f0e;stroke:#ff7f0e;" x="156.638026" xlink:href="#mcdd9ddb962" y="295.236003"/>
     <use style="fill:#ff7f0e;stroke:#ff7f0e;" x="158.971325" xlink:href="#mcdd9ddb962" y="295.26993"/>
     <use style="fill:#ff7f0e;stroke:#ff7f0e;" x="161.304623" xlink:href="#mcdd9ddb962" y="294.830335"/>
     <use style="fill:#ff7f0e;stroke:#ff7f0e;" x="163.637922" xlink:href="#mcdd9ddb962" y="294.12158"/>
     <use style="fill:#ff7f0e;stroke:#ff7f0e;" x="165.971221" xlink:href="#mcdd9ddb962" y="292.987517"/>
     <use style="fill:#ff7f0e;stroke:#ff7f0e;" x="168.304519" xlink:href="#mcdd9ddb962" y="291.831054"/>
     <use style="fill:#ff7f0e;stroke:#ff7f0e;" x="170.637818" xlink:href="#mcdd9ddb962" y="289.98497"/>
     <use style="fill:#ff7f0e;stroke:#ff7f0e;" x="172.971117" xlink:href="#mcdd9ddb962" y="288.703419"/>
     <use style="fill:#ff7f0e;stroke:#ff7f0e;" x="175.304416" xlink:href="#mcdd9ddb962" y="286.58741"/>
     <use style="fill:#ff7f0e;stroke:#ff7f0e;" x="177.637714" xlink:href="#mcdd9ddb962" y="285.183059"/>
     <use style="fill:#ff7f0e;stroke:#ff7f0e;" x="179.971013" xlink:href="#mcdd9ddb962" y="281.531414"/>
     <use style="fill:#ff7f0e;stroke:#ff7f0e;" x="182.304312" xlink:href="#mcdd9ddb962" y="281.318621"/>
     <use style="fill:#ff7f0e;stroke:#ff7f0e;" x="184.63761" xlink:href="#mcdd9ddb962" y="279.692682"/>
     <use style="fill:#ff7f0e;stroke:#ff7f0e;" x="186.970909" xlink:href="#mcdd9ddb962" y="277.473791"/>
     <use style="fill:#ff7f0e;stroke:#ff7f0e;" x="189.304208" xlink:href="#mcdd9ddb962" y="275.865864"/>
     <use style="fill:#ff7f0e;stroke:#ff7f0e;" x="191.637506" xlink:href="#mcdd9ddb962" y="274.235296"/>
     <use style="fill:#ff7f0e;stroke:#ff7f0e;" x="193.970805" xlink:href="#mcdd9ddb962" y="268.914311"/>
     <use style="fill:#ff7f0e;stroke:#ff7f0e;" x="196.304104" xlink:href="#mcdd9ddb962" y="270.540627"/>
     <use style="fill:#ff7f0e;stroke:#ff7f0e;" x="198.637403" xlink:href="#mcdd9ddb962" y="270.384969"/>
     <use style="fill:#ff7f0e;stroke:#ff7f0e;" x="200.970701" xlink:href="#mcdd9ddb962" y="267.906826"/>
     <use style="fill:#ff7f0e;stroke:#ff7f0e;" x="203.304" xlink:href="#mcdd9ddb962" y="267.847949"/>
     <use style="fill:#ff7f0e;stroke:#ff7f0e;" x="205.637299" xlink:href="#mcdd9ddb962" y="261.787945"/>
     <use style="fill:#ff7f0e;stroke:#ff7f0e;" x="207.970597" xlink:href="#mcdd9ddb962" y="266.830888"/>
     <use style="fill:#ff7f0e;stroke:#ff7f0e;" x="210.303896" xlink:href="#mcdd9ddb962" y="264.956099"/>
     <use style="fill:#ff7f0e;stroke:#ff7f0e;" x="212.637195" xlink:href="#mcdd9ddb962" y="269.562995"/>
     <use style="fill:#ff7f0e;stroke:#ff7f0e;" x="214.970494" xlink:href="#mcdd9ddb962" y="260.039028"/>
     <use style="fill:#ff7f0e;stroke:#ff7f0e;" x="217.303792" xlink:href="#mcdd9ddb962" y="263.51804"/>
     <use style="fill:#ff7f0e;stroke:#ff7f0e;" x="219.637091" xlink:href="#mcdd9ddb962" y="258.293875"/>
     <use style="fill:#ff7f0e;stroke:#ff7f0e;" x="221.97039" xlink:href="#mcdd9ddb962" y="264.164867"/>
     <use style="fill:#ff7f0e;stroke:#ff7f0e;" x="224.303688" xlink:href="#mcdd9ddb962" y="263.898398"/>
     <use style="fill:#ff7f0e;stroke:#ff7f0e;" x="226.636987" xlink:href="#mcdd9ddb962" y="265.41626"/>
     <use style="fill:#ff7f0e;stroke:#ff7f0e;" x="228.970286" xlink:href="#mcdd9ddb962" y="265.473289"/>
     <use style="fill:#ff7f0e;stroke:#ff7f0e;" x="231.303584" xlink:href="#mcdd9ddb962" y="266.560163"/>
     <use style="fill:#ff7f0e;stroke:#ff7f0e;" x="233.636883" xlink:href="#mcdd9ddb962" y="262.814378"/>
     <use style="fill:#ff7f0e;stroke:#ff7f0e;" x="235.970182" xlink:href="#mcdd9ddb962" y="269.44966"/>
     <use style="fill:#ff7f0e;stroke:#ff7f0e;" x="238.303481" xlink:href="#mcdd9ddb962" y="269.161457"/>
     <use style="fill:#ff7f0e;stroke:#ff7f0e;" x="240.636779" xlink:href="#mcdd9ddb962" y="270.816721"/>
     <use style="fill:#ff7f0e;stroke:#ff7f0e;" x="242.970078" xlink:href="#mcdd9ddb962" y="270.826165"/>
     <use style="fill:#ff7f0e;stroke:#ff7f0e;" x="245.303377" xlink:href="#mcdd9ddb962" y="266.919976"/>
     <use style="fill:#ff7f0e;stroke:#ff7f0e;" x="247.636675" xlink:href="#mcdd9ddb962" y="271.997455"/>
     <use style="fill:#ff7f0e;stroke:#ff7f0e;" x="249.969974" xlink:href="#mcdd9ddb962" y="272.678664"/>
     <use style="fill:#ff7f0e;stroke:#ff7f0e;" x="252.303273" xlink:href="#mcdd9ddb962" y="272.626138"/>
     <use style="fill:#ff7f0e;stroke:#ff7f0e;" x="254.636571" xlink:href="#mcdd9ddb962" y="273.084335"/>
     <use style="fill:#ff7f0e;stroke:#ff7f0e;" x="256.96987" xlink:href="#mcdd9ddb962" y="274.422139"/>
     <use style="fill:#ff7f0e;stroke:#ff7f0e;" x="259.303169" xlink:href="#mcdd9ddb962" y="272.033614"/>
     <use style="fill:#ff7f0e;stroke:#ff7f0e;" x="261.636468" xlink:href="#mcdd9ddb962" y="274.029593"/>
     <use style="fill:#ff7f0e;stroke:#ff7f0e;" x="263.969766" xlink:href="#mcdd9ddb962" y="272.169336"/>
     <use style="fill:#ff7f0e;stroke:#ff7f0e;" x="266.303065" xlink:href="#mcdd9ddb962" y="275.363818"/>
     <use style="fill:#ff7f0e;stroke:#ff7f0e;" x="268.636364" xlink:href="#mcdd9ddb962" y="275.446261"/>
     <use style="fill:#ff7f0e;stroke:#ff7f0e;" x="270.969662" xlink:href="#mcdd9ddb962" y="272.578764"/>
     <use style="fill:#ff7f0e;stroke:#ff7f0e;" x="273.302961" xlink:href="#mcdd9ddb962" y="276.32822"/>
     <use style="fill:#ff7f0e;stroke:#ff7f0e;" x="275.63626" xlink:href="#mcdd9ddb962" y="276.11647"/>
     <use style="fill:#ff7f0e;stroke:#ff7f0e;" x="277.969558" xlink:href="#mcdd9ddb962" y="276.286439"/>
     <use style="fill:#ff7f0e;stroke:#ff7f0e;" x="280.302857" xlink:href="#mcdd9ddb962" y="275.624545"/>
     <use style="fill:#ff7f0e;stroke:#ff7f0e;" x="282.636156" xlink:href="#mcdd9ddb962" y="275.908972"/>
     <use style="fill:#ff7f0e;stroke:#ff7f0e;" x="284.969455" xlink:href="#mcdd9ddb962" y="272.429751"/>
     <use style="fill:#ff7f0e;stroke:#ff7f0e;" x="287.302753" xlink:href="#mcdd9ddb962" y="275.399264"/>
     <use style="fill:#ff7f0e;stroke:#ff7f0e;" x="289.636052" xlink:href="#mcdd9ddb962" y="275.819471"/>
     <use style="fill:#ff7f0e;stroke:#ff7f0e;" x="291.969351" xlink:href="#mcdd9ddb962" y="275.875394"/>
     <use style="fill:#ff7f0e;stroke:#ff7f0e;" x="294.302649" xlink:href="#mcdd9ddb962" y="275.690628"/>
     <use style="fill:#ff7f0e;stroke:#ff7f0e;" x="296.635948" xlink:href="#mcdd9ddb962" y="272.329288"/>
     <use style="fill:#ff7f0e;stroke:#ff7f0e;" x="298.969247" xlink:href="#mcdd9ddb962" y="276.783522"/>
     <use style="fill:#ff7f0e;stroke:#ff7f0e;" x="301.302545" xlink:href="#mcdd9ddb962" y="276.272038"/>
     <use style="fill:#ff7f0e;stroke:#ff7f0e;" x="303.635844" xlink:href="#mcdd9ddb962" y="276.868769"/>
     <use style="fill:#ff7f0e;stroke:#ff7f0e;" x="305.969143" xlink:href="#mcdd9ddb962" y="277.021416"/>
     <use style="fill:#ff7f0e;stroke:#ff7f0e;" x="308.302442" xlink:href="#mcdd9ddb962" y="278.117289"/>
     <use style="fill:#ff7f0e;stroke:#ff7f0e;" x="310.63574" xlink:href="#mcdd9ddb962" y="273.239199"/>
     <use style="fill:#ff7f0e;stroke:#ff7f0e;" x="312.969039" xlink:href="#mcdd9ddb962" y="276.706058"/>
     <use style="fill:#ff7f0e;stroke:#ff7f0e;" x="315.302338" xlink:href="#mcdd9ddb962" y="276.928974"/>
     <use style="fill:#ff7f0e;stroke:#ff7f0e;" x="317.635636" xlink:href="#mcdd9ddb962" y="275.93585"/>
     <use style="fill:#ff7f0e;stroke:#ff7f0e;" x="319.968935" xlink:href="#mcdd9ddb962" y="275.929158"/>
     <use style="fill:#ff7f0e;stroke:#ff7f0e;" x="322.302234" xlink:href="#mcdd9ddb962" y="274.414123"/>
     <use style="fill:#ff7f0e;stroke:#ff7f0e;" x="324.635532" xlink:href="#mcdd9ddb962" y="271.250235"/>
     <use style="fill:#ff7f0e;stroke:#ff7f0e;" x="326.968831" xlink:href="#mcdd9ddb962" y="274.696085"/>
     <use style="fill:#ff7f0e;stroke:#ff7f0e;" x="329.30213" xlink:href="#mcdd9ddb962" y="274.968215"/>
     <use style="fill:#ff7f0e;stroke:#ff7f0e;" x="331.635429" xlink:href="#mcdd9ddb962" y="275.781607"/>
     <use style="fill:#ff7f0e;stroke:#ff7f0e;" x="333.968727" xlink:href="#mcdd9ddb962" y="276.925898"/>
     <use style="fill:#ff7f0e;stroke:#ff7f0e;" x="336.302026" xlink:href="#mcdd9ddb962" y="275.343034"/>
     <use style="fill:#ff7f0e;stroke:#ff7f0e;" x="338.635325" xlink:href="#mcdd9ddb962" y="279.462633"/>
     <use style="fill:#ff7f0e;stroke:#ff7f0e;" x="340.968623" xlink:href="#mcdd9ddb962" y="279.986126"/>
     <use style="fill:#ff7f0e;stroke:#ff7f0e;" x="343.301922" xlink:href="#mcdd9ddb962" y="281.179626"/>
     <use style="fill:#ff7f0e;stroke:#ff7f0e;" x="345.635221" xlink:href="#mcdd9ddb962" y="282.398777"/>
     <use style="fill:#ff7f0e;stroke:#ff7f0e;" x="347.968519" xlink:href="#mcdd9ddb962" y="285.157562"/>
     <use style="fill:#ff7f0e;stroke:#ff7f0e;" x="350.301818" xlink:href="#mcdd9ddb962" y="281.447266"/>
     <use style="fill:#ff7f0e;stroke:#ff7f0e;" x="352.635117" xlink:href="#mcdd9ddb962" y="285.806392"/>
     <use style="fill:#ff7f0e;stroke:#ff7f0e;" x="354.968416" xlink:href="#mcdd9ddb962" y="287.006289"/>
     <use style="fill:#ff7f0e;stroke:#ff7f0e;" x="357.301714" xlink:href="#mcdd9ddb962" y="287.972705"/>
     <use style="fill:#ff7f0e;stroke:#ff7f0e;" x="359.635013" xlink:href="#mcdd9ddb962" y="287.766262"/>
     <use style="fill:#ff7f0e;stroke:#ff7f0e;" x="361.968312" xlink:href="#mcdd9ddb962" y="288.213585"/>
     <use style="fill:#ff7f0e;stroke:#ff7f0e;" x="364.30161" xlink:href="#mcdd9ddb962" y="289.713063"/>
     <use style="fill:#ff7f0e;stroke:#ff7f0e;" x="366.634909" xlink:href="#mcdd9ddb962" y="289.494559"/>
     <use style="fill:#ff7f0e;stroke:#ff7f0e;" x="368.968208" xlink:href="#mcdd9ddb962" y="290.366926"/>
     <use style="fill:#ff7f0e;stroke:#ff7f0e;" x="371.301506" xlink:href="#mcdd9ddb962" y="290.127814"/>
     <use style="fill:#ff7f0e;stroke:#ff7f0e;" x="373.634805" xlink:href="#mcdd9ddb962" y="290.607246"/>
     <use style="fill:#ff7f0e;stroke:#ff7f0e;" x="375.968104" xlink:href="#mcdd9ddb962" y="290.261445"/>
     <use style="fill:#ff7f0e;stroke:#ff7f0e;" x="378.301403" xlink:href="#mcdd9ddb962" y="290.887419"/>
     <use style="fill:#ff7f0e;stroke:#ff7f0e;" x="380.634701" xlink:href="#mcdd9ddb962" y="291.12033"/>
     <use style="fill:#ff7f0e;stroke:#ff7f0e;" x="382.968" xlink:href="#mcdd9ddb962" y="291.713361"/>
     <use style="fill:#ff7f0e;stroke:#ff7f0e;" x="385.301299" xlink:href="#mcdd9ddb962" y="292.473349"/>
     <use style="fill:#ff7f0e;stroke:#ff7f0e;" x="387.634597" xlink:href="#mcdd9ddb962" y="292.544973"/>
     <use style="fill:#ff7f0e;stroke:#ff7f0e;" x="389.967896" xlink:href="#mcdd9ddb962" y="293.376401"/>
     <use style="fill:#ff7f0e;stroke:#ff7f0e;" x="392.301195" xlink:href="#mcdd9ddb962" y="294.455495"/>
     <use style="fill:#ff7f0e;stroke:#ff7f0e;" x="394.634494" xlink:href="#mcdd9ddb962" y="295.684571"/>
     <use style="fill:#ff7f0e;stroke:#ff7f0e;" x="396.967792" xlink:href="#mcdd9ddb962" y="296.48254"/>
     <use style="fill:#ff7f0e;stroke:#ff7f0e;" x="399.301091" xlink:href="#mcdd9ddb962" y="297.881718"/>
     <use style="fill:#ff7f0e;stroke:#ff7f0e;" x="401.63439" xlink:href="#mcdd9ddb962" y="300.006234"/>
     <use style="fill:#ff7f0e;stroke:#ff7f0e;" x="403.967688" xlink:href="#mcdd9ddb962" y="299.318532"/>
    </g>
   </g>
   <g id="matplotlib.axis_1">
    <g id="xtick_1">
     <g id="line2d_1">
      <defs>
       <path d="M 0 0 
L 0 3.5 
" id="m7e5b193c2e" style="stroke:#000000;stroke-width:0.8;"/>
      </defs>
      <g>
       <use style="stroke:#000000;stroke-width:0.8;" x="53.972883" xlink:href="#m7e5b193c2e" y="313.508571"/>
      </g>
     </g>
     <g id="text_1">
      <!-- 0 -->
      <defs>
       <path d="M 31.78125 66.40625 
Q 24.171875 66.40625 20.328125 58.90625 
Q 16.5 51.421875 16.5 36.375 
Q 16.5 21.390625 20.328125 13.890625 
Q 24.171875 6.390625 31.78125 6.390625 
Q 39.453125 6.390625 43.28125 13.890625 
Q 47.125 21.390625 47.125 36.375 
Q 47.125 51.421875 43.28125 58.90625 
Q 39.453125 66.40625 31.78125 66.40625 
z
M 31.78125 74.21875 
Q 44.046875 74.21875 50.515625 64.515625 
Q 56.984375 54.828125 56.984375 36.375 
Q 56.984375 17.96875 50.515625 8.265625 
Q 44.046875 -1.421875 31.78125 -1.421875 
Q 19.53125 -1.421875 13.0625 8.265625 
Q 6.59375 17.96875 6.59375 36.375 
Q 6.59375 54.828125 13.0625 64.515625 
Q 19.53125 74.21875 31.78125 74.21875 
z
" id="DejaVuSans-48"/>
      </defs>
      <g transform="translate(50.791633 328.107009)scale(0.1 -0.1)">
       <use xlink:href="#DejaVuSans-48"/>
      </g>
     </g>
    </g>
    <g id="xtick_2">
     <g id="line2d_2">
      <g>
       <use style="stroke:#000000;stroke-width:0.8;" x="125.63018" xlink:href="#m7e5b193c2e" y="313.508571"/>
      </g>
     </g>
     <g id="text_2">
      <!-- 2 -->
      <defs>
       <path d="M 19.1875 8.296875 
L 53.609375 8.296875 
L 53.609375 0 
L 7.328125 0 
L 7.328125 8.296875 
Q 12.9375 14.109375 22.625 23.890625 
Q 32.328125 33.6875 34.8125 36.53125 
Q 39.546875 41.84375 41.421875 45.53125 
Q 43.3125 49.21875 43.3125 52.78125 
Q 43.3125 58.59375 39.234375 62.25 
Q 35.15625 65.921875 28.609375 65.921875 
Q 23.96875 65.921875 18.8125 64.3125 
Q 13.671875 62.703125 7.8125 59.421875 
L 7.8125 69.390625 
Q 13.765625 71.78125 18.9375 73 
Q 24.125 74.21875 28.421875 74.21875 
Q 39.75 74.21875 46.484375 68.546875 
Q 53.21875 62.890625 53.21875 53.421875 
Q 53.21875 48.921875 51.53125 44.890625 
Q 49.859375 40.875 45.40625 35.40625 
Q 44.1875 33.984375 37.640625 27.21875 
Q 31.109375 20.453125 19.1875 8.296875 
z
" id="DejaVuSans-50"/>
      </defs>
      <g transform="translate(122.44893 328.107009)scale(0.1 -0.1)">
       <use xlink:href="#DejaVuSans-50"/>
      </g>
     </g>
    </g>
    <g id="xtick_3">
     <g id="line2d_3">
      <g>
       <use style="stroke:#000000;stroke-width:0.8;" x="197.287476" xlink:href="#m7e5b193c2e" y="313.508571"/>
      </g>
     </g>
     <g id="text_3">
      <!-- 4 -->
      <defs>
       <path d="M 37.796875 64.3125 
L 12.890625 25.390625 
L 37.796875 25.390625 
z
M 35.203125 72.90625 
L 47.609375 72.90625 
L 47.609375 25.390625 
L 58.015625 25.390625 
L 58.015625 17.1875 
L 47.609375 17.1875 
L 47.609375 0 
L 37.796875 0 
L 37.796875 17.1875 
L 4.890625 17.1875 
L 4.890625 26.703125 
z
" id="DejaVuSans-52"/>
      </defs>
      <g transform="translate(194.106226 328.107009)scale(0.1 -0.1)">
       <use xlink:href="#DejaVuSans-52"/>
      </g>
     </g>
    </g>
    <g id="xtick_4">
     <g id="line2d_4">
      <g>
       <use style="stroke:#000000;stroke-width:0.8;" x="268.944773" xlink:href="#m7e5b193c2e" y="313.508571"/>
      </g>
     </g>
     <g id="text_4">
      <!-- 6 -->
      <defs>
       <path d="M 33.015625 40.375 
Q 26.375 40.375 22.484375 35.828125 
Q 18.609375 31.296875 18.609375 23.390625 
Q 18.609375 15.53125 22.484375 10.953125 
Q 26.375 6.390625 33.015625 6.390625 
Q 39.65625 6.390625 43.53125 10.953125 
Q 47.40625 15.53125 47.40625 23.390625 
Q 47.40625 31.296875 43.53125 35.828125 
Q 39.65625 40.375 33.015625 40.375 
z
M 52.59375 71.296875 
L 52.59375 62.3125 
Q 48.875 64.0625 45.09375 64.984375 
Q 41.3125 65.921875 37.59375 65.921875 
Q 27.828125 65.921875 22.671875 59.328125 
Q 17.53125 52.734375 16.796875 39.40625 
Q 19.671875 43.65625 24.015625 45.921875 
Q 28.375 48.1875 33.59375 48.1875 
Q 44.578125 48.1875 50.953125 41.515625 
Q 57.328125 34.859375 57.328125 23.390625 
Q 57.328125 12.15625 50.6875 5.359375 
Q 44.046875 -1.421875 33.015625 -1.421875 
Q 20.359375 -1.421875 13.671875 8.265625 
Q 6.984375 17.96875 6.984375 36.375 
Q 6.984375 53.65625 15.1875 63.9375 
Q 23.390625 74.21875 37.203125 74.21875 
Q 40.921875 74.21875 44.703125 73.484375 
Q 48.484375 72.75 52.59375 71.296875 
z
" id="DejaVuSans-54"/>
      </defs>
      <g transform="translate(265.763523 328.107009)scale(0.1 -0.1)">
       <use xlink:href="#DejaVuSans-54"/>
      </g>
     </g>
    </g>
    <g id="xtick_5">
     <g id="line2d_5">
      <g>
       <use style="stroke:#000000;stroke-width:0.8;" x="340.602069" xlink:href="#m7e5b193c2e" y="313.508571"/>
      </g>
     </g>
     <g id="text_5">
      <!-- 8 -->
      <defs>
       <path d="M 31.78125 34.625 
Q 24.75 34.625 20.71875 30.859375 
Q 16.703125 27.09375 16.703125 20.515625 
Q 16.703125 13.921875 20.71875 10.15625 
Q 24.75 6.390625 31.78125 6.390625 
Q 38.8125 6.390625 42.859375 10.171875 
Q 46.921875 13.96875 46.921875 20.515625 
Q 46.921875 27.09375 42.890625 30.859375 
Q 38.875 34.625 31.78125 34.625 
z
M 21.921875 38.8125 
Q 15.578125 40.375 12.03125 44.71875 
Q 8.5 49.078125 8.5 55.328125 
Q 8.5 64.0625 14.71875 69.140625 
Q 20.953125 74.21875 31.78125 74.21875 
Q 42.671875 74.21875 48.875 69.140625 
Q 55.078125 64.0625 55.078125 55.328125 
Q 55.078125 49.078125 51.53125 44.71875 
Q 48 40.375 41.703125 38.8125 
Q 48.828125 37.15625 52.796875 32.3125 
Q 56.78125 27.484375 56.78125 20.515625 
Q 56.78125 9.90625 50.3125 4.234375 
Q 43.84375 -1.421875 31.78125 -1.421875 
Q 19.734375 -1.421875 13.25 4.234375 
Q 6.78125 9.90625 6.78125 20.515625 
Q 6.78125 27.484375 10.78125 32.3125 
Q 14.796875 37.15625 21.921875 38.8125 
z
M 18.3125 54.390625 
Q 18.3125 48.734375 21.84375 45.5625 
Q 25.390625 42.390625 31.78125 42.390625 
Q 38.140625 42.390625 41.71875 45.5625 
Q 45.3125 48.734375 45.3125 54.390625 
Q 45.3125 60.0625 41.71875 63.234375 
Q 38.140625 66.40625 31.78125 66.40625 
Q 25.390625 66.40625 21.84375 63.234375 
Q 18.3125 60.0625 18.3125 54.390625 
z
" id="DejaVuSans-56"/>
      </defs>
      <g transform="translate(337.420819 328.107009)scale(0.1 -0.1)">
       <use xlink:href="#DejaVuSans-56"/>
      </g>
     </g>
    </g>
    <g id="xtick_6">
     <g id="line2d_6">
      <g>
       <use style="stroke:#000000;stroke-width:0.8;" x="412.259366" xlink:href="#m7e5b193c2e" y="313.508571"/>
      </g>
     </g>
     <g id="text_6">
      <!-- 10 -->
      <defs>
       <path d="M 12.40625 8.296875 
L 28.515625 8.296875 
L 28.515625 63.921875 
L 10.984375 60.40625 
L 10.984375 69.390625 
L 28.421875 72.90625 
L 38.28125 72.90625 
L 38.28125 8.296875 
L 54.390625 8.296875 
L 54.390625 0 
L 12.40625 0 
z
" id="DejaVuSans-49"/>
      </defs>
      <g transform="translate(405.896866 328.107009)scale(0.1 -0.1)">
       <use xlink:href="#DejaVuSans-49"/>
       <use x="63.623047" xlink:href="#DejaVuSans-48"/>
      </g>
     </g>
    </g>
    <g id="text_7">
     <!-- time [s] -->
     <defs>
      <path d="M 18.3125 70.21875 
L 18.3125 54.6875 
L 36.8125 54.6875 
L 36.8125 47.703125 
L 18.3125 47.703125 
L 18.3125 18.015625 
Q 18.3125 11.328125 20.140625 9.421875 
Q 21.96875 7.515625 27.59375 7.515625 
L 36.8125 7.515625 
L 36.8125 0 
L 27.59375 0 
Q 17.1875 0 13.234375 3.875 
Q 9.28125 7.765625 9.28125 18.015625 
L 9.28125 47.703125 
L 2.6875 47.703125 
L 2.6875 54.6875 
L 9.28125 54.6875 
L 9.28125 70.21875 
z
" id="DejaVuSans-116"/>
      <path d="M 9.421875 54.6875 
L 18.40625 54.6875 
L 18.40625 0 
L 9.421875 0 
z
M 9.421875 75.984375 
L 18.40625 75.984375 
L 18.40625 64.59375 
L 9.421875 64.59375 
z
" id="DejaVuSans-105"/>
      <path d="M 52 44.1875 
Q 55.375 50.25 60.0625 53.125 
Q 64.75 56 71.09375 56 
Q 79.640625 56 84.28125 50.015625 
Q 88.921875 44.046875 88.921875 33.015625 
L 88.921875 0 
L 79.890625 0 
L 79.890625 32.71875 
Q 79.890625 40.578125 77.09375 44.375 
Q 74.3125 48.1875 68.609375 48.1875 
Q 61.625 48.1875 57.5625 43.546875 
Q 53.515625 38.921875 53.515625 30.90625 
L 53.515625 0 
L 44.484375 0 
L 44.484375 32.71875 
Q 44.484375 40.625 41.703125 44.40625 
Q 38.921875 48.1875 33.109375 48.1875 
Q 26.21875 48.1875 22.15625 43.53125 
Q 18.109375 38.875 18.109375 30.90625 
L 18.109375 0 
L 9.078125 0 
L 9.078125 54.6875 
L 18.109375 54.6875 
L 18.109375 46.1875 
Q 21.1875 51.21875 25.484375 53.609375 
Q 29.78125 56 35.6875 56 
Q 41.65625 56 45.828125 52.96875 
Q 50 49.953125 52 44.1875 
z
" id="DejaVuSans-109"/>
      <path d="M 56.203125 29.59375 
L 56.203125 25.203125 
L 14.890625 25.203125 
Q 15.484375 15.921875 20.484375 11.0625 
Q 25.484375 6.203125 34.421875 6.203125 
Q 39.59375 6.203125 44.453125 7.46875 
Q 49.3125 8.734375 54.109375 11.28125 
L 54.109375 2.78125 
Q 49.265625 0.734375 44.1875 -0.34375 
Q 39.109375 -1.421875 33.890625 -1.421875 
Q 20.796875 -1.421875 13.15625 6.1875 
Q 5.515625 13.8125 5.515625 26.8125 
Q 5.515625 40.234375 12.765625 48.109375 
Q 20.015625 56 32.328125 56 
Q 43.359375 56 49.78125 48.890625 
Q 56.203125 41.796875 56.203125 29.59375 
z
M 47.21875 32.234375 
Q 47.125 39.59375 43.09375 43.984375 
Q 39.0625 48.390625 32.421875 48.390625 
Q 24.90625 48.390625 20.390625 44.140625 
Q 15.875 39.890625 15.1875 32.171875 
z
" id="DejaVuSans-101"/>
      <path id="DejaVuSans-32"/>
      <path d="M 8.59375 75.984375 
L 29.296875 75.984375 
L 29.296875 69 
L 17.578125 69 
L 17.578125 -6.203125 
L 29.296875 -6.203125 
L 29.296875 -13.1875 
L 8.59375 -13.1875 
z
" id="DejaVuSans-91"/>
      <path d="M 44.28125 53.078125 
L 44.28125 44.578125 
Q 40.484375 46.53125 36.375 47.5 
Q 32.28125 48.484375 27.875 48.484375 
Q 21.1875 48.484375 17.84375 46.4375 
Q 14.5 44.390625 14.5 40.28125 
Q 14.5 37.15625 16.890625 35.375 
Q 19.28125 33.59375 26.515625 31.984375 
L 29.59375 31.296875 
Q 39.15625 29.25 43.1875 25.515625 
Q 47.21875 21.78125 47.21875 15.09375 
Q 47.21875 7.46875 41.1875 3.015625 
Q 35.15625 -1.421875 24.609375 -1.421875 
Q 20.21875 -1.421875 15.453125 -0.5625 
Q 10.6875 0.296875 5.421875 2 
L 5.421875 11.28125 
Q 10.40625 8.6875 15.234375 7.390625 
Q 20.0625 6.109375 24.8125 6.109375 
Q 31.15625 6.109375 34.5625 8.28125 
Q 37.984375 10.453125 37.984375 14.40625 
Q 37.984375 18.0625 35.515625 20.015625 
Q 33.0625 21.96875 24.703125 23.78125 
L 21.578125 24.515625 
Q 13.234375 26.265625 9.515625 29.90625 
Q 5.8125 33.546875 5.8125 39.890625 
Q 5.8125 47.609375 11.28125 51.796875 
Q 16.75 56 26.8125 56 
Q 31.78125 56 36.171875 55.265625 
Q 40.578125 54.546875 44.28125 53.078125 
z
" id="DejaVuSans-115"/>
      <path d="M 30.421875 75.984375 
L 30.421875 -13.1875 
L 9.71875 -13.1875 
L 9.71875 -6.203125 
L 21.390625 -6.203125 
L 21.390625 69 
L 9.71875 69 
L 9.71875 75.984375 
z
" id="DejaVuSans-93"/>
     </defs>
     <g transform="translate(209.578879 341.785134)scale(0.1 -0.1)">
      <use xlink:href="#DejaVuSans-116"/>
      <use x="39.208984" xlink:href="#DejaVuSans-105"/>
      <use x="66.992188" xlink:href="#DejaVuSans-109"/>
      <use x="164.404297" xlink:href="#DejaVuSans-101"/>
      <use x="225.927734" xlink:href="#DejaVuSans-32"/>
      <use x="257.714844" xlink:href="#DejaVuSans-91"/>
      <use x="296.728516" xlink:href="#DejaVuSans-115"/>
      <use x="348.828125" xlink:href="#DejaVuSans-93"/>
     </g>
    </g>
   </g>
   <g id="matplotlib.axis_2">
    <g id="ytick_1">
     <g id="line2d_7">
      <defs>
       <path d="M 0 0 
L -3.5 0 
" id="m8b41b3105c" style="stroke:#000000;stroke-width:0.8;"/>
      </defs>
      <g>
       <use style="stroke:#000000;stroke-width:0.8;" x="36.473143" xlink:href="#m8b41b3105c" y="292.136987"/>
      </g>
     </g>
     <g id="text_8">
      <!-- 0 -->
      <g transform="translate(23.110643 295.936206)scale(0.1 -0.1)">
       <use xlink:href="#DejaVuSans-48"/>
      </g>
     </g>
    </g>
    <g id="ytick_2">
     <g id="line2d_8">
      <g>
       <use style="stroke:#000000;stroke-width:0.8;" x="36.473143" xlink:href="#m8b41b3105c" y="238.077411"/>
      </g>
     </g>
     <g id="text_9">
      <!-- 2 -->
      <g transform="translate(23.110643 241.87663)scale(0.1 -0.1)">
       <use xlink:href="#DejaVuSans-50"/>
      </g>
     </g>
    </g>
    <g id="ytick_3">
     <g id="line2d_9">
      <g>
       <use style="stroke:#000000;stroke-width:0.8;" x="36.473143" xlink:href="#m8b41b3105c" y="184.017834"/>
      </g>
     </g>
     <g id="text_10">
      <!-- 4 -->
      <g transform="translate(23.110643 187.817053)scale(0.1 -0.1)">
       <use xlink:href="#DejaVuSans-52"/>
      </g>
     </g>
    </g>
    <g id="ytick_4">
     <g id="line2d_10">
      <g>
       <use style="stroke:#000000;stroke-width:0.8;" x="36.473143" xlink:href="#m8b41b3105c" y="129.958258"/>
      </g>
     </g>
     <g id="text_11">
      <!-- 6 -->
      <g transform="translate(23.110643 133.757477)scale(0.1 -0.1)">
       <use xlink:href="#DejaVuSans-54"/>
      </g>
     </g>
    </g>
    <g id="ytick_5">
     <g id="line2d_11">
      <g>
       <use style="stroke:#000000;stroke-width:0.8;" x="36.473143" xlink:href="#m8b41b3105c" y="75.898681"/>
      </g>
     </g>
     <g id="text_12">
      <!-- 8 -->
      <g transform="translate(23.110643 79.6979)scale(0.1 -0.1)">
       <use xlink:href="#DejaVuSans-56"/>
      </g>
     </g>
    </g>
    <g id="ytick_6">
     <g id="line2d_12">
      <g>
       <use style="stroke:#000000;stroke-width:0.8;" x="36.473143" xlink:href="#m8b41b3105c" y="21.839105"/>
      </g>
     </g>
     <g id="text_13">
      <!-- 10 -->
      <g transform="translate(16.748143 25.638324)scale(0.1 -0.1)">
       <use xlink:href="#DejaVuSans-49"/>
       <use x="63.623047" xlink:href="#DejaVuSans-48"/>
      </g>
     </g>
    </g>
    <g id="text_14">
     <!-- velocity [m/s] -->
     <defs>
      <path d="M 2.984375 54.6875 
L 12.5 54.6875 
L 29.59375 8.796875 
L 46.6875 54.6875 
L 56.203125 54.6875 
L 35.6875 0 
L 23.484375 0 
z
" id="DejaVuSans-118"/>
      <path d="M 9.421875 75.984375 
L 18.40625 75.984375 
L 18.40625 0 
L 9.421875 0 
z
" id="DejaVuSans-108"/>
      <path d="M 30.609375 48.390625 
Q 23.390625 48.390625 19.1875 42.75 
Q 14.984375 37.109375 14.984375 27.296875 
Q 14.984375 17.484375 19.15625 11.84375 
Q 23.34375 6.203125 30.609375 6.203125 
Q 37.796875 6.203125 41.984375 11.859375 
Q 46.1875 17.53125 46.1875 27.296875 
Q 46.1875 37.015625 41.984375 42.703125 
Q 37.796875 48.390625 30.609375 48.390625 
z
M 30.609375 56 
Q 42.328125 56 49.015625 48.375 
Q 55.71875 40.765625 55.71875 27.296875 
Q 55.71875 13.875 49.015625 6.21875 
Q 42.328125 -1.421875 30.609375 -1.421875 
Q 18.84375 -1.421875 12.171875 6.21875 
Q 5.515625 13.875 5.515625 27.296875 
Q 5.515625 40.765625 12.171875 48.375 
Q 18.84375 56 30.609375 56 
z
" id="DejaVuSans-111"/>
      <path d="M 48.78125 52.59375 
L 48.78125 44.1875 
Q 44.96875 46.296875 41.140625 47.34375 
Q 37.3125 48.390625 33.40625 48.390625 
Q 24.65625 48.390625 19.8125 42.84375 
Q 14.984375 37.3125 14.984375 27.296875 
Q 14.984375 17.28125 19.8125 11.734375 
Q 24.65625 6.203125 33.40625 6.203125 
Q 37.3125 6.203125 41.140625 7.25 
Q 44.96875 8.296875 48.78125 10.40625 
L 48.78125 2.09375 
Q 45.015625 0.34375 40.984375 -0.53125 
Q 36.96875 -1.421875 32.421875 -1.421875 
Q 20.0625 -1.421875 12.78125 6.34375 
Q 5.515625 14.109375 5.515625 27.296875 
Q 5.515625 40.671875 12.859375 48.328125 
Q 20.21875 56 33.015625 56 
Q 37.15625 56 41.109375 55.140625 
Q 45.0625 54.296875 48.78125 52.59375 
z
" id="DejaVuSans-99"/>
      <path d="M 32.171875 -5.078125 
Q 28.375 -14.84375 24.75 -17.8125 
Q 21.140625 -20.796875 15.09375 -20.796875 
L 7.90625 -20.796875 
L 7.90625 -13.28125 
L 13.1875 -13.28125 
Q 16.890625 -13.28125 18.9375 -11.515625 
Q 21 -9.765625 23.484375 -3.21875 
L 25.09375 0.875 
L 2.984375 54.6875 
L 12.5 54.6875 
L 29.59375 11.921875 
L 46.6875 54.6875 
L 56.203125 54.6875 
z
" id="DejaVuSans-121"/>
      <path d="M 25.390625 72.90625 
L 33.6875 72.90625 
L 8.296875 -9.28125 
L 0 -9.28125 
z
" id="DejaVuSans-47"/>
     </defs>
     <g transform="translate(10.668455 199.175045)rotate(-90)scale(0.1 -0.1)">
      <use xlink:href="#DejaVuSans-118"/>
      <use x="59.179688" xlink:href="#DejaVuSans-101"/>
      <use x="120.703125" xlink:href="#DejaVuSans-108"/>
      <use x="148.486328" xlink:href="#DejaVuSans-111"/>
      <use x="209.667969" xlink:href="#DejaVuSans-99"/>
      <use x="264.648438" xlink:href="#DejaVuSans-105"/>
      <use x="292.431641" xlink:href="#DejaVuSans-116"/>
      <use x="331.640625" xlink:href="#DejaVuSans-121"/>
      <use x="390.820312" xlink:href="#DejaVuSans-32"/>
      <use x="422.607422" xlink:href="#DejaVuSans-91"/>
      <use x="461.621094" xlink:href="#DejaVuSans-109"/>
      <use x="559.033203" xlink:href="#DejaVuSans-47"/>
      <use x="592.724609" xlink:href="#DejaVuSans-115"/>
      <use x="644.824219" xlink:href="#DejaVuSans-93"/>
     </g>
    </g>
   </g>
   <g id="patch_3">
    <path d="M 36.473143 313.508571 
L 36.473143 16.457143 
" style="fill:none;stroke:#000000;stroke-linecap:square;stroke-linejoin:miter;stroke-width:0.8;"/>
   </g>
   <g id="patch_4">
    <path d="M 421.467429 313.508571 
L 421.467429 16.457143 
" style="fill:none;stroke:#000000;stroke-linecap:square;stroke-linejoin:miter;stroke-width:0.8;"/>
   </g>
   <g id="patch_5">
    <path d="M 36.473143 313.508571 
L 421.467429 313.508571 
" style="fill:none;stroke:#000000;stroke-linecap:square;stroke-linejoin:miter;stroke-width:0.8;"/>
   </g>
   <g id="patch_6">
    <path d="M 36.473143 16.457143 
L 421.467429 16.457143 
" style="fill:none;stroke:#000000;stroke-linecap:square;stroke-linejoin:miter;stroke-width:0.8;"/>
   </g>
   <g id="text_15">
    <!-- Bag 10 -->
    <defs>
     <path d="M 19.671875 34.8125 
L 19.671875 8.109375 
L 35.5 8.109375 
Q 43.453125 8.109375 47.28125 11.40625 
Q 51.125 14.703125 51.125 21.484375 
Q 51.125 28.328125 47.28125 31.5625 
Q 43.453125 34.8125 35.5 34.8125 
z
M 19.671875 64.796875 
L 19.671875 42.828125 
L 34.28125 42.828125 
Q 41.5 42.828125 45.03125 45.53125 
Q 48.578125 48.25 48.578125 53.8125 
Q 48.578125 59.328125 45.03125 62.0625 
Q 41.5 64.796875 34.28125 64.796875 
z
M 9.8125 72.90625 
L 35.015625 72.90625 
Q 46.296875 72.90625 52.390625 68.21875 
Q 58.5 63.53125 58.5 54.890625 
Q 58.5 48.1875 55.375 44.234375 
Q 52.25 40.28125 46.1875 39.3125 
Q 53.46875 37.75 57.5 32.78125 
Q 61.53125 27.828125 61.53125 20.40625 
Q 61.53125 10.640625 54.890625 5.3125 
Q 48.25 0 35.984375 0 
L 9.8125 0 
z
" id="DejaVuSans-66"/>
     <path d="M 34.28125 27.484375 
Q 23.390625 27.484375 19.1875 25 
Q 14.984375 22.515625 14.984375 16.5 
Q 14.984375 11.71875 18.140625 8.90625 
Q 21.296875 6.109375 26.703125 6.109375 
Q 34.1875 6.109375 38.703125 11.40625 
Q 43.21875 16.703125 43.21875 25.484375 
L 43.21875 27.484375 
z
M 52.203125 31.203125 
L 52.203125 0 
L 43.21875 0 
L 43.21875 8.296875 
Q 40.140625 3.328125 35.546875 0.953125 
Q 30.953125 -1.421875 24.3125 -1.421875 
Q 15.921875 -1.421875 10.953125 3.296875 
Q 6 8.015625 6 15.921875 
Q 6 25.140625 12.171875 29.828125 
Q 18.359375 34.515625 30.609375 34.515625 
L 43.21875 34.515625 
L 43.21875 35.40625 
Q 43.21875 41.609375 39.140625 45 
Q 35.0625 48.390625 27.6875 48.390625 
Q 23 48.390625 18.546875 47.265625 
Q 14.109375 46.140625 10.015625 43.890625 
L 10.015625 52.203125 
Q 14.9375 54.109375 19.578125 55.046875 
Q 24.21875 56 28.609375 56 
Q 40.484375 56 46.34375 49.84375 
Q 52.203125 43.703125 52.203125 31.203125 
z
" id="DejaVuSans-97"/>
     <path d="M 45.40625 27.984375 
Q 45.40625 37.75 41.375 43.109375 
Q 37.359375 48.484375 30.078125 48.484375 
Q 22.859375 48.484375 18.828125 43.109375 
Q 14.796875 37.75 14.796875 27.984375 
Q 14.796875 18.265625 18.828125 12.890625 
Q 22.859375 7.515625 30.078125 7.515625 
Q 37.359375 7.515625 41.375 12.890625 
Q 45.40625 18.265625 45.40625 27.984375 
z
M 54.390625 6.78125 
Q 54.390625 -7.171875 48.1875 -13.984375 
Q 42 -20.796875 29.203125 -20.796875 
Q 24.46875 -20.796875 20.265625 -20.09375 
Q 16.0625 -19.390625 12.109375 -17.921875 
L 12.109375 -9.1875 
Q 16.0625 -11.328125 19.921875 -12.34375 
Q 23.78125 -13.375 27.78125 -13.375 
Q 36.625 -13.375 41.015625 -8.765625 
Q 45.40625 -4.15625 45.40625 5.171875 
L 45.40625 9.625 
Q 42.625 4.78125 38.28125 2.390625 
Q 33.9375 0 27.875 0 
Q 17.828125 0 11.671875 7.65625 
Q 5.515625 15.328125 5.515625 27.984375 
Q 5.515625 40.671875 11.671875 48.328125 
Q 17.828125 56 27.875 56 
Q 33.9375 56 38.28125 53.609375 
Q 42.625 51.21875 45.40625 46.390625 
L 45.40625 54.6875 
L 54.390625 54.6875 
z
" id="DejaVuSans-103"/>
    </defs>
    <g transform="translate(207.825911 10.457143)scale(0.12 -0.12)">
     <use xlink:href="#DejaVuSans-66"/>
     <use x="68.603516" xlink:href="#DejaVuSans-97"/>
     <use x="129.882812" xlink:href="#DejaVuSans-103"/>
     <use x="193.359375" xlink:href="#DejaVuSans-32"/>
     <use x="225.146484" xlink:href="#DejaVuSans-49"/>
     <use x="288.769531" xlink:href="#DejaVuSans-48"/>
    </g>
   </g>
   <g id="legend_1">
    <g id="patch_7">
     <path d="M 43.473143 53.813393 
L 121.84033 53.813393 
Q 123.84033 53.813393 123.84033 51.813393 
L 123.84033 23.457143 
Q 123.84033 21.457143 121.84033 21.457143 
L 43.473143 21.457143 
Q 41.473143 21.457143 41.473143 23.457143 
L 41.473143 51.813393 
Q 41.473143 53.813393 43.473143 53.813393 
z
" style="fill:#ffffff;opacity:0.8;stroke:#cccccc;stroke-linejoin:miter;"/>
    </g>
    <g id="PathCollection_3">
     <g>
      <use style="fill:#1f77b4;stroke:#1f77b4;" x="55.473143" xlink:href="#mbbfaa15563" y="30.43058"/>
     </g>
    </g>
    <g id="text_16">
     <!-- Radar -->
     <defs>
      <path d="M 44.390625 34.1875 
Q 47.5625 33.109375 50.5625 29.59375 
Q 53.5625 26.078125 56.59375 19.921875 
L 66.609375 0 
L 56 0 
L 46.6875 18.703125 
Q 43.0625 26.03125 39.671875 28.421875 
Q 36.28125 30.8125 30.421875 30.8125 
L 19.671875 30.8125 
L 19.671875 0 
L 9.8125 0 
L 9.8125 72.90625 
L 32.078125 72.90625 
Q 44.578125 72.90625 50.734375 67.671875 
Q 56.890625 62.453125 56.890625 51.90625 
Q 56.890625 45.015625 53.6875 40.46875 
Q 50.484375 35.9375 44.390625 34.1875 
z
M 19.671875 64.796875 
L 19.671875 38.921875 
L 32.078125 38.921875 
Q 39.203125 38.921875 42.84375 42.21875 
Q 46.484375 45.515625 46.484375 51.90625 
Q 46.484375 58.296875 42.84375 61.546875 
Q 39.203125 64.796875 32.078125 64.796875 
z
" id="DejaVuSans-82"/>
      <path d="M 45.40625 46.390625 
L 45.40625 75.984375 
L 54.390625 75.984375 
L 54.390625 0 
L 45.40625 0 
L 45.40625 8.203125 
Q 42.578125 3.328125 38.25 0.953125 
Q 33.9375 -1.421875 27.875 -1.421875 
Q 17.96875 -1.421875 11.734375 6.484375 
Q 5.515625 14.40625 5.515625 27.296875 
Q 5.515625 40.1875 11.734375 48.09375 
Q 17.96875 56 27.875 56 
Q 33.9375 56 38.25 53.625 
Q 42.578125 51.265625 45.40625 46.390625 
z
M 14.796875 27.296875 
Q 14.796875 17.390625 18.875 11.75 
Q 22.953125 6.109375 30.078125 6.109375 
Q 37.203125 6.109375 41.296875 11.75 
Q 45.40625 17.390625 45.40625 27.296875 
Q 45.40625 37.203125 41.296875 42.84375 
Q 37.203125 48.484375 30.078125 48.484375 
Q 22.953125 48.484375 18.875 42.84375 
Q 14.796875 37.203125 14.796875 27.296875 
z
" id="DejaVuSans-100"/>
      <path d="M 41.109375 46.296875 
Q 39.59375 47.171875 37.8125 47.578125 
Q 36.03125 48 33.890625 48 
Q 26.265625 48 22.1875 43.046875 
Q 18.109375 38.09375 18.109375 28.8125 
L 18.109375 0 
L 9.078125 0 
L 9.078125 54.6875 
L 18.109375 54.6875 
L 18.109375 46.1875 
Q 20.953125 51.171875 25.484375 53.578125 
Q 30.03125 56 36.53125 56 
Q 37.453125 56 38.578125 55.875 
Q 39.703125 55.765625 41.0625 55.515625 
z
" id="DejaVuSans-114"/>
     </defs>
     <g transform="translate(73.473143 33.05558)scale(0.1 -0.1)">
      <use xlink:href="#DejaVuSans-82"/>
      <use x="67.232422" xlink:href="#DejaVuSans-97"/>
      <use x="128.511719" xlink:href="#DejaVuSans-100"/>
      <use x="191.988281" xlink:href="#DejaVuSans-97"/>
      <use x="253.267578" xlink:href="#DejaVuSans-114"/>
     </g>
    </g>
    <g id="PathCollection_4">
     <g>
      <use style="fill:#ff7f0e;stroke:#ff7f0e;" x="55.473143" xlink:href="#mcdd9ddb962" y="45.108705"/>
     </g>
    </g>
    <g id="text_17">
     <!-- Optitrack -->
     <defs>
      <path d="M 39.40625 66.21875 
Q 28.65625 66.21875 22.328125 58.203125 
Q 16.015625 50.203125 16.015625 36.375 
Q 16.015625 22.609375 22.328125 14.59375 
Q 28.65625 6.59375 39.40625 6.59375 
Q 50.140625 6.59375 56.421875 14.59375 
Q 62.703125 22.609375 62.703125 36.375 
Q 62.703125 50.203125 56.421875 58.203125 
Q 50.140625 66.21875 39.40625 66.21875 
z
M 39.40625 74.21875 
Q 54.734375 74.21875 63.90625 63.9375 
Q 73.09375 53.65625 73.09375 36.375 
Q 73.09375 19.140625 63.90625 8.859375 
Q 54.734375 -1.421875 39.40625 -1.421875 
Q 24.03125 -1.421875 14.8125 8.828125 
Q 5.609375 19.09375 5.609375 36.375 
Q 5.609375 53.65625 14.8125 63.9375 
Q 24.03125 74.21875 39.40625 74.21875 
z
" id="DejaVuSans-79"/>
      <path d="M 18.109375 8.203125 
L 18.109375 -20.796875 
L 9.078125 -20.796875 
L 9.078125 54.6875 
L 18.109375 54.6875 
L 18.109375 46.390625 
Q 20.953125 51.265625 25.265625 53.625 
Q 29.59375 56 35.59375 56 
Q 45.5625 56 51.78125 48.09375 
Q 58.015625 40.1875 58.015625 27.296875 
Q 58.015625 14.40625 51.78125 6.484375 
Q 45.5625 -1.421875 35.59375 -1.421875 
Q 29.59375 -1.421875 25.265625 0.953125 
Q 20.953125 3.328125 18.109375 8.203125 
z
M 48.6875 27.296875 
Q 48.6875 37.203125 44.609375 42.84375 
Q 40.53125 48.484375 33.40625 48.484375 
Q 26.265625 48.484375 22.1875 42.84375 
Q 18.109375 37.203125 18.109375 27.296875 
Q 18.109375 17.390625 22.1875 11.75 
Q 26.265625 6.109375 33.40625 6.109375 
Q 40.53125 6.109375 44.609375 11.75 
Q 48.6875 17.390625 48.6875 27.296875 
z
" id="DejaVuSans-112"/>
      <path d="M 9.078125 75.984375 
L 18.109375 75.984375 
L 18.109375 31.109375 
L 44.921875 54.6875 
L 56.390625 54.6875 
L 27.390625 29.109375 
L 57.625 0 
L 45.90625 0 
L 18.109375 26.703125 
L 18.109375 0 
L 9.078125 0 
z
" id="DejaVuSans-107"/>
     </defs>
     <g transform="translate(73.473143 47.733705)scale(0.1 -0.1)">
      <use xlink:href="#DejaVuSans-79"/>
      <use x="78.710938" xlink:href="#DejaVuSans-112"/>
      <use x="142.1875" xlink:href="#DejaVuSans-116"/>
      <use x="181.396484" xlink:href="#DejaVuSans-105"/>
      <use x="209.179688" xlink:href="#DejaVuSans-116"/>
      <use x="248.388672" xlink:href="#DejaVuSans-114"/>
      <use x="289.501953" xlink:href="#DejaVuSans-97"/>
      <use x="350.78125" xlink:href="#DejaVuSans-99"/>
      <use x="405.761719" xlink:href="#DejaVuSans-107"/>
     </g>
    </g>
   </g>
  </g>
 </g>
 <defs>
  <clipPath id="p14dbfb938a">
   <rect height="297.051429" width="384.994286" x="36.473143" y="16.457143"/>
  </clipPath>
 </defs>
</svg>
