<?xml version="1.0" encoding="utf-8" standalone="no"?>
<!DOCTYPE svg PUBLIC "-//W3C//DTD SVG 1.1//EN"
  "http://www.w3.org/Graphics/SVG/1.1/DTD/svg11.dtd">
<!-- Created with matplotlib (https://matplotlib.org/) -->
<svg height="345.6pt" version="1.1" viewBox="0 0 388.08 345.6" width="388.08pt" xmlns="http://www.w3.org/2000/svg" xmlns:xlink="http://www.w3.org/1999/xlink">
 <defs>
  <style type="text/css">
*{stroke-linecap:butt;stroke-linejoin:round;}
  </style>
 </defs>
 <g id="figure_1">
  <g id="patch_1">
   <path d="M 0 345.6 
L 388.08 345.6 
L 388.08 0 
L 0 0 
z
" style="fill:#ffffff;"/>
  </g>
  <g id="axes_1">
   <g id="patch_2">
    <path d="M 45.276 312.685714 
L 383.46 312.685714 
L 383.46 18.925714 
L 45.276 18.925714 
z
" style="fill:#ffffff;"/>
   </g>
   <g id="PathCollection_1">
    <defs>
     <path d="M 0 3 
C 0.795609 3 1.55874 2.683901 2.12132 2.12132 
C 2.683901 1.55874 3 0.795609 3 0 
C 3 -0.795609 2.683901 -1.55874 2.12132 -2.12132 
C 1.55874 -2.683901 0.795609 -3 0 -3 
C -0.795609 -3 -1.55874 -2.683901 -2.12132 -2.12132 
C -2.683901 -1.55874 -3 -0.795609 -3 0 
C -3 0.795609 -2.683901 1.55874 -2.12132 2.12132 
C -1.55874 2.683901 -0.795609 3 0 3 
z
" id="m0ee276b302" style="stroke:#1f77b4;"/>
    </defs>
    <g clip-path="url(#p4719bba062)">
     <use style="fill:#1f77b4;stroke:#1f77b4;" x="60.648" xlink:href="#m0ee276b302" y="190.165221"/>
     <use style="fill:#1f77b4;stroke:#1f77b4;" x="62.959579" xlink:href="#m0ee276b302" y="196.288964"/>
     <use style="fill:#1f77b4;stroke:#1f77b4;" x="65.271158" xlink:href="#m0ee276b302" y="196.098183"/>
     <use style="fill:#1f77b4;stroke:#1f77b4;" x="67.582737" xlink:href="#m0ee276b302" y="193.353524"/>
     <use style="fill:#1f77b4;stroke:#1f77b4;" x="69.894316" xlink:href="#m0ee276b302" y="192.199277"/>
     <use style="fill:#1f77b4;stroke:#1f77b4;" x="72.205895" xlink:href="#m0ee276b302" y="194.096904"/>
     <use style="fill:#1f77b4;stroke:#1f77b4;" x="74.517474" xlink:href="#m0ee276b302" y="192.085043"/>
     <use style="fill:#1f77b4;stroke:#1f77b4;" x="76.829053" xlink:href="#m0ee276b302" y="194.073419"/>
     <use style="fill:#1f77b4;stroke:#1f77b4;" x="79.140632" xlink:href="#m0ee276b302" y="190.262602"/>
     <use style="fill:#1f77b4;stroke:#1f77b4;" x="81.452211" xlink:href="#m0ee276b302" y="196.394329"/>
     <use style="fill:#1f77b4;stroke:#1f77b4;" x="83.763789" xlink:href="#m0ee276b302" y="196.081991"/>
     <use style="fill:#1f77b4;stroke:#1f77b4;" x="86.075368" xlink:href="#m0ee276b302" y="188.376632"/>
     <use style="fill:#1f77b4;stroke:#1f77b4;" x="88.386947" xlink:href="#m0ee276b302" y="189.548663"/>
     <use style="fill:#1f77b4;stroke:#1f77b4;" x="90.698526" xlink:href="#m0ee276b302" y="196.877719"/>
     <use style="fill:#1f77b4;stroke:#1f77b4;" x="93.010105" xlink:href="#m0ee276b302" y="193.612837"/>
     <use style="fill:#1f77b4;stroke:#1f77b4;" x="95.321684" xlink:href="#m0ee276b302" y="196.600283"/>
     <use style="fill:#1f77b4;stroke:#1f77b4;" x="97.633263" xlink:href="#m0ee276b302" y="197.421153"/>
     <use style="fill:#1f77b4;stroke:#1f77b4;" x="99.944842" xlink:href="#m0ee276b302" y="198.153529"/>
     <use style="fill:#1f77b4;stroke:#1f77b4;" x="102.256421" xlink:href="#m0ee276b302" y="193.195411"/>
     <use style="fill:#1f77b4;stroke:#1f77b4;" x="104.568" xlink:href="#m0ee276b302" y="194.157712"/>
     <use style="fill:#1f77b4;stroke:#1f77b4;" x="106.879579" xlink:href="#m0ee276b302" y="195.19867"/>
     <use style="fill:#1f77b4;stroke:#1f77b4;" x="109.191158" xlink:href="#m0ee276b302" y="187.787547"/>
     <use style="fill:#1f77b4;stroke:#1f77b4;" x="111.502737" xlink:href="#m0ee276b302" y="191.822196"/>
     <use style="fill:#1f77b4;stroke:#1f77b4;" x="113.814316" xlink:href="#m0ee276b302" y="189.304556"/>
     <use style="fill:#1f77b4;stroke:#1f77b4;" x="116.125895" xlink:href="#m0ee276b302" y="197.794484"/>
     <use style="fill:#1f77b4;stroke:#1f77b4;" x="118.437474" xlink:href="#m0ee276b302" y="197.772348"/>
     <use style="fill:#1f77b4;stroke:#1f77b4;" x="120.749053" xlink:href="#m0ee276b302" y="201.225546"/>
     <use style="fill:#1f77b4;stroke:#1f77b4;" x="123.060632" xlink:href="#m0ee276b302" y="193.850551"/>
     <use style="fill:#1f77b4;stroke:#1f77b4;" x="125.372211" xlink:href="#m0ee276b302" y="193.276459"/>
     <use style="fill:#1f77b4;stroke:#1f77b4;" x="127.683789" xlink:href="#m0ee276b302" y="187.567972"/>
     <use style="fill:#1f77b4;stroke:#1f77b4;" x="129.995368" xlink:href="#m0ee276b302" y="93.097358"/>
     <use style="fill:#1f77b4;stroke:#1f77b4;" x="132.306947" xlink:href="#m0ee276b302" y="116.976226"/>
     <use style="fill:#1f77b4;stroke:#1f77b4;" x="134.618526" xlink:href="#m0ee276b302" y="196.129279"/>
     <use style="fill:#1f77b4;stroke:#1f77b4;" x="136.930105" xlink:href="#m0ee276b302" y="197.351504"/>
     <use style="fill:#1f77b4;stroke:#1f77b4;" x="139.241684" xlink:href="#m0ee276b302" y="118.071786"/>
     <use style="fill:#1f77b4;stroke:#1f77b4;" x="141.553263" xlink:href="#m0ee276b302" y="205.069181"/>
     <use style="fill:#1f77b4;stroke:#1f77b4;" x="143.864842" xlink:href="#m0ee276b302" y="183.784131"/>
     <use style="fill:#1f77b4;stroke:#1f77b4;" x="146.176421" xlink:href="#m0ee276b302" y="192.42532"/>
     <use style="fill:#1f77b4;stroke:#1f77b4;" x="148.488" xlink:href="#m0ee276b302" y="196.550338"/>
     <use style="fill:#1f77b4;stroke:#1f77b4;" x="150.799579" xlink:href="#m0ee276b302" y="195.158723"/>
     <use style="fill:#1f77b4;stroke:#1f77b4;" x="153.111158" xlink:href="#m0ee276b302" y="193.922487"/>
     <use style="fill:#1f77b4;stroke:#1f77b4;" x="155.422737" xlink:href="#m0ee276b302" y="192.097348"/>
     <use style="fill:#1f77b4;stroke:#1f77b4;" x="157.734316" xlink:href="#m0ee276b302" y="186.032022"/>
     <use style="fill:#1f77b4;stroke:#1f77b4;" x="160.045895" xlink:href="#m0ee276b302" y="198.674049"/>
     <use style="fill:#1f77b4;stroke:#1f77b4;" x="162.357474" xlink:href="#m0ee276b302" y="196.088335"/>
     <use style="fill:#1f77b4;stroke:#1f77b4;" x="164.669053" xlink:href="#m0ee276b302" y="196.916124"/>
     <use style="fill:#1f77b4;stroke:#1f77b4;" x="166.980632" xlink:href="#m0ee276b302" y="106.655574"/>
     <use style="fill:#1f77b4;stroke:#1f77b4;" x="169.292211" xlink:href="#m0ee276b302" y="194.153773"/>
     <use style="fill:#1f77b4;stroke:#1f77b4;" x="171.603789" xlink:href="#m0ee276b302" y="192.961205"/>
     <use style="fill:#1f77b4;stroke:#1f77b4;" x="173.915368" xlink:href="#m0ee276b302" y="191.99107"/>
     <use style="fill:#1f77b4;stroke:#1f77b4;" x="176.226947" xlink:href="#m0ee276b302" y="192.992192"/>
     <use style="fill:#1f77b4;stroke:#1f77b4;" x="178.538526" xlink:href="#m0ee276b302" y="200.672727"/>
     <use style="fill:#1f77b4;stroke:#1f77b4;" x="180.850105" xlink:href="#m0ee276b302" y="194.054641"/>
     <use style="fill:#1f77b4;stroke:#1f77b4;" x="183.161684" xlink:href="#m0ee276b302" y="198.348587"/>
     <use style="fill:#1f77b4;stroke:#1f77b4;" x="185.473263" xlink:href="#m0ee276b302" y="204.152951"/>
     <use style="fill:#1f77b4;stroke:#1f77b4;" x="187.784842" xlink:href="#m0ee276b302" y="198.396742"/>
     <use style="fill:#1f77b4;stroke:#1f77b4;" x="190.096421" xlink:href="#m0ee276b302" y="214.212361"/>
     <use style="fill:#1f77b4;stroke:#1f77b4;" x="192.408" xlink:href="#m0ee276b302" y="204.037957"/>
     <use style="fill:#1f77b4;stroke:#1f77b4;" x="194.719579" xlink:href="#m0ee276b302" y="197.246218"/>
     <use style="fill:#1f77b4;stroke:#1f77b4;" x="197.031158" xlink:href="#m0ee276b302" y="203.553741"/>
     <use style="fill:#1f77b4;stroke:#1f77b4;" x="199.342737" xlink:href="#m0ee276b302" y="203.936444"/>
     <use style="fill:#1f77b4;stroke:#1f77b4;" x="201.654316" xlink:href="#m0ee276b302" y="198.578372"/>
     <use style="fill:#1f77b4;stroke:#1f77b4;" x="203.965895" xlink:href="#m0ee276b302" y="197.350878"/>
     <use style="fill:#1f77b4;stroke:#1f77b4;" x="206.277474" xlink:href="#m0ee276b302" y="202.343095"/>
     <use style="fill:#1f77b4;stroke:#1f77b4;" x="208.589053" xlink:href="#m0ee276b302" y="208.505327"/>
     <use style="fill:#1f77b4;stroke:#1f77b4;" x="210.900632" xlink:href="#m0ee276b302" y="200.400221"/>
     <use style="fill:#1f77b4;stroke:#1f77b4;" x="213.212211" xlink:href="#m0ee276b302" y="203.356517"/>
     <use style="fill:#1f77b4;stroke:#1f77b4;" x="215.523789" xlink:href="#m0ee276b302" y="206.180454"/>
     <use style="fill:#1f77b4;stroke:#1f77b4;" x="217.835368" xlink:href="#m0ee276b302" y="202.728922"/>
     <use style="fill:#1f77b4;stroke:#1f77b4;" x="220.146947" xlink:href="#m0ee276b302" y="203.025731"/>
     <use style="fill:#1f77b4;stroke:#1f77b4;" x="222.458526" xlink:href="#m0ee276b302" y="201.100351"/>
     <use style="fill:#1f77b4;stroke:#1f77b4;" x="224.770105" xlink:href="#m0ee276b302" y="201.009865"/>
     <use style="fill:#1f77b4;stroke:#1f77b4;" x="227.081684" xlink:href="#m0ee276b302" y="201.909146"/>
     <use style="fill:#1f77b4;stroke:#1f77b4;" x="229.393263" xlink:href="#m0ee276b302" y="200.870096"/>
     <use style="fill:#1f77b4;stroke:#1f77b4;" x="231.704842" xlink:href="#m0ee276b302" y="197.676085"/>
     <use style="fill:#1f77b4;stroke:#1f77b4;" x="234.016421" xlink:href="#m0ee276b302" y="206.32171"/>
     <use style="fill:#1f77b4;stroke:#1f77b4;" x="236.328" xlink:href="#m0ee276b302" y="200.313972"/>
     <use style="fill:#1f77b4;stroke:#1f77b4;" x="238.639579" xlink:href="#m0ee276b302" y="200.325742"/>
     <use style="fill:#1f77b4;stroke:#1f77b4;" x="240.951158" xlink:href="#m0ee276b302" y="203.520999"/>
     <use style="fill:#1f77b4;stroke:#1f77b4;" x="243.262737" xlink:href="#m0ee276b302" y="197.853746"/>
     <use style="fill:#1f77b4;stroke:#1f77b4;" x="245.574316" xlink:href="#m0ee276b302" y="199.304636"/>
     <use style="fill:#1f77b4;stroke:#1f77b4;" x="247.885895" xlink:href="#m0ee276b302" y="202.665193"/>
     <use style="fill:#1f77b4;stroke:#1f77b4;" x="250.197474" xlink:href="#m0ee276b302" y="202.214678"/>
     <use style="fill:#1f77b4;stroke:#1f77b4;" x="252.509053" xlink:href="#m0ee276b302" y="202.476648"/>
     <use style="fill:#1f77b4;stroke:#1f77b4;" x="254.820632" xlink:href="#m0ee276b302" y="199.166756"/>
     <use style="fill:#1f77b4;stroke:#1f77b4;" x="257.132211" xlink:href="#m0ee276b302" y="211.702961"/>
     <use style="fill:#1f77b4;stroke:#1f77b4;" x="259.443789" xlink:href="#m0ee276b302" y="193.17766"/>
     <use style="fill:#1f77b4;stroke:#1f77b4;" x="261.755368" xlink:href="#m0ee276b302" y="195.753995"/>
     <use style="fill:#1f77b4;stroke:#1f77b4;" x="264.066947" xlink:href="#m0ee276b302" y="201.327798"/>
     <use style="fill:#1f77b4;stroke:#1f77b4;" x="266.378526" xlink:href="#m0ee276b302" y="207.009858"/>
     <use style="fill:#1f77b4;stroke:#1f77b4;" x="268.690105" xlink:href="#m0ee276b302" y="209.300258"/>
     <use style="fill:#1f77b4;stroke:#1f77b4;" x="271.001684" xlink:href="#m0ee276b302" y="206.367309"/>
     <use style="fill:#1f77b4;stroke:#1f77b4;" x="273.313263" xlink:href="#m0ee276b302" y="201.369872"/>
     <use style="fill:#1f77b4;stroke:#1f77b4;" x="275.624842" xlink:href="#m0ee276b302" y="199.22847"/>
     <use style="fill:#1f77b4;stroke:#1f77b4;" x="277.936421" xlink:href="#m0ee276b302" y="199.842772"/>
     <use style="fill:#1f77b4;stroke:#1f77b4;" x="280.248" xlink:href="#m0ee276b302" y="199.252092"/>
     <use style="fill:#1f77b4;stroke:#1f77b4;" x="282.559579" xlink:href="#m0ee276b302" y="200.377719"/>
     <use style="fill:#1f77b4;stroke:#1f77b4;" x="284.871158" xlink:href="#m0ee276b302" y="192.462794"/>
     <use style="fill:#1f77b4;stroke:#1f77b4;" x="287.182737" xlink:href="#m0ee276b302" y="189.469601"/>
     <use style="fill:#1f77b4;stroke:#1f77b4;" x="289.494316" xlink:href="#m0ee276b302" y="208.905674"/>
     <use style="fill:#1f77b4;stroke:#1f77b4;" x="291.805895" xlink:href="#m0ee276b302" y="195.793751"/>
     <use style="fill:#1f77b4;stroke:#1f77b4;" x="294.117474" xlink:href="#m0ee276b302" y="195.710926"/>
     <use style="fill:#1f77b4;stroke:#1f77b4;" x="296.429053" xlink:href="#m0ee276b302" y="201.863701"/>
     <use style="fill:#1f77b4;stroke:#1f77b4;" x="298.740632" xlink:href="#m0ee276b302" y="192.127533"/>
     <use style="fill:#1f77b4;stroke:#1f77b4;" x="301.052211" xlink:href="#m0ee276b302" y="197.146904"/>
     <use style="fill:#1f77b4;stroke:#1f77b4;" x="303.363789" xlink:href="#m0ee276b302" y="202.78932"/>
     <use style="fill:#1f77b4;stroke:#1f77b4;" x="305.675368" xlink:href="#m0ee276b302" y="200.821355"/>
     <use style="fill:#1f77b4;stroke:#1f77b4;" x="307.986947" xlink:href="#m0ee276b302" y="197.632307"/>
     <use style="fill:#1f77b4;stroke:#1f77b4;" x="310.298526" xlink:href="#m0ee276b302" y="207.68228"/>
     <use style="fill:#1f77b4;stroke:#1f77b4;" x="312.610105" xlink:href="#m0ee276b302" y="207.501919"/>
     <use style="fill:#1f77b4;stroke:#1f77b4;" x="314.921684" xlink:href="#m0ee276b302" y="196.666524"/>
     <use style="fill:#1f77b4;stroke:#1f77b4;" x="317.233263" xlink:href="#m0ee276b302" y="202.32821"/>
     <use style="fill:#1f77b4;stroke:#1f77b4;" x="319.544842" xlink:href="#m0ee276b302" y="208.554275"/>
     <use style="fill:#1f77b4;stroke:#1f77b4;" x="321.856421" xlink:href="#m0ee276b302" y="198.379239"/>
     <use style="fill:#1f77b4;stroke:#1f77b4;" x="324.168" xlink:href="#m0ee276b302" y="195.010715"/>
     <use style="fill:#1f77b4;stroke:#1f77b4;" x="326.479579" xlink:href="#m0ee276b302" y="207.41245"/>
     <use style="fill:#1f77b4;stroke:#1f77b4;" x="328.791158" xlink:href="#m0ee276b302" y="208.462768"/>
     <use style="fill:#1f77b4;stroke:#1f77b4;" x="331.102737" xlink:href="#m0ee276b302" y="199.890254"/>
     <use style="fill:#1f77b4;stroke:#1f77b4;" x="333.414316" xlink:href="#m0ee276b302" y="198.948796"/>
     <use style="fill:#1f77b4;stroke:#1f77b4;" x="335.725895" xlink:href="#m0ee276b302" y="204.928473"/>
     <use style="fill:#1f77b4;stroke:#1f77b4;" x="338.037474" xlink:href="#m0ee276b302" y="213.058561"/>
     <use style="fill:#1f77b4;stroke:#1f77b4;" x="340.349053" xlink:href="#m0ee276b302" y="192.197964"/>
     <use style="fill:#1f77b4;stroke:#1f77b4;" x="342.660632" xlink:href="#m0ee276b302" y="201.453413"/>
     <use style="fill:#1f77b4;stroke:#1f77b4;" x="344.972211" xlink:href="#m0ee276b302" y="231.205529"/>
     <use style="fill:#1f77b4;stroke:#1f77b4;" x="347.283789" xlink:href="#m0ee276b302" y="218.471322"/>
     <use style="fill:#1f77b4;stroke:#1f77b4;" x="349.595368" xlink:href="#m0ee276b302" y="221.403602"/>
     <use style="fill:#1f77b4;stroke:#1f77b4;" x="351.906947" xlink:href="#m0ee276b302" y="223.36222"/>
     <use style="fill:#1f77b4;stroke:#1f77b4;" x="354.218526" xlink:href="#m0ee276b302" y="216.759023"/>
     <use style="fill:#1f77b4;stroke:#1f77b4;" x="356.530105" xlink:href="#m0ee276b302" y="248.076263"/>
     <use style="fill:#1f77b4;stroke:#1f77b4;" x="358.841684" xlink:href="#m0ee276b302" y="248.719676"/>
     <use style="fill:#1f77b4;stroke:#1f77b4;" x="361.153263" xlink:href="#m0ee276b302" y="218.198127"/>
     <use style="fill:#1f77b4;stroke:#1f77b4;" x="363.464842" xlink:href="#m0ee276b302" y="243.707175"/>
     <use style="fill:#1f77b4;stroke:#1f77b4;" x="365.776421" xlink:href="#m0ee276b302" y="252.725114"/>
     <use style="fill:#1f77b4;stroke:#1f77b4;" x="368.088" xlink:href="#m0ee276b302" y="171.401176"/>
    </g>
   </g>
   <g id="PathCollection_2">
    <defs>
     <path d="M 0 3 
C 0.795609 3 1.55874 2.683901 2.12132 2.12132 
C 2.683901 1.55874 3 0.795609 3 0 
C 3 -0.795609 2.683901 -1.55874 2.12132 -2.12132 
C 1.55874 -2.683901 0.795609 -3 0 -3 
C -0.795609 -3 -1.55874 -2.683901 -2.12132 -2.12132 
C -2.683901 -1.55874 -3 -0.795609 -3 0 
C -3 0.795609 -2.683901 1.55874 -2.12132 2.12132 
C -1.55874 2.683901 -0.795609 3 0 3 
z
" id="m03eeac7f19" style="stroke:#ff7f0e;"/>
    </defs>
    <g clip-path="url(#p4719bba062)">
     <use style="fill:#ff7f0e;stroke:#ff7f0e;" x="60.648" xlink:href="#m03eeac7f19" y="185.829843"/>
     <use style="fill:#ff7f0e;stroke:#ff7f0e;" x="62.959579" xlink:href="#m03eeac7f19" y="175.893325"/>
     <use style="fill:#ff7f0e;stroke:#ff7f0e;" x="65.271158" xlink:href="#m03eeac7f19" y="180.697534"/>
     <use style="fill:#ff7f0e;stroke:#ff7f0e;" x="67.582737" xlink:href="#m03eeac7f19" y="175.676782"/>
     <use style="fill:#ff7f0e;stroke:#ff7f0e;" x="69.894316" xlink:href="#m03eeac7f19" y="178.861899"/>
     <use style="fill:#ff7f0e;stroke:#ff7f0e;" x="72.205895" xlink:href="#m03eeac7f19" y="176.340926"/>
     <use style="fill:#ff7f0e;stroke:#ff7f0e;" x="74.517474" xlink:href="#m03eeac7f19" y="180.756574"/>
     <use style="fill:#ff7f0e;stroke:#ff7f0e;" x="76.829053" xlink:href="#m03eeac7f19" y="181.692963"/>
     <use style="fill:#ff7f0e;stroke:#ff7f0e;" x="79.140632" xlink:href="#m03eeac7f19" y="174.530908"/>
     <use style="fill:#ff7f0e;stroke:#ff7f0e;" x="81.452211" xlink:href="#m03eeac7f19" y="183.590816"/>
     <use style="fill:#ff7f0e;stroke:#ff7f0e;" x="83.763789" xlink:href="#m03eeac7f19" y="178.220974"/>
     <use style="fill:#ff7f0e;stroke:#ff7f0e;" x="86.075368" xlink:href="#m03eeac7f19" y="182.097731"/>
     <use style="fill:#ff7f0e;stroke:#ff7f0e;" x="88.386947" xlink:href="#m03eeac7f19" y="181.398238"/>
     <use style="fill:#ff7f0e;stroke:#ff7f0e;" x="90.698526" xlink:href="#m03eeac7f19" y="187.944649"/>
     <use style="fill:#ff7f0e;stroke:#ff7f0e;" x="93.010105" xlink:href="#m03eeac7f19" y="183.159583"/>
     <use style="fill:#ff7f0e;stroke:#ff7f0e;" x="95.321684" xlink:href="#m03eeac7f19" y="186.239937"/>
     <use style="fill:#ff7f0e;stroke:#ff7f0e;" x="97.633263" xlink:href="#m03eeac7f19" y="184.448482"/>
     <use style="fill:#ff7f0e;stroke:#ff7f0e;" x="99.944842" xlink:href="#m03eeac7f19" y="180.965911"/>
     <use style="fill:#ff7f0e;stroke:#ff7f0e;" x="102.256421" xlink:href="#m03eeac7f19" y="184.478538"/>
     <use style="fill:#ff7f0e;stroke:#ff7f0e;" x="104.568" xlink:href="#m03eeac7f19" y="186.470954"/>
     <use style="fill:#ff7f0e;stroke:#ff7f0e;" x="106.879579" xlink:href="#m03eeac7f19" y="184.740369"/>
     <use style="fill:#ff7f0e;stroke:#ff7f0e;" x="109.191158" xlink:href="#m03eeac7f19" y="191.676526"/>
     <use style="fill:#ff7f0e;stroke:#ff7f0e;" x="111.502737" xlink:href="#m03eeac7f19" y="178.863527"/>
     <use style="fill:#ff7f0e;stroke:#ff7f0e;" x="113.814316" xlink:href="#m03eeac7f19" y="187.283838"/>
     <use style="fill:#ff7f0e;stroke:#ff7f0e;" x="116.125895" xlink:href="#m03eeac7f19" y="187.704164"/>
     <use style="fill:#ff7f0e;stroke:#ff7f0e;" x="118.437474" xlink:href="#m03eeac7f19" y="186.207687"/>
     <use style="fill:#ff7f0e;stroke:#ff7f0e;" x="120.749053" xlink:href="#m03eeac7f19" y="176.417318"/>
     <use style="fill:#ff7f0e;stroke:#ff7f0e;" x="123.060632" xlink:href="#m03eeac7f19" y="184.029078"/>
     <use style="fill:#ff7f0e;stroke:#ff7f0e;" x="125.372211" xlink:href="#m03eeac7f19" y="181.659328"/>
     <use style="fill:#ff7f0e;stroke:#ff7f0e;" x="127.683789" xlink:href="#m03eeac7f19" y="187.360588"/>
     <use style="fill:#ff7f0e;stroke:#ff7f0e;" x="129.995368" xlink:href="#m03eeac7f19" y="180.873756"/>
     <use style="fill:#ff7f0e;stroke:#ff7f0e;" x="132.306947" xlink:href="#m03eeac7f19" y="178.971543"/>
     <use style="fill:#ff7f0e;stroke:#ff7f0e;" x="134.618526" xlink:href="#m03eeac7f19" y="181.376275"/>
     <use style="fill:#ff7f0e;stroke:#ff7f0e;" x="136.930105" xlink:href="#m03eeac7f19" y="183.7555"/>
     <use style="fill:#ff7f0e;stroke:#ff7f0e;" x="139.241684" xlink:href="#m03eeac7f19" y="187.149911"/>
     <use style="fill:#ff7f0e;stroke:#ff7f0e;" x="141.553263" xlink:href="#m03eeac7f19" y="183.666004"/>
     <use style="fill:#ff7f0e;stroke:#ff7f0e;" x="143.864842" xlink:href="#m03eeac7f19" y="184.204057"/>
     <use style="fill:#ff7f0e;stroke:#ff7f0e;" x="146.176421" xlink:href="#m03eeac7f19" y="185.440563"/>
     <use style="fill:#ff7f0e;stroke:#ff7f0e;" x="148.488" xlink:href="#m03eeac7f19" y="188.182639"/>
     <use style="fill:#ff7f0e;stroke:#ff7f0e;" x="150.799579" xlink:href="#m03eeac7f19" y="180.139819"/>
     <use style="fill:#ff7f0e;stroke:#ff7f0e;" x="153.111158" xlink:href="#m03eeac7f19" y="180.413682"/>
     <use style="fill:#ff7f0e;stroke:#ff7f0e;" x="155.422737" xlink:href="#m03eeac7f19" y="186.029302"/>
     <use style="fill:#ff7f0e;stroke:#ff7f0e;" x="157.734316" xlink:href="#m03eeac7f19" y="184.016246"/>
     <use style="fill:#ff7f0e;stroke:#ff7f0e;" x="160.045895" xlink:href="#m03eeac7f19" y="187.254341"/>
     <use style="fill:#ff7f0e;stroke:#ff7f0e;" x="162.357474" xlink:href="#m03eeac7f19" y="189.476995"/>
     <use style="fill:#ff7f0e;stroke:#ff7f0e;" x="164.669053" xlink:href="#m03eeac7f19" y="185.399837"/>
     <use style="fill:#ff7f0e;stroke:#ff7f0e;" x="166.980632" xlink:href="#m03eeac7f19" y="190.31916"/>
     <use style="fill:#ff7f0e;stroke:#ff7f0e;" x="169.292211" xlink:href="#m03eeac7f19" y="189.592093"/>
     <use style="fill:#ff7f0e;stroke:#ff7f0e;" x="171.603789" xlink:href="#m03eeac7f19" y="190.565016"/>
     <use style="fill:#ff7f0e;stroke:#ff7f0e;" x="173.915368" xlink:href="#m03eeac7f19" y="186.035129"/>
     <use style="fill:#ff7f0e;stroke:#ff7f0e;" x="176.226947" xlink:href="#m03eeac7f19" y="188.964256"/>
     <use style="fill:#ff7f0e;stroke:#ff7f0e;" x="178.538526" xlink:href="#m03eeac7f19" y="199.871373"/>
     <use style="fill:#ff7f0e;stroke:#ff7f0e;" x="180.850105" xlink:href="#m03eeac7f19" y="190.235172"/>
     <use style="fill:#ff7f0e;stroke:#ff7f0e;" x="183.161684" xlink:href="#m03eeac7f19" y="191.894856"/>
     <use style="fill:#ff7f0e;stroke:#ff7f0e;" x="185.473263" xlink:href="#m03eeac7f19" y="187.482132"/>
     <use style="fill:#ff7f0e;stroke:#ff7f0e;" x="187.784842" xlink:href="#m03eeac7f19" y="186.481745"/>
     <use style="fill:#ff7f0e;stroke:#ff7f0e;" x="190.096421" xlink:href="#m03eeac7f19" y="195.36858"/>
     <use style="fill:#ff7f0e;stroke:#ff7f0e;" x="192.408" xlink:href="#m03eeac7f19" y="191.96088"/>
     <use style="fill:#ff7f0e;stroke:#ff7f0e;" x="194.719579" xlink:href="#m03eeac7f19" y="196.238894"/>
     <use style="fill:#ff7f0e;stroke:#ff7f0e;" x="197.031158" xlink:href="#m03eeac7f19" y="191.812059"/>
     <use style="fill:#ff7f0e;stroke:#ff7f0e;" x="199.342737" xlink:href="#m03eeac7f19" y="190.368087"/>
     <use style="fill:#ff7f0e;stroke:#ff7f0e;" x="201.654316" xlink:href="#m03eeac7f19" y="195.84354"/>
     <use style="fill:#ff7f0e;stroke:#ff7f0e;" x="203.965895" xlink:href="#m03eeac7f19" y="191.372589"/>
     <use style="fill:#ff7f0e;stroke:#ff7f0e;" x="206.277474" xlink:href="#m03eeac7f19" y="193.435443"/>
     <use style="fill:#ff7f0e;stroke:#ff7f0e;" x="208.589053" xlink:href="#m03eeac7f19" y="193.066957"/>
     <use style="fill:#ff7f0e;stroke:#ff7f0e;" x="210.900632" xlink:href="#m03eeac7f19" y="190.780871"/>
     <use style="fill:#ff7f0e;stroke:#ff7f0e;" x="213.212211" xlink:href="#m03eeac7f19" y="192.798002"/>
     <use style="fill:#ff7f0e;stroke:#ff7f0e;" x="215.523789" xlink:href="#m03eeac7f19" y="196.517689"/>
     <use style="fill:#ff7f0e;stroke:#ff7f0e;" x="217.835368" xlink:href="#m03eeac7f19" y="196.889631"/>
     <use style="fill:#ff7f0e;stroke:#ff7f0e;" x="220.146947" xlink:href="#m03eeac7f19" y="195.569408"/>
     <use style="fill:#ff7f0e;stroke:#ff7f0e;" x="222.458526" xlink:href="#m03eeac7f19" y="196.384098"/>
     <use style="fill:#ff7f0e;stroke:#ff7f0e;" x="224.770105" xlink:href="#m03eeac7f19" y="196.696437"/>
     <use style="fill:#ff7f0e;stroke:#ff7f0e;" x="227.081684" xlink:href="#m03eeac7f19" y="196.790567"/>
     <use style="fill:#ff7f0e;stroke:#ff7f0e;" x="229.393263" xlink:href="#m03eeac7f19" y="196.901159"/>
     <use style="fill:#ff7f0e;stroke:#ff7f0e;" x="231.704842" xlink:href="#m03eeac7f19" y="195.637675"/>
     <use style="fill:#ff7f0e;stroke:#ff7f0e;" x="234.016421" xlink:href="#m03eeac7f19" y="198.363673"/>
     <use style="fill:#ff7f0e;stroke:#ff7f0e;" x="236.328" xlink:href="#m03eeac7f19" y="197.082375"/>
     <use style="fill:#ff7f0e;stroke:#ff7f0e;" x="238.639579" xlink:href="#m03eeac7f19" y="196.314381"/>
     <use style="fill:#ff7f0e;stroke:#ff7f0e;" x="240.951158" xlink:href="#m03eeac7f19" y="196.780787"/>
     <use style="fill:#ff7f0e;stroke:#ff7f0e;" x="243.262737" xlink:href="#m03eeac7f19" y="196.918824"/>
     <use style="fill:#ff7f0e;stroke:#ff7f0e;" x="245.574316" xlink:href="#m03eeac7f19" y="204.521539"/>
     <use style="fill:#ff7f0e;stroke:#ff7f0e;" x="247.885895" xlink:href="#m03eeac7f19" y="194.666217"/>
     <use style="fill:#ff7f0e;stroke:#ff7f0e;" x="250.197474" xlink:href="#m03eeac7f19" y="195.426448"/>
     <use style="fill:#ff7f0e;stroke:#ff7f0e;" x="252.509053" xlink:href="#m03eeac7f19" y="195.280626"/>
     <use style="fill:#ff7f0e;stroke:#ff7f0e;" x="254.820632" xlink:href="#m03eeac7f19" y="196.514922"/>
     <use style="fill:#ff7f0e;stroke:#ff7f0e;" x="257.132211" xlink:href="#m03eeac7f19" y="196.280247"/>
     <use style="fill:#ff7f0e;stroke:#ff7f0e;" x="259.443789" xlink:href="#m03eeac7f19" y="194.981885"/>
     <use style="fill:#ff7f0e;stroke:#ff7f0e;" x="261.755368" xlink:href="#m03eeac7f19" y="196.477522"/>
     <use style="fill:#ff7f0e;stroke:#ff7f0e;" x="264.066947" xlink:href="#m03eeac7f19" y="194.476843"/>
     <use style="fill:#ff7f0e;stroke:#ff7f0e;" x="266.378526" xlink:href="#m03eeac7f19" y="197.722185"/>
     <use style="fill:#ff7f0e;stroke:#ff7f0e;" x="268.690105" xlink:href="#m03eeac7f19" y="193.215322"/>
     <use style="fill:#ff7f0e;stroke:#ff7f0e;" x="271.001684" xlink:href="#m03eeac7f19" y="195.863947"/>
     <use style="fill:#ff7f0e;stroke:#ff7f0e;" x="273.313263" xlink:href="#m03eeac7f19" y="190.990271"/>
     <use style="fill:#ff7f0e;stroke:#ff7f0e;" x="275.624842" xlink:href="#m03eeac7f19" y="194.368805"/>
     <use style="fill:#ff7f0e;stroke:#ff7f0e;" x="277.936421" xlink:href="#m03eeac7f19" y="197.046351"/>
     <use style="fill:#ff7f0e;stroke:#ff7f0e;" x="280.248" xlink:href="#m03eeac7f19" y="203.905035"/>
     <use style="fill:#ff7f0e;stroke:#ff7f0e;" x="282.559579" xlink:href="#m03eeac7f19" y="195.232752"/>
     <use style="fill:#ff7f0e;stroke:#ff7f0e;" x="284.871158" xlink:href="#m03eeac7f19" y="197.663465"/>
     <use style="fill:#ff7f0e;stroke:#ff7f0e;" x="287.182737" xlink:href="#m03eeac7f19" y="201.197187"/>
     <use style="fill:#ff7f0e;stroke:#ff7f0e;" x="289.494316" xlink:href="#m03eeac7f19" y="191.949576"/>
     <use style="fill:#ff7f0e;stroke:#ff7f0e;" x="291.805895" xlink:href="#m03eeac7f19" y="197.221642"/>
     <use style="fill:#ff7f0e;stroke:#ff7f0e;" x="294.117474" xlink:href="#m03eeac7f19" y="199.730414"/>
     <use style="fill:#ff7f0e;stroke:#ff7f0e;" x="296.429053" xlink:href="#m03eeac7f19" y="197.10339"/>
     <use style="fill:#ff7f0e;stroke:#ff7f0e;" x="298.740632" xlink:href="#m03eeac7f19" y="192.753962"/>
     <use style="fill:#ff7f0e;stroke:#ff7f0e;" x="301.052211" xlink:href="#m03eeac7f19" y="202.94039"/>
     <use style="fill:#ff7f0e;stroke:#ff7f0e;" x="303.363789" xlink:href="#m03eeac7f19" y="193.574045"/>
     <use style="fill:#ff7f0e;stroke:#ff7f0e;" x="305.675368" xlink:href="#m03eeac7f19" y="194.778553"/>
     <use style="fill:#ff7f0e;stroke:#ff7f0e;" x="307.986947" xlink:href="#m03eeac7f19" y="193.726438"/>
     <use style="fill:#ff7f0e;stroke:#ff7f0e;" x="310.298526" xlink:href="#m03eeac7f19" y="195.966269"/>
     <use style="fill:#ff7f0e;stroke:#ff7f0e;" x="312.610105" xlink:href="#m03eeac7f19" y="202.145"/>
     <use style="fill:#ff7f0e;stroke:#ff7f0e;" x="314.921684" xlink:href="#m03eeac7f19" y="209.371879"/>
     <use style="fill:#ff7f0e;stroke:#ff7f0e;" x="317.233263" xlink:href="#m03eeac7f19" y="194.942335"/>
     <use style="fill:#ff7f0e;stroke:#ff7f0e;" x="319.544842" xlink:href="#m03eeac7f19" y="203.435774"/>
     <use style="fill:#ff7f0e;stroke:#ff7f0e;" x="321.856421" xlink:href="#m03eeac7f19" y="199.945509"/>
     <use style="fill:#ff7f0e;stroke:#ff7f0e;" x="324.168" xlink:href="#m03eeac7f19" y="196.493922"/>
     <use style="fill:#ff7f0e;stroke:#ff7f0e;" x="326.479579" xlink:href="#m03eeac7f19" y="199.246809"/>
     <use style="fill:#ff7f0e;stroke:#ff7f0e;" x="328.791158" xlink:href="#m03eeac7f19" y="201.121074"/>
     <use style="fill:#ff7f0e;stroke:#ff7f0e;" x="331.102737" xlink:href="#m03eeac7f19" y="203.396623"/>
     <use style="fill:#ff7f0e;stroke:#ff7f0e;" x="333.414316" xlink:href="#m03eeac7f19" y="201.558693"/>
     <use style="fill:#ff7f0e;stroke:#ff7f0e;" x="335.725895" xlink:href="#m03eeac7f19" y="205.948535"/>
     <use style="fill:#ff7f0e;stroke:#ff7f0e;" x="338.037474" xlink:href="#m03eeac7f19" y="211.093915"/>
     <use style="fill:#ff7f0e;stroke:#ff7f0e;" x="340.349053" xlink:href="#m03eeac7f19" y="211.020785"/>
     <use style="fill:#ff7f0e;stroke:#ff7f0e;" x="342.660632" xlink:href="#m03eeac7f19" y="210.627553"/>
     <use style="fill:#ff7f0e;stroke:#ff7f0e;" x="344.972211" xlink:href="#m03eeac7f19" y="217.793138"/>
     <use style="fill:#ff7f0e;stroke:#ff7f0e;" x="347.283789" xlink:href="#m03eeac7f19" y="220.063822"/>
     <use style="fill:#ff7f0e;stroke:#ff7f0e;" x="349.595368" xlink:href="#m03eeac7f19" y="223.938776"/>
     <use style="fill:#ff7f0e;stroke:#ff7f0e;" x="351.906947" xlink:href="#m03eeac7f19" y="229.358961"/>
     <use style="fill:#ff7f0e;stroke:#ff7f0e;" x="354.218526" xlink:href="#m03eeac7f19" y="238.603558"/>
     <use style="fill:#ff7f0e;stroke:#ff7f0e;" x="356.530105" xlink:href="#m03eeac7f19" y="248.867357"/>
     <use style="fill:#ff7f0e;stroke:#ff7f0e;" x="358.841684" xlink:href="#m03eeac7f19" y="252.734627"/>
     <use style="fill:#ff7f0e;stroke:#ff7f0e;" x="361.153263" xlink:href="#m03eeac7f19" y="260.811802"/>
     <use style="fill:#ff7f0e;stroke:#ff7f0e;" x="363.464842" xlink:href="#m03eeac7f19" y="271.602759"/>
     <use style="fill:#ff7f0e;stroke:#ff7f0e;" x="365.776421" xlink:href="#m03eeac7f19" y="283.134021"/>
     <use style="fill:#ff7f0e;stroke:#ff7f0e;" x="368.088" xlink:href="#m03eeac7f19" y="299.332987"/>
    </g>
   </g>
   <g id="matplotlib.axis_1">
    <g id="xtick_1">
     <g id="line2d_1">
      <defs>
       <path d="M 0 0 
L 0 3.5 
" id="m5032d0c32a" style="stroke:#000000;stroke-width:0.8;"/>
      </defs>
      <g>
       <use style="stroke:#000000;stroke-width:0.8;" x="60.648" xlink:href="#m5032d0c32a" y="312.685714"/>
      </g>
     </g>
     <g id="text_1">
      <!-- 0 -->
      <defs>
       <path d="M 31.78125 66.40625 
Q 24.171875 66.40625 20.328125 58.90625 
Q 16.5 51.421875 16.5 36.375 
Q 16.5 21.390625 20.328125 13.890625 
Q 24.171875 6.390625 31.78125 6.390625 
Q 39.453125 6.390625 43.28125 13.890625 
Q 47.125 21.390625 47.125 36.375 
Q 47.125 51.421875 43.28125 58.90625 
Q 39.453125 66.40625 31.78125 66.40625 
z
M 31.78125 74.21875 
Q 44.046875 74.21875 50.515625 64.515625 
Q 56.984375 54.828125 56.984375 36.375 
Q 56.984375 17.96875 50.515625 8.265625 
Q 44.046875 -1.421875 31.78125 -1.421875 
Q 19.53125 -1.421875 13.0625 8.265625 
Q 6.59375 17.96875 6.59375 36.375 
Q 6.59375 54.828125 13.0625 64.515625 
Q 19.53125 74.21875 31.78125 74.21875 
z
" id="DejaVuSans-48"/>
      </defs>
      <g transform="translate(57.46675 327.284152)scale(0.1 -0.1)">
       <use xlink:href="#DejaVuSans-48"/>
      </g>
     </g>
    </g>
    <g id="xtick_2">
     <g id="line2d_2">
      <g>
       <use style="stroke:#000000;stroke-width:0.8;" x="131.635926" xlink:href="#m5032d0c32a" y="312.685714"/>
      </g>
     </g>
     <g id="text_2">
      <!-- 2 -->
      <defs>
       <path d="M 19.1875 8.296875 
L 53.609375 8.296875 
L 53.609375 0 
L 7.328125 0 
L 7.328125 8.296875 
Q 12.9375 14.109375 22.625 23.890625 
Q 32.328125 33.6875 34.8125 36.53125 
Q 39.546875 41.84375 41.421875 45.53125 
Q 43.3125 49.21875 43.3125 52.78125 
Q 43.3125 58.59375 39.234375 62.25 
Q 35.15625 65.921875 28.609375 65.921875 
Q 23.96875 65.921875 18.8125 64.3125 
Q 13.671875 62.703125 7.8125 59.421875 
L 7.8125 69.390625 
Q 13.765625 71.78125 18.9375 73 
Q 24.125 74.21875 28.421875 74.21875 
Q 39.75 74.21875 46.484375 68.546875 
Q 53.21875 62.890625 53.21875 53.421875 
Q 53.21875 48.921875 51.53125 44.890625 
Q 49.859375 40.875 45.40625 35.40625 
Q 44.1875 33.984375 37.640625 27.21875 
Q 31.109375 20.453125 19.1875 8.296875 
z
" id="DejaVuSans-50"/>
      </defs>
      <g transform="translate(128.454676 327.284152)scale(0.1 -0.1)">
       <use xlink:href="#DejaVuSans-50"/>
      </g>
     </g>
    </g>
    <g id="xtick_3">
     <g id="line2d_3">
      <g>
       <use style="stroke:#000000;stroke-width:0.8;" x="202.623853" xlink:href="#m5032d0c32a" y="312.685714"/>
      </g>
     </g>
     <g id="text_3">
      <!-- 4 -->
      <defs>
       <path d="M 37.796875 64.3125 
L 12.890625 25.390625 
L 37.796875 25.390625 
z
M 35.203125 72.90625 
L 47.609375 72.90625 
L 47.609375 25.390625 
L 58.015625 25.390625 
L 58.015625 17.1875 
L 47.609375 17.1875 
L 47.609375 0 
L 37.796875 0 
L 37.796875 17.1875 
L 4.890625 17.1875 
L 4.890625 26.703125 
z
" id="DejaVuSans-52"/>
      </defs>
      <g transform="translate(199.442603 327.284152)scale(0.1 -0.1)">
       <use xlink:href="#DejaVuSans-52"/>
      </g>
     </g>
    </g>
    <g id="xtick_4">
     <g id="line2d_4">
      <g>
       <use style="stroke:#000000;stroke-width:0.8;" x="273.611779" xlink:href="#m5032d0c32a" y="312.685714"/>
      </g>
     </g>
     <g id="text_4">
      <!-- 6 -->
      <defs>
       <path d="M 33.015625 40.375 
Q 26.375 40.375 22.484375 35.828125 
Q 18.609375 31.296875 18.609375 23.390625 
Q 18.609375 15.53125 22.484375 10.953125 
Q 26.375 6.390625 33.015625 6.390625 
Q 39.65625 6.390625 43.53125 10.953125 
Q 47.40625 15.53125 47.40625 23.390625 
Q 47.40625 31.296875 43.53125 35.828125 
Q 39.65625 40.375 33.015625 40.375 
z
M 52.59375 71.296875 
L 52.59375 62.3125 
Q 48.875 64.0625 45.09375 64.984375 
Q 41.3125 65.921875 37.59375 65.921875 
Q 27.828125 65.921875 22.671875 59.328125 
Q 17.53125 52.734375 16.796875 39.40625 
Q 19.671875 43.65625 24.015625 45.921875 
Q 28.375 48.1875 33.59375 48.1875 
Q 44.578125 48.1875 50.953125 41.515625 
Q 57.328125 34.859375 57.328125 23.390625 
Q 57.328125 12.15625 50.6875 5.359375 
Q 44.046875 -1.421875 33.015625 -1.421875 
Q 20.359375 -1.421875 13.671875 8.265625 
Q 6.984375 17.96875 6.984375 36.375 
Q 6.984375 53.65625 15.1875 63.9375 
Q 23.390625 74.21875 37.203125 74.21875 
Q 40.921875 74.21875 44.703125 73.484375 
Q 48.484375 72.75 52.59375 71.296875 
z
" id="DejaVuSans-54"/>
      </defs>
      <g transform="translate(270.430529 327.284152)scale(0.1 -0.1)">
       <use xlink:href="#DejaVuSans-54"/>
      </g>
     </g>
    </g>
    <g id="xtick_5">
     <g id="line2d_5">
      <g>
       <use style="stroke:#000000;stroke-width:0.8;" x="344.599705" xlink:href="#m5032d0c32a" y="312.685714"/>
      </g>
     </g>
     <g id="text_5">
      <!-- 8 -->
      <defs>
       <path d="M 31.78125 34.625 
Q 24.75 34.625 20.71875 30.859375 
Q 16.703125 27.09375 16.703125 20.515625 
Q 16.703125 13.921875 20.71875 10.15625 
Q 24.75 6.390625 31.78125 6.390625 
Q 38.8125 6.390625 42.859375 10.171875 
Q 46.921875 13.96875 46.921875 20.515625 
Q 46.921875 27.09375 42.890625 30.859375 
Q 38.875 34.625 31.78125 34.625 
z
M 21.921875 38.8125 
Q 15.578125 40.375 12.03125 44.71875 
Q 8.5 49.078125 8.5 55.328125 
Q 8.5 64.0625 14.71875 69.140625 
Q 20.953125 74.21875 31.78125 74.21875 
Q 42.671875 74.21875 48.875 69.140625 
Q 55.078125 64.0625 55.078125 55.328125 
Q 55.078125 49.078125 51.53125 44.71875 
Q 48 40.375 41.703125 38.8125 
Q 48.828125 37.15625 52.796875 32.3125 
Q 56.78125 27.484375 56.78125 20.515625 
Q 56.78125 9.90625 50.3125 4.234375 
Q 43.84375 -1.421875 31.78125 -1.421875 
Q 19.734375 -1.421875 13.25 4.234375 
Q 6.78125 9.90625 6.78125 20.515625 
Q 6.78125 27.484375 10.78125 32.3125 
Q 14.796875 37.15625 21.921875 38.8125 
z
M 18.3125 54.390625 
Q 18.3125 48.734375 21.84375 45.5625 
Q 25.390625 42.390625 31.78125 42.390625 
Q 38.140625 42.390625 41.71875 45.5625 
Q 45.3125 48.734375 45.3125 54.390625 
Q 45.3125 60.0625 41.71875 63.234375 
Q 38.140625 66.40625 31.78125 66.40625 
Q 25.390625 66.40625 21.84375 63.234375 
Q 18.3125 60.0625 18.3125 54.390625 
z
" id="DejaVuSans-56"/>
      </defs>
      <g transform="translate(341.418455 327.284152)scale(0.1 -0.1)">
       <use xlink:href="#DejaVuSans-56"/>
      </g>
     </g>
    </g>
    <g id="text_6">
     <!-- time [s] -->
     <defs>
      <path d="M 18.3125 70.21875 
L 18.3125 54.6875 
L 36.8125 54.6875 
L 36.8125 47.703125 
L 18.3125 47.703125 
L 18.3125 18.015625 
Q 18.3125 11.328125 20.140625 9.421875 
Q 21.96875 7.515625 27.59375 7.515625 
L 36.8125 7.515625 
L 36.8125 0 
L 27.59375 0 
Q 17.1875 0 13.234375 3.875 
Q 9.28125 7.765625 9.28125 18.015625 
L 9.28125 47.703125 
L 2.6875 47.703125 
L 2.6875 54.6875 
L 9.28125 54.6875 
L 9.28125 70.21875 
z
" id="DejaVuSans-116"/>
      <path d="M 9.421875 54.6875 
L 18.40625 54.6875 
L 18.40625 0 
L 9.421875 0 
z
M 9.421875 75.984375 
L 18.40625 75.984375 
L 18.40625 64.59375 
L 9.421875 64.59375 
z
" id="DejaVuSans-105"/>
      <path d="M 52 44.1875 
Q 55.375 50.25 60.0625 53.125 
Q 64.75 56 71.09375 56 
Q 79.640625 56 84.28125 50.015625 
Q 88.921875 44.046875 88.921875 33.015625 
L 88.921875 0 
L 79.890625 0 
L 79.890625 32.71875 
Q 79.890625 40.578125 77.09375 44.375 
Q 74.3125 48.1875 68.609375 48.1875 
Q 61.625 48.1875 57.5625 43.546875 
Q 53.515625 38.921875 53.515625 30.90625 
L 53.515625 0 
L 44.484375 0 
L 44.484375 32.71875 
Q 44.484375 40.625 41.703125 44.40625 
Q 38.921875 48.1875 33.109375 48.1875 
Q 26.21875 48.1875 22.15625 43.53125 
Q 18.109375 38.875 18.109375 30.90625 
L 18.109375 0 
L 9.078125 0 
L 9.078125 54.6875 
L 18.109375 54.6875 
L 18.109375 46.1875 
Q 21.1875 51.21875 25.484375 53.609375 
Q 29.78125 56 35.6875 56 
Q 41.65625 56 45.828125 52.96875 
Q 50 49.953125 52 44.1875 
z
" id="DejaVuSans-109"/>
      <path d="M 56.203125 29.59375 
L 56.203125 25.203125 
L 14.890625 25.203125 
Q 15.484375 15.921875 20.484375 11.0625 
Q 25.484375 6.203125 34.421875 6.203125 
Q 39.59375 6.203125 44.453125 7.46875 
Q 49.3125 8.734375 54.109375 11.28125 
L 54.109375 2.78125 
Q 49.265625 0.734375 44.1875 -0.34375 
Q 39.109375 -1.421875 33.890625 -1.421875 
Q 20.796875 -1.421875 13.15625 6.1875 
Q 5.515625 13.8125 5.515625 26.8125 
Q 5.515625 40.234375 12.765625 48.109375 
Q 20.015625 56 32.328125 56 
Q 43.359375 56 49.78125 48.890625 
Q 56.203125 41.796875 56.203125 29.59375 
z
M 47.21875 32.234375 
Q 47.125 39.59375 43.09375 43.984375 
Q 39.0625 48.390625 32.421875 48.390625 
Q 24.90625 48.390625 20.390625 44.140625 
Q 15.875 39.890625 15.1875 32.171875 
z
" id="DejaVuSans-101"/>
      <path id="DejaVuSans-32"/>
      <path d="M 8.59375 75.984375 
L 29.296875 75.984375 
L 29.296875 69 
L 17.578125 69 
L 17.578125 -6.203125 
L 29.296875 -6.203125 
L 29.296875 -13.1875 
L 8.59375 -13.1875 
z
" id="DejaVuSans-91"/>
      <path d="M 44.28125 53.078125 
L 44.28125 44.578125 
Q 40.484375 46.53125 36.375 47.5 
Q 32.28125 48.484375 27.875 48.484375 
Q 21.1875 48.484375 17.84375 46.4375 
Q 14.5 44.390625 14.5 40.28125 
Q 14.5 37.15625 16.890625 35.375 
Q 19.28125 33.59375 26.515625 31.984375 
L 29.59375 31.296875 
Q 39.15625 29.25 43.1875 25.515625 
Q 47.21875 21.78125 47.21875 15.09375 
Q 47.21875 7.46875 41.1875 3.015625 
Q 35.15625 -1.421875 24.609375 -1.421875 
Q 20.21875 -1.421875 15.453125 -0.5625 
Q 10.6875 0.296875 5.421875 2 
L 5.421875 11.28125 
Q 10.40625 8.6875 15.234375 7.390625 
Q 20.0625 6.109375 24.8125 6.109375 
Q 31.15625 6.109375 34.5625 8.28125 
Q 37.984375 10.453125 37.984375 14.40625 
Q 37.984375 18.0625 35.515625 20.015625 
Q 33.0625 21.96875 24.703125 23.78125 
L 21.578125 24.515625 
Q 13.234375 26.265625 9.515625 29.90625 
Q 5.8125 33.546875 5.8125 39.890625 
Q 5.8125 47.609375 11.28125 51.796875 
Q 16.75 56 26.8125 56 
Q 31.78125 56 36.171875 55.265625 
Q 40.578125 54.546875 44.28125 53.078125 
z
" id="DejaVuSans-115"/>
      <path d="M 30.421875 75.984375 
L 30.421875 -13.1875 
L 9.71875 -13.1875 
L 9.71875 -6.203125 
L 21.390625 -6.203125 
L 21.390625 69 
L 9.71875 69 
L 9.71875 75.984375 
z
" id="DejaVuSans-93"/>
     </defs>
     <g transform="translate(194.976594 340.962277)scale(0.1 -0.1)">
      <use xlink:href="#DejaVuSans-116"/>
      <use x="39.208984" xlink:href="#DejaVuSans-105"/>
      <use x="66.992188" xlink:href="#DejaVuSans-109"/>
      <use x="164.404297" xlink:href="#DejaVuSans-101"/>
      <use x="225.927734" xlink:href="#DejaVuSans-32"/>
      <use x="257.714844" xlink:href="#DejaVuSans-91"/>
      <use x="296.728516" xlink:href="#DejaVuSans-115"/>
      <use x="348.828125" xlink:href="#DejaVuSans-93"/>
     </g>
    </g>
   </g>
   <g id="matplotlib.axis_2">
    <g id="ytick_1">
     <g id="line2d_6">
      <defs>
       <path d="M 0 0 
L -3.5 0 
" id="m929918fe04" style="stroke:#000000;stroke-width:0.8;"/>
      </defs>
      <g>
       <use style="stroke:#000000;stroke-width:0.8;" x="45.276" xlink:href="#m929918fe04" y="280.372061"/>
      </g>
     </g>
     <g id="text_7">
      <!-- −30 -->
      <defs>
       <path d="M 10.59375 35.5 
L 73.1875 35.5 
L 73.1875 27.203125 
L 10.59375 27.203125 
z
" id="DejaVuSans-8722"/>
       <path d="M 40.578125 39.3125 
Q 47.65625 37.796875 51.625 33 
Q 55.609375 28.21875 55.609375 21.1875 
Q 55.609375 10.40625 48.1875 4.484375 
Q 40.765625 -1.421875 27.09375 -1.421875 
Q 22.515625 -1.421875 17.65625 -0.515625 
Q 12.796875 0.390625 7.625 2.203125 
L 7.625 11.71875 
Q 11.71875 9.328125 16.59375 8.109375 
Q 21.484375 6.890625 26.8125 6.890625 
Q 36.078125 6.890625 40.9375 10.546875 
Q 45.796875 14.203125 45.796875 21.1875 
Q 45.796875 27.640625 41.28125 31.265625 
Q 36.765625 34.90625 28.71875 34.90625 
L 20.21875 34.90625 
L 20.21875 43.015625 
L 29.109375 43.015625 
Q 36.375 43.015625 40.234375 45.921875 
Q 44.09375 48.828125 44.09375 54.296875 
Q 44.09375 59.90625 40.109375 62.90625 
Q 36.140625 65.921875 28.71875 65.921875 
Q 24.65625 65.921875 20.015625 65.03125 
Q 15.375 64.15625 9.8125 62.3125 
L 9.8125 71.09375 
Q 15.4375 72.65625 20.34375 73.4375 
Q 25.25 74.21875 29.59375 74.21875 
Q 40.828125 74.21875 47.359375 69.109375 
Q 53.90625 64.015625 53.90625 55.328125 
Q 53.90625 49.265625 50.4375 45.09375 
Q 46.96875 40.921875 40.578125 39.3125 
z
" id="DejaVuSans-51"/>
      </defs>
      <g transform="translate(17.171312 284.171279)scale(0.1 -0.1)">
       <use xlink:href="#DejaVuSans-8722"/>
       <use x="83.789062" xlink:href="#DejaVuSans-51"/>
       <use x="147.412109" xlink:href="#DejaVuSans-48"/>
      </g>
     </g>
    </g>
    <g id="ytick_2">
     <g id="line2d_7">
      <g>
       <use style="stroke:#000000;stroke-width:0.8;" x="45.276" xlink:href="#m929918fe04" y="243.887705"/>
      </g>
     </g>
     <g id="text_8">
      <!-- −20 -->
      <g transform="translate(17.171312 247.686924)scale(0.1 -0.1)">
       <use xlink:href="#DejaVuSans-8722"/>
       <use x="83.789062" xlink:href="#DejaVuSans-50"/>
       <use x="147.412109" xlink:href="#DejaVuSans-48"/>
      </g>
     </g>
    </g>
    <g id="ytick_3">
     <g id="line2d_8">
      <g>
       <use style="stroke:#000000;stroke-width:0.8;" x="45.276" xlink:href="#m929918fe04" y="207.403349"/>
      </g>
     </g>
     <g id="text_9">
      <!-- −10 -->
      <defs>
       <path d="M 12.40625 8.296875 
L 28.515625 8.296875 
L 28.515625 63.921875 
L 10.984375 60.40625 
L 10.984375 69.390625 
L 28.421875 72.90625 
L 38.28125 72.90625 
L 38.28125 8.296875 
L 54.390625 8.296875 
L 54.390625 0 
L 12.40625 0 
z
" id="DejaVuSans-49"/>
      </defs>
      <g transform="translate(17.171312 211.202568)scale(0.1 -0.1)">
       <use xlink:href="#DejaVuSans-8722"/>
       <use x="83.789062" xlink:href="#DejaVuSans-49"/>
       <use x="147.412109" xlink:href="#DejaVuSans-48"/>
      </g>
     </g>
    </g>
    <g id="ytick_4">
     <g id="line2d_9">
      <g>
       <use style="stroke:#000000;stroke-width:0.8;" x="45.276" xlink:href="#m929918fe04" y="170.918993"/>
      </g>
     </g>
     <g id="text_10">
      <!-- 0 -->
      <g transform="translate(31.9135 174.718212)scale(0.1 -0.1)">
       <use xlink:href="#DejaVuSans-48"/>
      </g>
     </g>
    </g>
    <g id="ytick_5">
     <g id="line2d_10">
      <g>
       <use style="stroke:#000000;stroke-width:0.8;" x="45.276" xlink:href="#m929918fe04" y="134.434638"/>
      </g>
     </g>
     <g id="text_11">
      <!-- 10 -->
      <g transform="translate(25.551 138.233856)scale(0.1 -0.1)">
       <use xlink:href="#DejaVuSans-49"/>
       <use x="63.623047" xlink:href="#DejaVuSans-48"/>
      </g>
     </g>
    </g>
    <g id="ytick_6">
     <g id="line2d_11">
      <g>
       <use style="stroke:#000000;stroke-width:0.8;" x="45.276" xlink:href="#m929918fe04" y="97.950282"/>
      </g>
     </g>
     <g id="text_12">
      <!-- 20 -->
      <g transform="translate(25.551 101.749501)scale(0.1 -0.1)">
       <use xlink:href="#DejaVuSans-50"/>
       <use x="63.623047" xlink:href="#DejaVuSans-48"/>
      </g>
     </g>
    </g>
    <g id="ytick_7">
     <g id="line2d_12">
      <g>
       <use style="stroke:#000000;stroke-width:0.8;" x="45.276" xlink:href="#m929918fe04" y="61.465926"/>
      </g>
     </g>
     <g id="text_13">
      <!-- 30 -->
      <g transform="translate(25.551 65.265145)scale(0.1 -0.1)">
       <use xlink:href="#DejaVuSans-51"/>
       <use x="63.623047" xlink:href="#DejaVuSans-48"/>
      </g>
     </g>
    </g>
    <g id="ytick_8">
     <g id="line2d_13">
      <g>
       <use style="stroke:#000000;stroke-width:0.8;" x="45.276" xlink:href="#m929918fe04" y="24.98157"/>
      </g>
     </g>
     <g id="text_14">
      <!-- 40 -->
      <g transform="translate(25.551 28.780789)scale(0.1 -0.1)">
       <use xlink:href="#DejaVuSans-52"/>
       <use x="63.623047" xlink:href="#DejaVuSans-48"/>
      </g>
     </g>
    </g>
    <g id="text_15">
     <!-- angle [deg] -->
     <defs>
      <path d="M 34.28125 27.484375 
Q 23.390625 27.484375 19.1875 25 
Q 14.984375 22.515625 14.984375 16.5 
Q 14.984375 11.71875 18.140625 8.90625 
Q 21.296875 6.109375 26.703125 6.109375 
Q 34.1875 6.109375 38.703125 11.40625 
Q 43.21875 16.703125 43.21875 25.484375 
L 43.21875 27.484375 
z
M 52.203125 31.203125 
L 52.203125 0 
L 43.21875 0 
L 43.21875 8.296875 
Q 40.140625 3.328125 35.546875 0.953125 
Q 30.953125 -1.421875 24.3125 -1.421875 
Q 15.921875 -1.421875 10.953125 3.296875 
Q 6 8.015625 6 15.921875 
Q 6 25.140625 12.171875 29.828125 
Q 18.359375 34.515625 30.609375 34.515625 
L 43.21875 34.515625 
L 43.21875 35.40625 
Q 43.21875 41.609375 39.140625 45 
Q 35.0625 48.390625 27.6875 48.390625 
Q 23 48.390625 18.546875 47.265625 
Q 14.109375 46.140625 10.015625 43.890625 
L 10.015625 52.203125 
Q 14.9375 54.109375 19.578125 55.046875 
Q 24.21875 56 28.609375 56 
Q 40.484375 56 46.34375 49.84375 
Q 52.203125 43.703125 52.203125 31.203125 
z
" id="DejaVuSans-97"/>
      <path d="M 54.890625 33.015625 
L 54.890625 0 
L 45.90625 0 
L 45.90625 32.71875 
Q 45.90625 40.484375 42.875 44.328125 
Q 39.84375 48.1875 33.796875 48.1875 
Q 26.515625 48.1875 22.3125 43.546875 
Q 18.109375 38.921875 18.109375 30.90625 
L 18.109375 0 
L 9.078125 0 
L 9.078125 54.6875 
L 18.109375 54.6875 
L 18.109375 46.1875 
Q 21.34375 51.125 25.703125 53.5625 
Q 30.078125 56 35.796875 56 
Q 45.21875 56 50.046875 50.171875 
Q 54.890625 44.34375 54.890625 33.015625 
z
" id="DejaVuSans-110"/>
      <path d="M 45.40625 27.984375 
Q 45.40625 37.75 41.375 43.109375 
Q 37.359375 48.484375 30.078125 48.484375 
Q 22.859375 48.484375 18.828125 43.109375 
Q 14.796875 37.75 14.796875 27.984375 
Q 14.796875 18.265625 18.828125 12.890625 
Q 22.859375 7.515625 30.078125 7.515625 
Q 37.359375 7.515625 41.375 12.890625 
Q 45.40625 18.265625 45.40625 27.984375 
z
M 54.390625 6.78125 
Q 54.390625 -7.171875 48.1875 -13.984375 
Q 42 -20.796875 29.203125 -20.796875 
Q 24.46875 -20.796875 20.265625 -20.09375 
Q 16.0625 -19.390625 12.109375 -17.921875 
L 12.109375 -9.1875 
Q 16.0625 -11.328125 19.921875 -12.34375 
Q 23.78125 -13.375 27.78125 -13.375 
Q 36.625 -13.375 41.015625 -8.765625 
Q 45.40625 -4.15625 45.40625 5.171875 
L 45.40625 9.625 
Q 42.625 4.78125 38.28125 2.390625 
Q 33.9375 0 27.875 0 
Q 17.828125 0 11.671875 7.65625 
Q 5.515625 15.328125 5.515625 27.984375 
Q 5.515625 40.671875 11.671875 48.328125 
Q 17.828125 56 27.875 56 
Q 33.9375 56 38.28125 53.609375 
Q 42.625 51.21875 45.40625 46.390625 
L 45.40625 54.6875 
L 54.390625 54.6875 
z
" id="DejaVuSans-103"/>
      <path d="M 9.421875 75.984375 
L 18.40625 75.984375 
L 18.40625 0 
L 9.421875 0 
z
" id="DejaVuSans-108"/>
      <path d="M 45.40625 46.390625 
L 45.40625 75.984375 
L 54.390625 75.984375 
L 54.390625 0 
L 45.40625 0 
L 45.40625 8.203125 
Q 42.578125 3.328125 38.25 0.953125 
Q 33.9375 -1.421875 27.875 -1.421875 
Q 17.96875 -1.421875 11.734375 6.484375 
Q 5.515625 14.40625 5.515625 27.296875 
Q 5.515625 40.1875 11.734375 48.09375 
Q 17.96875 56 27.875 56 
Q 33.9375 56 38.25 53.625 
Q 42.578125 51.265625 45.40625 46.390625 
z
M 14.796875 27.296875 
Q 14.796875 17.390625 18.875 11.75 
Q 22.953125 6.109375 30.078125 6.109375 
Q 37.203125 6.109375 41.296875 11.75 
Q 45.40625 17.390625 45.40625 27.296875 
Q 45.40625 37.203125 41.296875 42.84375 
Q 37.203125 48.484375 30.078125 48.484375 
Q 22.953125 48.484375 18.875 42.84375 
Q 14.796875 37.203125 14.796875 27.296875 
z
" id="DejaVuSans-100"/>
     </defs>
     <g transform="translate(11.091625 194.593996)rotate(-90)scale(0.1 -0.1)">
      <use xlink:href="#DejaVuSans-97"/>
      <use x="61.279297" xlink:href="#DejaVuSans-110"/>
      <use x="124.658203" xlink:href="#DejaVuSans-103"/>
      <use x="188.134766" xlink:href="#DejaVuSans-108"/>
      <use x="215.917969" xlink:href="#DejaVuSans-101"/>
      <use x="277.441406" xlink:href="#DejaVuSans-32"/>
      <use x="309.228516" xlink:href="#DejaVuSans-91"/>
      <use x="348.242188" xlink:href="#DejaVuSans-100"/>
      <use x="411.71875" xlink:href="#DejaVuSans-101"/>
      <use x="473.242188" xlink:href="#DejaVuSans-103"/>
      <use x="536.71875" xlink:href="#DejaVuSans-93"/>
     </g>
    </g>
   </g>
   <g id="line2d_14">
    <path clip-path="url(#p4719bba062)" d="M 45.276 32.278442 
L 389.08 32.278442 
" style="fill:none;stroke:#000000;stroke-linecap:square;stroke-width:1.5;"/>
   </g>
   <g id="line2d_15">
    <path clip-path="url(#p4719bba062)" d="M 45.276 309.559545 
L 389.08 309.559545 
" style="fill:none;stroke:#000000;stroke-linecap:square;stroke-width:1.5;"/>
   </g>
   <g id="patch_3">
    <path d="M 45.276 312.685714 
L 45.276 18.925714 
" style="fill:none;stroke:#000000;stroke-linecap:square;stroke-linejoin:miter;stroke-width:0.8;"/>
   </g>
   <g id="patch_4">
    <path d="M 383.46 312.685714 
L 383.46 18.925714 
" style="fill:none;stroke:#000000;stroke-linecap:square;stroke-linejoin:miter;stroke-width:0.8;"/>
   </g>
   <g id="patch_5">
    <path d="M 45.276 312.685714 
L 383.46 312.685714 
" style="fill:none;stroke:#000000;stroke-linecap:square;stroke-linejoin:miter;stroke-width:0.8;"/>
   </g>
   <g id="patch_6">
    <path d="M 45.276 18.925714 
L 383.46 18.925714 
" style="fill:none;stroke:#000000;stroke-linecap:square;stroke-linejoin:miter;stroke-width:0.8;"/>
   </g>
   <g id="text_16">
    <!-- Bag 40 -->
    <defs>
     <path d="M 19.671875 34.8125 
L 19.671875 8.109375 
L 35.5 8.109375 
Q 43.453125 8.109375 47.28125 11.40625 
Q 51.125 14.703125 51.125 21.484375 
Q 51.125 28.328125 47.28125 31.5625 
Q 43.453125 34.8125 35.5 34.8125 
z
M 19.671875 64.796875 
L 19.671875 42.828125 
L 34.28125 42.828125 
Q 41.5 42.828125 45.03125 45.53125 
Q 48.578125 48.25 48.578125 53.8125 
Q 48.578125 59.328125 45.03125 62.0625 
Q 41.5 64.796875 34.28125 64.796875 
z
M 9.8125 72.90625 
L 35.015625 72.90625 
Q 46.296875 72.90625 52.390625 68.21875 
Q 58.5 63.53125 58.5 54.890625 
Q 58.5 48.1875 55.375 44.234375 
Q 52.25 40.28125 46.1875 39.3125 
Q 53.46875 37.75 57.5 32.78125 
Q 61.53125 27.828125 61.53125 20.40625 
Q 61.53125 10.640625 54.890625 5.3125 
Q 48.25 0 35.984375 0 
L 9.8125 0 
z
" id="DejaVuSans-66"/>
    </defs>
    <g transform="translate(193.223625 12.925714)scale(0.12 -0.12)">
     <use xlink:href="#DejaVuSans-66"/>
     <use x="68.603516" xlink:href="#DejaVuSans-97"/>
     <use x="129.882812" xlink:href="#DejaVuSans-103"/>
     <use x="193.359375" xlink:href="#DejaVuSans-32"/>
     <use x="225.146484" xlink:href="#DejaVuSans-52"/>
     <use x="288.769531" xlink:href="#DejaVuSans-48"/>
    </g>
   </g>
   <g id="legend_1">
    <g id="patch_7">
     <path d="M 52.276 307.685714 
L 130.643187 307.685714 
Q 132.643187 307.685714 132.643187 305.685714 
L 132.643187 277.329464 
Q 132.643187 275.329464 130.643187 275.329464 
L 52.276 275.329464 
Q 50.276 275.329464 50.276 277.329464 
L 50.276 305.685714 
Q 50.276 307.685714 52.276 307.685714 
z
" style="fill:#ffffff;opacity:0.8;stroke:#cccccc;stroke-linejoin:miter;"/>
    </g>
    <g id="PathCollection_3">
     <g>
      <use style="fill:#1f77b4;stroke:#1f77b4;" x="64.276" xlink:href="#m0ee276b302" y="284.302902"/>
     </g>
    </g>
    <g id="text_17">
     <!-- Radar -->
     <defs>
      <path d="M 44.390625 34.1875 
Q 47.5625 33.109375 50.5625 29.59375 
Q 53.5625 26.078125 56.59375 19.921875 
L 66.609375 0 
L 56 0 
L 46.6875 18.703125 
Q 43.0625 26.03125 39.671875 28.421875 
Q 36.28125 30.8125 30.421875 30.8125 
L 19.671875 30.8125 
L 19.671875 0 
L 9.8125 0 
L 9.8125 72.90625 
L 32.078125 72.90625 
Q 44.578125 72.90625 50.734375 67.671875 
Q 56.890625 62.453125 56.890625 51.90625 
Q 56.890625 45.015625 53.6875 40.46875 
Q 50.484375 35.9375 44.390625 34.1875 
z
M 19.671875 64.796875 
L 19.671875 38.921875 
L 32.078125 38.921875 
Q 39.203125 38.921875 42.84375 42.21875 
Q 46.484375 45.515625 46.484375 51.90625 
Q 46.484375 58.296875 42.84375 61.546875 
Q 39.203125 64.796875 32.078125 64.796875 
z
" id="DejaVuSans-82"/>
      <path d="M 41.109375 46.296875 
Q 39.59375 47.171875 37.8125 47.578125 
Q 36.03125 48 33.890625 48 
Q 26.265625 48 22.1875 43.046875 
Q 18.109375 38.09375 18.109375 28.8125 
L 18.109375 0 
L 9.078125 0 
L 9.078125 54.6875 
L 18.109375 54.6875 
L 18.109375 46.1875 
Q 20.953125 51.171875 25.484375 53.578125 
Q 30.03125 56 36.53125 56 
Q 37.453125 56 38.578125 55.875 
Q 39.703125 55.765625 41.0625 55.515625 
z
" id="DejaVuSans-114"/>
     </defs>
     <g transform="translate(82.276 286.927902)scale(0.1 -0.1)">
      <use xlink:href="#DejaVuSans-82"/>
      <use x="67.232422" xlink:href="#DejaVuSans-97"/>
      <use x="128.511719" xlink:href="#DejaVuSans-100"/>
      <use x="191.988281" xlink:href="#DejaVuSans-97"/>
      <use x="253.267578" xlink:href="#DejaVuSans-114"/>
     </g>
    </g>
    <g id="PathCollection_4">
     <g>
      <use style="fill:#ff7f0e;stroke:#ff7f0e;" x="64.276" xlink:href="#m03eeac7f19" y="298.981027"/>
     </g>
    </g>
    <g id="text_18">
     <!-- Optitrack -->
     <defs>
      <path d="M 39.40625 66.21875 
Q 28.65625 66.21875 22.328125 58.203125 
Q 16.015625 50.203125 16.015625 36.375 
Q 16.015625 22.609375 22.328125 14.59375 
Q 28.65625 6.59375 39.40625 6.59375 
Q 50.140625 6.59375 56.421875 14.59375 
Q 62.703125 22.609375 62.703125 36.375 
Q 62.703125 50.203125 56.421875 58.203125 
Q 50.140625 66.21875 39.40625 66.21875 
z
M 39.40625 74.21875 
Q 54.734375 74.21875 63.90625 63.9375 
Q 73.09375 53.65625 73.09375 36.375 
Q 73.09375 19.140625 63.90625 8.859375 
Q 54.734375 -1.421875 39.40625 -1.421875 
Q 24.03125 -1.421875 14.8125 8.828125 
Q 5.609375 19.09375 5.609375 36.375 
Q 5.609375 53.65625 14.8125 63.9375 
Q 24.03125 74.21875 39.40625 74.21875 
z
" id="DejaVuSans-79"/>
      <path d="M 18.109375 8.203125 
L 18.109375 -20.796875 
L 9.078125 -20.796875 
L 9.078125 54.6875 
L 18.109375 54.6875 
L 18.109375 46.390625 
Q 20.953125 51.265625 25.265625 53.625 
Q 29.59375 56 35.59375 56 
Q 45.5625 56 51.78125 48.09375 
Q 58.015625 40.1875 58.015625 27.296875 
Q 58.015625 14.40625 51.78125 6.484375 
Q 45.5625 -1.421875 35.59375 -1.421875 
Q 29.59375 -1.421875 25.265625 0.953125 
Q 20.953125 3.328125 18.109375 8.203125 
z
M 48.6875 27.296875 
Q 48.6875 37.203125 44.609375 42.84375 
Q 40.53125 48.484375 33.40625 48.484375 
Q 26.265625 48.484375 22.1875 42.84375 
Q 18.109375 37.203125 18.109375 27.296875 
Q 18.109375 17.390625 22.1875 11.75 
Q 26.265625 6.109375 33.40625 6.109375 
Q 40.53125 6.109375 44.609375 11.75 
Q 48.6875 17.390625 48.6875 27.296875 
z
" id="DejaVuSans-112"/>
      <path d="M 48.78125 52.59375 
L 48.78125 44.1875 
Q 44.96875 46.296875 41.140625 47.34375 
Q 37.3125 48.390625 33.40625 48.390625 
Q 24.65625 48.390625 19.8125 42.84375 
Q 14.984375 37.3125 14.984375 27.296875 
Q 14.984375 17.28125 19.8125 11.734375 
Q 24.65625 6.203125 33.40625 6.203125 
Q 37.3125 6.203125 41.140625 7.25 
Q 44.96875 8.296875 48.78125 10.40625 
L 48.78125 2.09375 
Q 45.015625 0.34375 40.984375 -0.53125 
Q 36.96875 -1.421875 32.421875 -1.421875 
Q 20.0625 -1.421875 12.78125 6.34375 
Q 5.515625 14.109375 5.515625 27.296875 
Q 5.515625 40.671875 12.859375 48.328125 
Q 20.21875 56 33.015625 56 
Q 37.15625 56 41.109375 55.140625 
Q 45.0625 54.296875 48.78125 52.59375 
z
" id="DejaVuSans-99"/>
      <path d="M 9.078125 75.984375 
L 18.109375 75.984375 
L 18.109375 31.109375 
L 44.921875 54.6875 
L 56.390625 54.6875 
L 27.390625 29.109375 
L 57.625 0 
L 45.90625 0 
L 18.109375 26.703125 
L 18.109375 0 
L 9.078125 0 
z
" id="DejaVuSans-107"/>
     </defs>
     <g transform="translate(82.276 301.606027)scale(0.1 -0.1)">
      <use xlink:href="#DejaVuSans-79"/>
      <use x="78.710938" xlink:href="#DejaVuSans-112"/>
      <use x="142.1875" xlink:href="#DejaVuSans-116"/>
      <use x="181.396484" xlink:href="#DejaVuSans-105"/>
      <use x="209.179688" xlink:href="#DejaVuSans-116"/>
      <use x="248.388672" xlink:href="#DejaVuSans-114"/>
      <use x="289.501953" xlink:href="#DejaVuSans-97"/>
      <use x="350.78125" xlink:href="#DejaVuSans-99"/>
      <use x="405.761719" xlink:href="#DejaVuSans-107"/>
     </g>
    </g>
   </g>
  </g>
 </g>
 <defs>
  <clipPath id="p4719bba062">
   <rect height="293.76" width="338.184" x="45.276" y="18.925714"/>
  </clipPath>
 </defs>
</svg>
