<?xml version="1.0" encoding="utf-8" standalone="no"?>
<!DOCTYPE svg PUBLIC "-//W3C//DTD SVG 1.1//EN"
  "http://www.w3.org/Graphics/SVG/1.1/DTD/svg11.dtd">
<!-- Created with matplotlib (https://matplotlib.org/) -->
<svg height="326.16pt" version="1.1" viewBox="0 0 375.12 326.16" width="375.12pt" xmlns="http://www.w3.org/2000/svg" xmlns:xlink="http://www.w3.org/1999/xlink">
 <defs>
  <style type="text/css">
*{stroke-linecap:butt;stroke-linejoin:round;}
  </style>
 </defs>
 <g id="figure_1">
  <g id="patch_1">
   <path d="M 0 326.16 
L 375.12 326.16 
L 375.12 0 
L 0 0 
z
" style="fill:#ffffff;"/>
  </g>
  <g id="axes_1">
   <g id="patch_2">
    <path d="M 28.580571 295.097143 
L 369.761143 295.097143 
L 369.761143 17.861143 
L 28.580571 17.861143 
z
" style="fill:#ffffff;"/>
   </g>
   <g id="PathCollection_1">
    <defs>
     <path d="M 0 3 
C 0.795609 3 1.55874 2.683901 2.12132 2.12132 
C 2.683901 1.55874 3 0.795609 3 0 
C 3 -0.795609 2.683901 -1.55874 2.12132 -2.12132 
C 1.55874 -2.683901 0.795609 -3 0 -3 
C -0.795609 -3 -1.55874 -2.683901 -2.12132 -2.12132 
C -2.683901 -1.55874 -3 -0.795609 -3 0 
C -3 0.795609 -2.683901 1.55874 -2.12132 2.12132 
C -1.55874 2.683901 -0.795609 3 0 3 
z
" id="m82ebd34a97" style="stroke:#1f77b4;"/>
    </defs>
    <g clip-path="url(#p68016e033b)">
     <use style="fill:#1f77b4;stroke:#1f77b4;" x="44.088779" xlink:href="#m82ebd34a97" y="72.468234"/>
     <use style="fill:#1f77b4;stroke:#1f77b4;" x="46.420841" xlink:href="#m82ebd34a97" y="72.468234"/>
     <use style="fill:#1f77b4;stroke:#1f77b4;" x="48.752902" xlink:href="#m82ebd34a97" y="72.468234"/>
     <use style="fill:#1f77b4;stroke:#1f77b4;" x="51.084963" xlink:href="#m82ebd34a97" y="72.468234"/>
     <use style="fill:#1f77b4;stroke:#1f77b4;" x="53.417025" xlink:href="#m82ebd34a97" y="72.468234"/>
     <use style="fill:#1f77b4;stroke:#1f77b4;" x="55.749086" xlink:href="#m82ebd34a97" y="72.468234"/>
     <use style="fill:#1f77b4;stroke:#1f77b4;" x="58.081147" xlink:href="#m82ebd34a97" y="72.468234"/>
     <use style="fill:#1f77b4;stroke:#1f77b4;" x="60.413208" xlink:href="#m82ebd34a97" y="72.468234"/>
     <use style="fill:#1f77b4;stroke:#1f77b4;" x="62.74527" xlink:href="#m82ebd34a97" y="51.465506"/>
     <use style="fill:#1f77b4;stroke:#1f77b4;" x="65.077331" xlink:href="#m82ebd34a97" y="51.465506"/>
     <use style="fill:#1f77b4;stroke:#1f77b4;" x="67.409392" xlink:href="#m82ebd34a97" y="51.465506"/>
     <use style="fill:#1f77b4;stroke:#1f77b4;" x="69.741454" xlink:href="#m82ebd34a97" y="72.468234"/>
     <use style="fill:#1f77b4;stroke:#1f77b4;" x="72.073515" xlink:href="#m82ebd34a97" y="72.468234"/>
     <use style="fill:#1f77b4;stroke:#1f77b4;" x="74.405576" xlink:href="#m82ebd34a97" y="72.468234"/>
     <use style="fill:#1f77b4;stroke:#1f77b4;" x="76.737638" xlink:href="#m82ebd34a97" y="72.468234"/>
     <use style="fill:#1f77b4;stroke:#1f77b4;" x="79.069699" xlink:href="#m82ebd34a97" y="72.468234"/>
     <use style="fill:#1f77b4;stroke:#1f77b4;" x="81.40176" xlink:href="#m82ebd34a97" y="72.468234"/>
     <use style="fill:#1f77b4;stroke:#1f77b4;" x="83.733822" xlink:href="#m82ebd34a97" y="72.468234"/>
     <use style="fill:#1f77b4;stroke:#1f77b4;" x="86.065883" xlink:href="#m82ebd34a97" y="51.465506"/>
     <use style="fill:#1f77b4;stroke:#1f77b4;" x="88.397944" xlink:href="#m82ebd34a97" y="72.468234"/>
     <use style="fill:#1f77b4;stroke:#1f77b4;" x="90.730006" xlink:href="#m82ebd34a97" y="72.468234"/>
     <use style="fill:#1f77b4;stroke:#1f77b4;" x="93.062067" xlink:href="#m82ebd34a97" y="72.468234"/>
     <use style="fill:#1f77b4;stroke:#1f77b4;" x="95.394128" xlink:href="#m82ebd34a97" y="72.468234"/>
     <use style="fill:#1f77b4;stroke:#1f77b4;" x="97.72619" xlink:href="#m82ebd34a97" y="72.468234"/>
     <use style="fill:#1f77b4;stroke:#1f77b4;" x="100.058251" xlink:href="#m82ebd34a97" y="72.468234"/>
     <use style="fill:#1f77b4;stroke:#1f77b4;" x="102.390312" xlink:href="#m82ebd34a97" y="72.468234"/>
     <use style="fill:#1f77b4;stroke:#1f77b4;" x="104.722374" xlink:href="#m82ebd34a97" y="72.468234"/>
     <use style="fill:#1f77b4;stroke:#1f77b4;" x="107.054435" xlink:href="#m82ebd34a97" y="72.468234"/>
     <use style="fill:#1f77b4;stroke:#1f77b4;" x="109.386496" xlink:href="#m82ebd34a97" y="72.468234"/>
     <use style="fill:#1f77b4;stroke:#1f77b4;" x="111.718558" xlink:href="#m82ebd34a97" y="72.468234"/>
     <use style="fill:#1f77b4;stroke:#1f77b4;" x="114.050619" xlink:href="#m82ebd34a97" y="282.495506"/>
     <use style="fill:#1f77b4;stroke:#1f77b4;" x="116.38268" xlink:href="#m82ebd34a97" y="282.495506"/>
     <use style="fill:#1f77b4;stroke:#1f77b4;" x="118.714742" xlink:href="#m82ebd34a97" y="93.470961"/>
     <use style="fill:#1f77b4;stroke:#1f77b4;" x="121.046803" xlink:href="#m82ebd34a97" y="72.468234"/>
     <use style="fill:#1f77b4;stroke:#1f77b4;" x="123.378864" xlink:href="#m82ebd34a97" y="282.495506"/>
     <use style="fill:#1f77b4;stroke:#1f77b4;" x="125.710925" xlink:href="#m82ebd34a97" y="93.470961"/>
     <use style="fill:#1f77b4;stroke:#1f77b4;" x="128.042987" xlink:href="#m82ebd34a97" y="93.470961"/>
     <use style="fill:#1f77b4;stroke:#1f77b4;" x="130.375048" xlink:href="#m82ebd34a97" y="93.470961"/>
     <use style="fill:#1f77b4;stroke:#1f77b4;" x="132.707109" xlink:href="#m82ebd34a97" y="72.468234"/>
     <use style="fill:#1f77b4;stroke:#1f77b4;" x="135.039171" xlink:href="#m82ebd34a97" y="93.470961"/>
     <use style="fill:#1f77b4;stroke:#1f77b4;" x="137.371232" xlink:href="#m82ebd34a97" y="72.468234"/>
     <use style="fill:#1f77b4;stroke:#1f77b4;" x="139.703293" xlink:href="#m82ebd34a97" y="93.470961"/>
     <use style="fill:#1f77b4;stroke:#1f77b4;" x="142.035355" xlink:href="#m82ebd34a97" y="93.470961"/>
     <use style="fill:#1f77b4;stroke:#1f77b4;" x="144.367416" xlink:href="#m82ebd34a97" y="93.470961"/>
     <use style="fill:#1f77b4;stroke:#1f77b4;" x="146.699477" xlink:href="#m82ebd34a97" y="93.470961"/>
     <use style="fill:#1f77b4;stroke:#1f77b4;" x="149.031539" xlink:href="#m82ebd34a97" y="93.470961"/>
     <use style="fill:#1f77b4;stroke:#1f77b4;" x="151.3636" xlink:href="#m82ebd34a97" y="282.495506"/>
     <use style="fill:#1f77b4;stroke:#1f77b4;" x="153.695661" xlink:href="#m82ebd34a97" y="93.470961"/>
     <use style="fill:#1f77b4;stroke:#1f77b4;" x="156.027723" xlink:href="#m82ebd34a97" y="93.470961"/>
     <use style="fill:#1f77b4;stroke:#1f77b4;" x="158.359784" xlink:href="#m82ebd34a97" y="93.470961"/>
     <use style="fill:#1f77b4;stroke:#1f77b4;" x="160.691845" xlink:href="#m82ebd34a97" y="93.470961"/>
     <use style="fill:#1f77b4;stroke:#1f77b4;" x="163.023907" xlink:href="#m82ebd34a97" y="93.470961"/>
     <use style="fill:#1f77b4;stroke:#1f77b4;" x="165.355968" xlink:href="#m82ebd34a97" y="93.470961"/>
     <use style="fill:#1f77b4;stroke:#1f77b4;" x="167.688029" xlink:href="#m82ebd34a97" y="114.473688"/>
     <use style="fill:#1f77b4;stroke:#1f77b4;" x="170.020091" xlink:href="#m82ebd34a97" y="114.473688"/>
     <use style="fill:#1f77b4;stroke:#1f77b4;" x="172.352152" xlink:href="#m82ebd34a97" y="93.470961"/>
     <use style="fill:#1f77b4;stroke:#1f77b4;" x="174.684213" xlink:href="#m82ebd34a97" y="114.473688"/>
     <use style="fill:#1f77b4;stroke:#1f77b4;" x="177.016275" xlink:href="#m82ebd34a97" y="114.473688"/>
     <use style="fill:#1f77b4;stroke:#1f77b4;" x="179.348336" xlink:href="#m82ebd34a97" y="114.473688"/>
     <use style="fill:#1f77b4;stroke:#1f77b4;" x="181.680397" xlink:href="#m82ebd34a97" y="114.473688"/>
     <use style="fill:#1f77b4;stroke:#1f77b4;" x="184.012459" xlink:href="#m82ebd34a97" y="114.473688"/>
     <use style="fill:#1f77b4;stroke:#1f77b4;" x="186.34452" xlink:href="#m82ebd34a97" y="114.473688"/>
     <use style="fill:#1f77b4;stroke:#1f77b4;" x="188.676581" xlink:href="#m82ebd34a97" y="114.473688"/>
     <use style="fill:#1f77b4;stroke:#1f77b4;" x="191.008643" xlink:href="#m82ebd34a97" y="114.473688"/>
     <use style="fill:#1f77b4;stroke:#1f77b4;" x="193.340704" xlink:href="#m82ebd34a97" y="114.473688"/>
     <use style="fill:#1f77b4;stroke:#1f77b4;" x="195.672765" xlink:href="#m82ebd34a97" y="114.473688"/>
     <use style="fill:#1f77b4;stroke:#1f77b4;" x="198.004826" xlink:href="#m82ebd34a97" y="114.473688"/>
     <use style="fill:#1f77b4;stroke:#1f77b4;" x="200.336888" xlink:href="#m82ebd34a97" y="114.473688"/>
     <use style="fill:#1f77b4;stroke:#1f77b4;" x="202.668949" xlink:href="#m82ebd34a97" y="114.473688"/>
     <use style="fill:#1f77b4;stroke:#1f77b4;" x="205.00101" xlink:href="#m82ebd34a97" y="114.473688"/>
     <use style="fill:#1f77b4;stroke:#1f77b4;" x="207.333072" xlink:href="#m82ebd34a97" y="135.476416"/>
     <use style="fill:#1f77b4;stroke:#1f77b4;" x="209.665133" xlink:href="#m82ebd34a97" y="114.473688"/>
     <use style="fill:#1f77b4;stroke:#1f77b4;" x="211.997194" xlink:href="#m82ebd34a97" y="135.476416"/>
     <use style="fill:#1f77b4;stroke:#1f77b4;" x="214.329256" xlink:href="#m82ebd34a97" y="135.476416"/>
     <use style="fill:#1f77b4;stroke:#1f77b4;" x="216.661317" xlink:href="#m82ebd34a97" y="135.476416"/>
     <use style="fill:#1f77b4;stroke:#1f77b4;" x="218.993378" xlink:href="#m82ebd34a97" y="135.476416"/>
     <use style="fill:#1f77b4;stroke:#1f77b4;" x="221.32544" xlink:href="#m82ebd34a97" y="135.476416"/>
     <use style="fill:#1f77b4;stroke:#1f77b4;" x="223.657501" xlink:href="#m82ebd34a97" y="135.476416"/>
     <use style="fill:#1f77b4;stroke:#1f77b4;" x="225.989562" xlink:href="#m82ebd34a97" y="156.479143"/>
     <use style="fill:#1f77b4;stroke:#1f77b4;" x="228.321624" xlink:href="#m82ebd34a97" y="135.476416"/>
     <use style="fill:#1f77b4;stroke:#1f77b4;" x="230.653685" xlink:href="#m82ebd34a97" y="135.476416"/>
     <use style="fill:#1f77b4;stroke:#1f77b4;" x="232.985746" xlink:href="#m82ebd34a97" y="156.479143"/>
     <use style="fill:#1f77b4;stroke:#1f77b4;" x="235.317808" xlink:href="#m82ebd34a97" y="156.479143"/>
     <use style="fill:#1f77b4;stroke:#1f77b4;" x="237.649869" xlink:href="#m82ebd34a97" y="156.479143"/>
     <use style="fill:#1f77b4;stroke:#1f77b4;" x="239.98193" xlink:href="#m82ebd34a97" y="156.479143"/>
     <use style="fill:#1f77b4;stroke:#1f77b4;" x="242.313992" xlink:href="#m82ebd34a97" y="177.48187"/>
     <use style="fill:#1f77b4;stroke:#1f77b4;" x="244.646053" xlink:href="#m82ebd34a97" y="177.48187"/>
     <use style="fill:#1f77b4;stroke:#1f77b4;" x="246.978114" xlink:href="#m82ebd34a97" y="177.48187"/>
     <use style="fill:#1f77b4;stroke:#1f77b4;" x="249.310176" xlink:href="#m82ebd34a97" y="177.48187"/>
     <use style="fill:#1f77b4;stroke:#1f77b4;" x="251.642237" xlink:href="#m82ebd34a97" y="177.48187"/>
     <use style="fill:#1f77b4;stroke:#1f77b4;" x="253.974298" xlink:href="#m82ebd34a97" y="177.48187"/>
     <use style="fill:#1f77b4;stroke:#1f77b4;" x="256.30636" xlink:href="#m82ebd34a97" y="198.484597"/>
     <use style="fill:#1f77b4;stroke:#1f77b4;" x="258.638421" xlink:href="#m82ebd34a97" y="198.484597"/>
     <use style="fill:#1f77b4;stroke:#1f77b4;" x="260.970482" xlink:href="#m82ebd34a97" y="198.484597"/>
     <use style="fill:#1f77b4;stroke:#1f77b4;" x="263.302544" xlink:href="#m82ebd34a97" y="198.484597"/>
     <use style="fill:#1f77b4;stroke:#1f77b4;" x="265.634605" xlink:href="#m82ebd34a97" y="198.484597"/>
     <use style="fill:#1f77b4;stroke:#1f77b4;" x="267.966666" xlink:href="#m82ebd34a97" y="198.484597"/>
     <use style="fill:#1f77b4;stroke:#1f77b4;" x="270.298727" xlink:href="#m82ebd34a97" y="198.484597"/>
     <use style="fill:#1f77b4;stroke:#1f77b4;" x="272.630789" xlink:href="#m82ebd34a97" y="219.487325"/>
     <use style="fill:#1f77b4;stroke:#1f77b4;" x="274.96285" xlink:href="#m82ebd34a97" y="219.487325"/>
     <use style="fill:#1f77b4;stroke:#1f77b4;" x="277.294911" xlink:href="#m82ebd34a97" y="198.484597"/>
     <use style="fill:#1f77b4;stroke:#1f77b4;" x="279.626973" xlink:href="#m82ebd34a97" y="198.484597"/>
     <use style="fill:#1f77b4;stroke:#1f77b4;" x="281.959034" xlink:href="#m82ebd34a97" y="219.487325"/>
     <use style="fill:#1f77b4;stroke:#1f77b4;" x="284.291095" xlink:href="#m82ebd34a97" y="219.487325"/>
     <use style="fill:#1f77b4;stroke:#1f77b4;" x="286.623157" xlink:href="#m82ebd34a97" y="219.487325"/>
     <use style="fill:#1f77b4;stroke:#1f77b4;" x="288.955218" xlink:href="#m82ebd34a97" y="219.487325"/>
     <use style="fill:#1f77b4;stroke:#1f77b4;" x="291.287279" xlink:href="#m82ebd34a97" y="219.487325"/>
     <use style="fill:#1f77b4;stroke:#1f77b4;" x="293.619341" xlink:href="#m82ebd34a97" y="219.487325"/>
     <use style="fill:#1f77b4;stroke:#1f77b4;" x="295.951402" xlink:href="#m82ebd34a97" y="240.490052"/>
     <use style="fill:#1f77b4;stroke:#1f77b4;" x="298.283463" xlink:href="#m82ebd34a97" y="240.490052"/>
     <use style="fill:#1f77b4;stroke:#1f77b4;" x="300.615525" xlink:href="#m82ebd34a97" y="240.490052"/>
     <use style="fill:#1f77b4;stroke:#1f77b4;" x="302.947586" xlink:href="#m82ebd34a97" y="240.490052"/>
     <use style="fill:#1f77b4;stroke:#1f77b4;" x="305.279647" xlink:href="#m82ebd34a97" y="240.490052"/>
     <use style="fill:#1f77b4;stroke:#1f77b4;" x="307.611709" xlink:href="#m82ebd34a97" y="240.490052"/>
     <use style="fill:#1f77b4;stroke:#1f77b4;" x="309.94377" xlink:href="#m82ebd34a97" y="240.490052"/>
     <use style="fill:#1f77b4;stroke:#1f77b4;" x="312.275831" xlink:href="#m82ebd34a97" y="240.490052"/>
     <use style="fill:#1f77b4;stroke:#1f77b4;" x="314.607893" xlink:href="#m82ebd34a97" y="261.492779"/>
     <use style="fill:#1f77b4;stroke:#1f77b4;" x="316.939954" xlink:href="#m82ebd34a97" y="240.490052"/>
     <use style="fill:#1f77b4;stroke:#1f77b4;" x="319.272015" xlink:href="#m82ebd34a97" y="261.492779"/>
     <use style="fill:#1f77b4;stroke:#1f77b4;" x="321.604077" xlink:href="#m82ebd34a97" y="261.492779"/>
     <use style="fill:#1f77b4;stroke:#1f77b4;" x="323.936138" xlink:href="#m82ebd34a97" y="261.492779"/>
     <use style="fill:#1f77b4;stroke:#1f77b4;" x="326.268199" xlink:href="#m82ebd34a97" y="282.495506"/>
     <use style="fill:#1f77b4;stroke:#1f77b4;" x="328.600261" xlink:href="#m82ebd34a97" y="282.495506"/>
     <use style="fill:#1f77b4;stroke:#1f77b4;" x="330.932322" xlink:href="#m82ebd34a97" y="282.495506"/>
     <use style="fill:#1f77b4;stroke:#1f77b4;" x="333.264383" xlink:href="#m82ebd34a97" y="261.492779"/>
     <use style="fill:#1f77b4;stroke:#1f77b4;" x="335.596444" xlink:href="#m82ebd34a97" y="261.492779"/>
     <use style="fill:#1f77b4;stroke:#1f77b4;" x="337.928506" xlink:href="#m82ebd34a97" y="261.492779"/>
     <use style="fill:#1f77b4;stroke:#1f77b4;" x="340.260567" xlink:href="#m82ebd34a97" y="261.492779"/>
     <use style="fill:#1f77b4;stroke:#1f77b4;" x="342.592628" xlink:href="#m82ebd34a97" y="282.495506"/>
     <use style="fill:#1f77b4;stroke:#1f77b4;" x="344.92469" xlink:href="#m82ebd34a97" y="282.495506"/>
     <use style="fill:#1f77b4;stroke:#1f77b4;" x="347.256751" xlink:href="#m82ebd34a97" y="282.495506"/>
     <use style="fill:#1f77b4;stroke:#1f77b4;" x="349.588812" xlink:href="#m82ebd34a97" y="282.495506"/>
     <use style="fill:#1f77b4;stroke:#1f77b4;" x="351.920874" xlink:href="#m82ebd34a97" y="261.492779"/>
     <use style="fill:#1f77b4;stroke:#1f77b4;" x="354.252935" xlink:href="#m82ebd34a97" y="30.462779"/>
    </g>
   </g>
   <g id="PathCollection_2">
    <defs>
     <path d="M 0 3 
C 0.795609 3 1.55874 2.683901 2.12132 2.12132 
C 2.683901 1.55874 3 0.795609 3 0 
C 3 -0.795609 2.683901 -1.55874 2.12132 -2.12132 
C 1.55874 -2.683901 0.795609 -3 0 -3 
C -0.795609 -3 -1.55874 -2.683901 -2.12132 -2.12132 
C -2.683901 -1.55874 -3 -0.795609 -3 0 
C -3 0.795609 -2.683901 1.55874 -2.12132 2.12132 
C -1.55874 2.683901 -0.795609 3 0 3 
z
" id="m55632c68a7" style="stroke:#ff7f0e;"/>
    </defs>
    <g clip-path="url(#p68016e033b)">
     <use style="fill:#ff7f0e;stroke:#ff7f0e;" x="44.088779" xlink:href="#m55632c68a7" y="62.901378"/>
     <use style="fill:#ff7f0e;stroke:#ff7f0e;" x="46.420841" xlink:href="#m55632c68a7" y="62.919845"/>
     <use style="fill:#ff7f0e;stroke:#ff7f0e;" x="48.752902" xlink:href="#m55632c68a7" y="63.107076"/>
     <use style="fill:#ff7f0e;stroke:#ff7f0e;" x="51.084963" xlink:href="#m55632c68a7" y="63.119466"/>
     <use style="fill:#ff7f0e;stroke:#ff7f0e;" x="53.417025" xlink:href="#m55632c68a7" y="63.219356"/>
     <use style="fill:#ff7f0e;stroke:#ff7f0e;" x="55.749086" xlink:href="#m55632c68a7" y="63.376367"/>
     <use style="fill:#ff7f0e;stroke:#ff7f0e;" x="58.081147" xlink:href="#m55632c68a7" y="63.464325"/>
     <use style="fill:#ff7f0e;stroke:#ff7f0e;" x="60.413208" xlink:href="#m55632c68a7" y="63.658491"/>
     <use style="fill:#ff7f0e;stroke:#ff7f0e;" x="62.74527" xlink:href="#m55632c68a7" y="63.720386"/>
     <use style="fill:#ff7f0e;stroke:#ff7f0e;" x="65.077331" xlink:href="#m55632c68a7" y="63.802179"/>
     <use style="fill:#ff7f0e;stroke:#ff7f0e;" x="67.409392" xlink:href="#m55632c68a7" y="63.941192"/>
     <use style="fill:#ff7f0e;stroke:#ff7f0e;" x="69.741454" xlink:href="#m55632c68a7" y="64.120413"/>
     <use style="fill:#ff7f0e;stroke:#ff7f0e;" x="72.073515" xlink:href="#m55632c68a7" y="64.306743"/>
     <use style="fill:#ff7f0e;stroke:#ff7f0e;" x="74.405576" xlink:href="#m55632c68a7" y="64.370578"/>
     <use style="fill:#ff7f0e;stroke:#ff7f0e;" x="76.737638" xlink:href="#m55632c68a7" y="64.426419"/>
     <use style="fill:#ff7f0e;stroke:#ff7f0e;" x="79.069699" xlink:href="#m55632c68a7" y="64.678007"/>
     <use style="fill:#ff7f0e;stroke:#ff7f0e;" x="81.40176" xlink:href="#m55632c68a7" y="64.855454"/>
     <use style="fill:#ff7f0e;stroke:#ff7f0e;" x="83.733822" xlink:href="#m55632c68a7" y="64.995734"/>
     <use style="fill:#ff7f0e;stroke:#ff7f0e;" x="86.065883" xlink:href="#m55632c68a7" y="65.243573"/>
     <use style="fill:#ff7f0e;stroke:#ff7f0e;" x="88.397944" xlink:href="#m55632c68a7" y="65.429589"/>
     <use style="fill:#ff7f0e;stroke:#ff7f0e;" x="90.730006" xlink:href="#m55632c68a7" y="65.781778"/>
     <use style="fill:#ff7f0e;stroke:#ff7f0e;" x="93.062067" xlink:href="#m55632c68a7" y="66.184266"/>
     <use style="fill:#ff7f0e;stroke:#ff7f0e;" x="95.394128" xlink:href="#m55632c68a7" y="66.668929"/>
     <use style="fill:#ff7f0e;stroke:#ff7f0e;" x="97.72619" xlink:href="#m55632c68a7" y="67.174402"/>
     <use style="fill:#ff7f0e;stroke:#ff7f0e;" x="100.058251" xlink:href="#m55632c68a7" y="67.654869"/>
     <use style="fill:#ff7f0e;stroke:#ff7f0e;" x="102.390312" xlink:href="#m55632c68a7" y="68.239111"/>
     <use style="fill:#ff7f0e;stroke:#ff7f0e;" x="104.722374" xlink:href="#m55632c68a7" y="68.658768"/>
     <use style="fill:#ff7f0e;stroke:#ff7f0e;" x="107.054435" xlink:href="#m55632c68a7" y="69.477711"/>
     <use style="fill:#ff7f0e;stroke:#ff7f0e;" x="109.386496" xlink:href="#m55632c68a7" y="70.301688"/>
     <use style="fill:#ff7f0e;stroke:#ff7f0e;" x="111.718558" xlink:href="#m55632c68a7" y="71.043041"/>
     <use style="fill:#ff7f0e;stroke:#ff7f0e;" x="114.050619" xlink:href="#m55632c68a7" y="71.739883"/>
     <use style="fill:#ff7f0e;stroke:#ff7f0e;" x="116.38268" xlink:href="#m55632c68a7" y="72.489318"/>
     <use style="fill:#ff7f0e;stroke:#ff7f0e;" x="118.714742" xlink:href="#m55632c68a7" y="73.338651"/>
     <use style="fill:#ff7f0e;stroke:#ff7f0e;" x="121.046803" xlink:href="#m55632c68a7" y="74.255962"/>
     <use style="fill:#ff7f0e;stroke:#ff7f0e;" x="123.378864" xlink:href="#m55632c68a7" y="75.009125"/>
     <use style="fill:#ff7f0e;stroke:#ff7f0e;" x="125.710925" xlink:href="#m55632c68a7" y="75.885633"/>
     <use style="fill:#ff7f0e;stroke:#ff7f0e;" x="128.042987" xlink:href="#m55632c68a7" y="76.714096"/>
     <use style="fill:#ff7f0e;stroke:#ff7f0e;" x="130.375048" xlink:href="#m55632c68a7" y="77.514758"/>
     <use style="fill:#ff7f0e;stroke:#ff7f0e;" x="132.707109" xlink:href="#m55632c68a7" y="78.394561"/>
     <use style="fill:#ff7f0e;stroke:#ff7f0e;" x="135.039171" xlink:href="#m55632c68a7" y="79.393523"/>
     <use style="fill:#ff7f0e;stroke:#ff7f0e;" x="137.371232" xlink:href="#m55632c68a7" y="80.264778"/>
     <use style="fill:#ff7f0e;stroke:#ff7f0e;" x="139.703293" xlink:href="#m55632c68a7" y="81.135132"/>
     <use style="fill:#ff7f0e;stroke:#ff7f0e;" x="142.035355" xlink:href="#m55632c68a7" y="82.004122"/>
     <use style="fill:#ff7f0e;stroke:#ff7f0e;" x="144.367416" xlink:href="#m55632c68a7" y="82.891859"/>
     <use style="fill:#ff7f0e;stroke:#ff7f0e;" x="146.699477" xlink:href="#m55632c68a7" y="83.951246"/>
     <use style="fill:#ff7f0e;stroke:#ff7f0e;" x="149.031539" xlink:href="#m55632c68a7" y="84.870601"/>
     <use style="fill:#ff7f0e;stroke:#ff7f0e;" x="151.3636" xlink:href="#m55632c68a7" y="85.812456"/>
     <use style="fill:#ff7f0e;stroke:#ff7f0e;" x="153.695661" xlink:href="#m55632c68a7" y="86.762498"/>
     <use style="fill:#ff7f0e;stroke:#ff7f0e;" x="156.027723" xlink:href="#m55632c68a7" y="87.691969"/>
     <use style="fill:#ff7f0e;stroke:#ff7f0e;" x="158.359784" xlink:href="#m55632c68a7" y="88.715615"/>
     <use style="fill:#ff7f0e;stroke:#ff7f0e;" x="160.691845" xlink:href="#m55632c68a7" y="89.917898"/>
     <use style="fill:#ff7f0e;stroke:#ff7f0e;" x="163.023907" xlink:href="#m55632c68a7" y="90.949971"/>
     <use style="fill:#ff7f0e;stroke:#ff7f0e;" x="165.355968" xlink:href="#m55632c68a7" y="92.06783"/>
     <use style="fill:#ff7f0e;stroke:#ff7f0e;" x="167.688029" xlink:href="#m55632c68a7" y="93.185026"/>
     <use style="fill:#ff7f0e;stroke:#ff7f0e;" x="170.020091" xlink:href="#m55632c68a7" y="94.245093"/>
     <use style="fill:#ff7f0e;stroke:#ff7f0e;" x="172.352152" xlink:href="#m55632c68a7" y="95.429424"/>
     <use style="fill:#ff7f0e;stroke:#ff7f0e;" x="174.684213" xlink:href="#m55632c68a7" y="96.857453"/>
     <use style="fill:#ff7f0e;stroke:#ff7f0e;" x="177.016275" xlink:href="#m55632c68a7" y="98.154819"/>
     <use style="fill:#ff7f0e;stroke:#ff7f0e;" x="179.348336" xlink:href="#m55632c68a7" y="99.344723"/>
     <use style="fill:#ff7f0e;stroke:#ff7f0e;" x="181.680397" xlink:href="#m55632c68a7" y="100.70222"/>
     <use style="fill:#ff7f0e;stroke:#ff7f0e;" x="184.012459" xlink:href="#m55632c68a7" y="102.088131"/>
     <use style="fill:#ff7f0e;stroke:#ff7f0e;" x="186.34452" xlink:href="#m55632c68a7" y="103.423878"/>
     <use style="fill:#ff7f0e;stroke:#ff7f0e;" x="188.676581" xlink:href="#m55632c68a7" y="105.203634"/>
     <use style="fill:#ff7f0e;stroke:#ff7f0e;" x="191.008643" xlink:href="#m55632c68a7" y="106.69896"/>
     <use style="fill:#ff7f0e;stroke:#ff7f0e;" x="193.340704" xlink:href="#m55632c68a7" y="107.942572"/>
     <use style="fill:#ff7f0e;stroke:#ff7f0e;" x="195.672765" xlink:href="#m55632c68a7" y="109.790357"/>
     <use style="fill:#ff7f0e;stroke:#ff7f0e;" x="198.004826" xlink:href="#m55632c68a7" y="111.504816"/>
     <use style="fill:#ff7f0e;stroke:#ff7f0e;" x="200.336888" xlink:href="#m55632c68a7" y="113.592152"/>
     <use style="fill:#ff7f0e;stroke:#ff7f0e;" x="202.668949" xlink:href="#m55632c68a7" y="115.380588"/>
     <use style="fill:#ff7f0e;stroke:#ff7f0e;" x="205.00101" xlink:href="#m55632c68a7" y="117.247313"/>
     <use style="fill:#ff7f0e;stroke:#ff7f0e;" x="207.333072" xlink:href="#m55632c68a7" y="119.151762"/>
     <use style="fill:#ff7f0e;stroke:#ff7f0e;" x="209.665133" xlink:href="#m55632c68a7" y="121.125158"/>
     <use style="fill:#ff7f0e;stroke:#ff7f0e;" x="211.997194" xlink:href="#m55632c68a7" y="123.581544"/>
     <use style="fill:#ff7f0e;stroke:#ff7f0e;" x="214.329256" xlink:href="#m55632c68a7" y="125.699634"/>
     <use style="fill:#ff7f0e;stroke:#ff7f0e;" x="216.661317" xlink:href="#m55632c68a7" y="127.873116"/>
     <use style="fill:#ff7f0e;stroke:#ff7f0e;" x="218.993378" xlink:href="#m55632c68a7" y="130.114898"/>
     <use style="fill:#ff7f0e;stroke:#ff7f0e;" x="221.32544" xlink:href="#m55632c68a7" y="132.422359"/>
     <use style="fill:#ff7f0e;stroke:#ff7f0e;" x="223.657501" xlink:href="#m55632c68a7" y="134.792444"/>
     <use style="fill:#ff7f0e;stroke:#ff7f0e;" x="225.989562" xlink:href="#m55632c68a7" y="137.683736"/>
     <use style="fill:#ff7f0e;stroke:#ff7f0e;" x="228.321624" xlink:href="#m55632c68a7" y="140.173364"/>
     <use style="fill:#ff7f0e;stroke:#ff7f0e;" x="230.653685" xlink:href="#m55632c68a7" y="142.596078"/>
     <use style="fill:#ff7f0e;stroke:#ff7f0e;" x="232.985746" xlink:href="#m55632c68a7" y="145.295377"/>
     <use style="fill:#ff7f0e;stroke:#ff7f0e;" x="235.317808" xlink:href="#m55632c68a7" y="147.930124"/>
     <use style="fill:#ff7f0e;stroke:#ff7f0e;" x="237.649869" xlink:href="#m55632c68a7" y="150.622711"/>
     <use style="fill:#ff7f0e;stroke:#ff7f0e;" x="239.98193" xlink:href="#m55632c68a7" y="153.895696"/>
     <use style="fill:#ff7f0e;stroke:#ff7f0e;" x="242.313992" xlink:href="#m55632c68a7" y="156.676653"/>
     <use style="fill:#ff7f0e;stroke:#ff7f0e;" x="244.646053" xlink:href="#m55632c68a7" y="159.487908"/>
     <use style="fill:#ff7f0e;stroke:#ff7f0e;" x="246.978114" xlink:href="#m55632c68a7" y="162.324401"/>
     <use style="fill:#ff7f0e;stroke:#ff7f0e;" x="249.310176" xlink:href="#m55632c68a7" y="165.192438"/>
     <use style="fill:#ff7f0e;stroke:#ff7f0e;" x="251.642237" xlink:href="#m55632c68a7" y="168.46471"/>
     <use style="fill:#ff7f0e;stroke:#ff7f0e;" x="253.974298" xlink:href="#m55632c68a7" y="171.508132"/>
     <use style="fill:#ff7f0e;stroke:#ff7f0e;" x="256.30636" xlink:href="#m55632c68a7" y="174.429414"/>
     <use style="fill:#ff7f0e;stroke:#ff7f0e;" x="258.638421" xlink:href="#m55632c68a7" y="177.297776"/>
     <use style="fill:#ff7f0e;stroke:#ff7f0e;" x="260.970482" xlink:href="#m55632c68a7" y="180.20327"/>
     <use style="fill:#ff7f0e;stroke:#ff7f0e;" x="263.302544" xlink:href="#m55632c68a7" y="182.944595"/>
     <use style="fill:#ff7f0e;stroke:#ff7f0e;" x="265.634605" xlink:href="#m55632c68a7" y="186.437525"/>
     <use style="fill:#ff7f0e;stroke:#ff7f0e;" x="267.966666" xlink:href="#m55632c68a7" y="189.242343"/>
     <use style="fill:#ff7f0e;stroke:#ff7f0e;" x="270.298727" xlink:href="#m55632c68a7" y="192.004718"/>
     <use style="fill:#ff7f0e;stroke:#ff7f0e;" x="272.630789" xlink:href="#m55632c68a7" y="194.532051"/>
     <use style="fill:#ff7f0e;stroke:#ff7f0e;" x="274.96285" xlink:href="#m55632c68a7" y="197.410683"/>
     <use style="fill:#ff7f0e;stroke:#ff7f0e;" x="277.294911" xlink:href="#m55632c68a7" y="200.576148"/>
     <use style="fill:#ff7f0e;stroke:#ff7f0e;" x="279.626973" xlink:href="#m55632c68a7" y="203.095786"/>
     <use style="fill:#ff7f0e;stroke:#ff7f0e;" x="281.959034" xlink:href="#m55632c68a7" y="205.656769"/>
     <use style="fill:#ff7f0e;stroke:#ff7f0e;" x="284.291095" xlink:href="#m55632c68a7" y="208.264582"/>
     <use style="fill:#ff7f0e;stroke:#ff7f0e;" x="286.623157" xlink:href="#m55632c68a7" y="210.512172"/>
     <use style="fill:#ff7f0e;stroke:#ff7f0e;" x="288.955218" xlink:href="#m55632c68a7" y="213.196557"/>
     <use style="fill:#ff7f0e;stroke:#ff7f0e;" x="291.287279" xlink:href="#m55632c68a7" y="216.133233"/>
     <use style="fill:#ff7f0e;stroke:#ff7f0e;" x="293.619341" xlink:href="#m55632c68a7" y="218.533279"/>
     <use style="fill:#ff7f0e;stroke:#ff7f0e;" x="295.951402" xlink:href="#m55632c68a7" y="220.9417"/>
     <use style="fill:#ff7f0e;stroke:#ff7f0e;" x="298.283463" xlink:href="#m55632c68a7" y="223.208744"/>
     <use style="fill:#ff7f0e;stroke:#ff7f0e;" x="300.615525" xlink:href="#m55632c68a7" y="225.49193"/>
     <use style="fill:#ff7f0e;stroke:#ff7f0e;" x="302.947586" xlink:href="#m55632c68a7" y="228.09055"/>
     <use style="fill:#ff7f0e;stroke:#ff7f0e;" x="305.279647" xlink:href="#m55632c68a7" y="230.836945"/>
     <use style="fill:#ff7f0e;stroke:#ff7f0e;" x="307.611709" xlink:href="#m55632c68a7" y="233.179419"/>
     <use style="fill:#ff7f0e;stroke:#ff7f0e;" x="309.94377" xlink:href="#m55632c68a7" y="235.664213"/>
     <use style="fill:#ff7f0e;stroke:#ff7f0e;" x="312.275831" xlink:href="#m55632c68a7" y="238.031709"/>
     <use style="fill:#ff7f0e;stroke:#ff7f0e;" x="314.607893" xlink:href="#m55632c68a7" y="240.426815"/>
     <use style="fill:#ff7f0e;stroke:#ff7f0e;" x="316.939954" xlink:href="#m55632c68a7" y="243.153307"/>
     <use style="fill:#ff7f0e;stroke:#ff7f0e;" x="319.272015" xlink:href="#m55632c68a7" y="245.683588"/>
     <use style="fill:#ff7f0e;stroke:#ff7f0e;" x="321.604077" xlink:href="#m55632c68a7" y="248.077126"/>
     <use style="fill:#ff7f0e;stroke:#ff7f0e;" x="323.936138" xlink:href="#m55632c68a7" y="250.357025"/>
     <use style="fill:#ff7f0e;stroke:#ff7f0e;" x="326.268199" xlink:href="#m55632c68a7" y="252.742564"/>
     <use style="fill:#ff7f0e;stroke:#ff7f0e;" x="328.600261" xlink:href="#m55632c68a7" y="255.181298"/>
     <use style="fill:#ff7f0e;stroke:#ff7f0e;" x="330.932322" xlink:href="#m55632c68a7" y="257.991743"/>
     <use style="fill:#ff7f0e;stroke:#ff7f0e;" x="333.264383" xlink:href="#m55632c68a7" y="260.273914"/>
     <use style="fill:#ff7f0e;stroke:#ff7f0e;" x="335.596444" xlink:href="#m55632c68a7" y="262.53169"/>
     <use style="fill:#ff7f0e;stroke:#ff7f0e;" x="337.928506" xlink:href="#m55632c68a7" y="264.721719"/>
     <use style="fill:#ff7f0e;stroke:#ff7f0e;" x="340.260567" xlink:href="#m55632c68a7" y="267.049396"/>
     <use style="fill:#ff7f0e;stroke:#ff7f0e;" x="342.592628" xlink:href="#m55632c68a7" y="269.531226"/>
     <use style="fill:#ff7f0e;stroke:#ff7f0e;" x="344.92469" xlink:href="#m55632c68a7" y="271.506945"/>
     <use style="fill:#ff7f0e;stroke:#ff7f0e;" x="347.256751" xlink:href="#m55632c68a7" y="273.396111"/>
     <use style="fill:#ff7f0e;stroke:#ff7f0e;" x="349.588812" xlink:href="#m55632c68a7" y="275.159447"/>
     <use style="fill:#ff7f0e;stroke:#ff7f0e;" x="351.920874" xlink:href="#m55632c68a7" y="276.770137"/>
     <use style="fill:#ff7f0e;stroke:#ff7f0e;" x="354.252935" xlink:href="#m55632c68a7" y="278.299976"/>
    </g>
   </g>
   <g id="matplotlib.axis_1">
    <g id="xtick_1">
     <g id="line2d_1">
      <defs>
       <path d="M 0 0 
L 0 3.5 
" id="mbe414093a1" style="stroke:#000000;stroke-width:0.8;"/>
      </defs>
      <g>
       <use style="stroke:#000000;stroke-width:0.8;" x="44.088779" xlink:href="#mbe414093a1" y="295.097143"/>
      </g>
     </g>
     <g id="text_1">
      <!-- 0 -->
      <defs>
       <path d="M 31.78125 66.40625 
Q 24.171875 66.40625 20.328125 58.90625 
Q 16.5 51.421875 16.5 36.375 
Q 16.5 21.390625 20.328125 13.890625 
Q 24.171875 6.390625 31.78125 6.390625 
Q 39.453125 6.390625 43.28125 13.890625 
Q 47.125 21.390625 47.125 36.375 
Q 47.125 51.421875 43.28125 58.90625 
Q 39.453125 66.40625 31.78125 66.40625 
z
M 31.78125 74.21875 
Q 44.046875 74.21875 50.515625 64.515625 
Q 56.984375 54.828125 56.984375 36.375 
Q 56.984375 17.96875 50.515625 8.265625 
Q 44.046875 -1.421875 31.78125 -1.421875 
Q 19.53125 -1.421875 13.0625 8.265625 
Q 6.59375 17.96875 6.59375 36.375 
Q 6.59375 54.828125 13.0625 64.515625 
Q 19.53125 74.21875 31.78125 74.21875 
z
" id="DejaVuSans-48"/>
      </defs>
      <g transform="translate(40.907529 309.69558)scale(0.1 -0.1)">
       <use xlink:href="#DejaVuSans-48"/>
      </g>
     </g>
    </g>
    <g id="xtick_2">
     <g id="line2d_2">
      <g>
       <use style="stroke:#000000;stroke-width:0.8;" x="115.705713" xlink:href="#mbe414093a1" y="295.097143"/>
      </g>
     </g>
     <g id="text_2">
      <!-- 2 -->
      <defs>
       <path d="M 19.1875 8.296875 
L 53.609375 8.296875 
L 53.609375 0 
L 7.328125 0 
L 7.328125 8.296875 
Q 12.9375 14.109375 22.625 23.890625 
Q 32.328125 33.6875 34.8125 36.53125 
Q 39.546875 41.84375 41.421875 45.53125 
Q 43.3125 49.21875 43.3125 52.78125 
Q 43.3125 58.59375 39.234375 62.25 
Q 35.15625 65.921875 28.609375 65.921875 
Q 23.96875 65.921875 18.8125 64.3125 
Q 13.671875 62.703125 7.8125 59.421875 
L 7.8125 69.390625 
Q 13.765625 71.78125 18.9375 73 
Q 24.125 74.21875 28.421875 74.21875 
Q 39.75 74.21875 46.484375 68.546875 
Q 53.21875 62.890625 53.21875 53.421875 
Q 53.21875 48.921875 51.53125 44.890625 
Q 49.859375 40.875 45.40625 35.40625 
Q 44.1875 33.984375 37.640625 27.21875 
Q 31.109375 20.453125 19.1875 8.296875 
z
" id="DejaVuSans-50"/>
      </defs>
      <g transform="translate(112.524463 309.69558)scale(0.1 -0.1)">
       <use xlink:href="#DejaVuSans-50"/>
      </g>
     </g>
    </g>
    <g id="xtick_3">
     <g id="line2d_3">
      <g>
       <use style="stroke:#000000;stroke-width:0.8;" x="187.322648" xlink:href="#mbe414093a1" y="295.097143"/>
      </g>
     </g>
     <g id="text_3">
      <!-- 4 -->
      <defs>
       <path d="M 37.796875 64.3125 
L 12.890625 25.390625 
L 37.796875 25.390625 
z
M 35.203125 72.90625 
L 47.609375 72.90625 
L 47.609375 25.390625 
L 58.015625 25.390625 
L 58.015625 17.1875 
L 47.609375 17.1875 
L 47.609375 0 
L 37.796875 0 
L 37.796875 17.1875 
L 4.890625 17.1875 
L 4.890625 26.703125 
z
" id="DejaVuSans-52"/>
      </defs>
      <g transform="translate(184.141398 309.69558)scale(0.1 -0.1)">
       <use xlink:href="#DejaVuSans-52"/>
      </g>
     </g>
    </g>
    <g id="xtick_4">
     <g id="line2d_4">
      <g>
       <use style="stroke:#000000;stroke-width:0.8;" x="258.939582" xlink:href="#mbe414093a1" y="295.097143"/>
      </g>
     </g>
     <g id="text_4">
      <!-- 6 -->
      <defs>
       <path d="M 33.015625 40.375 
Q 26.375 40.375 22.484375 35.828125 
Q 18.609375 31.296875 18.609375 23.390625 
Q 18.609375 15.53125 22.484375 10.953125 
Q 26.375 6.390625 33.015625 6.390625 
Q 39.65625 6.390625 43.53125 10.953125 
Q 47.40625 15.53125 47.40625 23.390625 
Q 47.40625 31.296875 43.53125 35.828125 
Q 39.65625 40.375 33.015625 40.375 
z
M 52.59375 71.296875 
L 52.59375 62.3125 
Q 48.875 64.0625 45.09375 64.984375 
Q 41.3125 65.921875 37.59375 65.921875 
Q 27.828125 65.921875 22.671875 59.328125 
Q 17.53125 52.734375 16.796875 39.40625 
Q 19.671875 43.65625 24.015625 45.921875 
Q 28.375 48.1875 33.59375 48.1875 
Q 44.578125 48.1875 50.953125 41.515625 
Q 57.328125 34.859375 57.328125 23.390625 
Q 57.328125 12.15625 50.6875 5.359375 
Q 44.046875 -1.421875 33.015625 -1.421875 
Q 20.359375 -1.421875 13.671875 8.265625 
Q 6.984375 17.96875 6.984375 36.375 
Q 6.984375 53.65625 15.1875 63.9375 
Q 23.390625 74.21875 37.203125 74.21875 
Q 40.921875 74.21875 44.703125 73.484375 
Q 48.484375 72.75 52.59375 71.296875 
z
" id="DejaVuSans-54"/>
      </defs>
      <g transform="translate(255.758332 309.69558)scale(0.1 -0.1)">
       <use xlink:href="#DejaVuSans-54"/>
      </g>
     </g>
    </g>
    <g id="xtick_5">
     <g id="line2d_5">
      <g>
       <use style="stroke:#000000;stroke-width:0.8;" x="330.556516" xlink:href="#mbe414093a1" y="295.097143"/>
      </g>
     </g>
     <g id="text_5">
      <!-- 8 -->
      <defs>
       <path d="M 31.78125 34.625 
Q 24.75 34.625 20.71875 30.859375 
Q 16.703125 27.09375 16.703125 20.515625 
Q 16.703125 13.921875 20.71875 10.15625 
Q 24.75 6.390625 31.78125 6.390625 
Q 38.8125 6.390625 42.859375 10.171875 
Q 46.921875 13.96875 46.921875 20.515625 
Q 46.921875 27.09375 42.890625 30.859375 
Q 38.875 34.625 31.78125 34.625 
z
M 21.921875 38.8125 
Q 15.578125 40.375 12.03125 44.71875 
Q 8.5 49.078125 8.5 55.328125 
Q 8.5 64.0625 14.71875 69.140625 
Q 20.953125 74.21875 31.78125 74.21875 
Q 42.671875 74.21875 48.875 69.140625 
Q 55.078125 64.0625 55.078125 55.328125 
Q 55.078125 49.078125 51.53125 44.71875 
Q 48 40.375 41.703125 38.8125 
Q 48.828125 37.15625 52.796875 32.3125 
Q 56.78125 27.484375 56.78125 20.515625 
Q 56.78125 9.90625 50.3125 4.234375 
Q 43.84375 -1.421875 31.78125 -1.421875 
Q 19.734375 -1.421875 13.25 4.234375 
Q 6.78125 9.90625 6.78125 20.515625 
Q 6.78125 27.484375 10.78125 32.3125 
Q 14.796875 37.15625 21.921875 38.8125 
z
M 18.3125 54.390625 
Q 18.3125 48.734375 21.84375 45.5625 
Q 25.390625 42.390625 31.78125 42.390625 
Q 38.140625 42.390625 41.71875 45.5625 
Q 45.3125 48.734375 45.3125 54.390625 
Q 45.3125 60.0625 41.71875 63.234375 
Q 38.140625 66.40625 31.78125 66.40625 
Q 25.390625 66.40625 21.84375 63.234375 
Q 18.3125 60.0625 18.3125 54.390625 
z
" id="DejaVuSans-56"/>
      </defs>
      <g transform="translate(327.375266 309.69558)scale(0.1 -0.1)">
       <use xlink:href="#DejaVuSans-56"/>
      </g>
     </g>
    </g>
    <g id="text_6">
     <!-- time [s] -->
     <defs>
      <path d="M 18.3125 70.21875 
L 18.3125 54.6875 
L 36.8125 54.6875 
L 36.8125 47.703125 
L 18.3125 47.703125 
L 18.3125 18.015625 
Q 18.3125 11.328125 20.140625 9.421875 
Q 21.96875 7.515625 27.59375 7.515625 
L 36.8125 7.515625 
L 36.8125 0 
L 27.59375 0 
Q 17.1875 0 13.234375 3.875 
Q 9.28125 7.765625 9.28125 18.015625 
L 9.28125 47.703125 
L 2.6875 47.703125 
L 2.6875 54.6875 
L 9.28125 54.6875 
L 9.28125 70.21875 
z
" id="DejaVuSans-116"/>
      <path d="M 9.421875 54.6875 
L 18.40625 54.6875 
L 18.40625 0 
L 9.421875 0 
z
M 9.421875 75.984375 
L 18.40625 75.984375 
L 18.40625 64.59375 
L 9.421875 64.59375 
z
" id="DejaVuSans-105"/>
      <path d="M 52 44.1875 
Q 55.375 50.25 60.0625 53.125 
Q 64.75 56 71.09375 56 
Q 79.640625 56 84.28125 50.015625 
Q 88.921875 44.046875 88.921875 33.015625 
L 88.921875 0 
L 79.890625 0 
L 79.890625 32.71875 
Q 79.890625 40.578125 77.09375 44.375 
Q 74.3125 48.1875 68.609375 48.1875 
Q 61.625 48.1875 57.5625 43.546875 
Q 53.515625 38.921875 53.515625 30.90625 
L 53.515625 0 
L 44.484375 0 
L 44.484375 32.71875 
Q 44.484375 40.625 41.703125 44.40625 
Q 38.921875 48.1875 33.109375 48.1875 
Q 26.21875 48.1875 22.15625 43.53125 
Q 18.109375 38.875 18.109375 30.90625 
L 18.109375 0 
L 9.078125 0 
L 9.078125 54.6875 
L 18.109375 54.6875 
L 18.109375 46.1875 
Q 21.1875 51.21875 25.484375 53.609375 
Q 29.78125 56 35.6875 56 
Q 41.65625 56 45.828125 52.96875 
Q 50 49.953125 52 44.1875 
z
" id="DejaVuSans-109"/>
      <path d="M 56.203125 29.59375 
L 56.203125 25.203125 
L 14.890625 25.203125 
Q 15.484375 15.921875 20.484375 11.0625 
Q 25.484375 6.203125 34.421875 6.203125 
Q 39.59375 6.203125 44.453125 7.46875 
Q 49.3125 8.734375 54.109375 11.28125 
L 54.109375 2.78125 
Q 49.265625 0.734375 44.1875 -0.34375 
Q 39.109375 -1.421875 33.890625 -1.421875 
Q 20.796875 -1.421875 13.15625 6.1875 
Q 5.515625 13.8125 5.515625 26.8125 
Q 5.515625 40.234375 12.765625 48.109375 
Q 20.015625 56 32.328125 56 
Q 43.359375 56 49.78125 48.890625 
Q 56.203125 41.796875 56.203125 29.59375 
z
M 47.21875 32.234375 
Q 47.125 39.59375 43.09375 43.984375 
Q 39.0625 48.390625 32.421875 48.390625 
Q 24.90625 48.390625 20.390625 44.140625 
Q 15.875 39.890625 15.1875 32.171875 
z
" id="DejaVuSans-101"/>
      <path id="DejaVuSans-32"/>
      <path d="M 8.59375 75.984375 
L 29.296875 75.984375 
L 29.296875 69 
L 17.578125 69 
L 17.578125 -6.203125 
L 29.296875 -6.203125 
L 29.296875 -13.1875 
L 8.59375 -13.1875 
z
" id="DejaVuSans-91"/>
      <path d="M 44.28125 53.078125 
L 44.28125 44.578125 
Q 40.484375 46.53125 36.375 47.5 
Q 32.28125 48.484375 27.875 48.484375 
Q 21.1875 48.484375 17.84375 46.4375 
Q 14.5 44.390625 14.5 40.28125 
Q 14.5 37.15625 16.890625 35.375 
Q 19.28125 33.59375 26.515625 31.984375 
L 29.59375 31.296875 
Q 39.15625 29.25 43.1875 25.515625 
Q 47.21875 21.78125 47.21875 15.09375 
Q 47.21875 7.46875 41.1875 3.015625 
Q 35.15625 -1.421875 24.609375 -1.421875 
Q 20.21875 -1.421875 15.453125 -0.5625 
Q 10.6875 0.296875 5.421875 2 
L 5.421875 11.28125 
Q 10.40625 8.6875 15.234375 7.390625 
Q 20.0625 6.109375 24.8125 6.109375 
Q 31.15625 6.109375 34.5625 8.28125 
Q 37.984375 10.453125 37.984375 14.40625 
Q 37.984375 18.0625 35.515625 20.015625 
Q 33.0625 21.96875 24.703125 23.78125 
L 21.578125 24.515625 
Q 13.234375 26.265625 9.515625 29.90625 
Q 5.8125 33.546875 5.8125 39.890625 
Q 5.8125 47.609375 11.28125 51.796875 
Q 16.75 56 26.8125 56 
Q 31.78125 56 36.171875 55.265625 
Q 40.578125 54.546875 44.28125 53.078125 
z
" id="DejaVuSans-115"/>
      <path d="M 30.421875 75.984375 
L 30.421875 -13.1875 
L 9.71875 -13.1875 
L 9.71875 -6.203125 
L 21.390625 -6.203125 
L 21.390625 69 
L 9.71875 69 
L 9.71875 75.984375 
z
" id="DejaVuSans-93"/>
     </defs>
     <g transform="translate(179.779451 323.373705)scale(0.1 -0.1)">
      <use xlink:href="#DejaVuSans-116"/>
      <use x="39.208984" xlink:href="#DejaVuSans-105"/>
      <use x="66.992188" xlink:href="#DejaVuSans-109"/>
      <use x="164.404297" xlink:href="#DejaVuSans-101"/>
      <use x="225.927734" xlink:href="#DejaVuSans-32"/>
      <use x="257.714844" xlink:href="#DejaVuSans-91"/>
      <use x="296.728516" xlink:href="#DejaVuSans-115"/>
      <use x="348.828125" xlink:href="#DejaVuSans-93"/>
     </g>
    </g>
   </g>
   <g id="matplotlib.axis_2">
    <g id="ytick_1">
     <g id="line2d_6">
      <defs>
       <path d="M 0 0 
L -3.5 0 
" id="maa2340361a" style="stroke:#000000;stroke-width:0.8;"/>
      </defs>
      <g>
       <use style="stroke:#000000;stroke-width:0.8;" x="28.580571" xlink:href="#maa2340361a" y="249.731252"/>
      </g>
     </g>
     <g id="text_7">
      <!-- 1 -->
      <defs>
       <path d="M 12.40625 8.296875 
L 28.515625 8.296875 
L 28.515625 63.921875 
L 10.984375 60.40625 
L 10.984375 69.390625 
L 28.421875 72.90625 
L 38.28125 72.90625 
L 38.28125 8.296875 
L 54.390625 8.296875 
L 54.390625 0 
L 12.40625 0 
z
" id="DejaVuSans-49"/>
      </defs>
      <g transform="translate(15.218071 253.530471)scale(0.1 -0.1)">
       <use xlink:href="#DejaVuSans-49"/>
      </g>
     </g>
    </g>
    <g id="ytick_2">
     <g id="line2d_7">
      <g>
       <use style="stroke:#000000;stroke-width:0.8;" x="28.580571" xlink:href="#maa2340361a" y="195.96427"/>
      </g>
     </g>
     <g id="text_8">
      <!-- 2 -->
      <g transform="translate(15.218071 199.763489)scale(0.1 -0.1)">
       <use xlink:href="#DejaVuSans-50"/>
      </g>
     </g>
    </g>
    <g id="ytick_3">
     <g id="line2d_8">
      <g>
       <use style="stroke:#000000;stroke-width:0.8;" x="28.580571" xlink:href="#maa2340361a" y="142.197288"/>
      </g>
     </g>
     <g id="text_9">
      <!-- 3 -->
      <defs>
       <path d="M 40.578125 39.3125 
Q 47.65625 37.796875 51.625 33 
Q 55.609375 28.21875 55.609375 21.1875 
Q 55.609375 10.40625 48.1875 4.484375 
Q 40.765625 -1.421875 27.09375 -1.421875 
Q 22.515625 -1.421875 17.65625 -0.515625 
Q 12.796875 0.390625 7.625 2.203125 
L 7.625 11.71875 
Q 11.71875 9.328125 16.59375 8.109375 
Q 21.484375 6.890625 26.8125 6.890625 
Q 36.078125 6.890625 40.9375 10.546875 
Q 45.796875 14.203125 45.796875 21.1875 
Q 45.796875 27.640625 41.28125 31.265625 
Q 36.765625 34.90625 28.71875 34.90625 
L 20.21875 34.90625 
L 20.21875 43.015625 
L 29.109375 43.015625 
Q 36.375 43.015625 40.234375 45.921875 
Q 44.09375 48.828125 44.09375 54.296875 
Q 44.09375 59.90625 40.109375 62.90625 
Q 36.140625 65.921875 28.71875 65.921875 
Q 24.65625 65.921875 20.015625 65.03125 
Q 15.375 64.15625 9.8125 62.3125 
L 9.8125 71.09375 
Q 15.4375 72.65625 20.34375 73.4375 
Q 25.25 74.21875 29.59375 74.21875 
Q 40.828125 74.21875 47.359375 69.109375 
Q 53.90625 64.015625 53.90625 55.328125 
Q 53.90625 49.265625 50.4375 45.09375 
Q 46.96875 40.921875 40.578125 39.3125 
z
" id="DejaVuSans-51"/>
      </defs>
      <g transform="translate(15.218071 145.996507)scale(0.1 -0.1)">
       <use xlink:href="#DejaVuSans-51"/>
      </g>
     </g>
    </g>
    <g id="ytick_4">
     <g id="line2d_9">
      <g>
       <use style="stroke:#000000;stroke-width:0.8;" x="28.580571" xlink:href="#maa2340361a" y="88.430306"/>
      </g>
     </g>
     <g id="text_10">
      <!-- 4 -->
      <g transform="translate(15.218071 92.229525)scale(0.1 -0.1)">
       <use xlink:href="#DejaVuSans-52"/>
      </g>
     </g>
    </g>
    <g id="ytick_5">
     <g id="line2d_10">
      <g>
       <use style="stroke:#000000;stroke-width:0.8;" x="28.580571" xlink:href="#maa2340361a" y="34.663325"/>
      </g>
     </g>
     <g id="text_11">
      <!-- 5 -->
      <defs>
       <path d="M 10.796875 72.90625 
L 49.515625 72.90625 
L 49.515625 64.59375 
L 19.828125 64.59375 
L 19.828125 46.734375 
Q 21.96875 47.46875 24.109375 47.828125 
Q 26.265625 48.1875 28.421875 48.1875 
Q 40.625 48.1875 47.75 41.5 
Q 54.890625 34.8125 54.890625 23.390625 
Q 54.890625 11.625 47.5625 5.09375 
Q 40.234375 -1.421875 26.90625 -1.421875 
Q 22.3125 -1.421875 17.546875 -0.640625 
Q 12.796875 0.140625 7.71875 1.703125 
L 7.71875 11.625 
Q 12.109375 9.234375 16.796875 8.0625 
Q 21.484375 6.890625 26.703125 6.890625 
Q 35.15625 6.890625 40.078125 11.328125 
Q 45.015625 15.765625 45.015625 23.390625 
Q 45.015625 31 40.078125 35.4375 
Q 35.15625 39.890625 26.703125 39.890625 
Q 22.75 39.890625 18.8125 39.015625 
Q 14.890625 38.140625 10.796875 36.28125 
z
" id="DejaVuSans-53"/>
      </defs>
      <g transform="translate(15.218071 38.462543)scale(0.1 -0.1)">
       <use xlink:href="#DejaVuSans-53"/>
      </g>
     </g>
    </g>
    <g id="text_12">
     <!-- range [m] -->
     <defs>
      <path d="M 41.109375 46.296875 
Q 39.59375 47.171875 37.8125 47.578125 
Q 36.03125 48 33.890625 48 
Q 26.265625 48 22.1875 43.046875 
Q 18.109375 38.09375 18.109375 28.8125 
L 18.109375 0 
L 9.078125 0 
L 9.078125 54.6875 
L 18.109375 54.6875 
L 18.109375 46.1875 
Q 20.953125 51.171875 25.484375 53.578125 
Q 30.03125 56 36.53125 56 
Q 37.453125 56 38.578125 55.875 
Q 39.703125 55.765625 41.0625 55.515625 
z
" id="DejaVuSans-114"/>
      <path d="M 34.28125 27.484375 
Q 23.390625 27.484375 19.1875 25 
Q 14.984375 22.515625 14.984375 16.5 
Q 14.984375 11.71875 18.140625 8.90625 
Q 21.296875 6.109375 26.703125 6.109375 
Q 34.1875 6.109375 38.703125 11.40625 
Q 43.21875 16.703125 43.21875 25.484375 
L 43.21875 27.484375 
z
M 52.203125 31.203125 
L 52.203125 0 
L 43.21875 0 
L 43.21875 8.296875 
Q 40.140625 3.328125 35.546875 0.953125 
Q 30.953125 -1.421875 24.3125 -1.421875 
Q 15.921875 -1.421875 10.953125 3.296875 
Q 6 8.015625 6 15.921875 
Q 6 25.140625 12.171875 29.828125 
Q 18.359375 34.515625 30.609375 34.515625 
L 43.21875 34.515625 
L 43.21875 35.40625 
Q 43.21875 41.609375 39.140625 45 
Q 35.0625 48.390625 27.6875 48.390625 
Q 23 48.390625 18.546875 47.265625 
Q 14.109375 46.140625 10.015625 43.890625 
L 10.015625 52.203125 
Q 14.9375 54.109375 19.578125 55.046875 
Q 24.21875 56 28.609375 56 
Q 40.484375 56 46.34375 49.84375 
Q 52.203125 43.703125 52.203125 31.203125 
z
" id="DejaVuSans-97"/>
      <path d="M 54.890625 33.015625 
L 54.890625 0 
L 45.90625 0 
L 45.90625 32.71875 
Q 45.90625 40.484375 42.875 44.328125 
Q 39.84375 48.1875 33.796875 48.1875 
Q 26.515625 48.1875 22.3125 43.546875 
Q 18.109375 38.921875 18.109375 30.90625 
L 18.109375 0 
L 9.078125 0 
L 9.078125 54.6875 
L 18.109375 54.6875 
L 18.109375 46.1875 
Q 21.34375 51.125 25.703125 53.5625 
Q 30.078125 56 35.796875 56 
Q 45.21875 56 50.046875 50.171875 
Q 54.890625 44.34375 54.890625 33.015625 
z
" id="DejaVuSans-110"/>
      <path d="M 45.40625 27.984375 
Q 45.40625 37.75 41.375 43.109375 
Q 37.359375 48.484375 30.078125 48.484375 
Q 22.859375 48.484375 18.828125 43.109375 
Q 14.796875 37.75 14.796875 27.984375 
Q 14.796875 18.265625 18.828125 12.890625 
Q 22.859375 7.515625 30.078125 7.515625 
Q 37.359375 7.515625 41.375 12.890625 
Q 45.40625 18.265625 45.40625 27.984375 
z
M 54.390625 6.78125 
Q 54.390625 -7.171875 48.1875 -13.984375 
Q 42 -20.796875 29.203125 -20.796875 
Q 24.46875 -20.796875 20.265625 -20.09375 
Q 16.0625 -19.390625 12.109375 -17.921875 
L 12.109375 -9.1875 
Q 16.0625 -11.328125 19.921875 -12.34375 
Q 23.78125 -13.375 27.78125 -13.375 
Q 36.625 -13.375 41.015625 -8.765625 
Q 45.40625 -4.15625 45.40625 5.171875 
L 45.40625 9.625 
Q 42.625 4.78125 38.28125 2.390625 
Q 33.9375 0 27.875 0 
Q 17.828125 0 11.671875 7.65625 
Q 5.515625 15.328125 5.515625 27.984375 
Q 5.515625 40.671875 11.671875 48.328125 
Q 17.828125 56 27.875 56 
Q 33.9375 56 38.28125 53.609375 
Q 42.625 51.21875 45.40625 46.390625 
L 45.40625 54.6875 
L 54.390625 54.6875 
z
" id="DejaVuSans-103"/>
     </defs>
     <g transform="translate(9.138384 181.379143)rotate(-90)scale(0.1 -0.1)">
      <use xlink:href="#DejaVuSans-114"/>
      <use x="41.113281" xlink:href="#DejaVuSans-97"/>
      <use x="102.392578" xlink:href="#DejaVuSans-110"/>
      <use x="165.771484" xlink:href="#DejaVuSans-103"/>
      <use x="229.248047" xlink:href="#DejaVuSans-101"/>
      <use x="290.771484" xlink:href="#DejaVuSans-32"/>
      <use x="322.558594" xlink:href="#DejaVuSans-91"/>
      <use x="361.572266" xlink:href="#DejaVuSans-109"/>
      <use x="458.984375" xlink:href="#DejaVuSans-93"/>
     </g>
    </g>
   </g>
   <g id="patch_3">
    <path d="M 28.580571 295.097143 
L 28.580571 17.861143 
" style="fill:none;stroke:#000000;stroke-linecap:square;stroke-linejoin:miter;stroke-width:0.8;"/>
   </g>
   <g id="patch_4">
    <path d="M 369.761143 295.097143 
L 369.761143 17.861143 
" style="fill:none;stroke:#000000;stroke-linecap:square;stroke-linejoin:miter;stroke-width:0.8;"/>
   </g>
   <g id="patch_5">
    <path d="M 28.580571 295.097143 
L 369.761143 295.097143 
" style="fill:none;stroke:#000000;stroke-linecap:square;stroke-linejoin:miter;stroke-width:0.8;"/>
   </g>
   <g id="patch_6">
    <path d="M 28.580571 17.861143 
L 369.761143 17.861143 
" style="fill:none;stroke:#000000;stroke-linecap:square;stroke-linejoin:miter;stroke-width:0.8;"/>
   </g>
   <g id="text_13">
    <!-- Bag 40 -->
    <defs>
     <path d="M 19.671875 34.8125 
L 19.671875 8.109375 
L 35.5 8.109375 
Q 43.453125 8.109375 47.28125 11.40625 
Q 51.125 14.703125 51.125 21.484375 
Q 51.125 28.328125 47.28125 31.5625 
Q 43.453125 34.8125 35.5 34.8125 
z
M 19.671875 64.796875 
L 19.671875 42.828125 
L 34.28125 42.828125 
Q 41.5 42.828125 45.03125 45.53125 
Q 48.578125 48.25 48.578125 53.8125 
Q 48.578125 59.328125 45.03125 62.0625 
Q 41.5 64.796875 34.28125 64.796875 
z
M 9.8125 72.90625 
L 35.015625 72.90625 
Q 46.296875 72.90625 52.390625 68.21875 
Q 58.5 63.53125 58.5 54.890625 
Q 58.5 48.1875 55.375 44.234375 
Q 52.25 40.28125 46.1875 39.3125 
Q 53.46875 37.75 57.5 32.78125 
Q 61.53125 27.828125 61.53125 20.40625 
Q 61.53125 10.640625 54.890625 5.3125 
Q 48.25 0 35.984375 0 
L 9.8125 0 
z
" id="DejaVuSans-66"/>
    </defs>
    <g transform="translate(178.026482 11.861143)scale(0.12 -0.12)">
     <use xlink:href="#DejaVuSans-66"/>
     <use x="68.603516" xlink:href="#DejaVuSans-97"/>
     <use x="129.882812" xlink:href="#DejaVuSans-103"/>
     <use x="193.359375" xlink:href="#DejaVuSans-32"/>
     <use x="225.146484" xlink:href="#DejaVuSans-52"/>
     <use x="288.769531" xlink:href="#DejaVuSans-48"/>
    </g>
   </g>
   <g id="legend_1">
    <g id="patch_7">
     <path d="M 284.393955 172.657268 
L 362.761143 172.657268 
Q 364.761143 172.657268 364.761143 170.657268 
L 364.761143 142.301018 
Q 364.761143 140.301018 362.761143 140.301018 
L 284.393955 140.301018 
Q 282.393955 140.301018 282.393955 142.301018 
L 282.393955 170.657268 
Q 282.393955 172.657268 284.393955 172.657268 
z
" style="fill:#ffffff;opacity:0.8;stroke:#cccccc;stroke-linejoin:miter;"/>
    </g>
    <g id="PathCollection_3">
     <g>
      <use style="fill:#1f77b4;stroke:#1f77b4;" x="296.393955" xlink:href="#m82ebd34a97" y="149.274455"/>
     </g>
    </g>
    <g id="text_14">
     <!-- Radar -->
     <defs>
      <path d="M 44.390625 34.1875 
Q 47.5625 33.109375 50.5625 29.59375 
Q 53.5625 26.078125 56.59375 19.921875 
L 66.609375 0 
L 56 0 
L 46.6875 18.703125 
Q 43.0625 26.03125 39.671875 28.421875 
Q 36.28125 30.8125 30.421875 30.8125 
L 19.671875 30.8125 
L 19.671875 0 
L 9.8125 0 
L 9.8125 72.90625 
L 32.078125 72.90625 
Q 44.578125 72.90625 50.734375 67.671875 
Q 56.890625 62.453125 56.890625 51.90625 
Q 56.890625 45.015625 53.6875 40.46875 
Q 50.484375 35.9375 44.390625 34.1875 
z
M 19.671875 64.796875 
L 19.671875 38.921875 
L 32.078125 38.921875 
Q 39.203125 38.921875 42.84375 42.21875 
Q 46.484375 45.515625 46.484375 51.90625 
Q 46.484375 58.296875 42.84375 61.546875 
Q 39.203125 64.796875 32.078125 64.796875 
z
" id="DejaVuSans-82"/>
      <path d="M 45.40625 46.390625 
L 45.40625 75.984375 
L 54.390625 75.984375 
L 54.390625 0 
L 45.40625 0 
L 45.40625 8.203125 
Q 42.578125 3.328125 38.25 0.953125 
Q 33.9375 -1.421875 27.875 -1.421875 
Q 17.96875 -1.421875 11.734375 6.484375 
Q 5.515625 14.40625 5.515625 27.296875 
Q 5.515625 40.1875 11.734375 48.09375 
Q 17.96875 56 27.875 56 
Q 33.9375 56 38.25 53.625 
Q 42.578125 51.265625 45.40625 46.390625 
z
M 14.796875 27.296875 
Q 14.796875 17.390625 18.875 11.75 
Q 22.953125 6.109375 30.078125 6.109375 
Q 37.203125 6.109375 41.296875 11.75 
Q 45.40625 17.390625 45.40625 27.296875 
Q 45.40625 37.203125 41.296875 42.84375 
Q 37.203125 48.484375 30.078125 48.484375 
Q 22.953125 48.484375 18.875 42.84375 
Q 14.796875 37.203125 14.796875 27.296875 
z
" id="DejaVuSans-100"/>
     </defs>
     <g transform="translate(314.393955 151.899455)scale(0.1 -0.1)">
      <use xlink:href="#DejaVuSans-82"/>
      <use x="67.232422" xlink:href="#DejaVuSans-97"/>
      <use x="128.511719" xlink:href="#DejaVuSans-100"/>
      <use x="191.988281" xlink:href="#DejaVuSans-97"/>
      <use x="253.267578" xlink:href="#DejaVuSans-114"/>
     </g>
    </g>
    <g id="PathCollection_4">
     <g>
      <use style="fill:#ff7f0e;stroke:#ff7f0e;" x="296.393955" xlink:href="#m55632c68a7" y="163.95258"/>
     </g>
    </g>
    <g id="text_15">
     <!-- Optitrack -->
     <defs>
      <path d="M 39.40625 66.21875 
Q 28.65625 66.21875 22.328125 58.203125 
Q 16.015625 50.203125 16.015625 36.375 
Q 16.015625 22.609375 22.328125 14.59375 
Q 28.65625 6.59375 39.40625 6.59375 
Q 50.140625 6.59375 56.421875 14.59375 
Q 62.703125 22.609375 62.703125 36.375 
Q 62.703125 50.203125 56.421875 58.203125 
Q 50.140625 66.21875 39.40625 66.21875 
z
M 39.40625 74.21875 
Q 54.734375 74.21875 63.90625 63.9375 
Q 73.09375 53.65625 73.09375 36.375 
Q 73.09375 19.140625 63.90625 8.859375 
Q 54.734375 -1.421875 39.40625 -1.421875 
Q 24.03125 -1.421875 14.8125 8.828125 
Q 5.609375 19.09375 5.609375 36.375 
Q 5.609375 53.65625 14.8125 63.9375 
Q 24.03125 74.21875 39.40625 74.21875 
z
" id="DejaVuSans-79"/>
      <path d="M 18.109375 8.203125 
L 18.109375 -20.796875 
L 9.078125 -20.796875 
L 9.078125 54.6875 
L 18.109375 54.6875 
L 18.109375 46.390625 
Q 20.953125 51.265625 25.265625 53.625 
Q 29.59375 56 35.59375 56 
Q 45.5625 56 51.78125 48.09375 
Q 58.015625 40.1875 58.015625 27.296875 
Q 58.015625 14.40625 51.78125 6.484375 
Q 45.5625 -1.421875 35.59375 -1.421875 
Q 29.59375 -1.421875 25.265625 0.953125 
Q 20.953125 3.328125 18.109375 8.203125 
z
M 48.6875 27.296875 
Q 48.6875 37.203125 44.609375 42.84375 
Q 40.53125 48.484375 33.40625 48.484375 
Q 26.265625 48.484375 22.1875 42.84375 
Q 18.109375 37.203125 18.109375 27.296875 
Q 18.109375 17.390625 22.1875 11.75 
Q 26.265625 6.109375 33.40625 6.109375 
Q 40.53125 6.109375 44.609375 11.75 
Q 48.6875 17.390625 48.6875 27.296875 
z
" id="DejaVuSans-112"/>
      <path d="M 48.78125 52.59375 
L 48.78125 44.1875 
Q 44.96875 46.296875 41.140625 47.34375 
Q 37.3125 48.390625 33.40625 48.390625 
Q 24.65625 48.390625 19.8125 42.84375 
Q 14.984375 37.3125 14.984375 27.296875 
Q 14.984375 17.28125 19.8125 11.734375 
Q 24.65625 6.203125 33.40625 6.203125 
Q 37.3125 6.203125 41.140625 7.25 
Q 44.96875 8.296875 48.78125 10.40625 
L 48.78125 2.09375 
Q 45.015625 0.34375 40.984375 -0.53125 
Q 36.96875 -1.421875 32.421875 -1.421875 
Q 20.0625 -1.421875 12.78125 6.34375 
Q 5.515625 14.109375 5.515625 27.296875 
Q 5.515625 40.671875 12.859375 48.328125 
Q 20.21875 56 33.015625 56 
Q 37.15625 56 41.109375 55.140625 
Q 45.0625 54.296875 48.78125 52.59375 
z
" id="DejaVuSans-99"/>
      <path d="M 9.078125 75.984375 
L 18.109375 75.984375 
L 18.109375 31.109375 
L 44.921875 54.6875 
L 56.390625 54.6875 
L 27.390625 29.109375 
L 57.625 0 
L 45.90625 0 
L 18.109375 26.703125 
L 18.109375 0 
L 9.078125 0 
z
" id="DejaVuSans-107"/>
     </defs>
     <g transform="translate(314.393955 166.57758)scale(0.1 -0.1)">
      <use xlink:href="#DejaVuSans-79"/>
      <use x="78.710938" xlink:href="#DejaVuSans-112"/>
      <use x="142.1875" xlink:href="#DejaVuSans-116"/>
      <use x="181.396484" xlink:href="#DejaVuSans-105"/>
      <use x="209.179688" xlink:href="#DejaVuSans-116"/>
      <use x="248.388672" xlink:href="#DejaVuSans-114"/>
      <use x="289.501953" xlink:href="#DejaVuSans-97"/>
      <use x="350.78125" xlink:href="#DejaVuSans-99"/>
      <use x="405.761719" xlink:href="#DejaVuSans-107"/>
     </g>
    </g>
   </g>
  </g>
 </g>
 <defs>
  <clipPath id="p68016e033b">
   <rect height="277.236" width="341.180571" x="28.580571" y="17.861143"/>
  </clipPath>
 </defs>
</svg>
