<?xml version="1.0" encoding="utf-8" standalone="no"?>
<!DOCTYPE svg PUBLIC "-//W3C//DTD SVG 1.1//EN"
  "http://www.w3.org/Graphics/SVG/1.1/DTD/svg11.dtd">
<!-- Created with matplotlib (https://matplotlib.org/) -->
<svg height="345.6pt" version="1.1" viewBox="0 0 395.28 345.6" width="395.28pt" xmlns="http://www.w3.org/2000/svg" xmlns:xlink="http://www.w3.org/1999/xlink">
 <defs>
  <style type="text/css">
*{stroke-linecap:butt;stroke-linejoin:round;}
  </style>
 </defs>
 <g id="figure_1">
  <g id="patch_1">
   <path d="M 0 345.6 
L 395.28 345.6 
L 395.28 0 
L 0 0 
z
" style="fill:#ffffff;"/>
  </g>
  <g id="axes_1">
   <g id="patch_2">
    <path d="M 60.233143 305.28 
L 390.574286 305.28 
L 390.574286 23.04 
L 60.233143 23.04 
z
" style="fill:#ffffff;"/>
   </g>
   <g id="PathCollection_1">
    <defs>
     <path d="M 0 3 
C 0.795609 3 1.55874 2.683901 2.12132 2.12132 
C 2.683901 1.55874 3 0.795609 3 0 
C 3 -0.795609 2.683901 -1.55874 2.12132 -2.12132 
C 1.55874 -2.683901 0.795609 -3 0 -3 
C -0.795609 -3 -1.55874 -2.683901 -2.12132 -2.12132 
C -2.683901 -1.55874 -3 -0.795609 -3 0 
C -3 0.795609 -2.683901 1.55874 -2.12132 2.12132 
C -1.55874 2.683901 -0.795609 3 0 3 
z
" id="me09f4233f8" style="stroke:#1f77b4;"/>
    </defs>
    <g clip-path="url(#p9d887fd732)">
     <use style="fill:#1f77b4;stroke:#1f77b4;" x="75.248649" xlink:href="#me09f4233f8" y="107.941475"/>
     <use style="fill:#1f77b4;stroke:#1f77b4;" x="78.003788" xlink:href="#me09f4233f8" y="184.218882"/>
     <use style="fill:#1f77b4;stroke:#1f77b4;" x="80.758927" xlink:href="#me09f4233f8" y="183.06606"/>
     <use style="fill:#1f77b4;stroke:#1f77b4;" x="83.514066" xlink:href="#me09f4233f8" y="183.269327"/>
     <use style="fill:#1f77b4;stroke:#1f77b4;" x="86.269205" xlink:href="#me09f4233f8" y="183.52745"/>
     <use style="fill:#1f77b4;stroke:#1f77b4;" x="89.024343" xlink:href="#me09f4233f8" y="102.828323"/>
     <use style="fill:#1f77b4;stroke:#1f77b4;" x="91.779482" xlink:href="#me09f4233f8" y="99.46557"/>
     <use style="fill:#1f77b4;stroke:#1f77b4;" x="94.534621" xlink:href="#me09f4233f8" y="179.197507"/>
     <use style="fill:#1f77b4;stroke:#1f77b4;" x="97.28976" xlink:href="#me09f4233f8" y="183.105446"/>
     <use style="fill:#1f77b4;stroke:#1f77b4;" x="100.044899" xlink:href="#me09f4233f8" y="182.962111"/>
     <use style="fill:#1f77b4;stroke:#1f77b4;" x="102.800037" xlink:href="#me09f4233f8" y="188.819582"/>
     <use style="fill:#1f77b4;stroke:#1f77b4;" x="105.555176" xlink:href="#me09f4233f8" y="183.07921"/>
     <use style="fill:#1f77b4;stroke:#1f77b4;" x="108.310315" xlink:href="#me09f4233f8" y="178.396237"/>
     <use style="fill:#1f77b4;stroke:#1f77b4;" x="111.065454" xlink:href="#me09f4233f8" y="179.488443"/>
     <use style="fill:#1f77b4;stroke:#1f77b4;" x="113.820593" xlink:href="#me09f4233f8" y="181.966832"/>
     <use style="fill:#1f77b4;stroke:#1f77b4;" x="116.575731" xlink:href="#me09f4233f8" y="176.964113"/>
     <use style="fill:#1f77b4;stroke:#1f77b4;" x="119.33087" xlink:href="#me09f4233f8" y="179.217635"/>
     <use style="fill:#1f77b4;stroke:#1f77b4;" x="122.086009" xlink:href="#me09f4233f8" y="180.397033"/>
     <use style="fill:#1f77b4;stroke:#1f77b4;" x="124.841148" xlink:href="#me09f4233f8" y="180.245475"/>
     <use style="fill:#1f77b4;stroke:#1f77b4;" x="127.596287" xlink:href="#me09f4233f8" y="183.90292"/>
     <use style="fill:#1f77b4;stroke:#1f77b4;" x="130.351425" xlink:href="#me09f4233f8" y="183.470301"/>
     <use style="fill:#1f77b4;stroke:#1f77b4;" x="133.106564" xlink:href="#me09f4233f8" y="180.139764"/>
     <use style="fill:#1f77b4;stroke:#1f77b4;" x="135.861703" xlink:href="#me09f4233f8" y="177.173093"/>
     <use style="fill:#1f77b4;stroke:#1f77b4;" x="138.616842" xlink:href="#me09f4233f8" y="177.897986"/>
     <use style="fill:#1f77b4;stroke:#1f77b4;" x="141.371981" xlink:href="#me09f4233f8" y="177.984661"/>
     <use style="fill:#1f77b4;stroke:#1f77b4;" x="144.12712" xlink:href="#me09f4233f8" y="187.151894"/>
     <use style="fill:#1f77b4;stroke:#1f77b4;" x="146.882258" xlink:href="#me09f4233f8" y="178.569294"/>
     <use style="fill:#1f77b4;stroke:#1f77b4;" x="149.637397" xlink:href="#me09f4233f8" y="179.666571"/>
     <use style="fill:#1f77b4;stroke:#1f77b4;" x="152.392536" xlink:href="#me09f4233f8" y="177.553811"/>
     <use style="fill:#1f77b4;stroke:#1f77b4;" x="155.147675" xlink:href="#me09f4233f8" y="180.620307"/>
     <use style="fill:#1f77b4;stroke:#1f77b4;" x="157.902814" xlink:href="#me09f4233f8" y="184.30434"/>
     <use style="fill:#1f77b4;stroke:#1f77b4;" x="160.657952" xlink:href="#me09f4233f8" y="180.647716"/>
     <use style="fill:#1f77b4;stroke:#1f77b4;" x="163.413091" xlink:href="#me09f4233f8" y="177.816411"/>
     <use style="fill:#1f77b4;stroke:#1f77b4;" x="166.16823" xlink:href="#me09f4233f8" y="176.446598"/>
     <use style="fill:#1f77b4;stroke:#1f77b4;" x="168.923369" xlink:href="#me09f4233f8" y="181.185486"/>
     <use style="fill:#1f77b4;stroke:#1f77b4;" x="171.678508" xlink:href="#me09f4233f8" y="183.559805"/>
     <use style="fill:#1f77b4;stroke:#1f77b4;" x="174.433646" xlink:href="#me09f4233f8" y="187.10053"/>
     <use style="fill:#1f77b4;stroke:#1f77b4;" x="177.188785" xlink:href="#me09f4233f8" y="179.848399"/>
     <use style="fill:#1f77b4;stroke:#1f77b4;" x="179.943924" xlink:href="#me09f4233f8" y="178.468423"/>
     <use style="fill:#1f77b4;stroke:#1f77b4;" x="182.699063" xlink:href="#me09f4233f8" y="180.225059"/>
     <use style="fill:#1f77b4;stroke:#1f77b4;" x="185.454202" xlink:href="#me09f4233f8" y="176.774629"/>
     <use style="fill:#1f77b4;stroke:#1f77b4;" x="188.20934" xlink:href="#me09f4233f8" y="185.635159"/>
     <use style="fill:#1f77b4;stroke:#1f77b4;" x="190.964479" xlink:href="#me09f4233f8" y="176.895166"/>
     <use style="fill:#1f77b4;stroke:#1f77b4;" x="193.719618" xlink:href="#me09f4233f8" y="173.377389"/>
     <use style="fill:#1f77b4;stroke:#1f77b4;" x="196.474757" xlink:href="#me09f4233f8" y="175.707383"/>
     <use style="fill:#1f77b4;stroke:#1f77b4;" x="199.229896" xlink:href="#me09f4233f8" y="185.764604"/>
     <use style="fill:#1f77b4;stroke:#1f77b4;" x="201.985034" xlink:href="#me09f4233f8" y="175.294473"/>
     <use style="fill:#1f77b4;stroke:#1f77b4;" x="204.740173" xlink:href="#me09f4233f8" y="180.34662"/>
     <use style="fill:#1f77b4;stroke:#1f77b4;" x="207.495312" xlink:href="#me09f4233f8" y="174.397541"/>
     <use style="fill:#1f77b4;stroke:#1f77b4;" x="210.250451" xlink:href="#me09f4233f8" y="171.477413"/>
     <use style="fill:#1f77b4;stroke:#1f77b4;" x="213.00559" xlink:href="#me09f4233f8" y="188.386002"/>
     <use style="fill:#1f77b4;stroke:#1f77b4;" x="215.760728" xlink:href="#me09f4233f8" y="166.784825"/>
     <use style="fill:#1f77b4;stroke:#1f77b4;" x="218.515867" xlink:href="#me09f4233f8" y="170.258868"/>
     <use style="fill:#1f77b4;stroke:#1f77b4;" x="221.271006" xlink:href="#me09f4233f8" y="173.349487"/>
     <use style="fill:#1f77b4;stroke:#1f77b4;" x="224.026145" xlink:href="#me09f4233f8" y="168.146934"/>
     <use style="fill:#1f77b4;stroke:#1f77b4;" x="226.781284" xlink:href="#me09f4233f8" y="173.381946"/>
     <use style="fill:#1f77b4;stroke:#1f77b4;" x="229.536422" xlink:href="#me09f4233f8" y="165.346126"/>
     <use style="fill:#1f77b4;stroke:#1f77b4;" x="232.291561" xlink:href="#me09f4233f8" y="162.21021"/>
     <use style="fill:#1f77b4;stroke:#1f77b4;" x="235.0467" xlink:href="#me09f4233f8" y="164.699533"/>
     <use style="fill:#1f77b4;stroke:#1f77b4;" x="237.801839" xlink:href="#me09f4233f8" y="171.914475"/>
     <use style="fill:#1f77b4;stroke:#1f77b4;" x="240.556978" xlink:href="#me09f4233f8" y="173.677373"/>
     <use style="fill:#1f77b4;stroke:#1f77b4;" x="243.312117" xlink:href="#me09f4233f8" y="168.337986"/>
     <use style="fill:#1f77b4;stroke:#1f77b4;" x="246.067255" xlink:href="#me09f4233f8" y="174.868055"/>
     <use style="fill:#1f77b4;stroke:#1f77b4;" x="248.822394" xlink:href="#me09f4233f8" y="167.578375"/>
     <use style="fill:#1f77b4;stroke:#1f77b4;" x="251.577533" xlink:href="#me09f4233f8" y="172.806723"/>
     <use style="fill:#1f77b4;stroke:#1f77b4;" x="254.332672" xlink:href="#me09f4233f8" y="167.800127"/>
     <use style="fill:#1f77b4;stroke:#1f77b4;" x="257.087811" xlink:href="#me09f4233f8" y="179.047575"/>
     <use style="fill:#1f77b4;stroke:#1f77b4;" x="259.842949" xlink:href="#me09f4233f8" y="171.969739"/>
     <use style="fill:#1f77b4;stroke:#1f77b4;" x="262.598088" xlink:href="#me09f4233f8" y="169.258075"/>
     <use style="fill:#1f77b4;stroke:#1f77b4;" x="265.353227" xlink:href="#me09f4233f8" y="167.449783"/>
     <use style="fill:#1f77b4;stroke:#1f77b4;" x="268.108366" xlink:href="#me09f4233f8" y="167.883634"/>
     <use style="fill:#1f77b4;stroke:#1f77b4;" x="270.863505" xlink:href="#me09f4233f8" y="181.781386"/>
     <use style="fill:#1f77b4;stroke:#1f77b4;" x="273.618643" xlink:href="#me09f4233f8" y="173.13347"/>
     <use style="fill:#1f77b4;stroke:#1f77b4;" x="276.373782" xlink:href="#me09f4233f8" y="174.95903"/>
     <use style="fill:#1f77b4;stroke:#1f77b4;" x="279.128921" xlink:href="#me09f4233f8" y="171.550855"/>
     <use style="fill:#1f77b4;stroke:#1f77b4;" x="281.88406" xlink:href="#me09f4233f8" y="168.097647"/>
     <use style="fill:#1f77b4;stroke:#1f77b4;" x="284.639199" xlink:href="#me09f4233f8" y="168.960599"/>
     <use style="fill:#1f77b4;stroke:#1f77b4;" x="287.394337" xlink:href="#me09f4233f8" y="177.119518"/>
     <use style="fill:#1f77b4;stroke:#1f77b4;" x="290.149476" xlink:href="#me09f4233f8" y="169.761542"/>
     <use style="fill:#1f77b4;stroke:#1f77b4;" x="292.904615" xlink:href="#me09f4233f8" y="182.38789"/>
     <use style="fill:#1f77b4;stroke:#1f77b4;" x="295.659754" xlink:href="#me09f4233f8" y="170.301176"/>
     <use style="fill:#1f77b4;stroke:#1f77b4;" x="298.414893" xlink:href="#me09f4233f8" y="167.222214"/>
     <use style="fill:#1f77b4;stroke:#1f77b4;" x="301.170031" xlink:href="#me09f4233f8" y="170.704776"/>
     <use style="fill:#1f77b4;stroke:#1f77b4;" x="303.92517" xlink:href="#me09f4233f8" y="176.268161"/>
     <use style="fill:#1f77b4;stroke:#1f77b4;" x="306.680309" xlink:href="#me09f4233f8" y="168.3135"/>
     <use style="fill:#1f77b4;stroke:#1f77b4;" x="309.435448" xlink:href="#me09f4233f8" y="192.153704"/>
     <use style="fill:#1f77b4;stroke:#1f77b4;" x="312.190587" xlink:href="#me09f4233f8" y="157.896047"/>
     <use style="fill:#1f77b4;stroke:#1f77b4;" x="314.945725" xlink:href="#me09f4233f8" y="177.902084"/>
     <use style="fill:#1f77b4;stroke:#1f77b4;" x="317.700864" xlink:href="#me09f4233f8" y="155.629958"/>
     <use style="fill:#1f77b4;stroke:#1f77b4;" x="320.456003" xlink:href="#me09f4233f8" y="151.426228"/>
     <use style="fill:#1f77b4;stroke:#1f77b4;" x="323.211142" xlink:href="#me09f4233f8" y="167.187024"/>
     <use style="fill:#1f77b4;stroke:#1f77b4;" x="325.966281" xlink:href="#me09f4233f8" y="152.242468"/>
     <use style="fill:#1f77b4;stroke:#1f77b4;" x="328.72142" xlink:href="#me09f4233f8" y="157.869181"/>
     <use style="fill:#1f77b4;stroke:#1f77b4;" x="331.476558" xlink:href="#me09f4233f8" y="152.113652"/>
     <use style="fill:#1f77b4;stroke:#1f77b4;" x="334.231697" xlink:href="#me09f4233f8" y="164.418498"/>
     <use style="fill:#1f77b4;stroke:#1f77b4;" x="336.986836" xlink:href="#me09f4233f8" y="157.76593"/>
     <use style="fill:#1f77b4;stroke:#1f77b4;" x="339.741975" xlink:href="#me09f4233f8" y="184.868429"/>
     <use style="fill:#1f77b4;stroke:#1f77b4;" x="342.497114" xlink:href="#me09f4233f8" y="179.528689"/>
     <use style="fill:#1f77b4;stroke:#1f77b4;" x="345.252252" xlink:href="#me09f4233f8" y="159.717108"/>
     <use style="fill:#1f77b4;stroke:#1f77b4;" x="348.007391" xlink:href="#me09f4233f8" y="148.144842"/>
     <use style="fill:#1f77b4;stroke:#1f77b4;" x="350.76253" xlink:href="#me09f4233f8" y="165.164529"/>
     <use style="fill:#1f77b4;stroke:#1f77b4;" x="353.517669" xlink:href="#me09f4233f8" y="163.74074"/>
     <use style="fill:#1f77b4;stroke:#1f77b4;" x="356.272808" xlink:href="#me09f4233f8" y="165.564107"/>
     <use style="fill:#1f77b4;stroke:#1f77b4;" x="359.027946" xlink:href="#me09f4233f8" y="134.844937"/>
     <use style="fill:#1f77b4;stroke:#1f77b4;" x="361.783085" xlink:href="#me09f4233f8" y="147.60889"/>
     <use style="fill:#1f77b4;stroke:#1f77b4;" x="364.538224" xlink:href="#me09f4233f8" y="148.873114"/>
     <use style="fill:#1f77b4;stroke:#1f77b4;" x="367.293363" xlink:href="#me09f4233f8" y="147.255398"/>
     <use style="fill:#1f77b4;stroke:#1f77b4;" x="370.048502" xlink:href="#me09f4233f8" y="126.132791"/>
     <use style="fill:#1f77b4;stroke:#1f77b4;" x="372.80364" xlink:href="#me09f4233f8" y="116.404512"/>
     <use style="fill:#1f77b4;stroke:#1f77b4;" x="375.558779" xlink:href="#me09f4233f8" y="168.684784"/>
    </g>
   </g>
   <g id="PathCollection_2">
    <defs>
     <path d="M 0 3 
C 0.795609 3 1.55874 2.683901 2.12132 2.12132 
C 2.683901 1.55874 3 0.795609 3 0 
C 3 -0.795609 2.683901 -1.55874 2.12132 -2.12132 
C 1.55874 -2.683901 0.795609 -3 0 -3 
C -0.795609 -3 -1.55874 -2.683901 -2.12132 -2.12132 
C -2.683901 -1.55874 -3 -0.795609 -3 0 
C -3 0.795609 -2.683901 1.55874 -2.12132 2.12132 
C -1.55874 2.683901 -0.795609 3 0 3 
z
" id="mbb4a9ba875" style="stroke:#ff7f0e;"/>
    </defs>
    <g clip-path="url(#p9d887fd732)">
     <use style="fill:#ff7f0e;stroke:#ff7f0e;" x="75.248649" xlink:href="#mbb4a9ba875" y="167.151722"/>
     <use style="fill:#ff7f0e;stroke:#ff7f0e;" x="78.003788" xlink:href="#mbb4a9ba875" y="167.348544"/>
     <use style="fill:#ff7f0e;stroke:#ff7f0e;" x="80.758927" xlink:href="#mbb4a9ba875" y="170.217539"/>
     <use style="fill:#ff7f0e;stroke:#ff7f0e;" x="83.514066" xlink:href="#mbb4a9ba875" y="163.366685"/>
     <use style="fill:#ff7f0e;stroke:#ff7f0e;" x="86.269205" xlink:href="#mbb4a9ba875" y="166.269307"/>
     <use style="fill:#ff7f0e;stroke:#ff7f0e;" x="89.024343" xlink:href="#mbb4a9ba875" y="170.928638"/>
     <use style="fill:#ff7f0e;stroke:#ff7f0e;" x="91.779482" xlink:href="#mbb4a9ba875" y="162.779625"/>
     <use style="fill:#ff7f0e;stroke:#ff7f0e;" x="94.534621" xlink:href="#mbb4a9ba875" y="168.096219"/>
     <use style="fill:#ff7f0e;stroke:#ff7f0e;" x="97.28976" xlink:href="#mbb4a9ba875" y="166.026998"/>
     <use style="fill:#ff7f0e;stroke:#ff7f0e;" x="100.044899" xlink:href="#mbb4a9ba875" y="168.114302"/>
     <use style="fill:#ff7f0e;stroke:#ff7f0e;" x="102.800037" xlink:href="#mbb4a9ba875" y="165.253995"/>
     <use style="fill:#ff7f0e;stroke:#ff7f0e;" x="105.555176" xlink:href="#mbb4a9ba875" y="172.664828"/>
     <use style="fill:#ff7f0e;stroke:#ff7f0e;" x="108.310315" xlink:href="#mbb4a9ba875" y="166.498599"/>
     <use style="fill:#ff7f0e;stroke:#ff7f0e;" x="111.065454" xlink:href="#mbb4a9ba875" y="163.266207"/>
     <use style="fill:#ff7f0e;stroke:#ff7f0e;" x="113.820593" xlink:href="#mbb4a9ba875" y="165.057923"/>
     <use style="fill:#ff7f0e;stroke:#ff7f0e;" x="116.575731" xlink:href="#mbb4a9ba875" y="167.548165"/>
     <use style="fill:#ff7f0e;stroke:#ff7f0e;" x="119.33087" xlink:href="#mbb4a9ba875" y="163.421027"/>
     <use style="fill:#ff7f0e;stroke:#ff7f0e;" x="122.086009" xlink:href="#mbb4a9ba875" y="165.709419"/>
     <use style="fill:#ff7f0e;stroke:#ff7f0e;" x="124.841148" xlink:href="#mbb4a9ba875" y="169.640553"/>
     <use style="fill:#ff7f0e;stroke:#ff7f0e;" x="127.596287" xlink:href="#mbb4a9ba875" y="168.844937"/>
     <use style="fill:#ff7f0e;stroke:#ff7f0e;" x="130.351425" xlink:href="#mbb4a9ba875" y="167.797189"/>
     <use style="fill:#ff7f0e;stroke:#ff7f0e;" x="133.106564" xlink:href="#mbb4a9ba875" y="171.322925"/>
     <use style="fill:#ff7f0e;stroke:#ff7f0e;" x="135.861703" xlink:href="#mbb4a9ba875" y="167.980567"/>
     <use style="fill:#ff7f0e;stroke:#ff7f0e;" x="138.616842" xlink:href="#mbb4a9ba875" y="165.260337"/>
     <use style="fill:#ff7f0e;stroke:#ff7f0e;" x="141.371981" xlink:href="#mbb4a9ba875" y="169.092655"/>
     <use style="fill:#ff7f0e;stroke:#ff7f0e;" x="144.12712" xlink:href="#mbb4a9ba875" y="173.050276"/>
     <use style="fill:#ff7f0e;stroke:#ff7f0e;" x="146.882258" xlink:href="#mbb4a9ba875" y="168.306015"/>
     <use style="fill:#ff7f0e;stroke:#ff7f0e;" x="149.637397" xlink:href="#mbb4a9ba875" y="168.834711"/>
     <use style="fill:#ff7f0e;stroke:#ff7f0e;" x="152.392536" xlink:href="#mbb4a9ba875" y="170.308005"/>
     <use style="fill:#ff7f0e;stroke:#ff7f0e;" x="155.147675" xlink:href="#mbb4a9ba875" y="182.032404"/>
     <use style="fill:#ff7f0e;stroke:#ff7f0e;" x="157.902814" xlink:href="#mbb4a9ba875" y="184.28913"/>
     <use style="fill:#ff7f0e;stroke:#ff7f0e;" x="160.657952" xlink:href="#mbb4a9ba875" y="168.132874"/>
     <use style="fill:#ff7f0e;stroke:#ff7f0e;" x="163.413091" xlink:href="#mbb4a9ba875" y="169.49241"/>
     <use style="fill:#ff7f0e;stroke:#ff7f0e;" x="166.16823" xlink:href="#mbb4a9ba875" y="166.864705"/>
     <use style="fill:#ff7f0e;stroke:#ff7f0e;" x="168.923369" xlink:href="#mbb4a9ba875" y="179.078447"/>
     <use style="fill:#ff7f0e;stroke:#ff7f0e;" x="171.678508" xlink:href="#mbb4a9ba875" y="168.651619"/>
     <use style="fill:#ff7f0e;stroke:#ff7f0e;" x="174.433646" xlink:href="#mbb4a9ba875" y="168.254429"/>
     <use style="fill:#ff7f0e;stroke:#ff7f0e;" x="177.188785" xlink:href="#mbb4a9ba875" y="166.595047"/>
     <use style="fill:#ff7f0e;stroke:#ff7f0e;" x="179.943924" xlink:href="#mbb4a9ba875" y="166.405832"/>
     <use style="fill:#ff7f0e;stroke:#ff7f0e;" x="182.699063" xlink:href="#mbb4a9ba875" y="169.186695"/>
     <use style="fill:#ff7f0e;stroke:#ff7f0e;" x="185.454202" xlink:href="#mbb4a9ba875" y="168.917138"/>
     <use style="fill:#ff7f0e;stroke:#ff7f0e;" x="188.20934" xlink:href="#mbb4a9ba875" y="168.655971"/>
     <use style="fill:#ff7f0e;stroke:#ff7f0e;" x="190.964479" xlink:href="#mbb4a9ba875" y="162.409327"/>
     <use style="fill:#ff7f0e;stroke:#ff7f0e;" x="193.719618" xlink:href="#mbb4a9ba875" y="161.012715"/>
     <use style="fill:#ff7f0e;stroke:#ff7f0e;" x="196.474757" xlink:href="#mbb4a9ba875" y="159.037259"/>
     <use style="fill:#ff7f0e;stroke:#ff7f0e;" x="199.229896" xlink:href="#mbb4a9ba875" y="159.064089"/>
     <use style="fill:#ff7f0e;stroke:#ff7f0e;" x="201.985034" xlink:href="#mbb4a9ba875" y="157.302875"/>
     <use style="fill:#ff7f0e;stroke:#ff7f0e;" x="204.740173" xlink:href="#mbb4a9ba875" y="156.851208"/>
     <use style="fill:#ff7f0e;stroke:#ff7f0e;" x="207.495312" xlink:href="#mbb4a9ba875" y="154.404681"/>
     <use style="fill:#ff7f0e;stroke:#ff7f0e;" x="210.250451" xlink:href="#mbb4a9ba875" y="153.776999"/>
     <use style="fill:#ff7f0e;stroke:#ff7f0e;" x="213.00559" xlink:href="#mbb4a9ba875" y="154.50718"/>
     <use style="fill:#ff7f0e;stroke:#ff7f0e;" x="215.760728" xlink:href="#mbb4a9ba875" y="151.930918"/>
     <use style="fill:#ff7f0e;stroke:#ff7f0e;" x="218.515867" xlink:href="#mbb4a9ba875" y="151.734847"/>
     <use style="fill:#ff7f0e;stroke:#ff7f0e;" x="221.271006" xlink:href="#mbb4a9ba875" y="151.955368"/>
     <use style="fill:#ff7f0e;stroke:#ff7f0e;" x="224.026145" xlink:href="#mbb4a9ba875" y="155.593078"/>
     <use style="fill:#ff7f0e;stroke:#ff7f0e;" x="226.781284" xlink:href="#mbb4a9ba875" y="149.212379"/>
     <use style="fill:#ff7f0e;stroke:#ff7f0e;" x="229.536422" xlink:href="#mbb4a9ba875" y="148.69825"/>
     <use style="fill:#ff7f0e;stroke:#ff7f0e;" x="232.291561" xlink:href="#mbb4a9ba875" y="148.078685"/>
     <use style="fill:#ff7f0e;stroke:#ff7f0e;" x="235.0467" xlink:href="#mbb4a9ba875" y="147.168314"/>
     <use style="fill:#ff7f0e;stroke:#ff7f0e;" x="237.801839" xlink:href="#mbb4a9ba875" y="148.762141"/>
     <use style="fill:#ff7f0e;stroke:#ff7f0e;" x="240.556978" xlink:href="#mbb4a9ba875" y="146.9354"/>
     <use style="fill:#ff7f0e;stroke:#ff7f0e;" x="243.312117" xlink:href="#mbb4a9ba875" y="150.614013"/>
     <use style="fill:#ff7f0e;stroke:#ff7f0e;" x="246.067255" xlink:href="#mbb4a9ba875" y="146.819615"/>
     <use style="fill:#ff7f0e;stroke:#ff7f0e;" x="248.822394" xlink:href="#mbb4a9ba875" y="147.07744"/>
     <use style="fill:#ff7f0e;stroke:#ff7f0e;" x="251.577533" xlink:href="#mbb4a9ba875" y="146.940622"/>
     <use style="fill:#ff7f0e;stroke:#ff7f0e;" x="254.332672" xlink:href="#mbb4a9ba875" y="149.390042"/>
     <use style="fill:#ff7f0e;stroke:#ff7f0e;" x="257.087811" xlink:href="#mbb4a9ba875" y="143.872932"/>
     <use style="fill:#ff7f0e;stroke:#ff7f0e;" x="259.842949" xlink:href="#mbb4a9ba875" y="148.643676"/>
     <use style="fill:#ff7f0e;stroke:#ff7f0e;" x="262.598088" xlink:href="#mbb4a9ba875" y="143.990288"/>
     <use style="fill:#ff7f0e;stroke:#ff7f0e;" x="265.353227" xlink:href="#mbb4a9ba875" y="144.869538"/>
     <use style="fill:#ff7f0e;stroke:#ff7f0e;" x="268.108366" xlink:href="#mbb4a9ba875" y="143.104977"/>
     <use style="fill:#ff7f0e;stroke:#ff7f0e;" x="270.863505" xlink:href="#mbb4a9ba875" y="148.940993"/>
     <use style="fill:#ff7f0e;stroke:#ff7f0e;" x="273.618643" xlink:href="#mbb4a9ba875" y="147.455123"/>
     <use style="fill:#ff7f0e;stroke:#ff7f0e;" x="276.373782" xlink:href="#mbb4a9ba875" y="143.378524"/>
     <use style="fill:#ff7f0e;stroke:#ff7f0e;" x="279.128921" xlink:href="#mbb4a9ba875" y="147.047218"/>
     <use style="fill:#ff7f0e;stroke:#ff7f0e;" x="281.88406" xlink:href="#mbb4a9ba875" y="148.090099"/>
     <use style="fill:#ff7f0e;stroke:#ff7f0e;" x="284.639199" xlink:href="#mbb4a9ba875" y="147.817044"/>
     <use style="fill:#ff7f0e;stroke:#ff7f0e;" x="287.394337" xlink:href="#mbb4a9ba875" y="150.622239"/>
     <use style="fill:#ff7f0e;stroke:#ff7f0e;" x="290.149476" xlink:href="#mbb4a9ba875" y="145.565083"/>
     <use style="fill:#ff7f0e;stroke:#ff7f0e;" x="292.904615" xlink:href="#mbb4a9ba875" y="146.369714"/>
     <use style="fill:#ff7f0e;stroke:#ff7f0e;" x="295.659754" xlink:href="#mbb4a9ba875" y="147.274368"/>
     <use style="fill:#ff7f0e;stroke:#ff7f0e;" x="298.414893" xlink:href="#mbb4a9ba875" y="151.977188"/>
     <use style="fill:#ff7f0e;stroke:#ff7f0e;" x="301.170031" xlink:href="#mbb4a9ba875" y="150.727825"/>
     <use style="fill:#ff7f0e;stroke:#ff7f0e;" x="303.92517" xlink:href="#mbb4a9ba875" y="151.90454"/>
     <use style="fill:#ff7f0e;stroke:#ff7f0e;" x="306.680309" xlink:href="#mbb4a9ba875" y="153.740578"/>
     <use style="fill:#ff7f0e;stroke:#ff7f0e;" x="309.435448" xlink:href="#mbb4a9ba875" y="151.973864"/>
     <use style="fill:#ff7f0e;stroke:#ff7f0e;" x="312.190587" xlink:href="#mbb4a9ba875" y="149.369041"/>
     <use style="fill:#ff7f0e;stroke:#ff7f0e;" x="314.945725" xlink:href="#mbb4a9ba875" y="148.305042"/>
     <use style="fill:#ff7f0e;stroke:#ff7f0e;" x="317.700864" xlink:href="#mbb4a9ba875" y="148.43846"/>
     <use style="fill:#ff7f0e;stroke:#ff7f0e;" x="320.456003" xlink:href="#mbb4a9ba875" y="157.945148"/>
     <use style="fill:#ff7f0e;stroke:#ff7f0e;" x="323.211142" xlink:href="#mbb4a9ba875" y="155.630419"/>
     <use style="fill:#ff7f0e;stroke:#ff7f0e;" x="325.966281" xlink:href="#mbb4a9ba875" y="143.584598"/>
     <use style="fill:#ff7f0e;stroke:#ff7f0e;" x="328.72142" xlink:href="#mbb4a9ba875" y="141.311739"/>
     <use style="fill:#ff7f0e;stroke:#ff7f0e;" x="331.476558" xlink:href="#mbb4a9ba875" y="141.386916"/>
     <use style="fill:#ff7f0e;stroke:#ff7f0e;" x="334.231697" xlink:href="#mbb4a9ba875" y="138.851202"/>
     <use style="fill:#ff7f0e;stroke:#ff7f0e;" x="336.986836" xlink:href="#mbb4a9ba875" y="142.418333"/>
     <use style="fill:#ff7f0e;stroke:#ff7f0e;" x="339.741975" xlink:href="#mbb4a9ba875" y="136.921557"/>
     <use style="fill:#ff7f0e;stroke:#ff7f0e;" x="342.497114" xlink:href="#mbb4a9ba875" y="131.707889"/>
     <use style="fill:#ff7f0e;stroke:#ff7f0e;" x="345.252252" xlink:href="#mbb4a9ba875" y="126.672916"/>
     <use style="fill:#ff7f0e;stroke:#ff7f0e;" x="348.007391" xlink:href="#mbb4a9ba875" y="116.178534"/>
     <use style="fill:#ff7f0e;stroke:#ff7f0e;" x="350.76253" xlink:href="#mbb4a9ba875" y="108.260566"/>
     <use style="fill:#ff7f0e;stroke:#ff7f0e;" x="353.517669" xlink:href="#mbb4a9ba875" y="116.876471"/>
     <use style="fill:#ff7f0e;stroke:#ff7f0e;" x="356.272808" xlink:href="#mbb4a9ba875" y="95.308262"/>
     <use style="fill:#ff7f0e;stroke:#ff7f0e;" x="359.027946" xlink:href="#mbb4a9ba875" y="100.630821"/>
     <use style="fill:#ff7f0e;stroke:#ff7f0e;" x="361.783085" xlink:href="#mbb4a9ba875" y="79.741349"/>
     <use style="fill:#ff7f0e;stroke:#ff7f0e;" x="364.538224" xlink:href="#mbb4a9ba875" y="79.136429"/>
     <use style="fill:#ff7f0e;stroke:#ff7f0e;" x="367.293363" xlink:href="#mbb4a9ba875" y="74.678586"/>
     <use style="fill:#ff7f0e;stroke:#ff7f0e;" x="370.048502" xlink:href="#mbb4a9ba875" y="62.178093"/>
     <use style="fill:#ff7f0e;stroke:#ff7f0e;" x="372.80364" xlink:href="#mbb4a9ba875" y="55.676747"/>
     <use style="fill:#ff7f0e;stroke:#ff7f0e;" x="375.558779" xlink:href="#mbb4a9ba875" y="39.542404"/>
    </g>
   </g>
   <g id="matplotlib.axis_1">
    <g id="xtick_1">
     <g id="line2d_1">
      <defs>
       <path d="M 0 0 
L 0 3.5 
" id="m68e7c3780e" style="stroke:#000000;stroke-width:0.8;"/>
      </defs>
      <g>
       <use style="stroke:#000000;stroke-width:0.8;" x="75.248649" xlink:href="#m68e7c3780e" y="305.28"/>
      </g>
     </g>
     <g id="text_1">
      <!-- 0 -->
      <defs>
       <path d="M 31.78125 66.40625 
Q 24.171875 66.40625 20.328125 58.90625 
Q 16.5 51.421875 16.5 36.375 
Q 16.5 21.390625 20.328125 13.890625 
Q 24.171875 6.390625 31.78125 6.390625 
Q 39.453125 6.390625 43.28125 13.890625 
Q 47.125 21.390625 47.125 36.375 
Q 47.125 51.421875 43.28125 58.90625 
Q 39.453125 66.40625 31.78125 66.40625 
z
M 31.78125 74.21875 
Q 44.046875 74.21875 50.515625 64.515625 
Q 56.984375 54.828125 56.984375 36.375 
Q 56.984375 17.96875 50.515625 8.265625 
Q 44.046875 -1.421875 31.78125 -1.421875 
Q 19.53125 -1.421875 13.0625 8.265625 
Q 6.59375 17.96875 6.59375 36.375 
Q 6.59375 54.828125 13.0625 64.515625 
Q 19.53125 74.21875 31.78125 74.21875 
z
" id="DejaVuSans-48"/>
      </defs>
      <g transform="translate(70.476774 323.677656)scale(0.15 -0.15)">
       <use xlink:href="#DejaVuSans-48"/>
      </g>
     </g>
    </g>
    <g id="xtick_2">
     <g id="line2d_2">
      <g>
       <use style="stroke:#000000;stroke-width:0.8;" x="159.641834" xlink:href="#m68e7c3780e" y="305.28"/>
      </g>
     </g>
     <g id="text_2">
      <!-- 2 -->
      <defs>
       <path d="M 19.1875 8.296875 
L 53.609375 8.296875 
L 53.609375 0 
L 7.328125 0 
L 7.328125 8.296875 
Q 12.9375 14.109375 22.625 23.890625 
Q 32.328125 33.6875 34.8125 36.53125 
Q 39.546875 41.84375 41.421875 45.53125 
Q 43.3125 49.21875 43.3125 52.78125 
Q 43.3125 58.59375 39.234375 62.25 
Q 35.15625 65.921875 28.609375 65.921875 
Q 23.96875 65.921875 18.8125 64.3125 
Q 13.671875 62.703125 7.8125 59.421875 
L 7.8125 69.390625 
Q 13.765625 71.78125 18.9375 73 
Q 24.125 74.21875 28.421875 74.21875 
Q 39.75 74.21875 46.484375 68.546875 
Q 53.21875 62.890625 53.21875 53.421875 
Q 53.21875 48.921875 51.53125 44.890625 
Q 49.859375 40.875 45.40625 35.40625 
Q 44.1875 33.984375 37.640625 27.21875 
Q 31.109375 20.453125 19.1875 8.296875 
z
" id="DejaVuSans-50"/>
      </defs>
      <g transform="translate(154.869959 323.677656)scale(0.15 -0.15)">
       <use xlink:href="#DejaVuSans-50"/>
      </g>
     </g>
    </g>
    <g id="xtick_3">
     <g id="line2d_3">
      <g>
       <use style="stroke:#000000;stroke-width:0.8;" x="244.035018" xlink:href="#m68e7c3780e" y="305.28"/>
      </g>
     </g>
     <g id="text_3">
      <!-- 4 -->
      <defs>
       <path d="M 37.796875 64.3125 
L 12.890625 25.390625 
L 37.796875 25.390625 
z
M 35.203125 72.90625 
L 47.609375 72.90625 
L 47.609375 25.390625 
L 58.015625 25.390625 
L 58.015625 17.1875 
L 47.609375 17.1875 
L 47.609375 0 
L 37.796875 0 
L 37.796875 17.1875 
L 4.890625 17.1875 
L 4.890625 26.703125 
z
" id="DejaVuSans-52"/>
      </defs>
      <g transform="translate(239.263143 323.677656)scale(0.15 -0.15)">
       <use xlink:href="#DejaVuSans-52"/>
      </g>
     </g>
    </g>
    <g id="xtick_4">
     <g id="line2d_4">
      <g>
       <use style="stroke:#000000;stroke-width:0.8;" x="328.428202" xlink:href="#m68e7c3780e" y="305.28"/>
      </g>
     </g>
     <g id="text_4">
      <!-- 6 -->
      <defs>
       <path d="M 33.015625 40.375 
Q 26.375 40.375 22.484375 35.828125 
Q 18.609375 31.296875 18.609375 23.390625 
Q 18.609375 15.53125 22.484375 10.953125 
Q 26.375 6.390625 33.015625 6.390625 
Q 39.65625 6.390625 43.53125 10.953125 
Q 47.40625 15.53125 47.40625 23.390625 
Q 47.40625 31.296875 43.53125 35.828125 
Q 39.65625 40.375 33.015625 40.375 
z
M 52.59375 71.296875 
L 52.59375 62.3125 
Q 48.875 64.0625 45.09375 64.984375 
Q 41.3125 65.921875 37.59375 65.921875 
Q 27.828125 65.921875 22.671875 59.328125 
Q 17.53125 52.734375 16.796875 39.40625 
Q 19.671875 43.65625 24.015625 45.921875 
Q 28.375 48.1875 33.59375 48.1875 
Q 44.578125 48.1875 50.953125 41.515625 
Q 57.328125 34.859375 57.328125 23.390625 
Q 57.328125 12.15625 50.6875 5.359375 
Q 44.046875 -1.421875 33.015625 -1.421875 
Q 20.359375 -1.421875 13.671875 8.265625 
Q 6.984375 17.96875 6.984375 36.375 
Q 6.984375 53.65625 15.1875 63.9375 
Q 23.390625 74.21875 37.203125 74.21875 
Q 40.921875 74.21875 44.703125 73.484375 
Q 48.484375 72.75 52.59375 71.296875 
z
" id="DejaVuSans-54"/>
      </defs>
      <g transform="translate(323.656327 323.677656)scale(0.15 -0.15)">
       <use xlink:href="#DejaVuSans-54"/>
      </g>
     </g>
    </g>
    <g id="text_5">
     <!-- time [s] -->
     <defs>
      <path d="M 18.3125 70.21875 
L 18.3125 54.6875 
L 36.8125 54.6875 
L 36.8125 47.703125 
L 18.3125 47.703125 
L 18.3125 18.015625 
Q 18.3125 11.328125 20.140625 9.421875 
Q 21.96875 7.515625 27.59375 7.515625 
L 36.8125 7.515625 
L 36.8125 0 
L 27.59375 0 
Q 17.1875 0 13.234375 3.875 
Q 9.28125 7.765625 9.28125 18.015625 
L 9.28125 47.703125 
L 2.6875 47.703125 
L 2.6875 54.6875 
L 9.28125 54.6875 
L 9.28125 70.21875 
z
" id="DejaVuSans-116"/>
      <path d="M 9.421875 54.6875 
L 18.40625 54.6875 
L 18.40625 0 
L 9.421875 0 
z
M 9.421875 75.984375 
L 18.40625 75.984375 
L 18.40625 64.59375 
L 9.421875 64.59375 
z
" id="DejaVuSans-105"/>
      <path d="M 52 44.1875 
Q 55.375 50.25 60.0625 53.125 
Q 64.75 56 71.09375 56 
Q 79.640625 56 84.28125 50.015625 
Q 88.921875 44.046875 88.921875 33.015625 
L 88.921875 0 
L 79.890625 0 
L 79.890625 32.71875 
Q 79.890625 40.578125 77.09375 44.375 
Q 74.3125 48.1875 68.609375 48.1875 
Q 61.625 48.1875 57.5625 43.546875 
Q 53.515625 38.921875 53.515625 30.90625 
L 53.515625 0 
L 44.484375 0 
L 44.484375 32.71875 
Q 44.484375 40.625 41.703125 44.40625 
Q 38.921875 48.1875 33.109375 48.1875 
Q 26.21875 48.1875 22.15625 43.53125 
Q 18.109375 38.875 18.109375 30.90625 
L 18.109375 0 
L 9.078125 0 
L 9.078125 54.6875 
L 18.109375 54.6875 
L 18.109375 46.1875 
Q 21.1875 51.21875 25.484375 53.609375 
Q 29.78125 56 35.6875 56 
Q 41.65625 56 45.828125 52.96875 
Q 50 49.953125 52 44.1875 
z
" id="DejaVuSans-109"/>
      <path d="M 56.203125 29.59375 
L 56.203125 25.203125 
L 14.890625 25.203125 
Q 15.484375 15.921875 20.484375 11.0625 
Q 25.484375 6.203125 34.421875 6.203125 
Q 39.59375 6.203125 44.453125 7.46875 
Q 49.3125 8.734375 54.109375 11.28125 
L 54.109375 2.78125 
Q 49.265625 0.734375 44.1875 -0.34375 
Q 39.109375 -1.421875 33.890625 -1.421875 
Q 20.796875 -1.421875 13.15625 6.1875 
Q 5.515625 13.8125 5.515625 26.8125 
Q 5.515625 40.234375 12.765625 48.109375 
Q 20.015625 56 32.328125 56 
Q 43.359375 56 49.78125 48.890625 
Q 56.203125 41.796875 56.203125 29.59375 
z
M 47.21875 32.234375 
Q 47.125 39.59375 43.09375 43.984375 
Q 39.0625 48.390625 32.421875 48.390625 
Q 24.90625 48.390625 20.390625 44.140625 
Q 15.875 39.890625 15.1875 32.171875 
z
" id="DejaVuSans-101"/>
      <path id="DejaVuSans-32"/>
      <path d="M 8.59375 75.984375 
L 29.296875 75.984375 
L 29.296875 69 
L 17.578125 69 
L 17.578125 -6.203125 
L 29.296875 -6.203125 
L 29.296875 -13.1875 
L 8.59375 -13.1875 
z
" id="DejaVuSans-91"/>
      <path d="M 44.28125 53.078125 
L 44.28125 44.578125 
Q 40.484375 46.53125 36.375 47.5 
Q 32.28125 48.484375 27.875 48.484375 
Q 21.1875 48.484375 17.84375 46.4375 
Q 14.5 44.390625 14.5 40.28125 
Q 14.5 37.15625 16.890625 35.375 
Q 19.28125 33.59375 26.515625 31.984375 
L 29.59375 31.296875 
Q 39.15625 29.25 43.1875 25.515625 
Q 47.21875 21.78125 47.21875 15.09375 
Q 47.21875 7.46875 41.1875 3.015625 
Q 35.15625 -1.421875 24.609375 -1.421875 
Q 20.21875 -1.421875 15.453125 -0.5625 
Q 10.6875 0.296875 5.421875 2 
L 5.421875 11.28125 
Q 10.40625 8.6875 15.234375 7.390625 
Q 20.0625 6.109375 24.8125 6.109375 
Q 31.15625 6.109375 34.5625 8.28125 
Q 37.984375 10.453125 37.984375 14.40625 
Q 37.984375 18.0625 35.515625 20.015625 
Q 33.0625 21.96875 24.703125 23.78125 
L 21.578125 24.515625 
Q 13.234375 26.265625 9.515625 29.90625 
Q 5.8125 33.546875 5.8125 39.890625 
Q 5.8125 47.609375 11.28125 51.796875 
Q 16.75 56 26.8125 56 
Q 31.78125 56 36.171875 55.265625 
Q 40.578125 54.546875 44.28125 53.078125 
z
" id="DejaVuSans-115"/>
      <path d="M 30.421875 75.984375 
L 30.421875 -13.1875 
L 9.71875 -13.1875 
L 9.71875 -6.203125 
L 21.390625 -6.203125 
L 21.390625 69 
L 9.71875 69 
L 9.71875 75.984375 
z
" id="DejaVuSans-93"/>
     </defs>
     <g transform="translate(196.316605 342.194844)scale(0.15 -0.15)">
      <use xlink:href="#DejaVuSans-116"/>
      <use x="39.208984" xlink:href="#DejaVuSans-105"/>
      <use x="66.992188" xlink:href="#DejaVuSans-109"/>
      <use x="164.404297" xlink:href="#DejaVuSans-101"/>
      <use x="225.927734" xlink:href="#DejaVuSans-32"/>
      <use x="257.714844" xlink:href="#DejaVuSans-91"/>
      <use x="296.728516" xlink:href="#DejaVuSans-115"/>
      <use x="348.828125" xlink:href="#DejaVuSans-93"/>
     </g>
    </g>
   </g>
   <g id="matplotlib.axis_2">
    <g id="ytick_1">
     <g id="line2d_5">
      <defs>
       <path d="M 0 0 
L -3.5 0 
" id="md7ddada776" style="stroke:#000000;stroke-width:0.8;"/>
      </defs>
      <g>
       <use style="stroke:#000000;stroke-width:0.8;" x="60.233143" xlink:href="#md7ddada776" y="299.203062"/>
      </g>
     </g>
     <g id="text_6">
      <!-- −40 -->
      <defs>
       <path d="M 10.59375 35.5 
L 73.1875 35.5 
L 73.1875 27.203125 
L 10.59375 27.203125 
z
" id="DejaVuSans-8722"/>
      </defs>
      <g transform="translate(21.576112 304.90189)scale(0.15 -0.15)">
       <use xlink:href="#DejaVuSans-8722"/>
       <use x="83.789062" xlink:href="#DejaVuSans-52"/>
       <use x="147.412109" xlink:href="#DejaVuSans-48"/>
      </g>
     </g>
    </g>
    <g id="ytick_2">
     <g id="line2d_6">
      <g>
       <use style="stroke:#000000;stroke-width:0.8;" x="60.233143" xlink:href="#md7ddada776" y="265.442297"/>
      </g>
     </g>
     <g id="text_7">
      <!-- −30 -->
      <defs>
       <path d="M 40.578125 39.3125 
Q 47.65625 37.796875 51.625 33 
Q 55.609375 28.21875 55.609375 21.1875 
Q 55.609375 10.40625 48.1875 4.484375 
Q 40.765625 -1.421875 27.09375 -1.421875 
Q 22.515625 -1.421875 17.65625 -0.515625 
Q 12.796875 0.390625 7.625 2.203125 
L 7.625 11.71875 
Q 11.71875 9.328125 16.59375 8.109375 
Q 21.484375 6.890625 26.8125 6.890625 
Q 36.078125 6.890625 40.9375 10.546875 
Q 45.796875 14.203125 45.796875 21.1875 
Q 45.796875 27.640625 41.28125 31.265625 
Q 36.765625 34.90625 28.71875 34.90625 
L 20.21875 34.90625 
L 20.21875 43.015625 
L 29.109375 43.015625 
Q 36.375 43.015625 40.234375 45.921875 
Q 44.09375 48.828125 44.09375 54.296875 
Q 44.09375 59.90625 40.109375 62.90625 
Q 36.140625 65.921875 28.71875 65.921875 
Q 24.65625 65.921875 20.015625 65.03125 
Q 15.375 64.15625 9.8125 62.3125 
L 9.8125 71.09375 
Q 15.4375 72.65625 20.34375 73.4375 
Q 25.25 74.21875 29.59375 74.21875 
Q 40.828125 74.21875 47.359375 69.109375 
Q 53.90625 64.015625 53.90625 55.328125 
Q 53.90625 49.265625 50.4375 45.09375 
Q 46.96875 40.921875 40.578125 39.3125 
z
" id="DejaVuSans-51"/>
      </defs>
      <g transform="translate(21.576112 271.141125)scale(0.15 -0.15)">
       <use xlink:href="#DejaVuSans-8722"/>
       <use x="83.789062" xlink:href="#DejaVuSans-51"/>
       <use x="147.412109" xlink:href="#DejaVuSans-48"/>
      </g>
     </g>
    </g>
    <g id="ytick_3">
     <g id="line2d_7">
      <g>
       <use style="stroke:#000000;stroke-width:0.8;" x="60.233143" xlink:href="#md7ddada776" y="231.681531"/>
      </g>
     </g>
     <g id="text_8">
      <!-- −20 -->
      <g transform="translate(21.576112 237.380359)scale(0.15 -0.15)">
       <use xlink:href="#DejaVuSans-8722"/>
       <use x="83.789062" xlink:href="#DejaVuSans-50"/>
       <use x="147.412109" xlink:href="#DejaVuSans-48"/>
      </g>
     </g>
    </g>
    <g id="ytick_4">
     <g id="line2d_8">
      <g>
       <use style="stroke:#000000;stroke-width:0.8;" x="60.233143" xlink:href="#md7ddada776" y="197.920766"/>
      </g>
     </g>
     <g id="text_9">
      <!-- −10 -->
      <defs>
       <path d="M 12.40625 8.296875 
L 28.515625 8.296875 
L 28.515625 63.921875 
L 10.984375 60.40625 
L 10.984375 69.390625 
L 28.421875 72.90625 
L 38.28125 72.90625 
L 38.28125 8.296875 
L 54.390625 8.296875 
L 54.390625 0 
L 12.40625 0 
z
" id="DejaVuSans-49"/>
      </defs>
      <g transform="translate(21.576112 203.619594)scale(0.15 -0.15)">
       <use xlink:href="#DejaVuSans-8722"/>
       <use x="83.789062" xlink:href="#DejaVuSans-49"/>
       <use x="147.412109" xlink:href="#DejaVuSans-48"/>
      </g>
     </g>
    </g>
    <g id="ytick_5">
     <g id="line2d_9">
      <g>
       <use style="stroke:#000000;stroke-width:0.8;" x="60.233143" xlink:href="#md7ddada776" y="164.16"/>
      </g>
     </g>
     <g id="text_10">
      <!-- 0 -->
      <g transform="translate(43.689393 169.858828)scale(0.15 -0.15)">
       <use xlink:href="#DejaVuSans-48"/>
      </g>
     </g>
    </g>
    <g id="ytick_6">
     <g id="line2d_10">
      <g>
       <use style="stroke:#000000;stroke-width:0.8;" x="60.233143" xlink:href="#md7ddada776" y="130.399234"/>
      </g>
     </g>
     <g id="text_11">
      <!-- 10 -->
      <g transform="translate(34.145643 136.098063)scale(0.15 -0.15)">
       <use xlink:href="#DejaVuSans-49"/>
       <use x="63.623047" xlink:href="#DejaVuSans-48"/>
      </g>
     </g>
    </g>
    <g id="ytick_7">
     <g id="line2d_11">
      <g>
       <use style="stroke:#000000;stroke-width:0.8;" x="60.233143" xlink:href="#md7ddada776" y="96.638469"/>
      </g>
     </g>
     <g id="text_12">
      <!-- 20 -->
      <g transform="translate(34.145643 102.337297)scale(0.15 -0.15)">
       <use xlink:href="#DejaVuSans-50"/>
       <use x="63.623047" xlink:href="#DejaVuSans-48"/>
      </g>
     </g>
    </g>
    <g id="ytick_8">
     <g id="line2d_12">
      <g>
       <use style="stroke:#000000;stroke-width:0.8;" x="60.233143" xlink:href="#md7ddada776" y="62.877703"/>
      </g>
     </g>
     <g id="text_13">
      <!-- 30 -->
      <g transform="translate(34.145643 68.576531)scale(0.15 -0.15)">
       <use xlink:href="#DejaVuSans-51"/>
       <use x="63.623047" xlink:href="#DejaVuSans-48"/>
      </g>
     </g>
    </g>
    <g id="ytick_9">
     <g id="line2d_13">
      <g>
       <use style="stroke:#000000;stroke-width:0.8;" x="60.233143" xlink:href="#md7ddada776" y="29.116938"/>
      </g>
     </g>
     <g id="text_14">
      <!-- 40 -->
      <g transform="translate(34.145643 34.815766)scale(0.15 -0.15)">
       <use xlink:href="#DejaVuSans-52"/>
       <use x="63.623047" xlink:href="#DejaVuSans-48"/>
      </g>
     </g>
    </g>
    <g id="text_15">
     <!-- angle [deg] -->
     <defs>
      <path d="M 34.28125 27.484375 
Q 23.390625 27.484375 19.1875 25 
Q 14.984375 22.515625 14.984375 16.5 
Q 14.984375 11.71875 18.140625 8.90625 
Q 21.296875 6.109375 26.703125 6.109375 
Q 34.1875 6.109375 38.703125 11.40625 
Q 43.21875 16.703125 43.21875 25.484375 
L 43.21875 27.484375 
z
M 52.203125 31.203125 
L 52.203125 0 
L 43.21875 0 
L 43.21875 8.296875 
Q 40.140625 3.328125 35.546875 0.953125 
Q 30.953125 -1.421875 24.3125 -1.421875 
Q 15.921875 -1.421875 10.953125 3.296875 
Q 6 8.015625 6 15.921875 
Q 6 25.140625 12.171875 29.828125 
Q 18.359375 34.515625 30.609375 34.515625 
L 43.21875 34.515625 
L 43.21875 35.40625 
Q 43.21875 41.609375 39.140625 45 
Q 35.0625 48.390625 27.6875 48.390625 
Q 23 48.390625 18.546875 47.265625 
Q 14.109375 46.140625 10.015625 43.890625 
L 10.015625 52.203125 
Q 14.9375 54.109375 19.578125 55.046875 
Q 24.21875 56 28.609375 56 
Q 40.484375 56 46.34375 49.84375 
Q 52.203125 43.703125 52.203125 31.203125 
z
" id="DejaVuSans-97"/>
      <path d="M 54.890625 33.015625 
L 54.890625 0 
L 45.90625 0 
L 45.90625 32.71875 
Q 45.90625 40.484375 42.875 44.328125 
Q 39.84375 48.1875 33.796875 48.1875 
Q 26.515625 48.1875 22.3125 43.546875 
Q 18.109375 38.921875 18.109375 30.90625 
L 18.109375 0 
L 9.078125 0 
L 9.078125 54.6875 
L 18.109375 54.6875 
L 18.109375 46.1875 
Q 21.34375 51.125 25.703125 53.5625 
Q 30.078125 56 35.796875 56 
Q 45.21875 56 50.046875 50.171875 
Q 54.890625 44.34375 54.890625 33.015625 
z
" id="DejaVuSans-110"/>
      <path d="M 45.40625 27.984375 
Q 45.40625 37.75 41.375 43.109375 
Q 37.359375 48.484375 30.078125 48.484375 
Q 22.859375 48.484375 18.828125 43.109375 
Q 14.796875 37.75 14.796875 27.984375 
Q 14.796875 18.265625 18.828125 12.890625 
Q 22.859375 7.515625 30.078125 7.515625 
Q 37.359375 7.515625 41.375 12.890625 
Q 45.40625 18.265625 45.40625 27.984375 
z
M 54.390625 6.78125 
Q 54.390625 -7.171875 48.1875 -13.984375 
Q 42 -20.796875 29.203125 -20.796875 
Q 24.46875 -20.796875 20.265625 -20.09375 
Q 16.0625 -19.390625 12.109375 -17.921875 
L 12.109375 -9.1875 
Q 16.0625 -11.328125 19.921875 -12.34375 
Q 23.78125 -13.375 27.78125 -13.375 
Q 36.625 -13.375 41.015625 -8.765625 
Q 45.40625 -4.15625 45.40625 5.171875 
L 45.40625 9.625 
Q 42.625 4.78125 38.28125 2.390625 
Q 33.9375 0 27.875 0 
Q 17.828125 0 11.671875 7.65625 
Q 5.515625 15.328125 5.515625 27.984375 
Q 5.515625 40.671875 11.671875 48.328125 
Q 17.828125 56 27.875 56 
Q 33.9375 56 38.28125 53.609375 
Q 42.625 51.21875 45.40625 46.390625 
L 45.40625 54.6875 
L 54.390625 54.6875 
z
" id="DejaVuSans-103"/>
      <path d="M 9.421875 75.984375 
L 18.40625 75.984375 
L 18.40625 0 
L 9.421875 0 
z
" id="DejaVuSans-108"/>
      <path d="M 45.40625 46.390625 
L 45.40625 75.984375 
L 54.390625 75.984375 
L 54.390625 0 
L 45.40625 0 
L 45.40625 8.203125 
Q 42.578125 3.328125 38.25 0.953125 
Q 33.9375 -1.421875 27.875 -1.421875 
Q 17.96875 -1.421875 11.734375 6.484375 
Q 5.515625 14.40625 5.515625 27.296875 
Q 5.515625 40.1875 11.734375 48.09375 
Q 17.96875 56 27.875 56 
Q 33.9375 56 38.25 53.625 
Q 42.578125 51.265625 45.40625 46.390625 
z
M 14.796875 27.296875 
Q 14.796875 17.390625 18.875 11.75 
Q 22.953125 6.109375 30.078125 6.109375 
Q 37.203125 6.109375 41.296875 11.75 
Q 45.40625 17.390625 45.40625 27.296875 
Q 45.40625 37.203125 41.296875 42.84375 
Q 37.203125 48.484375 30.078125 48.484375 
Q 22.953125 48.484375 18.875 42.84375 
Q 14.796875 37.203125 14.796875 27.296875 
z
" id="DejaVuSans-100"/>
     </defs>
     <g transform="translate(14.45658 207.342422)rotate(-90)scale(0.15 -0.15)">
      <use xlink:href="#DejaVuSans-97"/>
      <use x="61.279297" xlink:href="#DejaVuSans-110"/>
      <use x="124.658203" xlink:href="#DejaVuSans-103"/>
      <use x="188.134766" xlink:href="#DejaVuSans-108"/>
      <use x="215.917969" xlink:href="#DejaVuSans-101"/>
      <use x="277.441406" xlink:href="#DejaVuSans-32"/>
      <use x="309.228516" xlink:href="#DejaVuSans-91"/>
      <use x="348.242188" xlink:href="#DejaVuSans-100"/>
      <use x="411.71875" xlink:href="#DejaVuSans-101"/>
      <use x="473.242188" xlink:href="#DejaVuSans-103"/>
      <use x="536.71875" xlink:href="#DejaVuSans-93"/>
     </g>
    </g>
   </g>
   <g id="line2d_14">
    <path clip-path="url(#p9d887fd732)" d="M 60.233143 35.869091 
L 396.28 35.869091 
" style="fill:none;stroke:#000000;stroke-linecap:square;stroke-width:1.5;"/>
   </g>
   <g id="line2d_15">
    <path clip-path="url(#p9d887fd732)" d="M 60.233143 292.450909 
L 396.28 292.450909 
" style="fill:none;stroke:#000000;stroke-linecap:square;stroke-width:1.5;"/>
   </g>
   <g id="patch_3">
    <path d="M 60.233143 305.28 
L 60.233143 23.04 
" style="fill:none;stroke:#000000;stroke-linecap:square;stroke-linejoin:miter;stroke-width:0.8;"/>
   </g>
   <g id="patch_4">
    <path d="M 390.574286 305.28 
L 390.574286 23.04 
" style="fill:none;stroke:#000000;stroke-linecap:square;stroke-linejoin:miter;stroke-width:0.8;"/>
   </g>
   <g id="patch_5">
    <path d="M 60.233143 305.28 
L 390.574286 305.28 
" style="fill:none;stroke:#000000;stroke-linecap:square;stroke-linejoin:miter;stroke-width:0.8;"/>
   </g>
   <g id="patch_6">
    <path d="M 60.233143 23.04 
L 390.574286 23.04 
" style="fill:none;stroke:#000000;stroke-linecap:square;stroke-linejoin:miter;stroke-width:0.8;"/>
   </g>
   <g id="text_16">
    <!-- Bag 41 -->
    <defs>
     <path d="M 19.671875 34.8125 
L 19.671875 8.109375 
L 35.5 8.109375 
Q 43.453125 8.109375 47.28125 11.40625 
Q 51.125 14.703125 51.125 21.484375 
Q 51.125 28.328125 47.28125 31.5625 
Q 43.453125 34.8125 35.5 34.8125 
z
M 19.671875 64.796875 
L 19.671875 42.828125 
L 34.28125 42.828125 
Q 41.5 42.828125 45.03125 45.53125 
Q 48.578125 48.25 48.578125 53.8125 
Q 48.578125 59.328125 45.03125 62.0625 
Q 41.5 64.796875 34.28125 64.796875 
z
M 9.8125 72.90625 
L 35.015625 72.90625 
Q 46.296875 72.90625 52.390625 68.21875 
Q 58.5 63.53125 58.5 54.890625 
Q 58.5 48.1875 55.375 44.234375 
Q 52.25 40.28125 46.1875 39.3125 
Q 53.46875 37.75 57.5 32.78125 
Q 61.53125 27.828125 61.53125 20.40625 
Q 61.53125 10.640625 54.890625 5.3125 
Q 48.25 0 35.984375 0 
L 9.8125 0 
z
" id="DejaVuSans-66"/>
    </defs>
    <g transform="translate(193.687152 17.04)scale(0.18 -0.18)">
     <use xlink:href="#DejaVuSans-66"/>
     <use x="68.603516" xlink:href="#DejaVuSans-97"/>
     <use x="129.882812" xlink:href="#DejaVuSans-103"/>
     <use x="193.359375" xlink:href="#DejaVuSans-32"/>
     <use x="225.146484" xlink:href="#DejaVuSans-52"/>
     <use x="288.769531" xlink:href="#DejaVuSans-49"/>
    </g>
   </g>
   <g id="legend_1">
    <g id="patch_7">
     <path d="M 70.733143 79.074375 
L 188.283924 79.074375 
Q 191.283924 79.074375 191.283924 76.074375 
L 191.283924 33.54 
Q 191.283924 30.54 188.283924 30.54 
L 70.733143 30.54 
Q 67.733143 30.54 67.733143 33.54 
L 67.733143 76.074375 
Q 67.733143 79.074375 70.733143 79.074375 
z
" style="fill:#ffffff;opacity:0.8;stroke:#cccccc;stroke-linejoin:miter;"/>
    </g>
    <g id="PathCollection_3">
     <g>
      <use style="fill:#1f77b4;stroke:#1f77b4;" x="88.733143" xlink:href="#me09f4233f8" y="44.000156"/>
     </g>
    </g>
    <g id="text_17">
     <!-- Radar -->
     <defs>
      <path d="M 44.390625 34.1875 
Q 47.5625 33.109375 50.5625 29.59375 
Q 53.5625 26.078125 56.59375 19.921875 
L 66.609375 0 
L 56 0 
L 46.6875 18.703125 
Q 43.0625 26.03125 39.671875 28.421875 
Q 36.28125 30.8125 30.421875 30.8125 
L 19.671875 30.8125 
L 19.671875 0 
L 9.8125 0 
L 9.8125 72.90625 
L 32.078125 72.90625 
Q 44.578125 72.90625 50.734375 67.671875 
Q 56.890625 62.453125 56.890625 51.90625 
Q 56.890625 45.015625 53.6875 40.46875 
Q 50.484375 35.9375 44.390625 34.1875 
z
M 19.671875 64.796875 
L 19.671875 38.921875 
L 32.078125 38.921875 
Q 39.203125 38.921875 42.84375 42.21875 
Q 46.484375 45.515625 46.484375 51.90625 
Q 46.484375 58.296875 42.84375 61.546875 
Q 39.203125 64.796875 32.078125 64.796875 
z
" id="DejaVuSans-82"/>
      <path d="M 41.109375 46.296875 
Q 39.59375 47.171875 37.8125 47.578125 
Q 36.03125 48 33.890625 48 
Q 26.265625 48 22.1875 43.046875 
Q 18.109375 38.09375 18.109375 28.8125 
L 18.109375 0 
L 9.078125 0 
L 9.078125 54.6875 
L 18.109375 54.6875 
L 18.109375 46.1875 
Q 20.953125 51.171875 25.484375 53.578125 
Q 30.03125 56 36.53125 56 
Q 37.453125 56 38.578125 55.875 
Q 39.703125 55.765625 41.0625 55.515625 
z
" id="DejaVuSans-114"/>
     </defs>
     <g transform="translate(115.733143 47.937656)scale(0.15 -0.15)">
      <use xlink:href="#DejaVuSans-82"/>
      <use x="67.232422" xlink:href="#DejaVuSans-97"/>
      <use x="128.511719" xlink:href="#DejaVuSans-100"/>
      <use x="191.988281" xlink:href="#DejaVuSans-97"/>
      <use x="253.267578" xlink:href="#DejaVuSans-114"/>
     </g>
    </g>
    <g id="PathCollection_4">
     <g>
      <use style="fill:#ff7f0e;stroke:#ff7f0e;" x="88.733143" xlink:href="#mbb4a9ba875" y="66.017344"/>
     </g>
    </g>
    <g id="text_18">
     <!-- Optitrack -->
     <defs>
      <path d="M 39.40625 66.21875 
Q 28.65625 66.21875 22.328125 58.203125 
Q 16.015625 50.203125 16.015625 36.375 
Q 16.015625 22.609375 22.328125 14.59375 
Q 28.65625 6.59375 39.40625 6.59375 
Q 50.140625 6.59375 56.421875 14.59375 
Q 62.703125 22.609375 62.703125 36.375 
Q 62.703125 50.203125 56.421875 58.203125 
Q 50.140625 66.21875 39.40625 66.21875 
z
M 39.40625 74.21875 
Q 54.734375 74.21875 63.90625 63.9375 
Q 73.09375 53.65625 73.09375 36.375 
Q 73.09375 19.140625 63.90625 8.859375 
Q 54.734375 -1.421875 39.40625 -1.421875 
Q 24.03125 -1.421875 14.8125 8.828125 
Q 5.609375 19.09375 5.609375 36.375 
Q 5.609375 53.65625 14.8125 63.9375 
Q 24.03125 74.21875 39.40625 74.21875 
z
" id="DejaVuSans-79"/>
      <path d="M 18.109375 8.203125 
L 18.109375 -20.796875 
L 9.078125 -20.796875 
L 9.078125 54.6875 
L 18.109375 54.6875 
L 18.109375 46.390625 
Q 20.953125 51.265625 25.265625 53.625 
Q 29.59375 56 35.59375 56 
Q 45.5625 56 51.78125 48.09375 
Q 58.015625 40.1875 58.015625 27.296875 
Q 58.015625 14.40625 51.78125 6.484375 
Q 45.5625 -1.421875 35.59375 -1.421875 
Q 29.59375 -1.421875 25.265625 0.953125 
Q 20.953125 3.328125 18.109375 8.203125 
z
M 48.6875 27.296875 
Q 48.6875 37.203125 44.609375 42.84375 
Q 40.53125 48.484375 33.40625 48.484375 
Q 26.265625 48.484375 22.1875 42.84375 
Q 18.109375 37.203125 18.109375 27.296875 
Q 18.109375 17.390625 22.1875 11.75 
Q 26.265625 6.109375 33.40625 6.109375 
Q 40.53125 6.109375 44.609375 11.75 
Q 48.6875 17.390625 48.6875 27.296875 
z
" id="DejaVuSans-112"/>
      <path d="M 48.78125 52.59375 
L 48.78125 44.1875 
Q 44.96875 46.296875 41.140625 47.34375 
Q 37.3125 48.390625 33.40625 48.390625 
Q 24.65625 48.390625 19.8125 42.84375 
Q 14.984375 37.3125 14.984375 27.296875 
Q 14.984375 17.28125 19.8125 11.734375 
Q 24.65625 6.203125 33.40625 6.203125 
Q 37.3125 6.203125 41.140625 7.25 
Q 44.96875 8.296875 48.78125 10.40625 
L 48.78125 2.09375 
Q 45.015625 0.34375 40.984375 -0.53125 
Q 36.96875 -1.421875 32.421875 -1.421875 
Q 20.0625 -1.421875 12.78125 6.34375 
Q 5.515625 14.109375 5.515625 27.296875 
Q 5.515625 40.671875 12.859375 48.328125 
Q 20.21875 56 33.015625 56 
Q 37.15625 56 41.109375 55.140625 
Q 45.0625 54.296875 48.78125 52.59375 
z
" id="DejaVuSans-99"/>
      <path d="M 9.078125 75.984375 
L 18.109375 75.984375 
L 18.109375 31.109375 
L 44.921875 54.6875 
L 56.390625 54.6875 
L 27.390625 29.109375 
L 57.625 0 
L 45.90625 0 
L 18.109375 26.703125 
L 18.109375 0 
L 9.078125 0 
z
" id="DejaVuSans-107"/>
     </defs>
     <g transform="translate(115.733143 69.954844)scale(0.15 -0.15)">
      <use xlink:href="#DejaVuSans-79"/>
      <use x="78.710938" xlink:href="#DejaVuSans-112"/>
      <use x="142.1875" xlink:href="#DejaVuSans-116"/>
      <use x="181.396484" xlink:href="#DejaVuSans-105"/>
      <use x="209.179688" xlink:href="#DejaVuSans-116"/>
      <use x="248.388672" xlink:href="#DejaVuSans-114"/>
      <use x="289.501953" xlink:href="#DejaVuSans-97"/>
      <use x="350.78125" xlink:href="#DejaVuSans-99"/>
      <use x="405.761719" xlink:href="#DejaVuSans-107"/>
     </g>
    </g>
   </g>
  </g>
 </g>
 <defs>
  <clipPath id="p9d887fd732">
   <rect height="282.24" width="330.341143" x="60.233143" y="23.04"/>
  </clipPath>
 </defs>
</svg>
