<?xml version="1.0" encoding="utf-8" standalone="no"?>
<!DOCTYPE svg PUBLIC "-//W3C//DTD SVG 1.1//EN"
  "http://www.w3.org/Graphics/SVG/1.1/DTD/svg11.dtd">
<!-- Created with matplotlib (https://matplotlib.org/) -->
<svg height="342.72pt" version="1.1" viewBox="0 0 402.48 342.72" width="402.48pt" xmlns="http://www.w3.org/2000/svg" xmlns:xlink="http://www.w3.org/1999/xlink">
 <defs>
  <style type="text/css">
*{stroke-linecap:butt;stroke-linejoin:round;}
  </style>
 </defs>
 <g id="figure_1">
  <g id="patch_1">
   <path d="M 0 342.72 
L 402.48 342.72 
L 402.48 0 
L 0 0 
z
" style="fill:#ffffff;"/>
  </g>
  <g id="axes_1">
   <g id="patch_2">
    <path d="M 44.081143 310.08 
L 395.772 310.08 
L 395.772 17.952 
L 44.081143 17.952 
z
" style="fill:#ffffff;"/>
   </g>
   <g id="PathCollection_1">
    <defs>
     <path d="M 0 3 
C 0.795609 3 1.55874 2.683901 2.12132 2.12132 
C 2.683901 1.55874 3 0.795609 3 0 
C 3 -0.795609 2.683901 -1.55874 2.12132 -2.12132 
C 1.55874 -2.683901 0.795609 -3 0 -3 
C -0.795609 -3 -1.55874 -2.683901 -2.12132 -2.12132 
C -2.683901 -1.55874 -3 -0.795609 -3 0 
C -3 0.795609 -2.683901 1.55874 -2.12132 2.12132 
C -1.55874 2.683901 -0.795609 3 0 3 
z
" id="ma661d01a48" style="stroke:#1f77b4;"/>
    </defs>
    <g clip-path="url(#p9f337859a8)">
     <use style="fill:#1f77b4;stroke:#1f77b4;" x="60.067091" xlink:href="#ma661d01a48" y="105.827915"/>
     <use style="fill:#1f77b4;stroke:#1f77b4;" x="63.000292" xlink:href="#ma661d01a48" y="184.777625"/>
     <use style="fill:#1f77b4;stroke:#1f77b4;" x="65.933494" xlink:href="#ma661d01a48" y="183.584415"/>
     <use style="fill:#1f77b4;stroke:#1f77b4;" x="68.866695" xlink:href="#ma661d01a48" y="183.794803"/>
     <use style="fill:#1f77b4;stroke:#1f77b4;" x="71.799897" xlink:href="#ma661d01a48" y="184.06197"/>
     <use style="fill:#1f77b4;stroke:#1f77b4;" x="74.733098" xlink:href="#ma661d01a48" y="100.535628"/>
     <use style="fill:#1f77b4;stroke:#1f77b4;" x="77.6663" xlink:href="#ma661d01a48" y="97.055064"/>
     <use style="fill:#1f77b4;stroke:#1f77b4;" x="80.599501" xlink:href="#ma661d01a48" y="179.580331"/>
     <use style="fill:#1f77b4;stroke:#1f77b4;" x="83.532703" xlink:href="#ma661d01a48" y="183.625181"/>
     <use style="fill:#1f77b4;stroke:#1f77b4;" x="86.465904" xlink:href="#ma661d01a48" y="183.476824"/>
     <use style="fill:#1f77b4;stroke:#1f77b4;" x="89.399106" xlink:href="#ma661d01a48" y="189.539506"/>
     <use style="fill:#1f77b4;stroke:#1f77b4;" x="92.332307" xlink:href="#ma661d01a48" y="183.598026"/>
     <use style="fill:#1f77b4;stroke:#1f77b4;" x="95.265509" xlink:href="#ma661d01a48" y="178.75099"/>
     <use style="fill:#1f77b4;stroke:#1f77b4;" x="98.19871" xlink:href="#ma661d01a48" y="179.88146"/>
     <use style="fill:#1f77b4;stroke:#1f77b4;" x="101.131912" xlink:href="#ma661d01a48" y="182.446677"/>
     <use style="fill:#1f77b4;stroke:#1f77b4;" x="104.065113" xlink:href="#ma661d01a48" y="177.268692"/>
     <use style="fill:#1f77b4;stroke:#1f77b4;" x="106.998315" xlink:href="#ma661d01a48" y="179.601164"/>
     <use style="fill:#1f77b4;stroke:#1f77b4;" x="109.931516" xlink:href="#ma661d01a48" y="180.821881"/>
     <use style="fill:#1f77b4;stroke:#1f77b4;" x="112.864718" xlink:href="#ma661d01a48" y="180.665014"/>
     <use style="fill:#1f77b4;stroke:#1f77b4;" x="115.797919" xlink:href="#ma661d01a48" y="184.450594"/>
     <use style="fill:#1f77b4;stroke:#1f77b4;" x="118.73112" xlink:href="#ma661d01a48" y="184.002818"/>
     <use style="fill:#1f77b4;stroke:#1f77b4;" x="121.664322" xlink:href="#ma661d01a48" y="180.5556"/>
     <use style="fill:#1f77b4;stroke:#1f77b4;" x="124.597523" xlink:href="#ma661d01a48" y="177.484994"/>
     <use style="fill:#1f77b4;stroke:#1f77b4;" x="127.530725" xlink:href="#ma661d01a48" y="178.235283"/>
     <use style="fill:#1f77b4;stroke:#1f77b4;" x="130.463926" xlink:href="#ma661d01a48" y="178.324994"/>
     <use style="fill:#1f77b4;stroke:#1f77b4;" x="133.397128" xlink:href="#ma661d01a48" y="187.813393"/>
     <use style="fill:#1f77b4;stroke:#1f77b4;" x="136.330329" xlink:href="#ma661d01a48" y="178.930109"/>
     <use style="fill:#1f77b4;stroke:#1f77b4;" x="139.263531" xlink:href="#ma661d01a48" y="180.065829"/>
     <use style="fill:#1f77b4;stroke:#1f77b4;" x="142.196732" xlink:href="#ma661d01a48" y="177.87905"/>
     <use style="fill:#1f77b4;stroke:#1f77b4;" x="145.129934" xlink:href="#ma661d01a48" y="181.052977"/>
     <use style="fill:#1f77b4;stroke:#1f77b4;" x="148.063135" xlink:href="#ma661d01a48" y="184.866077"/>
     <use style="fill:#1f77b4;stroke:#1f77b4;" x="150.996337" xlink:href="#ma661d01a48" y="181.081346"/>
     <use style="fill:#1f77b4;stroke:#1f77b4;" x="153.929538" xlink:href="#ma661d01a48" y="178.15085"/>
     <use style="fill:#1f77b4;stroke:#1f77b4;" x="156.86274" xlink:href="#ma661d01a48" y="176.733047"/>
     <use style="fill:#1f77b4;stroke:#1f77b4;" x="159.795941" xlink:href="#ma661d01a48" y="181.637957"/>
     <use style="fill:#1f77b4;stroke:#1f77b4;" x="162.729143" xlink:href="#ma661d01a48" y="184.095458"/>
     <use style="fill:#1f77b4;stroke:#1f77b4;" x="165.662344" xlink:href="#ma661d01a48" y="187.760229"/>
     <use style="fill:#1f77b4;stroke:#1f77b4;" x="168.595546" xlink:href="#ma661d01a48" y="180.254027"/>
     <use style="fill:#1f77b4;stroke:#1f77b4;" x="171.528747" xlink:href="#ma661d01a48" y="178.825704"/>
     <use style="fill:#1f77b4;stroke:#1f77b4;" x="174.461949" xlink:href="#ma661d01a48" y="180.643883"/>
     <use style="fill:#1f77b4;stroke:#1f77b4;" x="177.39515" xlink:href="#ma661d01a48" y="177.07257"/>
     <use style="fill:#1f77b4;stroke:#1f77b4;" x="180.328351" xlink:href="#ma661d01a48" y="186.24352"/>
     <use style="fill:#1f77b4;stroke:#1f77b4;" x="183.261553" xlink:href="#ma661d01a48" y="177.19733"/>
     <use style="fill:#1f77b4;stroke:#1f77b4;" x="186.194754" xlink:href="#ma661d01a48" y="173.556311"/>
     <use style="fill:#1f77b4;stroke:#1f77b4;" x="189.127956" xlink:href="#ma661d01a48" y="175.967935"/>
     <use style="fill:#1f77b4;stroke:#1f77b4;" x="192.061157" xlink:href="#ma661d01a48" y="186.3775"/>
     <use style="fill:#1f77b4;stroke:#1f77b4;" x="194.994359" xlink:href="#ma661d01a48" y="175.540558"/>
     <use style="fill:#1f77b4;stroke:#1f77b4;" x="197.92756" xlink:href="#ma661d01a48" y="180.769702"/>
     <use style="fill:#1f77b4;stroke:#1f77b4;" x="200.860762" xlink:href="#ma661d01a48" y="174.612203"/>
     <use style="fill:#1f77b4;stroke:#1f77b4;" x="203.793963" xlink:href="#ma661d01a48" y="171.589771"/>
     <use style="fill:#1f77b4;stroke:#1f77b4;" x="206.727165" xlink:href="#ma661d01a48" y="189.090736"/>
     <use style="fill:#1f77b4;stroke:#1f77b4;" x="209.660366" xlink:href="#ma661d01a48" y="166.732783"/>
     <use style="fill:#1f77b4;stroke:#1f77b4;" x="212.593568" xlink:href="#ma661d01a48" y="170.328536"/>
     <use style="fill:#1f77b4;stroke:#1f77b4;" x="215.526769" xlink:href="#ma661d01a48" y="173.527432"/>
     <use style="fill:#1f77b4;stroke:#1f77b4;" x="218.459971" xlink:href="#ma661d01a48" y="168.142612"/>
     <use style="fill:#1f77b4;stroke:#1f77b4;" x="221.393172" xlink:href="#ma661d01a48" y="173.561028"/>
     <use style="fill:#1f77b4;stroke:#1f77b4;" x="224.326374" xlink:href="#ma661d01a48" y="165.243681"/>
     <use style="fill:#1f77b4;stroke:#1f77b4;" x="227.259575" xlink:href="#ma661d01a48" y="161.997902"/>
     <use style="fill:#1f77b4;stroke:#1f77b4;" x="230.192777" xlink:href="#ma661d01a48" y="164.574435"/>
     <use style="fill:#1f77b4;stroke:#1f77b4;" x="233.125978" xlink:href="#ma661d01a48" y="172.042146"/>
     <use style="fill:#1f77b4;stroke:#1f77b4;" x="236.05918" xlink:href="#ma661d01a48" y="173.866804"/>
     <use style="fill:#1f77b4;stroke:#1f77b4;" x="238.992381" xlink:href="#ma661d01a48" y="168.340357"/>
     <use style="fill:#1f77b4;stroke:#1f77b4;" x="241.925583" xlink:href="#ma661d01a48" y="175.099201"/>
     <use style="fill:#1f77b4;stroke:#1f77b4;" x="244.858784" xlink:href="#ma661d01a48" y="167.554134"/>
     <use style="fill:#1f77b4;stroke:#1f77b4;" x="247.791985" xlink:href="#ma661d01a48" y="172.965652"/>
     <use style="fill:#1f77b4;stroke:#1f77b4;" x="250.725187" xlink:href="#ma661d01a48" y="167.783655"/>
     <use style="fill:#1f77b4;stroke:#1f77b4;" x="253.658388" xlink:href="#ma661d01a48" y="179.425146"/>
     <use style="fill:#1f77b4;stroke:#1f77b4;" x="256.59159" xlink:href="#ma661d01a48" y="172.099346"/>
     <use style="fill:#1f77b4;stroke:#1f77b4;" x="259.524791" xlink:href="#ma661d01a48" y="169.292681"/>
     <use style="fill:#1f77b4;stroke:#1f77b4;" x="262.457993" xlink:href="#ma661d01a48" y="167.421037"/>
     <use style="fill:#1f77b4;stroke:#1f77b4;" x="265.391194" xlink:href="#ma661d01a48" y="167.870088"/>
     <use style="fill:#1f77b4;stroke:#1f77b4;" x="268.324396" xlink:href="#ma661d01a48" y="182.254734"/>
     <use style="fill:#1f77b4;stroke:#1f77b4;" x="271.257597" xlink:href="#ma661d01a48" y="173.303846"/>
     <use style="fill:#1f77b4;stroke:#1f77b4;" x="274.190799" xlink:href="#ma661d01a48" y="175.193363"/>
     <use style="fill:#1f77b4;stroke:#1f77b4;" x="277.124" xlink:href="#ma661d01a48" y="171.665786"/>
     <use style="fill:#1f77b4;stroke:#1f77b4;" x="280.057202" xlink:href="#ma661d01a48" y="168.091598"/>
     <use style="fill:#1f77b4;stroke:#1f77b4;" x="282.990403" xlink:href="#ma661d01a48" y="168.984783"/>
     <use style="fill:#1f77b4;stroke:#1f77b4;" x="285.923605" xlink:href="#ma661d01a48" y="177.429542"/>
     <use style="fill:#1f77b4;stroke:#1f77b4;" x="288.856806" xlink:href="#ma661d01a48" y="169.813787"/>
     <use style="fill:#1f77b4;stroke:#1f77b4;" x="291.790008" xlink:href="#ma661d01a48" y="182.882486"/>
     <use style="fill:#1f77b4;stroke:#1f77b4;" x="294.723209" xlink:href="#ma661d01a48" y="170.372326"/>
     <use style="fill:#1f77b4;stroke:#1f77b4;" x="297.656411" xlink:href="#ma661d01a48" y="167.185495"/>
     <use style="fill:#1f77b4;stroke:#1f77b4;" x="300.589612" xlink:href="#ma661d01a48" y="170.790065"/>
     <use style="fill:#1f77b4;stroke:#1f77b4;" x="303.522814" xlink:href="#ma661d01a48" y="176.548358"/>
     <use style="fill:#1f77b4;stroke:#1f77b4;" x="306.456015" xlink:href="#ma661d01a48" y="168.315014"/>
     <use style="fill:#1f77b4;stroke:#1f77b4;" x="309.389216" xlink:href="#ma661d01a48" y="192.990435"/>
     <use style="fill:#1f77b4;stroke:#1f77b4;" x="312.322418" xlink:href="#ma661d01a48" y="157.532596"/>
     <use style="fill:#1f77b4;stroke:#1f77b4;" x="315.255619" xlink:href="#ma661d01a48" y="178.239524"/>
     <use style="fill:#1f77b4;stroke:#1f77b4;" x="318.188821" xlink:href="#ma661d01a48" y="155.187116"/>
     <use style="fill:#1f77b4;stroke:#1f77b4;" x="321.122022" xlink:href="#ma661d01a48" y="150.836113"/>
     <use style="fill:#1f77b4;stroke:#1f77b4;" x="324.055224" xlink:href="#ma661d01a48" y="167.149073"/>
     <use style="fill:#1f77b4;stroke:#1f77b4;" x="326.988425" xlink:href="#ma661d01a48" y="151.680949"/>
     <use style="fill:#1f77b4;stroke:#1f77b4;" x="329.921627" xlink:href="#ma661d01a48" y="157.504789"/>
     <use style="fill:#1f77b4;stroke:#1f77b4;" x="332.854828" xlink:href="#ma661d01a48" y="151.54762"/>
     <use style="fill:#1f77b4;stroke:#1f77b4;" x="335.78803" xlink:href="#ma661d01a48" y="164.283554"/>
     <use style="fill:#1f77b4;stroke:#1f77b4;" x="338.721231" xlink:href="#ma661d01a48" y="157.39792"/>
     <use style="fill:#1f77b4;stroke:#1f77b4;" x="341.654433" xlink:href="#ma661d01a48" y="185.449929"/>
     <use style="fill:#1f77b4;stroke:#1f77b4;" x="344.587634" xlink:href="#ma661d01a48" y="179.923116"/>
     <use style="fill:#1f77b4;stroke:#1f77b4;" x="347.520836" xlink:href="#ma661d01a48" y="159.417455"/>
     <use style="fill:#1f77b4;stroke:#1f77b4;" x="350.454037" xlink:href="#ma661d01a48" y="147.439767"/>
     <use style="fill:#1f77b4;stroke:#1f77b4;" x="353.387239" xlink:href="#ma661d01a48" y="165.055722"/>
     <use style="fill:#1f77b4;stroke:#1f77b4;" x="356.32044" xlink:href="#ma661d01a48" y="163.582052"/>
     <use style="fill:#1f77b4;stroke:#1f77b4;" x="359.253642" xlink:href="#ma661d01a48" y="165.469298"/>
     <use style="fill:#1f77b4;stroke:#1f77b4;" x="362.186843" xlink:href="#ma661d01a48" y="133.673912"/>
     <use style="fill:#1f77b4;stroke:#1f77b4;" x="365.120045" xlink:href="#ma661d01a48" y="146.885039"/>
     <use style="fill:#1f77b4;stroke:#1f77b4;" x="368.053246" xlink:href="#ma661d01a48" y="148.193553"/>
     <use style="fill:#1f77b4;stroke:#1f77b4;" x="370.986448" xlink:href="#ma661d01a48" y="146.519162"/>
     <use style="fill:#1f77b4;stroke:#1f77b4;" x="373.919649" xlink:href="#ma661d01a48" y="124.656545"/>
     <use style="fill:#1f77b4;stroke:#1f77b4;" x="376.85285" xlink:href="#ma661d01a48" y="114.587446"/>
     <use style="fill:#1f77b4;stroke:#1f77b4;" x="379.786052" xlink:href="#ma661d01a48" y="168.699305"/>
    </g>
   </g>
   <g id="PathCollection_2">
    <defs>
     <path d="M 0 3 
C 0.795609 3 1.55874 2.683901 2.12132 2.12132 
C 2.683901 1.55874 3 0.795609 3 0 
C 3 -0.795609 2.683901 -1.55874 2.12132 -2.12132 
C 1.55874 -2.683901 0.795609 -3 0 -3 
C -0.795609 -3 -1.55874 -2.683901 -2.12132 -2.12132 
C -2.683901 -1.55874 -3 -0.795609 -3 0 
C -3 0.795609 -2.683901 1.55874 -2.12132 2.12132 
C -1.55874 2.683901 -0.795609 3 0 3 
z
" id="m630c856b8f" style="stroke:#ff7f0e;"/>
    </defs>
    <g clip-path="url(#p9f337859a8)">
     <use style="fill:#ff7f0e;stroke:#ff7f0e;" x="60.067091" xlink:href="#m630c856b8f" y="167.112534"/>
     <use style="fill:#ff7f0e;stroke:#ff7f0e;" x="63.000292" xlink:href="#m630c856b8f" y="167.316251"/>
     <use style="fill:#ff7f0e;stroke:#ff7f0e;" x="65.933494" xlink:href="#m630c856b8f" y="170.285759"/>
     <use style="fill:#ff7f0e;stroke:#ff7f0e;" x="68.866695" xlink:href="#m630c856b8f" y="163.194892"/>
     <use style="fill:#ff7f0e;stroke:#ff7f0e;" x="71.799897" xlink:href="#m630c856b8f" y="166.199204"/>
     <use style="fill:#ff7f0e;stroke:#ff7f0e;" x="74.733098" xlink:href="#m630c856b8f" y="171.02177"/>
     <use style="fill:#ff7f0e;stroke:#ff7f0e;" x="77.6663" xlink:href="#m630c856b8f" y="162.587265"/>
     <use style="fill:#ff7f0e;stroke:#ff7f0e;" x="80.599501" xlink:href="#m630c856b8f" y="168.090121"/>
     <use style="fill:#ff7f0e;stroke:#ff7f0e;" x="83.532703" xlink:href="#m630c856b8f" y="165.948407"/>
     <use style="fill:#ff7f0e;stroke:#ff7f0e;" x="86.465904" xlink:href="#m630c856b8f" y="168.108837"/>
     <use style="fill:#ff7f0e;stroke:#ff7f0e;" x="89.399106" xlink:href="#m630c856b8f" y="165.148322"/>
     <use style="fill:#ff7f0e;stroke:#ff7f0e;" x="92.332307" xlink:href="#m630c856b8f" y="172.818786"/>
     <use style="fill:#ff7f0e;stroke:#ff7f0e;" x="95.265509" xlink:href="#m630c856b8f" y="166.436529"/>
     <use style="fill:#ff7f0e;stroke:#ff7f0e;" x="98.19871" xlink:href="#m630c856b8f" y="163.090894"/>
     <use style="fill:#ff7f0e;stroke:#ff7f0e;" x="101.131912" xlink:href="#m630c856b8f" y="164.945381"/>
     <use style="fill:#ff7f0e;stroke:#ff7f0e;" x="104.065113" xlink:href="#m630c856b8f" y="167.522866"/>
     <use style="fill:#ff7f0e;stroke:#ff7f0e;" x="106.998315" xlink:href="#m630c856b8f" y="163.251138"/>
     <use style="fill:#ff7f0e;stroke:#ff7f0e;" x="109.931516" xlink:href="#m630c856b8f" y="165.619702"/>
     <use style="fill:#ff7f0e;stroke:#ff7f0e;" x="112.864718" xlink:href="#m630c856b8f" y="169.688559"/>
     <use style="fill:#ff7f0e;stroke:#ff7f0e;" x="115.797919" xlink:href="#m630c856b8f" y="168.865069"/>
     <use style="fill:#ff7f0e;stroke:#ff7f0e;" x="118.73112" xlink:href="#m630c856b8f" y="167.780614"/>
     <use style="fill:#ff7f0e;stroke:#ff7f0e;" x="121.664322" xlink:href="#m630c856b8f" y="171.429872"/>
     <use style="fill:#ff7f0e;stroke:#ff7f0e;" x="124.597523" xlink:href="#m630c856b8f" y="167.970417"/>
     <use style="fill:#ff7f0e;stroke:#ff7f0e;" x="127.530725" xlink:href="#m630c856b8f" y="165.154886"/>
     <use style="fill:#ff7f0e;stroke:#ff7f0e;" x="130.463926" xlink:href="#m630c856b8f" y="169.121466"/>
     <use style="fill:#ff7f0e;stroke:#ff7f0e;" x="133.397128" xlink:href="#m630c856b8f" y="173.217738"/>
     <use style="fill:#ff7f0e;stroke:#ff7f0e;" x="136.330329" xlink:href="#m630c856b8f" y="168.307266"/>
     <use style="fill:#ff7f0e;stroke:#ff7f0e;" x="139.263531" xlink:href="#m630c856b8f" y="168.854484"/>
     <use style="fill:#ff7f0e;stroke:#ff7f0e;" x="142.196732" xlink:href="#m630c856b8f" y="170.379395"/>
     <use style="fill:#ff7f0e;stroke:#ff7f0e;" x="145.129934" xlink:href="#m630c856b8f" y="182.514546"/>
     <use style="fill:#ff7f0e;stroke:#ff7f0e;" x="148.063135" xlink:href="#m630c856b8f" y="184.850334"/>
     <use style="fill:#ff7f0e;stroke:#ff7f0e;" x="150.996337" xlink:href="#m630c856b8f" y="168.12806"/>
     <use style="fill:#ff7f0e;stroke:#ff7f0e;" x="153.929538" xlink:href="#m630c856b8f" y="169.535225"/>
     <use style="fill:#ff7f0e;stroke:#ff7f0e;" x="156.86274" xlink:href="#m630c856b8f" y="166.815462"/>
     <use style="fill:#ff7f0e;stroke:#ff7f0e;" x="159.795941" xlink:href="#m630c856b8f" y="179.4571"/>
     <use style="fill:#ff7f0e;stroke:#ff7f0e;" x="162.729143" xlink:href="#m630c856b8f" y="168.664979"/>
     <use style="fill:#ff7f0e;stroke:#ff7f0e;" x="165.662344" xlink:href="#m630c856b8f" y="168.253873"/>
     <use style="fill:#ff7f0e;stroke:#ff7f0e;" x="168.595546" xlink:href="#m630c856b8f" y="166.536356"/>
     <use style="fill:#ff7f0e;stroke:#ff7f0e;" x="171.528747" xlink:href="#m630c856b8f" y="166.340513"/>
     <use style="fill:#ff7f0e;stroke:#ff7f0e;" x="174.461949" xlink:href="#m630c856b8f" y="169.2188"/>
     <use style="fill:#ff7f0e;stroke:#ff7f0e;" x="177.39515" xlink:href="#m630c856b8f" y="168.9398"/>
     <use style="fill:#ff7f0e;stroke:#ff7f0e;" x="180.328351" xlink:href="#m630c856b8f" y="168.669483"/>
     <use style="fill:#ff7f0e;stroke:#ff7f0e;" x="183.261553" xlink:href="#m630c856b8f" y="162.203994"/>
     <use style="fill:#ff7f0e;stroke:#ff7f0e;" x="186.194754" xlink:href="#m630c856b8f" y="160.758453"/>
     <use style="fill:#ff7f0e;stroke:#ff7f0e;" x="189.127956" xlink:href="#m630c856b8f" y="158.713789"/>
     <use style="fill:#ff7f0e;stroke:#ff7f0e;" x="192.061157" xlink:href="#m630c856b8f" y="158.741559"/>
     <use style="fill:#ff7f0e;stroke:#ff7f0e;" x="194.994359" xlink:href="#m630c856b8f" y="156.918643"/>
     <use style="fill:#ff7f0e;stroke:#ff7f0e;" x="197.92756" xlink:href="#m630c856b8f" y="156.451152"/>
     <use style="fill:#ff7f0e;stroke:#ff7f0e;" x="200.860762" xlink:href="#m630c856b8f" y="153.918913"/>
     <use style="fill:#ff7f0e;stroke:#ff7f0e;" x="203.793963" xlink:href="#m630c856b8f" y="153.26924"/>
     <use style="fill:#ff7f0e;stroke:#ff7f0e;" x="206.727165" xlink:href="#m630c856b8f" y="154.025003"/>
     <use style="fill:#ff7f0e;stroke:#ff7f0e;" x="209.660366" xlink:href="#m630c856b8f" y="151.358484"/>
     <use style="fill:#ff7f0e;stroke:#ff7f0e;" x="212.593568" xlink:href="#m630c856b8f" y="151.155544"/>
     <use style="fill:#ff7f0e;stroke:#ff7f0e;" x="215.526769" xlink:href="#m630c856b8f" y="151.383791"/>
     <use style="fill:#ff7f0e;stroke:#ff7f0e;" x="218.459971" xlink:href="#m630c856b8f" y="155.148944"/>
     <use style="fill:#ff7f0e;stroke:#ff7f0e;" x="221.393172" xlink:href="#m630c856b8f" y="148.544704"/>
     <use style="fill:#ff7f0e;stroke:#ff7f0e;" x="224.326374" xlink:href="#m630c856b8f" y="148.012563"/>
     <use style="fill:#ff7f0e;stroke:#ff7f0e;" x="227.259575" xlink:href="#m630c856b8f" y="147.371292"/>
     <use style="fill:#ff7f0e;stroke:#ff7f0e;" x="230.192777" xlink:href="#m630c856b8f" y="146.429027"/>
     <use style="fill:#ff7f0e;stroke:#ff7f0e;" x="233.125978" xlink:href="#m630c856b8f" y="148.078692"/>
     <use style="fill:#ff7f0e;stroke:#ff7f0e;" x="236.05918" xlink:href="#m630c856b8f" y="146.187953"/>
     <use style="fill:#ff7f0e;stroke:#ff7f0e;" x="238.992381" xlink:href="#m630c856b8f" y="149.995442"/>
     <use style="fill:#ff7f0e;stroke:#ff7f0e;" x="241.925583" xlink:href="#m630c856b8f" y="146.068111"/>
     <use style="fill:#ff7f0e;stroke:#ff7f0e;" x="244.858784" xlink:href="#m630c856b8f" y="146.334969"/>
     <use style="fill:#ff7f0e;stroke:#ff7f0e;" x="247.791985" xlink:href="#m630c856b8f" y="146.193358"/>
     <use style="fill:#ff7f0e;stroke:#ff7f0e;" x="250.725187" xlink:href="#m630c856b8f" y="148.728592"/>
     <use style="fill:#ff7f0e;stroke:#ff7f0e;" x="253.658388" xlink:href="#m630c856b8f" y="143.018194"/>
     <use style="fill:#ff7f0e;stroke:#ff7f0e;" x="256.59159" xlink:href="#m630c856b8f" y="147.956077"/>
     <use style="fill:#ff7f0e;stroke:#ff7f0e;" x="259.524791" xlink:href="#m630c856b8f" y="143.139662"/>
     <use style="fill:#ff7f0e;stroke:#ff7f0e;" x="262.457993" xlink:href="#m630c856b8f" y="144.049715"/>
     <use style="fill:#ff7f0e;stroke:#ff7f0e;" x="265.391194" xlink:href="#m630c856b8f" y="142.223335"/>
     <use style="fill:#ff7f0e;stroke:#ff7f0e;" x="268.324396" xlink:href="#m630c856b8f" y="148.263811"/>
     <use style="fill:#ff7f0e;stroke:#ff7f0e;" x="271.257597" xlink:href="#m630c856b8f" y="146.725884"/>
     <use style="fill:#ff7f0e;stroke:#ff7f0e;" x="274.190799" xlink:href="#m630c856b8f" y="142.506466"/>
     <use style="fill:#ff7f0e;stroke:#ff7f0e;" x="277.124" xlink:href="#m630c856b8f" y="146.303689"/>
     <use style="fill:#ff7f0e;stroke:#ff7f0e;" x="280.057202" xlink:href="#m630c856b8f" y="147.383106"/>
     <use style="fill:#ff7f0e;stroke:#ff7f0e;" x="282.990403" xlink:href="#m630c856b8f" y="147.100484"/>
     <use style="fill:#ff7f0e;stroke:#ff7f0e;" x="285.923605" xlink:href="#m630c856b8f" y="150.003957"/>
     <use style="fill:#ff7f0e;stroke:#ff7f0e;" x="288.856806" xlink:href="#m630c856b8f" y="144.769629"/>
     <use style="fill:#ff7f0e;stroke:#ff7f0e;" x="291.790008" xlink:href="#m630c856b8f" y="145.602449"/>
     <use style="fill:#ff7f0e;stroke:#ff7f0e;" x="294.723209" xlink:href="#m630c856b8f" y="146.538797"/>
     <use style="fill:#ff7f0e;stroke:#ff7f0e;" x="297.656411" xlink:href="#m630c856b8f" y="151.406376"/>
     <use style="fill:#ff7f0e;stroke:#ff7f0e;" x="300.589612" xlink:href="#m630c856b8f" y="150.113242"/>
     <use style="fill:#ff7f0e;stroke:#ff7f0e;" x="303.522814" xlink:href="#m630c856b8f" y="151.331183"/>
     <use style="fill:#ff7f0e;stroke:#ff7f0e;" x="306.456015" xlink:href="#m630c856b8f" y="153.231544"/>
     <use style="fill:#ff7f0e;stroke:#ff7f0e;" x="309.389216" xlink:href="#m630c856b8f" y="151.402935"/>
     <use style="fill:#ff7f0e;stroke:#ff7f0e;" x="312.322418" xlink:href="#m630c856b8f" y="148.706855"/>
     <use style="fill:#ff7f0e;stroke:#ff7f0e;" x="315.255619" xlink:href="#m630c856b8f" y="147.605579"/>
     <use style="fill:#ff7f0e;stroke:#ff7f0e;" x="318.188821" xlink:href="#m630c856b8f" y="147.743671"/>
     <use style="fill:#ff7f0e;stroke:#ff7f0e;" x="321.122022" xlink:href="#m630c856b8f" y="157.583417"/>
     <use style="fill:#ff7f0e;stroke:#ff7f0e;" x="324.055224" xlink:href="#m630c856b8f" y="155.187593"/>
     <use style="fill:#ff7f0e;stroke:#ff7f0e;" x="326.988425" xlink:href="#m630c856b8f" y="142.719759"/>
     <use style="fill:#ff7f0e;stroke:#ff7f0e;" x="329.921627" xlink:href="#m630c856b8f" y="140.367273"/>
     <use style="fill:#ff7f0e;stroke:#ff7f0e;" x="332.854828" xlink:href="#m630c856b8f" y="140.445083"/>
     <use style="fill:#ff7f0e;stroke:#ff7f0e;" x="335.78803" xlink:href="#m630c856b8f" y="137.820533"/>
     <use style="fill:#ff7f0e;stroke:#ff7f0e;" x="338.721231" xlink:href="#m630c856b8f" y="141.512635"/>
     <use style="fill:#ff7f0e;stroke:#ff7f0e;" x="341.654433" xlink:href="#m630c856b8f" y="135.823285"/>
     <use style="fill:#ff7f0e;stroke:#ff7f0e;" x="344.587634" xlink:href="#m630c856b8f" y="130.426961"/>
     <use style="fill:#ff7f0e;stroke:#ff7f0e;" x="347.520836" xlink:href="#m630c856b8f" y="125.215593"/>
     <use style="fill:#ff7f0e;stroke:#ff7f0e;" x="350.454037" xlink:href="#m630c856b8f" y="114.353551"/>
     <use style="fill:#ff7f0e;stroke:#ff7f0e;" x="353.387239" xlink:href="#m630c856b8f" y="106.158184"/>
     <use style="fill:#ff7f0e;stroke:#ff7f0e;" x="356.32044" xlink:href="#m630c856b8f" y="115.075939"/>
     <use style="fill:#ff7f0e;stroke:#ff7f0e;" x="359.253642" xlink:href="#m630c856b8f" y="92.75211"/>
     <use style="fill:#ff7f0e;stroke:#ff7f0e;" x="362.186843" xlink:href="#m630c856b8f" y="98.261138"/>
     <use style="fill:#ff7f0e;stroke:#ff7f0e;" x="365.120045" xlink:href="#m630c856b8f" y="76.639825"/>
     <use style="fill:#ff7f0e;stroke:#ff7f0e;" x="368.053246" xlink:href="#m630c856b8f" y="76.013712"/>
     <use style="fill:#ff7f0e;stroke:#ff7f0e;" x="370.986448" xlink:href="#m630c856b8f" y="71.399693"/>
     <use style="fill:#ff7f0e;stroke:#ff7f0e;" x="373.919649" xlink:href="#m630c856b8f" y="58.461257"/>
     <use style="fill:#ff7f0e;stroke:#ff7f0e;" x="376.85285" xlink:href="#m630c856b8f" y="51.732143"/>
     <use style="fill:#ff7f0e;stroke:#ff7f0e;" x="379.786052" xlink:href="#m630c856b8f" y="35.032549"/>
    </g>
   </g>
   <g id="matplotlib.axis_1">
    <g id="xtick_1">
     <g id="line2d_1">
      <defs>
       <path d="M 0 0 
L 0 3.5 
" id="me30869c477" style="stroke:#000000;stroke-width:0.8;"/>
      </defs>
      <g>
       <use style="stroke:#000000;stroke-width:0.8;" x="60.067091" xlink:href="#me30869c477" y="310.08"/>
      </g>
     </g>
     <g id="text_1">
      <!-- 0 -->
      <defs>
       <path d="M 31.78125 66.40625 
Q 24.171875 66.40625 20.328125 58.90625 
Q 16.5 51.421875 16.5 36.375 
Q 16.5 21.390625 20.328125 13.890625 
Q 24.171875 6.390625 31.78125 6.390625 
Q 39.453125 6.390625 43.28125 13.890625 
Q 47.125 21.390625 47.125 36.375 
Q 47.125 51.421875 43.28125 58.90625 
Q 39.453125 66.40625 31.78125 66.40625 
z
M 31.78125 74.21875 
Q 44.046875 74.21875 50.515625 64.515625 
Q 56.984375 54.828125 56.984375 36.375 
Q 56.984375 17.96875 50.515625 8.265625 
Q 44.046875 -1.421875 31.78125 -1.421875 
Q 19.53125 -1.421875 13.0625 8.265625 
Q 6.59375 17.96875 6.59375 36.375 
Q 6.59375 54.828125 13.0625 64.515625 
Q 19.53125 74.21875 31.78125 74.21875 
z
" id="DejaVuSans-48"/>
      </defs>
      <g transform="translate(56.885841 324.678437)scale(0.1 -0.1)">
       <use xlink:href="#DejaVuSans-48"/>
      </g>
     </g>
    </g>
    <g id="xtick_2">
     <g id="line2d_2">
      <g>
       <use style="stroke:#000000;stroke-width:0.8;" x="104.990819" xlink:href="#me30869c477" y="310.08"/>
      </g>
     </g>
     <g id="text_2">
      <!-- 1 -->
      <defs>
       <path d="M 12.40625 8.296875 
L 28.515625 8.296875 
L 28.515625 63.921875 
L 10.984375 60.40625 
L 10.984375 69.390625 
L 28.421875 72.90625 
L 38.28125 72.90625 
L 38.28125 8.296875 
L 54.390625 8.296875 
L 54.390625 0 
L 12.40625 0 
z
" id="DejaVuSans-49"/>
      </defs>
      <g transform="translate(101.809569 324.678437)scale(0.1 -0.1)">
       <use xlink:href="#DejaVuSans-49"/>
      </g>
     </g>
    </g>
    <g id="xtick_3">
     <g id="line2d_3">
      <g>
       <use style="stroke:#000000;stroke-width:0.8;" x="149.914547" xlink:href="#me30869c477" y="310.08"/>
      </g>
     </g>
     <g id="text_3">
      <!-- 2 -->
      <defs>
       <path d="M 19.1875 8.296875 
L 53.609375 8.296875 
L 53.609375 0 
L 7.328125 0 
L 7.328125 8.296875 
Q 12.9375 14.109375 22.625 23.890625 
Q 32.328125 33.6875 34.8125 36.53125 
Q 39.546875 41.84375 41.421875 45.53125 
Q 43.3125 49.21875 43.3125 52.78125 
Q 43.3125 58.59375 39.234375 62.25 
Q 35.15625 65.921875 28.609375 65.921875 
Q 23.96875 65.921875 18.8125 64.3125 
Q 13.671875 62.703125 7.8125 59.421875 
L 7.8125 69.390625 
Q 13.765625 71.78125 18.9375 73 
Q 24.125 74.21875 28.421875 74.21875 
Q 39.75 74.21875 46.484375 68.546875 
Q 53.21875 62.890625 53.21875 53.421875 
Q 53.21875 48.921875 51.53125 44.890625 
Q 49.859375 40.875 45.40625 35.40625 
Q 44.1875 33.984375 37.640625 27.21875 
Q 31.109375 20.453125 19.1875 8.296875 
z
" id="DejaVuSans-50"/>
      </defs>
      <g transform="translate(146.733297 324.678437)scale(0.1 -0.1)">
       <use xlink:href="#DejaVuSans-50"/>
      </g>
     </g>
    </g>
    <g id="xtick_4">
     <g id="line2d_4">
      <g>
       <use style="stroke:#000000;stroke-width:0.8;" x="194.838275" xlink:href="#me30869c477" y="310.08"/>
      </g>
     </g>
     <g id="text_4">
      <!-- 3 -->
      <defs>
       <path d="M 40.578125 39.3125 
Q 47.65625 37.796875 51.625 33 
Q 55.609375 28.21875 55.609375 21.1875 
Q 55.609375 10.40625 48.1875 4.484375 
Q 40.765625 -1.421875 27.09375 -1.421875 
Q 22.515625 -1.421875 17.65625 -0.515625 
Q 12.796875 0.390625 7.625 2.203125 
L 7.625 11.71875 
Q 11.71875 9.328125 16.59375 8.109375 
Q 21.484375 6.890625 26.8125 6.890625 
Q 36.078125 6.890625 40.9375 10.546875 
Q 45.796875 14.203125 45.796875 21.1875 
Q 45.796875 27.640625 41.28125 31.265625 
Q 36.765625 34.90625 28.71875 34.90625 
L 20.21875 34.90625 
L 20.21875 43.015625 
L 29.109375 43.015625 
Q 36.375 43.015625 40.234375 45.921875 
Q 44.09375 48.828125 44.09375 54.296875 
Q 44.09375 59.90625 40.109375 62.90625 
Q 36.140625 65.921875 28.71875 65.921875 
Q 24.65625 65.921875 20.015625 65.03125 
Q 15.375 64.15625 9.8125 62.3125 
L 9.8125 71.09375 
Q 15.4375 72.65625 20.34375 73.4375 
Q 25.25 74.21875 29.59375 74.21875 
Q 40.828125 74.21875 47.359375 69.109375 
Q 53.90625 64.015625 53.90625 55.328125 
Q 53.90625 49.265625 50.4375 45.09375 
Q 46.96875 40.921875 40.578125 39.3125 
z
" id="DejaVuSans-51"/>
      </defs>
      <g transform="translate(191.657025 324.678437)scale(0.1 -0.1)">
       <use xlink:href="#DejaVuSans-51"/>
      </g>
     </g>
    </g>
    <g id="xtick_5">
     <g id="line2d_5">
      <g>
       <use style="stroke:#000000;stroke-width:0.8;" x="239.762003" xlink:href="#me30869c477" y="310.08"/>
      </g>
     </g>
     <g id="text_5">
      <!-- 4 -->
      <defs>
       <path d="M 37.796875 64.3125 
L 12.890625 25.390625 
L 37.796875 25.390625 
z
M 35.203125 72.90625 
L 47.609375 72.90625 
L 47.609375 25.390625 
L 58.015625 25.390625 
L 58.015625 17.1875 
L 47.609375 17.1875 
L 47.609375 0 
L 37.796875 0 
L 37.796875 17.1875 
L 4.890625 17.1875 
L 4.890625 26.703125 
z
" id="DejaVuSans-52"/>
      </defs>
      <g transform="translate(236.580753 324.678437)scale(0.1 -0.1)">
       <use xlink:href="#DejaVuSans-52"/>
      </g>
     </g>
    </g>
    <g id="xtick_6">
     <g id="line2d_6">
      <g>
       <use style="stroke:#000000;stroke-width:0.8;" x="284.685731" xlink:href="#me30869c477" y="310.08"/>
      </g>
     </g>
     <g id="text_6">
      <!-- 5 -->
      <defs>
       <path d="M 10.796875 72.90625 
L 49.515625 72.90625 
L 49.515625 64.59375 
L 19.828125 64.59375 
L 19.828125 46.734375 
Q 21.96875 47.46875 24.109375 47.828125 
Q 26.265625 48.1875 28.421875 48.1875 
Q 40.625 48.1875 47.75 41.5 
Q 54.890625 34.8125 54.890625 23.390625 
Q 54.890625 11.625 47.5625 5.09375 
Q 40.234375 -1.421875 26.90625 -1.421875 
Q 22.3125 -1.421875 17.546875 -0.640625 
Q 12.796875 0.140625 7.71875 1.703125 
L 7.71875 11.625 
Q 12.109375 9.234375 16.796875 8.0625 
Q 21.484375 6.890625 26.703125 6.890625 
Q 35.15625 6.890625 40.078125 11.328125 
Q 45.015625 15.765625 45.015625 23.390625 
Q 45.015625 31 40.078125 35.4375 
Q 35.15625 39.890625 26.703125 39.890625 
Q 22.75 39.890625 18.8125 39.015625 
Q 14.890625 38.140625 10.796875 36.28125 
z
" id="DejaVuSans-53"/>
      </defs>
      <g transform="translate(281.504481 324.678437)scale(0.1 -0.1)">
       <use xlink:href="#DejaVuSans-53"/>
      </g>
     </g>
    </g>
    <g id="xtick_7">
     <g id="line2d_7">
      <g>
       <use style="stroke:#000000;stroke-width:0.8;" x="329.609459" xlink:href="#me30869c477" y="310.08"/>
      </g>
     </g>
     <g id="text_7">
      <!-- 6 -->
      <defs>
       <path d="M 33.015625 40.375 
Q 26.375 40.375 22.484375 35.828125 
Q 18.609375 31.296875 18.609375 23.390625 
Q 18.609375 15.53125 22.484375 10.953125 
Q 26.375 6.390625 33.015625 6.390625 
Q 39.65625 6.390625 43.53125 10.953125 
Q 47.40625 15.53125 47.40625 23.390625 
Q 47.40625 31.296875 43.53125 35.828125 
Q 39.65625 40.375 33.015625 40.375 
z
M 52.59375 71.296875 
L 52.59375 62.3125 
Q 48.875 64.0625 45.09375 64.984375 
Q 41.3125 65.921875 37.59375 65.921875 
Q 27.828125 65.921875 22.671875 59.328125 
Q 17.53125 52.734375 16.796875 39.40625 
Q 19.671875 43.65625 24.015625 45.921875 
Q 28.375 48.1875 33.59375 48.1875 
Q 44.578125 48.1875 50.953125 41.515625 
Q 57.328125 34.859375 57.328125 23.390625 
Q 57.328125 12.15625 50.6875 5.359375 
Q 44.046875 -1.421875 33.015625 -1.421875 
Q 20.359375 -1.421875 13.671875 8.265625 
Q 6.984375 17.96875 6.984375 36.375 
Q 6.984375 53.65625 15.1875 63.9375 
Q 23.390625 74.21875 37.203125 74.21875 
Q 40.921875 74.21875 44.703125 73.484375 
Q 48.484375 72.75 52.59375 71.296875 
z
" id="DejaVuSans-54"/>
      </defs>
      <g transform="translate(326.428209 324.678437)scale(0.1 -0.1)">
       <use xlink:href="#DejaVuSans-54"/>
      </g>
     </g>
    </g>
    <g id="xtick_8">
     <g id="line2d_8">
      <g>
       <use style="stroke:#000000;stroke-width:0.8;" x="374.533187" xlink:href="#me30869c477" y="310.08"/>
      </g>
     </g>
     <g id="text_8">
      <!-- 7 -->
      <defs>
       <path d="M 8.203125 72.90625 
L 55.078125 72.90625 
L 55.078125 68.703125 
L 28.609375 0 
L 18.3125 0 
L 43.21875 64.59375 
L 8.203125 64.59375 
z
" id="DejaVuSans-55"/>
      </defs>
      <g transform="translate(371.351937 324.678437)scale(0.1 -0.1)">
       <use xlink:href="#DejaVuSans-55"/>
      </g>
     </g>
    </g>
    <g id="text_9">
     <!-- time [s] -->
     <defs>
      <path d="M 18.3125 70.21875 
L 18.3125 54.6875 
L 36.8125 54.6875 
L 36.8125 47.703125 
L 18.3125 47.703125 
L 18.3125 18.015625 
Q 18.3125 11.328125 20.140625 9.421875 
Q 21.96875 7.515625 27.59375 7.515625 
L 36.8125 7.515625 
L 36.8125 0 
L 27.59375 0 
Q 17.1875 0 13.234375 3.875 
Q 9.28125 7.765625 9.28125 18.015625 
L 9.28125 47.703125 
L 2.6875 47.703125 
L 2.6875 54.6875 
L 9.28125 54.6875 
L 9.28125 70.21875 
z
" id="DejaVuSans-116"/>
      <path d="M 9.421875 54.6875 
L 18.40625 54.6875 
L 18.40625 0 
L 9.421875 0 
z
M 9.421875 75.984375 
L 18.40625 75.984375 
L 18.40625 64.59375 
L 9.421875 64.59375 
z
" id="DejaVuSans-105"/>
      <path d="M 52 44.1875 
Q 55.375 50.25 60.0625 53.125 
Q 64.75 56 71.09375 56 
Q 79.640625 56 84.28125 50.015625 
Q 88.921875 44.046875 88.921875 33.015625 
L 88.921875 0 
L 79.890625 0 
L 79.890625 32.71875 
Q 79.890625 40.578125 77.09375 44.375 
Q 74.3125 48.1875 68.609375 48.1875 
Q 61.625 48.1875 57.5625 43.546875 
Q 53.515625 38.921875 53.515625 30.90625 
L 53.515625 0 
L 44.484375 0 
L 44.484375 32.71875 
Q 44.484375 40.625 41.703125 44.40625 
Q 38.921875 48.1875 33.109375 48.1875 
Q 26.21875 48.1875 22.15625 43.53125 
Q 18.109375 38.875 18.109375 30.90625 
L 18.109375 0 
L 9.078125 0 
L 9.078125 54.6875 
L 18.109375 54.6875 
L 18.109375 46.1875 
Q 21.1875 51.21875 25.484375 53.609375 
Q 29.78125 56 35.6875 56 
Q 41.65625 56 45.828125 52.96875 
Q 50 49.953125 52 44.1875 
z
" id="DejaVuSans-109"/>
      <path d="M 56.203125 29.59375 
L 56.203125 25.203125 
L 14.890625 25.203125 
Q 15.484375 15.921875 20.484375 11.0625 
Q 25.484375 6.203125 34.421875 6.203125 
Q 39.59375 6.203125 44.453125 7.46875 
Q 49.3125 8.734375 54.109375 11.28125 
L 54.109375 2.78125 
Q 49.265625 0.734375 44.1875 -0.34375 
Q 39.109375 -1.421875 33.890625 -1.421875 
Q 20.796875 -1.421875 13.15625 6.1875 
Q 5.515625 13.8125 5.515625 26.8125 
Q 5.515625 40.234375 12.765625 48.109375 
Q 20.015625 56 32.328125 56 
Q 43.359375 56 49.78125 48.890625 
Q 56.203125 41.796875 56.203125 29.59375 
z
M 47.21875 32.234375 
Q 47.125 39.59375 43.09375 43.984375 
Q 39.0625 48.390625 32.421875 48.390625 
Q 24.90625 48.390625 20.390625 44.140625 
Q 15.875 39.890625 15.1875 32.171875 
z
" id="DejaVuSans-101"/>
      <path id="DejaVuSans-32"/>
      <path d="M 8.59375 75.984375 
L 29.296875 75.984375 
L 29.296875 69 
L 17.578125 69 
L 17.578125 -6.203125 
L 29.296875 -6.203125 
L 29.296875 -13.1875 
L 8.59375 -13.1875 
z
" id="DejaVuSans-91"/>
      <path d="M 44.28125 53.078125 
L 44.28125 44.578125 
Q 40.484375 46.53125 36.375 47.5 
Q 32.28125 48.484375 27.875 48.484375 
Q 21.1875 48.484375 17.84375 46.4375 
Q 14.5 44.390625 14.5 40.28125 
Q 14.5 37.15625 16.890625 35.375 
Q 19.28125 33.59375 26.515625 31.984375 
L 29.59375 31.296875 
Q 39.15625 29.25 43.1875 25.515625 
Q 47.21875 21.78125 47.21875 15.09375 
Q 47.21875 7.46875 41.1875 3.015625 
Q 35.15625 -1.421875 24.609375 -1.421875 
Q 20.21875 -1.421875 15.453125 -0.5625 
Q 10.6875 0.296875 5.421875 2 
L 5.421875 11.28125 
Q 10.40625 8.6875 15.234375 7.390625 
Q 20.0625 6.109375 24.8125 6.109375 
Q 31.15625 6.109375 34.5625 8.28125 
Q 37.984375 10.453125 37.984375 14.40625 
Q 37.984375 18.0625 35.515625 20.015625 
Q 33.0625 21.96875 24.703125 23.78125 
L 21.578125 24.515625 
Q 13.234375 26.265625 9.515625 29.90625 
Q 5.8125 33.546875 5.8125 39.890625 
Q 5.8125 47.609375 11.28125 51.796875 
Q 16.75 56 26.8125 56 
Q 31.78125 56 36.171875 55.265625 
Q 40.578125 54.546875 44.28125 53.078125 
z
" id="DejaVuSans-115"/>
      <path d="M 30.421875 75.984375 
L 30.421875 -13.1875 
L 9.71875 -13.1875 
L 9.71875 -6.203125 
L 21.390625 -6.203125 
L 21.390625 69 
L 9.71875 69 
L 9.71875 75.984375 
z
" id="DejaVuSans-93"/>
     </defs>
     <g transform="translate(200.535165 338.356562)scale(0.1 -0.1)">
      <use xlink:href="#DejaVuSans-116"/>
      <use x="39.208984" xlink:href="#DejaVuSans-105"/>
      <use x="66.992188" xlink:href="#DejaVuSans-109"/>
      <use x="164.404297" xlink:href="#DejaVuSans-101"/>
      <use x="225.927734" xlink:href="#DejaVuSans-32"/>
      <use x="257.714844" xlink:href="#DejaVuSans-91"/>
      <use x="296.728516" xlink:href="#DejaVuSans-115"/>
      <use x="348.828125" xlink:href="#DejaVuSans-93"/>
     </g>
    </g>
   </g>
   <g id="matplotlib.axis_2">
    <g id="ytick_1">
     <g id="line2d_9">
      <defs>
       <path d="M 0 0 
L -3.5 0 
" id="mbac9048dbc" style="stroke:#000000;stroke-width:0.8;"/>
      </defs>
      <g>
       <use style="stroke:#000000;stroke-width:0.8;" x="44.081143" xlink:href="#mbac9048dbc" y="303.790163"/>
      </g>
     </g>
     <g id="text_10">
      <!-- −40 -->
      <defs>
       <path d="M 10.59375 35.5 
L 73.1875 35.5 
L 73.1875 27.203125 
L 10.59375 27.203125 
z
" id="DejaVuSans-8722"/>
      </defs>
      <g transform="translate(15.976455 307.589381)scale(0.1 -0.1)">
       <use xlink:href="#DejaVuSans-8722"/>
       <use x="83.789062" xlink:href="#DejaVuSans-52"/>
       <use x="147.412109" xlink:href="#DejaVuSans-48"/>
      </g>
     </g>
    </g>
    <g id="ytick_2">
     <g id="line2d_10">
      <g>
       <use style="stroke:#000000;stroke-width:0.8;" x="44.081143" xlink:href="#mbac9048dbc" y="268.846622"/>
      </g>
     </g>
     <g id="text_11">
      <!-- −30 -->
      <g transform="translate(15.976455 272.645841)scale(0.1 -0.1)">
       <use xlink:href="#DejaVuSans-8722"/>
       <use x="83.789062" xlink:href="#DejaVuSans-51"/>
       <use x="147.412109" xlink:href="#DejaVuSans-48"/>
      </g>
     </g>
    </g>
    <g id="ytick_3">
     <g id="line2d_11">
      <g>
       <use style="stroke:#000000;stroke-width:0.8;" x="44.081143" xlink:href="#mbac9048dbc" y="233.903081"/>
      </g>
     </g>
     <g id="text_12">
      <!-- −20 -->
      <g transform="translate(15.976455 237.7023)scale(0.1 -0.1)">
       <use xlink:href="#DejaVuSans-8722"/>
       <use x="83.789062" xlink:href="#DejaVuSans-50"/>
       <use x="147.412109" xlink:href="#DejaVuSans-48"/>
      </g>
     </g>
    </g>
    <g id="ytick_4">
     <g id="line2d_12">
      <g>
       <use style="stroke:#000000;stroke-width:0.8;" x="44.081143" xlink:href="#mbac9048dbc" y="198.959541"/>
      </g>
     </g>
     <g id="text_13">
      <!-- −10 -->
      <g transform="translate(15.976455 202.758759)scale(0.1 -0.1)">
       <use xlink:href="#DejaVuSans-8722"/>
       <use x="83.789062" xlink:href="#DejaVuSans-49"/>
       <use x="147.412109" xlink:href="#DejaVuSans-48"/>
      </g>
     </g>
    </g>
    <g id="ytick_5">
     <g id="line2d_13">
      <g>
       <use style="stroke:#000000;stroke-width:0.8;" x="44.081143" xlink:href="#mbac9048dbc" y="164.016"/>
      </g>
     </g>
     <g id="text_14">
      <!-- 0 -->
      <g transform="translate(30.718643 167.815219)scale(0.1 -0.1)">
       <use xlink:href="#DejaVuSans-48"/>
      </g>
     </g>
    </g>
    <g id="ytick_6">
     <g id="line2d_14">
      <g>
       <use style="stroke:#000000;stroke-width:0.8;" x="44.081143" xlink:href="#mbac9048dbc" y="129.072459"/>
      </g>
     </g>
     <g id="text_15">
      <!-- 10 -->
      <g transform="translate(24.356143 132.871678)scale(0.1 -0.1)">
       <use xlink:href="#DejaVuSans-49"/>
       <use x="63.623047" xlink:href="#DejaVuSans-48"/>
      </g>
     </g>
    </g>
    <g id="ytick_7">
     <g id="line2d_15">
      <g>
       <use style="stroke:#000000;stroke-width:0.8;" x="44.081143" xlink:href="#mbac9048dbc" y="94.128919"/>
      </g>
     </g>
     <g id="text_16">
      <!-- 20 -->
      <g transform="translate(24.356143 97.928137)scale(0.1 -0.1)">
       <use xlink:href="#DejaVuSans-50"/>
       <use x="63.623047" xlink:href="#DejaVuSans-48"/>
      </g>
     </g>
    </g>
    <g id="ytick_8">
     <g id="line2d_16">
      <g>
       <use style="stroke:#000000;stroke-width:0.8;" x="44.081143" xlink:href="#mbac9048dbc" y="59.185378"/>
      </g>
     </g>
     <g id="text_17">
      <!-- 30 -->
      <g transform="translate(24.356143 62.984597)scale(0.1 -0.1)">
       <use xlink:href="#DejaVuSans-51"/>
       <use x="63.623047" xlink:href="#DejaVuSans-48"/>
      </g>
     </g>
    </g>
    <g id="ytick_9">
     <g id="line2d_17">
      <g>
       <use style="stroke:#000000;stroke-width:0.8;" x="44.081143" xlink:href="#mbac9048dbc" y="24.241837"/>
      </g>
     </g>
     <g id="text_18">
      <!-- 40 -->
      <g transform="translate(24.356143 28.041056)scale(0.1 -0.1)">
       <use xlink:href="#DejaVuSans-52"/>
       <use x="63.623047" xlink:href="#DejaVuSans-48"/>
      </g>
     </g>
    </g>
    <g id="text_19">
     <!-- angle [deg] -->
     <defs>
      <path d="M 34.28125 27.484375 
Q 23.390625 27.484375 19.1875 25 
Q 14.984375 22.515625 14.984375 16.5 
Q 14.984375 11.71875 18.140625 8.90625 
Q 21.296875 6.109375 26.703125 6.109375 
Q 34.1875 6.109375 38.703125 11.40625 
Q 43.21875 16.703125 43.21875 25.484375 
L 43.21875 27.484375 
z
M 52.203125 31.203125 
L 52.203125 0 
L 43.21875 0 
L 43.21875 8.296875 
Q 40.140625 3.328125 35.546875 0.953125 
Q 30.953125 -1.421875 24.3125 -1.421875 
Q 15.921875 -1.421875 10.953125 3.296875 
Q 6 8.015625 6 15.921875 
Q 6 25.140625 12.171875 29.828125 
Q 18.359375 34.515625 30.609375 34.515625 
L 43.21875 34.515625 
L 43.21875 35.40625 
Q 43.21875 41.609375 39.140625 45 
Q 35.0625 48.390625 27.6875 48.390625 
Q 23 48.390625 18.546875 47.265625 
Q 14.109375 46.140625 10.015625 43.890625 
L 10.015625 52.203125 
Q 14.9375 54.109375 19.578125 55.046875 
Q 24.21875 56 28.609375 56 
Q 40.484375 56 46.34375 49.84375 
Q 52.203125 43.703125 52.203125 31.203125 
z
" id="DejaVuSans-97"/>
      <path d="M 54.890625 33.015625 
L 54.890625 0 
L 45.90625 0 
L 45.90625 32.71875 
Q 45.90625 40.484375 42.875 44.328125 
Q 39.84375 48.1875 33.796875 48.1875 
Q 26.515625 48.1875 22.3125 43.546875 
Q 18.109375 38.921875 18.109375 30.90625 
L 18.109375 0 
L 9.078125 0 
L 9.078125 54.6875 
L 18.109375 54.6875 
L 18.109375 46.1875 
Q 21.34375 51.125 25.703125 53.5625 
Q 30.078125 56 35.796875 56 
Q 45.21875 56 50.046875 50.171875 
Q 54.890625 44.34375 54.890625 33.015625 
z
" id="DejaVuSans-110"/>
      <path d="M 45.40625 27.984375 
Q 45.40625 37.75 41.375 43.109375 
Q 37.359375 48.484375 30.078125 48.484375 
Q 22.859375 48.484375 18.828125 43.109375 
Q 14.796875 37.75 14.796875 27.984375 
Q 14.796875 18.265625 18.828125 12.890625 
Q 22.859375 7.515625 30.078125 7.515625 
Q 37.359375 7.515625 41.375 12.890625 
Q 45.40625 18.265625 45.40625 27.984375 
z
M 54.390625 6.78125 
Q 54.390625 -7.171875 48.1875 -13.984375 
Q 42 -20.796875 29.203125 -20.796875 
Q 24.46875 -20.796875 20.265625 -20.09375 
Q 16.0625 -19.390625 12.109375 -17.921875 
L 12.109375 -9.1875 
Q 16.0625 -11.328125 19.921875 -12.34375 
Q 23.78125 -13.375 27.78125 -13.375 
Q 36.625 -13.375 41.015625 -8.765625 
Q 45.40625 -4.15625 45.40625 5.171875 
L 45.40625 9.625 
Q 42.625 4.78125 38.28125 2.390625 
Q 33.9375 0 27.875 0 
Q 17.828125 0 11.671875 7.65625 
Q 5.515625 15.328125 5.515625 27.984375 
Q 5.515625 40.671875 11.671875 48.328125 
Q 17.828125 56 27.875 56 
Q 33.9375 56 38.28125 53.609375 
Q 42.625 51.21875 45.40625 46.390625 
L 45.40625 54.6875 
L 54.390625 54.6875 
z
" id="DejaVuSans-103"/>
      <path d="M 9.421875 75.984375 
L 18.40625 75.984375 
L 18.40625 0 
L 9.421875 0 
z
" id="DejaVuSans-108"/>
      <path d="M 45.40625 46.390625 
L 45.40625 75.984375 
L 54.390625 75.984375 
L 54.390625 0 
L 45.40625 0 
L 45.40625 8.203125 
Q 42.578125 3.328125 38.25 0.953125 
Q 33.9375 -1.421875 27.875 -1.421875 
Q 17.96875 -1.421875 11.734375 6.484375 
Q 5.515625 14.40625 5.515625 27.296875 
Q 5.515625 40.1875 11.734375 48.09375 
Q 17.96875 56 27.875 56 
Q 33.9375 56 38.25 53.625 
Q 42.578125 51.265625 45.40625 46.390625 
z
M 14.796875 27.296875 
Q 14.796875 17.390625 18.875 11.75 
Q 22.953125 6.109375 30.078125 6.109375 
Q 37.203125 6.109375 41.296875 11.75 
Q 45.40625 17.390625 45.40625 27.296875 
Q 45.40625 37.203125 41.296875 42.84375 
Q 37.203125 48.484375 30.078125 48.484375 
Q 22.953125 48.484375 18.875 42.84375 
Q 14.796875 37.203125 14.796875 27.296875 
z
" id="DejaVuSans-100"/>
     </defs>
     <g transform="translate(9.896768 192.804281)rotate(-90)scale(0.1 -0.1)">
      <use xlink:href="#DejaVuSans-97"/>
      <use x="61.279297" xlink:href="#DejaVuSans-110"/>
      <use x="124.658203" xlink:href="#DejaVuSans-103"/>
      <use x="188.134766" xlink:href="#DejaVuSans-108"/>
      <use x="215.917969" xlink:href="#DejaVuSans-101"/>
      <use x="277.441406" xlink:href="#DejaVuSans-32"/>
      <use x="309.228516" xlink:href="#DejaVuSans-91"/>
      <use x="348.242188" xlink:href="#DejaVuSans-100"/>
      <use x="411.71875" xlink:href="#DejaVuSans-101"/>
      <use x="473.242188" xlink:href="#DejaVuSans-103"/>
      <use x="536.71875" xlink:href="#DejaVuSans-93"/>
     </g>
    </g>
   </g>
   <g id="line2d_18">
    <path clip-path="url(#p9f337859a8)" d="M 44.081143 31.230545 
L 403.48 31.230545 
" style="fill:none;stroke:#000000;stroke-linecap:square;stroke-width:1.5;"/>
   </g>
   <g id="line2d_19">
    <path clip-path="url(#p9f337859a8)" d="M 44.081143 296.801455 
L 403.48 296.801455 
" style="fill:none;stroke:#000000;stroke-linecap:square;stroke-width:1.5;"/>
   </g>
   <g id="patch_3">
    <path d="M 44.081143 310.08 
L 44.081143 17.952 
" style="fill:none;stroke:#000000;stroke-linecap:square;stroke-linejoin:miter;stroke-width:0.8;"/>
   </g>
   <g id="patch_4">
    <path d="M 395.772 310.08 
L 395.772 17.952 
" style="fill:none;stroke:#000000;stroke-linecap:square;stroke-linejoin:miter;stroke-width:0.8;"/>
   </g>
   <g id="patch_5">
    <path d="M 44.081143 310.08 
L 395.772 310.08 
" style="fill:none;stroke:#000000;stroke-linecap:square;stroke-linejoin:miter;stroke-width:0.8;"/>
   </g>
   <g id="patch_6">
    <path d="M 44.081143 17.952 
L 395.772 17.952 
" style="fill:none;stroke:#000000;stroke-linecap:square;stroke-linejoin:miter;stroke-width:0.8;"/>
   </g>
   <g id="text_20">
    <!-- Bag 41 -->
    <defs>
     <path d="M 19.671875 34.8125 
L 19.671875 8.109375 
L 35.5 8.109375 
Q 43.453125 8.109375 47.28125 11.40625 
Q 51.125 14.703125 51.125 21.484375 
Q 51.125 28.328125 47.28125 31.5625 
Q 43.453125 34.8125 35.5 34.8125 
z
M 19.671875 64.796875 
L 19.671875 42.828125 
L 34.28125 42.828125 
Q 41.5 42.828125 45.03125 45.53125 
Q 48.578125 48.25 48.578125 53.8125 
Q 48.578125 59.328125 45.03125 62.0625 
Q 41.5 64.796875 34.28125 64.796875 
z
M 9.8125 72.90625 
L 35.015625 72.90625 
Q 46.296875 72.90625 52.390625 68.21875 
Q 58.5 63.53125 58.5 54.890625 
Q 58.5 48.1875 55.375 44.234375 
Q 52.25 40.28125 46.1875 39.3125 
Q 53.46875 37.75 57.5 32.78125 
Q 61.53125 27.828125 61.53125 20.40625 
Q 61.53125 10.640625 54.890625 5.3125 
Q 48.25 0 35.984375 0 
L 9.8125 0 
z
" id="DejaVuSans-66"/>
    </defs>
    <g transform="translate(198.782196 11.952)scale(0.12 -0.12)">
     <use xlink:href="#DejaVuSans-66"/>
     <use x="68.603516" xlink:href="#DejaVuSans-97"/>
     <use x="129.882812" xlink:href="#DejaVuSans-103"/>
     <use x="193.359375" xlink:href="#DejaVuSans-32"/>
     <use x="225.146484" xlink:href="#DejaVuSans-52"/>
     <use x="288.769531" xlink:href="#DejaVuSans-49"/>
    </g>
   </g>
   <g id="legend_1">
    <g id="patch_7">
     <path d="M 51.081143 55.30825 
L 129.44833 55.30825 
Q 131.44833 55.30825 131.44833 53.30825 
L 131.44833 24.952 
Q 131.44833 22.952 129.44833 22.952 
L 51.081143 22.952 
Q 49.081143 22.952 49.081143 24.952 
L 49.081143 53.30825 
Q 49.081143 55.30825 51.081143 55.30825 
z
" style="fill:#ffffff;opacity:0.8;stroke:#cccccc;stroke-linejoin:miter;"/>
    </g>
    <g id="PathCollection_3">
     <g>
      <use style="fill:#1f77b4;stroke:#1f77b4;" x="63.081143" xlink:href="#ma661d01a48" y="31.925437"/>
     </g>
    </g>
    <g id="text_21">
     <!-- Radar -->
     <defs>
      <path d="M 44.390625 34.1875 
Q 47.5625 33.109375 50.5625 29.59375 
Q 53.5625 26.078125 56.59375 19.921875 
L 66.609375 0 
L 56 0 
L 46.6875 18.703125 
Q 43.0625 26.03125 39.671875 28.421875 
Q 36.28125 30.8125 30.421875 30.8125 
L 19.671875 30.8125 
L 19.671875 0 
L 9.8125 0 
L 9.8125 72.90625 
L 32.078125 72.90625 
Q 44.578125 72.90625 50.734375 67.671875 
Q 56.890625 62.453125 56.890625 51.90625 
Q 56.890625 45.015625 53.6875 40.46875 
Q 50.484375 35.9375 44.390625 34.1875 
z
M 19.671875 64.796875 
L 19.671875 38.921875 
L 32.078125 38.921875 
Q 39.203125 38.921875 42.84375 42.21875 
Q 46.484375 45.515625 46.484375 51.90625 
Q 46.484375 58.296875 42.84375 61.546875 
Q 39.203125 64.796875 32.078125 64.796875 
z
" id="DejaVuSans-82"/>
      <path d="M 41.109375 46.296875 
Q 39.59375 47.171875 37.8125 47.578125 
Q 36.03125 48 33.890625 48 
Q 26.265625 48 22.1875 43.046875 
Q 18.109375 38.09375 18.109375 28.8125 
L 18.109375 0 
L 9.078125 0 
L 9.078125 54.6875 
L 18.109375 54.6875 
L 18.109375 46.1875 
Q 20.953125 51.171875 25.484375 53.578125 
Q 30.03125 56 36.53125 56 
Q 37.453125 56 38.578125 55.875 
Q 39.703125 55.765625 41.0625 55.515625 
z
" id="DejaVuSans-114"/>
     </defs>
     <g transform="translate(81.081143 34.550437)scale(0.1 -0.1)">
      <use xlink:href="#DejaVuSans-82"/>
      <use x="67.232422" xlink:href="#DejaVuSans-97"/>
      <use x="128.511719" xlink:href="#DejaVuSans-100"/>
      <use x="191.988281" xlink:href="#DejaVuSans-97"/>
      <use x="253.267578" xlink:href="#DejaVuSans-114"/>
     </g>
    </g>
    <g id="PathCollection_4">
     <g>
      <use style="fill:#ff7f0e;stroke:#ff7f0e;" x="63.081143" xlink:href="#m630c856b8f" y="46.603563"/>
     </g>
    </g>
    <g id="text_22">
     <!-- Optitrack -->
     <defs>
      <path d="M 39.40625 66.21875 
Q 28.65625 66.21875 22.328125 58.203125 
Q 16.015625 50.203125 16.015625 36.375 
Q 16.015625 22.609375 22.328125 14.59375 
Q 28.65625 6.59375 39.40625 6.59375 
Q 50.140625 6.59375 56.421875 14.59375 
Q 62.703125 22.609375 62.703125 36.375 
Q 62.703125 50.203125 56.421875 58.203125 
Q 50.140625 66.21875 39.40625 66.21875 
z
M 39.40625 74.21875 
Q 54.734375 74.21875 63.90625 63.9375 
Q 73.09375 53.65625 73.09375 36.375 
Q 73.09375 19.140625 63.90625 8.859375 
Q 54.734375 -1.421875 39.40625 -1.421875 
Q 24.03125 -1.421875 14.8125 8.828125 
Q 5.609375 19.09375 5.609375 36.375 
Q 5.609375 53.65625 14.8125 63.9375 
Q 24.03125 74.21875 39.40625 74.21875 
z
" id="DejaVuSans-79"/>
      <path d="M 18.109375 8.203125 
L 18.109375 -20.796875 
L 9.078125 -20.796875 
L 9.078125 54.6875 
L 18.109375 54.6875 
L 18.109375 46.390625 
Q 20.953125 51.265625 25.265625 53.625 
Q 29.59375 56 35.59375 56 
Q 45.5625 56 51.78125 48.09375 
Q 58.015625 40.1875 58.015625 27.296875 
Q 58.015625 14.40625 51.78125 6.484375 
Q 45.5625 -1.421875 35.59375 -1.421875 
Q 29.59375 -1.421875 25.265625 0.953125 
Q 20.953125 3.328125 18.109375 8.203125 
z
M 48.6875 27.296875 
Q 48.6875 37.203125 44.609375 42.84375 
Q 40.53125 48.484375 33.40625 48.484375 
Q 26.265625 48.484375 22.1875 42.84375 
Q 18.109375 37.203125 18.109375 27.296875 
Q 18.109375 17.390625 22.1875 11.75 
Q 26.265625 6.109375 33.40625 6.109375 
Q 40.53125 6.109375 44.609375 11.75 
Q 48.6875 17.390625 48.6875 27.296875 
z
" id="DejaVuSans-112"/>
      <path d="M 48.78125 52.59375 
L 48.78125 44.1875 
Q 44.96875 46.296875 41.140625 47.34375 
Q 37.3125 48.390625 33.40625 48.390625 
Q 24.65625 48.390625 19.8125 42.84375 
Q 14.984375 37.3125 14.984375 27.296875 
Q 14.984375 17.28125 19.8125 11.734375 
Q 24.65625 6.203125 33.40625 6.203125 
Q 37.3125 6.203125 41.140625 7.25 
Q 44.96875 8.296875 48.78125 10.40625 
L 48.78125 2.09375 
Q 45.015625 0.34375 40.984375 -0.53125 
Q 36.96875 -1.421875 32.421875 -1.421875 
Q 20.0625 -1.421875 12.78125 6.34375 
Q 5.515625 14.109375 5.515625 27.296875 
Q 5.515625 40.671875 12.859375 48.328125 
Q 20.21875 56 33.015625 56 
Q 37.15625 56 41.109375 55.140625 
Q 45.0625 54.296875 48.78125 52.59375 
z
" id="DejaVuSans-99"/>
      <path d="M 9.078125 75.984375 
L 18.109375 75.984375 
L 18.109375 31.109375 
L 44.921875 54.6875 
L 56.390625 54.6875 
L 27.390625 29.109375 
L 57.625 0 
L 45.90625 0 
L 18.109375 26.703125 
L 18.109375 0 
L 9.078125 0 
z
" id="DejaVuSans-107"/>
     </defs>
     <g transform="translate(81.081143 49.228563)scale(0.1 -0.1)">
      <use xlink:href="#DejaVuSans-79"/>
      <use x="78.710938" xlink:href="#DejaVuSans-112"/>
      <use x="142.1875" xlink:href="#DejaVuSans-116"/>
      <use x="181.396484" xlink:href="#DejaVuSans-105"/>
      <use x="209.179688" xlink:href="#DejaVuSans-116"/>
      <use x="248.388672" xlink:href="#DejaVuSans-114"/>
      <use x="289.501953" xlink:href="#DejaVuSans-97"/>
      <use x="350.78125" xlink:href="#DejaVuSans-99"/>
      <use x="405.761719" xlink:href="#DejaVuSans-107"/>
     </g>
    </g>
   </g>
  </g>
 </g>
 <defs>
  <clipPath id="p9f337859a8">
   <rect height="292.128" width="351.690857" x="44.081143" y="17.952"/>
  </clipPath>
 </defs>
</svg>
