<?xml version="1.0" encoding="utf-8" standalone="no"?>
<!DOCTYPE svg PUBLIC "-//W3C//DTD SVG 1.1//EN"
  "http://www.w3.org/Graphics/SVG/1.1/DTD/svg11.dtd">
<!-- Created with matplotlib (https://matplotlib.org/) -->
<svg height="345.6pt" version="1.1" viewBox="0 0 413.28 345.6" width="413.28pt" xmlns="http://www.w3.org/2000/svg" xmlns:xlink="http://www.w3.org/1999/xlink">
 <defs>
  <style type="text/css">
*{stroke-linecap:butt;stroke-linejoin:round;}
  </style>
 </defs>
 <g id="figure_1">
  <g id="patch_1">
   <path d="M 0 345.6 
L 413.28 345.6 
L 413.28 0 
L 0 0 
z
" style="fill:#ffffff;"/>
  </g>
  <g id="axes_1">
   <g id="patch_2">
    <path d="M 30.504 312.685714 
L 407.376 312.685714 
L 407.376 17.28 
L 30.504 17.28 
z
" style="fill:#ffffff;"/>
   </g>
   <g id="PathCollection_1">
    <defs>
     <path d="M 0 3 
C 0.795609 3 1.55874 2.683901 2.12132 2.12132 
C 2.683901 1.55874 3 0.795609 3 0 
C 3 -0.795609 2.683901 -1.55874 2.12132 -2.12132 
C 1.55874 -2.683901 0.795609 -3 0 -3 
C -0.795609 -3 -1.55874 -2.683901 -2.12132 -2.12132 
C -2.683901 -1.55874 -3 -0.795609 -3 0 
C -3 0.795609 -2.683901 1.55874 -2.12132 2.12132 
C -1.55874 2.683901 -0.795609 3 0 3 
z
" id="m65747722a2" style="stroke:#1f77b4;"/>
    </defs>
    <g clip-path="url(#p17b00d91c9)">
     <use style="fill:#1f77b4;stroke:#1f77b4;" x="47.634545" xlink:href="#m65747722a2" y="299.258182"/>
     <use style="fill:#1f77b4;stroke:#1f77b4;" x="50.777765" xlink:href="#m65747722a2" y="75.465974"/>
     <use style="fill:#1f77b4;stroke:#1f77b4;" x="53.920984" xlink:href="#m65747722a2" y="75.465974"/>
     <use style="fill:#1f77b4;stroke:#1f77b4;" x="57.064204" xlink:href="#m65747722a2" y="75.465974"/>
     <use style="fill:#1f77b4;stroke:#1f77b4;" x="60.207423" xlink:href="#m65747722a2" y="75.465974"/>
     <use style="fill:#1f77b4;stroke:#1f77b4;" x="63.350642" xlink:href="#m65747722a2" y="299.258182"/>
     <use style="fill:#1f77b4;stroke:#1f77b4;" x="66.493862" xlink:href="#m65747722a2" y="299.258182"/>
     <use style="fill:#1f77b4;stroke:#1f77b4;" x="69.637081" xlink:href="#m65747722a2" y="75.465974"/>
     <use style="fill:#1f77b4;stroke:#1f77b4;" x="72.7803" xlink:href="#m65747722a2" y="75.465974"/>
     <use style="fill:#1f77b4;stroke:#1f77b4;" x="75.92352" xlink:href="#m65747722a2" y="75.465974"/>
     <use style="fill:#1f77b4;stroke:#1f77b4;" x="79.066739" xlink:href="#m65747722a2" y="75.465974"/>
     <use style="fill:#1f77b4;stroke:#1f77b4;" x="82.209958" xlink:href="#m65747722a2" y="75.465974"/>
     <use style="fill:#1f77b4;stroke:#1f77b4;" x="85.353178" xlink:href="#m65747722a2" y="75.465974"/>
     <use style="fill:#1f77b4;stroke:#1f77b4;" x="88.496397" xlink:href="#m65747722a2" y="75.465974"/>
     <use style="fill:#1f77b4;stroke:#1f77b4;" x="91.639616" xlink:href="#m65747722a2" y="75.465974"/>
     <use style="fill:#1f77b4;stroke:#1f77b4;" x="94.782836" xlink:href="#m65747722a2" y="75.465974"/>
     <use style="fill:#1f77b4;stroke:#1f77b4;" x="97.926055" xlink:href="#m65747722a2" y="75.465974"/>
     <use style="fill:#1f77b4;stroke:#1f77b4;" x="101.069274" xlink:href="#m65747722a2" y="75.465974"/>
     <use style="fill:#1f77b4;stroke:#1f77b4;" x="104.212494" xlink:href="#m65747722a2" y="75.465974"/>
     <use style="fill:#1f77b4;stroke:#1f77b4;" x="107.355713" xlink:href="#m65747722a2" y="75.465974"/>
     <use style="fill:#1f77b4;stroke:#1f77b4;" x="110.498932" xlink:href="#m65747722a2" y="75.465974"/>
     <use style="fill:#1f77b4;stroke:#1f77b4;" x="113.642152" xlink:href="#m65747722a2" y="97.845195"/>
     <use style="fill:#1f77b4;stroke:#1f77b4;" x="116.785371" xlink:href="#m65747722a2" y="97.845195"/>
     <use style="fill:#1f77b4;stroke:#1f77b4;" x="119.92859" xlink:href="#m65747722a2" y="97.845195"/>
     <use style="fill:#1f77b4;stroke:#1f77b4;" x="123.07181" xlink:href="#m65747722a2" y="97.845195"/>
     <use style="fill:#1f77b4;stroke:#1f77b4;" x="126.215029" xlink:href="#m65747722a2" y="97.845195"/>
     <use style="fill:#1f77b4;stroke:#1f77b4;" x="129.358249" xlink:href="#m65747722a2" y="97.845195"/>
     <use style="fill:#1f77b4;stroke:#1f77b4;" x="132.501468" xlink:href="#m65747722a2" y="97.845195"/>
     <use style="fill:#1f77b4;stroke:#1f77b4;" x="135.644687" xlink:href="#m65747722a2" y="97.845195"/>
     <use style="fill:#1f77b4;stroke:#1f77b4;" x="138.787907" xlink:href="#m65747722a2" y="97.845195"/>
     <use style="fill:#1f77b4;stroke:#1f77b4;" x="141.931126" xlink:href="#m65747722a2" y="97.845195"/>
     <use style="fill:#1f77b4;stroke:#1f77b4;" x="145.074345" xlink:href="#m65747722a2" y="97.845195"/>
     <use style="fill:#1f77b4;stroke:#1f77b4;" x="148.217565" xlink:href="#m65747722a2" y="97.845195"/>
     <use style="fill:#1f77b4;stroke:#1f77b4;" x="151.360784" xlink:href="#m65747722a2" y="120.224416"/>
     <use style="fill:#1f77b4;stroke:#1f77b4;" x="154.504003" xlink:href="#m65747722a2" y="120.224416"/>
     <use style="fill:#1f77b4;stroke:#1f77b4;" x="157.647223" xlink:href="#m65747722a2" y="120.224416"/>
     <use style="fill:#1f77b4;stroke:#1f77b4;" x="160.790442" xlink:href="#m65747722a2" y="120.224416"/>
     <use style="fill:#1f77b4;stroke:#1f77b4;" x="163.933661" xlink:href="#m65747722a2" y="120.224416"/>
     <use style="fill:#1f77b4;stroke:#1f77b4;" x="167.076881" xlink:href="#m65747722a2" y="120.224416"/>
     <use style="fill:#1f77b4;stroke:#1f77b4;" x="170.2201" xlink:href="#m65747722a2" y="120.224416"/>
     <use style="fill:#1f77b4;stroke:#1f77b4;" x="173.363319" xlink:href="#m65747722a2" y="120.224416"/>
     <use style="fill:#1f77b4;stroke:#1f77b4;" x="176.506539" xlink:href="#m65747722a2" y="142.603636"/>
     <use style="fill:#1f77b4;stroke:#1f77b4;" x="179.649758" xlink:href="#m65747722a2" y="142.603636"/>
     <use style="fill:#1f77b4;stroke:#1f77b4;" x="182.792977" xlink:href="#m65747722a2" y="142.603636"/>
     <use style="fill:#1f77b4;stroke:#1f77b4;" x="185.936197" xlink:href="#m65747722a2" y="142.603636"/>
     <use style="fill:#1f77b4;stroke:#1f77b4;" x="189.079416" xlink:href="#m65747722a2" y="142.603636"/>
     <use style="fill:#1f77b4;stroke:#1f77b4;" x="192.222636" xlink:href="#m65747722a2" y="142.603636"/>
     <use style="fill:#1f77b4;stroke:#1f77b4;" x="195.365855" xlink:href="#m65747722a2" y="142.603636"/>
     <use style="fill:#1f77b4;stroke:#1f77b4;" x="198.509074" xlink:href="#m65747722a2" y="142.603636"/>
     <use style="fill:#1f77b4;stroke:#1f77b4;" x="201.652294" xlink:href="#m65747722a2" y="164.982857"/>
     <use style="fill:#1f77b4;stroke:#1f77b4;" x="204.795513" xlink:href="#m65747722a2" y="164.982857"/>
     <use style="fill:#1f77b4;stroke:#1f77b4;" x="207.938732" xlink:href="#m65747722a2" y="164.982857"/>
     <use style="fill:#1f77b4;stroke:#1f77b4;" x="211.081952" xlink:href="#m65747722a2" y="164.982857"/>
     <use style="fill:#1f77b4;stroke:#1f77b4;" x="214.225171" xlink:href="#m65747722a2" y="164.982857"/>
     <use style="fill:#1f77b4;stroke:#1f77b4;" x="217.36839" xlink:href="#m65747722a2" y="164.982857"/>
     <use style="fill:#1f77b4;stroke:#1f77b4;" x="220.51161" xlink:href="#m65747722a2" y="164.982857"/>
     <use style="fill:#1f77b4;stroke:#1f77b4;" x="223.654829" xlink:href="#m65747722a2" y="187.362078"/>
     <use style="fill:#1f77b4;stroke:#1f77b4;" x="226.798048" xlink:href="#m65747722a2" y="187.362078"/>
     <use style="fill:#1f77b4;stroke:#1f77b4;" x="229.941268" xlink:href="#m65747722a2" y="187.362078"/>
     <use style="fill:#1f77b4;stroke:#1f77b4;" x="233.084487" xlink:href="#m65747722a2" y="187.362078"/>
     <use style="fill:#1f77b4;stroke:#1f77b4;" x="236.227706" xlink:href="#m65747722a2" y="187.362078"/>
     <use style="fill:#1f77b4;stroke:#1f77b4;" x="239.370926" xlink:href="#m65747722a2" y="187.362078"/>
     <use style="fill:#1f77b4;stroke:#1f77b4;" x="242.514145" xlink:href="#m65747722a2" y="187.362078"/>
     <use style="fill:#1f77b4;stroke:#1f77b4;" x="245.657364" xlink:href="#m65747722a2" y="187.362078"/>
     <use style="fill:#1f77b4;stroke:#1f77b4;" x="248.800584" xlink:href="#m65747722a2" y="209.741299"/>
     <use style="fill:#1f77b4;stroke:#1f77b4;" x="251.943803" xlink:href="#m65747722a2" y="209.741299"/>
     <use style="fill:#1f77b4;stroke:#1f77b4;" x="255.087023" xlink:href="#m65747722a2" y="209.741299"/>
     <use style="fill:#1f77b4;stroke:#1f77b4;" x="258.230242" xlink:href="#m65747722a2" y="209.741299"/>
     <use style="fill:#1f77b4;stroke:#1f77b4;" x="261.373461" xlink:href="#m65747722a2" y="209.741299"/>
     <use style="fill:#1f77b4;stroke:#1f77b4;" x="264.516681" xlink:href="#m65747722a2" y="209.741299"/>
     <use style="fill:#1f77b4;stroke:#1f77b4;" x="267.6599" xlink:href="#m65747722a2" y="209.741299"/>
     <use style="fill:#1f77b4;stroke:#1f77b4;" x="270.803119" xlink:href="#m65747722a2" y="232.120519"/>
     <use style="fill:#1f77b4;stroke:#1f77b4;" x="273.946339" xlink:href="#m65747722a2" y="232.120519"/>
     <use style="fill:#1f77b4;stroke:#1f77b4;" x="277.089558" xlink:href="#m65747722a2" y="232.120519"/>
     <use style="fill:#1f77b4;stroke:#1f77b4;" x="280.232777" xlink:href="#m65747722a2" y="232.120519"/>
     <use style="fill:#1f77b4;stroke:#1f77b4;" x="283.375997" xlink:href="#m65747722a2" y="232.120519"/>
     <use style="fill:#1f77b4;stroke:#1f77b4;" x="286.519216" xlink:href="#m65747722a2" y="232.120519"/>
     <use style="fill:#1f77b4;stroke:#1f77b4;" x="289.662435" xlink:href="#m65747722a2" y="232.120519"/>
     <use style="fill:#1f77b4;stroke:#1f77b4;" x="292.805655" xlink:href="#m65747722a2" y="254.49974"/>
     <use style="fill:#1f77b4;stroke:#1f77b4;" x="295.948874" xlink:href="#m65747722a2" y="254.49974"/>
     <use style="fill:#1f77b4;stroke:#1f77b4;" x="299.092093" xlink:href="#m65747722a2" y="254.49974"/>
     <use style="fill:#1f77b4;stroke:#1f77b4;" x="302.235313" xlink:href="#m65747722a2" y="254.49974"/>
     <use style="fill:#1f77b4;stroke:#1f77b4;" x="305.378532" xlink:href="#m65747722a2" y="254.49974"/>
     <use style="fill:#1f77b4;stroke:#1f77b4;" x="308.521751" xlink:href="#m65747722a2" y="254.49974"/>
     <use style="fill:#1f77b4;stroke:#1f77b4;" x="311.664971" xlink:href="#m65747722a2" y="254.49974"/>
     <use style="fill:#1f77b4;stroke:#1f77b4;" x="314.80819" xlink:href="#m65747722a2" y="276.878961"/>
     <use style="fill:#1f77b4;stroke:#1f77b4;" x="317.95141" xlink:href="#m65747722a2" y="276.878961"/>
     <use style="fill:#1f77b4;stroke:#1f77b4;" x="321.094629" xlink:href="#m65747722a2" y="276.878961"/>
     <use style="fill:#1f77b4;stroke:#1f77b4;" x="324.237848" xlink:href="#m65747722a2" y="299.258182"/>
     <use style="fill:#1f77b4;stroke:#1f77b4;" x="327.381068" xlink:href="#m65747722a2" y="299.258182"/>
     <use style="fill:#1f77b4;stroke:#1f77b4;" x="330.524287" xlink:href="#m65747722a2" y="276.878961"/>
     <use style="fill:#1f77b4;stroke:#1f77b4;" x="333.667506" xlink:href="#m65747722a2" y="299.258182"/>
     <use style="fill:#1f77b4;stroke:#1f77b4;" x="336.810726" xlink:href="#m65747722a2" y="299.258182"/>
     <use style="fill:#1f77b4;stroke:#1f77b4;" x="339.953945" xlink:href="#m65747722a2" y="299.258182"/>
     <use style="fill:#1f77b4;stroke:#1f77b4;" x="343.097164" xlink:href="#m65747722a2" y="276.878961"/>
     <use style="fill:#1f77b4;stroke:#1f77b4;" x="346.240384" xlink:href="#m65747722a2" y="299.258182"/>
     <use style="fill:#1f77b4;stroke:#1f77b4;" x="349.383603" xlink:href="#m65747722a2" y="299.258182"/>
     <use style="fill:#1f77b4;stroke:#1f77b4;" x="352.526822" xlink:href="#m65747722a2" y="299.258182"/>
     <use style="fill:#1f77b4;stroke:#1f77b4;" x="355.670042" xlink:href="#m65747722a2" y="299.258182"/>
     <use style="fill:#1f77b4;stroke:#1f77b4;" x="358.813261" xlink:href="#m65747722a2" y="299.258182"/>
     <use style="fill:#1f77b4;stroke:#1f77b4;" x="361.95648" xlink:href="#m65747722a2" y="299.258182"/>
     <use style="fill:#1f77b4;stroke:#1f77b4;" x="365.0997" xlink:href="#m65747722a2" y="299.258182"/>
     <use style="fill:#1f77b4;stroke:#1f77b4;" x="368.242919" xlink:href="#m65747722a2" y="299.258182"/>
     <use style="fill:#1f77b4;stroke:#1f77b4;" x="371.386138" xlink:href="#m65747722a2" y="299.258182"/>
     <use style="fill:#1f77b4;stroke:#1f77b4;" x="374.529358" xlink:href="#m65747722a2" y="299.258182"/>
     <use style="fill:#1f77b4;stroke:#1f77b4;" x="377.672577" xlink:href="#m65747722a2" y="299.258182"/>
     <use style="fill:#1f77b4;stroke:#1f77b4;" x="380.815796" xlink:href="#m65747722a2" y="299.258182"/>
     <use style="fill:#1f77b4;stroke:#1f77b4;" x="383.959016" xlink:href="#m65747722a2" y="299.258182"/>
     <use style="fill:#1f77b4;stroke:#1f77b4;" x="387.102235" xlink:href="#m65747722a2" y="299.258182"/>
     <use style="fill:#1f77b4;stroke:#1f77b4;" x="390.245455" xlink:href="#m65747722a2" y="30.707532"/>
    </g>
   </g>
   <g id="PathCollection_2">
    <defs>
     <path d="M 0 3 
C 0.795609 3 1.55874 2.683901 2.12132 2.12132 
C 2.683901 1.55874 3 0.795609 3 0 
C 3 -0.795609 2.683901 -1.55874 2.12132 -2.12132 
C 1.55874 -2.683901 0.795609 -3 0 -3 
C -0.795609 -3 -1.55874 -2.683901 -2.12132 -2.12132 
C -2.683901 -1.55874 -3 -0.795609 -3 0 
C -3 0.795609 -2.683901 1.55874 -2.12132 2.12132 
C -1.55874 2.683901 -0.795609 3 0 3 
z
" id="mb50b11ec8c" style="stroke:#ff7f0e;"/>
    </defs>
    <g clip-path="url(#p17b00d91c9)">
     <use style="fill:#ff7f0e;stroke:#ff7f0e;" x="47.634545" xlink:href="#mb50b11ec8c" y="69.008412"/>
     <use style="fill:#ff7f0e;stroke:#ff7f0e;" x="50.777765" xlink:href="#mb50b11ec8c" y="69.090286"/>
     <use style="fill:#ff7f0e;stroke:#ff7f0e;" x="53.920984" xlink:href="#mb50b11ec8c" y="69.16645"/>
     <use style="fill:#ff7f0e;stroke:#ff7f0e;" x="57.064204" xlink:href="#mb50b11ec8c" y="69.199464"/>
     <use style="fill:#ff7f0e;stroke:#ff7f0e;" x="60.207423" xlink:href="#mb50b11ec8c" y="69.247248"/>
     <use style="fill:#ff7f0e;stroke:#ff7f0e;" x="63.350642" xlink:href="#mb50b11ec8c" y="69.377257"/>
     <use style="fill:#ff7f0e;stroke:#ff7f0e;" x="66.493862" xlink:href="#mb50b11ec8c" y="69.396403"/>
     <use style="fill:#ff7f0e;stroke:#ff7f0e;" x="69.637081" xlink:href="#mb50b11ec8c" y="69.570101"/>
     <use style="fill:#ff7f0e;stroke:#ff7f0e;" x="72.7803" xlink:href="#mb50b11ec8c" y="69.620121"/>
     <use style="fill:#ff7f0e;stroke:#ff7f0e;" x="75.92352" xlink:href="#mb50b11ec8c" y="69.79403"/>
     <use style="fill:#ff7f0e;stroke:#ff7f0e;" x="79.066739" xlink:href="#mb50b11ec8c" y="69.87914"/>
     <use style="fill:#ff7f0e;stroke:#ff7f0e;" x="82.209958" xlink:href="#mb50b11ec8c" y="70.141137"/>
     <use style="fill:#ff7f0e;stroke:#ff7f0e;" x="85.353178" xlink:href="#mb50b11ec8c" y="70.468633"/>
     <use style="fill:#ff7f0e;stroke:#ff7f0e;" x="88.496397" xlink:href="#mb50b11ec8c" y="70.765357"/>
     <use style="fill:#ff7f0e;stroke:#ff7f0e;" x="91.639616" xlink:href="#mb50b11ec8c" y="71.264068"/>
     <use style="fill:#ff7f0e;stroke:#ff7f0e;" x="94.782836" xlink:href="#mb50b11ec8c" y="71.728059"/>
     <use style="fill:#ff7f0e;stroke:#ff7f0e;" x="97.926055" xlink:href="#mb50b11ec8c" y="72.390002"/>
     <use style="fill:#ff7f0e;stroke:#ff7f0e;" x="101.069274" xlink:href="#mb50b11ec8c" y="73.361931"/>
     <use style="fill:#ff7f0e;stroke:#ff7f0e;" x="104.212494" xlink:href="#mb50b11ec8c" y="74.351392"/>
     <use style="fill:#ff7f0e;stroke:#ff7f0e;" x="107.355713" xlink:href="#mb50b11ec8c" y="75.368279"/>
     <use style="fill:#ff7f0e;stroke:#ff7f0e;" x="110.498932" xlink:href="#mb50b11ec8c" y="76.457848"/>
     <use style="fill:#ff7f0e;stroke:#ff7f0e;" x="113.642152" xlink:href="#mb50b11ec8c" y="77.702611"/>
     <use style="fill:#ff7f0e;stroke:#ff7f0e;" x="116.785371" xlink:href="#mb50b11ec8c" y="79.048273"/>
     <use style="fill:#ff7f0e;stroke:#ff7f0e;" x="119.92859" xlink:href="#mb50b11ec8c" y="80.758115"/>
     <use style="fill:#ff7f0e;stroke:#ff7f0e;" x="123.07181" xlink:href="#mb50b11ec8c" y="82.304147"/>
     <use style="fill:#ff7f0e;stroke:#ff7f0e;" x="126.215029" xlink:href="#mb50b11ec8c" y="83.851272"/>
     <use style="fill:#ff7f0e;stroke:#ff7f0e;" x="129.358249" xlink:href="#mb50b11ec8c" y="85.695427"/>
     <use style="fill:#ff7f0e;stroke:#ff7f0e;" x="132.501468" xlink:href="#mb50b11ec8c" y="87.500688"/>
     <use style="fill:#ff7f0e;stroke:#ff7f0e;" x="135.644687" xlink:href="#mb50b11ec8c" y="89.358961"/>
     <use style="fill:#ff7f0e;stroke:#ff7f0e;" x="138.787907" xlink:href="#mb50b11ec8c" y="91.636501"/>
     <use style="fill:#ff7f0e;stroke:#ff7f0e;" x="141.931126" xlink:href="#mb50b11ec8c" y="93.609861"/>
     <use style="fill:#ff7f0e;stroke:#ff7f0e;" x="145.074345" xlink:href="#mb50b11ec8c" y="95.872436"/>
     <use style="fill:#ff7f0e;stroke:#ff7f0e;" x="148.217565" xlink:href="#mb50b11ec8c" y="98.097957"/>
     <use style="fill:#ff7f0e;stroke:#ff7f0e;" x="151.360784" xlink:href="#mb50b11ec8c" y="100.291378"/>
     <use style="fill:#ff7f0e;stroke:#ff7f0e;" x="154.504003" xlink:href="#mb50b11ec8c" y="102.779073"/>
     <use style="fill:#ff7f0e;stroke:#ff7f0e;" x="157.647223" xlink:href="#mb50b11ec8c" y="105.288467"/>
     <use style="fill:#ff7f0e;stroke:#ff7f0e;" x="160.790442" xlink:href="#mb50b11ec8c" y="107.44503"/>
     <use style="fill:#ff7f0e;stroke:#ff7f0e;" x="163.933661" xlink:href="#mb50b11ec8c" y="109.92637"/>
     <use style="fill:#ff7f0e;stroke:#ff7f0e;" x="167.076881" xlink:href="#mb50b11ec8c" y="112.292007"/>
     <use style="fill:#ff7f0e;stroke:#ff7f0e;" x="170.2201" xlink:href="#mb50b11ec8c" y="114.606523"/>
     <use style="fill:#ff7f0e;stroke:#ff7f0e;" x="173.363319" xlink:href="#mb50b11ec8c" y="117.532518"/>
     <use style="fill:#ff7f0e;stroke:#ff7f0e;" x="176.506539" xlink:href="#mb50b11ec8c" y="119.983166"/>
     <use style="fill:#ff7f0e;stroke:#ff7f0e;" x="179.649758" xlink:href="#mb50b11ec8c" y="122.563321"/>
     <use style="fill:#ff7f0e;stroke:#ff7f0e;" x="182.792977" xlink:href="#mb50b11ec8c" y="125.061359"/>
     <use style="fill:#ff7f0e;stroke:#ff7f0e;" x="185.936197" xlink:href="#mb50b11ec8c" y="127.591462"/>
     <use style="fill:#ff7f0e;stroke:#ff7f0e;" x="189.079416" xlink:href="#mb50b11ec8c" y="130.151541"/>
     <use style="fill:#ff7f0e;stroke:#ff7f0e;" x="192.222636" xlink:href="#mb50b11ec8c" y="133.24017"/>
     <use style="fill:#ff7f0e;stroke:#ff7f0e;" x="195.365855" xlink:href="#mb50b11ec8c" y="135.846365"/>
     <use style="fill:#ff7f0e;stroke:#ff7f0e;" x="198.509074" xlink:href="#mb50b11ec8c" y="138.474994"/>
     <use style="fill:#ff7f0e;stroke:#ff7f0e;" x="201.652294" xlink:href="#mb50b11ec8c" y="141.150369"/>
     <use style="fill:#ff7f0e;stroke:#ff7f0e;" x="204.795513" xlink:href="#mb50b11ec8c" y="143.832107"/>
     <use style="fill:#ff7f0e;stroke:#ff7f0e;" x="207.938732" xlink:href="#mb50b11ec8c" y="146.531103"/>
     <use style="fill:#ff7f0e;stroke:#ff7f0e;" x="211.081952" xlink:href="#mb50b11ec8c" y="149.808729"/>
     <use style="fill:#ff7f0e;stroke:#ff7f0e;" x="214.225171" xlink:href="#mb50b11ec8c" y="152.562747"/>
     <use style="fill:#ff7f0e;stroke:#ff7f0e;" x="217.36839" xlink:href="#mb50b11ec8c" y="155.322054"/>
     <use style="fill:#ff7f0e;stroke:#ff7f0e;" x="220.51161" xlink:href="#mb50b11ec8c" y="158.115511"/>
     <use style="fill:#ff7f0e;stroke:#ff7f0e;" x="223.654829" xlink:href="#mb50b11ec8c" y="160.902792"/>
     <use style="fill:#ff7f0e;stroke:#ff7f0e;" x="226.798048" xlink:href="#mb50b11ec8c" y="163.725548"/>
     <use style="fill:#ff7f0e;stroke:#ff7f0e;" x="229.941268" xlink:href="#mb50b11ec8c" y="167.128987"/>
     <use style="fill:#ff7f0e;stroke:#ff7f0e;" x="233.084487" xlink:href="#mb50b11ec8c" y="169.997431"/>
     <use style="fill:#ff7f0e;stroke:#ff7f0e;" x="236.227706" xlink:href="#mb50b11ec8c" y="172.885538"/>
     <use style="fill:#ff7f0e;stroke:#ff7f0e;" x="239.370926" xlink:href="#mb50b11ec8c" y="175.690571"/>
     <use style="fill:#ff7f0e;stroke:#ff7f0e;" x="242.514145" xlink:href="#mb50b11ec8c" y="178.726464"/>
     <use style="fill:#ff7f0e;stroke:#ff7f0e;" x="245.657364" xlink:href="#mb50b11ec8c" y="181.68488"/>
     <use style="fill:#ff7f0e;stroke:#ff7f0e;" x="248.800584" xlink:href="#mb50b11ec8c" y="185.271062"/>
     <use style="fill:#ff7f0e;stroke:#ff7f0e;" x="251.943803" xlink:href="#mb50b11ec8c" y="188.189288"/>
     <use style="fill:#ff7f0e;stroke:#ff7f0e;" x="255.087023" xlink:href="#mb50b11ec8c" y="191.274602"/>
     <use style="fill:#ff7f0e;stroke:#ff7f0e;" x="258.230242" xlink:href="#mb50b11ec8c" y="194.331323"/>
     <use style="fill:#ff7f0e;stroke:#ff7f0e;" x="261.373461" xlink:href="#mb50b11ec8c" y="197.374848"/>
     <use style="fill:#ff7f0e;stroke:#ff7f0e;" x="264.516681" xlink:href="#mb50b11ec8c" y="201.062688"/>
     <use style="fill:#ff7f0e;stroke:#ff7f0e;" x="267.6599" xlink:href="#mb50b11ec8c" y="204.124732"/>
     <use style="fill:#ff7f0e;stroke:#ff7f0e;" x="270.803119" xlink:href="#mb50b11ec8c" y="206.871807"/>
     <use style="fill:#ff7f0e;stroke:#ff7f0e;" x="273.946339" xlink:href="#mb50b11ec8c" y="210.255652"/>
     <use style="fill:#ff7f0e;stroke:#ff7f0e;" x="277.089558" xlink:href="#mb50b11ec8c" y="213.317597"/>
     <use style="fill:#ff7f0e;stroke:#ff7f0e;" x="280.232777" xlink:href="#mb50b11ec8c" y="216.333743"/>
     <use style="fill:#ff7f0e;stroke:#ff7f0e;" x="283.375997" xlink:href="#mb50b11ec8c" y="220.014066"/>
     <use style="fill:#ff7f0e;stroke:#ff7f0e;" x="286.519216" xlink:href="#mb50b11ec8c" y="222.932134"/>
     <use style="fill:#ff7f0e;stroke:#ff7f0e;" x="289.662435" xlink:href="#mb50b11ec8c" y="226.040919"/>
     <use style="fill:#ff7f0e;stroke:#ff7f0e;" x="292.805655" xlink:href="#mb50b11ec8c" y="228.98204"/>
     <use style="fill:#ff7f0e;stroke:#ff7f0e;" x="295.948874" xlink:href="#mb50b11ec8c" y="231.930045"/>
     <use style="fill:#ff7f0e;stroke:#ff7f0e;" x="299.092093" xlink:href="#mb50b11ec8c" y="234.815444"/>
     <use style="fill:#ff7f0e;stroke:#ff7f0e;" x="302.235313" xlink:href="#mb50b11ec8c" y="238.113248"/>
     <use style="fill:#ff7f0e;stroke:#ff7f0e;" x="305.378532" xlink:href="#mb50b11ec8c" y="240.967959"/>
     <use style="fill:#ff7f0e;stroke:#ff7f0e;" x="308.521751" xlink:href="#mb50b11ec8c" y="243.801364"/>
     <use style="fill:#ff7f0e;stroke:#ff7f0e;" x="311.664971" xlink:href="#mb50b11ec8c" y="246.526878"/>
     <use style="fill:#ff7f0e;stroke:#ff7f0e;" x="314.80819" xlink:href="#mb50b11ec8c" y="249.102681"/>
     <use style="fill:#ff7f0e;stroke:#ff7f0e;" x="317.95141" xlink:href="#mb50b11ec8c" y="251.737684"/>
     <use style="fill:#ff7f0e;stroke:#ff7f0e;" x="321.094629" xlink:href="#mb50b11ec8c" y="254.753434"/>
     <use style="fill:#ff7f0e;stroke:#ff7f0e;" x="324.237848" xlink:href="#mb50b11ec8c" y="257.17376"/>
     <use style="fill:#ff7f0e;stroke:#ff7f0e;" x="327.381068" xlink:href="#mb50b11ec8c" y="259.405232"/>
     <use style="fill:#ff7f0e;stroke:#ff7f0e;" x="330.524287" xlink:href="#mb50b11ec8c" y="261.641387"/>
     <use style="fill:#ff7f0e;stroke:#ff7f0e;" x="333.667506" xlink:href="#mb50b11ec8c" y="263.966209"/>
     <use style="fill:#ff7f0e;stroke:#ff7f0e;" x="336.810726" xlink:href="#mb50b11ec8c" y="266.091431"/>
     <use style="fill:#ff7f0e;stroke:#ff7f0e;" x="339.953945" xlink:href="#mb50b11ec8c" y="268.550429"/>
     <use style="fill:#ff7f0e;stroke:#ff7f0e;" x="343.097164" xlink:href="#mb50b11ec8c" y="270.507555"/>
     <use style="fill:#ff7f0e;stroke:#ff7f0e;" x="346.240384" xlink:href="#mb50b11ec8c" y="272.313437"/>
     <use style="fill:#ff7f0e;stroke:#ff7f0e;" x="349.383603" xlink:href="#mb50b11ec8c" y="274.160579"/>
     <use style="fill:#ff7f0e;stroke:#ff7f0e;" x="352.526822" xlink:href="#mb50b11ec8c" y="275.948389"/>
     <use style="fill:#ff7f0e;stroke:#ff7f0e;" x="355.670042" xlink:href="#mb50b11ec8c" y="277.963835"/>
     <use style="fill:#ff7f0e;stroke:#ff7f0e;" x="358.813261" xlink:href="#mb50b11ec8c" y="279.701491"/>
     <use style="fill:#ff7f0e;stroke:#ff7f0e;" x="361.95648" xlink:href="#mb50b11ec8c" y="281.279597"/>
     <use style="fill:#ff7f0e;stroke:#ff7f0e;" x="365.0997" xlink:href="#mb50b11ec8c" y="282.625991"/>
     <use style="fill:#ff7f0e;stroke:#ff7f0e;" x="368.242919" xlink:href="#mb50b11ec8c" y="284.211387"/>
     <use style="fill:#ff7f0e;stroke:#ff7f0e;" x="371.386138" xlink:href="#mb50b11ec8c" y="285.465955"/>
     <use style="fill:#ff7f0e;stroke:#ff7f0e;" x="374.529358" xlink:href="#mb50b11ec8c" y="287.117365"/>
     <use style="fill:#ff7f0e;stroke:#ff7f0e;" x="377.672577" xlink:href="#mb50b11ec8c" y="288.316008"/>
     <use style="fill:#ff7f0e;stroke:#ff7f0e;" x="380.815796" xlink:href="#mb50b11ec8c" y="289.495059"/>
     <use style="fill:#ff7f0e;stroke:#ff7f0e;" x="383.959016" xlink:href="#mb50b11ec8c" y="290.723742"/>
     <use style="fill:#ff7f0e;stroke:#ff7f0e;" x="387.102235" xlink:href="#mb50b11ec8c" y="291.919297"/>
     <use style="fill:#ff7f0e;stroke:#ff7f0e;" x="390.245455" xlink:href="#mb50b11ec8c" y="293.16395"/>
    </g>
   </g>
   <g id="matplotlib.axis_1">
    <g id="xtick_1">
     <g id="line2d_1">
      <defs>
       <path d="M 0 0 
L 0 3.5 
" id="m4fd347cbbb" style="stroke:#000000;stroke-width:0.8;"/>
      </defs>
      <g>
       <use style="stroke:#000000;stroke-width:0.8;" x="47.634545" xlink:href="#m4fd347cbbb" y="312.685714"/>
      </g>
     </g>
     <g id="text_1">
      <!-- 0 -->
      <defs>
       <path d="M 31.78125 66.40625 
Q 24.171875 66.40625 20.328125 58.90625 
Q 16.5 51.421875 16.5 36.375 
Q 16.5 21.390625 20.328125 13.890625 
Q 24.171875 6.390625 31.78125 6.390625 
Q 39.453125 6.390625 43.28125 13.890625 
Q 47.125 21.390625 47.125 36.375 
Q 47.125 51.421875 43.28125 58.90625 
Q 39.453125 66.40625 31.78125 66.40625 
z
M 31.78125 74.21875 
Q 44.046875 74.21875 50.515625 64.515625 
Q 56.984375 54.828125 56.984375 36.375 
Q 56.984375 17.96875 50.515625 8.265625 
Q 44.046875 -1.421875 31.78125 -1.421875 
Q 19.53125 -1.421875 13.0625 8.265625 
Q 6.59375 17.96875 6.59375 36.375 
Q 6.59375 54.828125 13.0625 64.515625 
Q 19.53125 74.21875 31.78125 74.21875 
z
" id="DejaVuSans-48"/>
      </defs>
      <g transform="translate(44.453295 327.284152)scale(0.1 -0.1)">
       <use xlink:href="#DejaVuSans-48"/>
      </g>
     </g>
    </g>
    <g id="xtick_2">
     <g id="line2d_2">
      <g>
       <use style="stroke:#000000;stroke-width:0.8;" x="95.774822" xlink:href="#m4fd347cbbb" y="312.685714"/>
      </g>
     </g>
     <g id="text_2">
      <!-- 1 -->
      <defs>
       <path d="M 12.40625 8.296875 
L 28.515625 8.296875 
L 28.515625 63.921875 
L 10.984375 60.40625 
L 10.984375 69.390625 
L 28.421875 72.90625 
L 38.28125 72.90625 
L 38.28125 8.296875 
L 54.390625 8.296875 
L 54.390625 0 
L 12.40625 0 
z
" id="DejaVuSans-49"/>
      </defs>
      <g transform="translate(92.593572 327.284152)scale(0.1 -0.1)">
       <use xlink:href="#DejaVuSans-49"/>
      </g>
     </g>
    </g>
    <g id="xtick_3">
     <g id="line2d_3">
      <g>
       <use style="stroke:#000000;stroke-width:0.8;" x="143.915099" xlink:href="#m4fd347cbbb" y="312.685714"/>
      </g>
     </g>
     <g id="text_3">
      <!-- 2 -->
      <defs>
       <path d="M 19.1875 8.296875 
L 53.609375 8.296875 
L 53.609375 0 
L 7.328125 0 
L 7.328125 8.296875 
Q 12.9375 14.109375 22.625 23.890625 
Q 32.328125 33.6875 34.8125 36.53125 
Q 39.546875 41.84375 41.421875 45.53125 
Q 43.3125 49.21875 43.3125 52.78125 
Q 43.3125 58.59375 39.234375 62.25 
Q 35.15625 65.921875 28.609375 65.921875 
Q 23.96875 65.921875 18.8125 64.3125 
Q 13.671875 62.703125 7.8125 59.421875 
L 7.8125 69.390625 
Q 13.765625 71.78125 18.9375 73 
Q 24.125 74.21875 28.421875 74.21875 
Q 39.75 74.21875 46.484375 68.546875 
Q 53.21875 62.890625 53.21875 53.421875 
Q 53.21875 48.921875 51.53125 44.890625 
Q 49.859375 40.875 45.40625 35.40625 
Q 44.1875 33.984375 37.640625 27.21875 
Q 31.109375 20.453125 19.1875 8.296875 
z
" id="DejaVuSans-50"/>
      </defs>
      <g transform="translate(140.733849 327.284152)scale(0.1 -0.1)">
       <use xlink:href="#DejaVuSans-50"/>
      </g>
     </g>
    </g>
    <g id="xtick_4">
     <g id="line2d_4">
      <g>
       <use style="stroke:#000000;stroke-width:0.8;" x="192.055376" xlink:href="#m4fd347cbbb" y="312.685714"/>
      </g>
     </g>
     <g id="text_4">
      <!-- 3 -->
      <defs>
       <path d="M 40.578125 39.3125 
Q 47.65625 37.796875 51.625 33 
Q 55.609375 28.21875 55.609375 21.1875 
Q 55.609375 10.40625 48.1875 4.484375 
Q 40.765625 -1.421875 27.09375 -1.421875 
Q 22.515625 -1.421875 17.65625 -0.515625 
Q 12.796875 0.390625 7.625 2.203125 
L 7.625 11.71875 
Q 11.71875 9.328125 16.59375 8.109375 
Q 21.484375 6.890625 26.8125 6.890625 
Q 36.078125 6.890625 40.9375 10.546875 
Q 45.796875 14.203125 45.796875 21.1875 
Q 45.796875 27.640625 41.28125 31.265625 
Q 36.765625 34.90625 28.71875 34.90625 
L 20.21875 34.90625 
L 20.21875 43.015625 
L 29.109375 43.015625 
Q 36.375 43.015625 40.234375 45.921875 
Q 44.09375 48.828125 44.09375 54.296875 
Q 44.09375 59.90625 40.109375 62.90625 
Q 36.140625 65.921875 28.71875 65.921875 
Q 24.65625 65.921875 20.015625 65.03125 
Q 15.375 64.15625 9.8125 62.3125 
L 9.8125 71.09375 
Q 15.4375 72.65625 20.34375 73.4375 
Q 25.25 74.21875 29.59375 74.21875 
Q 40.828125 74.21875 47.359375 69.109375 
Q 53.90625 64.015625 53.90625 55.328125 
Q 53.90625 49.265625 50.4375 45.09375 
Q 46.96875 40.921875 40.578125 39.3125 
z
" id="DejaVuSans-51"/>
      </defs>
      <g transform="translate(188.874126 327.284152)scale(0.1 -0.1)">
       <use xlink:href="#DejaVuSans-51"/>
      </g>
     </g>
    </g>
    <g id="xtick_5">
     <g id="line2d_5">
      <g>
       <use style="stroke:#000000;stroke-width:0.8;" x="240.195653" xlink:href="#m4fd347cbbb" y="312.685714"/>
      </g>
     </g>
     <g id="text_5">
      <!-- 4 -->
      <defs>
       <path d="M 37.796875 64.3125 
L 12.890625 25.390625 
L 37.796875 25.390625 
z
M 35.203125 72.90625 
L 47.609375 72.90625 
L 47.609375 25.390625 
L 58.015625 25.390625 
L 58.015625 17.1875 
L 47.609375 17.1875 
L 47.609375 0 
L 37.796875 0 
L 37.796875 17.1875 
L 4.890625 17.1875 
L 4.890625 26.703125 
z
" id="DejaVuSans-52"/>
      </defs>
      <g transform="translate(237.014403 327.284152)scale(0.1 -0.1)">
       <use xlink:href="#DejaVuSans-52"/>
      </g>
     </g>
    </g>
    <g id="xtick_6">
     <g id="line2d_6">
      <g>
       <use style="stroke:#000000;stroke-width:0.8;" x="288.33593" xlink:href="#m4fd347cbbb" y="312.685714"/>
      </g>
     </g>
     <g id="text_6">
      <!-- 5 -->
      <defs>
       <path d="M 10.796875 72.90625 
L 49.515625 72.90625 
L 49.515625 64.59375 
L 19.828125 64.59375 
L 19.828125 46.734375 
Q 21.96875 47.46875 24.109375 47.828125 
Q 26.265625 48.1875 28.421875 48.1875 
Q 40.625 48.1875 47.75 41.5 
Q 54.890625 34.8125 54.890625 23.390625 
Q 54.890625 11.625 47.5625 5.09375 
Q 40.234375 -1.421875 26.90625 -1.421875 
Q 22.3125 -1.421875 17.546875 -0.640625 
Q 12.796875 0.140625 7.71875 1.703125 
L 7.71875 11.625 
Q 12.109375 9.234375 16.796875 8.0625 
Q 21.484375 6.890625 26.703125 6.890625 
Q 35.15625 6.890625 40.078125 11.328125 
Q 45.015625 15.765625 45.015625 23.390625 
Q 45.015625 31 40.078125 35.4375 
Q 35.15625 39.890625 26.703125 39.890625 
Q 22.75 39.890625 18.8125 39.015625 
Q 14.890625 38.140625 10.796875 36.28125 
z
" id="DejaVuSans-53"/>
      </defs>
      <g transform="translate(285.15468 327.284152)scale(0.1 -0.1)">
       <use xlink:href="#DejaVuSans-53"/>
      </g>
     </g>
    </g>
    <g id="xtick_7">
     <g id="line2d_7">
      <g>
       <use style="stroke:#000000;stroke-width:0.8;" x="336.476207" xlink:href="#m4fd347cbbb" y="312.685714"/>
      </g>
     </g>
     <g id="text_7">
      <!-- 6 -->
      <defs>
       <path d="M 33.015625 40.375 
Q 26.375 40.375 22.484375 35.828125 
Q 18.609375 31.296875 18.609375 23.390625 
Q 18.609375 15.53125 22.484375 10.953125 
Q 26.375 6.390625 33.015625 6.390625 
Q 39.65625 6.390625 43.53125 10.953125 
Q 47.40625 15.53125 47.40625 23.390625 
Q 47.40625 31.296875 43.53125 35.828125 
Q 39.65625 40.375 33.015625 40.375 
z
M 52.59375 71.296875 
L 52.59375 62.3125 
Q 48.875 64.0625 45.09375 64.984375 
Q 41.3125 65.921875 37.59375 65.921875 
Q 27.828125 65.921875 22.671875 59.328125 
Q 17.53125 52.734375 16.796875 39.40625 
Q 19.671875 43.65625 24.015625 45.921875 
Q 28.375 48.1875 33.59375 48.1875 
Q 44.578125 48.1875 50.953125 41.515625 
Q 57.328125 34.859375 57.328125 23.390625 
Q 57.328125 12.15625 50.6875 5.359375 
Q 44.046875 -1.421875 33.015625 -1.421875 
Q 20.359375 -1.421875 13.671875 8.265625 
Q 6.984375 17.96875 6.984375 36.375 
Q 6.984375 53.65625 15.1875 63.9375 
Q 23.390625 74.21875 37.203125 74.21875 
Q 40.921875 74.21875 44.703125 73.484375 
Q 48.484375 72.75 52.59375 71.296875 
z
" id="DejaVuSans-54"/>
      </defs>
      <g transform="translate(333.294957 327.284152)scale(0.1 -0.1)">
       <use xlink:href="#DejaVuSans-54"/>
      </g>
     </g>
    </g>
    <g id="xtick_8">
     <g id="line2d_8">
      <g>
       <use style="stroke:#000000;stroke-width:0.8;" x="384.616484" xlink:href="#m4fd347cbbb" y="312.685714"/>
      </g>
     </g>
     <g id="text_8">
      <!-- 7 -->
      <defs>
       <path d="M 8.203125 72.90625 
L 55.078125 72.90625 
L 55.078125 68.703125 
L 28.609375 0 
L 18.3125 0 
L 43.21875 64.59375 
L 8.203125 64.59375 
z
" id="DejaVuSans-55"/>
      </defs>
      <g transform="translate(381.435234 327.284152)scale(0.1 -0.1)">
       <use xlink:href="#DejaVuSans-55"/>
      </g>
     </g>
    </g>
    <g id="text_9">
     <!-- time [s] -->
     <defs>
      <path d="M 18.3125 70.21875 
L 18.3125 54.6875 
L 36.8125 54.6875 
L 36.8125 47.703125 
L 18.3125 47.703125 
L 18.3125 18.015625 
Q 18.3125 11.328125 20.140625 9.421875 
Q 21.96875 7.515625 27.59375 7.515625 
L 36.8125 7.515625 
L 36.8125 0 
L 27.59375 0 
Q 17.1875 0 13.234375 3.875 
Q 9.28125 7.765625 9.28125 18.015625 
L 9.28125 47.703125 
L 2.6875 47.703125 
L 2.6875 54.6875 
L 9.28125 54.6875 
L 9.28125 70.21875 
z
" id="DejaVuSans-116"/>
      <path d="M 9.421875 54.6875 
L 18.40625 54.6875 
L 18.40625 0 
L 9.421875 0 
z
M 9.421875 75.984375 
L 18.40625 75.984375 
L 18.40625 64.59375 
L 9.421875 64.59375 
z
" id="DejaVuSans-105"/>
      <path d="M 52 44.1875 
Q 55.375 50.25 60.0625 53.125 
Q 64.75 56 71.09375 56 
Q 79.640625 56 84.28125 50.015625 
Q 88.921875 44.046875 88.921875 33.015625 
L 88.921875 0 
L 79.890625 0 
L 79.890625 32.71875 
Q 79.890625 40.578125 77.09375 44.375 
Q 74.3125 48.1875 68.609375 48.1875 
Q 61.625 48.1875 57.5625 43.546875 
Q 53.515625 38.921875 53.515625 30.90625 
L 53.515625 0 
L 44.484375 0 
L 44.484375 32.71875 
Q 44.484375 40.625 41.703125 44.40625 
Q 38.921875 48.1875 33.109375 48.1875 
Q 26.21875 48.1875 22.15625 43.53125 
Q 18.109375 38.875 18.109375 30.90625 
L 18.109375 0 
L 9.078125 0 
L 9.078125 54.6875 
L 18.109375 54.6875 
L 18.109375 46.1875 
Q 21.1875 51.21875 25.484375 53.609375 
Q 29.78125 56 35.6875 56 
Q 41.65625 56 45.828125 52.96875 
Q 50 49.953125 52 44.1875 
z
" id="DejaVuSans-109"/>
      <path d="M 56.203125 29.59375 
L 56.203125 25.203125 
L 14.890625 25.203125 
Q 15.484375 15.921875 20.484375 11.0625 
Q 25.484375 6.203125 34.421875 6.203125 
Q 39.59375 6.203125 44.453125 7.46875 
Q 49.3125 8.734375 54.109375 11.28125 
L 54.109375 2.78125 
Q 49.265625 0.734375 44.1875 -0.34375 
Q 39.109375 -1.421875 33.890625 -1.421875 
Q 20.796875 -1.421875 13.15625 6.1875 
Q 5.515625 13.8125 5.515625 26.8125 
Q 5.515625 40.234375 12.765625 48.109375 
Q 20.015625 56 32.328125 56 
Q 43.359375 56 49.78125 48.890625 
Q 56.203125 41.796875 56.203125 29.59375 
z
M 47.21875 32.234375 
Q 47.125 39.59375 43.09375 43.984375 
Q 39.0625 48.390625 32.421875 48.390625 
Q 24.90625 48.390625 20.390625 44.140625 
Q 15.875 39.890625 15.1875 32.171875 
z
" id="DejaVuSans-101"/>
      <path id="DejaVuSans-32"/>
      <path d="M 8.59375 75.984375 
L 29.296875 75.984375 
L 29.296875 69 
L 17.578125 69 
L 17.578125 -6.203125 
L 29.296875 -6.203125 
L 29.296875 -13.1875 
L 8.59375 -13.1875 
z
" id="DejaVuSans-91"/>
      <path d="M 44.28125 53.078125 
L 44.28125 44.578125 
Q 40.484375 46.53125 36.375 47.5 
Q 32.28125 48.484375 27.875 48.484375 
Q 21.1875 48.484375 17.84375 46.4375 
Q 14.5 44.390625 14.5 40.28125 
Q 14.5 37.15625 16.890625 35.375 
Q 19.28125 33.59375 26.515625 31.984375 
L 29.59375 31.296875 
Q 39.15625 29.25 43.1875 25.515625 
Q 47.21875 21.78125 47.21875 15.09375 
Q 47.21875 7.46875 41.1875 3.015625 
Q 35.15625 -1.421875 24.609375 -1.421875 
Q 20.21875 -1.421875 15.453125 -0.5625 
Q 10.6875 0.296875 5.421875 2 
L 5.421875 11.28125 
Q 10.40625 8.6875 15.234375 7.390625 
Q 20.0625 6.109375 24.8125 6.109375 
Q 31.15625 6.109375 34.5625 8.28125 
Q 37.984375 10.453125 37.984375 14.40625 
Q 37.984375 18.0625 35.515625 20.015625 
Q 33.0625 21.96875 24.703125 23.78125 
L 21.578125 24.515625 
Q 13.234375 26.265625 9.515625 29.90625 
Q 5.8125 33.546875 5.8125 39.890625 
Q 5.8125 47.609375 11.28125 51.796875 
Q 16.75 56 26.8125 56 
Q 31.78125 56 36.171875 55.265625 
Q 40.578125 54.546875 44.28125 53.078125 
z
" id="DejaVuSans-115"/>
      <path d="M 30.421875 75.984375 
L 30.421875 -13.1875 
L 9.71875 -13.1875 
L 9.71875 -6.203125 
L 21.390625 -6.203125 
L 21.390625 69 
L 9.71875 69 
L 9.71875 75.984375 
z
" id="DejaVuSans-93"/>
     </defs>
     <g transform="translate(199.548594 340.962277)scale(0.1 -0.1)">
      <use xlink:href="#DejaVuSans-116"/>
      <use x="39.208984" xlink:href="#DejaVuSans-105"/>
      <use x="66.992188" xlink:href="#DejaVuSans-109"/>
      <use x="164.404297" xlink:href="#DejaVuSans-101"/>
      <use x="225.927734" xlink:href="#DejaVuSans-32"/>
      <use x="257.714844" xlink:href="#DejaVuSans-91"/>
      <use x="296.728516" xlink:href="#DejaVuSans-115"/>
      <use x="348.828125" xlink:href="#DejaVuSans-93"/>
     </g>
    </g>
   </g>
   <g id="matplotlib.axis_2">
    <g id="ytick_1">
     <g id="line2d_9">
      <defs>
       <path d="M 0 0 
L -3.5 0 
" id="m9bf337b139" style="stroke:#000000;stroke-width:0.8;"/>
      </defs>
      <g>
       <use style="stroke:#000000;stroke-width:0.8;" x="30.504" xlink:href="#m9bf337b139" y="264.346597"/>
      </g>
     </g>
     <g id="text_10">
      <!-- 1 -->
      <g transform="translate(17.1415 268.145816)scale(0.1 -0.1)">
       <use xlink:href="#DejaVuSans-49"/>
      </g>
     </g>
    </g>
    <g id="ytick_2">
     <g id="line2d_10">
      <g>
       <use style="stroke:#000000;stroke-width:0.8;" x="30.504" xlink:href="#m9bf337b139" y="207.055792"/>
      </g>
     </g>
     <g id="text_11">
      <!-- 2 -->
      <g transform="translate(17.1415 210.855011)scale(0.1 -0.1)">
       <use xlink:href="#DejaVuSans-50"/>
      </g>
     </g>
    </g>
    <g id="ytick_3">
     <g id="line2d_11">
      <g>
       <use style="stroke:#000000;stroke-width:0.8;" x="30.504" xlink:href="#m9bf337b139" y="149.764987"/>
      </g>
     </g>
     <g id="text_12">
      <!-- 3 -->
      <g transform="translate(17.1415 153.564206)scale(0.1 -0.1)">
       <use xlink:href="#DejaVuSans-51"/>
      </g>
     </g>
    </g>
    <g id="ytick_4">
     <g id="line2d_12">
      <g>
       <use style="stroke:#000000;stroke-width:0.8;" x="30.504" xlink:href="#m9bf337b139" y="92.474182"/>
      </g>
     </g>
     <g id="text_13">
      <!-- 4 -->
      <g transform="translate(17.1415 96.273401)scale(0.1 -0.1)">
       <use xlink:href="#DejaVuSans-52"/>
      </g>
     </g>
    </g>
    <g id="ytick_5">
     <g id="line2d_13">
      <g>
       <use style="stroke:#000000;stroke-width:0.8;" x="30.504" xlink:href="#m9bf337b139" y="35.183377"/>
      </g>
     </g>
     <g id="text_14">
      <!-- 5 -->
      <g transform="translate(17.1415 38.982595)scale(0.1 -0.1)">
       <use xlink:href="#DejaVuSans-53"/>
      </g>
     </g>
    </g>
    <g id="text_15">
     <!-- range [m] -->
     <defs>
      <path d="M 41.109375 46.296875 
Q 39.59375 47.171875 37.8125 47.578125 
Q 36.03125 48 33.890625 48 
Q 26.265625 48 22.1875 43.046875 
Q 18.109375 38.09375 18.109375 28.8125 
L 18.109375 0 
L 9.078125 0 
L 9.078125 54.6875 
L 18.109375 54.6875 
L 18.109375 46.1875 
Q 20.953125 51.171875 25.484375 53.578125 
Q 30.03125 56 36.53125 56 
Q 37.453125 56 38.578125 55.875 
Q 39.703125 55.765625 41.0625 55.515625 
z
" id="DejaVuSans-114"/>
      <path d="M 34.28125 27.484375 
Q 23.390625 27.484375 19.1875 25 
Q 14.984375 22.515625 14.984375 16.5 
Q 14.984375 11.71875 18.140625 8.90625 
Q 21.296875 6.109375 26.703125 6.109375 
Q 34.1875 6.109375 38.703125 11.40625 
Q 43.21875 16.703125 43.21875 25.484375 
L 43.21875 27.484375 
z
M 52.203125 31.203125 
L 52.203125 0 
L 43.21875 0 
L 43.21875 8.296875 
Q 40.140625 3.328125 35.546875 0.953125 
Q 30.953125 -1.421875 24.3125 -1.421875 
Q 15.921875 -1.421875 10.953125 3.296875 
Q 6 8.015625 6 15.921875 
Q 6 25.140625 12.171875 29.828125 
Q 18.359375 34.515625 30.609375 34.515625 
L 43.21875 34.515625 
L 43.21875 35.40625 
Q 43.21875 41.609375 39.140625 45 
Q 35.0625 48.390625 27.6875 48.390625 
Q 23 48.390625 18.546875 47.265625 
Q 14.109375 46.140625 10.015625 43.890625 
L 10.015625 52.203125 
Q 14.9375 54.109375 19.578125 55.046875 
Q 24.21875 56 28.609375 56 
Q 40.484375 56 46.34375 49.84375 
Q 52.203125 43.703125 52.203125 31.203125 
z
" id="DejaVuSans-97"/>
      <path d="M 54.890625 33.015625 
L 54.890625 0 
L 45.90625 0 
L 45.90625 32.71875 
Q 45.90625 40.484375 42.875 44.328125 
Q 39.84375 48.1875 33.796875 48.1875 
Q 26.515625 48.1875 22.3125 43.546875 
Q 18.109375 38.921875 18.109375 30.90625 
L 18.109375 0 
L 9.078125 0 
L 9.078125 54.6875 
L 18.109375 54.6875 
L 18.109375 46.1875 
Q 21.34375 51.125 25.703125 53.5625 
Q 30.078125 56 35.796875 56 
Q 45.21875 56 50.046875 50.171875 
Q 54.890625 44.34375 54.890625 33.015625 
z
" id="DejaVuSans-110"/>
      <path d="M 45.40625 27.984375 
Q 45.40625 37.75 41.375 43.109375 
Q 37.359375 48.484375 30.078125 48.484375 
Q 22.859375 48.484375 18.828125 43.109375 
Q 14.796875 37.75 14.796875 27.984375 
Q 14.796875 18.265625 18.828125 12.890625 
Q 22.859375 7.515625 30.078125 7.515625 
Q 37.359375 7.515625 41.375 12.890625 
Q 45.40625 18.265625 45.40625 27.984375 
z
M 54.390625 6.78125 
Q 54.390625 -7.171875 48.1875 -13.984375 
Q 42 -20.796875 29.203125 -20.796875 
Q 24.46875 -20.796875 20.265625 -20.09375 
Q 16.0625 -19.390625 12.109375 -17.921875 
L 12.109375 -9.1875 
Q 16.0625 -11.328125 19.921875 -12.34375 
Q 23.78125 -13.375 27.78125 -13.375 
Q 36.625 -13.375 41.015625 -8.765625 
Q 45.40625 -4.15625 45.40625 5.171875 
L 45.40625 9.625 
Q 42.625 4.78125 38.28125 2.390625 
Q 33.9375 0 27.875 0 
Q 17.828125 0 11.671875 7.65625 
Q 5.515625 15.328125 5.515625 27.984375 
Q 5.515625 40.671875 11.671875 48.328125 
Q 17.828125 56 27.875 56 
Q 33.9375 56 38.28125 53.609375 
Q 42.625 51.21875 45.40625 46.390625 
L 45.40625 54.6875 
L 54.390625 54.6875 
z
" id="DejaVuSans-103"/>
     </defs>
     <g transform="translate(11.061813 189.882857)rotate(-90)scale(0.1 -0.1)">
      <use xlink:href="#DejaVuSans-114"/>
      <use x="41.113281" xlink:href="#DejaVuSans-97"/>
      <use x="102.392578" xlink:href="#DejaVuSans-110"/>
      <use x="165.771484" xlink:href="#DejaVuSans-103"/>
      <use x="229.248047" xlink:href="#DejaVuSans-101"/>
      <use x="290.771484" xlink:href="#DejaVuSans-32"/>
      <use x="322.558594" xlink:href="#DejaVuSans-91"/>
      <use x="361.572266" xlink:href="#DejaVuSans-109"/>
      <use x="458.984375" xlink:href="#DejaVuSans-93"/>
     </g>
    </g>
   </g>
   <g id="patch_3">
    <path d="M 30.504 312.685714 
L 30.504 17.28 
" style="fill:none;stroke:#000000;stroke-linecap:square;stroke-linejoin:miter;stroke-width:0.8;"/>
   </g>
   <g id="patch_4">
    <path d="M 407.376 312.685714 
L 407.376 17.28 
" style="fill:none;stroke:#000000;stroke-linecap:square;stroke-linejoin:miter;stroke-width:0.8;"/>
   </g>
   <g id="patch_5">
    <path d="M 30.504 312.685714 
L 407.376 312.685714 
" style="fill:none;stroke:#000000;stroke-linecap:square;stroke-linejoin:miter;stroke-width:0.8;"/>
   </g>
   <g id="patch_6">
    <path d="M 30.504 17.28 
L 407.376 17.28 
" style="fill:none;stroke:#000000;stroke-linecap:square;stroke-linejoin:miter;stroke-width:0.8;"/>
   </g>
   <g id="text_16">
    <!-- Bag 41 -->
    <defs>
     <path d="M 19.671875 34.8125 
L 19.671875 8.109375 
L 35.5 8.109375 
Q 43.453125 8.109375 47.28125 11.40625 
Q 51.125 14.703125 51.125 21.484375 
Q 51.125 28.328125 47.28125 31.5625 
Q 43.453125 34.8125 35.5 34.8125 
z
M 19.671875 64.796875 
L 19.671875 42.828125 
L 34.28125 42.828125 
Q 41.5 42.828125 45.03125 45.53125 
Q 48.578125 48.25 48.578125 53.8125 
Q 48.578125 59.328125 45.03125 62.0625 
Q 41.5 64.796875 34.28125 64.796875 
z
M 9.8125 72.90625 
L 35.015625 72.90625 
Q 46.296875 72.90625 52.390625 68.21875 
Q 58.5 63.53125 58.5 54.890625 
Q 58.5 48.1875 55.375 44.234375 
Q 52.25 40.28125 46.1875 39.3125 
Q 53.46875 37.75 57.5 32.78125 
Q 61.53125 27.828125 61.53125 20.40625 
Q 61.53125 10.640625 54.890625 5.3125 
Q 48.25 0 35.984375 0 
L 9.8125 0 
z
" id="DejaVuSans-66"/>
    </defs>
    <g transform="translate(197.795625 11.28)scale(0.12 -0.12)">
     <use xlink:href="#DejaVuSans-66"/>
     <use x="68.603516" xlink:href="#DejaVuSans-97"/>
     <use x="129.882812" xlink:href="#DejaVuSans-103"/>
     <use x="193.359375" xlink:href="#DejaVuSans-32"/>
     <use x="225.146484" xlink:href="#DejaVuSans-52"/>
     <use x="288.769531" xlink:href="#DejaVuSans-49"/>
    </g>
   </g>
   <g id="legend_1">
    <g id="patch_7">
     <path d="M 37.504 54.63625 
L 115.871188 54.63625 
Q 117.871188 54.63625 117.871188 52.63625 
L 117.871188 24.28 
Q 117.871188 22.28 115.871188 22.28 
L 37.504 22.28 
Q 35.504 22.28 35.504 24.28 
L 35.504 52.63625 
Q 35.504 54.63625 37.504 54.63625 
z
" style="fill:#ffffff;opacity:0.8;stroke:#cccccc;stroke-linejoin:miter;"/>
    </g>
    <g id="PathCollection_3">
     <g>
      <use style="fill:#1f77b4;stroke:#1f77b4;" x="49.504" xlink:href="#m65747722a2" y="31.253438"/>
     </g>
    </g>
    <g id="text_17">
     <!-- Radar -->
     <defs>
      <path d="M 44.390625 34.1875 
Q 47.5625 33.109375 50.5625 29.59375 
Q 53.5625 26.078125 56.59375 19.921875 
L 66.609375 0 
L 56 0 
L 46.6875 18.703125 
Q 43.0625 26.03125 39.671875 28.421875 
Q 36.28125 30.8125 30.421875 30.8125 
L 19.671875 30.8125 
L 19.671875 0 
L 9.8125 0 
L 9.8125 72.90625 
L 32.078125 72.90625 
Q 44.578125 72.90625 50.734375 67.671875 
Q 56.890625 62.453125 56.890625 51.90625 
Q 56.890625 45.015625 53.6875 40.46875 
Q 50.484375 35.9375 44.390625 34.1875 
z
M 19.671875 64.796875 
L 19.671875 38.921875 
L 32.078125 38.921875 
Q 39.203125 38.921875 42.84375 42.21875 
Q 46.484375 45.515625 46.484375 51.90625 
Q 46.484375 58.296875 42.84375 61.546875 
Q 39.203125 64.796875 32.078125 64.796875 
z
" id="DejaVuSans-82"/>
      <path d="M 45.40625 46.390625 
L 45.40625 75.984375 
L 54.390625 75.984375 
L 54.390625 0 
L 45.40625 0 
L 45.40625 8.203125 
Q 42.578125 3.328125 38.25 0.953125 
Q 33.9375 -1.421875 27.875 -1.421875 
Q 17.96875 -1.421875 11.734375 6.484375 
Q 5.515625 14.40625 5.515625 27.296875 
Q 5.515625 40.1875 11.734375 48.09375 
Q 17.96875 56 27.875 56 
Q 33.9375 56 38.25 53.625 
Q 42.578125 51.265625 45.40625 46.390625 
z
M 14.796875 27.296875 
Q 14.796875 17.390625 18.875 11.75 
Q 22.953125 6.109375 30.078125 6.109375 
Q 37.203125 6.109375 41.296875 11.75 
Q 45.40625 17.390625 45.40625 27.296875 
Q 45.40625 37.203125 41.296875 42.84375 
Q 37.203125 48.484375 30.078125 48.484375 
Q 22.953125 48.484375 18.875 42.84375 
Q 14.796875 37.203125 14.796875 27.296875 
z
" id="DejaVuSans-100"/>
     </defs>
     <g transform="translate(67.504 33.878438)scale(0.1 -0.1)">
      <use xlink:href="#DejaVuSans-82"/>
      <use x="67.232422" xlink:href="#DejaVuSans-97"/>
      <use x="128.511719" xlink:href="#DejaVuSans-100"/>
      <use x="191.988281" xlink:href="#DejaVuSans-97"/>
      <use x="253.267578" xlink:href="#DejaVuSans-114"/>
     </g>
    </g>
    <g id="PathCollection_4">
     <g>
      <use style="fill:#ff7f0e;stroke:#ff7f0e;" x="49.504" xlink:href="#mb50b11ec8c" y="45.931563"/>
     </g>
    </g>
    <g id="text_18">
     <!-- Optitrack -->
     <defs>
      <path d="M 39.40625 66.21875 
Q 28.65625 66.21875 22.328125 58.203125 
Q 16.015625 50.203125 16.015625 36.375 
Q 16.015625 22.609375 22.328125 14.59375 
Q 28.65625 6.59375 39.40625 6.59375 
Q 50.140625 6.59375 56.421875 14.59375 
Q 62.703125 22.609375 62.703125 36.375 
Q 62.703125 50.203125 56.421875 58.203125 
Q 50.140625 66.21875 39.40625 66.21875 
z
M 39.40625 74.21875 
Q 54.734375 74.21875 63.90625 63.9375 
Q 73.09375 53.65625 73.09375 36.375 
Q 73.09375 19.140625 63.90625 8.859375 
Q 54.734375 -1.421875 39.40625 -1.421875 
Q 24.03125 -1.421875 14.8125 8.828125 
Q 5.609375 19.09375 5.609375 36.375 
Q 5.609375 53.65625 14.8125 63.9375 
Q 24.03125 74.21875 39.40625 74.21875 
z
" id="DejaVuSans-79"/>
      <path d="M 18.109375 8.203125 
L 18.109375 -20.796875 
L 9.078125 -20.796875 
L 9.078125 54.6875 
L 18.109375 54.6875 
L 18.109375 46.390625 
Q 20.953125 51.265625 25.265625 53.625 
Q 29.59375 56 35.59375 56 
Q 45.5625 56 51.78125 48.09375 
Q 58.015625 40.1875 58.015625 27.296875 
Q 58.015625 14.40625 51.78125 6.484375 
Q 45.5625 -1.421875 35.59375 -1.421875 
Q 29.59375 -1.421875 25.265625 0.953125 
Q 20.953125 3.328125 18.109375 8.203125 
z
M 48.6875 27.296875 
Q 48.6875 37.203125 44.609375 42.84375 
Q 40.53125 48.484375 33.40625 48.484375 
Q 26.265625 48.484375 22.1875 42.84375 
Q 18.109375 37.203125 18.109375 27.296875 
Q 18.109375 17.390625 22.1875 11.75 
Q 26.265625 6.109375 33.40625 6.109375 
Q 40.53125 6.109375 44.609375 11.75 
Q 48.6875 17.390625 48.6875 27.296875 
z
" id="DejaVuSans-112"/>
      <path d="M 48.78125 52.59375 
L 48.78125 44.1875 
Q 44.96875 46.296875 41.140625 47.34375 
Q 37.3125 48.390625 33.40625 48.390625 
Q 24.65625 48.390625 19.8125 42.84375 
Q 14.984375 37.3125 14.984375 27.296875 
Q 14.984375 17.28125 19.8125 11.734375 
Q 24.65625 6.203125 33.40625 6.203125 
Q 37.3125 6.203125 41.140625 7.25 
Q 44.96875 8.296875 48.78125 10.40625 
L 48.78125 2.09375 
Q 45.015625 0.34375 40.984375 -0.53125 
Q 36.96875 -1.421875 32.421875 -1.421875 
Q 20.0625 -1.421875 12.78125 6.34375 
Q 5.515625 14.109375 5.515625 27.296875 
Q 5.515625 40.671875 12.859375 48.328125 
Q 20.21875 56 33.015625 56 
Q 37.15625 56 41.109375 55.140625 
Q 45.0625 54.296875 48.78125 52.59375 
z
" id="DejaVuSans-99"/>
      <path d="M 9.078125 75.984375 
L 18.109375 75.984375 
L 18.109375 31.109375 
L 44.921875 54.6875 
L 56.390625 54.6875 
L 27.390625 29.109375 
L 57.625 0 
L 45.90625 0 
L 18.109375 26.703125 
L 18.109375 0 
L 9.078125 0 
z
" id="DejaVuSans-107"/>
     </defs>
     <g transform="translate(67.504 48.556563)scale(0.1 -0.1)">
      <use xlink:href="#DejaVuSans-79"/>
      <use x="78.710938" xlink:href="#DejaVuSans-112"/>
      <use x="142.1875" xlink:href="#DejaVuSans-116"/>
      <use x="181.396484" xlink:href="#DejaVuSans-105"/>
      <use x="209.179688" xlink:href="#DejaVuSans-116"/>
      <use x="248.388672" xlink:href="#DejaVuSans-114"/>
      <use x="289.501953" xlink:href="#DejaVuSans-97"/>
      <use x="350.78125" xlink:href="#DejaVuSans-99"/>
      <use x="405.761719" xlink:href="#DejaVuSans-107"/>
     </g>
    </g>
   </g>
  </g>
 </g>
 <defs>
  <clipPath id="p17b00d91c9">
   <rect height="295.405714" width="376.872" x="30.504" y="17.28"/>
  </clipPath>
 </defs>
</svg>
