<?xml version="1.0" encoding="utf-8" standalone="no"?>
<!DOCTYPE svg PUBLIC "-//W3C//DTD SVG 1.1//EN"
  "http://www.w3.org/Graphics/SVG/1.1/DTD/svg11.dtd">
<!-- Created with matplotlib (https://matplotlib.org/) -->
<svg height="345.6pt" version="1.1" viewBox="0 0 403.2 345.6" width="403.2pt" xmlns="http://www.w3.org/2000/svg" xmlns:xlink="http://www.w3.org/1999/xlink">
 <defs>
  <style type="text/css">
*{stroke-linecap:butt;stroke-linejoin:round;}
  </style>
 </defs>
 <g id="figure_1">
  <g id="patch_1">
   <path d="M 0 345.6 
L 403.2 345.6 
L 403.2 0 
L 0 0 
z
" style="fill:#ffffff;"/>
  </g>
  <g id="axes_1">
   <g id="patch_2">
    <path d="M 35.52 306.102857 
L 396.48 306.102857 
L 396.48 21.394286 
L 35.52 21.394286 
z
" style="fill:#ffffff;"/>
   </g>
   <g id="PathCollection_1">
    <defs>
     <path d="M 0 3 
C 0.795609 3 1.55874 2.683901 2.12132 2.12132 
C 2.683901 1.55874 3 0.795609 3 0 
C 3 -0.795609 2.683901 -1.55874 2.12132 -2.12132 
C 1.55874 -2.683901 0.795609 -3 0 -3 
C -0.795609 -3 -1.55874 -2.683901 -2.12132 -2.12132 
C -2.683901 -1.55874 -3 -0.795609 -3 0 
C -3 0.795609 -2.683901 1.55874 -2.12132 2.12132 
C -1.55874 2.683901 -0.795609 3 0 3 
z
" id="m7c8a347cc8" style="stroke:#1f77b4;"/>
    </defs>
    <g clip-path="url(#p427ae471c3)">
     <use style="fill:#1f77b4;stroke:#1f77b4;" x="35.52" xlink:href="#m7c8a347cc8" y="293.161558"/>
     <use style="fill:#1f77b4;stroke:#1f77b4;" x="38.466017" xlink:href="#m7c8a347cc8" y="77.473247"/>
     <use style="fill:#1f77b4;stroke:#1f77b4;" x="41.412033" xlink:href="#m7c8a347cc8" y="77.473247"/>
     <use style="fill:#1f77b4;stroke:#1f77b4;" x="44.35805" xlink:href="#m7c8a347cc8" y="77.473247"/>
     <use style="fill:#1f77b4;stroke:#1f77b4;" x="47.304067" xlink:href="#m7c8a347cc8" y="77.473247"/>
     <use style="fill:#1f77b4;stroke:#1f77b4;" x="50.250083" xlink:href="#m7c8a347cc8" y="293.161558"/>
     <use style="fill:#1f77b4;stroke:#1f77b4;" x="53.1961" xlink:href="#m7c8a347cc8" y="293.161558"/>
     <use style="fill:#1f77b4;stroke:#1f77b4;" x="56.142117" xlink:href="#m7c8a347cc8" y="77.473247"/>
     <use style="fill:#1f77b4;stroke:#1f77b4;" x="59.088133" xlink:href="#m7c8a347cc8" y="77.473247"/>
     <use style="fill:#1f77b4;stroke:#1f77b4;" x="62.03415" xlink:href="#m7c8a347cc8" y="77.473247"/>
     <use style="fill:#1f77b4;stroke:#1f77b4;" x="64.980166" xlink:href="#m7c8a347cc8" y="77.473247"/>
     <use style="fill:#1f77b4;stroke:#1f77b4;" x="67.926183" xlink:href="#m7c8a347cc8" y="77.473247"/>
     <use style="fill:#1f77b4;stroke:#1f77b4;" x="70.8722" xlink:href="#m7c8a347cc8" y="77.473247"/>
     <use style="fill:#1f77b4;stroke:#1f77b4;" x="73.818216" xlink:href="#m7c8a347cc8" y="77.473247"/>
     <use style="fill:#1f77b4;stroke:#1f77b4;" x="76.764233" xlink:href="#m7c8a347cc8" y="77.473247"/>
     <use style="fill:#1f77b4;stroke:#1f77b4;" x="79.71025" xlink:href="#m7c8a347cc8" y="77.473247"/>
     <use style="fill:#1f77b4;stroke:#1f77b4;" x="82.656266" xlink:href="#m7c8a347cc8" y="77.473247"/>
     <use style="fill:#1f77b4;stroke:#1f77b4;" x="85.602283" xlink:href="#m7c8a347cc8" y="77.473247"/>
     <use style="fill:#1f77b4;stroke:#1f77b4;" x="88.5483" xlink:href="#m7c8a347cc8" y="77.473247"/>
     <use style="fill:#1f77b4;stroke:#1f77b4;" x="91.494316" xlink:href="#m7c8a347cc8" y="77.473247"/>
     <use style="fill:#1f77b4;stroke:#1f77b4;" x="94.440333" xlink:href="#m7c8a347cc8" y="77.473247"/>
     <use style="fill:#1f77b4;stroke:#1f77b4;" x="97.38635" xlink:href="#m7c8a347cc8" y="99.042078"/>
     <use style="fill:#1f77b4;stroke:#1f77b4;" x="100.332366" xlink:href="#m7c8a347cc8" y="99.042078"/>
     <use style="fill:#1f77b4;stroke:#1f77b4;" x="103.278383" xlink:href="#m7c8a347cc8" y="99.042078"/>
     <use style="fill:#1f77b4;stroke:#1f77b4;" x="106.224399" xlink:href="#m7c8a347cc8" y="99.042078"/>
     <use style="fill:#1f77b4;stroke:#1f77b4;" x="109.170416" xlink:href="#m7c8a347cc8" y="99.042078"/>
     <use style="fill:#1f77b4;stroke:#1f77b4;" x="112.116433" xlink:href="#m7c8a347cc8" y="99.042078"/>
     <use style="fill:#1f77b4;stroke:#1f77b4;" x="115.062449" xlink:href="#m7c8a347cc8" y="99.042078"/>
     <use style="fill:#1f77b4;stroke:#1f77b4;" x="118.008466" xlink:href="#m7c8a347cc8" y="99.042078"/>
     <use style="fill:#1f77b4;stroke:#1f77b4;" x="120.954483" xlink:href="#m7c8a347cc8" y="99.042078"/>
     <use style="fill:#1f77b4;stroke:#1f77b4;" x="123.900499" xlink:href="#m7c8a347cc8" y="99.042078"/>
     <use style="fill:#1f77b4;stroke:#1f77b4;" x="126.846516" xlink:href="#m7c8a347cc8" y="99.042078"/>
     <use style="fill:#1f77b4;stroke:#1f77b4;" x="129.792533" xlink:href="#m7c8a347cc8" y="99.042078"/>
     <use style="fill:#1f77b4;stroke:#1f77b4;" x="132.738549" xlink:href="#m7c8a347cc8" y="120.610909"/>
     <use style="fill:#1f77b4;stroke:#1f77b4;" x="135.684566" xlink:href="#m7c8a347cc8" y="120.610909"/>
     <use style="fill:#1f77b4;stroke:#1f77b4;" x="138.630583" xlink:href="#m7c8a347cc8" y="120.610909"/>
     <use style="fill:#1f77b4;stroke:#1f77b4;" x="141.576599" xlink:href="#m7c8a347cc8" y="120.610909"/>
     <use style="fill:#1f77b4;stroke:#1f77b4;" x="144.522616" xlink:href="#m7c8a347cc8" y="120.610909"/>
     <use style="fill:#1f77b4;stroke:#1f77b4;" x="147.468633" xlink:href="#m7c8a347cc8" y="120.610909"/>
     <use style="fill:#1f77b4;stroke:#1f77b4;" x="150.414649" xlink:href="#m7c8a347cc8" y="120.610909"/>
     <use style="fill:#1f77b4;stroke:#1f77b4;" x="153.360666" xlink:href="#m7c8a347cc8" y="120.610909"/>
     <use style="fill:#1f77b4;stroke:#1f77b4;" x="156.306682" xlink:href="#m7c8a347cc8" y="142.17974"/>
     <use style="fill:#1f77b4;stroke:#1f77b4;" x="159.252699" xlink:href="#m7c8a347cc8" y="142.17974"/>
     <use style="fill:#1f77b4;stroke:#1f77b4;" x="162.198716" xlink:href="#m7c8a347cc8" y="142.17974"/>
     <use style="fill:#1f77b4;stroke:#1f77b4;" x="165.144732" xlink:href="#m7c8a347cc8" y="142.17974"/>
     <use style="fill:#1f77b4;stroke:#1f77b4;" x="168.090749" xlink:href="#m7c8a347cc8" y="142.17974"/>
     <use style="fill:#1f77b4;stroke:#1f77b4;" x="171.036766" xlink:href="#m7c8a347cc8" y="142.17974"/>
     <use style="fill:#1f77b4;stroke:#1f77b4;" x="173.982782" xlink:href="#m7c8a347cc8" y="142.17974"/>
     <use style="fill:#1f77b4;stroke:#1f77b4;" x="176.928799" xlink:href="#m7c8a347cc8" y="142.17974"/>
     <use style="fill:#1f77b4;stroke:#1f77b4;" x="179.874816" xlink:href="#m7c8a347cc8" y="163.748571"/>
     <use style="fill:#1f77b4;stroke:#1f77b4;" x="182.820832" xlink:href="#m7c8a347cc8" y="163.748571"/>
     <use style="fill:#1f77b4;stroke:#1f77b4;" x="185.766849" xlink:href="#m7c8a347cc8" y="163.748571"/>
     <use style="fill:#1f77b4;stroke:#1f77b4;" x="188.712866" xlink:href="#m7c8a347cc8" y="163.748571"/>
     <use style="fill:#1f77b4;stroke:#1f77b4;" x="191.658882" xlink:href="#m7c8a347cc8" y="163.748571"/>
     <use style="fill:#1f77b4;stroke:#1f77b4;" x="194.604899" xlink:href="#m7c8a347cc8" y="163.748571"/>
     <use style="fill:#1f77b4;stroke:#1f77b4;" x="197.550915" xlink:href="#m7c8a347cc8" y="163.748571"/>
     <use style="fill:#1f77b4;stroke:#1f77b4;" x="200.496932" xlink:href="#m7c8a347cc8" y="185.317403"/>
     <use style="fill:#1f77b4;stroke:#1f77b4;" x="203.442949" xlink:href="#m7c8a347cc8" y="185.317403"/>
     <use style="fill:#1f77b4;stroke:#1f77b4;" x="206.388965" xlink:href="#m7c8a347cc8" y="185.317403"/>
     <use style="fill:#1f77b4;stroke:#1f77b4;" x="209.334982" xlink:href="#m7c8a347cc8" y="185.317403"/>
     <use style="fill:#1f77b4;stroke:#1f77b4;" x="212.280999" xlink:href="#m7c8a347cc8" y="185.317403"/>
     <use style="fill:#1f77b4;stroke:#1f77b4;" x="215.227015" xlink:href="#m7c8a347cc8" y="185.317403"/>
     <use style="fill:#1f77b4;stroke:#1f77b4;" x="218.173032" xlink:href="#m7c8a347cc8" y="185.317403"/>
     <use style="fill:#1f77b4;stroke:#1f77b4;" x="221.119049" xlink:href="#m7c8a347cc8" y="185.317403"/>
     <use style="fill:#1f77b4;stroke:#1f77b4;" x="224.065065" xlink:href="#m7c8a347cc8" y="206.886234"/>
     <use style="fill:#1f77b4;stroke:#1f77b4;" x="227.011082" xlink:href="#m7c8a347cc8" y="206.886234"/>
     <use style="fill:#1f77b4;stroke:#1f77b4;" x="229.957099" xlink:href="#m7c8a347cc8" y="206.886234"/>
     <use style="fill:#1f77b4;stroke:#1f77b4;" x="232.903115" xlink:href="#m7c8a347cc8" y="206.886234"/>
     <use style="fill:#1f77b4;stroke:#1f77b4;" x="235.849132" xlink:href="#m7c8a347cc8" y="206.886234"/>
     <use style="fill:#1f77b4;stroke:#1f77b4;" x="238.795149" xlink:href="#m7c8a347cc8" y="206.886234"/>
     <use style="fill:#1f77b4;stroke:#1f77b4;" x="241.741165" xlink:href="#m7c8a347cc8" y="206.886234"/>
     <use style="fill:#1f77b4;stroke:#1f77b4;" x="244.687182" xlink:href="#m7c8a347cc8" y="228.455065"/>
     <use style="fill:#1f77b4;stroke:#1f77b4;" x="247.633198" xlink:href="#m7c8a347cc8" y="228.455065"/>
     <use style="fill:#1f77b4;stroke:#1f77b4;" x="250.579215" xlink:href="#m7c8a347cc8" y="228.455065"/>
     <use style="fill:#1f77b4;stroke:#1f77b4;" x="253.525232" xlink:href="#m7c8a347cc8" y="228.455065"/>
     <use style="fill:#1f77b4;stroke:#1f77b4;" x="256.471248" xlink:href="#m7c8a347cc8" y="228.455065"/>
     <use style="fill:#1f77b4;stroke:#1f77b4;" x="259.417265" xlink:href="#m7c8a347cc8" y="228.455065"/>
     <use style="fill:#1f77b4;stroke:#1f77b4;" x="262.363282" xlink:href="#m7c8a347cc8" y="228.455065"/>
     <use style="fill:#1f77b4;stroke:#1f77b4;" x="265.309298" xlink:href="#m7c8a347cc8" y="250.023896"/>
     <use style="fill:#1f77b4;stroke:#1f77b4;" x="268.255315" xlink:href="#m7c8a347cc8" y="250.023896"/>
     <use style="fill:#1f77b4;stroke:#1f77b4;" x="271.201332" xlink:href="#m7c8a347cc8" y="250.023896"/>
     <use style="fill:#1f77b4;stroke:#1f77b4;" x="274.147348" xlink:href="#m7c8a347cc8" y="250.023896"/>
     <use style="fill:#1f77b4;stroke:#1f77b4;" x="277.093365" xlink:href="#m7c8a347cc8" y="250.023896"/>
     <use style="fill:#1f77b4;stroke:#1f77b4;" x="280.039382" xlink:href="#m7c8a347cc8" y="250.023896"/>
     <use style="fill:#1f77b4;stroke:#1f77b4;" x="282.985398" xlink:href="#m7c8a347cc8" y="250.023896"/>
     <use style="fill:#1f77b4;stroke:#1f77b4;" x="285.931415" xlink:href="#m7c8a347cc8" y="271.592727"/>
     <use style="fill:#1f77b4;stroke:#1f77b4;" x="288.877432" xlink:href="#m7c8a347cc8" y="271.592727"/>
     <use style="fill:#1f77b4;stroke:#1f77b4;" x="291.823448" xlink:href="#m7c8a347cc8" y="271.592727"/>
     <use style="fill:#1f77b4;stroke:#1f77b4;" x="294.769465" xlink:href="#m7c8a347cc8" y="293.161558"/>
     <use style="fill:#1f77b4;stroke:#1f77b4;" x="297.715481" xlink:href="#m7c8a347cc8" y="293.161558"/>
     <use style="fill:#1f77b4;stroke:#1f77b4;" x="300.661498" xlink:href="#m7c8a347cc8" y="271.592727"/>
     <use style="fill:#1f77b4;stroke:#1f77b4;" x="303.607515" xlink:href="#m7c8a347cc8" y="293.161558"/>
     <use style="fill:#1f77b4;stroke:#1f77b4;" x="306.553531" xlink:href="#m7c8a347cc8" y="293.161558"/>
     <use style="fill:#1f77b4;stroke:#1f77b4;" x="309.499548" xlink:href="#m7c8a347cc8" y="293.161558"/>
     <use style="fill:#1f77b4;stroke:#1f77b4;" x="312.445565" xlink:href="#m7c8a347cc8" y="271.592727"/>
     <use style="fill:#1f77b4;stroke:#1f77b4;" x="315.391581" xlink:href="#m7c8a347cc8" y="293.161558"/>
     <use style="fill:#1f77b4;stroke:#1f77b4;" x="318.337598" xlink:href="#m7c8a347cc8" y="293.161558"/>
     <use style="fill:#1f77b4;stroke:#1f77b4;" x="321.283615" xlink:href="#m7c8a347cc8" y="293.161558"/>
     <use style="fill:#1f77b4;stroke:#1f77b4;" x="324.229631" xlink:href="#m7c8a347cc8" y="293.161558"/>
     <use style="fill:#1f77b4;stroke:#1f77b4;" x="327.175648" xlink:href="#m7c8a347cc8" y="293.161558"/>
     <use style="fill:#1f77b4;stroke:#1f77b4;" x="330.121665" xlink:href="#m7c8a347cc8" y="293.161558"/>
     <use style="fill:#1f77b4;stroke:#1f77b4;" x="333.067681" xlink:href="#m7c8a347cc8" y="293.161558"/>
     <use style="fill:#1f77b4;stroke:#1f77b4;" x="336.013698" xlink:href="#m7c8a347cc8" y="293.161558"/>
     <use style="fill:#1f77b4;stroke:#1f77b4;" x="338.959714" xlink:href="#m7c8a347cc8" y="293.161558"/>
     <use style="fill:#1f77b4;stroke:#1f77b4;" x="341.905731" xlink:href="#m7c8a347cc8" y="293.161558"/>
     <use style="fill:#1f77b4;stroke:#1f77b4;" x="344.851748" xlink:href="#m7c8a347cc8" y="293.161558"/>
     <use style="fill:#1f77b4;stroke:#1f77b4;" x="347.797764" xlink:href="#m7c8a347cc8" y="293.161558"/>
     <use style="fill:#1f77b4;stroke:#1f77b4;" x="350.743781" xlink:href="#m7c8a347cc8" y="293.161558"/>
     <use style="fill:#1f77b4;stroke:#1f77b4;" x="353.689798" xlink:href="#m7c8a347cc8" y="293.161558"/>
     <use style="fill:#1f77b4;stroke:#1f77b4;" x="356.635814" xlink:href="#m7c8a347cc8" y="34.335584"/>
    </g>
   </g>
   <g id="PathCollection_2">
    <defs>
     <path d="M 0 3 
C 0.795609 3 1.55874 2.683901 2.12132 2.12132 
C 2.683901 1.55874 3 0.795609 3 0 
C 3 -0.795609 2.683901 -1.55874 2.12132 -2.12132 
C 1.55874 -2.683901 0.795609 -3 0 -3 
C -0.795609 -3 -1.55874 -2.683901 -2.12132 -2.12132 
C -2.683901 -1.55874 -3 -0.795609 -3 0 
C -3 0.795609 -2.683901 1.55874 -2.12132 2.12132 
C -1.55874 2.683901 -0.795609 3 0 3 
z
" id="mdc94c1cdb6" style="stroke:#ff7f0e;"/>
    </defs>
    <g clip-path="url(#p427ae471c3)">
     <use style="fill:#ff7f0e;stroke:#ff7f0e;" x="35.52" xlink:href="#mdc94c1cdb6" y="71.249524"/>
     <use style="fill:#ff7f0e;stroke:#ff7f0e;" x="38.466017" xlink:href="#mdc94c1cdb6" y="71.328433"/>
     <use style="fill:#ff7f0e;stroke:#ff7f0e;" x="41.412033" xlink:href="#mdc94c1cdb6" y="71.401839"/>
     <use style="fill:#ff7f0e;stroke:#ff7f0e;" x="44.35805" xlink:href="#mdc94c1cdb6" y="71.433658"/>
     <use style="fill:#ff7f0e;stroke:#ff7f0e;" x="47.304067" xlink:href="#mdc94c1cdb6" y="71.479711"/>
     <use style="fill:#ff7f0e;stroke:#ff7f0e;" x="50.250083" xlink:href="#mdc94c1cdb6" y="71.605013"/>
     <use style="fill:#ff7f0e;stroke:#ff7f0e;" x="53.1961" xlink:href="#mdc94c1cdb6" y="71.623465"/>
     <use style="fill:#ff7f0e;stroke:#ff7f0e;" x="56.142117" xlink:href="#mdc94c1cdb6" y="71.790873"/>
     <use style="fill:#ff7f0e;stroke:#ff7f0e;" x="59.088133" xlink:href="#mdc94c1cdb6" y="71.839082"/>
     <use style="fill:#ff7f0e;stroke:#ff7f0e;" x="62.03415" xlink:href="#mdc94c1cdb6" y="72.006693"/>
     <use style="fill:#ff7f0e;stroke:#ff7f0e;" x="64.980166" xlink:href="#mdc94c1cdb6" y="72.088722"/>
     <use style="fill:#ff7f0e;stroke:#ff7f0e;" x="67.926183" xlink:href="#mdc94c1cdb6" y="72.341231"/>
     <use style="fill:#ff7f0e;stroke:#ff7f0e;" x="70.8722" xlink:href="#mdc94c1cdb6" y="72.656868"/>
     <use style="fill:#ff7f0e;stroke:#ff7f0e;" x="73.818216" xlink:href="#mdc94c1cdb6" y="72.942847"/>
     <use style="fill:#ff7f0e;stroke:#ff7f0e;" x="76.764233" xlink:href="#mdc94c1cdb6" y="73.423499"/>
     <use style="fill:#ff7f0e;stroke:#ff7f0e;" x="79.71025" xlink:href="#mdc94c1cdb6" y="73.870688"/>
     <use style="fill:#ff7f0e;stroke:#ff7f0e;" x="82.656266" xlink:href="#mdc94c1cdb6" y="74.508661"/>
     <use style="fill:#ff7f0e;stroke:#ff7f0e;" x="85.602283" xlink:href="#mdc94c1cdb6" y="75.445394"/>
     <use style="fill:#ff7f0e;stroke:#ff7f0e;" x="88.5483" xlink:href="#mdc94c1cdb6" y="76.399025"/>
     <use style="fill:#ff7f0e;stroke:#ff7f0e;" x="91.494316" xlink:href="#mdc94c1cdb6" y="77.379089"/>
     <use style="fill:#ff7f0e;stroke:#ff7f0e;" x="94.440333" xlink:href="#mdc94c1cdb6" y="78.429203"/>
     <use style="fill:#ff7f0e;stroke:#ff7f0e;" x="97.38635" xlink:href="#mdc94c1cdb6" y="79.628891"/>
     <use style="fill:#ff7f0e;stroke:#ff7f0e;" x="100.332366" xlink:href="#mdc94c1cdb6" y="80.925825"/>
     <use style="fill:#ff7f0e;stroke:#ff7f0e;" x="103.278383" xlink:href="#mdc94c1cdb6" y="82.57375"/>
     <use style="fill:#ff7f0e;stroke:#ff7f0e;" x="106.224399" xlink:href="#mdc94c1cdb6" y="84.063798"/>
     <use style="fill:#ff7f0e;stroke:#ff7f0e;" x="109.170416" xlink:href="#mdc94c1cdb6" y="85.554899"/>
     <use style="fill:#ff7f0e;stroke:#ff7f0e;" x="112.116433" xlink:href="#mdc94c1cdb6" y="87.332274"/>
     <use style="fill:#ff7f0e;stroke:#ff7f0e;" x="115.062449" xlink:href="#mdc94c1cdb6" y="89.072164"/>
     <use style="fill:#ff7f0e;stroke:#ff7f0e;" x="118.008466" xlink:href="#mdc94c1cdb6" y="90.863145"/>
     <use style="fill:#ff7f0e;stroke:#ff7f0e;" x="120.954483" xlink:href="#mdc94c1cdb6" y="93.058212"/>
     <use style="fill:#ff7f0e;stroke:#ff7f0e;" x="123.900499" xlink:href="#mdc94c1cdb6" y="94.960113"/>
     <use style="fill:#ff7f0e;stroke:#ff7f0e;" x="126.846516" xlink:href="#mdc94c1cdb6" y="97.140757"/>
     <use style="fill:#ff7f0e;stroke:#ff7f0e;" x="129.792533" xlink:href="#mdc94c1cdb6" y="99.285687"/>
     <use style="fill:#ff7f0e;stroke:#ff7f0e;" x="132.738549" xlink:href="#mdc94c1cdb6" y="101.399681"/>
     <use style="fill:#ff7f0e;stroke:#ff7f0e;" x="135.684566" xlink:href="#mdc94c1cdb6" y="103.797292"/>
     <use style="fill:#ff7f0e;stroke:#ff7f0e;" x="138.630583" xlink:href="#mdc94c1cdb6" y="106.215816"/>
     <use style="fill:#ff7f0e;stroke:#ff7f0e;" x="141.576599" xlink:href="#mdc94c1cdb6" y="108.294287"/>
     <use style="fill:#ff7f0e;stroke:#ff7f0e;" x="144.522616" xlink:href="#mdc94c1cdb6" y="110.685774"/>
     <use style="fill:#ff7f0e;stroke:#ff7f0e;" x="147.468633" xlink:href="#mdc94c1cdb6" y="112.965746"/>
     <use style="fill:#ff7f0e;stroke:#ff7f0e;" x="150.414649" xlink:href="#mdc94c1cdb6" y="115.19645"/>
     <use style="fill:#ff7f0e;stroke:#ff7f0e;" x="153.360666" xlink:href="#mdc94c1cdb6" y="118.01649"/>
     <use style="fill:#ff7f0e;stroke:#ff7f0e;" x="156.306682" xlink:href="#mdc94c1cdb6" y="120.378395"/>
     <use style="fill:#ff7f0e;stroke:#ff7f0e;" x="159.252699" xlink:href="#mdc94c1cdb6" y="122.865119"/>
     <use style="fill:#ff7f0e;stroke:#ff7f0e;" x="162.198716" xlink:href="#mdc94c1cdb6" y="125.272699"/>
     <use style="fill:#ff7f0e;stroke:#ff7f0e;" x="165.144732" xlink:href="#mdc94c1cdb6" y="127.711182"/>
     <use style="fill:#ff7f0e;stroke:#ff7f0e;" x="168.090749" xlink:href="#mdc94c1cdb6" y="130.178556"/>
     <use style="fill:#ff7f0e;stroke:#ff7f0e;" x="171.036766" xlink:href="#mdc94c1cdb6" y="133.155341"/>
     <use style="fill:#ff7f0e;stroke:#ff7f0e;" x="173.982782" xlink:href="#mdc94c1cdb6" y="135.667161"/>
     <use style="fill:#ff7f0e;stroke:#ff7f0e;" x="176.928799" xlink:href="#mdc94c1cdb6" y="138.200603"/>
     <use style="fill:#ff7f0e;stroke:#ff7f0e;" x="179.874816" xlink:href="#mdc94c1cdb6" y="140.779098"/>
     <use style="fill:#ff7f0e;stroke:#ff7f0e;" x="182.820832" xlink:href="#mdc94c1cdb6" y="143.363726"/>
     <use style="fill:#ff7f0e;stroke:#ff7f0e;" x="185.766849" xlink:href="#mdc94c1cdb6" y="145.964986"/>
     <use style="fill:#ff7f0e;stroke:#ff7f0e;" x="188.712866" xlink:href="#mdc94c1cdb6" y="149.123924"/>
     <use style="fill:#ff7f0e;stroke:#ff7f0e;" x="191.658882" xlink:href="#mdc94c1cdb6" y="151.778215"/>
     <use style="fill:#ff7f0e;stroke:#ff7f0e;" x="194.604899" xlink:href="#mdc94c1cdb6" y="154.437602"/>
     <use style="fill:#ff7f0e;stroke:#ff7f0e;" x="197.550915" xlink:href="#mdc94c1cdb6" y="157.129903"/>
     <use style="fill:#ff7f0e;stroke:#ff7f0e;" x="200.496932" xlink:href="#mdc94c1cdb6" y="159.816253"/>
     <use style="fill:#ff7f0e;stroke:#ff7f0e;" x="203.442949" xlink:href="#mdc94c1cdb6" y="162.536791"/>
     <use style="fill:#ff7f0e;stroke:#ff7f0e;" x="206.388965" xlink:href="#mdc94c1cdb6" y="165.816987"/>
     <use style="fill:#ff7f0e;stroke:#ff7f0e;" x="209.334982" xlink:href="#mdc94c1cdb6" y="168.581559"/>
     <use style="fill:#ff7f0e;stroke:#ff7f0e;" x="212.280999" xlink:href="#mdc94c1cdb6" y="171.365083"/>
     <use style="fill:#ff7f0e;stroke:#ff7f0e;" x="215.227015" xlink:href="#mdc94c1cdb6" y="174.06854"/>
     <use style="fill:#ff7f0e;stroke:#ff7f0e;" x="218.173032" xlink:href="#mdc94c1cdb6" y="176.994499"/>
     <use style="fill:#ff7f0e;stroke:#ff7f0e;" x="221.119049" xlink:href="#mdc94c1cdb6" y="179.845786"/>
     <use style="fill:#ff7f0e;stroke:#ff7f0e;" x="224.065065" xlink:href="#mdc94c1cdb6" y="183.302106"/>
     <use style="fill:#ff7f0e;stroke:#ff7f0e;" x="227.011082" xlink:href="#mdc94c1cdb6" y="186.114658"/>
     <use style="fill:#ff7f0e;stroke:#ff7f0e;" x="229.957099" xlink:href="#mdc94c1cdb6" y="189.088248"/>
     <use style="fill:#ff7f0e;stroke:#ff7f0e;" x="232.903115" xlink:href="#mdc94c1cdb6" y="192.034279"/>
     <use style="fill:#ff7f0e;stroke:#ff7f0e;" x="235.849132" xlink:href="#mdc94c1cdb6" y="194.967593"/>
     <use style="fill:#ff7f0e;stroke:#ff7f0e;" x="238.795149" xlink:href="#mdc94c1cdb6" y="198.52189"/>
     <use style="fill:#ff7f0e;stroke:#ff7f0e;" x="241.741165" xlink:href="#mdc94c1cdb6" y="201.473053"/>
     <use style="fill:#ff7f0e;stroke:#ff7f0e;" x="244.687182" xlink:href="#mdc94c1cdb6" y="204.120651"/>
     <use style="fill:#ff7f0e;stroke:#ff7f0e;" x="247.633198" xlink:href="#mdc94c1cdb6" y="207.381962"/>
     <use style="fill:#ff7f0e;stroke:#ff7f0e;" x="250.579215" xlink:href="#mdc94c1cdb6" y="210.333028"/>
     <use style="fill:#ff7f0e;stroke:#ff7f0e;" x="253.525232" xlink:href="#mdc94c1cdb6" y="213.239955"/>
     <use style="fill:#ff7f0e;stroke:#ff7f0e;" x="256.471248" xlink:href="#mdc94c1cdb6" y="216.787007"/>
     <use style="fill:#ff7f0e;stroke:#ff7f0e;" x="259.417265" xlink:href="#mdc94c1cdb6" y="219.599406"/>
     <use style="fill:#ff7f0e;stroke:#ff7f0e;" x="262.363282" xlink:href="#mdc94c1cdb6" y="222.595617"/>
     <use style="fill:#ff7f0e;stroke:#ff7f0e;" x="265.309298" xlink:href="#mdc94c1cdb6" y="225.430235"/>
     <use style="fill:#ff7f0e;stroke:#ff7f0e;" x="268.255315" xlink:href="#mdc94c1cdb6" y="228.271488"/>
     <use style="fill:#ff7f0e;stroke:#ff7f0e;" x="271.201332" xlink:href="#mdc94c1cdb6" y="231.052402"/>
     <use style="fill:#ff7f0e;stroke:#ff7f0e;" x="274.147348" xlink:href="#mdc94c1cdb6" y="234.230786"/>
     <use style="fill:#ff7f0e;stroke:#ff7f0e;" x="277.093365" xlink:href="#mdc94c1cdb6" y="236.982123"/>
     <use style="fill:#ff7f0e;stroke:#ff7f0e;" x="280.039382" xlink:href="#mdc94c1cdb6" y="239.712926"/>
     <use style="fill:#ff7f0e;stroke:#ff7f0e;" x="282.985398" xlink:href="#mdc94c1cdb6" y="242.339744"/>
     <use style="fill:#ff7f0e;stroke:#ff7f0e;" x="285.931415" xlink:href="#mdc94c1cdb6" y="244.822274"/>
     <use style="fill:#ff7f0e;stroke:#ff7f0e;" x="288.877432" xlink:href="#mdc94c1cdb6" y="247.361859"/>
     <use style="fill:#ff7f0e;stroke:#ff7f0e;" x="291.823448" xlink:href="#mdc94c1cdb6" y="250.268404"/>
     <use style="fill:#ff7f0e;stroke:#ff7f0e;" x="294.769465" xlink:href="#mdc94c1cdb6" y="252.601085"/>
     <use style="fill:#ff7f0e;stroke:#ff7f0e;" x="297.715481" xlink:href="#mdc94c1cdb6" y="254.751752"/>
     <use style="fill:#ff7f0e;stroke:#ff7f0e;" x="300.661498" xlink:href="#mdc94c1cdb6" y="256.906931"/>
     <use style="fill:#ff7f0e;stroke:#ff7f0e;" x="303.607515" xlink:href="#mdc94c1cdb6" y="259.147568"/>
     <use style="fill:#ff7f0e;stroke:#ff7f0e;" x="306.553531" xlink:href="#mdc94c1cdb6" y="261.195832"/>
     <use style="fill:#ff7f0e;stroke:#ff7f0e;" x="309.499548" xlink:href="#mdc94c1cdb6" y="263.565785"/>
     <use style="fill:#ff7f0e;stroke:#ff7f0e;" x="312.445565" xlink:href="#mdc94c1cdb6" y="265.452041"/>
     <use style="fill:#ff7f0e;stroke:#ff7f0e;" x="315.391581" xlink:href="#mdc94c1cdb6" y="267.192529"/>
     <use style="fill:#ff7f0e;stroke:#ff7f0e;" x="318.337598" xlink:href="#mdc94c1cdb6" y="268.972783"/>
     <use style="fill:#ff7f0e;stroke:#ff7f0e;" x="321.283615" xlink:href="#mdc94c1cdb6" y="270.695853"/>
     <use style="fill:#ff7f0e;stroke:#ff7f0e;" x="324.229631" xlink:href="#mdc94c1cdb6" y="272.638316"/>
     <use style="fill:#ff7f0e;stroke:#ff7f0e;" x="327.175648" xlink:href="#mdc94c1cdb6" y="274.313048"/>
     <use style="fill:#ff7f0e;stroke:#ff7f0e;" x="330.121665" xlink:href="#mdc94c1cdb6" y="275.834009"/>
     <use style="fill:#ff7f0e;stroke:#ff7f0e;" x="333.067681" xlink:href="#mdc94c1cdb6" y="277.131648"/>
     <use style="fill:#ff7f0e;stroke:#ff7f0e;" x="336.013698" xlink:href="#mdc94c1cdb6" y="278.659634"/>
     <use style="fill:#ff7f0e;stroke:#ff7f0e;" x="338.959714" xlink:href="#mdc94c1cdb6" y="279.868772"/>
     <use style="fill:#ff7f0e;stroke:#ff7f0e;" x="341.905731" xlink:href="#mdc94c1cdb6" y="281.460381"/>
     <use style="fill:#ff7f0e;stroke:#ff7f0e;" x="344.851748" xlink:href="#mdc94c1cdb6" y="282.61562"/>
     <use style="fill:#ff7f0e;stroke:#ff7f0e;" x="347.797764" xlink:href="#mdc94c1cdb6" y="283.751975"/>
     <use style="fill:#ff7f0e;stroke:#ff7f0e;" x="350.743781" xlink:href="#mdc94c1cdb6" y="284.936165"/>
     <use style="fill:#ff7f0e;stroke:#ff7f0e;" x="353.689798" xlink:href="#mdc94c1cdb6" y="286.088427"/>
     <use style="fill:#ff7f0e;stroke:#ff7f0e;" x="356.635814" xlink:href="#mdc94c1cdb6" y="287.288009"/>
    </g>
   </g>
   <g id="matplotlib.axis_1">
    <g id="xtick_1">
     <g id="line2d_1">
      <defs>
       <path d="M 0 0 
L 0 3.5 
" id="madf031543e" style="stroke:#000000;stroke-width:0.8;"/>
      </defs>
      <g>
       <use style="stroke:#000000;stroke-width:0.8;" x="35.52" xlink:href="#madf031543e" y="306.102857"/>
      </g>
     </g>
     <g id="text_1">
      <!-- 0 -->
      <defs>
       <path d="M 31.78125 66.40625 
Q 24.171875 66.40625 20.328125 58.90625 
Q 16.5 51.421875 16.5 36.375 
Q 16.5 21.390625 20.328125 13.890625 
Q 24.171875 6.390625 31.78125 6.390625 
Q 39.453125 6.390625 43.28125 13.890625 
Q 47.125 21.390625 47.125 36.375 
Q 47.125 51.421875 43.28125 58.90625 
Q 39.453125 66.40625 31.78125 66.40625 
z
M 31.78125 74.21875 
Q 44.046875 74.21875 50.515625 64.515625 
Q 56.984375 54.828125 56.984375 36.375 
Q 56.984375 17.96875 50.515625 8.265625 
Q 44.046875 -1.421875 31.78125 -1.421875 
Q 19.53125 -1.421875 13.0625 8.265625 
Q 6.59375 17.96875 6.59375 36.375 
Q 6.59375 54.828125 13.0625 64.515625 
Q 19.53125 74.21875 31.78125 74.21875 
z
" id="DejaVuSans-48"/>
      </defs>
      <g transform="translate(31.06625 323.74067)scale(0.14 -0.14)">
       <use xlink:href="#DejaVuSans-48"/>
      </g>
     </g>
    </g>
    <g id="xtick_2">
     <g id="line2d_2">
      <g>
       <use style="stroke:#000000;stroke-width:0.8;" x="80.64" xlink:href="#madf031543e" y="306.102857"/>
      </g>
     </g>
     <g id="text_2">
      <!-- 1 -->
      <defs>
       <path d="M 12.40625 8.296875 
L 28.515625 8.296875 
L 28.515625 63.921875 
L 10.984375 60.40625 
L 10.984375 69.390625 
L 28.421875 72.90625 
L 38.28125 72.90625 
L 38.28125 8.296875 
L 54.390625 8.296875 
L 54.390625 0 
L 12.40625 0 
z
" id="DejaVuSans-49"/>
      </defs>
      <g transform="translate(76.18625 323.74067)scale(0.14 -0.14)">
       <use xlink:href="#DejaVuSans-49"/>
      </g>
     </g>
    </g>
    <g id="xtick_3">
     <g id="line2d_3">
      <g>
       <use style="stroke:#000000;stroke-width:0.8;" x="125.76" xlink:href="#madf031543e" y="306.102857"/>
      </g>
     </g>
     <g id="text_3">
      <!-- 2 -->
      <defs>
       <path d="M 19.1875 8.296875 
L 53.609375 8.296875 
L 53.609375 0 
L 7.328125 0 
L 7.328125 8.296875 
Q 12.9375 14.109375 22.625 23.890625 
Q 32.328125 33.6875 34.8125 36.53125 
Q 39.546875 41.84375 41.421875 45.53125 
Q 43.3125 49.21875 43.3125 52.78125 
Q 43.3125 58.59375 39.234375 62.25 
Q 35.15625 65.921875 28.609375 65.921875 
Q 23.96875 65.921875 18.8125 64.3125 
Q 13.671875 62.703125 7.8125 59.421875 
L 7.8125 69.390625 
Q 13.765625 71.78125 18.9375 73 
Q 24.125 74.21875 28.421875 74.21875 
Q 39.75 74.21875 46.484375 68.546875 
Q 53.21875 62.890625 53.21875 53.421875 
Q 53.21875 48.921875 51.53125 44.890625 
Q 49.859375 40.875 45.40625 35.40625 
Q 44.1875 33.984375 37.640625 27.21875 
Q 31.109375 20.453125 19.1875 8.296875 
z
" id="DejaVuSans-50"/>
      </defs>
      <g transform="translate(121.30625 323.74067)scale(0.14 -0.14)">
       <use xlink:href="#DejaVuSans-50"/>
      </g>
     </g>
    </g>
    <g id="xtick_4">
     <g id="line2d_4">
      <g>
       <use style="stroke:#000000;stroke-width:0.8;" x="170.88" xlink:href="#madf031543e" y="306.102857"/>
      </g>
     </g>
     <g id="text_4">
      <!-- 3 -->
      <defs>
       <path d="M 40.578125 39.3125 
Q 47.65625 37.796875 51.625 33 
Q 55.609375 28.21875 55.609375 21.1875 
Q 55.609375 10.40625 48.1875 4.484375 
Q 40.765625 -1.421875 27.09375 -1.421875 
Q 22.515625 -1.421875 17.65625 -0.515625 
Q 12.796875 0.390625 7.625 2.203125 
L 7.625 11.71875 
Q 11.71875 9.328125 16.59375 8.109375 
Q 21.484375 6.890625 26.8125 6.890625 
Q 36.078125 6.890625 40.9375 10.546875 
Q 45.796875 14.203125 45.796875 21.1875 
Q 45.796875 27.640625 41.28125 31.265625 
Q 36.765625 34.90625 28.71875 34.90625 
L 20.21875 34.90625 
L 20.21875 43.015625 
L 29.109375 43.015625 
Q 36.375 43.015625 40.234375 45.921875 
Q 44.09375 48.828125 44.09375 54.296875 
Q 44.09375 59.90625 40.109375 62.90625 
Q 36.140625 65.921875 28.71875 65.921875 
Q 24.65625 65.921875 20.015625 65.03125 
Q 15.375 64.15625 9.8125 62.3125 
L 9.8125 71.09375 
Q 15.4375 72.65625 20.34375 73.4375 
Q 25.25 74.21875 29.59375 74.21875 
Q 40.828125 74.21875 47.359375 69.109375 
Q 53.90625 64.015625 53.90625 55.328125 
Q 53.90625 49.265625 50.4375 45.09375 
Q 46.96875 40.921875 40.578125 39.3125 
z
" id="DejaVuSans-51"/>
      </defs>
      <g transform="translate(166.42625 323.74067)scale(0.14 -0.14)">
       <use xlink:href="#DejaVuSans-51"/>
      </g>
     </g>
    </g>
    <g id="xtick_5">
     <g id="line2d_5">
      <g>
       <use style="stroke:#000000;stroke-width:0.8;" x="216" xlink:href="#madf031543e" y="306.102857"/>
      </g>
     </g>
     <g id="text_5">
      <!-- 4 -->
      <defs>
       <path d="M 37.796875 64.3125 
L 12.890625 25.390625 
L 37.796875 25.390625 
z
M 35.203125 72.90625 
L 47.609375 72.90625 
L 47.609375 25.390625 
L 58.015625 25.390625 
L 58.015625 17.1875 
L 47.609375 17.1875 
L 47.609375 0 
L 37.796875 0 
L 37.796875 17.1875 
L 4.890625 17.1875 
L 4.890625 26.703125 
z
" id="DejaVuSans-52"/>
      </defs>
      <g transform="translate(211.54625 323.74067)scale(0.14 -0.14)">
       <use xlink:href="#DejaVuSans-52"/>
      </g>
     </g>
    </g>
    <g id="xtick_6">
     <g id="line2d_6">
      <g>
       <use style="stroke:#000000;stroke-width:0.8;" x="261.12" xlink:href="#madf031543e" y="306.102857"/>
      </g>
     </g>
     <g id="text_6">
      <!-- 5 -->
      <defs>
       <path d="M 10.796875 72.90625 
L 49.515625 72.90625 
L 49.515625 64.59375 
L 19.828125 64.59375 
L 19.828125 46.734375 
Q 21.96875 47.46875 24.109375 47.828125 
Q 26.265625 48.1875 28.421875 48.1875 
Q 40.625 48.1875 47.75 41.5 
Q 54.890625 34.8125 54.890625 23.390625 
Q 54.890625 11.625 47.5625 5.09375 
Q 40.234375 -1.421875 26.90625 -1.421875 
Q 22.3125 -1.421875 17.546875 -0.640625 
Q 12.796875 0.140625 7.71875 1.703125 
L 7.71875 11.625 
Q 12.109375 9.234375 16.796875 8.0625 
Q 21.484375 6.890625 26.703125 6.890625 
Q 35.15625 6.890625 40.078125 11.328125 
Q 45.015625 15.765625 45.015625 23.390625 
Q 45.015625 31 40.078125 35.4375 
Q 35.15625 39.890625 26.703125 39.890625 
Q 22.75 39.890625 18.8125 39.015625 
Q 14.890625 38.140625 10.796875 36.28125 
z
" id="DejaVuSans-53"/>
      </defs>
      <g transform="translate(256.66625 323.74067)scale(0.14 -0.14)">
       <use xlink:href="#DejaVuSans-53"/>
      </g>
     </g>
    </g>
    <g id="xtick_7">
     <g id="line2d_7">
      <g>
       <use style="stroke:#000000;stroke-width:0.8;" x="306.24" xlink:href="#madf031543e" y="306.102857"/>
      </g>
     </g>
     <g id="text_7">
      <!-- 6 -->
      <defs>
       <path d="M 33.015625 40.375 
Q 26.375 40.375 22.484375 35.828125 
Q 18.609375 31.296875 18.609375 23.390625 
Q 18.609375 15.53125 22.484375 10.953125 
Q 26.375 6.390625 33.015625 6.390625 
Q 39.65625 6.390625 43.53125 10.953125 
Q 47.40625 15.53125 47.40625 23.390625 
Q 47.40625 31.296875 43.53125 35.828125 
Q 39.65625 40.375 33.015625 40.375 
z
M 52.59375 71.296875 
L 52.59375 62.3125 
Q 48.875 64.0625 45.09375 64.984375 
Q 41.3125 65.921875 37.59375 65.921875 
Q 27.828125 65.921875 22.671875 59.328125 
Q 17.53125 52.734375 16.796875 39.40625 
Q 19.671875 43.65625 24.015625 45.921875 
Q 28.375 48.1875 33.59375 48.1875 
Q 44.578125 48.1875 50.953125 41.515625 
Q 57.328125 34.859375 57.328125 23.390625 
Q 57.328125 12.15625 50.6875 5.359375 
Q 44.046875 -1.421875 33.015625 -1.421875 
Q 20.359375 -1.421875 13.671875 8.265625 
Q 6.984375 17.96875 6.984375 36.375 
Q 6.984375 53.65625 15.1875 63.9375 
Q 23.390625 74.21875 37.203125 74.21875 
Q 40.921875 74.21875 44.703125 73.484375 
Q 48.484375 72.75 52.59375 71.296875 
z
" id="DejaVuSans-54"/>
      </defs>
      <g transform="translate(301.78625 323.74067)scale(0.14 -0.14)">
       <use xlink:href="#DejaVuSans-54"/>
      </g>
     </g>
    </g>
    <g id="xtick_8">
     <g id="line2d_8">
      <g>
       <use style="stroke:#000000;stroke-width:0.8;" x="351.36" xlink:href="#madf031543e" y="306.102857"/>
      </g>
     </g>
     <g id="text_8">
      <!-- 7 -->
      <defs>
       <path d="M 8.203125 72.90625 
L 55.078125 72.90625 
L 55.078125 68.703125 
L 28.609375 0 
L 18.3125 0 
L 43.21875 64.59375 
L 8.203125 64.59375 
z
" id="DejaVuSans-55"/>
      </defs>
      <g transform="translate(346.90625 323.74067)scale(0.14 -0.14)">
       <use xlink:href="#DejaVuSans-55"/>
      </g>
     </g>
    </g>
    <g id="xtick_9">
     <g id="line2d_9">
      <g>
       <use style="stroke:#000000;stroke-width:0.8;" x="396.48" xlink:href="#madf031543e" y="306.102857"/>
      </g>
     </g>
     <g id="text_9">
      <!-- 8 -->
      <defs>
       <path d="M 31.78125 34.625 
Q 24.75 34.625 20.71875 30.859375 
Q 16.703125 27.09375 16.703125 20.515625 
Q 16.703125 13.921875 20.71875 10.15625 
Q 24.75 6.390625 31.78125 6.390625 
Q 38.8125 6.390625 42.859375 10.171875 
Q 46.921875 13.96875 46.921875 20.515625 
Q 46.921875 27.09375 42.890625 30.859375 
Q 38.875 34.625 31.78125 34.625 
z
M 21.921875 38.8125 
Q 15.578125 40.375 12.03125 44.71875 
Q 8.5 49.078125 8.5 55.328125 
Q 8.5 64.0625 14.71875 69.140625 
Q 20.953125 74.21875 31.78125 74.21875 
Q 42.671875 74.21875 48.875 69.140625 
Q 55.078125 64.0625 55.078125 55.328125 
Q 55.078125 49.078125 51.53125 44.71875 
Q 48 40.375 41.703125 38.8125 
Q 48.828125 37.15625 52.796875 32.3125 
Q 56.78125 27.484375 56.78125 20.515625 
Q 56.78125 9.90625 50.3125 4.234375 
Q 43.84375 -1.421875 31.78125 -1.421875 
Q 19.734375 -1.421875 13.25 4.234375 
Q 6.78125 9.90625 6.78125 20.515625 
Q 6.78125 27.484375 10.78125 32.3125 
Q 14.796875 37.15625 21.921875 38.8125 
z
M 18.3125 54.390625 
Q 18.3125 48.734375 21.84375 45.5625 
Q 25.390625 42.390625 31.78125 42.390625 
Q 38.140625 42.390625 41.71875 45.5625 
Q 45.3125 48.734375 45.3125 54.390625 
Q 45.3125 60.0625 41.71875 63.234375 
Q 38.140625 66.40625 31.78125 66.40625 
Q 25.390625 66.40625 21.84375 63.234375 
Q 18.3125 60.0625 18.3125 54.390625 
z
" id="DejaVuSans-56"/>
      </defs>
      <g transform="translate(392.02625 323.74067)scale(0.14 -0.14)">
       <use xlink:href="#DejaVuSans-56"/>
      </g>
     </g>
    </g>
    <g id="text_10">
     <!-- time [s] -->
     <defs>
      <path d="M 18.3125 70.21875 
L 18.3125 54.6875 
L 36.8125 54.6875 
L 36.8125 47.703125 
L 18.3125 47.703125 
L 18.3125 18.015625 
Q 18.3125 11.328125 20.140625 9.421875 
Q 21.96875 7.515625 27.59375 7.515625 
L 36.8125 7.515625 
L 36.8125 0 
L 27.59375 0 
Q 17.1875 0 13.234375 3.875 
Q 9.28125 7.765625 9.28125 18.015625 
L 9.28125 47.703125 
L 2.6875 47.703125 
L 2.6875 54.6875 
L 9.28125 54.6875 
L 9.28125 70.21875 
z
" id="DejaVuSans-116"/>
      <path d="M 9.421875 54.6875 
L 18.40625 54.6875 
L 18.40625 0 
L 9.421875 0 
z
M 9.421875 75.984375 
L 18.40625 75.984375 
L 18.40625 64.59375 
L 9.421875 64.59375 
z
" id="DejaVuSans-105"/>
      <path d="M 52 44.1875 
Q 55.375 50.25 60.0625 53.125 
Q 64.75 56 71.09375 56 
Q 79.640625 56 84.28125 50.015625 
Q 88.921875 44.046875 88.921875 33.015625 
L 88.921875 0 
L 79.890625 0 
L 79.890625 32.71875 
Q 79.890625 40.578125 77.09375 44.375 
Q 74.3125 48.1875 68.609375 48.1875 
Q 61.625 48.1875 57.5625 43.546875 
Q 53.515625 38.921875 53.515625 30.90625 
L 53.515625 0 
L 44.484375 0 
L 44.484375 32.71875 
Q 44.484375 40.625 41.703125 44.40625 
Q 38.921875 48.1875 33.109375 48.1875 
Q 26.21875 48.1875 22.15625 43.53125 
Q 18.109375 38.875 18.109375 30.90625 
L 18.109375 0 
L 9.078125 0 
L 9.078125 54.6875 
L 18.109375 54.6875 
L 18.109375 46.1875 
Q 21.1875 51.21875 25.484375 53.609375 
Q 29.78125 56 35.6875 56 
Q 41.65625 56 45.828125 52.96875 
Q 50 49.953125 52 44.1875 
z
" id="DejaVuSans-109"/>
      <path d="M 56.203125 29.59375 
L 56.203125 25.203125 
L 14.890625 25.203125 
Q 15.484375 15.921875 20.484375 11.0625 
Q 25.484375 6.203125 34.421875 6.203125 
Q 39.59375 6.203125 44.453125 7.46875 
Q 49.3125 8.734375 54.109375 11.28125 
L 54.109375 2.78125 
Q 49.265625 0.734375 44.1875 -0.34375 
Q 39.109375 -1.421875 33.890625 -1.421875 
Q 20.796875 -1.421875 13.15625 6.1875 
Q 5.515625 13.8125 5.515625 26.8125 
Q 5.515625 40.234375 12.765625 48.109375 
Q 20.015625 56 32.328125 56 
Q 43.359375 56 49.78125 48.890625 
Q 56.203125 41.796875 56.203125 29.59375 
z
M 47.21875 32.234375 
Q 47.125 39.59375 43.09375 43.984375 
Q 39.0625 48.390625 32.421875 48.390625 
Q 24.90625 48.390625 20.390625 44.140625 
Q 15.875 39.890625 15.1875 32.171875 
z
" id="DejaVuSans-101"/>
      <path id="DejaVuSans-32"/>
      <path d="M 8.59375 75.984375 
L 29.296875 75.984375 
L 29.296875 69 
L 17.578125 69 
L 17.578125 -6.203125 
L 29.296875 -6.203125 
L 29.296875 -13.1875 
L 8.59375 -13.1875 
z
" id="DejaVuSans-91"/>
      <path d="M 44.28125 53.078125 
L 44.28125 44.578125 
Q 40.484375 46.53125 36.375 47.5 
Q 32.28125 48.484375 27.875 48.484375 
Q 21.1875 48.484375 17.84375 46.4375 
Q 14.5 44.390625 14.5 40.28125 
Q 14.5 37.15625 16.890625 35.375 
Q 19.28125 33.59375 26.515625 31.984375 
L 29.59375 31.296875 
Q 39.15625 29.25 43.1875 25.515625 
Q 47.21875 21.78125 47.21875 15.09375 
Q 47.21875 7.46875 41.1875 3.015625 
Q 35.15625 -1.421875 24.609375 -1.421875 
Q 20.21875 -1.421875 15.453125 -0.5625 
Q 10.6875 0.296875 5.421875 2 
L 5.421875 11.28125 
Q 10.40625 8.6875 15.234375 7.390625 
Q 20.0625 6.109375 24.8125 6.109375 
Q 31.15625 6.109375 34.5625 8.28125 
Q 37.984375 10.453125 37.984375 14.40625 
Q 37.984375 18.0625 35.515625 20.015625 
Q 33.0625 21.96875 24.703125 23.78125 
L 21.578125 24.515625 
Q 13.234375 26.265625 9.515625 29.90625 
Q 5.8125 33.546875 5.8125 39.890625 
Q 5.8125 47.609375 11.28125 51.796875 
Q 16.75 56 26.8125 56 
Q 31.78125 56 36.171875 55.265625 
Q 40.578125 54.546875 44.28125 53.078125 
z
" id="DejaVuSans-115"/>
      <path d="M 30.421875 75.984375 
L 30.421875 -13.1875 
L 9.71875 -13.1875 
L 9.71875 -6.203125 
L 21.390625 -6.203125 
L 21.390625 69 
L 9.71875 69 
L 9.71875 75.984375 
z
" id="DejaVuSans-93"/>
     </defs>
     <g transform="translate(188.852031 341.290045)scale(0.14 -0.14)">
      <use xlink:href="#DejaVuSans-116"/>
      <use x="39.208984" xlink:href="#DejaVuSans-105"/>
      <use x="66.992188" xlink:href="#DejaVuSans-109"/>
      <use x="164.404297" xlink:href="#DejaVuSans-101"/>
      <use x="225.927734" xlink:href="#DejaVuSans-32"/>
      <use x="257.714844" xlink:href="#DejaVuSans-91"/>
      <use x="296.728516" xlink:href="#DejaVuSans-115"/>
      <use x="348.828125" xlink:href="#DejaVuSans-93"/>
     </g>
    </g>
   </g>
   <g id="matplotlib.axis_2">
    <g id="ytick_1">
     <g id="line2d_10">
      <defs>
       <path d="M 0 0 
L -3.5 0 
" id="m28234b0915" style="stroke:#000000;stroke-width:0.8;"/>
      </defs>
      <g>
       <use style="stroke:#000000;stroke-width:0.8;" x="35.52" xlink:href="#m28234b0915" y="259.514182"/>
      </g>
     </g>
     <g id="text_11">
      <!-- 1 -->
      <g transform="translate(19.6125 264.833088)scale(0.14 -0.14)">
       <use xlink:href="#DejaVuSans-49"/>
      </g>
     </g>
    </g>
    <g id="ytick_2">
     <g id="line2d_11">
      <g>
       <use style="stroke:#000000;stroke-width:0.8;" x="35.52" xlink:href="#m28234b0915" y="204.297974"/>
      </g>
     </g>
     <g id="text_12">
      <!-- 2 -->
      <g transform="translate(19.6125 209.61688)scale(0.14 -0.14)">
       <use xlink:href="#DejaVuSans-50"/>
      </g>
     </g>
    </g>
    <g id="ytick_3">
     <g id="line2d_12">
      <g>
       <use style="stroke:#000000;stroke-width:0.8;" x="35.52" xlink:href="#m28234b0915" y="149.081766"/>
      </g>
     </g>
     <g id="text_13">
      <!-- 3 -->
      <g transform="translate(19.6125 154.400672)scale(0.14 -0.14)">
       <use xlink:href="#DejaVuSans-51"/>
      </g>
     </g>
    </g>
    <g id="ytick_4">
     <g id="line2d_13">
      <g>
       <use style="stroke:#000000;stroke-width:0.8;" x="35.52" xlink:href="#m28234b0915" y="93.865558"/>
      </g>
     </g>
     <g id="text_14">
      <!-- 4 -->
      <g transform="translate(19.6125 99.184465)scale(0.14 -0.14)">
       <use xlink:href="#DejaVuSans-52"/>
      </g>
     </g>
    </g>
    <g id="ytick_5">
     <g id="line2d_14">
      <g>
       <use style="stroke:#000000;stroke-width:0.8;" x="35.52" xlink:href="#m28234b0915" y="38.649351"/>
      </g>
     </g>
     <g id="text_15">
      <!-- 5 -->
      <g transform="translate(19.6125 43.968257)scale(0.14 -0.14)">
       <use xlink:href="#DejaVuSans-53"/>
      </g>
     </g>
    </g>
    <g id="text_16">
     <!-- range [m] -->
     <defs>
      <path d="M 41.109375 46.296875 
Q 39.59375 47.171875 37.8125 47.578125 
Q 36.03125 48 33.890625 48 
Q 26.265625 48 22.1875 43.046875 
Q 18.109375 38.09375 18.109375 28.8125 
L 18.109375 0 
L 9.078125 0 
L 9.078125 54.6875 
L 18.109375 54.6875 
L 18.109375 46.1875 
Q 20.953125 51.171875 25.484375 53.578125 
Q 30.03125 56 36.53125 56 
Q 37.453125 56 38.578125 55.875 
Q 39.703125 55.765625 41.0625 55.515625 
z
" id="DejaVuSans-114"/>
      <path d="M 34.28125 27.484375 
Q 23.390625 27.484375 19.1875 25 
Q 14.984375 22.515625 14.984375 16.5 
Q 14.984375 11.71875 18.140625 8.90625 
Q 21.296875 6.109375 26.703125 6.109375 
Q 34.1875 6.109375 38.703125 11.40625 
Q 43.21875 16.703125 43.21875 25.484375 
L 43.21875 27.484375 
z
M 52.203125 31.203125 
L 52.203125 0 
L 43.21875 0 
L 43.21875 8.296875 
Q 40.140625 3.328125 35.546875 0.953125 
Q 30.953125 -1.421875 24.3125 -1.421875 
Q 15.921875 -1.421875 10.953125 3.296875 
Q 6 8.015625 6 15.921875 
Q 6 25.140625 12.171875 29.828125 
Q 18.359375 34.515625 30.609375 34.515625 
L 43.21875 34.515625 
L 43.21875 35.40625 
Q 43.21875 41.609375 39.140625 45 
Q 35.0625 48.390625 27.6875 48.390625 
Q 23 48.390625 18.546875 47.265625 
Q 14.109375 46.140625 10.015625 43.890625 
L 10.015625 52.203125 
Q 14.9375 54.109375 19.578125 55.046875 
Q 24.21875 56 28.609375 56 
Q 40.484375 56 46.34375 49.84375 
Q 52.203125 43.703125 52.203125 31.203125 
z
" id="DejaVuSans-97"/>
      <path d="M 54.890625 33.015625 
L 54.890625 0 
L 45.90625 0 
L 45.90625 32.71875 
Q 45.90625 40.484375 42.875 44.328125 
Q 39.84375 48.1875 33.796875 48.1875 
Q 26.515625 48.1875 22.3125 43.546875 
Q 18.109375 38.921875 18.109375 30.90625 
L 18.109375 0 
L 9.078125 0 
L 9.078125 54.6875 
L 18.109375 54.6875 
L 18.109375 46.1875 
Q 21.34375 51.125 25.703125 53.5625 
Q 30.078125 56 35.796875 56 
Q 45.21875 56 50.046875 50.171875 
Q 54.890625 44.34375 54.890625 33.015625 
z
" id="DejaVuSans-110"/>
      <path d="M 45.40625 27.984375 
Q 45.40625 37.75 41.375 43.109375 
Q 37.359375 48.484375 30.078125 48.484375 
Q 22.859375 48.484375 18.828125 43.109375 
Q 14.796875 37.75 14.796875 27.984375 
Q 14.796875 18.265625 18.828125 12.890625 
Q 22.859375 7.515625 30.078125 7.515625 
Q 37.359375 7.515625 41.375 12.890625 
Q 45.40625 18.265625 45.40625 27.984375 
z
M 54.390625 6.78125 
Q 54.390625 -7.171875 48.1875 -13.984375 
Q 42 -20.796875 29.203125 -20.796875 
Q 24.46875 -20.796875 20.265625 -20.09375 
Q 16.0625 -19.390625 12.109375 -17.921875 
L 12.109375 -9.1875 
Q 16.0625 -11.328125 19.921875 -12.34375 
Q 23.78125 -13.375 27.78125 -13.375 
Q 36.625 -13.375 41.015625 -8.765625 
Q 45.40625 -4.15625 45.40625 5.171875 
L 45.40625 9.625 
Q 42.625 4.78125 38.28125 2.390625 
Q 33.9375 0 27.875 0 
Q 17.828125 0 11.671875 7.65625 
Q 5.515625 15.328125 5.515625 27.984375 
Q 5.515625 40.671875 11.671875 48.328125 
Q 17.828125 56 27.875 56 
Q 33.9375 56 38.28125 53.609375 
Q 42.625 51.21875 45.40625 46.390625 
L 45.40625 54.6875 
L 54.390625 54.6875 
z
" id="DejaVuSans-103"/>
     </defs>
     <g transform="translate(12.700938 198.608571)rotate(-90)scale(0.14 -0.14)">
      <use xlink:href="#DejaVuSans-114"/>
      <use x="41.113281" xlink:href="#DejaVuSans-97"/>
      <use x="102.392578" xlink:href="#DejaVuSans-110"/>
      <use x="165.771484" xlink:href="#DejaVuSans-103"/>
      <use x="229.248047" xlink:href="#DejaVuSans-101"/>
      <use x="290.771484" xlink:href="#DejaVuSans-32"/>
      <use x="322.558594" xlink:href="#DejaVuSans-91"/>
      <use x="361.572266" xlink:href="#DejaVuSans-109"/>
      <use x="458.984375" xlink:href="#DejaVuSans-93"/>
     </g>
    </g>
   </g>
   <g id="patch_3">
    <path d="M 35.52 306.102857 
L 35.52 21.394286 
" style="fill:none;stroke:#000000;stroke-linecap:square;stroke-linejoin:miter;stroke-width:0.8;"/>
   </g>
   <g id="patch_4">
    <path d="M 396.48 306.102857 
L 396.48 21.394286 
" style="fill:none;stroke:#000000;stroke-linecap:square;stroke-linejoin:miter;stroke-width:0.8;"/>
   </g>
   <g id="patch_5">
    <path d="M 35.52 306.102857 
L 396.48 306.102857 
" style="fill:none;stroke:#000000;stroke-linecap:square;stroke-linejoin:miter;stroke-width:0.8;"/>
   </g>
   <g id="patch_6">
    <path d="M 35.52 21.394286 
L 396.48 21.394286 
" style="fill:none;stroke:#000000;stroke-linecap:square;stroke-linejoin:miter;stroke-width:0.8;"/>
   </g>
   <g id="text_17">
    <!-- Demo sample -->
    <defs>
     <path d="M 19.671875 64.796875 
L 19.671875 8.109375 
L 31.59375 8.109375 
Q 46.6875 8.109375 53.6875 14.9375 
Q 60.6875 21.78125 60.6875 36.53125 
Q 60.6875 51.171875 53.6875 57.984375 
Q 46.6875 64.796875 31.59375 64.796875 
z
M 9.8125 72.90625 
L 30.078125 72.90625 
Q 51.265625 72.90625 61.171875 64.09375 
Q 71.09375 55.28125 71.09375 36.53125 
Q 71.09375 17.671875 61.125 8.828125 
Q 51.171875 0 30.078125 0 
L 9.8125 0 
z
" id="DejaVuSans-68"/>
     <path d="M 30.609375 48.390625 
Q 23.390625 48.390625 19.1875 42.75 
Q 14.984375 37.109375 14.984375 27.296875 
Q 14.984375 17.484375 19.15625 11.84375 
Q 23.34375 6.203125 30.609375 6.203125 
Q 37.796875 6.203125 41.984375 11.859375 
Q 46.1875 17.53125 46.1875 27.296875 
Q 46.1875 37.015625 41.984375 42.703125 
Q 37.796875 48.390625 30.609375 48.390625 
z
M 30.609375 56 
Q 42.328125 56 49.015625 48.375 
Q 55.71875 40.765625 55.71875 27.296875 
Q 55.71875 13.875 49.015625 6.21875 
Q 42.328125 -1.421875 30.609375 -1.421875 
Q 18.84375 -1.421875 12.171875 6.21875 
Q 5.515625 13.875 5.515625 27.296875 
Q 5.515625 40.765625 12.171875 48.375 
Q 18.84375 56 30.609375 56 
z
" id="DejaVuSans-111"/>
     <path d="M 18.109375 8.203125 
L 18.109375 -20.796875 
L 9.078125 -20.796875 
L 9.078125 54.6875 
L 18.109375 54.6875 
L 18.109375 46.390625 
Q 20.953125 51.265625 25.265625 53.625 
Q 29.59375 56 35.59375 56 
Q 45.5625 56 51.78125 48.09375 
Q 58.015625 40.1875 58.015625 27.296875 
Q 58.015625 14.40625 51.78125 6.484375 
Q 45.5625 -1.421875 35.59375 -1.421875 
Q 29.59375 -1.421875 25.265625 0.953125 
Q 20.953125 3.328125 18.109375 8.203125 
z
M 48.6875 27.296875 
Q 48.6875 37.203125 44.609375 42.84375 
Q 40.53125 48.484375 33.40625 48.484375 
Q 26.265625 48.484375 22.1875 42.84375 
Q 18.109375 37.203125 18.109375 27.296875 
Q 18.109375 17.390625 22.1875 11.75 
Q 26.265625 6.109375 33.40625 6.109375 
Q 40.53125 6.109375 44.609375 11.75 
Q 48.6875 17.390625 48.6875 27.296875 
z
" id="DejaVuSans-112"/>
     <path d="M 9.421875 75.984375 
L 18.40625 75.984375 
L 18.40625 0 
L 9.421875 0 
z
" id="DejaVuSans-108"/>
    </defs>
    <g transform="translate(157.831313 15.394286)scale(0.168 -0.168)">
     <use xlink:href="#DejaVuSans-68"/>
     <use x="77.001953" xlink:href="#DejaVuSans-101"/>
     <use x="138.525391" xlink:href="#DejaVuSans-109"/>
     <use x="235.9375" xlink:href="#DejaVuSans-111"/>
     <use x="297.119141" xlink:href="#DejaVuSans-32"/>
     <use x="328.90625" xlink:href="#DejaVuSans-115"/>
     <use x="381.005859" xlink:href="#DejaVuSans-97"/>
     <use x="442.285156" xlink:href="#DejaVuSans-109"/>
     <use x="539.697266" xlink:href="#DejaVuSans-112"/>
     <use x="603.173828" xlink:href="#DejaVuSans-108"/>
     <use x="630.957031" xlink:href="#DejaVuSans-101"/>
    </g>
   </g>
   <g id="legend_1">
    <g id="patch_7">
     <path d="M 276.965938 186.397946 
L 386.68 186.397946 
Q 389.48 186.397946 389.48 183.597946 
L 389.48 143.899196 
Q 389.48 141.099196 386.68 141.099196 
L 276.965938 141.099196 
Q 274.165938 141.099196 274.165938 143.899196 
L 274.165938 183.597946 
Q 274.165938 186.397946 276.965938 186.397946 
z
" style="fill:#ffffff;opacity:0.8;stroke:#cccccc;stroke-linejoin:miter;"/>
    </g>
    <g id="PathCollection_3">
     <g>
      <use style="fill:#1f77b4;stroke:#1f77b4;" x="293.765938" xlink:href="#m7c8a347cc8" y="153.662009"/>
     </g>
    </g>
    <g id="text_18">
     <!-- Radar -->
     <defs>
      <path d="M 44.390625 34.1875 
Q 47.5625 33.109375 50.5625 29.59375 
Q 53.5625 26.078125 56.59375 19.921875 
L 66.609375 0 
L 56 0 
L 46.6875 18.703125 
Q 43.0625 26.03125 39.671875 28.421875 
Q 36.28125 30.8125 30.421875 30.8125 
L 19.671875 30.8125 
L 19.671875 0 
L 9.8125 0 
L 9.8125 72.90625 
L 32.078125 72.90625 
Q 44.578125 72.90625 50.734375 67.671875 
Q 56.890625 62.453125 56.890625 51.90625 
Q 56.890625 45.015625 53.6875 40.46875 
Q 50.484375 35.9375 44.390625 34.1875 
z
M 19.671875 64.796875 
L 19.671875 38.921875 
L 32.078125 38.921875 
Q 39.203125 38.921875 42.84375 42.21875 
Q 46.484375 45.515625 46.484375 51.90625 
Q 46.484375 58.296875 42.84375 61.546875 
Q 39.203125 64.796875 32.078125 64.796875 
z
" id="DejaVuSans-82"/>
      <path d="M 45.40625 46.390625 
L 45.40625 75.984375 
L 54.390625 75.984375 
L 54.390625 0 
L 45.40625 0 
L 45.40625 8.203125 
Q 42.578125 3.328125 38.25 0.953125 
Q 33.9375 -1.421875 27.875 -1.421875 
Q 17.96875 -1.421875 11.734375 6.484375 
Q 5.515625 14.40625 5.515625 27.296875 
Q 5.515625 40.1875 11.734375 48.09375 
Q 17.96875 56 27.875 56 
Q 33.9375 56 38.25 53.625 
Q 42.578125 51.265625 45.40625 46.390625 
z
M 14.796875 27.296875 
Q 14.796875 17.390625 18.875 11.75 
Q 22.953125 6.109375 30.078125 6.109375 
Q 37.203125 6.109375 41.296875 11.75 
Q 45.40625 17.390625 45.40625 27.296875 
Q 45.40625 37.203125 41.296875 42.84375 
Q 37.203125 48.484375 30.078125 48.484375 
Q 22.953125 48.484375 18.875 42.84375 
Q 14.796875 37.203125 14.796875 27.296875 
z
" id="DejaVuSans-100"/>
     </defs>
     <g transform="translate(318.965938 157.337009)scale(0.14 -0.14)">
      <use xlink:href="#DejaVuSans-82"/>
      <use x="67.232422" xlink:href="#DejaVuSans-97"/>
      <use x="128.511719" xlink:href="#DejaVuSans-100"/>
      <use x="191.988281" xlink:href="#DejaVuSans-97"/>
      <use x="253.267578" xlink:href="#DejaVuSans-114"/>
     </g>
    </g>
    <g id="PathCollection_4">
     <g>
      <use style="fill:#ff7f0e;stroke:#ff7f0e;" x="293.765938" xlink:href="#mdc94c1cdb6" y="174.211384"/>
     </g>
    </g>
    <g id="text_19">
     <!-- Optitrack -->
     <defs>
      <path d="M 39.40625 66.21875 
Q 28.65625 66.21875 22.328125 58.203125 
Q 16.015625 50.203125 16.015625 36.375 
Q 16.015625 22.609375 22.328125 14.59375 
Q 28.65625 6.59375 39.40625 6.59375 
Q 50.140625 6.59375 56.421875 14.59375 
Q 62.703125 22.609375 62.703125 36.375 
Q 62.703125 50.203125 56.421875 58.203125 
Q 50.140625 66.21875 39.40625 66.21875 
z
M 39.40625 74.21875 
Q 54.734375 74.21875 63.90625 63.9375 
Q 73.09375 53.65625 73.09375 36.375 
Q 73.09375 19.140625 63.90625 8.859375 
Q 54.734375 -1.421875 39.40625 -1.421875 
Q 24.03125 -1.421875 14.8125 8.828125 
Q 5.609375 19.09375 5.609375 36.375 
Q 5.609375 53.65625 14.8125 63.9375 
Q 24.03125 74.21875 39.40625 74.21875 
z
" id="DejaVuSans-79"/>
      <path d="M 48.78125 52.59375 
L 48.78125 44.1875 
Q 44.96875 46.296875 41.140625 47.34375 
Q 37.3125 48.390625 33.40625 48.390625 
Q 24.65625 48.390625 19.8125 42.84375 
Q 14.984375 37.3125 14.984375 27.296875 
Q 14.984375 17.28125 19.8125 11.734375 
Q 24.65625 6.203125 33.40625 6.203125 
Q 37.3125 6.203125 41.140625 7.25 
Q 44.96875 8.296875 48.78125 10.40625 
L 48.78125 2.09375 
Q 45.015625 0.34375 40.984375 -0.53125 
Q 36.96875 -1.421875 32.421875 -1.421875 
Q 20.0625 -1.421875 12.78125 6.34375 
Q 5.515625 14.109375 5.515625 27.296875 
Q 5.515625 40.671875 12.859375 48.328125 
Q 20.21875 56 33.015625 56 
Q 37.15625 56 41.109375 55.140625 
Q 45.0625 54.296875 48.78125 52.59375 
z
" id="DejaVuSans-99"/>
      <path d="M 9.078125 75.984375 
L 18.109375 75.984375 
L 18.109375 31.109375 
L 44.921875 54.6875 
L 56.390625 54.6875 
L 27.390625 29.109375 
L 57.625 0 
L 45.90625 0 
L 18.109375 26.703125 
L 18.109375 0 
L 9.078125 0 
z
" id="DejaVuSans-107"/>
     </defs>
     <g transform="translate(318.965938 177.886384)scale(0.14 -0.14)">
      <use xlink:href="#DejaVuSans-79"/>
      <use x="78.710938" xlink:href="#DejaVuSans-112"/>
      <use x="142.1875" xlink:href="#DejaVuSans-116"/>
      <use x="181.396484" xlink:href="#DejaVuSans-105"/>
      <use x="209.179688" xlink:href="#DejaVuSans-116"/>
      <use x="248.388672" xlink:href="#DejaVuSans-114"/>
      <use x="289.501953" xlink:href="#DejaVuSans-97"/>
      <use x="350.78125" xlink:href="#DejaVuSans-99"/>
      <use x="405.761719" xlink:href="#DejaVuSans-107"/>
     </g>
    </g>
   </g>
  </g>
 </g>
 <defs>
  <clipPath id="p427ae471c3">
   <rect height="284.708571" width="360.96" x="35.52" y="21.394286"/>
  </clipPath>
 </defs>
</svg>
