<?xml version="1.0" encoding="utf-8" standalone="no"?>
<!DOCTYPE svg PUBLIC "-//W3C//DTD SVG 1.1//EN"
  "http://www.w3.org/Graphics/SVG/1.1/DTD/svg11.dtd">
<!-- Created with matplotlib (https://matplotlib.org/) -->
<svg height="345.6pt" version="1.1" viewBox="0 0 401.04 345.6" width="401.04pt" xmlns="http://www.w3.org/2000/svg" xmlns:xlink="http://www.w3.org/1999/xlink">
 <defs>
  <style type="text/css">
*{stroke-linecap:butt;stroke-linejoin:round;}
  </style>
 </defs>
 <g id="figure_1">
  <g id="patch_1">
   <path d="M 0 345.6 
L 401.04 345.6 
L 401.04 0 
L 0 0 
z
" style="fill:#ffffff;"/>
  </g>
  <g id="axes_1">
   <g id="patch_2">
    <path d="M 44.878286 306.925714 
L 394.356 306.925714 
L 394.356 21.394286 
L 44.878286 21.394286 
z
" style="fill:#ffffff;"/>
   </g>
   <g id="PathCollection_1">
    <defs>
     <path d="M 0 3 
C 0.795609 3 1.55874 2.683901 2.12132 2.12132 
C 2.683901 1.55874 3 0.795609 3 0 
C 3 -0.795609 2.683901 -1.55874 2.12132 -2.12132 
C 1.55874 -2.683901 0.795609 -3 0 -3 
C -0.795609 -3 -1.55874 -2.683901 -2.12132 -2.12132 
C -2.683901 -1.55874 -3 -0.795609 -3 0 
C -3 0.795609 -2.683901 1.55874 -2.12132 2.12132 
C -1.55874 2.683901 -0.795609 3 0 3 
z
" id="m8a3e843312" style="stroke:#1f77b4;"/>
    </defs>
    <g clip-path="url(#p4a6235857a)">
     <use style="fill:#1f77b4;stroke:#1f77b4;" x="44.878286" xlink:href="#m8a3e843312" y="293.509815"/>
     <use style="fill:#1f77b4;stroke:#1f77b4;" x="47.730588" xlink:href="#m8a3e843312" y="293.158384"/>
     <use style="fill:#1f77b4;stroke:#1f77b4;" x="50.582891" xlink:href="#m8a3e843312" y="293.805363"/>
     <use style="fill:#1f77b4;stroke:#1f77b4;" x="53.435194" xlink:href="#m8a3e843312" y="292.586696"/>
     <use style="fill:#1f77b4;stroke:#1f77b4;" x="56.287496" xlink:href="#m8a3e843312" y="293.947013"/>
     <use style="fill:#1f77b4;stroke:#1f77b4;" x="59.139799" xlink:href="#m8a3e843312" y="293.103926"/>
     <use style="fill:#1f77b4;stroke:#1f77b4;" x="61.992102" xlink:href="#m8a3e843312" y="293.641571"/>
     <use style="fill:#1f77b4;stroke:#1f77b4;" x="64.844404" xlink:href="#m8a3e843312" y="293.053631"/>
     <use style="fill:#1f77b4;stroke:#1f77b4;" x="67.696707" xlink:href="#m8a3e843312" y="292.755598"/>
     <use style="fill:#1f77b4;stroke:#1f77b4;" x="70.54901" xlink:href="#m8a3e843312" y="293.388003"/>
     <use style="fill:#1f77b4;stroke:#1f77b4;" x="73.401312" xlink:href="#m8a3e843312" y="293.293042"/>
     <use style="fill:#1f77b4;stroke:#1f77b4;" x="76.253615" xlink:href="#m8a3e843312" y="292.772396"/>
     <use style="fill:#1f77b4;stroke:#1f77b4;" x="79.105917" xlink:href="#m8a3e843312" y="291.367989"/>
     <use style="fill:#1f77b4;stroke:#1f77b4;" x="81.95822" xlink:href="#m8a3e843312" y="293.069106"/>
     <use style="fill:#1f77b4;stroke:#1f77b4;" x="84.810523" xlink:href="#m8a3e843312" y="289.46806"/>
     <use style="fill:#1f77b4;stroke:#1f77b4;" x="87.662825" xlink:href="#m8a3e843312" y="290.939435"/>
     <use style="fill:#1f77b4;stroke:#1f77b4;" x="90.515128" xlink:href="#m8a3e843312" y="290.647498"/>
     <use style="fill:#1f77b4;stroke:#1f77b4;" x="93.367431" xlink:href="#m8a3e843312" y="288.420201"/>
     <use style="fill:#1f77b4;stroke:#1f77b4;" x="96.219733" xlink:href="#m8a3e843312" y="288.101998"/>
     <use style="fill:#1f77b4;stroke:#1f77b4;" x="99.072036" xlink:href="#m8a3e843312" y="288.462481"/>
     <use style="fill:#1f77b4;stroke:#1f77b4;" x="101.924339" xlink:href="#m8a3e843312" y="287.030284"/>
     <use style="fill:#1f77b4;stroke:#1f77b4;" x="104.776641" xlink:href="#m8a3e843312" y="286.262721"/>
     <use style="fill:#1f77b4;stroke:#1f77b4;" x="107.628944" xlink:href="#m8a3e843312" y="286.463556"/>
     <use style="fill:#1f77b4;stroke:#1f77b4;" x="110.481247" xlink:href="#m8a3e843312" y="286.74455"/>
     <use style="fill:#1f77b4;stroke:#1f77b4;" x="113.333549" xlink:href="#m8a3e843312" y="34.372987"/>
     <use style="fill:#1f77b4;stroke:#1f77b4;" x="116.185852" xlink:href="#m8a3e843312" y="280.933839"/>
     <use style="fill:#1f77b4;stroke:#1f77b4;" x="119.038155" xlink:href="#m8a3e843312" y="285.692147"/>
     <use style="fill:#1f77b4;stroke:#1f77b4;" x="121.890457" xlink:href="#m8a3e843312" y="283.617634"/>
     <use style="fill:#1f77b4;stroke:#1f77b4;" x="124.74276" xlink:href="#m8a3e843312" y="284.21944"/>
     <use style="fill:#1f77b4;stroke:#1f77b4;" x="127.595062" xlink:href="#m8a3e843312" y="56.008747"/>
     <use style="fill:#1f77b4;stroke:#1f77b4;" x="130.447365" xlink:href="#m8a3e843312" y="279.870966"/>
     <use style="fill:#1f77b4;stroke:#1f77b4;" x="133.299668" xlink:href="#m8a3e843312" y="283.221937"/>
     <use style="fill:#1f77b4;stroke:#1f77b4;" x="136.15197" xlink:href="#m8a3e843312" y="281.254751"/>
     <use style="fill:#1f77b4;stroke:#1f77b4;" x="139.004273" xlink:href="#m8a3e843312" y="281.67316"/>
     <use style="fill:#1f77b4;stroke:#1f77b4;" x="141.856576" xlink:href="#m8a3e843312" y="280.823823"/>
     <use style="fill:#1f77b4;stroke:#1f77b4;" x="144.708878" xlink:href="#m8a3e843312" y="281.094456"/>
     <use style="fill:#1f77b4;stroke:#1f77b4;" x="147.561181" xlink:href="#m8a3e843312" y="281.364757"/>
     <use style="fill:#1f77b4;stroke:#1f77b4;" x="150.413484" xlink:href="#m8a3e843312" y="281.386582"/>
     <use style="fill:#1f77b4;stroke:#1f77b4;" x="153.265786" xlink:href="#m8a3e843312" y="280.283633"/>
     <use style="fill:#1f77b4;stroke:#1f77b4;" x="156.118089" xlink:href="#m8a3e843312" y="279.707778"/>
     <use style="fill:#1f77b4;stroke:#1f77b4;" x="158.970392" xlink:href="#m8a3e843312" y="282.690646"/>
     <use style="fill:#1f77b4;stroke:#1f77b4;" x="161.822694" xlink:href="#m8a3e843312" y="279.532204"/>
     <use style="fill:#1f77b4;stroke:#1f77b4;" x="164.674997" xlink:href="#m8a3e843312" y="278.516894"/>
     <use style="fill:#1f77b4;stroke:#1f77b4;" x="167.5273" xlink:href="#m8a3e843312" y="281.914006"/>
     <use style="fill:#1f77b4;stroke:#1f77b4;" x="170.379602" xlink:href="#m8a3e843312" y="279.130873"/>
     <use style="fill:#1f77b4;stroke:#1f77b4;" x="173.231905" xlink:href="#m8a3e843312" y="279.484481"/>
     <use style="fill:#1f77b4;stroke:#1f77b4;" x="176.084207" xlink:href="#m8a3e843312" y="280.327791"/>
     <use style="fill:#1f77b4;stroke:#1f77b4;" x="178.93651" xlink:href="#m8a3e843312" y="277.055826"/>
     <use style="fill:#1f77b4;stroke:#1f77b4;" x="181.788813" xlink:href="#m8a3e843312" y="280.54639"/>
     <use style="fill:#1f77b4;stroke:#1f77b4;" x="184.641115" xlink:href="#m8a3e843312" y="278.091342"/>
     <use style="fill:#1f77b4;stroke:#1f77b4;" x="187.493418" xlink:href="#m8a3e843312" y="279.063313"/>
     <use style="fill:#1f77b4;stroke:#1f77b4;" x="190.345721" xlink:href="#m8a3e843312" y="279.200022"/>
     <use style="fill:#1f77b4;stroke:#1f77b4;" x="193.198023" xlink:href="#m8a3e843312" y="276.363468"/>
     <use style="fill:#1f77b4;stroke:#1f77b4;" x="196.050326" xlink:href="#m8a3e843312" y="279.742186"/>
     <use style="fill:#1f77b4;stroke:#1f77b4;" x="198.902629" xlink:href="#m8a3e843312" y="279.70847"/>
     <use style="fill:#1f77b4;stroke:#1f77b4;" x="201.754931" xlink:href="#m8a3e843312" y="278.762738"/>
     <use style="fill:#1f77b4;stroke:#1f77b4;" x="204.607234" xlink:href="#m8a3e843312" y="279.968581"/>
     <use style="fill:#1f77b4;stroke:#1f77b4;" x="207.459537" xlink:href="#m8a3e843312" y="279.583534"/>
     <use style="fill:#1f77b4;stroke:#1f77b4;" x="210.311839" xlink:href="#m8a3e843312" y="281.081068"/>
     <use style="fill:#1f77b4;stroke:#1f77b4;" x="213.164142" xlink:href="#m8a3e843312" y="278.152776"/>
     <use style="fill:#1f77b4;stroke:#1f77b4;" x="216.016445" xlink:href="#m8a3e843312" y="276.334319"/>
     <use style="fill:#1f77b4;stroke:#1f77b4;" x="218.868747" xlink:href="#m8a3e843312" y="278.129955"/>
     <use style="fill:#1f77b4;stroke:#1f77b4;" x="221.72105" xlink:href="#m8a3e843312" y="279.566775"/>
     <use style="fill:#1f77b4;stroke:#1f77b4;" x="224.573352" xlink:href="#m8a3e843312" y="276.63226"/>
     <use style="fill:#1f77b4;stroke:#1f77b4;" x="227.425655" xlink:href="#m8a3e843312" y="274.103479"/>
     <use style="fill:#1f77b4;stroke:#1f77b4;" x="230.277958" xlink:href="#m8a3e843312" y="278.666029"/>
     <use style="fill:#1f77b4;stroke:#1f77b4;" x="233.13026" xlink:href="#m8a3e843312" y="278.037638"/>
     <use style="fill:#1f77b4;stroke:#1f77b4;" x="235.982563" xlink:href="#m8a3e843312" y="276.216099"/>
     <use style="fill:#1f77b4;stroke:#1f77b4;" x="238.834866" xlink:href="#m8a3e843312" y="274.878318"/>
     <use style="fill:#1f77b4;stroke:#1f77b4;" x="241.687168" xlink:href="#m8a3e843312" y="277.719302"/>
     <use style="fill:#1f77b4;stroke:#1f77b4;" x="244.539471" xlink:href="#m8a3e843312" y="277.814646"/>
     <use style="fill:#1f77b4;stroke:#1f77b4;" x="247.391774" xlink:href="#m8a3e843312" y="272.570781"/>
     <use style="fill:#1f77b4;stroke:#1f77b4;" x="250.244076" xlink:href="#m8a3e843312" y="273.493088"/>
     <use style="fill:#1f77b4;stroke:#1f77b4;" x="253.096379" xlink:href="#m8a3e843312" y="278.278745"/>
     <use style="fill:#1f77b4;stroke:#1f77b4;" x="255.948682" xlink:href="#m8a3e843312" y="277.135998"/>
     <use style="fill:#1f77b4;stroke:#1f77b4;" x="258.800984" xlink:href="#m8a3e843312" y="277.809453"/>
     <use style="fill:#1f77b4;stroke:#1f77b4;" x="261.653287" xlink:href="#m8a3e843312" y="61.308809"/>
     <use style="fill:#1f77b4;stroke:#1f77b4;" x="264.50559" xlink:href="#m8a3e843312" y="277.429151"/>
     <use style="fill:#1f77b4;stroke:#1f77b4;" x="267.357892" xlink:href="#m8a3e843312" y="278.342992"/>
     <use style="fill:#1f77b4;stroke:#1f77b4;" x="270.210195" xlink:href="#m8a3e843312" y="274.947965"/>
     <use style="fill:#1f77b4;stroke:#1f77b4;" x="273.062497" xlink:href="#m8a3e843312" y="277.815605"/>
     <use style="fill:#1f77b4;stroke:#1f77b4;" x="275.9148" xlink:href="#m8a3e843312" y="280.074839"/>
     <use style="fill:#1f77b4;stroke:#1f77b4;" x="278.767103" xlink:href="#m8a3e843312" y="277.294558"/>
     <use style="fill:#1f77b4;stroke:#1f77b4;" x="281.619405" xlink:href="#m8a3e843312" y="276.967909"/>
     <use style="fill:#1f77b4;stroke:#1f77b4;" x="284.471708" xlink:href="#m8a3e843312" y="279.028628"/>
     <use style="fill:#1f77b4;stroke:#1f77b4;" x="287.324011" xlink:href="#m8a3e843312" y="279.226476"/>
     <use style="fill:#1f77b4;stroke:#1f77b4;" x="290.176313" xlink:href="#m8a3e843312" y="281.263624"/>
     <use style="fill:#1f77b4;stroke:#1f77b4;" x="293.028616" xlink:href="#m8a3e843312" y="280.977554"/>
     <use style="fill:#1f77b4;stroke:#1f77b4;" x="295.880919" xlink:href="#m8a3e843312" y="286.799956"/>
     <use style="fill:#1f77b4;stroke:#1f77b4;" x="298.733221" xlink:href="#m8a3e843312" y="285.39241"/>
     <use style="fill:#1f77b4;stroke:#1f77b4;" x="301.585524" xlink:href="#m8a3e843312" y="59.934613"/>
     <use style="fill:#1f77b4;stroke:#1f77b4;" x="304.437827" xlink:href="#m8a3e843312" y="285.715616"/>
     <use style="fill:#1f77b4;stroke:#1f77b4;" x="307.290129" xlink:href="#m8a3e843312" y="285.945649"/>
     <use style="fill:#1f77b4;stroke:#1f77b4;" x="310.142432" xlink:href="#m8a3e843312" y="286.108149"/>
     <use style="fill:#1f77b4;stroke:#1f77b4;" x="312.994735" xlink:href="#m8a3e843312" y="69.407449"/>
     <use style="fill:#1f77b4;stroke:#1f77b4;" x="315.847037" xlink:href="#m8a3e843312" y="284.284956"/>
     <use style="fill:#1f77b4;stroke:#1f77b4;" x="318.69934" xlink:href="#m8a3e843312" y="283.846399"/>
     <use style="fill:#1f77b4;stroke:#1f77b4;" x="321.551642" xlink:href="#m8a3e843312" y="285.093208"/>
     <use style="fill:#1f77b4;stroke:#1f77b4;" x="324.403945" xlink:href="#m8a3e843312" y="285.769036"/>
     <use style="fill:#1f77b4;stroke:#1f77b4;" x="327.256248" xlink:href="#m8a3e843312" y="285.179457"/>
     <use style="fill:#1f77b4;stroke:#1f77b4;" x="330.10855" xlink:href="#m8a3e843312" y="286.112188"/>
     <use style="fill:#1f77b4;stroke:#1f77b4;" x="332.960853" xlink:href="#m8a3e843312" y="282.246802"/>
     <use style="fill:#1f77b4;stroke:#1f77b4;" x="335.813156" xlink:href="#m8a3e843312" y="285.294383"/>
     <use style="fill:#1f77b4;stroke:#1f77b4;" x="338.665458" xlink:href="#m8a3e843312" y="288.316303"/>
     <use style="fill:#1f77b4;stroke:#1f77b4;" x="341.517761" xlink:href="#m8a3e843312" y="284.953006"/>
     <use style="fill:#1f77b4;stroke:#1f77b4;" x="344.370064" xlink:href="#m8a3e843312" y="285.917052"/>
     <use style="fill:#1f77b4;stroke:#1f77b4;" x="347.222366" xlink:href="#m8a3e843312" y="287.499721"/>
     <use style="fill:#1f77b4;stroke:#1f77b4;" x="350.074669" xlink:href="#m8a3e843312" y="289.766969"/>
     <use style="fill:#1f77b4;stroke:#1f77b4;" x="352.926972" xlink:href="#m8a3e843312" y="288.26493"/>
     <use style="fill:#1f77b4;stroke:#1f77b4;" x="355.779274" xlink:href="#m8a3e843312" y="282.948361"/>
    </g>
   </g>
   <g id="PathCollection_2">
    <defs>
     <path d="M 0 3 
C 0.795609 3 1.55874 2.683901 2.12132 2.12132 
C 2.683901 1.55874 3 0.795609 3 0 
C 3 -0.795609 2.683901 -1.55874 2.12132 -2.12132 
C 1.55874 -2.683901 0.795609 -3 0 -3 
C -0.795609 -3 -1.55874 -2.683901 -2.12132 -2.12132 
C -2.683901 -1.55874 -3 -0.795609 -3 0 
C -3 0.795609 -2.683901 1.55874 -2.12132 2.12132 
C -1.55874 2.683901 -0.795609 3 0 3 
z
" id="m2d9aec35c4" style="stroke:#ff7f0e;"/>
    </defs>
    <g clip-path="url(#p4a6235857a)">
     <use style="fill:#ff7f0e;stroke:#ff7f0e;" x="44.878286" xlink:href="#m2d9aec35c4" y="293.390427"/>
     <use style="fill:#ff7f0e;stroke:#ff7f0e;" x="47.730588" xlink:href="#m2d9aec35c4" y="293.423723"/>
     <use style="fill:#ff7f0e;stroke:#ff7f0e;" x="50.582891" xlink:href="#m2d9aec35c4" y="293.722113"/>
     <use style="fill:#ff7f0e;stroke:#ff7f0e;" x="53.435194" xlink:href="#m2d9aec35c4" y="293.624751"/>
     <use style="fill:#ff7f0e;stroke:#ff7f0e;" x="56.287496" xlink:href="#m2d9aec35c4" y="293.111471"/>
     <use style="fill:#ff7f0e;stroke:#ff7f0e;" x="59.139799" xlink:href="#m2d9aec35c4" y="293.808586"/>
     <use style="fill:#ff7f0e;stroke:#ff7f0e;" x="61.992102" xlink:href="#m2d9aec35c4" y="292.822741"/>
     <use style="fill:#ff7f0e;stroke:#ff7f0e;" x="64.844404" xlink:href="#m2d9aec35c4" y="293.577909"/>
     <use style="fill:#ff7f0e;stroke:#ff7f0e;" x="67.696707" xlink:href="#m2d9aec35c4" y="292.746798"/>
     <use style="fill:#ff7f0e;stroke:#ff7f0e;" x="70.54901" xlink:href="#m2d9aec35c4" y="293.358082"/>
     <use style="fill:#ff7f0e;stroke:#ff7f0e;" x="73.401312" xlink:href="#m2d9aec35c4" y="292.146458"/>
     <use style="fill:#ff7f0e;stroke:#ff7f0e;" x="76.253615" xlink:href="#m2d9aec35c4" y="291.694951"/>
     <use style="fill:#ff7f0e;stroke:#ff7f0e;" x="79.105917" xlink:href="#m2d9aec35c4" y="291.906774"/>
     <use style="fill:#ff7f0e;stroke:#ff7f0e;" x="81.95822" xlink:href="#m2d9aec35c4" y="290.511739"/>
     <use style="fill:#ff7f0e;stroke:#ff7f0e;" x="84.810523" xlink:href="#m2d9aec35c4" y="290.725593"/>
     <use style="fill:#ff7f0e;stroke:#ff7f0e;" x="87.662825" xlink:href="#m2d9aec35c4" y="289.345325"/>
     <use style="fill:#ff7f0e;stroke:#ff7f0e;" x="90.515128" xlink:href="#m2d9aec35c4" y="287.209513"/>
     <use style="fill:#ff7f0e;stroke:#ff7f0e;" x="93.367431" xlink:href="#m2d9aec35c4" y="287.06371"/>
     <use style="fill:#ff7f0e;stroke:#ff7f0e;" x="96.219733" xlink:href="#m2d9aec35c4" y="286.890248"/>
     <use style="fill:#ff7f0e;stroke:#ff7f0e;" x="99.072036" xlink:href="#m2d9aec35c4" y="286.426053"/>
     <use style="fill:#ff7f0e;stroke:#ff7f0e;" x="101.924339" xlink:href="#m2d9aec35c4" y="285.342112"/>
     <use style="fill:#ff7f0e;stroke:#ff7f0e;" x="104.776641" xlink:href="#m2d9aec35c4" y="284.673391"/>
     <use style="fill:#ff7f0e;stroke:#ff7f0e;" x="107.628944" xlink:href="#m2d9aec35c4" y="282.16312"/>
     <use style="fill:#ff7f0e;stroke:#ff7f0e;" x="110.481247" xlink:href="#m2d9aec35c4" y="283.945047"/>
     <use style="fill:#ff7f0e;stroke:#ff7f0e;" x="113.333549" xlink:href="#m2d9aec35c4" y="282.399461"/>
     <use style="fill:#ff7f0e;stroke:#ff7f0e;" x="116.185852" xlink:href="#m2d9aec35c4" y="281.210309"/>
     <use style="fill:#ff7f0e;stroke:#ff7f0e;" x="119.038155" xlink:href="#m2d9aec35c4" y="281.604723"/>
     <use style="fill:#ff7f0e;stroke:#ff7f0e;" x="121.890457" xlink:href="#m2d9aec35c4" y="281.20845"/>
     <use style="fill:#ff7f0e;stroke:#ff7f0e;" x="124.74276" xlink:href="#m2d9aec35c4" y="278.338917"/>
     <use style="fill:#ff7f0e;stroke:#ff7f0e;" x="127.595062" xlink:href="#m2d9aec35c4" y="280.332498"/>
     <use style="fill:#ff7f0e;stroke:#ff7f0e;" x="130.447365" xlink:href="#m2d9aec35c4" y="278.219705"/>
     <use style="fill:#ff7f0e;stroke:#ff7f0e;" x="133.299668" xlink:href="#m2d9aec35c4" y="278.466993"/>
     <use style="fill:#ff7f0e;stroke:#ff7f0e;" x="136.15197" xlink:href="#m2d9aec35c4" y="278.814295"/>
     <use style="fill:#ff7f0e;stroke:#ff7f0e;" x="139.004273" xlink:href="#m2d9aec35c4" y="276.773555"/>
     <use style="fill:#ff7f0e;stroke:#ff7f0e;" x="141.856576" xlink:href="#m2d9aec35c4" y="276.546857"/>
     <use style="fill:#ff7f0e;stroke:#ff7f0e;" x="144.708878" xlink:href="#m2d9aec35c4" y="278.98271"/>
     <use style="fill:#ff7f0e;stroke:#ff7f0e;" x="147.561181" xlink:href="#m2d9aec35c4" y="276.763188"/>
     <use style="fill:#ff7f0e;stroke:#ff7f0e;" x="150.413484" xlink:href="#m2d9aec35c4" y="277.508973"/>
     <use style="fill:#ff7f0e;stroke:#ff7f0e;" x="153.265786" xlink:href="#m2d9aec35c4" y="277.889955"/>
     <use style="fill:#ff7f0e;stroke:#ff7f0e;" x="156.118089" xlink:href="#m2d9aec35c4" y="273.642247"/>
     <use style="fill:#ff7f0e;stroke:#ff7f0e;" x="158.970392" xlink:href="#m2d9aec35c4" y="276.90877"/>
     <use style="fill:#ff7f0e;stroke:#ff7f0e;" x="161.822694" xlink:href="#m2d9aec35c4" y="276.014507"/>
     <use style="fill:#ff7f0e;stroke:#ff7f0e;" x="164.674997" xlink:href="#m2d9aec35c4" y="276.711746"/>
     <use style="fill:#ff7f0e;stroke:#ff7f0e;" x="167.5273" xlink:href="#m2d9aec35c4" y="276.400926"/>
     <use style="fill:#ff7f0e;stroke:#ff7f0e;" x="170.379602" xlink:href="#m2d9aec35c4" y="276.379959"/>
     <use style="fill:#ff7f0e;stroke:#ff7f0e;" x="173.231905" xlink:href="#m2d9aec35c4" y="274.100845"/>
     <use style="fill:#ff7f0e;stroke:#ff7f0e;" x="176.084207" xlink:href="#m2d9aec35c4" y="274.399487"/>
     <use style="fill:#ff7f0e;stroke:#ff7f0e;" x="178.93651" xlink:href="#m2d9aec35c4" y="275.712895"/>
     <use style="fill:#ff7f0e;stroke:#ff7f0e;" x="181.788813" xlink:href="#m2d9aec35c4" y="275.549333"/>
     <use style="fill:#ff7f0e;stroke:#ff7f0e;" x="184.641115" xlink:href="#m2d9aec35c4" y="275.330668"/>
     <use style="fill:#ff7f0e;stroke:#ff7f0e;" x="187.493418" xlink:href="#m2d9aec35c4" y="275.128738"/>
     <use style="fill:#ff7f0e;stroke:#ff7f0e;" x="190.345721" xlink:href="#m2d9aec35c4" y="272.72465"/>
     <use style="fill:#ff7f0e;stroke:#ff7f0e;" x="193.198023" xlink:href="#m2d9aec35c4" y="273.315208"/>
     <use style="fill:#ff7f0e;stroke:#ff7f0e;" x="196.050326" xlink:href="#m2d9aec35c4" y="274.923227"/>
     <use style="fill:#ff7f0e;stroke:#ff7f0e;" x="198.902629" xlink:href="#m2d9aec35c4" y="274.532481"/>
     <use style="fill:#ff7f0e;stroke:#ff7f0e;" x="201.754931" xlink:href="#m2d9aec35c4" y="274.560381"/>
     <use style="fill:#ff7f0e;stroke:#ff7f0e;" x="204.607234" xlink:href="#m2d9aec35c4" y="274.360592"/>
     <use style="fill:#ff7f0e;stroke:#ff7f0e;" x="207.459537" xlink:href="#m2d9aec35c4" y="270.328032"/>
     <use style="fill:#ff7f0e;stroke:#ff7f0e;" x="210.311839" xlink:href="#m2d9aec35c4" y="273.972196"/>
     <use style="fill:#ff7f0e;stroke:#ff7f0e;" x="213.164142" xlink:href="#m2d9aec35c4" y="274.051331"/>
     <use style="fill:#ff7f0e;stroke:#ff7f0e;" x="216.016445" xlink:href="#m2d9aec35c4" y="274.552731"/>
     <use style="fill:#ff7f0e;stroke:#ff7f0e;" x="218.868747" xlink:href="#m2d9aec35c4" y="272.8446"/>
     <use style="fill:#ff7f0e;stroke:#ff7f0e;" x="221.72105" xlink:href="#m2d9aec35c4" y="274.724381"/>
     <use style="fill:#ff7f0e;stroke:#ff7f0e;" x="224.573352" xlink:href="#m2d9aec35c4" y="267.187985"/>
     <use style="fill:#ff7f0e;stroke:#ff7f0e;" x="227.425655" xlink:href="#m2d9aec35c4" y="273.689599"/>
     <use style="fill:#ff7f0e;stroke:#ff7f0e;" x="230.277958" xlink:href="#m2d9aec35c4" y="272.622691"/>
     <use style="fill:#ff7f0e;stroke:#ff7f0e;" x="233.13026" xlink:href="#m2d9aec35c4" y="272.761363"/>
     <use style="fill:#ff7f0e;stroke:#ff7f0e;" x="235.982563" xlink:href="#m2d9aec35c4" y="274.136298"/>
     <use style="fill:#ff7f0e;stroke:#ff7f0e;" x="238.834866" xlink:href="#m2d9aec35c4" y="266.518093"/>
     <use style="fill:#ff7f0e;stroke:#ff7f0e;" x="241.687168" xlink:href="#m2d9aec35c4" y="272.798284"/>
     <use style="fill:#ff7f0e;stroke:#ff7f0e;" x="244.539471" xlink:href="#m2d9aec35c4" y="274.848083"/>
     <use style="fill:#ff7f0e;stroke:#ff7f0e;" x="247.391774" xlink:href="#m2d9aec35c4" y="270.640335"/>
     <use style="fill:#ff7f0e;stroke:#ff7f0e;" x="250.244076" xlink:href="#m2d9aec35c4" y="272.686941"/>
     <use style="fill:#ff7f0e;stroke:#ff7f0e;" x="253.096379" xlink:href="#m2d9aec35c4" y="273.186668"/>
     <use style="fill:#ff7f0e;stroke:#ff7f0e;" x="255.948682" xlink:href="#m2d9aec35c4" y="268.568314"/>
     <use style="fill:#ff7f0e;stroke:#ff7f0e;" x="258.800984" xlink:href="#m2d9aec35c4" y="273.671518"/>
     <use style="fill:#ff7f0e;stroke:#ff7f0e;" x="261.653287" xlink:href="#m2d9aec35c4" y="272.357504"/>
     <use style="fill:#ff7f0e;stroke:#ff7f0e;" x="264.50559" xlink:href="#m2d9aec35c4" y="273.485446"/>
     <use style="fill:#ff7f0e;stroke:#ff7f0e;" x="267.357892" xlink:href="#m2d9aec35c4" y="273.567612"/>
     <use style="fill:#ff7f0e;stroke:#ff7f0e;" x="270.210195" xlink:href="#m2d9aec35c4" y="273.951538"/>
     <use style="fill:#ff7f0e;stroke:#ff7f0e;" x="273.062497" xlink:href="#m2d9aec35c4" y="270.814875"/>
     <use style="fill:#ff7f0e;stroke:#ff7f0e;" x="275.9148" xlink:href="#m2d9aec35c4" y="274.087073"/>
     <use style="fill:#ff7f0e;stroke:#ff7f0e;" x="278.767103" xlink:href="#m2d9aec35c4" y="274.440288"/>
     <use style="fill:#ff7f0e;stroke:#ff7f0e;" x="281.619405" xlink:href="#m2d9aec35c4" y="274.985975"/>
     <use style="fill:#ff7f0e;stroke:#ff7f0e;" x="284.471708" xlink:href="#m2d9aec35c4" y="276.063688"/>
     <use style="fill:#ff7f0e;stroke:#ff7f0e;" x="287.324011" xlink:href="#m2d9aec35c4" y="275.621711"/>
     <use style="fill:#ff7f0e;stroke:#ff7f0e;" x="290.176313" xlink:href="#m2d9aec35c4" y="273.22075"/>
     <use style="fill:#ff7f0e;stroke:#ff7f0e;" x="293.028616" xlink:href="#m2d9aec35c4" y="277.193929"/>
     <use style="fill:#ff7f0e;stroke:#ff7f0e;" x="295.880919" xlink:href="#m2d9aec35c4" y="278.569512"/>
     <use style="fill:#ff7f0e;stroke:#ff7f0e;" x="298.733221" xlink:href="#m2d9aec35c4" y="278.409897"/>
     <use style="fill:#ff7f0e;stroke:#ff7f0e;" x="301.585524" xlink:href="#m2d9aec35c4" y="277.964641"/>
     <use style="fill:#ff7f0e;stroke:#ff7f0e;" x="304.437827" xlink:href="#m2d9aec35c4" y="279.280648"/>
     <use style="fill:#ff7f0e;stroke:#ff7f0e;" x="307.290129" xlink:href="#m2d9aec35c4" y="276.933882"/>
     <use style="fill:#ff7f0e;stroke:#ff7f0e;" x="310.142432" xlink:href="#m2d9aec35c4" y="280.370508"/>
     <use style="fill:#ff7f0e;stroke:#ff7f0e;" x="312.994735" xlink:href="#m2d9aec35c4" y="282.168499"/>
     <use style="fill:#ff7f0e;stroke:#ff7f0e;" x="315.847037" xlink:href="#m2d9aec35c4" y="280.155595"/>
     <use style="fill:#ff7f0e;stroke:#ff7f0e;" x="318.69934" xlink:href="#m2d9aec35c4" y="281.544857"/>
     <use style="fill:#ff7f0e;stroke:#ff7f0e;" x="321.551642" xlink:href="#m2d9aec35c4" y="279.908706"/>
     <use style="fill:#ff7f0e;stroke:#ff7f0e;" x="324.403945" xlink:href="#m2d9aec35c4" y="281.910165"/>
     <use style="fill:#ff7f0e;stroke:#ff7f0e;" x="327.256248" xlink:href="#m2d9aec35c4" y="283.016531"/>
     <use style="fill:#ff7f0e;stroke:#ff7f0e;" x="330.10855" xlink:href="#m2d9aec35c4" y="285.245306"/>
     <use style="fill:#ff7f0e;stroke:#ff7f0e;" x="332.960853" xlink:href="#m2d9aec35c4" y="282.142283"/>
     <use style="fill:#ff7f0e;stroke:#ff7f0e;" x="335.813156" xlink:href="#m2d9aec35c4" y="285.302029"/>
     <use style="fill:#ff7f0e;stroke:#ff7f0e;" x="338.665458" xlink:href="#m2d9aec35c4" y="282.462654"/>
     <use style="fill:#ff7f0e;stroke:#ff7f0e;" x="341.517761" xlink:href="#m2d9aec35c4" y="285.645115"/>
     <use style="fill:#ff7f0e;stroke:#ff7f0e;" x="344.370064" xlink:href="#m2d9aec35c4" y="285.731597"/>
     <use style="fill:#ff7f0e;stroke:#ff7f0e;" x="347.222366" xlink:href="#m2d9aec35c4" y="285.411386"/>
     <use style="fill:#ff7f0e;stroke:#ff7f0e;" x="350.074669" xlink:href="#m2d9aec35c4" y="285.702344"/>
     <use style="fill:#ff7f0e;stroke:#ff7f0e;" x="352.926972" xlink:href="#m2d9aec35c4" y="285.302215"/>
     <use style="fill:#ff7f0e;stroke:#ff7f0e;" x="355.779274" xlink:href="#m2d9aec35c4" y="283.741446"/>
    </g>
   </g>
   <g id="matplotlib.axis_1">
    <g id="xtick_1">
     <g id="line2d_1">
      <defs>
       <path d="M 0 0 
L 0 3.5 
" id="m8763994e03" style="stroke:#000000;stroke-width:0.8;"/>
      </defs>
      <g>
       <use style="stroke:#000000;stroke-width:0.8;" x="44.878286" xlink:href="#m8763994e03" y="306.925714"/>
      </g>
     </g>
     <g id="text_1">
      <!-- 0 -->
      <defs>
       <path d="M 31.78125 66.40625 
Q 24.171875 66.40625 20.328125 58.90625 
Q 16.5 51.421875 16.5 36.375 
Q 16.5 21.390625 20.328125 13.890625 
Q 24.171875 6.390625 31.78125 6.390625 
Q 39.453125 6.390625 43.28125 13.890625 
Q 47.125 21.390625 47.125 36.375 
Q 47.125 51.421875 43.28125 58.90625 
Q 39.453125 66.40625 31.78125 66.40625 
z
M 31.78125 74.21875 
Q 44.046875 74.21875 50.515625 64.515625 
Q 56.984375 54.828125 56.984375 36.375 
Q 56.984375 17.96875 50.515625 8.265625 
Q 44.046875 -1.421875 31.78125 -1.421875 
Q 19.53125 -1.421875 13.0625 8.265625 
Q 6.59375 17.96875 6.59375 36.375 
Q 6.59375 54.828125 13.0625 64.515625 
Q 19.53125 74.21875 31.78125 74.21875 
z
" id="DejaVuSans-48"/>
      </defs>
      <g transform="translate(40.424536 324.563527)scale(0.14 -0.14)">
       <use xlink:href="#DejaVuSans-48"/>
      </g>
     </g>
    </g>
    <g id="xtick_2">
     <g id="line2d_2">
      <g>
       <use style="stroke:#000000;stroke-width:0.8;" x="88.563" xlink:href="#m8763994e03" y="306.925714"/>
      </g>
     </g>
     <g id="text_2">
      <!-- 1 -->
      <defs>
       <path d="M 12.40625 8.296875 
L 28.515625 8.296875 
L 28.515625 63.921875 
L 10.984375 60.40625 
L 10.984375 69.390625 
L 28.421875 72.90625 
L 38.28125 72.90625 
L 38.28125 8.296875 
L 54.390625 8.296875 
L 54.390625 0 
L 12.40625 0 
z
" id="DejaVuSans-49"/>
      </defs>
      <g transform="translate(84.10925 324.563527)scale(0.14 -0.14)">
       <use xlink:href="#DejaVuSans-49"/>
      </g>
     </g>
    </g>
    <g id="xtick_3">
     <g id="line2d_3">
      <g>
       <use style="stroke:#000000;stroke-width:0.8;" x="132.247714" xlink:href="#m8763994e03" y="306.925714"/>
      </g>
     </g>
     <g id="text_3">
      <!-- 2 -->
      <defs>
       <path d="M 19.1875 8.296875 
L 53.609375 8.296875 
L 53.609375 0 
L 7.328125 0 
L 7.328125 8.296875 
Q 12.9375 14.109375 22.625 23.890625 
Q 32.328125 33.6875 34.8125 36.53125 
Q 39.546875 41.84375 41.421875 45.53125 
Q 43.3125 49.21875 43.3125 52.78125 
Q 43.3125 58.59375 39.234375 62.25 
Q 35.15625 65.921875 28.609375 65.921875 
Q 23.96875 65.921875 18.8125 64.3125 
Q 13.671875 62.703125 7.8125 59.421875 
L 7.8125 69.390625 
Q 13.765625 71.78125 18.9375 73 
Q 24.125 74.21875 28.421875 74.21875 
Q 39.75 74.21875 46.484375 68.546875 
Q 53.21875 62.890625 53.21875 53.421875 
Q 53.21875 48.921875 51.53125 44.890625 
Q 49.859375 40.875 45.40625 35.40625 
Q 44.1875 33.984375 37.640625 27.21875 
Q 31.109375 20.453125 19.1875 8.296875 
z
" id="DejaVuSans-50"/>
      </defs>
      <g transform="translate(127.793964 324.563527)scale(0.14 -0.14)">
       <use xlink:href="#DejaVuSans-50"/>
      </g>
     </g>
    </g>
    <g id="xtick_4">
     <g id="line2d_4">
      <g>
       <use style="stroke:#000000;stroke-width:0.8;" x="175.932429" xlink:href="#m8763994e03" y="306.925714"/>
      </g>
     </g>
     <g id="text_4">
      <!-- 3 -->
      <defs>
       <path d="M 40.578125 39.3125 
Q 47.65625 37.796875 51.625 33 
Q 55.609375 28.21875 55.609375 21.1875 
Q 55.609375 10.40625 48.1875 4.484375 
Q 40.765625 -1.421875 27.09375 -1.421875 
Q 22.515625 -1.421875 17.65625 -0.515625 
Q 12.796875 0.390625 7.625 2.203125 
L 7.625 11.71875 
Q 11.71875 9.328125 16.59375 8.109375 
Q 21.484375 6.890625 26.8125 6.890625 
Q 36.078125 6.890625 40.9375 10.546875 
Q 45.796875 14.203125 45.796875 21.1875 
Q 45.796875 27.640625 41.28125 31.265625 
Q 36.765625 34.90625 28.71875 34.90625 
L 20.21875 34.90625 
L 20.21875 43.015625 
L 29.109375 43.015625 
Q 36.375 43.015625 40.234375 45.921875 
Q 44.09375 48.828125 44.09375 54.296875 
Q 44.09375 59.90625 40.109375 62.90625 
Q 36.140625 65.921875 28.71875 65.921875 
Q 24.65625 65.921875 20.015625 65.03125 
Q 15.375 64.15625 9.8125 62.3125 
L 9.8125 71.09375 
Q 15.4375 72.65625 20.34375 73.4375 
Q 25.25 74.21875 29.59375 74.21875 
Q 40.828125 74.21875 47.359375 69.109375 
Q 53.90625 64.015625 53.90625 55.328125 
Q 53.90625 49.265625 50.4375 45.09375 
Q 46.96875 40.921875 40.578125 39.3125 
z
" id="DejaVuSans-51"/>
      </defs>
      <g transform="translate(171.478679 324.563527)scale(0.14 -0.14)">
       <use xlink:href="#DejaVuSans-51"/>
      </g>
     </g>
    </g>
    <g id="xtick_5">
     <g id="line2d_5">
      <g>
       <use style="stroke:#000000;stroke-width:0.8;" x="219.617143" xlink:href="#m8763994e03" y="306.925714"/>
      </g>
     </g>
     <g id="text_5">
      <!-- 4 -->
      <defs>
       <path d="M 37.796875 64.3125 
L 12.890625 25.390625 
L 37.796875 25.390625 
z
M 35.203125 72.90625 
L 47.609375 72.90625 
L 47.609375 25.390625 
L 58.015625 25.390625 
L 58.015625 17.1875 
L 47.609375 17.1875 
L 47.609375 0 
L 37.796875 0 
L 37.796875 17.1875 
L 4.890625 17.1875 
L 4.890625 26.703125 
z
" id="DejaVuSans-52"/>
      </defs>
      <g transform="translate(215.163393 324.563527)scale(0.14 -0.14)">
       <use xlink:href="#DejaVuSans-52"/>
      </g>
     </g>
    </g>
    <g id="xtick_6">
     <g id="line2d_6">
      <g>
       <use style="stroke:#000000;stroke-width:0.8;" x="263.301857" xlink:href="#m8763994e03" y="306.925714"/>
      </g>
     </g>
     <g id="text_6">
      <!-- 5 -->
      <defs>
       <path d="M 10.796875 72.90625 
L 49.515625 72.90625 
L 49.515625 64.59375 
L 19.828125 64.59375 
L 19.828125 46.734375 
Q 21.96875 47.46875 24.109375 47.828125 
Q 26.265625 48.1875 28.421875 48.1875 
Q 40.625 48.1875 47.75 41.5 
Q 54.890625 34.8125 54.890625 23.390625 
Q 54.890625 11.625 47.5625 5.09375 
Q 40.234375 -1.421875 26.90625 -1.421875 
Q 22.3125 -1.421875 17.546875 -0.640625 
Q 12.796875 0.140625 7.71875 1.703125 
L 7.71875 11.625 
Q 12.109375 9.234375 16.796875 8.0625 
Q 21.484375 6.890625 26.703125 6.890625 
Q 35.15625 6.890625 40.078125 11.328125 
Q 45.015625 15.765625 45.015625 23.390625 
Q 45.015625 31 40.078125 35.4375 
Q 35.15625 39.890625 26.703125 39.890625 
Q 22.75 39.890625 18.8125 39.015625 
Q 14.890625 38.140625 10.796875 36.28125 
z
" id="DejaVuSans-53"/>
      </defs>
      <g transform="translate(258.848107 324.563527)scale(0.14 -0.14)">
       <use xlink:href="#DejaVuSans-53"/>
      </g>
     </g>
    </g>
    <g id="xtick_7">
     <g id="line2d_7">
      <g>
       <use style="stroke:#000000;stroke-width:0.8;" x="306.986571" xlink:href="#m8763994e03" y="306.925714"/>
      </g>
     </g>
     <g id="text_7">
      <!-- 6 -->
      <defs>
       <path d="M 33.015625 40.375 
Q 26.375 40.375 22.484375 35.828125 
Q 18.609375 31.296875 18.609375 23.390625 
Q 18.609375 15.53125 22.484375 10.953125 
Q 26.375 6.390625 33.015625 6.390625 
Q 39.65625 6.390625 43.53125 10.953125 
Q 47.40625 15.53125 47.40625 23.390625 
Q 47.40625 31.296875 43.53125 35.828125 
Q 39.65625 40.375 33.015625 40.375 
z
M 52.59375 71.296875 
L 52.59375 62.3125 
Q 48.875 64.0625 45.09375 64.984375 
Q 41.3125 65.921875 37.59375 65.921875 
Q 27.828125 65.921875 22.671875 59.328125 
Q 17.53125 52.734375 16.796875 39.40625 
Q 19.671875 43.65625 24.015625 45.921875 
Q 28.375 48.1875 33.59375 48.1875 
Q 44.578125 48.1875 50.953125 41.515625 
Q 57.328125 34.859375 57.328125 23.390625 
Q 57.328125 12.15625 50.6875 5.359375 
Q 44.046875 -1.421875 33.015625 -1.421875 
Q 20.359375 -1.421875 13.671875 8.265625 
Q 6.984375 17.96875 6.984375 36.375 
Q 6.984375 53.65625 15.1875 63.9375 
Q 23.390625 74.21875 37.203125 74.21875 
Q 40.921875 74.21875 44.703125 73.484375 
Q 48.484375 72.75 52.59375 71.296875 
z
" id="DejaVuSans-54"/>
      </defs>
      <g transform="translate(302.532821 324.563527)scale(0.14 -0.14)">
       <use xlink:href="#DejaVuSans-54"/>
      </g>
     </g>
    </g>
    <g id="xtick_8">
     <g id="line2d_8">
      <g>
       <use style="stroke:#000000;stroke-width:0.8;" x="350.671286" xlink:href="#m8763994e03" y="306.925714"/>
      </g>
     </g>
     <g id="text_8">
      <!-- 7 -->
      <defs>
       <path d="M 8.203125 72.90625 
L 55.078125 72.90625 
L 55.078125 68.703125 
L 28.609375 0 
L 18.3125 0 
L 43.21875 64.59375 
L 8.203125 64.59375 
z
" id="DejaVuSans-55"/>
      </defs>
      <g transform="translate(346.217536 324.563527)scale(0.14 -0.14)">
       <use xlink:href="#DejaVuSans-55"/>
      </g>
     </g>
    </g>
    <g id="xtick_9">
     <g id="line2d_9">
      <g>
       <use style="stroke:#000000;stroke-width:0.8;" x="394.356" xlink:href="#m8763994e03" y="306.925714"/>
      </g>
     </g>
     <g id="text_9">
      <!-- 8 -->
      <defs>
       <path d="M 31.78125 34.625 
Q 24.75 34.625 20.71875 30.859375 
Q 16.703125 27.09375 16.703125 20.515625 
Q 16.703125 13.921875 20.71875 10.15625 
Q 24.75 6.390625 31.78125 6.390625 
Q 38.8125 6.390625 42.859375 10.171875 
Q 46.921875 13.96875 46.921875 20.515625 
Q 46.921875 27.09375 42.890625 30.859375 
Q 38.875 34.625 31.78125 34.625 
z
M 21.921875 38.8125 
Q 15.578125 40.375 12.03125 44.71875 
Q 8.5 49.078125 8.5 55.328125 
Q 8.5 64.0625 14.71875 69.140625 
Q 20.953125 74.21875 31.78125 74.21875 
Q 42.671875 74.21875 48.875 69.140625 
Q 55.078125 64.0625 55.078125 55.328125 
Q 55.078125 49.078125 51.53125 44.71875 
Q 48 40.375 41.703125 38.8125 
Q 48.828125 37.15625 52.796875 32.3125 
Q 56.78125 27.484375 56.78125 20.515625 
Q 56.78125 9.90625 50.3125 4.234375 
Q 43.84375 -1.421875 31.78125 -1.421875 
Q 19.734375 -1.421875 13.25 4.234375 
Q 6.78125 9.90625 6.78125 20.515625 
Q 6.78125 27.484375 10.78125 32.3125 
Q 14.796875 37.15625 21.921875 38.8125 
z
M 18.3125 54.390625 
Q 18.3125 48.734375 21.84375 45.5625 
Q 25.390625 42.390625 31.78125 42.390625 
Q 38.140625 42.390625 41.71875 45.5625 
Q 45.3125 48.734375 45.3125 54.390625 
Q 45.3125 60.0625 41.71875 63.234375 
Q 38.140625 66.40625 31.78125 66.40625 
Q 25.390625 66.40625 21.84375 63.234375 
Q 18.3125 60.0625 18.3125 54.390625 
z
" id="DejaVuSans-56"/>
      </defs>
      <g transform="translate(389.90225 324.563527)scale(0.14 -0.14)">
       <use xlink:href="#DejaVuSans-56"/>
      </g>
     </g>
    </g>
    <g id="text_10">
     <!-- time [s] -->
     <defs>
      <path d="M 18.3125 70.21875 
L 18.3125 54.6875 
L 36.8125 54.6875 
L 36.8125 47.703125 
L 18.3125 47.703125 
L 18.3125 18.015625 
Q 18.3125 11.328125 20.140625 9.421875 
Q 21.96875 7.515625 27.59375 7.515625 
L 36.8125 7.515625 
L 36.8125 0 
L 27.59375 0 
Q 17.1875 0 13.234375 3.875 
Q 9.28125 7.765625 9.28125 18.015625 
L 9.28125 47.703125 
L 2.6875 47.703125 
L 2.6875 54.6875 
L 9.28125 54.6875 
L 9.28125 70.21875 
z
" id="DejaVuSans-116"/>
      <path d="M 9.421875 54.6875 
L 18.40625 54.6875 
L 18.40625 0 
L 9.421875 0 
z
M 9.421875 75.984375 
L 18.40625 75.984375 
L 18.40625 64.59375 
L 9.421875 64.59375 
z
" id="DejaVuSans-105"/>
      <path d="M 52 44.1875 
Q 55.375 50.25 60.0625 53.125 
Q 64.75 56 71.09375 56 
Q 79.640625 56 84.28125 50.015625 
Q 88.921875 44.046875 88.921875 33.015625 
L 88.921875 0 
L 79.890625 0 
L 79.890625 32.71875 
Q 79.890625 40.578125 77.09375 44.375 
Q 74.3125 48.1875 68.609375 48.1875 
Q 61.625 48.1875 57.5625 43.546875 
Q 53.515625 38.921875 53.515625 30.90625 
L 53.515625 0 
L 44.484375 0 
L 44.484375 32.71875 
Q 44.484375 40.625 41.703125 44.40625 
Q 38.921875 48.1875 33.109375 48.1875 
Q 26.21875 48.1875 22.15625 43.53125 
Q 18.109375 38.875 18.109375 30.90625 
L 18.109375 0 
L 9.078125 0 
L 9.078125 54.6875 
L 18.109375 54.6875 
L 18.109375 46.1875 
Q 21.1875 51.21875 25.484375 53.609375 
Q 29.78125 56 35.6875 56 
Q 41.65625 56 45.828125 52.96875 
Q 50 49.953125 52 44.1875 
z
" id="DejaVuSans-109"/>
      <path d="M 56.203125 29.59375 
L 56.203125 25.203125 
L 14.890625 25.203125 
Q 15.484375 15.921875 20.484375 11.0625 
Q 25.484375 6.203125 34.421875 6.203125 
Q 39.59375 6.203125 44.453125 7.46875 
Q 49.3125 8.734375 54.109375 11.28125 
L 54.109375 2.78125 
Q 49.265625 0.734375 44.1875 -0.34375 
Q 39.109375 -1.421875 33.890625 -1.421875 
Q 20.796875 -1.421875 13.15625 6.1875 
Q 5.515625 13.8125 5.515625 26.8125 
Q 5.515625 40.234375 12.765625 48.109375 
Q 20.015625 56 32.328125 56 
Q 43.359375 56 49.78125 48.890625 
Q 56.203125 41.796875 56.203125 29.59375 
z
M 47.21875 32.234375 
Q 47.125 39.59375 43.09375 43.984375 
Q 39.0625 48.390625 32.421875 48.390625 
Q 24.90625 48.390625 20.390625 44.140625 
Q 15.875 39.890625 15.1875 32.171875 
z
" id="DejaVuSans-101"/>
      <path id="DejaVuSans-32"/>
      <path d="M 8.59375 75.984375 
L 29.296875 75.984375 
L 29.296875 69 
L 17.578125 69 
L 17.578125 -6.203125 
L 29.296875 -6.203125 
L 29.296875 -13.1875 
L 8.59375 -13.1875 
z
" id="DejaVuSans-91"/>
      <path d="M 44.28125 53.078125 
L 44.28125 44.578125 
Q 40.484375 46.53125 36.375 47.5 
Q 32.28125 48.484375 27.875 48.484375 
Q 21.1875 48.484375 17.84375 46.4375 
Q 14.5 44.390625 14.5 40.28125 
Q 14.5 37.15625 16.890625 35.375 
Q 19.28125 33.59375 26.515625 31.984375 
L 29.59375 31.296875 
Q 39.15625 29.25 43.1875 25.515625 
Q 47.21875 21.78125 47.21875 15.09375 
Q 47.21875 7.46875 41.1875 3.015625 
Q 35.15625 -1.421875 24.609375 -1.421875 
Q 20.21875 -1.421875 15.453125 -0.5625 
Q 10.6875 0.296875 5.421875 2 
L 5.421875 11.28125 
Q 10.40625 8.6875 15.234375 7.390625 
Q 20.0625 6.109375 24.8125 6.109375 
Q 31.15625 6.109375 34.5625 8.28125 
Q 37.984375 10.453125 37.984375 14.40625 
Q 37.984375 18.0625 35.515625 20.015625 
Q 33.0625 21.96875 24.703125 23.78125 
L 21.578125 24.515625 
Q 13.234375 26.265625 9.515625 29.90625 
Q 5.8125 33.546875 5.8125 39.890625 
Q 5.8125 47.609375 11.28125 51.796875 
Q 16.75 56 26.8125 56 
Q 31.78125 56 36.171875 55.265625 
Q 40.578125 54.546875 44.28125 53.078125 
z
" id="DejaVuSans-115"/>
      <path d="M 30.421875 75.984375 
L 30.421875 -13.1875 
L 9.71875 -13.1875 
L 9.71875 -6.203125 
L 21.390625 -6.203125 
L 21.390625 69 
L 9.71875 69 
L 9.71875 75.984375 
z
" id="DejaVuSans-93"/>
     </defs>
     <g transform="translate(192.469174 342.112902)scale(0.14 -0.14)">
      <use xlink:href="#DejaVuSans-116"/>
      <use x="39.208984" xlink:href="#DejaVuSans-105"/>
      <use x="66.992188" xlink:href="#DejaVuSans-109"/>
      <use x="164.404297" xlink:href="#DejaVuSans-101"/>
      <use x="225.927734" xlink:href="#DejaVuSans-32"/>
      <use x="257.714844" xlink:href="#DejaVuSans-91"/>
      <use x="296.728516" xlink:href="#DejaVuSans-115"/>
      <use x="348.828125" xlink:href="#DejaVuSans-93"/>
     </g>
    </g>
   </g>
   <g id="matplotlib.axis_2">
    <g id="ytick_1">
     <g id="line2d_10">
      <defs>
       <path d="M 0 0 
L -3.5 0 
" id="med333bfb56" style="stroke:#000000;stroke-width:0.8;"/>
      </defs>
      <g>
       <use style="stroke:#000000;stroke-width:0.8;" x="44.878286" xlink:href="#med333bfb56" y="293.951472"/>
      </g>
     </g>
     <g id="text_11">
      <!-- 0 -->
      <g transform="translate(28.970786 299.270379)scale(0.14 -0.14)">
       <use xlink:href="#DejaVuSans-48"/>
      </g>
     </g>
    </g>
    <g id="ytick_2">
     <g id="line2d_11">
      <g>
       <use style="stroke:#000000;stroke-width:0.8;" x="44.878286" xlink:href="#med333bfb56" y="243.075703"/>
      </g>
     </g>
     <g id="text_12">
      <!-- 2 -->
      <g transform="translate(28.970786 248.394609)scale(0.14 -0.14)">
       <use xlink:href="#DejaVuSans-50"/>
      </g>
     </g>
    </g>
    <g id="ytick_3">
     <g id="line2d_12">
      <g>
       <use style="stroke:#000000;stroke-width:0.8;" x="44.878286" xlink:href="#med333bfb56" y="192.199933"/>
      </g>
     </g>
     <g id="text_13">
      <!-- 4 -->
      <g transform="translate(28.970786 197.518839)scale(0.14 -0.14)">
       <use xlink:href="#DejaVuSans-52"/>
      </g>
     </g>
    </g>
    <g id="ytick_4">
     <g id="line2d_13">
      <g>
       <use style="stroke:#000000;stroke-width:0.8;" x="44.878286" xlink:href="#med333bfb56" y="141.324163"/>
      </g>
     </g>
     <g id="text_14">
      <!-- 6 -->
      <g transform="translate(28.970786 146.643069)scale(0.14 -0.14)">
       <use xlink:href="#DejaVuSans-54"/>
      </g>
     </g>
    </g>
    <g id="ytick_5">
     <g id="line2d_14">
      <g>
       <use style="stroke:#000000;stroke-width:0.8;" x="44.878286" xlink:href="#med333bfb56" y="90.448393"/>
      </g>
     </g>
     <g id="text_15">
      <!-- 8 -->
      <g transform="translate(28.970786 95.767299)scale(0.14 -0.14)">
       <use xlink:href="#DejaVuSans-56"/>
      </g>
     </g>
    </g>
    <g id="ytick_6">
     <g id="line2d_15">
      <g>
       <use style="stroke:#000000;stroke-width:0.8;" x="44.878286" xlink:href="#med333bfb56" y="39.572623"/>
      </g>
     </g>
     <g id="text_16">
      <!-- 10 -->
      <g transform="translate(20.063286 44.891529)scale(0.14 -0.14)">
       <use xlink:href="#DejaVuSans-49"/>
       <use x="63.623047" xlink:href="#DejaVuSans-48"/>
      </g>
     </g>
    </g>
    <g id="text_17">
     <!-- velocity [m/s] -->
     <defs>
      <path d="M 2.984375 54.6875 
L 12.5 54.6875 
L 29.59375 8.796875 
L 46.6875 54.6875 
L 56.203125 54.6875 
L 35.6875 0 
L 23.484375 0 
z
" id="DejaVuSans-118"/>
      <path d="M 9.421875 75.984375 
L 18.40625 75.984375 
L 18.40625 0 
L 9.421875 0 
z
" id="DejaVuSans-108"/>
      <path d="M 30.609375 48.390625 
Q 23.390625 48.390625 19.1875 42.75 
Q 14.984375 37.109375 14.984375 27.296875 
Q 14.984375 17.484375 19.15625 11.84375 
Q 23.34375 6.203125 30.609375 6.203125 
Q 37.796875 6.203125 41.984375 11.859375 
Q 46.1875 17.53125 46.1875 27.296875 
Q 46.1875 37.015625 41.984375 42.703125 
Q 37.796875 48.390625 30.609375 48.390625 
z
M 30.609375 56 
Q 42.328125 56 49.015625 48.375 
Q 55.71875 40.765625 55.71875 27.296875 
Q 55.71875 13.875 49.015625 6.21875 
Q 42.328125 -1.421875 30.609375 -1.421875 
Q 18.84375 -1.421875 12.171875 6.21875 
Q 5.515625 13.875 5.515625 27.296875 
Q 5.515625 40.765625 12.171875 48.375 
Q 18.84375 56 30.609375 56 
z
" id="DejaVuSans-111"/>
      <path d="M 48.78125 52.59375 
L 48.78125 44.1875 
Q 44.96875 46.296875 41.140625 47.34375 
Q 37.3125 48.390625 33.40625 48.390625 
Q 24.65625 48.390625 19.8125 42.84375 
Q 14.984375 37.3125 14.984375 27.296875 
Q 14.984375 17.28125 19.8125 11.734375 
Q 24.65625 6.203125 33.40625 6.203125 
Q 37.3125 6.203125 41.140625 7.25 
Q 44.96875 8.296875 48.78125 10.40625 
L 48.78125 2.09375 
Q 45.015625 0.34375 40.984375 -0.53125 
Q 36.96875 -1.421875 32.421875 -1.421875 
Q 20.0625 -1.421875 12.78125 6.34375 
Q 5.515625 14.109375 5.515625 27.296875 
Q 5.515625 40.671875 12.859375 48.328125 
Q 20.21875 56 33.015625 56 
Q 37.15625 56 41.109375 55.140625 
Q 45.0625 54.296875 48.78125 52.59375 
z
" id="DejaVuSans-99"/>
      <path d="M 32.171875 -5.078125 
Q 28.375 -14.84375 24.75 -17.8125 
Q 21.140625 -20.796875 15.09375 -20.796875 
L 7.90625 -20.796875 
L 7.90625 -13.28125 
L 13.1875 -13.28125 
Q 16.890625 -13.28125 18.9375 -11.515625 
Q 21 -9.765625 23.484375 -3.21875 
L 25.09375 0.875 
L 2.984375 54.6875 
L 12.5 54.6875 
L 29.59375 11.921875 
L 46.6875 54.6875 
L 56.203125 54.6875 
z
" id="DejaVuSans-121"/>
      <path d="M 25.390625 72.90625 
L 33.6875 72.90625 
L 8.296875 -9.28125 
L 0 -9.28125 
z
" id="DejaVuSans-47"/>
     </defs>
     <g transform="translate(13.151723 212.029062)rotate(-90)scale(0.14 -0.14)">
      <use xlink:href="#DejaVuSans-118"/>
      <use x="59.179688" xlink:href="#DejaVuSans-101"/>
      <use x="120.703125" xlink:href="#DejaVuSans-108"/>
      <use x="148.486328" xlink:href="#DejaVuSans-111"/>
      <use x="209.667969" xlink:href="#DejaVuSans-99"/>
      <use x="264.648438" xlink:href="#DejaVuSans-105"/>
      <use x="292.431641" xlink:href="#DejaVuSans-116"/>
      <use x="331.640625" xlink:href="#DejaVuSans-121"/>
      <use x="390.820312" xlink:href="#DejaVuSans-32"/>
      <use x="422.607422" xlink:href="#DejaVuSans-91"/>
      <use x="461.621094" xlink:href="#DejaVuSans-109"/>
      <use x="559.033203" xlink:href="#DejaVuSans-47"/>
      <use x="592.724609" xlink:href="#DejaVuSans-115"/>
      <use x="644.824219" xlink:href="#DejaVuSans-93"/>
     </g>
    </g>
   </g>
   <g id="patch_3">
    <path d="M 44.878286 306.925714 
L 44.878286 21.394286 
" style="fill:none;stroke:#000000;stroke-linecap:square;stroke-linejoin:miter;stroke-width:0.8;"/>
   </g>
   <g id="patch_4">
    <path d="M 394.356 306.925714 
L 394.356 21.394286 
" style="fill:none;stroke:#000000;stroke-linecap:square;stroke-linejoin:miter;stroke-width:0.8;"/>
   </g>
   <g id="patch_5">
    <path d="M 44.878286 306.925714 
L 394.356 306.925714 
" style="fill:none;stroke:#000000;stroke-linecap:square;stroke-linejoin:miter;stroke-width:0.8;"/>
   </g>
   <g id="patch_6">
    <path d="M 44.878286 21.394286 
L 394.356 21.394286 
" style="fill:none;stroke:#000000;stroke-linecap:square;stroke-linejoin:miter;stroke-width:0.8;"/>
   </g>
   <g id="text_18">
    <!-- Demo sample -->
    <defs>
     <path d="M 19.671875 64.796875 
L 19.671875 8.109375 
L 31.59375 8.109375 
Q 46.6875 8.109375 53.6875 14.9375 
Q 60.6875 21.78125 60.6875 36.53125 
Q 60.6875 51.171875 53.6875 57.984375 
Q 46.6875 64.796875 31.59375 64.796875 
z
M 9.8125 72.90625 
L 30.078125 72.90625 
Q 51.265625 72.90625 61.171875 64.09375 
Q 71.09375 55.28125 71.09375 36.53125 
Q 71.09375 17.671875 61.125 8.828125 
Q 51.171875 0 30.078125 0 
L 9.8125 0 
z
" id="DejaVuSans-68"/>
     <path d="M 34.28125 27.484375 
Q 23.390625 27.484375 19.1875 25 
Q 14.984375 22.515625 14.984375 16.5 
Q 14.984375 11.71875 18.140625 8.90625 
Q 21.296875 6.109375 26.703125 6.109375 
Q 34.1875 6.109375 38.703125 11.40625 
Q 43.21875 16.703125 43.21875 25.484375 
L 43.21875 27.484375 
z
M 52.203125 31.203125 
L 52.203125 0 
L 43.21875 0 
L 43.21875 8.296875 
Q 40.140625 3.328125 35.546875 0.953125 
Q 30.953125 -1.421875 24.3125 -1.421875 
Q 15.921875 -1.421875 10.953125 3.296875 
Q 6 8.015625 6 15.921875 
Q 6 25.140625 12.171875 29.828125 
Q 18.359375 34.515625 30.609375 34.515625 
L 43.21875 34.515625 
L 43.21875 35.40625 
Q 43.21875 41.609375 39.140625 45 
Q 35.0625 48.390625 27.6875 48.390625 
Q 23 48.390625 18.546875 47.265625 
Q 14.109375 46.140625 10.015625 43.890625 
L 10.015625 52.203125 
Q 14.9375 54.109375 19.578125 55.046875 
Q 24.21875 56 28.609375 56 
Q 40.484375 56 46.34375 49.84375 
Q 52.203125 43.703125 52.203125 31.203125 
z
" id="DejaVuSans-97"/>
     <path d="M 18.109375 8.203125 
L 18.109375 -20.796875 
L 9.078125 -20.796875 
L 9.078125 54.6875 
L 18.109375 54.6875 
L 18.109375 46.390625 
Q 20.953125 51.265625 25.265625 53.625 
Q 29.59375 56 35.59375 56 
Q 45.5625 56 51.78125 48.09375 
Q 58.015625 40.1875 58.015625 27.296875 
Q 58.015625 14.40625 51.78125 6.484375 
Q 45.5625 -1.421875 35.59375 -1.421875 
Q 29.59375 -1.421875 25.265625 0.953125 
Q 20.953125 3.328125 18.109375 8.203125 
z
M 48.6875 27.296875 
Q 48.6875 37.203125 44.609375 42.84375 
Q 40.53125 48.484375 33.40625 48.484375 
Q 26.265625 48.484375 22.1875 42.84375 
Q 18.109375 37.203125 18.109375 27.296875 
Q 18.109375 17.390625 22.1875 11.75 
Q 26.265625 6.109375 33.40625 6.109375 
Q 40.53125 6.109375 44.609375 11.75 
Q 48.6875 17.390625 48.6875 27.296875 
z
" id="DejaVuSans-112"/>
    </defs>
    <g transform="translate(161.448455 15.394286)scale(0.168 -0.168)">
     <use xlink:href="#DejaVuSans-68"/>
     <use x="77.001953" xlink:href="#DejaVuSans-101"/>
     <use x="138.525391" xlink:href="#DejaVuSans-109"/>
     <use x="235.9375" xlink:href="#DejaVuSans-111"/>
     <use x="297.119141" xlink:href="#DejaVuSans-32"/>
     <use x="328.90625" xlink:href="#DejaVuSans-115"/>
     <use x="381.005859" xlink:href="#DejaVuSans-97"/>
     <use x="442.285156" xlink:href="#DejaVuSans-109"/>
     <use x="539.697266" xlink:href="#DejaVuSans-112"/>
     <use x="603.173828" xlink:href="#DejaVuSans-108"/>
     <use x="630.957031" xlink:href="#DejaVuSans-101"/>
    </g>
   </g>
   <g id="legend_1">
    <g id="patch_7">
     <path d="M 274.841938 186.809375 
L 384.556 186.809375 
Q 387.356 186.809375 387.356 184.009375 
L 387.356 144.310625 
Q 387.356 141.510625 384.556 141.510625 
L 274.841938 141.510625 
Q 272.041938 141.510625 272.041938 144.310625 
L 272.041938 184.009375 
Q 272.041938 186.809375 274.841938 186.809375 
z
" style="fill:#ffffff;opacity:0.8;stroke:#cccccc;stroke-linejoin:miter;"/>
    </g>
    <g id="PathCollection_3">
     <g>
      <use style="fill:#1f77b4;stroke:#1f77b4;" x="291.641938" xlink:href="#m8a3e843312" y="154.073437"/>
     </g>
    </g>
    <g id="text_19">
     <!-- Radar -->
     <defs>
      <path d="M 44.390625 34.1875 
Q 47.5625 33.109375 50.5625 29.59375 
Q 53.5625 26.078125 56.59375 19.921875 
L 66.609375 0 
L 56 0 
L 46.6875 18.703125 
Q 43.0625 26.03125 39.671875 28.421875 
Q 36.28125 30.8125 30.421875 30.8125 
L 19.671875 30.8125 
L 19.671875 0 
L 9.8125 0 
L 9.8125 72.90625 
L 32.078125 72.90625 
Q 44.578125 72.90625 50.734375 67.671875 
Q 56.890625 62.453125 56.890625 51.90625 
Q 56.890625 45.015625 53.6875 40.46875 
Q 50.484375 35.9375 44.390625 34.1875 
z
M 19.671875 64.796875 
L 19.671875 38.921875 
L 32.078125 38.921875 
Q 39.203125 38.921875 42.84375 42.21875 
Q 46.484375 45.515625 46.484375 51.90625 
Q 46.484375 58.296875 42.84375 61.546875 
Q 39.203125 64.796875 32.078125 64.796875 
z
" id="DejaVuSans-82"/>
      <path d="M 45.40625 46.390625 
L 45.40625 75.984375 
L 54.390625 75.984375 
L 54.390625 0 
L 45.40625 0 
L 45.40625 8.203125 
Q 42.578125 3.328125 38.25 0.953125 
Q 33.9375 -1.421875 27.875 -1.421875 
Q 17.96875 -1.421875 11.734375 6.484375 
Q 5.515625 14.40625 5.515625 27.296875 
Q 5.515625 40.1875 11.734375 48.09375 
Q 17.96875 56 27.875 56 
Q 33.9375 56 38.25 53.625 
Q 42.578125 51.265625 45.40625 46.390625 
z
M 14.796875 27.296875 
Q 14.796875 17.390625 18.875 11.75 
Q 22.953125 6.109375 30.078125 6.109375 
Q 37.203125 6.109375 41.296875 11.75 
Q 45.40625 17.390625 45.40625 27.296875 
Q 45.40625 37.203125 41.296875 42.84375 
Q 37.203125 48.484375 30.078125 48.484375 
Q 22.953125 48.484375 18.875 42.84375 
Q 14.796875 37.203125 14.796875 27.296875 
z
" id="DejaVuSans-100"/>
      <path d="M 41.109375 46.296875 
Q 39.59375 47.171875 37.8125 47.578125 
Q 36.03125 48 33.890625 48 
Q 26.265625 48 22.1875 43.046875 
Q 18.109375 38.09375 18.109375 28.8125 
L 18.109375 0 
L 9.078125 0 
L 9.078125 54.6875 
L 18.109375 54.6875 
L 18.109375 46.1875 
Q 20.953125 51.171875 25.484375 53.578125 
Q 30.03125 56 36.53125 56 
Q 37.453125 56 38.578125 55.875 
Q 39.703125 55.765625 41.0625 55.515625 
z
" id="DejaVuSans-114"/>
     </defs>
     <g transform="translate(316.841938 157.748437)scale(0.14 -0.14)">
      <use xlink:href="#DejaVuSans-82"/>
      <use x="67.232422" xlink:href="#DejaVuSans-97"/>
      <use x="128.511719" xlink:href="#DejaVuSans-100"/>
      <use x="191.988281" xlink:href="#DejaVuSans-97"/>
      <use x="253.267578" xlink:href="#DejaVuSans-114"/>
     </g>
    </g>
    <g id="PathCollection_4">
     <g>
      <use style="fill:#ff7f0e;stroke:#ff7f0e;" x="291.641938" xlink:href="#m2d9aec35c4" y="174.622812"/>
     </g>
    </g>
    <g id="text_20">
     <!-- Optitrack -->
     <defs>
      <path d="M 39.40625 66.21875 
Q 28.65625 66.21875 22.328125 58.203125 
Q 16.015625 50.203125 16.015625 36.375 
Q 16.015625 22.609375 22.328125 14.59375 
Q 28.65625 6.59375 39.40625 6.59375 
Q 50.140625 6.59375 56.421875 14.59375 
Q 62.703125 22.609375 62.703125 36.375 
Q 62.703125 50.203125 56.421875 58.203125 
Q 50.140625 66.21875 39.40625 66.21875 
z
M 39.40625 74.21875 
Q 54.734375 74.21875 63.90625 63.9375 
Q 73.09375 53.65625 73.09375 36.375 
Q 73.09375 19.140625 63.90625 8.859375 
Q 54.734375 -1.421875 39.40625 -1.421875 
Q 24.03125 -1.421875 14.8125 8.828125 
Q 5.609375 19.09375 5.609375 36.375 
Q 5.609375 53.65625 14.8125 63.9375 
Q 24.03125 74.21875 39.40625 74.21875 
z
" id="DejaVuSans-79"/>
      <path d="M 9.078125 75.984375 
L 18.109375 75.984375 
L 18.109375 31.109375 
L 44.921875 54.6875 
L 56.390625 54.6875 
L 27.390625 29.109375 
L 57.625 0 
L 45.90625 0 
L 18.109375 26.703125 
L 18.109375 0 
L 9.078125 0 
z
" id="DejaVuSans-107"/>
     </defs>
     <g transform="translate(316.841938 178.297812)scale(0.14 -0.14)">
      <use xlink:href="#DejaVuSans-79"/>
      <use x="78.710938" xlink:href="#DejaVuSans-112"/>
      <use x="142.1875" xlink:href="#DejaVuSans-116"/>
      <use x="181.396484" xlink:href="#DejaVuSans-105"/>
      <use x="209.179688" xlink:href="#DejaVuSans-116"/>
      <use x="248.388672" xlink:href="#DejaVuSans-114"/>
      <use x="289.501953" xlink:href="#DejaVuSans-97"/>
      <use x="350.78125" xlink:href="#DejaVuSans-99"/>
      <use x="405.761719" xlink:href="#DejaVuSans-107"/>
     </g>
    </g>
   </g>
  </g>
 </g>
 <defs>
  <clipPath id="p4a6235857a">
   <rect height="285.531429" width="349.477714" x="44.878286" y="21.394286"/>
  </clipPath>
 </defs>
</svg>
