<?xml version="1.0" encoding="utf-8" standalone="no"?>
<!DOCTYPE svg PUBLIC "-//W3C//DTD SVG 1.1//EN"
  "http://www.w3.org/Graphics/SVG/1.1/DTD/svg11.dtd">
<!-- Created with matplotlib (https://matplotlib.org/) -->
<svg height="345.6pt" version="1.1" viewBox="0 0 383.04 345.6" width="383.04pt" xmlns="http://www.w3.org/2000/svg" xmlns:xlink="http://www.w3.org/1999/xlink">
 <defs>
  <style type="text/css">
*{stroke-linecap:butt;stroke-linejoin:round;}
  </style>
 </defs>
 <g id="figure_1">
  <g id="patch_1">
   <path d="M 0 345.6 
L 383.04 345.6 
L 383.04 0 
L 0 0 
z
" style="fill:#ffffff;"/>
  </g>
  <g id="axes_1">
   <g id="patch_2">
    <path d="M 47.424 305.28 
L 377.568 305.28 
L 377.568 22.217143 
L 47.424 22.217143 
z
" style="fill:#ffffff;"/>
   </g>
   <g id="PathCollection_1">
    <defs>
     <path d="M 0 3 
C 0.795609 3 1.55874 2.683901 2.12132 2.12132 
C 2.683901 1.55874 3 0.795609 3 0 
C 3 -0.795609 2.683901 -1.55874 2.12132 -2.12132 
C 1.55874 -2.683901 0.795609 -3 0 -3 
C -0.795609 -3 -1.55874 -2.683901 -2.12132 -2.12132 
C -2.683901 -1.55874 -3 -0.795609 -3 0 
C -3 0.795609 -2.683901 1.55874 -2.12132 2.12132 
C -1.55874 2.683901 -0.795609 3 0 3 
z
" id="mbbbc3a05a2" style="stroke:#1f77b4;"/>
    </defs>
    <g clip-path="url(#p2b80384561)">
     <use style="fill:#1f77b4;stroke:#1f77b4;" x="62.430545" xlink:href="#mbbbc3a05a2" y="291.980089"/>
     <use style="fill:#1f77b4;stroke:#1f77b4;" x="65.18404" xlink:href="#mbbbc3a05a2" y="291.631696"/>
     <use style="fill:#1f77b4;stroke:#1f77b4;" x="67.937535" xlink:href="#mbbbc3a05a2" y="292.273081"/>
     <use style="fill:#1f77b4;stroke:#1f77b4;" x="70.691029" xlink:href="#mbbbc3a05a2" y="291.06495"/>
     <use style="fill:#1f77b4;stroke:#1f77b4;" x="73.444524" xlink:href="#mbbbc3a05a2" y="292.413506"/>
     <use style="fill:#1f77b4;stroke:#1f77b4;" x="76.198018" xlink:href="#mbbbc3a05a2" y="291.577708"/>
     <use style="fill:#1f77b4;stroke:#1f77b4;" x="78.951513" xlink:href="#mbbbc3a05a2" y="292.110705"/>
     <use style="fill:#1f77b4;stroke:#1f77b4;" x="81.705008" xlink:href="#mbbbc3a05a2" y="291.527849"/>
     <use style="fill:#1f77b4;stroke:#1f77b4;" x="84.458502" xlink:href="#mbbbc3a05a2" y="291.232392"/>
     <use style="fill:#1f77b4;stroke:#1f77b4;" x="87.211997" xlink:href="#mbbbc3a05a2" y="291.85933"/>
     <use style="fill:#1f77b4;stroke:#1f77b4;" x="89.965491" xlink:href="#mbbbc3a05a2" y="291.765189"/>
     <use style="fill:#1f77b4;stroke:#1f77b4;" x="92.718986" xlink:href="#mbbbc3a05a2" y="291.249045"/>
     <use style="fill:#1f77b4;stroke:#1f77b4;" x="95.47248" xlink:href="#mbbbc3a05a2" y="289.856779"/>
     <use style="fill:#1f77b4;stroke:#1f77b4;" x="98.225975" xlink:href="#mbbbc3a05a2" y="291.543189"/>
     <use style="fill:#1f77b4;stroke:#1f77b4;" x="100.97947" xlink:href="#mbbbc3a05a2" y="287.973277"/>
     <use style="fill:#1f77b4;stroke:#1f77b4;" x="103.732964" xlink:href="#mbbbc3a05a2" y="289.431931"/>
     <use style="fill:#1f77b4;stroke:#1f77b4;" x="106.486459" xlink:href="#mbbbc3a05a2" y="289.142518"/>
     <use style="fill:#1f77b4;stroke:#1f77b4;" x="109.239953" xlink:href="#mbbbc3a05a2" y="286.934477"/>
     <use style="fill:#1f77b4;stroke:#1f77b4;" x="111.993448" xlink:href="#mbbbc3a05a2" y="286.619025"/>
     <use style="fill:#1f77b4;stroke:#1f77b4;" x="114.746942" xlink:href="#mbbbc3a05a2" y="286.976391"/>
     <use style="fill:#1f77b4;stroke:#1f77b4;" x="117.500437" xlink:href="#mbbbc3a05a2" y="285.556577"/>
     <use style="fill:#1f77b4;stroke:#1f77b4;" x="120.253932" xlink:href="#mbbbc3a05a2" y="284.795649"/>
     <use style="fill:#1f77b4;stroke:#1f77b4;" x="123.007426" xlink:href="#mbbbc3a05a2" y="284.994748"/>
     <use style="fill:#1f77b4;stroke:#1f77b4;" x="125.760921" xlink:href="#mbbbc3a05a2" y="285.273313"/>
     <use style="fill:#1f77b4;stroke:#1f77b4;" x="128.514415" xlink:href="#mbbbc3a05a2" y="35.083636"/>
     <use style="fill:#1f77b4;stroke:#1f77b4;" x="131.26791" xlink:href="#mbbbc3a05a2" y="279.512838"/>
     <use style="fill:#1f77b4;stroke:#1f77b4;" x="134.021405" xlink:href="#mbbbc3a05a2" y="284.230009"/>
     <use style="fill:#1f77b4;stroke:#1f77b4;" x="136.774899" xlink:href="#mbbbc3a05a2" y="282.173431"/>
     <use style="fill:#1f77b4;stroke:#1f77b4;" x="139.528394" xlink:href="#mbbbc3a05a2" y="282.770034"/>
     <use style="fill:#1f77b4;stroke:#1f77b4;" x="142.281888" xlink:href="#mbbbc3a05a2" y="56.532344"/>
     <use style="fill:#1f77b4;stroke:#1f77b4;" x="145.035383" xlink:href="#mbbbc3a05a2" y="278.459154"/>
     <use style="fill:#1f77b4;stroke:#1f77b4;" x="147.788877" xlink:href="#mbbbc3a05a2" y="281.781154"/>
     <use style="fill:#1f77b4;stroke:#1f77b4;" x="150.542372" xlink:href="#mbbbc3a05a2" y="279.830976"/>
     <use style="fill:#1f77b4;stroke:#1f77b4;" x="153.295867" xlink:href="#mbbbc3a05a2" y="280.245767"/>
     <use style="fill:#1f77b4;stroke:#1f77b4;" x="156.049361" xlink:href="#mbbbc3a05a2" y="279.403773"/>
     <use style="fill:#1f77b4;stroke:#1f77b4;" x="158.802856" xlink:href="#mbbbc3a05a2" y="279.672067"/>
     <use style="fill:#1f77b4;stroke:#1f77b4;" x="161.55635" xlink:href="#mbbbc3a05a2" y="279.94003"/>
     <use style="fill:#1f77b4;stroke:#1f77b4;" x="164.309845" xlink:href="#mbbbc3a05a2" y="279.961667"/>
     <use style="fill:#1f77b4;stroke:#1f77b4;" x="167.063339" xlink:href="#mbbbc3a05a2" y="278.868254"/>
     <use style="fill:#1f77b4;stroke:#1f77b4;" x="169.816834" xlink:href="#mbbbc3a05a2" y="278.297377"/>
     <use style="fill:#1f77b4;stroke:#1f77b4;" x="172.570329" xlink:href="#mbbbc3a05a2" y="281.254457"/>
     <use style="fill:#1f77b4;stroke:#1f77b4;" x="175.323823" xlink:href="#mbbbc3a05a2" y="278.123322"/>
     <use style="fill:#1f77b4;stroke:#1f77b4;" x="178.077318" xlink:href="#mbbbc3a05a2" y="277.116789"/>
     <use style="fill:#1f77b4;stroke:#1f77b4;" x="180.830812" xlink:href="#mbbbc3a05a2" y="280.484531"/>
     <use style="fill:#1f77b4;stroke:#1f77b4;" x="183.584307" xlink:href="#mbbbc3a05a2" y="277.725459"/>
     <use style="fill:#1f77b4;stroke:#1f77b4;" x="186.337802" xlink:href="#mbbbc3a05a2" y="278.076011"/>
     <use style="fill:#1f77b4;stroke:#1f77b4;" x="189.091296" xlink:href="#mbbbc3a05a2" y="278.91203"/>
     <use style="fill:#1f77b4;stroke:#1f77b4;" x="191.844791" xlink:href="#mbbbc3a05a2" y="275.668352"/>
     <use style="fill:#1f77b4;stroke:#1f77b4;" x="194.598285" xlink:href="#mbbbc3a05a2" y="279.128739"/>
     <use style="fill:#1f77b4;stroke:#1f77b4;" x="197.35178" xlink:href="#mbbbc3a05a2" y="276.694916"/>
     <use style="fill:#1f77b4;stroke:#1f77b4;" x="200.105274" xlink:href="#mbbbc3a05a2" y="277.658484"/>
     <use style="fill:#1f77b4;stroke:#1f77b4;" x="202.858769" xlink:href="#mbbbc3a05a2" y="277.794011"/>
     <use style="fill:#1f77b4;stroke:#1f77b4;" x="205.612264" xlink:href="#mbbbc3a05a2" y="274.981981"/>
     <use style="fill:#1f77b4;stroke:#1f77b4;" x="208.365758" xlink:href="#mbbbc3a05a2" y="278.331487"/>
     <use style="fill:#1f77b4;stroke:#1f77b4;" x="211.119253" xlink:href="#mbbbc3a05a2" y="278.298063"/>
     <use style="fill:#1f77b4;stroke:#1f77b4;" x="213.872747" xlink:href="#mbbbc3a05a2" y="277.360508"/>
     <use style="fill:#1f77b4;stroke:#1f77b4;" x="216.626242" xlink:href="#mbbbc3a05a2" y="278.555926"/>
     <use style="fill:#1f77b4;stroke:#1f77b4;" x="219.379736" xlink:href="#mbbbc3a05a2" y="278.174207"/>
     <use style="fill:#1f77b4;stroke:#1f77b4;" x="222.133231" xlink:href="#mbbbc3a05a2" y="279.658795"/>
     <use style="fill:#1f77b4;stroke:#1f77b4;" x="224.886726" xlink:href="#mbbbc3a05a2" y="276.755819"/>
     <use style="fill:#1f77b4;stroke:#1f77b4;" x="227.64022" xlink:href="#mbbbc3a05a2" y="274.953084"/>
     <use style="fill:#1f77b4;stroke:#1f77b4;" x="230.393715" xlink:href="#mbbbc3a05a2" y="276.733195"/>
     <use style="fill:#1f77b4;stroke:#1f77b4;" x="233.147209" xlink:href="#mbbbc3a05a2" y="278.157594"/>
     <use style="fill:#1f77b4;stroke:#1f77b4;" x="235.900704" xlink:href="#mbbbc3a05a2" y="275.248449"/>
     <use style="fill:#1f77b4;stroke:#1f77b4;" x="238.654198" xlink:href="#mbbbc3a05a2" y="272.74153"/>
     <use style="fill:#1f77b4;stroke:#1f77b4;" x="241.407693" xlink:href="#mbbbc3a05a2" y="277.264635"/>
     <use style="fill:#1f77b4;stroke:#1f77b4;" x="244.161188" xlink:href="#mbbbc3a05a2" y="276.641677"/>
     <use style="fill:#1f77b4;stroke:#1f77b4;" x="246.914682" xlink:href="#mbbbc3a05a2" y="274.835886"/>
     <use style="fill:#1f77b4;stroke:#1f77b4;" x="249.668177" xlink:href="#mbbbc3a05a2" y="273.50967"/>
     <use style="fill:#1f77b4;stroke:#1f77b4;" x="252.421671" xlink:href="#mbbbc3a05a2" y="276.326093"/>
     <use style="fill:#1f77b4;stroke:#1f77b4;" x="255.175166" xlink:href="#mbbbc3a05a2" y="276.420612"/>
     <use style="fill:#1f77b4;stroke:#1f77b4;" x="257.928661" xlink:href="#mbbbc3a05a2" y="271.222084"/>
     <use style="fill:#1f77b4;stroke:#1f77b4;" x="260.682155" xlink:href="#mbbbc3a05a2" y="272.136416"/>
     <use style="fill:#1f77b4;stroke:#1f77b4;" x="263.43565" xlink:href="#mbbbc3a05a2" y="276.880699"/>
     <use style="fill:#1f77b4;stroke:#1f77b4;" x="266.189144" xlink:href="#mbbbc3a05a2" y="275.747832"/>
     <use style="fill:#1f77b4;stroke:#1f77b4;" x="268.942639" xlink:href="#mbbbc3a05a2" y="276.415465"/>
     <use style="fill:#1f77b4;stroke:#1f77b4;" x="271.696133" xlink:href="#mbbbc3a05a2" y="61.786584"/>
     <use style="fill:#1f77b4;stroke:#1f77b4;" x="274.449628" xlink:href="#mbbbc3a05a2" y="276.03845"/>
     <use style="fill:#1f77b4;stroke:#1f77b4;" x="277.203123" xlink:href="#mbbbc3a05a2" y="276.944391"/>
     <use style="fill:#1f77b4;stroke:#1f77b4;" x="279.956617" xlink:href="#mbbbc3a05a2" y="273.578715"/>
     <use style="fill:#1f77b4;stroke:#1f77b4;" x="282.710112" xlink:href="#mbbbc3a05a2" y="276.421563"/>
     <use style="fill:#1f77b4;stroke:#1f77b4;" x="285.463606" xlink:href="#mbbbc3a05a2" y="278.661265"/>
     <use style="fill:#1f77b4;stroke:#1f77b4;" x="288.217101" xlink:href="#mbbbc3a05a2" y="275.90502"/>
     <use style="fill:#1f77b4;stroke:#1f77b4;" x="290.970595" xlink:href="#mbbbc3a05a2" y="275.581196"/>
     <use style="fill:#1f77b4;stroke:#1f77b4;" x="293.72409" xlink:href="#mbbbc3a05a2" y="277.624099"/>
     <use style="fill:#1f77b4;stroke:#1f77b4;" x="296.477585" xlink:href="#mbbbc3a05a2" y="277.820237"/>
     <use style="fill:#1f77b4;stroke:#1f77b4;" x="299.231079" xlink:href="#mbbbc3a05a2" y="279.839772"/>
     <use style="fill:#1f77b4;stroke:#1f77b4;" x="301.984574" xlink:href="#mbbbc3a05a2" y="279.556175"/>
     <use style="fill:#1f77b4;stroke:#1f77b4;" x="304.738068" xlink:href="#mbbbc3a05a2" y="285.32824"/>
     <use style="fill:#1f77b4;stroke:#1f77b4;" x="307.491563" xlink:href="#mbbbc3a05a2" y="283.932863"/>
     <use style="fill:#1f77b4;stroke:#1f77b4;" x="310.245058" xlink:href="#mbbbc3a05a2" y="60.424269"/>
     <use style="fill:#1f77b4;stroke:#1f77b4;" x="312.998552" xlink:href="#mbbbc3a05a2" y="284.253274"/>
     <use style="fill:#1f77b4;stroke:#1f77b4;" x="315.752047" xlink:href="#mbbbc3a05a2" y="284.481319"/>
     <use style="fill:#1f77b4;stroke:#1f77b4;" x="318.505541" xlink:href="#mbbbc3a05a2" y="284.642413"/>
     <use style="fill:#1f77b4;stroke:#1f77b4;" x="321.259036" xlink:href="#mbbbc3a05a2" y="69.815207"/>
     <use style="fill:#1f77b4;stroke:#1f77b4;" x="324.01253" xlink:href="#mbbbc3a05a2" y="282.834983"/>
     <use style="fill:#1f77b4;stroke:#1f77b4;" x="326.766025" xlink:href="#mbbbc3a05a2" y="282.400218"/>
     <use style="fill:#1f77b4;stroke:#1f77b4;" x="329.51952" xlink:href="#mbbbc3a05a2" y="283.636247"/>
     <use style="fill:#1f77b4;stroke:#1f77b4;" x="332.273014" xlink:href="#mbbbc3a05a2" y="284.306233"/>
     <use style="fill:#1f77b4;stroke:#1f77b4;" x="335.026509" xlink:href="#mbbbc3a05a2" y="283.72175"/>
     <use style="fill:#1f77b4;stroke:#1f77b4;" x="337.780003" xlink:href="#mbbbc3a05a2" y="284.646417"/>
     <use style="fill:#1f77b4;stroke:#1f77b4;" x="340.533498" xlink:href="#mbbbc3a05a2" y="280.81445"/>
     <use style="fill:#1f77b4;stroke:#1f77b4;" x="343.286992" xlink:href="#mbbbc3a05a2" y="283.835684"/>
     <use style="fill:#1f77b4;stroke:#1f77b4;" x="346.040487" xlink:href="#mbbbc3a05a2" y="286.831477"/>
     <use style="fill:#1f77b4;stroke:#1f77b4;" x="348.793982" xlink:href="#mbbbc3a05a2" y="283.497258"/>
     <use style="fill:#1f77b4;stroke:#1f77b4;" x="351.547476" xlink:href="#mbbbc3a05a2" y="284.452969"/>
     <use style="fill:#1f77b4;stroke:#1f77b4;" x="354.300971" xlink:href="#mbbbc3a05a2" y="286.021955"/>
     <use style="fill:#1f77b4;stroke:#1f77b4;" x="357.054465" xlink:href="#mbbbc3a05a2" y="288.269601"/>
     <use style="fill:#1f77b4;stroke:#1f77b4;" x="359.80796" xlink:href="#mbbbc3a05a2" y="286.780549"/>
     <use style="fill:#1f77b4;stroke:#1f77b4;" x="362.561455" xlink:href="#mbbbc3a05a2" y="281.509944"/>
    </g>
   </g>
   <g id="PathCollection_2">
    <defs>
     <path d="M 0 3 
C 0.795609 3 1.55874 2.683901 2.12132 2.12132 
C 2.683901 1.55874 3 0.795609 3 0 
C 3 -0.795609 2.683901 -1.55874 2.12132 -2.12132 
C 1.55874 -2.683901 0.795609 -3 0 -3 
C -0.795609 -3 -1.55874 -2.683901 -2.12132 -2.12132 
C -2.683901 -1.55874 -3 -0.795609 -3 0 
C -3 0.795609 -2.683901 1.55874 -2.12132 2.12132 
C -1.55874 2.683901 -0.795609 3 0 3 
z
" id="m60011b6098" style="stroke:#ff7f0e;"/>
    </defs>
    <g clip-path="url(#p2b80384561)">
     <use style="fill:#ff7f0e;stroke:#ff7f0e;" x="62.430545" xlink:href="#m60011b6098" y="291.861733"/>
     <use style="fill:#ff7f0e;stroke:#ff7f0e;" x="65.18404" xlink:href="#m60011b6098" y="291.894741"/>
     <use style="fill:#ff7f0e;stroke:#ff7f0e;" x="67.937535" xlink:href="#m60011b6098" y="292.190551"/>
     <use style="fill:#ff7f0e;stroke:#ff7f0e;" x="70.691029" xlink:href="#m60011b6098" y="292.09403"/>
     <use style="fill:#ff7f0e;stroke:#ff7f0e;" x="73.444524" xlink:href="#m60011b6098" y="291.585188"/>
     <use style="fill:#ff7f0e;stroke:#ff7f0e;" x="76.198018" xlink:href="#m60011b6098" y="292.276276"/>
     <use style="fill:#ff7f0e;stroke:#ff7f0e;" x="78.951513" xlink:href="#m60011b6098" y="291.298955"/>
     <use style="fill:#ff7f0e;stroke:#ff7f0e;" x="81.705008" xlink:href="#m60011b6098" y="292.047594"/>
     <use style="fill:#ff7f0e;stroke:#ff7f0e;" x="84.458502" xlink:href="#m60011b6098" y="291.223668"/>
     <use style="fill:#ff7f0e;stroke:#ff7f0e;" x="87.211997" xlink:href="#m60011b6098" y="291.829667"/>
     <use style="fill:#ff7f0e;stroke:#ff7f0e;" x="89.965491" xlink:href="#m60011b6098" y="290.628518"/>
     <use style="fill:#ff7f0e;stroke:#ff7f0e;" x="92.718986" xlink:href="#m60011b6098" y="290.180914"/>
     <use style="fill:#ff7f0e;stroke:#ff7f0e;" x="95.47248" xlink:href="#m60011b6098" y="290.390906"/>
     <use style="fill:#ff7f0e;stroke:#ff7f0e;" x="98.225975" xlink:href="#m60011b6098" y="289.007932"/>
     <use style="fill:#ff7f0e;stroke:#ff7f0e;" x="100.97947" xlink:href="#m60011b6098" y="289.219937"/>
     <use style="fill:#ff7f0e;stroke:#ff7f0e;" x="103.732964" xlink:href="#m60011b6098" y="287.851602"/>
     <use style="fill:#ff7f0e;stroke:#ff7f0e;" x="106.486459" xlink:href="#m60011b6098" y="285.734255"/>
     <use style="fill:#ff7f0e;stroke:#ff7f0e;" x="109.239953" xlink:href="#m60011b6098" y="285.589713"/>
     <use style="fill:#ff7f0e;stroke:#ff7f0e;" x="111.993448" xlink:href="#m60011b6098" y="285.417751"/>
     <use style="fill:#ff7f0e;stroke:#ff7f0e;" x="114.746942" xlink:href="#m60011b6098" y="284.957569"/>
     <use style="fill:#ff7f0e;stroke:#ff7f0e;" x="117.500437" xlink:href="#m60011b6098" y="283.883"/>
     <use style="fill:#ff7f0e;stroke:#ff7f0e;" x="120.253932" xlink:href="#m60011b6098" y="283.22006"/>
     <use style="fill:#ff7f0e;stroke:#ff7f0e;" x="123.007426" xlink:href="#m60011b6098" y="280.731492"/>
     <use style="fill:#ff7f0e;stroke:#ff7f0e;" x="125.760921" xlink:href="#m60011b6098" y="282.498013"/>
     <use style="fill:#ff7f0e;stroke:#ff7f0e;" x="128.514415" xlink:href="#m60011b6098" y="280.96579"/>
     <use style="fill:#ff7f0e;stroke:#ff7f0e;" x="131.26791" xlink:href="#m60011b6098" y="279.786918"/>
     <use style="fill:#ff7f0e;stroke:#ff7f0e;" x="134.021405" xlink:href="#m60011b6098" y="280.177922"/>
     <use style="fill:#ff7f0e;stroke:#ff7f0e;" x="136.774899" xlink:href="#m60011b6098" y="279.785075"/>
     <use style="fill:#ff7f0e;stroke:#ff7f0e;" x="139.528394" xlink:href="#m60011b6098" y="276.940351"/>
     <use style="fill:#ff7f0e;stroke:#ff7f0e;" x="142.281888" xlink:href="#m60011b6098" y="278.916697"/>
     <use style="fill:#ff7f0e;stroke:#ff7f0e;" x="145.035383" xlink:href="#m60011b6098" y="276.822169"/>
     <use style="fill:#ff7f0e;stroke:#ff7f0e;" x="147.788877" xlink:href="#m60011b6098" y="277.067319"/>
     <use style="fill:#ff7f0e;stroke:#ff7f0e;" x="150.542372" xlink:href="#m60011b6098" y="277.411619"/>
     <use style="fill:#ff7f0e;stroke:#ff7f0e;" x="153.295867" xlink:href="#m60011b6098" y="275.388523"/>
     <use style="fill:#ff7f0e;stroke:#ff7f0e;" x="156.049361" xlink:href="#m60011b6098" y="275.163784"/>
     <use style="fill:#ff7f0e;stroke:#ff7f0e;" x="158.802856" xlink:href="#m60011b6098" y="277.578578"/>
     <use style="fill:#ff7f0e;stroke:#ff7f0e;" x="161.55635" xlink:href="#m60011b6098" y="275.378245"/>
     <use style="fill:#ff7f0e;stroke:#ff7f0e;" x="164.309845" xlink:href="#m60011b6098" y="276.117582"/>
     <use style="fill:#ff7f0e;stroke:#ff7f0e;" x="167.063339" xlink:href="#m60011b6098" y="276.495271"/>
     <use style="fill:#ff7f0e;stroke:#ff7f0e;" x="169.816834" xlink:href="#m60011b6098" y="272.284286"/>
     <use style="fill:#ff7f0e;stroke:#ff7f0e;" x="172.570329" xlink:href="#m60011b6098" y="275.522568"/>
     <use style="fill:#ff7f0e;stroke:#ff7f0e;" x="175.323823" xlink:href="#m60011b6098" y="274.636036"/>
     <use style="fill:#ff7f0e;stroke:#ff7f0e;" x="178.077318" xlink:href="#m60011b6098" y="275.327248"/>
     <use style="fill:#ff7f0e;stroke:#ff7f0e;" x="180.830812" xlink:href="#m60011b6098" y="275.019115"/>
     <use style="fill:#ff7f0e;stroke:#ff7f0e;" x="183.584307" xlink:href="#m60011b6098" y="274.998329"/>
     <use style="fill:#ff7f0e;stroke:#ff7f0e;" x="186.337802" xlink:href="#m60011b6098" y="272.73892"/>
     <use style="fill:#ff7f0e;stroke:#ff7f0e;" x="189.091296" xlink:href="#m60011b6098" y="273.034979"/>
     <use style="fill:#ff7f0e;stroke:#ff7f0e;" x="191.844791" xlink:href="#m60011b6098" y="274.337032"/>
     <use style="fill:#ff7f0e;stroke:#ff7f0e;" x="194.598285" xlink:href="#m60011b6098" y="274.174885"/>
     <use style="fill:#ff7f0e;stroke:#ff7f0e;" x="197.35178" xlink:href="#m60011b6098" y="273.958109"/>
     <use style="fill:#ff7f0e;stroke:#ff7f0e;" x="200.105274" xlink:href="#m60011b6098" y="273.757926"/>
     <use style="fill:#ff7f0e;stroke:#ff7f0e;" x="202.858769" xlink:href="#m60011b6098" y="271.374622"/>
     <use style="fill:#ff7f0e;stroke:#ff7f0e;" x="205.612264" xlink:href="#m60011b6098" y="271.960075"/>
     <use style="fill:#ff7f0e;stroke:#ff7f0e;" x="208.365758" xlink:href="#m60011b6098" y="273.554191"/>
     <use style="fill:#ff7f0e;stroke:#ff7f0e;" x="211.119253" xlink:href="#m60011b6098" y="273.166824"/>
     <use style="fill:#ff7f0e;stroke:#ff7f0e;" x="213.872747" xlink:href="#m60011b6098" y="273.194483"/>
     <use style="fill:#ff7f0e;stroke:#ff7f0e;" x="216.626242" xlink:href="#m60011b6098" y="272.996421"/>
     <use style="fill:#ff7f0e;stroke:#ff7f0e;" x="219.379736" xlink:href="#m60011b6098" y="268.998725"/>
     <use style="fill:#ff7f0e;stroke:#ff7f0e;" x="222.133231" xlink:href="#m60011b6098" y="272.611383"/>
     <use style="fill:#ff7f0e;stroke:#ff7f0e;" x="224.886726" xlink:href="#m60011b6098" y="272.689833"/>
     <use style="fill:#ff7f0e;stroke:#ff7f0e;" x="227.64022" xlink:href="#m60011b6098" y="273.186898"/>
     <use style="fill:#ff7f0e;stroke:#ff7f0e;" x="230.393715" xlink:href="#m60011b6098" y="271.493535"/>
     <use style="fill:#ff7f0e;stroke:#ff7f0e;" x="233.147209" xlink:href="#m60011b6098" y="273.357065"/>
     <use style="fill:#ff7f0e;stroke:#ff7f0e;" x="235.900704" xlink:href="#m60011b6098" y="265.885825"/>
     <use style="fill:#ff7f0e;stroke:#ff7f0e;" x="238.654198" xlink:href="#m60011b6098" y="272.331229"/>
     <use style="fill:#ff7f0e;stroke:#ff7f0e;" x="241.407693" xlink:href="#m60011b6098" y="271.273545"/>
     <use style="fill:#ff7f0e;stroke:#ff7f0e;" x="244.161188" xlink:href="#m60011b6098" y="271.411018"/>
     <use style="fill:#ff7f0e;stroke:#ff7f0e;" x="246.914682" xlink:href="#m60011b6098" y="272.774066"/>
     <use style="fill:#ff7f0e;stroke:#ff7f0e;" x="249.668177" xlink:href="#m60011b6098" y="265.221724"/>
     <use style="fill:#ff7f0e;stroke:#ff7f0e;" x="252.421671" xlink:href="#m60011b6098" y="271.44762"/>
     <use style="fill:#ff7f0e;stroke:#ff7f0e;" x="255.175166" xlink:href="#m60011b6098" y="273.479697"/>
     <use style="fill:#ff7f0e;stroke:#ff7f0e;" x="257.928661" xlink:href="#m60011b6098" y="269.308327"/>
     <use style="fill:#ff7f0e;stroke:#ff7f0e;" x="260.682155" xlink:href="#m60011b6098" y="271.337239"/>
     <use style="fill:#ff7f0e;stroke:#ff7f0e;" x="263.43565" xlink:href="#m60011b6098" y="271.832646"/>
     <use style="fill:#ff7f0e;stroke:#ff7f0e;" x="266.189144" xlink:href="#m60011b6098" y="267.25422"/>
     <use style="fill:#ff7f0e;stroke:#ff7f0e;" x="268.942639" xlink:href="#m60011b6098" y="272.313304"/>
     <use style="fill:#ff7f0e;stroke:#ff7f0e;" x="271.696133" xlink:href="#m60011b6098" y="271.01065"/>
     <use style="fill:#ff7f0e;stroke:#ff7f0e;" x="274.449628" xlink:href="#m60011b6098" y="272.12884"/>
     <use style="fill:#ff7f0e;stroke:#ff7f0e;" x="277.203123" xlink:href="#m60011b6098" y="272.210297"/>
     <use style="fill:#ff7f0e;stroke:#ff7f0e;" x="279.956617" xlink:href="#m60011b6098" y="272.590903"/>
     <use style="fill:#ff7f0e;stroke:#ff7f0e;" x="282.710112" xlink:href="#m60011b6098" y="269.481358"/>
     <use style="fill:#ff7f0e;stroke:#ff7f0e;" x="285.463606" xlink:href="#m60011b6098" y="272.725267"/>
     <use style="fill:#ff7f0e;stroke:#ff7f0e;" x="288.217101" xlink:href="#m60011b6098" y="273.075427"/>
     <use style="fill:#ff7f0e;stroke:#ff7f0e;" x="290.970595" xlink:href="#m60011b6098" y="273.616397"/>
     <use style="fill:#ff7f0e;stroke:#ff7f0e;" x="293.72409" xlink:href="#m60011b6098" y="274.684792"/>
     <use style="fill:#ff7f0e;stroke:#ff7f0e;" x="296.477585" xlink:href="#m60011b6098" y="274.246636"/>
     <use style="fill:#ff7f0e;stroke:#ff7f0e;" x="299.231079" xlink:href="#m60011b6098" y="271.866433"/>
     <use style="fill:#ff7f0e;stroke:#ff7f0e;" x="301.984574" xlink:href="#m60011b6098" y="275.805262"/>
     <use style="fill:#ff7f0e;stroke:#ff7f0e;" x="304.738068" xlink:href="#m60011b6098" y="277.168952"/>
     <use style="fill:#ff7f0e;stroke:#ff7f0e;" x="307.491563" xlink:href="#m60011b6098" y="277.010717"/>
     <use style="fill:#ff7f0e;stroke:#ff7f0e;" x="310.245058" xlink:href="#m60011b6098" y="276.569311"/>
     <use style="fill:#ff7f0e;stroke:#ff7f0e;" x="312.998552" xlink:href="#m60011b6098" y="277.87394"/>
     <use style="fill:#ff7f0e;stroke:#ff7f0e;" x="315.752047" xlink:href="#m60011b6098" y="275.547463"/>
     <use style="fill:#ff7f0e;stroke:#ff7f0e;" x="318.505541" xlink:href="#m60011b6098" y="278.954378"/>
     <use style="fill:#ff7f0e;stroke:#ff7f0e;" x="321.259036" xlink:href="#m60011b6098" y="280.736824"/>
     <use style="fill:#ff7f0e;stroke:#ff7f0e;" x="324.01253" xlink:href="#m60011b6098" y="278.741323"/>
     <use style="fill:#ff7f0e;stroke:#ff7f0e;" x="326.766025" xlink:href="#m60011b6098" y="280.118574"/>
     <use style="fill:#ff7f0e;stroke:#ff7f0e;" x="329.51952" xlink:href="#m60011b6098" y="278.496568"/>
     <use style="fill:#ff7f0e;stroke:#ff7f0e;" x="332.273014" xlink:href="#m60011b6098" y="280.480724"/>
     <use style="fill:#ff7f0e;stroke:#ff7f0e;" x="335.026509" xlink:href="#m60011b6098" y="281.577524"/>
     <use style="fill:#ff7f0e;stroke:#ff7f0e;" x="337.780003" xlink:href="#m60011b6098" y="283.78703"/>
     <use style="fill:#ff7f0e;stroke:#ff7f0e;" x="340.533498" xlink:href="#m60011b6098" y="280.710835"/>
     <use style="fill:#ff7f0e;stroke:#ff7f0e;" x="343.286992" xlink:href="#m60011b6098" y="283.843263"/>
     <use style="fill:#ff7f0e;stroke:#ff7f0e;" x="346.040487" xlink:href="#m60011b6098" y="281.028436"/>
     <use style="fill:#ff7f0e;stroke:#ff7f0e;" x="348.793982" xlink:href="#m60011b6098" y="284.183383"/>
     <use style="fill:#ff7f0e;stroke:#ff7f0e;" x="351.547476" xlink:href="#m60011b6098" y="284.269117"/>
     <use style="fill:#ff7f0e;stroke:#ff7f0e;" x="354.300971" xlink:href="#m60011b6098" y="283.951675"/>
     <use style="fill:#ff7f0e;stroke:#ff7f0e;" x="357.054465" xlink:href="#m60011b6098" y="284.240117"/>
     <use style="fill:#ff7f0e;stroke:#ff7f0e;" x="359.80796" xlink:href="#m60011b6098" y="283.843447"/>
     <use style="fill:#ff7f0e;stroke:#ff7f0e;" x="362.561455" xlink:href="#m60011b6098" y="282.296172"/>
    </g>
   </g>
   <g id="matplotlib.axis_1">
    <g id="xtick_1">
     <g id="line2d_1">
      <defs>
       <path d="M 0 0 
L 0 3.5 
" id="m936d70d22e" style="stroke:#000000;stroke-width:0.8;"/>
      </defs>
      <g>
       <use style="stroke:#000000;stroke-width:0.8;" x="62.430545" xlink:href="#m936d70d22e" y="305.28"/>
      </g>
     </g>
     <g id="text_1">
      <!-- 0 -->
      <defs>
       <path d="M 31.78125 66.40625 
Q 24.171875 66.40625 20.328125 58.90625 
Q 16.5 51.421875 16.5 36.375 
Q 16.5 21.390625 20.328125 13.890625 
Q 24.171875 6.390625 31.78125 6.390625 
Q 39.453125 6.390625 43.28125 13.890625 
Q 47.125 21.390625 47.125 36.375 
Q 47.125 51.421875 43.28125 58.90625 
Q 39.453125 66.40625 31.78125 66.40625 
z
M 31.78125 74.21875 
Q 44.046875 74.21875 50.515625 64.515625 
Q 56.984375 54.828125 56.984375 36.375 
Q 56.984375 17.96875 50.515625 8.265625 
Q 44.046875 -1.421875 31.78125 -1.421875 
Q 19.53125 -1.421875 13.0625 8.265625 
Q 6.59375 17.96875 6.59375 36.375 
Q 6.59375 54.828125 13.0625 64.515625 
Q 19.53125 74.21875 31.78125 74.21875 
z
" id="DejaVuSans-48"/>
      </defs>
      <g transform="translate(57.65867 323.677656)scale(0.15 -0.15)">
       <use xlink:href="#DejaVuSans-48"/>
      </g>
     </g>
    </g>
    <g id="xtick_2">
     <g id="line2d_2">
      <g>
       <use style="stroke:#000000;stroke-width:0.8;" x="146.773365" xlink:href="#m936d70d22e" y="305.28"/>
      </g>
     </g>
     <g id="text_2">
      <!-- 2 -->
      <defs>
       <path d="M 19.1875 8.296875 
L 53.609375 8.296875 
L 53.609375 0 
L 7.328125 0 
L 7.328125 8.296875 
Q 12.9375 14.109375 22.625 23.890625 
Q 32.328125 33.6875 34.8125 36.53125 
Q 39.546875 41.84375 41.421875 45.53125 
Q 43.3125 49.21875 43.3125 52.78125 
Q 43.3125 58.59375 39.234375 62.25 
Q 35.15625 65.921875 28.609375 65.921875 
Q 23.96875 65.921875 18.8125 64.3125 
Q 13.671875 62.703125 7.8125 59.421875 
L 7.8125 69.390625 
Q 13.765625 71.78125 18.9375 73 
Q 24.125 74.21875 28.421875 74.21875 
Q 39.75 74.21875 46.484375 68.546875 
Q 53.21875 62.890625 53.21875 53.421875 
Q 53.21875 48.921875 51.53125 44.890625 
Q 49.859375 40.875 45.40625 35.40625 
Q 44.1875 33.984375 37.640625 27.21875 
Q 31.109375 20.453125 19.1875 8.296875 
z
" id="DejaVuSans-50"/>
      </defs>
      <g transform="translate(142.00149 323.677656)scale(0.15 -0.15)">
       <use xlink:href="#DejaVuSans-50"/>
      </g>
     </g>
    </g>
    <g id="xtick_3">
     <g id="line2d_3">
      <g>
       <use style="stroke:#000000;stroke-width:0.8;" x="231.116185" xlink:href="#m936d70d22e" y="305.28"/>
      </g>
     </g>
     <g id="text_3">
      <!-- 4 -->
      <defs>
       <path d="M 37.796875 64.3125 
L 12.890625 25.390625 
L 37.796875 25.390625 
z
M 35.203125 72.90625 
L 47.609375 72.90625 
L 47.609375 25.390625 
L 58.015625 25.390625 
L 58.015625 17.1875 
L 47.609375 17.1875 
L 47.609375 0 
L 37.796875 0 
L 37.796875 17.1875 
L 4.890625 17.1875 
L 4.890625 26.703125 
z
" id="DejaVuSans-52"/>
      </defs>
      <g transform="translate(226.34431 323.677656)scale(0.15 -0.15)">
       <use xlink:href="#DejaVuSans-52"/>
      </g>
     </g>
    </g>
    <g id="xtick_4">
     <g id="line2d_4">
      <g>
       <use style="stroke:#000000;stroke-width:0.8;" x="315.459005" xlink:href="#m936d70d22e" y="305.28"/>
      </g>
     </g>
     <g id="text_4">
      <!-- 6 -->
      <defs>
       <path d="M 33.015625 40.375 
Q 26.375 40.375 22.484375 35.828125 
Q 18.609375 31.296875 18.609375 23.390625 
Q 18.609375 15.53125 22.484375 10.953125 
Q 26.375 6.390625 33.015625 6.390625 
Q 39.65625 6.390625 43.53125 10.953125 
Q 47.40625 15.53125 47.40625 23.390625 
Q 47.40625 31.296875 43.53125 35.828125 
Q 39.65625 40.375 33.015625 40.375 
z
M 52.59375 71.296875 
L 52.59375 62.3125 
Q 48.875 64.0625 45.09375 64.984375 
Q 41.3125 65.921875 37.59375 65.921875 
Q 27.828125 65.921875 22.671875 59.328125 
Q 17.53125 52.734375 16.796875 39.40625 
Q 19.671875 43.65625 24.015625 45.921875 
Q 28.375 48.1875 33.59375 48.1875 
Q 44.578125 48.1875 50.953125 41.515625 
Q 57.328125 34.859375 57.328125 23.390625 
Q 57.328125 12.15625 50.6875 5.359375 
Q 44.046875 -1.421875 33.015625 -1.421875 
Q 20.359375 -1.421875 13.671875 8.265625 
Q 6.984375 17.96875 6.984375 36.375 
Q 6.984375 53.65625 15.1875 63.9375 
Q 23.390625 74.21875 37.203125 74.21875 
Q 40.921875 74.21875 44.703125 73.484375 
Q 48.484375 72.75 52.59375 71.296875 
z
" id="DejaVuSans-54"/>
      </defs>
      <g transform="translate(310.68713 323.677656)scale(0.15 -0.15)">
       <use xlink:href="#DejaVuSans-54"/>
      </g>
     </g>
    </g>
    <g id="text_5">
     <!-- time [s] -->
     <defs>
      <path d="M 18.3125 70.21875 
L 18.3125 54.6875 
L 36.8125 54.6875 
L 36.8125 47.703125 
L 18.3125 47.703125 
L 18.3125 18.015625 
Q 18.3125 11.328125 20.140625 9.421875 
Q 21.96875 7.515625 27.59375 7.515625 
L 36.8125 7.515625 
L 36.8125 0 
L 27.59375 0 
Q 17.1875 0 13.234375 3.875 
Q 9.28125 7.765625 9.28125 18.015625 
L 9.28125 47.703125 
L 2.6875 47.703125 
L 2.6875 54.6875 
L 9.28125 54.6875 
L 9.28125 70.21875 
z
" id="DejaVuSans-116"/>
      <path d="M 9.421875 54.6875 
L 18.40625 54.6875 
L 18.40625 0 
L 9.421875 0 
z
M 9.421875 75.984375 
L 18.40625 75.984375 
L 18.40625 64.59375 
L 9.421875 64.59375 
z
" id="DejaVuSans-105"/>
      <path d="M 52 44.1875 
Q 55.375 50.25 60.0625 53.125 
Q 64.75 56 71.09375 56 
Q 79.640625 56 84.28125 50.015625 
Q 88.921875 44.046875 88.921875 33.015625 
L 88.921875 0 
L 79.890625 0 
L 79.890625 32.71875 
Q 79.890625 40.578125 77.09375 44.375 
Q 74.3125 48.1875 68.609375 48.1875 
Q 61.625 48.1875 57.5625 43.546875 
Q 53.515625 38.921875 53.515625 30.90625 
L 53.515625 0 
L 44.484375 0 
L 44.484375 32.71875 
Q 44.484375 40.625 41.703125 44.40625 
Q 38.921875 48.1875 33.109375 48.1875 
Q 26.21875 48.1875 22.15625 43.53125 
Q 18.109375 38.875 18.109375 30.90625 
L 18.109375 0 
L 9.078125 0 
L 9.078125 54.6875 
L 18.109375 54.6875 
L 18.109375 46.1875 
Q 21.1875 51.21875 25.484375 53.609375 
Q 29.78125 56 35.6875 56 
Q 41.65625 56 45.828125 52.96875 
Q 50 49.953125 52 44.1875 
z
" id="DejaVuSans-109"/>
      <path d="M 56.203125 29.59375 
L 56.203125 25.203125 
L 14.890625 25.203125 
Q 15.484375 15.921875 20.484375 11.0625 
Q 25.484375 6.203125 34.421875 6.203125 
Q 39.59375 6.203125 44.453125 7.46875 
Q 49.3125 8.734375 54.109375 11.28125 
L 54.109375 2.78125 
Q 49.265625 0.734375 44.1875 -0.34375 
Q 39.109375 -1.421875 33.890625 -1.421875 
Q 20.796875 -1.421875 13.15625 6.1875 
Q 5.515625 13.8125 5.515625 26.8125 
Q 5.515625 40.234375 12.765625 48.109375 
Q 20.015625 56 32.328125 56 
Q 43.359375 56 49.78125 48.890625 
Q 56.203125 41.796875 56.203125 29.59375 
z
M 47.21875 32.234375 
Q 47.125 39.59375 43.09375 43.984375 
Q 39.0625 48.390625 32.421875 48.390625 
Q 24.90625 48.390625 20.390625 44.140625 
Q 15.875 39.890625 15.1875 32.171875 
z
" id="DejaVuSans-101"/>
      <path id="DejaVuSans-32"/>
      <path d="M 8.59375 75.984375 
L 29.296875 75.984375 
L 29.296875 69 
L 17.578125 69 
L 17.578125 -6.203125 
L 29.296875 -6.203125 
L 29.296875 -13.1875 
L 8.59375 -13.1875 
z
" id="DejaVuSans-91"/>
      <path d="M 44.28125 53.078125 
L 44.28125 44.578125 
Q 40.484375 46.53125 36.375 47.5 
Q 32.28125 48.484375 27.875 48.484375 
Q 21.1875 48.484375 17.84375 46.4375 
Q 14.5 44.390625 14.5 40.28125 
Q 14.5 37.15625 16.890625 35.375 
Q 19.28125 33.59375 26.515625 31.984375 
L 29.59375 31.296875 
Q 39.15625 29.25 43.1875 25.515625 
Q 47.21875 21.78125 47.21875 15.09375 
Q 47.21875 7.46875 41.1875 3.015625 
Q 35.15625 -1.421875 24.609375 -1.421875 
Q 20.21875 -1.421875 15.453125 -0.5625 
Q 10.6875 0.296875 5.421875 2 
L 5.421875 11.28125 
Q 10.40625 8.6875 15.234375 7.390625 
Q 20.0625 6.109375 24.8125 6.109375 
Q 31.15625 6.109375 34.5625 8.28125 
Q 37.984375 10.453125 37.984375 14.40625 
Q 37.984375 18.0625 35.515625 20.015625 
Q 33.0625 21.96875 24.703125 23.78125 
L 21.578125 24.515625 
Q 13.234375 26.265625 9.515625 29.90625 
Q 5.8125 33.546875 5.8125 39.890625 
Q 5.8125 47.609375 11.28125 51.796875 
Q 16.75 56 26.8125 56 
Q 31.78125 56 36.171875 55.265625 
Q 40.578125 54.546875 44.28125 53.078125 
z
" id="DejaVuSans-115"/>
      <path d="M 30.421875 75.984375 
L 30.421875 -13.1875 
L 9.71875 -13.1875 
L 9.71875 -6.203125 
L 21.390625 -6.203125 
L 21.390625 69 
L 9.71875 69 
L 9.71875 75.984375 
z
" id="DejaVuSans-93"/>
     </defs>
     <g transform="translate(183.408891 342.194844)scale(0.15 -0.15)">
      <use xlink:href="#DejaVuSans-116"/>
      <use x="39.208984" xlink:href="#DejaVuSans-105"/>
      <use x="66.992188" xlink:href="#DejaVuSans-109"/>
      <use x="164.404297" xlink:href="#DejaVuSans-101"/>
      <use x="225.927734" xlink:href="#DejaVuSans-32"/>
      <use x="257.714844" xlink:href="#DejaVuSans-91"/>
      <use x="296.728516" xlink:href="#DejaVuSans-115"/>
      <use x="348.828125" xlink:href="#DejaVuSans-93"/>
     </g>
    </g>
   </g>
   <g id="matplotlib.axis_2">
    <g id="ytick_1">
     <g id="line2d_5">
      <defs>
       <path d="M 0 0 
L -3.5 0 
" id="mf92a387da2" style="stroke:#000000;stroke-width:0.8;"/>
      </defs>
      <g>
       <use style="stroke:#000000;stroke-width:0.8;" x="47.424" xlink:href="#mf92a387da2" y="292.417927"/>
      </g>
     </g>
     <g id="text_6">
      <!-- 0 -->
      <g transform="translate(30.88025 298.116756)scale(0.15 -0.15)">
       <use xlink:href="#DejaVuSans-48"/>
      </g>
     </g>
    </g>
    <g id="ytick_2">
     <g id="line2d_6">
      <g>
       <use style="stroke:#000000;stroke-width:0.8;" x="47.424" xlink:href="#mf92a387da2" y="241.982006"/>
      </g>
     </g>
     <g id="text_7">
      <!-- 2 -->
      <g transform="translate(30.88025 247.680834)scale(0.15 -0.15)">
       <use xlink:href="#DejaVuSans-50"/>
      </g>
     </g>
    </g>
    <g id="ytick_3">
     <g id="line2d_7">
      <g>
       <use style="stroke:#000000;stroke-width:0.8;" x="47.424" xlink:href="#mf92a387da2" y="191.546084"/>
      </g>
     </g>
     <g id="text_8">
      <!-- 4 -->
      <g transform="translate(30.88025 197.244912)scale(0.15 -0.15)">
       <use xlink:href="#DejaVuSans-52"/>
      </g>
     </g>
    </g>
    <g id="ytick_4">
     <g id="line2d_8">
      <g>
       <use style="stroke:#000000;stroke-width:0.8;" x="47.424" xlink:href="#mf92a387da2" y="141.110162"/>
      </g>
     </g>
     <g id="text_9">
      <!-- 6 -->
      <g transform="translate(30.88025 146.80899)scale(0.15 -0.15)">
       <use xlink:href="#DejaVuSans-54"/>
      </g>
     </g>
    </g>
    <g id="ytick_5">
     <g id="line2d_9">
      <g>
       <use style="stroke:#000000;stroke-width:0.8;" x="47.424" xlink:href="#mf92a387da2" y="90.674241"/>
      </g>
     </g>
     <g id="text_10">
      <!-- 8 -->
      <defs>
       <path d="M 31.78125 34.625 
Q 24.75 34.625 20.71875 30.859375 
Q 16.703125 27.09375 16.703125 20.515625 
Q 16.703125 13.921875 20.71875 10.15625 
Q 24.75 6.390625 31.78125 6.390625 
Q 38.8125 6.390625 42.859375 10.171875 
Q 46.921875 13.96875 46.921875 20.515625 
Q 46.921875 27.09375 42.890625 30.859375 
Q 38.875 34.625 31.78125 34.625 
z
M 21.921875 38.8125 
Q 15.578125 40.375 12.03125 44.71875 
Q 8.5 49.078125 8.5 55.328125 
Q 8.5 64.0625 14.71875 69.140625 
Q 20.953125 74.21875 31.78125 74.21875 
Q 42.671875 74.21875 48.875 69.140625 
Q 55.078125 64.0625 55.078125 55.328125 
Q 55.078125 49.078125 51.53125 44.71875 
Q 48 40.375 41.703125 38.8125 
Q 48.828125 37.15625 52.796875 32.3125 
Q 56.78125 27.484375 56.78125 20.515625 
Q 56.78125 9.90625 50.3125 4.234375 
Q 43.84375 -1.421875 31.78125 -1.421875 
Q 19.734375 -1.421875 13.25 4.234375 
Q 6.78125 9.90625 6.78125 20.515625 
Q 6.78125 27.484375 10.78125 32.3125 
Q 14.796875 37.15625 21.921875 38.8125 
z
M 18.3125 54.390625 
Q 18.3125 48.734375 21.84375 45.5625 
Q 25.390625 42.390625 31.78125 42.390625 
Q 38.140625 42.390625 41.71875 45.5625 
Q 45.3125 48.734375 45.3125 54.390625 
Q 45.3125 60.0625 41.71875 63.234375 
Q 38.140625 66.40625 31.78125 66.40625 
Q 25.390625 66.40625 21.84375 63.234375 
Q 18.3125 60.0625 18.3125 54.390625 
z
" id="DejaVuSans-56"/>
      </defs>
      <g transform="translate(30.88025 96.373069)scale(0.15 -0.15)">
       <use xlink:href="#DejaVuSans-56"/>
      </g>
     </g>
    </g>
    <g id="ytick_6">
     <g id="line2d_10">
      <g>
       <use style="stroke:#000000;stroke-width:0.8;" x="47.424" xlink:href="#mf92a387da2" y="40.238319"/>
      </g>
     </g>
     <g id="text_11">
      <!-- 10 -->
      <defs>
       <path d="M 12.40625 8.296875 
L 28.515625 8.296875 
L 28.515625 63.921875 
L 10.984375 60.40625 
L 10.984375 69.390625 
L 28.421875 72.90625 
L 38.28125 72.90625 
L 38.28125 8.296875 
L 54.390625 8.296875 
L 54.390625 0 
L 12.40625 0 
z
" id="DejaVuSans-49"/>
      </defs>
      <g transform="translate(21.3365 45.937147)scale(0.15 -0.15)">
       <use xlink:href="#DejaVuSans-49"/>
       <use x="63.623047" xlink:href="#DejaVuSans-48"/>
      </g>
     </g>
    </g>
    <g id="text_12">
     <!-- velocity [m/s] -->
     <defs>
      <path d="M 2.984375 54.6875 
L 12.5 54.6875 
L 29.59375 8.796875 
L 46.6875 54.6875 
L 56.203125 54.6875 
L 35.6875 0 
L 23.484375 0 
z
" id="DejaVuSans-118"/>
      <path d="M 9.421875 75.984375 
L 18.40625 75.984375 
L 18.40625 0 
L 9.421875 0 
z
" id="DejaVuSans-108"/>
      <path d="M 30.609375 48.390625 
Q 23.390625 48.390625 19.1875 42.75 
Q 14.984375 37.109375 14.984375 27.296875 
Q 14.984375 17.484375 19.15625 11.84375 
Q 23.34375 6.203125 30.609375 6.203125 
Q 37.796875 6.203125 41.984375 11.859375 
Q 46.1875 17.53125 46.1875 27.296875 
Q 46.1875 37.015625 41.984375 42.703125 
Q 37.796875 48.390625 30.609375 48.390625 
z
M 30.609375 56 
Q 42.328125 56 49.015625 48.375 
Q 55.71875 40.765625 55.71875 27.296875 
Q 55.71875 13.875 49.015625 6.21875 
Q 42.328125 -1.421875 30.609375 -1.421875 
Q 18.84375 -1.421875 12.171875 6.21875 
Q 5.515625 13.875 5.515625 27.296875 
Q 5.515625 40.765625 12.171875 48.375 
Q 18.84375 56 30.609375 56 
z
" id="DejaVuSans-111"/>
      <path d="M 48.78125 52.59375 
L 48.78125 44.1875 
Q 44.96875 46.296875 41.140625 47.34375 
Q 37.3125 48.390625 33.40625 48.390625 
Q 24.65625 48.390625 19.8125 42.84375 
Q 14.984375 37.3125 14.984375 27.296875 
Q 14.984375 17.28125 19.8125 11.734375 
Q 24.65625 6.203125 33.40625 6.203125 
Q 37.3125 6.203125 41.140625 7.25 
Q 44.96875 8.296875 48.78125 10.40625 
L 48.78125 2.09375 
Q 45.015625 0.34375 40.984375 -0.53125 
Q 36.96875 -1.421875 32.421875 -1.421875 
Q 20.0625 -1.421875 12.78125 6.34375 
Q 5.515625 14.109375 5.515625 27.296875 
Q 5.515625 40.671875 12.859375 48.328125 
Q 20.21875 56 33.015625 56 
Q 37.15625 56 41.109375 55.140625 
Q 45.0625 54.296875 48.78125 52.59375 
z
" id="DejaVuSans-99"/>
      <path d="M 32.171875 -5.078125 
Q 28.375 -14.84375 24.75 -17.8125 
Q 21.140625 -20.796875 15.09375 -20.796875 
L 7.90625 -20.796875 
L 7.90625 -13.28125 
L 13.1875 -13.28125 
Q 16.890625 -13.28125 18.9375 -11.515625 
Q 21 -9.765625 23.484375 -3.21875 
L 25.09375 0.875 
L 2.984375 54.6875 
L 12.5 54.6875 
L 29.59375 11.921875 
L 46.6875 54.6875 
L 56.203125 54.6875 
z
" id="DejaVuSans-121"/>
      <path d="M 25.390625 72.90625 
L 33.6875 72.90625 
L 8.296875 -9.28125 
L 0 -9.28125 
z
" id="DejaVuSans-47"/>
     </defs>
     <g transform="translate(14.216969 215.036853)rotate(-90)scale(0.15 -0.15)">
      <use xlink:href="#DejaVuSans-118"/>
      <use x="59.179688" xlink:href="#DejaVuSans-101"/>
      <use x="120.703125" xlink:href="#DejaVuSans-108"/>
      <use x="148.486328" xlink:href="#DejaVuSans-111"/>
      <use x="209.667969" xlink:href="#DejaVuSans-99"/>
      <use x="264.648438" xlink:href="#DejaVuSans-105"/>
      <use x="292.431641" xlink:href="#DejaVuSans-116"/>
      <use x="331.640625" xlink:href="#DejaVuSans-121"/>
      <use x="390.820312" xlink:href="#DejaVuSans-32"/>
      <use x="422.607422" xlink:href="#DejaVuSans-91"/>
      <use x="461.621094" xlink:href="#DejaVuSans-109"/>
      <use x="559.033203" xlink:href="#DejaVuSans-47"/>
      <use x="592.724609" xlink:href="#DejaVuSans-115"/>
      <use x="644.824219" xlink:href="#DejaVuSans-93"/>
     </g>
    </g>
   </g>
   <g id="patch_3">
    <path d="M 47.424 305.28 
L 47.424 22.217143 
" style="fill:none;stroke:#000000;stroke-linecap:square;stroke-linejoin:miter;stroke-width:0.8;"/>
   </g>
   <g id="patch_4">
    <path d="M 377.568 305.28 
L 377.568 22.217143 
" style="fill:none;stroke:#000000;stroke-linecap:square;stroke-linejoin:miter;stroke-width:0.8;"/>
   </g>
   <g id="patch_5">
    <path d="M 47.424 305.28 
L 377.568 305.28 
" style="fill:none;stroke:#000000;stroke-linecap:square;stroke-linejoin:miter;stroke-width:0.8;"/>
   </g>
   <g id="patch_6">
    <path d="M 47.424 22.217143 
L 377.568 22.217143 
" style="fill:none;stroke:#000000;stroke-linecap:square;stroke-linejoin:miter;stroke-width:0.8;"/>
   </g>
   <g id="text_13">
    <!-- Bag 41 -->
    <defs>
     <path d="M 19.671875 34.8125 
L 19.671875 8.109375 
L 35.5 8.109375 
Q 43.453125 8.109375 47.28125 11.40625 
Q 51.125 14.703125 51.125 21.484375 
Q 51.125 28.328125 47.28125 31.5625 
Q 43.453125 34.8125 35.5 34.8125 
z
M 19.671875 64.796875 
L 19.671875 42.828125 
L 34.28125 42.828125 
Q 41.5 42.828125 45.03125 45.53125 
Q 48.578125 48.25 48.578125 53.8125 
Q 48.578125 59.328125 45.03125 62.0625 
Q 41.5 64.796875 34.28125 64.796875 
z
M 9.8125 72.90625 
L 35.015625 72.90625 
Q 46.296875 72.90625 52.390625 68.21875 
Q 58.5 63.53125 58.5 54.890625 
Q 58.5 48.1875 55.375 44.234375 
Q 52.25 40.28125 46.1875 39.3125 
Q 53.46875 37.75 57.5 32.78125 
Q 61.53125 27.828125 61.53125 20.40625 
Q 61.53125 10.640625 54.890625 5.3125 
Q 48.25 0 35.984375 0 
L 9.8125 0 
z
" id="DejaVuSans-66"/>
     <path d="M 34.28125 27.484375 
Q 23.390625 27.484375 19.1875 25 
Q 14.984375 22.515625 14.984375 16.5 
Q 14.984375 11.71875 18.140625 8.90625 
Q 21.296875 6.109375 26.703125 6.109375 
Q 34.1875 6.109375 38.703125 11.40625 
Q 43.21875 16.703125 43.21875 25.484375 
L 43.21875 27.484375 
z
M 52.203125 31.203125 
L 52.203125 0 
L 43.21875 0 
L 43.21875 8.296875 
Q 40.140625 3.328125 35.546875 0.953125 
Q 30.953125 -1.421875 24.3125 -1.421875 
Q 15.921875 -1.421875 10.953125 3.296875 
Q 6 8.015625 6 15.921875 
Q 6 25.140625 12.171875 29.828125 
Q 18.359375 34.515625 30.609375 34.515625 
L 43.21875 34.515625 
L 43.21875 35.40625 
Q 43.21875 41.609375 39.140625 45 
Q 35.0625 48.390625 27.6875 48.390625 
Q 23 48.390625 18.546875 47.265625 
Q 14.109375 46.140625 10.015625 43.890625 
L 10.015625 52.203125 
Q 14.9375 54.109375 19.578125 55.046875 
Q 24.21875 56 28.609375 56 
Q 40.484375 56 46.34375 49.84375 
Q 52.203125 43.703125 52.203125 31.203125 
z
" id="DejaVuSans-97"/>
     <path d="M 45.40625 27.984375 
Q 45.40625 37.75 41.375 43.109375 
Q 37.359375 48.484375 30.078125 48.484375 
Q 22.859375 48.484375 18.828125 43.109375 
Q 14.796875 37.75 14.796875 27.984375 
Q 14.796875 18.265625 18.828125 12.890625 
Q 22.859375 7.515625 30.078125 7.515625 
Q 37.359375 7.515625 41.375 12.890625 
Q 45.40625 18.265625 45.40625 27.984375 
z
M 54.390625 6.78125 
Q 54.390625 -7.171875 48.1875 -13.984375 
Q 42 -20.796875 29.203125 -20.796875 
Q 24.46875 -20.796875 20.265625 -20.09375 
Q 16.0625 -19.390625 12.109375 -17.921875 
L 12.109375 -9.1875 
Q 16.0625 -11.328125 19.921875 -12.34375 
Q 23.78125 -13.375 27.78125 -13.375 
Q 36.625 -13.375 41.015625 -8.765625 
Q 45.40625 -4.15625 45.40625 5.171875 
L 45.40625 9.625 
Q 42.625 4.78125 38.28125 2.390625 
Q 33.9375 0 27.875 0 
Q 17.828125 0 11.671875 7.65625 
Q 5.515625 15.328125 5.515625 27.984375 
Q 5.515625 40.671875 11.671875 48.328125 
Q 17.828125 56 27.875 56 
Q 33.9375 56 38.28125 53.609375 
Q 42.625 51.21875 45.40625 46.390625 
L 45.40625 54.6875 
L 54.390625 54.6875 
z
" id="DejaVuSans-103"/>
    </defs>
    <g transform="translate(180.779438 16.217143)scale(0.18 -0.18)">
     <use xlink:href="#DejaVuSans-66"/>
     <use x="68.603516" xlink:href="#DejaVuSans-97"/>
     <use x="129.882812" xlink:href="#DejaVuSans-103"/>
     <use x="193.359375" xlink:href="#DejaVuSans-32"/>
     <use x="225.146484" xlink:href="#DejaVuSans-52"/>
     <use x="288.769531" xlink:href="#DejaVuSans-49"/>
    </g>
   </g>
   <g id="legend_1">
    <g id="patch_7">
     <path d="M 249.517219 188.015759 
L 367.068 188.015759 
Q 370.068 188.015759 370.068 185.015759 
L 370.068 142.481384 
Q 370.068 139.481384 367.068 139.481384 
L 249.517219 139.481384 
Q 246.517219 139.481384 246.517219 142.481384 
L 246.517219 185.015759 
Q 246.517219 188.015759 249.517219 188.015759 
z
" style="fill:#ffffff;opacity:0.8;stroke:#cccccc;stroke-linejoin:miter;"/>
    </g>
    <g id="PathCollection_3">
     <g>
      <use style="fill:#1f77b4;stroke:#1f77b4;" x="267.517219" xlink:href="#mbbbc3a05a2" y="152.94154"/>
     </g>
    </g>
    <g id="text_14">
     <!-- Radar -->
     <defs>
      <path d="M 44.390625 34.1875 
Q 47.5625 33.109375 50.5625 29.59375 
Q 53.5625 26.078125 56.59375 19.921875 
L 66.609375 0 
L 56 0 
L 46.6875 18.703125 
Q 43.0625 26.03125 39.671875 28.421875 
Q 36.28125 30.8125 30.421875 30.8125 
L 19.671875 30.8125 
L 19.671875 0 
L 9.8125 0 
L 9.8125 72.90625 
L 32.078125 72.90625 
Q 44.578125 72.90625 50.734375 67.671875 
Q 56.890625 62.453125 56.890625 51.90625 
Q 56.890625 45.015625 53.6875 40.46875 
Q 50.484375 35.9375 44.390625 34.1875 
z
M 19.671875 64.796875 
L 19.671875 38.921875 
L 32.078125 38.921875 
Q 39.203125 38.921875 42.84375 42.21875 
Q 46.484375 45.515625 46.484375 51.90625 
Q 46.484375 58.296875 42.84375 61.546875 
Q 39.203125 64.796875 32.078125 64.796875 
z
" id="DejaVuSans-82"/>
      <path d="M 45.40625 46.390625 
L 45.40625 75.984375 
L 54.390625 75.984375 
L 54.390625 0 
L 45.40625 0 
L 45.40625 8.203125 
Q 42.578125 3.328125 38.25 0.953125 
Q 33.9375 -1.421875 27.875 -1.421875 
Q 17.96875 -1.421875 11.734375 6.484375 
Q 5.515625 14.40625 5.515625 27.296875 
Q 5.515625 40.1875 11.734375 48.09375 
Q 17.96875 56 27.875 56 
Q 33.9375 56 38.25 53.625 
Q 42.578125 51.265625 45.40625 46.390625 
z
M 14.796875 27.296875 
Q 14.796875 17.390625 18.875 11.75 
Q 22.953125 6.109375 30.078125 6.109375 
Q 37.203125 6.109375 41.296875 11.75 
Q 45.40625 17.390625 45.40625 27.296875 
Q 45.40625 37.203125 41.296875 42.84375 
Q 37.203125 48.484375 30.078125 48.484375 
Q 22.953125 48.484375 18.875 42.84375 
Q 14.796875 37.203125 14.796875 27.296875 
z
" id="DejaVuSans-100"/>
      <path d="M 41.109375 46.296875 
Q 39.59375 47.171875 37.8125 47.578125 
Q 36.03125 48 33.890625 48 
Q 26.265625 48 22.1875 43.046875 
Q 18.109375 38.09375 18.109375 28.8125 
L 18.109375 0 
L 9.078125 0 
L 9.078125 54.6875 
L 18.109375 54.6875 
L 18.109375 46.1875 
Q 20.953125 51.171875 25.484375 53.578125 
Q 30.03125 56 36.53125 56 
Q 37.453125 56 38.578125 55.875 
Q 39.703125 55.765625 41.0625 55.515625 
z
" id="DejaVuSans-114"/>
     </defs>
     <g transform="translate(294.517219 156.87904)scale(0.15 -0.15)">
      <use xlink:href="#DejaVuSans-82"/>
      <use x="67.232422" xlink:href="#DejaVuSans-97"/>
      <use x="128.511719" xlink:href="#DejaVuSans-100"/>
      <use x="191.988281" xlink:href="#DejaVuSans-97"/>
      <use x="253.267578" xlink:href="#DejaVuSans-114"/>
     </g>
    </g>
    <g id="PathCollection_4">
     <g>
      <use style="fill:#ff7f0e;stroke:#ff7f0e;" x="267.517219" xlink:href="#m60011b6098" y="174.958728"/>
     </g>
    </g>
    <g id="text_15">
     <!-- Optitrack -->
     <defs>
      <path d="M 39.40625 66.21875 
Q 28.65625 66.21875 22.328125 58.203125 
Q 16.015625 50.203125 16.015625 36.375 
Q 16.015625 22.609375 22.328125 14.59375 
Q 28.65625 6.59375 39.40625 6.59375 
Q 50.140625 6.59375 56.421875 14.59375 
Q 62.703125 22.609375 62.703125 36.375 
Q 62.703125 50.203125 56.421875 58.203125 
Q 50.140625 66.21875 39.40625 66.21875 
z
M 39.40625 74.21875 
Q 54.734375 74.21875 63.90625 63.9375 
Q 73.09375 53.65625 73.09375 36.375 
Q 73.09375 19.140625 63.90625 8.859375 
Q 54.734375 -1.421875 39.40625 -1.421875 
Q 24.03125 -1.421875 14.8125 8.828125 
Q 5.609375 19.09375 5.609375 36.375 
Q 5.609375 53.65625 14.8125 63.9375 
Q 24.03125 74.21875 39.40625 74.21875 
z
" id="DejaVuSans-79"/>
      <path d="M 18.109375 8.203125 
L 18.109375 -20.796875 
L 9.078125 -20.796875 
L 9.078125 54.6875 
L 18.109375 54.6875 
L 18.109375 46.390625 
Q 20.953125 51.265625 25.265625 53.625 
Q 29.59375 56 35.59375 56 
Q 45.5625 56 51.78125 48.09375 
Q 58.015625 40.1875 58.015625 27.296875 
Q 58.015625 14.40625 51.78125 6.484375 
Q 45.5625 -1.421875 35.59375 -1.421875 
Q 29.59375 -1.421875 25.265625 0.953125 
Q 20.953125 3.328125 18.109375 8.203125 
z
M 48.6875 27.296875 
Q 48.6875 37.203125 44.609375 42.84375 
Q 40.53125 48.484375 33.40625 48.484375 
Q 26.265625 48.484375 22.1875 42.84375 
Q 18.109375 37.203125 18.109375 27.296875 
Q 18.109375 17.390625 22.1875 11.75 
Q 26.265625 6.109375 33.40625 6.109375 
Q 40.53125 6.109375 44.609375 11.75 
Q 48.6875 17.390625 48.6875 27.296875 
z
" id="DejaVuSans-112"/>
      <path d="M 9.078125 75.984375 
L 18.109375 75.984375 
L 18.109375 31.109375 
L 44.921875 54.6875 
L 56.390625 54.6875 
L 27.390625 29.109375 
L 57.625 0 
L 45.90625 0 
L 18.109375 26.703125 
L 18.109375 0 
L 9.078125 0 
z
" id="DejaVuSans-107"/>
     </defs>
     <g transform="translate(294.517219 178.896228)scale(0.15 -0.15)">
      <use xlink:href="#DejaVuSans-79"/>
      <use x="78.710938" xlink:href="#DejaVuSans-112"/>
      <use x="142.1875" xlink:href="#DejaVuSans-116"/>
      <use x="181.396484" xlink:href="#DejaVuSans-105"/>
      <use x="209.179688" xlink:href="#DejaVuSans-116"/>
      <use x="248.388672" xlink:href="#DejaVuSans-114"/>
      <use x="289.501953" xlink:href="#DejaVuSans-97"/>
      <use x="350.78125" xlink:href="#DejaVuSans-99"/>
      <use x="405.761719" xlink:href="#DejaVuSans-107"/>
     </g>
    </g>
   </g>
  </g>
 </g>
 <defs>
  <clipPath id="p2b80384561">
   <rect height="283.062857" width="330.144" x="47.424" y="22.217143"/>
  </clipPath>
 </defs>
</svg>
