<?xml version="1.0" encoding="utf-8" standalone="no"?>
<!DOCTYPE svg PUBLIC "-//W3C//DTD SVG 1.1//EN"
  "http://www.w3.org/Graphics/SVG/1.1/DTD/svg11.dtd">
<!-- Created with matplotlib (https://matplotlib.org/) -->
<svg height="345.6pt" version="1.1" viewBox="0 0 391.68 345.6" width="391.68pt" xmlns="http://www.w3.org/2000/svg" xmlns:xlink="http://www.w3.org/1999/xlink">
 <defs>
  <style type="text/css">
*{stroke-linecap:butt;stroke-linejoin:round;}
  </style>
 </defs>
 <g id="figure_1">
  <g id="patch_1">
   <path d="M 0 345.6 
L 391.68 345.6 
L 391.68 0 
L 0 0 
z
" style="fill:#ffffff;"/>
  </g>
  <g id="axes_1">
   <g id="patch_2">
    <path d="M 60.617143 305.28 
L 385.152 305.28 
L 385.152 23.04 
L 60.617143 23.04 
z
" style="fill:#ffffff;"/>
   </g>
   <g id="PathCollection_1">
    <defs>
     <path d="M 0 3 
C 0.795609 3 1.55874 2.683901 2.12132 2.12132 
C 2.683901 1.55874 3 0.795609 3 0 
C 3 -0.795609 2.683901 -1.55874 2.12132 -2.12132 
C 1.55874 -2.683901 0.795609 -3 0 -3 
C -0.795609 -3 -1.55874 -2.683901 -2.12132 -2.12132 
C -2.683901 -1.55874 -3 -0.795609 -3 0 
C -3 0.795609 -2.683901 1.55874 -2.12132 2.12132 
C -1.55874 2.683901 -0.795609 3 0 3 
z
" id="mcd3a546234" style="stroke:#1f77b4;"/>
    </defs>
    <g clip-path="url(#p70971a9409)">
     <use style="fill:#1f77b4;stroke:#1f77b4;" x="75.368727" xlink:href="#mcd3a546234" y="185.681997"/>
     <use style="fill:#1f77b4;stroke:#1f77b4;" x="78.233113" xlink:href="#mcd3a546234" y="186.048577"/>
     <use style="fill:#1f77b4;stroke:#1f77b4;" x="81.097498" xlink:href="#mcd3a546234" y="181.732197"/>
     <use style="fill:#1f77b4;stroke:#1f77b4;" x="83.961883" xlink:href="#mcd3a546234" y="204.561015"/>
     <use style="fill:#1f77b4;stroke:#1f77b4;" x="86.826269" xlink:href="#mcd3a546234" y="198.649283"/>
     <use style="fill:#1f77b4;stroke:#1f77b4;" x="89.690654" xlink:href="#mcd3a546234" y="185.310716"/>
     <use style="fill:#1f77b4;stroke:#1f77b4;" x="92.555039" xlink:href="#mcd3a546234" y="180.008065"/>
     <use style="fill:#1f77b4;stroke:#1f77b4;" x="95.419425" xlink:href="#mcd3a546234" y="185.736188"/>
     <use style="fill:#1f77b4;stroke:#1f77b4;" x="98.28381" xlink:href="#mcd3a546234" y="184.071341"/>
     <use style="fill:#1f77b4;stroke:#1f77b4;" x="101.148195" xlink:href="#mcd3a546234" y="184.170478"/>
     <use style="fill:#1f77b4;stroke:#1f77b4;" x="104.012581" xlink:href="#mcd3a546234" y="184.911188"/>
     <use style="fill:#1f77b4;stroke:#1f77b4;" x="106.876966" xlink:href="#mcd3a546234" y="185.709603"/>
     <use style="fill:#1f77b4;stroke:#1f77b4;" x="109.741351" xlink:href="#mcd3a546234" y="183.583722"/>
     <use style="fill:#1f77b4;stroke:#1f77b4;" x="112.605736" xlink:href="#mcd3a546234" y="188.434173"/>
     <use style="fill:#1f77b4;stroke:#1f77b4;" x="115.470122" xlink:href="#mcd3a546234" y="185.406663"/>
     <use style="fill:#1f77b4;stroke:#1f77b4;" x="118.334507" xlink:href="#mcd3a546234" y="184.62417"/>
     <use style="fill:#1f77b4;stroke:#1f77b4;" x="121.198892" xlink:href="#mcd3a546234" y="186.374216"/>
     <use style="fill:#1f77b4;stroke:#1f77b4;" x="124.063278" xlink:href="#mcd3a546234" y="196.798046"/>
     <use style="fill:#1f77b4;stroke:#1f77b4;" x="126.927663" xlink:href="#mcd3a546234" y="184.11653"/>
     <use style="fill:#1f77b4;stroke:#1f77b4;" x="129.792048" xlink:href="#mcd3a546234" y="186.137478"/>
     <use style="fill:#1f77b4;stroke:#1f77b4;" x="132.656434" xlink:href="#mcd3a546234" y="180.111947"/>
     <use style="fill:#1f77b4;stroke:#1f77b4;" x="135.520819" xlink:href="#mcd3a546234" y="191.086108"/>
     <use style="fill:#1f77b4;stroke:#1f77b4;" x="138.385204" xlink:href="#mcd3a546234" y="195.626964"/>
     <use style="fill:#1f77b4;stroke:#1f77b4;" x="141.24959" xlink:href="#mcd3a546234" y="189.464845"/>
     <use style="fill:#1f77b4;stroke:#1f77b4;" x="144.113975" xlink:href="#mcd3a546234" y="185.962189"/>
     <use style="fill:#1f77b4;stroke:#1f77b4;" x="146.97836" xlink:href="#mcd3a546234" y="189.073467"/>
     <use style="fill:#1f77b4;stroke:#1f77b4;" x="149.842746" xlink:href="#mcd3a546234" y="191.306776"/>
     <use style="fill:#1f77b4;stroke:#1f77b4;" x="152.707131" xlink:href="#mcd3a546234" y="184.783901"/>
     <use style="fill:#1f77b4;stroke:#1f77b4;" x="155.571516" xlink:href="#mcd3a546234" y="183.593187"/>
     <use style="fill:#1f77b4;stroke:#1f77b4;" x="158.435902" xlink:href="#mcd3a546234" y="192.340281"/>
     <use style="fill:#1f77b4;stroke:#1f77b4;" x="161.300287" xlink:href="#mcd3a546234" y="199.756221"/>
     <use style="fill:#1f77b4;stroke:#1f77b4;" x="164.164672" xlink:href="#mcd3a546234" y="184.968462"/>
     <use style="fill:#1f77b4;stroke:#1f77b4;" x="167.029058" xlink:href="#mcd3a546234" y="180.604633"/>
     <use style="fill:#1f77b4;stroke:#1f77b4;" x="169.893443" xlink:href="#mcd3a546234" y="186.029105"/>
     <use style="fill:#1f77b4;stroke:#1f77b4;" x="172.757828" xlink:href="#mcd3a546234" y="191.778161"/>
     <use style="fill:#1f77b4;stroke:#1f77b4;" x="175.622214" xlink:href="#mcd3a546234" y="191.171178"/>
     <use style="fill:#1f77b4;stroke:#1f77b4;" x="178.486599" xlink:href="#mcd3a546234" y="187.767241"/>
     <use style="fill:#1f77b4;stroke:#1f77b4;" x="181.350984" xlink:href="#mcd3a546234" y="189.959171"/>
     <use style="fill:#1f77b4;stroke:#1f77b4;" x="184.21537" xlink:href="#mcd3a546234" y="178.994724"/>
     <use style="fill:#1f77b4;stroke:#1f77b4;" x="187.079755" xlink:href="#mcd3a546234" y="193.418108"/>
     <use style="fill:#1f77b4;stroke:#1f77b4;" x="189.94414" xlink:href="#mcd3a546234" y="186.648044"/>
     <use style="fill:#1f77b4;stroke:#1f77b4;" x="192.808526" xlink:href="#mcd3a546234" y="186.957499"/>
     <use style="fill:#1f77b4;stroke:#1f77b4;" x="195.672911" xlink:href="#mcd3a546234" y="185.906826"/>
     <use style="fill:#1f77b4;stroke:#1f77b4;" x="198.537296" xlink:href="#mcd3a546234" y="189.805983"/>
     <use style="fill:#1f77b4;stroke:#1f77b4;" x="201.401682" xlink:href="#mcd3a546234" y="188.272516"/>
     <use style="fill:#1f77b4;stroke:#1f77b4;" x="204.266067" xlink:href="#mcd3a546234" y="184.537095"/>
     <use style="fill:#1f77b4;stroke:#1f77b4;" x="207.130452" xlink:href="#mcd3a546234" y="185.983586"/>
     <use style="fill:#1f77b4;stroke:#1f77b4;" x="209.994837" xlink:href="#mcd3a546234" y="182.612995"/>
     <use style="fill:#1f77b4;stroke:#1f77b4;" x="212.859223" xlink:href="#mcd3a546234" y="190.784461"/>
     <use style="fill:#1f77b4;stroke:#1f77b4;" x="215.723608" xlink:href="#mcd3a546234" y="180.270074"/>
     <use style="fill:#1f77b4;stroke:#1f77b4;" x="218.587993" xlink:href="#mcd3a546234" y="186.752629"/>
     <use style="fill:#1f77b4;stroke:#1f77b4;" x="221.452379" xlink:href="#mcd3a546234" y="190.613115"/>
     <use style="fill:#1f77b4;stroke:#1f77b4;" x="224.316764" xlink:href="#mcd3a546234" y="190.374499"/>
     <use style="fill:#1f77b4;stroke:#1f77b4;" x="227.181149" xlink:href="#mcd3a546234" y="184.435923"/>
     <use style="fill:#1f77b4;stroke:#1f77b4;" x="230.045535" xlink:href="#mcd3a546234" y="182.315898"/>
     <use style="fill:#1f77b4;stroke:#1f77b4;" x="232.90992" xlink:href="#mcd3a546234" y="186.82639"/>
     <use style="fill:#1f77b4;stroke:#1f77b4;" x="235.774305" xlink:href="#mcd3a546234" y="183.967313"/>
     <use style="fill:#1f77b4;stroke:#1f77b4;" x="238.638691" xlink:href="#mcd3a546234" y="187.768262"/>
     <use style="fill:#1f77b4;stroke:#1f77b4;" x="241.503076" xlink:href="#mcd3a546234" y="191.527383"/>
     <use style="fill:#1f77b4;stroke:#1f77b4;" x="244.367461" xlink:href="#mcd3a546234" y="185.325148"/>
     <use style="fill:#1f77b4;stroke:#1f77b4;" x="247.231847" xlink:href="#mcd3a546234" y="188.311571"/>
     <use style="fill:#1f77b4;stroke:#1f77b4;" x="250.096232" xlink:href="#mcd3a546234" y="186.5721"/>
     <use style="fill:#1f77b4;stroke:#1f77b4;" x="252.960617" xlink:href="#mcd3a546234" y="191.390465"/>
     <use style="fill:#1f77b4;stroke:#1f77b4;" x="255.825003" xlink:href="#mcd3a546234" y="187.292854"/>
     <use style="fill:#1f77b4;stroke:#1f77b4;" x="258.689388" xlink:href="#mcd3a546234" y="183.36609"/>
     <use style="fill:#1f77b4;stroke:#1f77b4;" x="261.553773" xlink:href="#mcd3a546234" y="187.564349"/>
     <use style="fill:#1f77b4;stroke:#1f77b4;" x="264.418159" xlink:href="#mcd3a546234" y="195.78532"/>
     <use style="fill:#1f77b4;stroke:#1f77b4;" x="267.282544" xlink:href="#mcd3a546234" y="188.898651"/>
     <use style="fill:#1f77b4;stroke:#1f77b4;" x="270.146929" xlink:href="#mcd3a546234" y="186.650756"/>
     <use style="fill:#1f77b4;stroke:#1f77b4;" x="273.011315" xlink:href="#mcd3a546234" y="182.335505"/>
     <use style="fill:#1f77b4;stroke:#1f77b4;" x="275.8757" xlink:href="#mcd3a546234" y="188.911317"/>
     <use style="fill:#1f77b4;stroke:#1f77b4;" x="278.740085" xlink:href="#mcd3a546234" y="178.590818"/>
     <use style="fill:#1f77b4;stroke:#1f77b4;" x="281.604471" xlink:href="#mcd3a546234" y="189.622337"/>
     <use style="fill:#1f77b4;stroke:#1f77b4;" x="284.468856" xlink:href="#mcd3a546234" y="187.484703"/>
     <use style="fill:#1f77b4;stroke:#1f77b4;" x="287.333241" xlink:href="#mcd3a546234" y="181.610051"/>
     <use style="fill:#1f77b4;stroke:#1f77b4;" x="290.197627" xlink:href="#mcd3a546234" y="186.969113"/>
     <use style="fill:#1f77b4;stroke:#1f77b4;" x="293.062012" xlink:href="#mcd3a546234" y="195.141076"/>
     <use style="fill:#1f77b4;stroke:#1f77b4;" x="295.926397" xlink:href="#mcd3a546234" y="189.352842"/>
     <use style="fill:#1f77b4;stroke:#1f77b4;" x="298.790782" xlink:href="#mcd3a546234" y="183.631162"/>
     <use style="fill:#1f77b4;stroke:#1f77b4;" x="301.655168" xlink:href="#mcd3a546234" y="182.917603"/>
     <use style="fill:#1f77b4;stroke:#1f77b4;" x="310.248324" xlink:href="#mcd3a546234" y="187.890499"/>
     <use style="fill:#1f77b4;stroke:#1f77b4;" x="313.112709" xlink:href="#mcd3a546234" y="189.495634"/>
     <use style="fill:#1f77b4;stroke:#1f77b4;" x="315.977094" xlink:href="#mcd3a546234" y="180.283143"/>
     <use style="fill:#1f77b4;stroke:#1f77b4;" x="318.84148" xlink:href="#mcd3a546234" y="186.200532"/>
     <use style="fill:#1f77b4;stroke:#1f77b4;" x="321.705865" xlink:href="#mcd3a546234" y="176.249684"/>
     <use style="fill:#1f77b4;stroke:#1f77b4;" x="324.57025" xlink:href="#mcd3a546234" y="195.019704"/>
     <use style="fill:#1f77b4;stroke:#1f77b4;" x="327.434636" xlink:href="#mcd3a546234" y="195.582772"/>
     <use style="fill:#1f77b4;stroke:#1f77b4;" x="330.299021" xlink:href="#mcd3a546234" y="173.528026"/>
     <use style="fill:#1f77b4;stroke:#1f77b4;" x="333.163406" xlink:href="#mcd3a546234" y="196.340399"/>
     <use style="fill:#1f77b4;stroke:#1f77b4;" x="336.027792" xlink:href="#mcd3a546234" y="208.507734"/>
     <use style="fill:#1f77b4;stroke:#1f77b4;" x="338.892177" xlink:href="#mcd3a546234" y="212.291"/>
     <use style="fill:#1f77b4;stroke:#1f77b4;" x="341.756562" xlink:href="#mcd3a546234" y="178.531325"/>
     <use style="fill:#1f77b4;stroke:#1f77b4;" x="344.620948" xlink:href="#mcd3a546234" y="178.148556"/>
     <use style="fill:#1f77b4;stroke:#1f77b4;" x="347.485333" xlink:href="#mcd3a546234" y="217.011005"/>
     <use style="fill:#1f77b4;stroke:#1f77b4;" x="350.349718" xlink:href="#mcd3a546234" y="208.810201"/>
     <use style="fill:#1f77b4;stroke:#1f77b4;" x="353.214104" xlink:href="#mcd3a546234" y="226.953058"/>
     <use style="fill:#1f77b4;stroke:#1f77b4;" x="356.078489" xlink:href="#mcd3a546234" y="212.894201"/>
     <use style="fill:#1f77b4;stroke:#1f77b4;" x="358.942874" xlink:href="#mcd3a546234" y="248.961481"/>
     <use style="fill:#1f77b4;stroke:#1f77b4;" x="361.80726" xlink:href="#mcd3a546234" y="238.756233"/>
     <use style="fill:#1f77b4;stroke:#1f77b4;" x="364.671645" xlink:href="#mcd3a546234" y="243.709011"/>
     <use style="fill:#1f77b4;stroke:#1f77b4;" x="370.400416" xlink:href="#mcd3a546234" y="226.317804"/>
    </g>
   </g>
   <g id="PathCollection_2">
    <defs>
     <path d="M 0 3 
C 0.795609 3 1.55874 2.683901 2.12132 2.12132 
C 2.683901 1.55874 3 0.795609 3 0 
C 3 -0.795609 2.683901 -1.55874 2.12132 -2.12132 
C 1.55874 -2.683901 0.795609 -3 0 -3 
C -0.795609 -3 -1.55874 -2.683901 -2.12132 -2.12132 
C -2.683901 -1.55874 -3 -0.795609 -3 0 
C -3 0.795609 -2.683901 1.55874 -2.12132 2.12132 
C -1.55874 2.683901 -0.795609 3 0 3 
z
" id="m158cfd5fc4" style="stroke:#ff7f0e;"/>
    </defs>
    <g clip-path="url(#p70971a9409)">
     <use style="fill:#ff7f0e;stroke:#ff7f0e;" x="75.368727" xlink:href="#m158cfd5fc4" y="177.826054"/>
     <use style="fill:#ff7f0e;stroke:#ff7f0e;" x="78.233113" xlink:href="#m158cfd5fc4" y="179.058708"/>
     <use style="fill:#ff7f0e;stroke:#ff7f0e;" x="81.097498" xlink:href="#m158cfd5fc4" y="180.207386"/>
     <use style="fill:#ff7f0e;stroke:#ff7f0e;" x="83.961883" xlink:href="#m158cfd5fc4" y="178.546708"/>
     <use style="fill:#ff7f0e;stroke:#ff7f0e;" x="86.826269" xlink:href="#m158cfd5fc4" y="180.048494"/>
     <use style="fill:#ff7f0e;stroke:#ff7f0e;" x="89.690654" xlink:href="#m158cfd5fc4" y="181.09443"/>
     <use style="fill:#ff7f0e;stroke:#ff7f0e;" x="92.555039" xlink:href="#m158cfd5fc4" y="177.553667"/>
     <use style="fill:#ff7f0e;stroke:#ff7f0e;" x="95.419425" xlink:href="#m158cfd5fc4" y="181.060614"/>
     <use style="fill:#ff7f0e;stroke:#ff7f0e;" x="98.28381" xlink:href="#m158cfd5fc4" y="183.814862"/>
     <use style="fill:#ff7f0e;stroke:#ff7f0e;" x="101.148195" xlink:href="#m158cfd5fc4" y="180.268235"/>
     <use style="fill:#ff7f0e;stroke:#ff7f0e;" x="104.012581" xlink:href="#m158cfd5fc4" y="178.87479"/>
     <use style="fill:#ff7f0e;stroke:#ff7f0e;" x="106.876966" xlink:href="#m158cfd5fc4" y="177.386551"/>
     <use style="fill:#ff7f0e;stroke:#ff7f0e;" x="109.741351" xlink:href="#m158cfd5fc4" y="182.393289"/>
     <use style="fill:#ff7f0e;stroke:#ff7f0e;" x="112.605736" xlink:href="#m158cfd5fc4" y="187.736821"/>
     <use style="fill:#ff7f0e;stroke:#ff7f0e;" x="115.470122" xlink:href="#m158cfd5fc4" y="182.005945"/>
     <use style="fill:#ff7f0e;stroke:#ff7f0e;" x="118.334507" xlink:href="#m158cfd5fc4" y="180.953716"/>
     <use style="fill:#ff7f0e;stroke:#ff7f0e;" x="121.198892" xlink:href="#m158cfd5fc4" y="181.242917"/>
     <use style="fill:#ff7f0e;stroke:#ff7f0e;" x="124.063278" xlink:href="#m158cfd5fc4" y="183.621768"/>
     <use style="fill:#ff7f0e;stroke:#ff7f0e;" x="126.927663" xlink:href="#m158cfd5fc4" y="179.033622"/>
     <use style="fill:#ff7f0e;stroke:#ff7f0e;" x="129.792048" xlink:href="#m158cfd5fc4" y="181.507014"/>
     <use style="fill:#ff7f0e;stroke:#ff7f0e;" x="132.656434" xlink:href="#m158cfd5fc4" y="180.848081"/>
     <use style="fill:#ff7f0e;stroke:#ff7f0e;" x="135.520819" xlink:href="#m158cfd5fc4" y="227.043333"/>
     <use style="fill:#ff7f0e;stroke:#ff7f0e;" x="138.385204" xlink:href="#m158cfd5fc4" y="191.177236"/>
     <use style="fill:#ff7f0e;stroke:#ff7f0e;" x="141.24959" xlink:href="#m158cfd5fc4" y="181.79518"/>
     <use style="fill:#ff7f0e;stroke:#ff7f0e;" x="144.113975" xlink:href="#m158cfd5fc4" y="180.64837"/>
     <use style="fill:#ff7f0e;stroke:#ff7f0e;" x="146.97836" xlink:href="#m158cfd5fc4" y="181.850332"/>
     <use style="fill:#ff7f0e;stroke:#ff7f0e;" x="149.842746" xlink:href="#m158cfd5fc4" y="187.613042"/>
     <use style="fill:#ff7f0e;stroke:#ff7f0e;" x="152.707131" xlink:href="#m158cfd5fc4" y="182.045686"/>
     <use style="fill:#ff7f0e;stroke:#ff7f0e;" x="155.571516" xlink:href="#m158cfd5fc4" y="184.843384"/>
     <use style="fill:#ff7f0e;stroke:#ff7f0e;" x="158.435902" xlink:href="#m158cfd5fc4" y="184.387167"/>
     <use style="fill:#ff7f0e;stroke:#ff7f0e;" x="161.300287" xlink:href="#m158cfd5fc4" y="181.660603"/>
     <use style="fill:#ff7f0e;stroke:#ff7f0e;" x="164.164672" xlink:href="#m158cfd5fc4" y="181.760252"/>
     <use style="fill:#ff7f0e;stroke:#ff7f0e;" x="167.029058" xlink:href="#m158cfd5fc4" y="225.560082"/>
     <use style="fill:#ff7f0e;stroke:#ff7f0e;" x="169.893443" xlink:href="#m158cfd5fc4" y="182.680163"/>
     <use style="fill:#ff7f0e;stroke:#ff7f0e;" x="172.757828" xlink:href="#m158cfd5fc4" y="183.128296"/>
     <use style="fill:#ff7f0e;stroke:#ff7f0e;" x="175.622214" xlink:href="#m158cfd5fc4" y="182.443975"/>
     <use style="fill:#ff7f0e;stroke:#ff7f0e;" x="178.486599" xlink:href="#m158cfd5fc4" y="181.669901"/>
     <use style="fill:#ff7f0e;stroke:#ff7f0e;" x="181.350984" xlink:href="#m158cfd5fc4" y="186.424088"/>
     <use style="fill:#ff7f0e;stroke:#ff7f0e;" x="184.21537" xlink:href="#m158cfd5fc4" y="182.10064"/>
     <use style="fill:#ff7f0e;stroke:#ff7f0e;" x="187.079755" xlink:href="#m158cfd5fc4" y="182.808884"/>
     <use style="fill:#ff7f0e;stroke:#ff7f0e;" x="189.94414" xlink:href="#m158cfd5fc4" y="184.5198"/>
     <use style="fill:#ff7f0e;stroke:#ff7f0e;" x="192.808526" xlink:href="#m158cfd5fc4" y="183.305212"/>
     <use style="fill:#ff7f0e;stroke:#ff7f0e;" x="195.672911" xlink:href="#m158cfd5fc4" y="185.601124"/>
     <use style="fill:#ff7f0e;stroke:#ff7f0e;" x="198.537296" xlink:href="#m158cfd5fc4" y="183.795549"/>
     <use style="fill:#ff7f0e;stroke:#ff7f0e;" x="201.401682" xlink:href="#m158cfd5fc4" y="190.059331"/>
     <use style="fill:#ff7f0e;stroke:#ff7f0e;" x="204.266067" xlink:href="#m158cfd5fc4" y="187.886157"/>
     <use style="fill:#ff7f0e;stroke:#ff7f0e;" x="207.130452" xlink:href="#m158cfd5fc4" y="185.450613"/>
     <use style="fill:#ff7f0e;stroke:#ff7f0e;" x="209.994837" xlink:href="#m158cfd5fc4" y="184.600093"/>
     <use style="fill:#ff7f0e;stroke:#ff7f0e;" x="212.859223" xlink:href="#m158cfd5fc4" y="184.645325"/>
     <use style="fill:#ff7f0e;stroke:#ff7f0e;" x="215.723608" xlink:href="#m158cfd5fc4" y="187.987349"/>
     <use style="fill:#ff7f0e;stroke:#ff7f0e;" x="218.587993" xlink:href="#m158cfd5fc4" y="190.249503"/>
     <use style="fill:#ff7f0e;stroke:#ff7f0e;" x="221.452379" xlink:href="#m158cfd5fc4" y="183.929022"/>
     <use style="fill:#ff7f0e;stroke:#ff7f0e;" x="224.316764" xlink:href="#m158cfd5fc4" y="187.409684"/>
     <use style="fill:#ff7f0e;stroke:#ff7f0e;" x="227.181149" xlink:href="#m158cfd5fc4" y="189.736246"/>
     <use style="fill:#ff7f0e;stroke:#ff7f0e;" x="230.045535" xlink:href="#m158cfd5fc4" y="183.777737"/>
     <use style="fill:#ff7f0e;stroke:#ff7f0e;" x="232.90992" xlink:href="#m158cfd5fc4" y="184.754486"/>
     <use style="fill:#ff7f0e;stroke:#ff7f0e;" x="235.774305" xlink:href="#m158cfd5fc4" y="182.051219"/>
     <use style="fill:#ff7f0e;stroke:#ff7f0e;" x="238.638691" xlink:href="#m158cfd5fc4" y="183.503868"/>
     <use style="fill:#ff7f0e;stroke:#ff7f0e;" x="241.503076" xlink:href="#m158cfd5fc4" y="183.138465"/>
     <use style="fill:#ff7f0e;stroke:#ff7f0e;" x="244.367461" xlink:href="#m158cfd5fc4" y="182.391294"/>
     <use style="fill:#ff7f0e;stroke:#ff7f0e;" x="247.231847" xlink:href="#m158cfd5fc4" y="181.771125"/>
     <use style="fill:#ff7f0e;stroke:#ff7f0e;" x="250.096232" xlink:href="#m158cfd5fc4" y="186.397572"/>
     <use style="fill:#ff7f0e;stroke:#ff7f0e;" x="252.960617" xlink:href="#m158cfd5fc4" y="181.45466"/>
     <use style="fill:#ff7f0e;stroke:#ff7f0e;" x="255.825003" xlink:href="#m158cfd5fc4" y="186.202696"/>
     <use style="fill:#ff7f0e;stroke:#ff7f0e;" x="258.689388" xlink:href="#m158cfd5fc4" y="179.223496"/>
     <use style="fill:#ff7f0e;stroke:#ff7f0e;" x="261.553773" xlink:href="#m158cfd5fc4" y="188.798869"/>
     <use style="fill:#ff7f0e;stroke:#ff7f0e;" x="264.418159" xlink:href="#m158cfd5fc4" y="179.745155"/>
     <use style="fill:#ff7f0e;stroke:#ff7f0e;" x="267.282544" xlink:href="#m158cfd5fc4" y="232.789808"/>
     <use style="fill:#ff7f0e;stroke:#ff7f0e;" x="270.146929" xlink:href="#m158cfd5fc4" y="180.2332"/>
     <use style="fill:#ff7f0e;stroke:#ff7f0e;" x="273.011315" xlink:href="#m158cfd5fc4" y="184.085493"/>
     <use style="fill:#ff7f0e;stroke:#ff7f0e;" x="275.8757" xlink:href="#m158cfd5fc4" y="181.493766"/>
     <use style="fill:#ff7f0e;stroke:#ff7f0e;" x="278.740085" xlink:href="#m158cfd5fc4" y="179.764872"/>
     <use style="fill:#ff7f0e;stroke:#ff7f0e;" x="281.604471" xlink:href="#m158cfd5fc4" y="185.27885"/>
     <use style="fill:#ff7f0e;stroke:#ff7f0e;" x="284.468856" xlink:href="#m158cfd5fc4" y="181.079758"/>
     <use style="fill:#ff7f0e;stroke:#ff7f0e;" x="287.333241" xlink:href="#m158cfd5fc4" y="180.19661"/>
     <use style="fill:#ff7f0e;stroke:#ff7f0e;" x="290.197627" xlink:href="#m158cfd5fc4" y="180.934394"/>
     <use style="fill:#ff7f0e;stroke:#ff7f0e;" x="293.062012" xlink:href="#m158cfd5fc4" y="181.099512"/>
     <use style="fill:#ff7f0e;stroke:#ff7f0e;" x="295.926397" xlink:href="#m158cfd5fc4" y="181.765569"/>
     <use style="fill:#ff7f0e;stroke:#ff7f0e;" x="298.790782" xlink:href="#m158cfd5fc4" y="180.955382"/>
     <use style="fill:#ff7f0e;stroke:#ff7f0e;" x="301.655168" xlink:href="#m158cfd5fc4" y="183.870569"/>
     <use style="fill:#ff7f0e;stroke:#ff7f0e;" x="310.248324" xlink:href="#m158cfd5fc4" y="184.852169"/>
     <use style="fill:#ff7f0e;stroke:#ff7f0e;" x="313.112709" xlink:href="#m158cfd5fc4" y="185.824363"/>
     <use style="fill:#ff7f0e;stroke:#ff7f0e;" x="315.977094" xlink:href="#m158cfd5fc4" y="186.568105"/>
     <use style="fill:#ff7f0e;stroke:#ff7f0e;" x="318.84148" xlink:href="#m158cfd5fc4" y="187.336254"/>
     <use style="fill:#ff7f0e;stroke:#ff7f0e;" x="321.705865" xlink:href="#m158cfd5fc4" y="190.877008"/>
     <use style="fill:#ff7f0e;stroke:#ff7f0e;" x="324.57025" xlink:href="#m158cfd5fc4" y="193.974444"/>
     <use style="fill:#ff7f0e;stroke:#ff7f0e;" x="327.434636" xlink:href="#m158cfd5fc4" y="196.668843"/>
     <use style="fill:#ff7f0e;stroke:#ff7f0e;" x="330.299021" xlink:href="#m158cfd5fc4" y="222.113078"/>
     <use style="fill:#ff7f0e;stroke:#ff7f0e;" x="333.163406" xlink:href="#m158cfd5fc4" y="203.004439"/>
     <use style="fill:#ff7f0e;stroke:#ff7f0e;" x="336.027792" xlink:href="#m158cfd5fc4" y="208.477627"/>
     <use style="fill:#ff7f0e;stroke:#ff7f0e;" x="338.892177" xlink:href="#m158cfd5fc4" y="213.584825"/>
     <use style="fill:#ff7f0e;stroke:#ff7f0e;" x="341.756562" xlink:href="#m158cfd5fc4" y="219.33941"/>
     <use style="fill:#ff7f0e;stroke:#ff7f0e;" x="344.620948" xlink:href="#m158cfd5fc4" y="225.673102"/>
     <use style="fill:#ff7f0e;stroke:#ff7f0e;" x="347.485333" xlink:href="#m158cfd5fc4" y="230.447388"/>
     <use style="fill:#ff7f0e;stroke:#ff7f0e;" x="350.349718" xlink:href="#m158cfd5fc4" y="238.082351"/>
     <use style="fill:#ff7f0e;stroke:#ff7f0e;" x="353.214104" xlink:href="#m158cfd5fc4" y="244.464598"/>
     <use style="fill:#ff7f0e;stroke:#ff7f0e;" x="356.078489" xlink:href="#m158cfd5fc4" y="252.179833"/>
     <use style="fill:#ff7f0e;stroke:#ff7f0e;" x="358.942874" xlink:href="#m158cfd5fc4" y="259.419029"/>
     <use style="fill:#ff7f0e;stroke:#ff7f0e;" x="361.80726" xlink:href="#m158cfd5fc4" y="266.956111"/>
     <use style="fill:#ff7f0e;stroke:#ff7f0e;" x="364.671645" xlink:href="#m158cfd5fc4" y="274.103174"/>
     <use style="fill:#ff7f0e;stroke:#ff7f0e;" x="370.400416" xlink:href="#m158cfd5fc4" y="292.450909"/>
    </g>
   </g>
   <g id="matplotlib.axis_1">
    <g id="xtick_1">
     <g id="line2d_1">
      <defs>
       <path d="M 0 0 
L 0 3.5 
" id="m8ed2348197" style="stroke:#000000;stroke-width:0.8;"/>
      </defs>
      <g>
       <use style="stroke:#000000;stroke-width:0.8;" x="75.368727" xlink:href="#m8ed2348197" y="305.28"/>
      </g>
     </g>
     <g id="text_1">
      <!-- 0 -->
      <defs>
       <path d="M 31.78125 66.40625 
Q 24.171875 66.40625 20.328125 58.90625 
Q 16.5 51.421875 16.5 36.375 
Q 16.5 21.390625 20.328125 13.890625 
Q 24.171875 6.390625 31.78125 6.390625 
Q 39.453125 6.390625 43.28125 13.890625 
Q 47.125 21.390625 47.125 36.375 
Q 47.125 51.421875 43.28125 58.90625 
Q 39.453125 66.40625 31.78125 66.40625 
z
M 31.78125 74.21875 
Q 44.046875 74.21875 50.515625 64.515625 
Q 56.984375 54.828125 56.984375 36.375 
Q 56.984375 17.96875 50.515625 8.265625 
Q 44.046875 -1.421875 31.78125 -1.421875 
Q 19.53125 -1.421875 13.0625 8.265625 
Q 6.59375 17.96875 6.59375 36.375 
Q 6.59375 54.828125 13.0625 64.515625 
Q 19.53125 74.21875 31.78125 74.21875 
z
" id="DejaVuSans-48"/>
      </defs>
      <g transform="translate(70.596852 323.677656)scale(0.15 -0.15)">
       <use xlink:href="#DejaVuSans-48"/>
      </g>
     </g>
    </g>
    <g id="xtick_2">
     <g id="line2d_2">
      <g>
       <use style="stroke:#000000;stroke-width:0.8;" x="163.58617" xlink:href="#m8ed2348197" y="305.28"/>
      </g>
     </g>
     <g id="text_2">
      <!-- 2 -->
      <defs>
       <path d="M 19.1875 8.296875 
L 53.609375 8.296875 
L 53.609375 0 
L 7.328125 0 
L 7.328125 8.296875 
Q 12.9375 14.109375 22.625 23.890625 
Q 32.328125 33.6875 34.8125 36.53125 
Q 39.546875 41.84375 41.421875 45.53125 
Q 43.3125 49.21875 43.3125 52.78125 
Q 43.3125 58.59375 39.234375 62.25 
Q 35.15625 65.921875 28.609375 65.921875 
Q 23.96875 65.921875 18.8125 64.3125 
Q 13.671875 62.703125 7.8125 59.421875 
L 7.8125 69.390625 
Q 13.765625 71.78125 18.9375 73 
Q 24.125 74.21875 28.421875 74.21875 
Q 39.75 74.21875 46.484375 68.546875 
Q 53.21875 62.890625 53.21875 53.421875 
Q 53.21875 48.921875 51.53125 44.890625 
Q 49.859375 40.875 45.40625 35.40625 
Q 44.1875 33.984375 37.640625 27.21875 
Q 31.109375 20.453125 19.1875 8.296875 
z
" id="DejaVuSans-50"/>
      </defs>
      <g transform="translate(158.814295 323.677656)scale(0.15 -0.15)">
       <use xlink:href="#DejaVuSans-50"/>
      </g>
     </g>
    </g>
    <g id="xtick_3">
     <g id="line2d_3">
      <g>
       <use style="stroke:#000000;stroke-width:0.8;" x="251.803613" xlink:href="#m8ed2348197" y="305.28"/>
      </g>
     </g>
     <g id="text_3">
      <!-- 4 -->
      <defs>
       <path d="M 37.796875 64.3125 
L 12.890625 25.390625 
L 37.796875 25.390625 
z
M 35.203125 72.90625 
L 47.609375 72.90625 
L 47.609375 25.390625 
L 58.015625 25.390625 
L 58.015625 17.1875 
L 47.609375 17.1875 
L 47.609375 0 
L 37.796875 0 
L 37.796875 17.1875 
L 4.890625 17.1875 
L 4.890625 26.703125 
z
" id="DejaVuSans-52"/>
      </defs>
      <g transform="translate(247.031738 323.677656)scale(0.15 -0.15)">
       <use xlink:href="#DejaVuSans-52"/>
      </g>
     </g>
    </g>
    <g id="xtick_4">
     <g id="line2d_4">
      <g>
       <use style="stroke:#000000;stroke-width:0.8;" x="340.021056" xlink:href="#m8ed2348197" y="305.28"/>
      </g>
     </g>
     <g id="text_4">
      <!-- 6 -->
      <defs>
       <path d="M 33.015625 40.375 
Q 26.375 40.375 22.484375 35.828125 
Q 18.609375 31.296875 18.609375 23.390625 
Q 18.609375 15.53125 22.484375 10.953125 
Q 26.375 6.390625 33.015625 6.390625 
Q 39.65625 6.390625 43.53125 10.953125 
Q 47.40625 15.53125 47.40625 23.390625 
Q 47.40625 31.296875 43.53125 35.828125 
Q 39.65625 40.375 33.015625 40.375 
z
M 52.59375 71.296875 
L 52.59375 62.3125 
Q 48.875 64.0625 45.09375 64.984375 
Q 41.3125 65.921875 37.59375 65.921875 
Q 27.828125 65.921875 22.671875 59.328125 
Q 17.53125 52.734375 16.796875 39.40625 
Q 19.671875 43.65625 24.015625 45.921875 
Q 28.375 48.1875 33.59375 48.1875 
Q 44.578125 48.1875 50.953125 41.515625 
Q 57.328125 34.859375 57.328125 23.390625 
Q 57.328125 12.15625 50.6875 5.359375 
Q 44.046875 -1.421875 33.015625 -1.421875 
Q 20.359375 -1.421875 13.671875 8.265625 
Q 6.984375 17.96875 6.984375 36.375 
Q 6.984375 53.65625 15.1875 63.9375 
Q 23.390625 74.21875 37.203125 74.21875 
Q 40.921875 74.21875 44.703125 73.484375 
Q 48.484375 72.75 52.59375 71.296875 
z
" id="DejaVuSans-54"/>
      </defs>
      <g transform="translate(335.249181 323.677656)scale(0.15 -0.15)">
       <use xlink:href="#DejaVuSans-54"/>
      </g>
     </g>
    </g>
    <g id="text_5">
     <!-- time [s] -->
     <defs>
      <path d="M 18.3125 70.21875 
L 18.3125 54.6875 
L 36.8125 54.6875 
L 36.8125 47.703125 
L 18.3125 47.703125 
L 18.3125 18.015625 
Q 18.3125 11.328125 20.140625 9.421875 
Q 21.96875 7.515625 27.59375 7.515625 
L 36.8125 7.515625 
L 36.8125 0 
L 27.59375 0 
Q 17.1875 0 13.234375 3.875 
Q 9.28125 7.765625 9.28125 18.015625 
L 9.28125 47.703125 
L 2.6875 47.703125 
L 2.6875 54.6875 
L 9.28125 54.6875 
L 9.28125 70.21875 
z
" id="DejaVuSans-116"/>
      <path d="M 9.421875 54.6875 
L 18.40625 54.6875 
L 18.40625 0 
L 9.421875 0 
z
M 9.421875 75.984375 
L 18.40625 75.984375 
L 18.40625 64.59375 
L 9.421875 64.59375 
z
" id="DejaVuSans-105"/>
      <path d="M 52 44.1875 
Q 55.375 50.25 60.0625 53.125 
Q 64.75 56 71.09375 56 
Q 79.640625 56 84.28125 50.015625 
Q 88.921875 44.046875 88.921875 33.015625 
L 88.921875 0 
L 79.890625 0 
L 79.890625 32.71875 
Q 79.890625 40.578125 77.09375 44.375 
Q 74.3125 48.1875 68.609375 48.1875 
Q 61.625 48.1875 57.5625 43.546875 
Q 53.515625 38.921875 53.515625 30.90625 
L 53.515625 0 
L 44.484375 0 
L 44.484375 32.71875 
Q 44.484375 40.625 41.703125 44.40625 
Q 38.921875 48.1875 33.109375 48.1875 
Q 26.21875 48.1875 22.15625 43.53125 
Q 18.109375 38.875 18.109375 30.90625 
L 18.109375 0 
L 9.078125 0 
L 9.078125 54.6875 
L 18.109375 54.6875 
L 18.109375 46.1875 
Q 21.1875 51.21875 25.484375 53.609375 
Q 29.78125 56 35.6875 56 
Q 41.65625 56 45.828125 52.96875 
Q 50 49.953125 52 44.1875 
z
" id="DejaVuSans-109"/>
      <path d="M 56.203125 29.59375 
L 56.203125 25.203125 
L 14.890625 25.203125 
Q 15.484375 15.921875 20.484375 11.0625 
Q 25.484375 6.203125 34.421875 6.203125 
Q 39.59375 6.203125 44.453125 7.46875 
Q 49.3125 8.734375 54.109375 11.28125 
L 54.109375 2.78125 
Q 49.265625 0.734375 44.1875 -0.34375 
Q 39.109375 -1.421875 33.890625 -1.421875 
Q 20.796875 -1.421875 13.15625 6.1875 
Q 5.515625 13.8125 5.515625 26.8125 
Q 5.515625 40.234375 12.765625 48.109375 
Q 20.015625 56 32.328125 56 
Q 43.359375 56 49.78125 48.890625 
Q 56.203125 41.796875 56.203125 29.59375 
z
M 47.21875 32.234375 
Q 47.125 39.59375 43.09375 43.984375 
Q 39.0625 48.390625 32.421875 48.390625 
Q 24.90625 48.390625 20.390625 44.140625 
Q 15.875 39.890625 15.1875 32.171875 
z
" id="DejaVuSans-101"/>
      <path id="DejaVuSans-32"/>
      <path d="M 8.59375 75.984375 
L 29.296875 75.984375 
L 29.296875 69 
L 17.578125 69 
L 17.578125 -6.203125 
L 29.296875 -6.203125 
L 29.296875 -13.1875 
L 8.59375 -13.1875 
z
" id="DejaVuSans-91"/>
      <path d="M 44.28125 53.078125 
L 44.28125 44.578125 
Q 40.484375 46.53125 36.375 47.5 
Q 32.28125 48.484375 27.875 48.484375 
Q 21.1875 48.484375 17.84375 46.4375 
Q 14.5 44.390625 14.5 40.28125 
Q 14.5 37.15625 16.890625 35.375 
Q 19.28125 33.59375 26.515625 31.984375 
L 29.59375 31.296875 
Q 39.15625 29.25 43.1875 25.515625 
Q 47.21875 21.78125 47.21875 15.09375 
Q 47.21875 7.46875 41.1875 3.015625 
Q 35.15625 -1.421875 24.609375 -1.421875 
Q 20.21875 -1.421875 15.453125 -0.5625 
Q 10.6875 0.296875 5.421875 2 
L 5.421875 11.28125 
Q 10.40625 8.6875 15.234375 7.390625 
Q 20.0625 6.109375 24.8125 6.109375 
Q 31.15625 6.109375 34.5625 8.28125 
Q 37.984375 10.453125 37.984375 14.40625 
Q 37.984375 18.0625 35.515625 20.015625 
Q 33.0625 21.96875 24.703125 23.78125 
L 21.578125 24.515625 
Q 13.234375 26.265625 9.515625 29.90625 
Q 5.8125 33.546875 5.8125 39.890625 
Q 5.8125 47.609375 11.28125 51.796875 
Q 16.75 56 26.8125 56 
Q 31.78125 56 36.171875 55.265625 
Q 40.578125 54.546875 44.28125 53.078125 
z
" id="DejaVuSans-115"/>
      <path d="M 30.421875 75.984375 
L 30.421875 -13.1875 
L 9.71875 -13.1875 
L 9.71875 -6.203125 
L 21.390625 -6.203125 
L 21.390625 69 
L 9.71875 69 
L 9.71875 75.984375 
z
" id="DejaVuSans-93"/>
     </defs>
     <g transform="translate(193.797462 342.194844)scale(0.15 -0.15)">
      <use xlink:href="#DejaVuSans-116"/>
      <use x="39.208984" xlink:href="#DejaVuSans-105"/>
      <use x="66.992188" xlink:href="#DejaVuSans-109"/>
      <use x="164.404297" xlink:href="#DejaVuSans-101"/>
      <use x="225.927734" xlink:href="#DejaVuSans-32"/>
      <use x="257.714844" xlink:href="#DejaVuSans-91"/>
      <use x="296.728516" xlink:href="#DejaVuSans-115"/>
      <use x="348.828125" xlink:href="#DejaVuSans-93"/>
     </g>
    </g>
   </g>
   <g id="matplotlib.axis_2">
    <g id="ytick_1">
     <g id="line2d_5">
      <defs>
       <path d="M 0 0 
L -3.5 0 
" id="m2be761d00e" style="stroke:#000000;stroke-width:0.8;"/>
      </defs>
      <g>
       <use style="stroke:#000000;stroke-width:0.8;" x="60.617143" xlink:href="#m2be761d00e" y="300.201326"/>
      </g>
     </g>
     <g id="text_6">
      <!-- −40 -->
      <defs>
       <path d="M 10.59375 35.5 
L 73.1875 35.5 
L 73.1875 27.203125 
L 10.59375 27.203125 
z
" id="DejaVuSans-8722"/>
      </defs>
      <g transform="translate(21.960112 305.900154)scale(0.15 -0.15)">
       <use xlink:href="#DejaVuSans-8722"/>
       <use x="83.789062" xlink:href="#DejaVuSans-52"/>
       <use x="147.412109" xlink:href="#DejaVuSans-48"/>
      </g>
     </g>
    </g>
    <g id="ytick_2">
     <g id="line2d_6">
      <g>
       <use style="stroke:#000000;stroke-width:0.8;" x="60.617143" xlink:href="#m2be761d00e" y="266.312577"/>
      </g>
     </g>
     <g id="text_7">
      <!-- −30 -->
      <defs>
       <path d="M 40.578125 39.3125 
Q 47.65625 37.796875 51.625 33 
Q 55.609375 28.21875 55.609375 21.1875 
Q 55.609375 10.40625 48.1875 4.484375 
Q 40.765625 -1.421875 27.09375 -1.421875 
Q 22.515625 -1.421875 17.65625 -0.515625 
Q 12.796875 0.390625 7.625 2.203125 
L 7.625 11.71875 
Q 11.71875 9.328125 16.59375 8.109375 
Q 21.484375 6.890625 26.8125 6.890625 
Q 36.078125 6.890625 40.9375 10.546875 
Q 45.796875 14.203125 45.796875 21.1875 
Q 45.796875 27.640625 41.28125 31.265625 
Q 36.765625 34.90625 28.71875 34.90625 
L 20.21875 34.90625 
L 20.21875 43.015625 
L 29.109375 43.015625 
Q 36.375 43.015625 40.234375 45.921875 
Q 44.09375 48.828125 44.09375 54.296875 
Q 44.09375 59.90625 40.109375 62.90625 
Q 36.140625 65.921875 28.71875 65.921875 
Q 24.65625 65.921875 20.015625 65.03125 
Q 15.375 64.15625 9.8125 62.3125 
L 9.8125 71.09375 
Q 15.4375 72.65625 20.34375 73.4375 
Q 25.25 74.21875 29.59375 74.21875 
Q 40.828125 74.21875 47.359375 69.109375 
Q 53.90625 64.015625 53.90625 55.328125 
Q 53.90625 49.265625 50.4375 45.09375 
Q 46.96875 40.921875 40.578125 39.3125 
z
" id="DejaVuSans-51"/>
      </defs>
      <g transform="translate(21.960112 272.011406)scale(0.15 -0.15)">
       <use xlink:href="#DejaVuSans-8722"/>
       <use x="83.789062" xlink:href="#DejaVuSans-51"/>
       <use x="147.412109" xlink:href="#DejaVuSans-48"/>
      </g>
     </g>
    </g>
    <g id="ytick_3">
     <g id="line2d_7">
      <g>
       <use style="stroke:#000000;stroke-width:0.8;" x="60.617143" xlink:href="#m2be761d00e" y="232.423829"/>
      </g>
     </g>
     <g id="text_8">
      <!-- −20 -->
      <g transform="translate(21.960112 238.122658)scale(0.15 -0.15)">
       <use xlink:href="#DejaVuSans-8722"/>
       <use x="83.789062" xlink:href="#DejaVuSans-50"/>
       <use x="147.412109" xlink:href="#DejaVuSans-48"/>
      </g>
     </g>
    </g>
    <g id="ytick_4">
     <g id="line2d_8">
      <g>
       <use style="stroke:#000000;stroke-width:0.8;" x="60.617143" xlink:href="#m2be761d00e" y="198.535081"/>
      </g>
     </g>
     <g id="text_9">
      <!-- −10 -->
      <defs>
       <path d="M 12.40625 8.296875 
L 28.515625 8.296875 
L 28.515625 63.921875 
L 10.984375 60.40625 
L 10.984375 69.390625 
L 28.421875 72.90625 
L 38.28125 72.90625 
L 38.28125 8.296875 
L 54.390625 8.296875 
L 54.390625 0 
L 12.40625 0 
z
" id="DejaVuSans-49"/>
      </defs>
      <g transform="translate(21.960112 204.23391)scale(0.15 -0.15)">
       <use xlink:href="#DejaVuSans-8722"/>
       <use x="83.789062" xlink:href="#DejaVuSans-49"/>
       <use x="147.412109" xlink:href="#DejaVuSans-48"/>
      </g>
     </g>
    </g>
    <g id="ytick_5">
     <g id="line2d_9">
      <g>
       <use style="stroke:#000000;stroke-width:0.8;" x="60.617143" xlink:href="#m2be761d00e" y="164.646333"/>
      </g>
     </g>
     <g id="text_10">
      <!-- 0 -->
      <g transform="translate(44.073393 170.345162)scale(0.15 -0.15)">
       <use xlink:href="#DejaVuSans-48"/>
      </g>
     </g>
    </g>
    <g id="ytick_6">
     <g id="line2d_10">
      <g>
       <use style="stroke:#000000;stroke-width:0.8;" x="60.617143" xlink:href="#m2be761d00e" y="130.757585"/>
      </g>
     </g>
     <g id="text_11">
      <!-- 10 -->
      <g transform="translate(34.529643 136.456414)scale(0.15 -0.15)">
       <use xlink:href="#DejaVuSans-49"/>
       <use x="63.623047" xlink:href="#DejaVuSans-48"/>
      </g>
     </g>
    </g>
    <g id="ytick_7">
     <g id="line2d_11">
      <g>
       <use style="stroke:#000000;stroke-width:0.8;" x="60.617143" xlink:href="#m2be761d00e" y="96.868837"/>
      </g>
     </g>
     <g id="text_12">
      <!-- 20 -->
      <g transform="translate(34.529643 102.567665)scale(0.15 -0.15)">
       <use xlink:href="#DejaVuSans-50"/>
       <use x="63.623047" xlink:href="#DejaVuSans-48"/>
      </g>
     </g>
    </g>
    <g id="ytick_8">
     <g id="line2d_12">
      <g>
       <use style="stroke:#000000;stroke-width:0.8;" x="60.617143" xlink:href="#m2be761d00e" y="62.980089"/>
      </g>
     </g>
     <g id="text_13">
      <!-- 30 -->
      <g transform="translate(34.529643 68.678917)scale(0.15 -0.15)">
       <use xlink:href="#DejaVuSans-51"/>
       <use x="63.623047" xlink:href="#DejaVuSans-48"/>
      </g>
     </g>
    </g>
    <g id="ytick_9">
     <g id="line2d_13">
      <g>
       <use style="stroke:#000000;stroke-width:0.8;" x="60.617143" xlink:href="#m2be761d00e" y="29.091341"/>
      </g>
     </g>
     <g id="text_14">
      <!-- 40 -->
      <g transform="translate(34.529643 34.790169)scale(0.15 -0.15)">
       <use xlink:href="#DejaVuSans-52"/>
       <use x="63.623047" xlink:href="#DejaVuSans-48"/>
      </g>
     </g>
    </g>
    <g id="text_15">
     <!-- angle [deg] -->
     <defs>
      <path d="M 34.28125 27.484375 
Q 23.390625 27.484375 19.1875 25 
Q 14.984375 22.515625 14.984375 16.5 
Q 14.984375 11.71875 18.140625 8.90625 
Q 21.296875 6.109375 26.703125 6.109375 
Q 34.1875 6.109375 38.703125 11.40625 
Q 43.21875 16.703125 43.21875 25.484375 
L 43.21875 27.484375 
z
M 52.203125 31.203125 
L 52.203125 0 
L 43.21875 0 
L 43.21875 8.296875 
Q 40.140625 3.328125 35.546875 0.953125 
Q 30.953125 -1.421875 24.3125 -1.421875 
Q 15.921875 -1.421875 10.953125 3.296875 
Q 6 8.015625 6 15.921875 
Q 6 25.140625 12.171875 29.828125 
Q 18.359375 34.515625 30.609375 34.515625 
L 43.21875 34.515625 
L 43.21875 35.40625 
Q 43.21875 41.609375 39.140625 45 
Q 35.0625 48.390625 27.6875 48.390625 
Q 23 48.390625 18.546875 47.265625 
Q 14.109375 46.140625 10.015625 43.890625 
L 10.015625 52.203125 
Q 14.9375 54.109375 19.578125 55.046875 
Q 24.21875 56 28.609375 56 
Q 40.484375 56 46.34375 49.84375 
Q 52.203125 43.703125 52.203125 31.203125 
z
" id="DejaVuSans-97"/>
      <path d="M 54.890625 33.015625 
L 54.890625 0 
L 45.90625 0 
L 45.90625 32.71875 
Q 45.90625 40.484375 42.875 44.328125 
Q 39.84375 48.1875 33.796875 48.1875 
Q 26.515625 48.1875 22.3125 43.546875 
Q 18.109375 38.921875 18.109375 30.90625 
L 18.109375 0 
L 9.078125 0 
L 9.078125 54.6875 
L 18.109375 54.6875 
L 18.109375 46.1875 
Q 21.34375 51.125 25.703125 53.5625 
Q 30.078125 56 35.796875 56 
Q 45.21875 56 50.046875 50.171875 
Q 54.890625 44.34375 54.890625 33.015625 
z
" id="DejaVuSans-110"/>
      <path d="M 45.40625 27.984375 
Q 45.40625 37.75 41.375 43.109375 
Q 37.359375 48.484375 30.078125 48.484375 
Q 22.859375 48.484375 18.828125 43.109375 
Q 14.796875 37.75 14.796875 27.984375 
Q 14.796875 18.265625 18.828125 12.890625 
Q 22.859375 7.515625 30.078125 7.515625 
Q 37.359375 7.515625 41.375 12.890625 
Q 45.40625 18.265625 45.40625 27.984375 
z
M 54.390625 6.78125 
Q 54.390625 -7.171875 48.1875 -13.984375 
Q 42 -20.796875 29.203125 -20.796875 
Q 24.46875 -20.796875 20.265625 -20.09375 
Q 16.0625 -19.390625 12.109375 -17.921875 
L 12.109375 -9.1875 
Q 16.0625 -11.328125 19.921875 -12.34375 
Q 23.78125 -13.375 27.78125 -13.375 
Q 36.625 -13.375 41.015625 -8.765625 
Q 45.40625 -4.15625 45.40625 5.171875 
L 45.40625 9.625 
Q 42.625 4.78125 38.28125 2.390625 
Q 33.9375 0 27.875 0 
Q 17.828125 0 11.671875 7.65625 
Q 5.515625 15.328125 5.515625 27.984375 
Q 5.515625 40.671875 11.671875 48.328125 
Q 17.828125 56 27.875 56 
Q 33.9375 56 38.28125 53.609375 
Q 42.625 51.21875 45.40625 46.390625 
L 45.40625 54.6875 
L 54.390625 54.6875 
z
" id="DejaVuSans-103"/>
      <path d="M 9.421875 75.984375 
L 18.40625 75.984375 
L 18.40625 0 
L 9.421875 0 
z
" id="DejaVuSans-108"/>
      <path d="M 45.40625 46.390625 
L 45.40625 75.984375 
L 54.390625 75.984375 
L 54.390625 0 
L 45.40625 0 
L 45.40625 8.203125 
Q 42.578125 3.328125 38.25 0.953125 
Q 33.9375 -1.421875 27.875 -1.421875 
Q 17.96875 -1.421875 11.734375 6.484375 
Q 5.515625 14.40625 5.515625 27.296875 
Q 5.515625 40.1875 11.734375 48.09375 
Q 17.96875 56 27.875 56 
Q 33.9375 56 38.25 53.625 
Q 42.578125 51.265625 45.40625 46.390625 
z
M 14.796875 27.296875 
Q 14.796875 17.390625 18.875 11.75 
Q 22.953125 6.109375 30.078125 6.109375 
Q 37.203125 6.109375 41.296875 11.75 
Q 45.40625 17.390625 45.40625 27.296875 
Q 45.40625 37.203125 41.296875 42.84375 
Q 37.203125 48.484375 30.078125 48.484375 
Q 22.953125 48.484375 18.875 42.84375 
Q 14.796875 37.203125 14.796875 27.296875 
z
" id="DejaVuSans-100"/>
     </defs>
     <g transform="translate(14.84058 207.342422)rotate(-90)scale(0.15 -0.15)">
      <use xlink:href="#DejaVuSans-97"/>
      <use x="61.279297" xlink:href="#DejaVuSans-110"/>
      <use x="124.658203" xlink:href="#DejaVuSans-103"/>
      <use x="188.134766" xlink:href="#DejaVuSans-108"/>
      <use x="215.917969" xlink:href="#DejaVuSans-101"/>
      <use x="277.441406" xlink:href="#DejaVuSans-32"/>
      <use x="309.228516" xlink:href="#DejaVuSans-91"/>
      <use x="348.242188" xlink:href="#DejaVuSans-100"/>
      <use x="411.71875" xlink:href="#DejaVuSans-101"/>
      <use x="473.242188" xlink:href="#DejaVuSans-103"/>
      <use x="536.71875" xlink:href="#DejaVuSans-93"/>
     </g>
    </g>
   </g>
   <g id="line2d_14">
    <path clip-path="url(#p70971a9409)" d="M 60.617143 35.869091 
L 392.68 35.869091 
" style="fill:none;stroke:#000000;stroke-linecap:square;stroke-width:1.5;"/>
   </g>
   <g id="line2d_15">
    <path clip-path="url(#p70971a9409)" d="M 60.617143 293.423576 
L 392.68 293.423576 
" style="fill:none;stroke:#000000;stroke-linecap:square;stroke-width:1.5;"/>
   </g>
   <g id="patch_3">
    <path d="M 60.617143 305.28 
L 60.617143 23.04 
" style="fill:none;stroke:#000000;stroke-linecap:square;stroke-linejoin:miter;stroke-width:0.8;"/>
   </g>
   <g id="patch_4">
    <path d="M 385.152 305.28 
L 385.152 23.04 
" style="fill:none;stroke:#000000;stroke-linecap:square;stroke-linejoin:miter;stroke-width:0.8;"/>
   </g>
   <g id="patch_5">
    <path d="M 60.617143 305.28 
L 385.152 305.28 
" style="fill:none;stroke:#000000;stroke-linecap:square;stroke-linejoin:miter;stroke-width:0.8;"/>
   </g>
   <g id="patch_6">
    <path d="M 60.617143 23.04 
L 385.152 23.04 
" style="fill:none;stroke:#000000;stroke-linecap:square;stroke-linejoin:miter;stroke-width:0.8;"/>
   </g>
   <g id="text_16">
    <!-- Bag 70 -->
    <defs>
     <path d="M 19.671875 34.8125 
L 19.671875 8.109375 
L 35.5 8.109375 
Q 43.453125 8.109375 47.28125 11.40625 
Q 51.125 14.703125 51.125 21.484375 
Q 51.125 28.328125 47.28125 31.5625 
Q 43.453125 34.8125 35.5 34.8125 
z
M 19.671875 64.796875 
L 19.671875 42.828125 
L 34.28125 42.828125 
Q 41.5 42.828125 45.03125 45.53125 
Q 48.578125 48.25 48.578125 53.8125 
Q 48.578125 59.328125 45.03125 62.0625 
Q 41.5 64.796875 34.28125 64.796875 
z
M 9.8125 72.90625 
L 35.015625 72.90625 
Q 46.296875 72.90625 52.390625 68.21875 
Q 58.5 63.53125 58.5 54.890625 
Q 58.5 48.1875 55.375 44.234375 
Q 52.25 40.28125 46.1875 39.3125 
Q 53.46875 37.75 57.5 32.78125 
Q 61.53125 27.828125 61.53125 20.40625 
Q 61.53125 10.640625 54.890625 5.3125 
Q 48.25 0 35.984375 0 
L 9.8125 0 
z
" id="DejaVuSans-66"/>
     <path d="M 8.203125 72.90625 
L 55.078125 72.90625 
L 55.078125 68.703125 
L 28.609375 0 
L 18.3125 0 
L 43.21875 64.59375 
L 8.203125 64.59375 
z
" id="DejaVuSans-55"/>
    </defs>
    <g transform="translate(191.168009 17.04)scale(0.18 -0.18)">
     <use xlink:href="#DejaVuSans-66"/>
     <use x="68.603516" xlink:href="#DejaVuSans-97"/>
     <use x="129.882812" xlink:href="#DejaVuSans-103"/>
     <use x="193.359375" xlink:href="#DejaVuSans-32"/>
     <use x="225.146484" xlink:href="#DejaVuSans-55"/>
     <use x="288.769531" xlink:href="#DejaVuSans-48"/>
    </g>
   </g>
   <g id="legend_1">
    <g id="patch_7">
     <path d="M 257.101219 79.074375 
L 374.652 79.074375 
Q 377.652 79.074375 377.652 76.074375 
L 377.652 33.54 
Q 377.652 30.54 374.652 30.54 
L 257.101219 30.54 
Q 254.101219 30.54 254.101219 33.54 
L 254.101219 76.074375 
Q 254.101219 79.074375 257.101219 79.074375 
z
" style="fill:#ffffff;opacity:0.8;stroke:#cccccc;stroke-linejoin:miter;"/>
    </g>
    <g id="PathCollection_3">
     <g>
      <use style="fill:#1f77b4;stroke:#1f77b4;" x="275.101219" xlink:href="#mcd3a546234" y="44.000156"/>
     </g>
    </g>
    <g id="text_17">
     <!-- Radar -->
     <defs>
      <path d="M 44.390625 34.1875 
Q 47.5625 33.109375 50.5625 29.59375 
Q 53.5625 26.078125 56.59375 19.921875 
L 66.609375 0 
L 56 0 
L 46.6875 18.703125 
Q 43.0625 26.03125 39.671875 28.421875 
Q 36.28125 30.8125 30.421875 30.8125 
L 19.671875 30.8125 
L 19.671875 0 
L 9.8125 0 
L 9.8125 72.90625 
L 32.078125 72.90625 
Q 44.578125 72.90625 50.734375 67.671875 
Q 56.890625 62.453125 56.890625 51.90625 
Q 56.890625 45.015625 53.6875 40.46875 
Q 50.484375 35.9375 44.390625 34.1875 
z
M 19.671875 64.796875 
L 19.671875 38.921875 
L 32.078125 38.921875 
Q 39.203125 38.921875 42.84375 42.21875 
Q 46.484375 45.515625 46.484375 51.90625 
Q 46.484375 58.296875 42.84375 61.546875 
Q 39.203125 64.796875 32.078125 64.796875 
z
" id="DejaVuSans-82"/>
      <path d="M 41.109375 46.296875 
Q 39.59375 47.171875 37.8125 47.578125 
Q 36.03125 48 33.890625 48 
Q 26.265625 48 22.1875 43.046875 
Q 18.109375 38.09375 18.109375 28.8125 
L 18.109375 0 
L 9.078125 0 
L 9.078125 54.6875 
L 18.109375 54.6875 
L 18.109375 46.1875 
Q 20.953125 51.171875 25.484375 53.578125 
Q 30.03125 56 36.53125 56 
Q 37.453125 56 38.578125 55.875 
Q 39.703125 55.765625 41.0625 55.515625 
z
" id="DejaVuSans-114"/>
     </defs>
     <g transform="translate(302.101219 47.937656)scale(0.15 -0.15)">
      <use xlink:href="#DejaVuSans-82"/>
      <use x="67.232422" xlink:href="#DejaVuSans-97"/>
      <use x="128.511719" xlink:href="#DejaVuSans-100"/>
      <use x="191.988281" xlink:href="#DejaVuSans-97"/>
      <use x="253.267578" xlink:href="#DejaVuSans-114"/>
     </g>
    </g>
    <g id="PathCollection_4">
     <g>
      <use style="fill:#ff7f0e;stroke:#ff7f0e;" x="275.101219" xlink:href="#m158cfd5fc4" y="66.017344"/>
     </g>
    </g>
    <g id="text_18">
     <!-- Optitrack -->
     <defs>
      <path d="M 39.40625 66.21875 
Q 28.65625 66.21875 22.328125 58.203125 
Q 16.015625 50.203125 16.015625 36.375 
Q 16.015625 22.609375 22.328125 14.59375 
Q 28.65625 6.59375 39.40625 6.59375 
Q 50.140625 6.59375 56.421875 14.59375 
Q 62.703125 22.609375 62.703125 36.375 
Q 62.703125 50.203125 56.421875 58.203125 
Q 50.140625 66.21875 39.40625 66.21875 
z
M 39.40625 74.21875 
Q 54.734375 74.21875 63.90625 63.9375 
Q 73.09375 53.65625 73.09375 36.375 
Q 73.09375 19.140625 63.90625 8.859375 
Q 54.734375 -1.421875 39.40625 -1.421875 
Q 24.03125 -1.421875 14.8125 8.828125 
Q 5.609375 19.09375 5.609375 36.375 
Q 5.609375 53.65625 14.8125 63.9375 
Q 24.03125 74.21875 39.40625 74.21875 
z
" id="DejaVuSans-79"/>
      <path d="M 18.109375 8.203125 
L 18.109375 -20.796875 
L 9.078125 -20.796875 
L 9.078125 54.6875 
L 18.109375 54.6875 
L 18.109375 46.390625 
Q 20.953125 51.265625 25.265625 53.625 
Q 29.59375 56 35.59375 56 
Q 45.5625 56 51.78125 48.09375 
Q 58.015625 40.1875 58.015625 27.296875 
Q 58.015625 14.40625 51.78125 6.484375 
Q 45.5625 -1.421875 35.59375 -1.421875 
Q 29.59375 -1.421875 25.265625 0.953125 
Q 20.953125 3.328125 18.109375 8.203125 
z
M 48.6875 27.296875 
Q 48.6875 37.203125 44.609375 42.84375 
Q 40.53125 48.484375 33.40625 48.484375 
Q 26.265625 48.484375 22.1875 42.84375 
Q 18.109375 37.203125 18.109375 27.296875 
Q 18.109375 17.390625 22.1875 11.75 
Q 26.265625 6.109375 33.40625 6.109375 
Q 40.53125 6.109375 44.609375 11.75 
Q 48.6875 17.390625 48.6875 27.296875 
z
" id="DejaVuSans-112"/>
      <path d="M 48.78125 52.59375 
L 48.78125 44.1875 
Q 44.96875 46.296875 41.140625 47.34375 
Q 37.3125 48.390625 33.40625 48.390625 
Q 24.65625 48.390625 19.8125 42.84375 
Q 14.984375 37.3125 14.984375 27.296875 
Q 14.984375 17.28125 19.8125 11.734375 
Q 24.65625 6.203125 33.40625 6.203125 
Q 37.3125 6.203125 41.140625 7.25 
Q 44.96875 8.296875 48.78125 10.40625 
L 48.78125 2.09375 
Q 45.015625 0.34375 40.984375 -0.53125 
Q 36.96875 -1.421875 32.421875 -1.421875 
Q 20.0625 -1.421875 12.78125 6.34375 
Q 5.515625 14.109375 5.515625 27.296875 
Q 5.515625 40.671875 12.859375 48.328125 
Q 20.21875 56 33.015625 56 
Q 37.15625 56 41.109375 55.140625 
Q 45.0625 54.296875 48.78125 52.59375 
z
" id="DejaVuSans-99"/>
      <path d="M 9.078125 75.984375 
L 18.109375 75.984375 
L 18.109375 31.109375 
L 44.921875 54.6875 
L 56.390625 54.6875 
L 27.390625 29.109375 
L 57.625 0 
L 45.90625 0 
L 18.109375 26.703125 
L 18.109375 0 
L 9.078125 0 
z
" id="DejaVuSans-107"/>
     </defs>
     <g transform="translate(302.101219 69.954844)scale(0.15 -0.15)">
      <use xlink:href="#DejaVuSans-79"/>
      <use x="78.710938" xlink:href="#DejaVuSans-112"/>
      <use x="142.1875" xlink:href="#DejaVuSans-116"/>
      <use x="181.396484" xlink:href="#DejaVuSans-105"/>
      <use x="209.179688" xlink:href="#DejaVuSans-116"/>
      <use x="248.388672" xlink:href="#DejaVuSans-114"/>
      <use x="289.501953" xlink:href="#DejaVuSans-97"/>
      <use x="350.78125" xlink:href="#DejaVuSans-99"/>
      <use x="405.761719" xlink:href="#DejaVuSans-107"/>
     </g>
    </g>
   </g>
  </g>
 </g>
 <defs>
  <clipPath id="p70971a9409">
   <rect height="282.24" width="324.534857" x="60.617143" y="23.04"/>
  </clipPath>
 </defs>
</svg>
