<?xml version="1.0" encoding="utf-8" standalone="no"?>
<!DOCTYPE svg PUBLIC "-//W3C//DTD SVG 1.1//EN"
  "http://www.w3.org/Graphics/SVG/1.1/DTD/svg11.dtd">
<!-- Created with matplotlib (https://matplotlib.org/) -->
<svg height="345.6pt" version="1.1" viewBox="0 0 389.52 345.6" width="389.52pt" xmlns="http://www.w3.org/2000/svg" xmlns:xlink="http://www.w3.org/1999/xlink">
 <defs>
  <style type="text/css">
*{stroke-linecap:butt;stroke-linejoin:round;}
  </style>
 </defs>
 <g id="figure_1">
  <g id="patch_1">
   <path d="M 0 345.6 
L 389.52 345.6 
L 389.52 0 
L 0 0 
z
" style="fill:#ffffff;"/>
  </g>
  <g id="axes_1">
   <g id="patch_2">
    <path d="M 47.298857 305.28 
L 383.955429 305.28 
L 383.955429 22.217143 
L 47.298857 22.217143 
z
" style="fill:#ffffff;"/>
   </g>
   <g id="PathCollection_1">
    <defs>
     <path d="M 0 3 
C 0.795609 3 1.55874 2.683901 2.12132 2.12132 
C 2.683901 1.55874 3 0.795609 3 0 
C 3 -0.795609 2.683901 -1.55874 2.12132 -2.12132 
C 1.55874 -2.683901 0.795609 -3 0 -3 
C -0.795609 -3 -1.55874 -2.683901 -2.12132 -2.12132 
C -2.683901 -1.55874 -3 -0.795609 -3 0 
C -3 0.795609 -2.683901 1.55874 -2.12132 2.12132 
C -1.55874 2.683901 -0.795609 3 0 3 
z
" id="mc30b8f5296" style="stroke:#1f77b4;"/>
    </defs>
    <g clip-path="url(#p4724230b00)">
     <use style="fill:#1f77b4;stroke:#1f77b4;" x="62.601429" xlink:href="#mc30b8f5296" y="271.803805"/>
     <use style="fill:#1f77b4;stroke:#1f77b4;" x="65.572802" xlink:href="#mc30b8f5296" y="272.067442"/>
     <use style="fill:#1f77b4;stroke:#1f77b4;" x="68.544175" xlink:href="#mc30b8f5296" y="271.869805"/>
     <use style="fill:#1f77b4;stroke:#1f77b4;" x="71.515548" xlink:href="#mc30b8f5296" y="272.456558"/>
     <use style="fill:#1f77b4;stroke:#1f77b4;" x="74.486921" xlink:href="#mc30b8f5296" y="273.240545"/>
     <use style="fill:#1f77b4;stroke:#1f77b4;" x="77.458294" xlink:href="#mc30b8f5296" y="273.510403"/>
     <use style="fill:#1f77b4;stroke:#1f77b4;" x="80.429667" xlink:href="#mc30b8f5296" y="272.388562"/>
     <use style="fill:#1f77b4;stroke:#1f77b4;" x="83.40104" xlink:href="#mc30b8f5296" y="274.268909"/>
     <use style="fill:#1f77b4;stroke:#1f77b4;" x="86.372413" xlink:href="#mc30b8f5296" y="272.90871"/>
     <use style="fill:#1f77b4;stroke:#1f77b4;" x="89.343786" xlink:href="#mc30b8f5296" y="273.025319"/>
     <use style="fill:#1f77b4;stroke:#1f77b4;" x="92.31516" xlink:href="#mc30b8f5296" y="272.191673"/>
     <use style="fill:#1f77b4;stroke:#1f77b4;" x="95.286533" xlink:href="#mc30b8f5296" y="272.027803"/>
     <use style="fill:#1f77b4;stroke:#1f77b4;" x="98.257906" xlink:href="#mc30b8f5296" y="271.84239"/>
     <use style="fill:#1f77b4;stroke:#1f77b4;" x="101.229279" xlink:href="#mc30b8f5296" y="271.865265"/>
     <use style="fill:#1f77b4;stroke:#1f77b4;" x="104.200652" xlink:href="#mc30b8f5296" y="270.660518"/>
     <use style="fill:#1f77b4;stroke:#1f77b4;" x="107.172025" xlink:href="#mc30b8f5296" y="271.46134"/>
     <use style="fill:#1f77b4;stroke:#1f77b4;" x="110.143398" xlink:href="#mc30b8f5296" y="270.765411"/>
     <use style="fill:#1f77b4;stroke:#1f77b4;" x="113.114771" xlink:href="#mc30b8f5296" y="269.822077"/>
     <use style="fill:#1f77b4;stroke:#1f77b4;" x="116.086144" xlink:href="#mc30b8f5296" y="270.72005"/>
     <use style="fill:#1f77b4;stroke:#1f77b4;" x="119.057517" xlink:href="#mc30b8f5296" y="270.157901"/>
     <use style="fill:#1f77b4;stroke:#1f77b4;" x="122.02889" xlink:href="#mc30b8f5296" y="269.484296"/>
     <use style="fill:#1f77b4;stroke:#1f77b4;" x="125.000264" xlink:href="#mc30b8f5296" y="269.086683"/>
     <use style="fill:#1f77b4;stroke:#1f77b4;" x="127.971637" xlink:href="#mc30b8f5296" y="268.488465"/>
     <use style="fill:#1f77b4;stroke:#1f77b4;" x="130.94301" xlink:href="#mc30b8f5296" y="269.807954"/>
     <use style="fill:#1f77b4;stroke:#1f77b4;" x="133.914383" xlink:href="#mc30b8f5296" y="268.572363"/>
     <use style="fill:#1f77b4;stroke:#1f77b4;" x="136.885756" xlink:href="#mc30b8f5296" y="268.432827"/>
     <use style="fill:#1f77b4;stroke:#1f77b4;" x="139.857129" xlink:href="#mc30b8f5296" y="270.038899"/>
     <use style="fill:#1f77b4;stroke:#1f77b4;" x="142.828502" xlink:href="#mc30b8f5296" y="267.690206"/>
     <use style="fill:#1f77b4;stroke:#1f77b4;" x="145.799875" xlink:href="#mc30b8f5296" y="268.326987"/>
     <use style="fill:#1f77b4;stroke:#1f77b4;" x="148.771248" xlink:href="#mc30b8f5296" y="269.406554"/>
     <use style="fill:#1f77b4;stroke:#1f77b4;" x="151.742621" xlink:href="#mc30b8f5296" y="266.638729"/>
     <use style="fill:#1f77b4;stroke:#1f77b4;" x="154.713994" xlink:href="#mc30b8f5296" y="268.833712"/>
     <use style="fill:#1f77b4;stroke:#1f77b4;" x="157.685368" xlink:href="#mc30b8f5296" y="267.629467"/>
     <use style="fill:#1f77b4;stroke:#1f77b4;" x="160.656741" xlink:href="#mc30b8f5296" y="36.834779"/>
     <use style="fill:#1f77b4;stroke:#1f77b4;" x="163.628114" xlink:href="#mc30b8f5296" y="266.793878"/>
     <use style="fill:#1f77b4;stroke:#1f77b4;" x="166.599487" xlink:href="#mc30b8f5296" y="266.514346"/>
     <use style="fill:#1f77b4;stroke:#1f77b4;" x="169.57086" xlink:href="#mc30b8f5296" y="266.57659"/>
     <use style="fill:#1f77b4;stroke:#1f77b4;" x="172.542233" xlink:href="#mc30b8f5296" y="267.353452"/>
     <use style="fill:#1f77b4;stroke:#1f77b4;" x="175.513606" xlink:href="#mc30b8f5296" y="264.791918"/>
     <use style="fill:#1f77b4;stroke:#1f77b4;" x="178.484979" xlink:href="#mc30b8f5296" y="267.398489"/>
     <use style="fill:#1f77b4;stroke:#1f77b4;" x="181.456352" xlink:href="#mc30b8f5296" y="265.601469"/>
     <use style="fill:#1f77b4;stroke:#1f77b4;" x="184.427725" xlink:href="#mc30b8f5296" y="265.968966"/>
     <use style="fill:#1f77b4;stroke:#1f77b4;" x="187.399098" xlink:href="#mc30b8f5296" y="264.935389"/>
     <use style="fill:#1f77b4;stroke:#1f77b4;" x="190.370472" xlink:href="#mc30b8f5296" y="264.787107"/>
     <use style="fill:#1f77b4;stroke:#1f77b4;" x="193.341845" xlink:href="#mc30b8f5296" y="265.235664"/>
     <use style="fill:#1f77b4;stroke:#1f77b4;" x="196.313218" xlink:href="#mc30b8f5296" y="264.621777"/>
     <use style="fill:#1f77b4;stroke:#1f77b4;" x="199.284591" xlink:href="#mc30b8f5296" y="265.099895"/>
     <use style="fill:#1f77b4;stroke:#1f77b4;" x="202.255964" xlink:href="#mc30b8f5296" y="265.647522"/>
     <use style="fill:#1f77b4;stroke:#1f77b4;" x="205.227337" xlink:href="#mc30b8f5296" y="263.116881"/>
     <use style="fill:#1f77b4;stroke:#1f77b4;" x="208.19871" xlink:href="#mc30b8f5296" y="264.305834"/>
     <use style="fill:#1f77b4;stroke:#1f77b4;" x="211.170083" xlink:href="#mc30b8f5296" y="263.652607"/>
     <use style="fill:#1f77b4;stroke:#1f77b4;" x="214.141456" xlink:href="#mc30b8f5296" y="263.971892"/>
     <use style="fill:#1f77b4;stroke:#1f77b4;" x="217.112829" xlink:href="#mc30b8f5296" y="263.130506"/>
     <use style="fill:#1f77b4;stroke:#1f77b4;" x="220.084202" xlink:href="#mc30b8f5296" y="264.954081"/>
     <use style="fill:#1f77b4;stroke:#1f77b4;" x="223.055576" xlink:href="#mc30b8f5296" y="262.243223"/>
     <use style="fill:#1f77b4;stroke:#1f77b4;" x="226.026949" xlink:href="#mc30b8f5296" y="264.455654"/>
     <use style="fill:#1f77b4;stroke:#1f77b4;" x="228.998322" xlink:href="#mc30b8f5296" y="261.741769"/>
     <use style="fill:#1f77b4;stroke:#1f77b4;" x="231.969695" xlink:href="#mc30b8f5296" y="261.134874"/>
     <use style="fill:#1f77b4;stroke:#1f77b4;" x="234.941068" xlink:href="#mc30b8f5296" y="263.902503"/>
     <use style="fill:#1f77b4;stroke:#1f77b4;" x="237.912441" xlink:href="#mc30b8f5296" y="262.247777"/>
     <use style="fill:#1f77b4;stroke:#1f77b4;" x="240.883814" xlink:href="#mc30b8f5296" y="261.707086"/>
     <use style="fill:#1f77b4;stroke:#1f77b4;" x="243.855187" xlink:href="#mc30b8f5296" y="264.216742"/>
     <use style="fill:#1f77b4;stroke:#1f77b4;" x="246.82656" xlink:href="#mc30b8f5296" y="262.478221"/>
     <use style="fill:#1f77b4;stroke:#1f77b4;" x="249.797933" xlink:href="#mc30b8f5296" y="263.286439"/>
     <use style="fill:#1f77b4;stroke:#1f77b4;" x="252.769307" xlink:href="#mc30b8f5296" y="263.121564"/>
     <use style="fill:#1f77b4;stroke:#1f77b4;" x="255.74068" xlink:href="#mc30b8f5296" y="263.576081"/>
     <use style="fill:#1f77b4;stroke:#1f77b4;" x="258.712053" xlink:href="#mc30b8f5296" y="262.048014"/>
     <use style="fill:#1f77b4;stroke:#1f77b4;" x="261.683426" xlink:href="#mc30b8f5296" y="260.607613"/>
     <use style="fill:#1f77b4;stroke:#1f77b4;" x="264.654799" xlink:href="#mc30b8f5296" y="263.642032"/>
     <use style="fill:#1f77b4;stroke:#1f77b4;" x="267.626172" xlink:href="#mc30b8f5296" y="262.316586"/>
     <use style="fill:#1f77b4;stroke:#1f77b4;" x="270.597545" xlink:href="#mc30b8f5296" y="262.065712"/>
     <use style="fill:#1f77b4;stroke:#1f77b4;" x="273.568918" xlink:href="#mc30b8f5296" y="263.170602"/>
     <use style="fill:#1f77b4;stroke:#1f77b4;" x="276.540291" xlink:href="#mc30b8f5296" y="260.357866"/>
     <use style="fill:#1f77b4;stroke:#1f77b4;" x="279.511664" xlink:href="#mc30b8f5296" y="262.135406"/>
     <use style="fill:#1f77b4;stroke:#1f77b4;" x="282.483037" xlink:href="#mc30b8f5296" y="263.047118"/>
     <use style="fill:#1f77b4;stroke:#1f77b4;" x="285.454411" xlink:href="#mc30b8f5296" y="263.036544"/>
     <use style="fill:#1f77b4;stroke:#1f77b4;" x="288.425784" xlink:href="#mc30b8f5296" y="259.618428"/>
     <use style="fill:#1f77b4;stroke:#1f77b4;" x="291.397157" xlink:href="#mc30b8f5296" y="261.630716"/>
     <use style="fill:#1f77b4;stroke:#1f77b4;" x="294.36853" xlink:href="#mc30b8f5296" y="263.013913"/>
     <use style="fill:#1f77b4;stroke:#1f77b4;" x="297.339903" xlink:href="#mc30b8f5296" y="262.231998"/>
     <use style="fill:#1f77b4;stroke:#1f77b4;" x="306.254022" xlink:href="#mc30b8f5296" y="261.379402"/>
     <use style="fill:#1f77b4;stroke:#1f77b4;" x="309.225395" xlink:href="#mc30b8f5296" y="262.14173"/>
     <use style="fill:#1f77b4;stroke:#1f77b4;" x="312.196768" xlink:href="#mc30b8f5296" y="261.670241"/>
     <use style="fill:#1f77b4;stroke:#1f77b4;" x="315.168141" xlink:href="#mc30b8f5296" y="261.743099"/>
     <use style="fill:#1f77b4;stroke:#1f77b4;" x="318.139515" xlink:href="#mc30b8f5296" y="263.277753"/>
     <use style="fill:#1f77b4;stroke:#1f77b4;" x="321.110888" xlink:href="#mc30b8f5296" y="262.118184"/>
     <use style="fill:#1f77b4;stroke:#1f77b4;" x="324.082261" xlink:href="#mc30b8f5296" y="265.081215"/>
     <use style="fill:#1f77b4;stroke:#1f77b4;" x="327.053634" xlink:href="#mc30b8f5296" y="260.34782"/>
     <use style="fill:#1f77b4;stroke:#1f77b4;" x="330.025007" xlink:href="#mc30b8f5296" y="40.865379"/>
     <use style="fill:#1f77b4;stroke:#1f77b4;" x="332.99638" xlink:href="#mc30b8f5296" y="262.365232"/>
     <use style="fill:#1f77b4;stroke:#1f77b4;" x="335.967753" xlink:href="#mc30b8f5296" y="266.909211"/>
     <use style="fill:#1f77b4;stroke:#1f77b4;" x="338.939126" xlink:href="#mc30b8f5296" y="263.950382"/>
     <use style="fill:#1f77b4;stroke:#1f77b4;" x="341.910499" xlink:href="#mc30b8f5296" y="261.333314"/>
     <use style="fill:#1f77b4;stroke:#1f77b4;" x="344.881872" xlink:href="#mc30b8f5296" y="264.332388"/>
     <use style="fill:#1f77b4;stroke:#1f77b4;" x="347.853245" xlink:href="#mc30b8f5296" y="35.083636"/>
     <use style="fill:#1f77b4;stroke:#1f77b4;" x="350.824619" xlink:href="#mc30b8f5296" y="269.219814"/>
     <use style="fill:#1f77b4;stroke:#1f77b4;" x="353.795992" xlink:href="#mc30b8f5296" y="268.698086"/>
     <use style="fill:#1f77b4;stroke:#1f77b4;" x="356.767365" xlink:href="#mc30b8f5296" y="267.210381"/>
     <use style="fill:#1f77b4;stroke:#1f77b4;" x="359.738738" xlink:href="#mc30b8f5296" y="269.38442"/>
     <use style="fill:#1f77b4;stroke:#1f77b4;" x="362.710111" xlink:href="#mc30b8f5296" y="267.352878"/>
     <use style="fill:#1f77b4;stroke:#1f77b4;" x="368.652857" xlink:href="#mc30b8f5296" y="271.139157"/>
    </g>
   </g>
   <g id="PathCollection_2">
    <defs>
     <path d="M 0 3 
C 0.795609 3 1.55874 2.683901 2.12132 2.12132 
C 2.683901 1.55874 3 0.795609 3 0 
C 3 -0.795609 2.683901 -1.55874 2.12132 -2.12132 
C 1.55874 -2.683901 0.795609 -3 0 -3 
C -0.795609 -3 -1.55874 -2.683901 -2.12132 -2.12132 
C -2.683901 -1.55874 -3 -0.795609 -3 0 
C -3 0.795609 -2.683901 1.55874 -2.12132 2.12132 
C -1.55874 2.683901 -0.795609 3 0 3 
z
" id="mb9260d4efa" style="stroke:#ff7f0e;"/>
    </defs>
    <g clip-path="url(#p4724230b00)">
     <use style="fill:#ff7f0e;stroke:#ff7f0e;" x="62.601429" xlink:href="#mb9260d4efa" y="272.706285"/>
     <use style="fill:#ff7f0e;stroke:#ff7f0e;" x="65.572802" xlink:href="#mb9260d4efa" y="272.782681"/>
     <use style="fill:#ff7f0e;stroke:#ff7f0e;" x="68.544175" xlink:href="#mb9260d4efa" y="273.16488"/>
     <use style="fill:#ff7f0e;stroke:#ff7f0e;" x="71.515548" xlink:href="#mb9260d4efa" y="273.274755"/>
     <use style="fill:#ff7f0e;stroke:#ff7f0e;" x="74.486921" xlink:href="#mb9260d4efa" y="272.257397"/>
     <use style="fill:#ff7f0e;stroke:#ff7f0e;" x="77.458294" xlink:href="#mb9260d4efa" y="272.161043"/>
     <use style="fill:#ff7f0e;stroke:#ff7f0e;" x="80.429667" xlink:href="#mb9260d4efa" y="272.751492"/>
     <use style="fill:#ff7f0e;stroke:#ff7f0e;" x="83.40104" xlink:href="#mb9260d4efa" y="272.663117"/>
     <use style="fill:#ff7f0e;stroke:#ff7f0e;" x="86.372413" xlink:href="#mb9260d4efa" y="272.536615"/>
     <use style="fill:#ff7f0e;stroke:#ff7f0e;" x="89.343786" xlink:href="#mb9260d4efa" y="271.371615"/>
     <use style="fill:#ff7f0e;stroke:#ff7f0e;" x="92.31516" xlink:href="#mb9260d4efa" y="271.977274"/>
     <use style="fill:#ff7f0e;stroke:#ff7f0e;" x="95.286533" xlink:href="#mb9260d4efa" y="271.393752"/>
     <use style="fill:#ff7f0e;stroke:#ff7f0e;" x="98.257906" xlink:href="#mb9260d4efa" y="273.002261"/>
     <use style="fill:#ff7f0e;stroke:#ff7f0e;" x="101.229279" xlink:href="#mb9260d4efa" y="269.509485"/>
     <use style="fill:#ff7f0e;stroke:#ff7f0e;" x="104.200652" xlink:href="#mb9260d4efa" y="270.107252"/>
     <use style="fill:#ff7f0e;stroke:#ff7f0e;" x="107.172025" xlink:href="#mb9260d4efa" y="269.067764"/>
     <use style="fill:#ff7f0e;stroke:#ff7f0e;" x="110.143398" xlink:href="#mb9260d4efa" y="270.950668"/>
     <use style="fill:#ff7f0e;stroke:#ff7f0e;" x="113.114771" xlink:href="#mb9260d4efa" y="268.058471"/>
     <use style="fill:#ff7f0e;stroke:#ff7f0e;" x="116.086144" xlink:href="#mb9260d4efa" y="268.936777"/>
     <use style="fill:#ff7f0e;stroke:#ff7f0e;" x="119.057517" xlink:href="#mb9260d4efa" y="268.725464"/>
     <use style="fill:#ff7f0e;stroke:#ff7f0e;" x="122.02889" xlink:href="#mb9260d4efa" y="273.057211"/>
     <use style="fill:#ff7f0e;stroke:#ff7f0e;" x="125.000264" xlink:href="#mb9260d4efa" y="267.022233"/>
     <use style="fill:#ff7f0e;stroke:#ff7f0e;" x="127.971637" xlink:href="#mb9260d4efa" y="263.538376"/>
     <use style="fill:#ff7f0e;stroke:#ff7f0e;" x="130.94301" xlink:href="#mb9260d4efa" y="267.888731"/>
     <use style="fill:#ff7f0e;stroke:#ff7f0e;" x="133.914383" xlink:href="#mb9260d4efa" y="267.578947"/>
     <use style="fill:#ff7f0e;stroke:#ff7f0e;" x="136.885756" xlink:href="#mb9260d4efa" y="268.009113"/>
     <use style="fill:#ff7f0e;stroke:#ff7f0e;" x="139.857129" xlink:href="#mb9260d4efa" y="265.282962"/>
     <use style="fill:#ff7f0e;stroke:#ff7f0e;" x="142.828502" xlink:href="#mb9260d4efa" y="267.401651"/>
     <use style="fill:#ff7f0e;stroke:#ff7f0e;" x="145.799875" xlink:href="#mb9260d4efa" y="267.496923"/>
     <use style="fill:#ff7f0e;stroke:#ff7f0e;" x="148.771248" xlink:href="#mb9260d4efa" y="265.628038"/>
     <use style="fill:#ff7f0e;stroke:#ff7f0e;" x="151.742621" xlink:href="#mb9260d4efa" y="266.394565"/>
     <use style="fill:#ff7f0e;stroke:#ff7f0e;" x="154.713994" xlink:href="#mb9260d4efa" y="271.083918"/>
     <use style="fill:#ff7f0e;stroke:#ff7f0e;" x="157.685368" xlink:href="#mb9260d4efa" y="259.381521"/>
     <use style="fill:#ff7f0e;stroke:#ff7f0e;" x="160.656741" xlink:href="#mb9260d4efa" y="266.75068"/>
     <use style="fill:#ff7f0e;stroke:#ff7f0e;" x="163.628114" xlink:href="#mb9260d4efa" y="264.55785"/>
     <use style="fill:#ff7f0e;stroke:#ff7f0e;" x="166.599487" xlink:href="#mb9260d4efa" y="265.320833"/>
     <use style="fill:#ff7f0e;stroke:#ff7f0e;" x="169.57086" xlink:href="#mb9260d4efa" y="265.893389"/>
     <use style="fill:#ff7f0e;stroke:#ff7f0e;" x="172.542233" xlink:href="#mb9260d4efa" y="261.937221"/>
     <use style="fill:#ff7f0e;stroke:#ff7f0e;" x="175.513606" xlink:href="#mb9260d4efa" y="264.324853"/>
     <use style="fill:#ff7f0e;stroke:#ff7f0e;" x="178.484979" xlink:href="#mb9260d4efa" y="264.500844"/>
     <use style="fill:#ff7f0e;stroke:#ff7f0e;" x="181.456352" xlink:href="#mb9260d4efa" y="263.312721"/>
     <use style="fill:#ff7f0e;stroke:#ff7f0e;" x="184.427725" xlink:href="#mb9260d4efa" y="264.389573"/>
     <use style="fill:#ff7f0e;stroke:#ff7f0e;" x="187.399098" xlink:href="#mb9260d4efa" y="260.224678"/>
     <use style="fill:#ff7f0e;stroke:#ff7f0e;" x="190.370472" xlink:href="#mb9260d4efa" y="264.643745"/>
     <use style="fill:#ff7f0e;stroke:#ff7f0e;" x="193.341845" xlink:href="#mb9260d4efa" y="261.615468"/>
     <use style="fill:#ff7f0e;stroke:#ff7f0e;" x="196.313218" xlink:href="#mb9260d4efa" y="261.964214"/>
     <use style="fill:#ff7f0e;stroke:#ff7f0e;" x="199.284591" xlink:href="#mb9260d4efa" y="262.685791"/>
     <use style="fill:#ff7f0e;stroke:#ff7f0e;" x="202.255964" xlink:href="#mb9260d4efa" y="259.173785"/>
     <use style="fill:#ff7f0e;stroke:#ff7f0e;" x="205.227337" xlink:href="#mb9260d4efa" y="262.725924"/>
     <use style="fill:#ff7f0e;stroke:#ff7f0e;" x="208.19871" xlink:href="#mb9260d4efa" y="262.049073"/>
     <use style="fill:#ff7f0e;stroke:#ff7f0e;" x="211.170083" xlink:href="#mb9260d4efa" y="260.280147"/>
     <use style="fill:#ff7f0e;stroke:#ff7f0e;" x="214.141456" xlink:href="#mb9260d4efa" y="263.029831"/>
     <use style="fill:#ff7f0e;stroke:#ff7f0e;" x="217.112829" xlink:href="#mb9260d4efa" y="260.726482"/>
     <use style="fill:#ff7f0e;stroke:#ff7f0e;" x="220.084202" xlink:href="#mb9260d4efa" y="257.204776"/>
     <use style="fill:#ff7f0e;stroke:#ff7f0e;" x="223.055576" xlink:href="#mb9260d4efa" y="262.164117"/>
     <use style="fill:#ff7f0e;stroke:#ff7f0e;" x="226.026949" xlink:href="#mb9260d4efa" y="260.072784"/>
     <use style="fill:#ff7f0e;stroke:#ff7f0e;" x="228.998322" xlink:href="#mb9260d4efa" y="260.754777"/>
     <use style="fill:#ff7f0e;stroke:#ff7f0e;" x="231.969695" xlink:href="#mb9260d4efa" y="260.690684"/>
     <use style="fill:#ff7f0e;stroke:#ff7f0e;" x="234.941068" xlink:href="#mb9260d4efa" y="257.896794"/>
     <use style="fill:#ff7f0e;stroke:#ff7f0e;" x="237.912441" xlink:href="#mb9260d4efa" y="260.48248"/>
     <use style="fill:#ff7f0e;stroke:#ff7f0e;" x="240.883814" xlink:href="#mb9260d4efa" y="261.519651"/>
     <use style="fill:#ff7f0e;stroke:#ff7f0e;" x="243.855187" xlink:href="#mb9260d4efa" y="259.436193"/>
     <use style="fill:#ff7f0e;stroke:#ff7f0e;" x="246.82656" xlink:href="#mb9260d4efa" y="260.767318"/>
     <use style="fill:#ff7f0e;stroke:#ff7f0e;" x="249.797933" xlink:href="#mb9260d4efa" y="259.544597"/>
     <use style="fill:#ff7f0e;stroke:#ff7f0e;" x="252.769307" xlink:href="#mb9260d4efa" y="258.452852"/>
     <use style="fill:#ff7f0e;stroke:#ff7f0e;" x="255.74068" xlink:href="#mb9260d4efa" y="258.453218"/>
     <use style="fill:#ff7f0e;stroke:#ff7f0e;" x="258.712053" xlink:href="#mb9260d4efa" y="266.402552"/>
     <use style="fill:#ff7f0e;stroke:#ff7f0e;" x="261.683426" xlink:href="#mb9260d4efa" y="253.022775"/>
     <use style="fill:#ff7f0e;stroke:#ff7f0e;" x="264.654799" xlink:href="#mb9260d4efa" y="260.044322"/>
     <use style="fill:#ff7f0e;stroke:#ff7f0e;" x="267.626172" xlink:href="#mb9260d4efa" y="255.742822"/>
     <use style="fill:#ff7f0e;stroke:#ff7f0e;" x="270.597545" xlink:href="#mb9260d4efa" y="259.38242"/>
     <use style="fill:#ff7f0e;stroke:#ff7f0e;" x="273.568918" xlink:href="#mb9260d4efa" y="260.245204"/>
     <use style="fill:#ff7f0e;stroke:#ff7f0e;" x="276.540291" xlink:href="#mb9260d4efa" y="258.109776"/>
     <use style="fill:#ff7f0e;stroke:#ff7f0e;" x="279.511664" xlink:href="#mb9260d4efa" y="259.233073"/>
     <use style="fill:#ff7f0e;stroke:#ff7f0e;" x="282.483037" xlink:href="#mb9260d4efa" y="259.028377"/>
     <use style="fill:#ff7f0e;stroke:#ff7f0e;" x="285.454411" xlink:href="#mb9260d4efa" y="255.553428"/>
     <use style="fill:#ff7f0e;stroke:#ff7f0e;" x="288.425784" xlink:href="#mb9260d4efa" y="258.759922"/>
     <use style="fill:#ff7f0e;stroke:#ff7f0e;" x="291.397157" xlink:href="#mb9260d4efa" y="258.659669"/>
     <use style="fill:#ff7f0e;stroke:#ff7f0e;" x="294.36853" xlink:href="#mb9260d4efa" y="258.775582"/>
     <use style="fill:#ff7f0e;stroke:#ff7f0e;" x="297.339903" xlink:href="#mb9260d4efa" y="292.413506"/>
     <use style="fill:#ff7f0e;stroke:#ff7f0e;" x="306.254022" xlink:href="#mb9260d4efa" y="258.718184"/>
     <use style="fill:#ff7f0e;stroke:#ff7f0e;" x="309.225395" xlink:href="#mb9260d4efa" y="258.675101"/>
     <use style="fill:#ff7f0e;stroke:#ff7f0e;" x="312.196768" xlink:href="#mb9260d4efa" y="258.921351"/>
     <use style="fill:#ff7f0e;stroke:#ff7f0e;" x="315.168141" xlink:href="#mb9260d4efa" y="258.976598"/>
     <use style="fill:#ff7f0e;stroke:#ff7f0e;" x="318.139515" xlink:href="#mb9260d4efa" y="256.519885"/>
     <use style="fill:#ff7f0e;stroke:#ff7f0e;" x="321.110888" xlink:href="#mb9260d4efa" y="259.555116"/>
     <use style="fill:#ff7f0e;stroke:#ff7f0e;" x="324.082261" xlink:href="#mb9260d4efa" y="264.84074"/>
     <use style="fill:#ff7f0e;stroke:#ff7f0e;" x="327.053634" xlink:href="#mb9260d4efa" y="255.41859"/>
     <use style="fill:#ff7f0e;stroke:#ff7f0e;" x="330.025007" xlink:href="#mb9260d4efa" y="260.831419"/>
     <use style="fill:#ff7f0e;stroke:#ff7f0e;" x="332.99638" xlink:href="#mb9260d4efa" y="258.53739"/>
     <use style="fill:#ff7f0e;stroke:#ff7f0e;" x="335.967753" xlink:href="#mb9260d4efa" y="261.828602"/>
     <use style="fill:#ff7f0e;stroke:#ff7f0e;" x="338.939126" xlink:href="#mb9260d4efa" y="262.18635"/>
     <use style="fill:#ff7f0e;stroke:#ff7f0e;" x="341.910499" xlink:href="#mb9260d4efa" y="263.063635"/>
     <use style="fill:#ff7f0e;stroke:#ff7f0e;" x="344.881872" xlink:href="#mb9260d4efa" y="263.688075"/>
     <use style="fill:#ff7f0e;stroke:#ff7f0e;" x="347.853245" xlink:href="#mb9260d4efa" y="262.477965"/>
     <use style="fill:#ff7f0e;stroke:#ff7f0e;" x="350.824619" xlink:href="#mb9260d4efa" y="265.366678"/>
     <use style="fill:#ff7f0e;stroke:#ff7f0e;" x="353.795992" xlink:href="#mb9260d4efa" y="265.94991"/>
     <use style="fill:#ff7f0e;stroke:#ff7f0e;" x="356.767365" xlink:href="#mb9260d4efa" y="266.54688"/>
     <use style="fill:#ff7f0e;stroke:#ff7f0e;" x="359.738738" xlink:href="#mb9260d4efa" y="267.282397"/>
     <use style="fill:#ff7f0e;stroke:#ff7f0e;" x="362.710111" xlink:href="#mb9260d4efa" y="270.427103"/>
     <use style="fill:#ff7f0e;stroke:#ff7f0e;" x="368.652857" xlink:href="#mb9260d4efa" y="269.184689"/>
    </g>
   </g>
   <g id="matplotlib.axis_1">
    <g id="xtick_1">
     <g id="line2d_1">
      <defs>
       <path d="M 0 0 
L 0 3.5 
" id="m5379302fdd" style="stroke:#000000;stroke-width:0.8;"/>
      </defs>
      <g>
       <use style="stroke:#000000;stroke-width:0.8;" x="62.601429" xlink:href="#m5379302fdd" y="305.28"/>
      </g>
     </g>
     <g id="text_1">
      <!-- 0 -->
      <defs>
       <path d="M 31.78125 66.40625 
Q 24.171875 66.40625 20.328125 58.90625 
Q 16.5 51.421875 16.5 36.375 
Q 16.5 21.390625 20.328125 13.890625 
Q 24.171875 6.390625 31.78125 6.390625 
Q 39.453125 6.390625 43.28125 13.890625 
Q 47.125 21.390625 47.125 36.375 
Q 47.125 51.421875 43.28125 58.90625 
Q 39.453125 66.40625 31.78125 66.40625 
z
M 31.78125 74.21875 
Q 44.046875 74.21875 50.515625 64.515625 
Q 56.984375 54.828125 56.984375 36.375 
Q 56.984375 17.96875 50.515625 8.265625 
Q 44.046875 -1.421875 31.78125 -1.421875 
Q 19.53125 -1.421875 13.0625 8.265625 
Q 6.59375 17.96875 6.59375 36.375 
Q 6.59375 54.828125 13.0625 64.515625 
Q 19.53125 74.21875 31.78125 74.21875 
z
" id="DejaVuSans-48"/>
      </defs>
      <g transform="translate(57.829554 323.677656)scale(0.15 -0.15)">
       <use xlink:href="#DejaVuSans-48"/>
      </g>
     </g>
    </g>
    <g id="xtick_2">
     <g id="line2d_2">
      <g>
       <use style="stroke:#000000;stroke-width:0.8;" x="154.113885" xlink:href="#m5379302fdd" y="305.28"/>
      </g>
     </g>
     <g id="text_2">
      <!-- 2 -->
      <defs>
       <path d="M 19.1875 8.296875 
L 53.609375 8.296875 
L 53.609375 0 
L 7.328125 0 
L 7.328125 8.296875 
Q 12.9375 14.109375 22.625 23.890625 
Q 32.328125 33.6875 34.8125 36.53125 
Q 39.546875 41.84375 41.421875 45.53125 
Q 43.3125 49.21875 43.3125 52.78125 
Q 43.3125 58.59375 39.234375 62.25 
Q 35.15625 65.921875 28.609375 65.921875 
Q 23.96875 65.921875 18.8125 64.3125 
Q 13.671875 62.703125 7.8125 59.421875 
L 7.8125 69.390625 
Q 13.765625 71.78125 18.9375 73 
Q 24.125 74.21875 28.421875 74.21875 
Q 39.75 74.21875 46.484375 68.546875 
Q 53.21875 62.890625 53.21875 53.421875 
Q 53.21875 48.921875 51.53125 44.890625 
Q 49.859375 40.875 45.40625 35.40625 
Q 44.1875 33.984375 37.640625 27.21875 
Q 31.109375 20.453125 19.1875 8.296875 
z
" id="DejaVuSans-50"/>
      </defs>
      <g transform="translate(149.34201 323.677656)scale(0.15 -0.15)">
       <use xlink:href="#DejaVuSans-50"/>
      </g>
     </g>
    </g>
    <g id="xtick_3">
     <g id="line2d_3">
      <g>
       <use style="stroke:#000000;stroke-width:0.8;" x="245.626341" xlink:href="#m5379302fdd" y="305.28"/>
      </g>
     </g>
     <g id="text_3">
      <!-- 4 -->
      <defs>
       <path d="M 37.796875 64.3125 
L 12.890625 25.390625 
L 37.796875 25.390625 
z
M 35.203125 72.90625 
L 47.609375 72.90625 
L 47.609375 25.390625 
L 58.015625 25.390625 
L 58.015625 17.1875 
L 47.609375 17.1875 
L 47.609375 0 
L 37.796875 0 
L 37.796875 17.1875 
L 4.890625 17.1875 
L 4.890625 26.703125 
z
" id="DejaVuSans-52"/>
      </defs>
      <g transform="translate(240.854466 323.677656)scale(0.15 -0.15)">
       <use xlink:href="#DejaVuSans-52"/>
      </g>
     </g>
    </g>
    <g id="xtick_4">
     <g id="line2d_4">
      <g>
       <use style="stroke:#000000;stroke-width:0.8;" x="337.138797" xlink:href="#m5379302fdd" y="305.28"/>
      </g>
     </g>
     <g id="text_4">
      <!-- 6 -->
      <defs>
       <path d="M 33.015625 40.375 
Q 26.375 40.375 22.484375 35.828125 
Q 18.609375 31.296875 18.609375 23.390625 
Q 18.609375 15.53125 22.484375 10.953125 
Q 26.375 6.390625 33.015625 6.390625 
Q 39.65625 6.390625 43.53125 10.953125 
Q 47.40625 15.53125 47.40625 23.390625 
Q 47.40625 31.296875 43.53125 35.828125 
Q 39.65625 40.375 33.015625 40.375 
z
M 52.59375 71.296875 
L 52.59375 62.3125 
Q 48.875 64.0625 45.09375 64.984375 
Q 41.3125 65.921875 37.59375 65.921875 
Q 27.828125 65.921875 22.671875 59.328125 
Q 17.53125 52.734375 16.796875 39.40625 
Q 19.671875 43.65625 24.015625 45.921875 
Q 28.375 48.1875 33.59375 48.1875 
Q 44.578125 48.1875 50.953125 41.515625 
Q 57.328125 34.859375 57.328125 23.390625 
Q 57.328125 12.15625 50.6875 5.359375 
Q 44.046875 -1.421875 33.015625 -1.421875 
Q 20.359375 -1.421875 13.671875 8.265625 
Q 6.984375 17.96875 6.984375 36.375 
Q 6.984375 53.65625 15.1875 63.9375 
Q 23.390625 74.21875 37.203125 74.21875 
Q 40.921875 74.21875 44.703125 73.484375 
Q 48.484375 72.75 52.59375 71.296875 
z
" id="DejaVuSans-54"/>
      </defs>
      <g transform="translate(332.366922 323.677656)scale(0.15 -0.15)">
       <use xlink:href="#DejaVuSans-54"/>
      </g>
     </g>
    </g>
    <g id="text_5">
     <!-- time [s] -->
     <defs>
      <path d="M 18.3125 70.21875 
L 18.3125 54.6875 
L 36.8125 54.6875 
L 36.8125 47.703125 
L 18.3125 47.703125 
L 18.3125 18.015625 
Q 18.3125 11.328125 20.140625 9.421875 
Q 21.96875 7.515625 27.59375 7.515625 
L 36.8125 7.515625 
L 36.8125 0 
L 27.59375 0 
Q 17.1875 0 13.234375 3.875 
Q 9.28125 7.765625 9.28125 18.015625 
L 9.28125 47.703125 
L 2.6875 47.703125 
L 2.6875 54.6875 
L 9.28125 54.6875 
L 9.28125 70.21875 
z
" id="DejaVuSans-116"/>
      <path d="M 9.421875 54.6875 
L 18.40625 54.6875 
L 18.40625 0 
L 9.421875 0 
z
M 9.421875 75.984375 
L 18.40625 75.984375 
L 18.40625 64.59375 
L 9.421875 64.59375 
z
" id="DejaVuSans-105"/>
      <path d="M 52 44.1875 
Q 55.375 50.25 60.0625 53.125 
Q 64.75 56 71.09375 56 
Q 79.640625 56 84.28125 50.015625 
Q 88.921875 44.046875 88.921875 33.015625 
L 88.921875 0 
L 79.890625 0 
L 79.890625 32.71875 
Q 79.890625 40.578125 77.09375 44.375 
Q 74.3125 48.1875 68.609375 48.1875 
Q 61.625 48.1875 57.5625 43.546875 
Q 53.515625 38.921875 53.515625 30.90625 
L 53.515625 0 
L 44.484375 0 
L 44.484375 32.71875 
Q 44.484375 40.625 41.703125 44.40625 
Q 38.921875 48.1875 33.109375 48.1875 
Q 26.21875 48.1875 22.15625 43.53125 
Q 18.109375 38.875 18.109375 30.90625 
L 18.109375 0 
L 9.078125 0 
L 9.078125 54.6875 
L 18.109375 54.6875 
L 18.109375 46.1875 
Q 21.1875 51.21875 25.484375 53.609375 
Q 29.78125 56 35.6875 56 
Q 41.65625 56 45.828125 52.96875 
Q 50 49.953125 52 44.1875 
z
" id="DejaVuSans-109"/>
      <path d="M 56.203125 29.59375 
L 56.203125 25.203125 
L 14.890625 25.203125 
Q 15.484375 15.921875 20.484375 11.0625 
Q 25.484375 6.203125 34.421875 6.203125 
Q 39.59375 6.203125 44.453125 7.46875 
Q 49.3125 8.734375 54.109375 11.28125 
L 54.109375 2.78125 
Q 49.265625 0.734375 44.1875 -0.34375 
Q 39.109375 -1.421875 33.890625 -1.421875 
Q 20.796875 -1.421875 13.15625 6.1875 
Q 5.515625 13.8125 5.515625 26.8125 
Q 5.515625 40.234375 12.765625 48.109375 
Q 20.015625 56 32.328125 56 
Q 43.359375 56 49.78125 48.890625 
Q 56.203125 41.796875 56.203125 29.59375 
z
M 47.21875 32.234375 
Q 47.125 39.59375 43.09375 43.984375 
Q 39.0625 48.390625 32.421875 48.390625 
Q 24.90625 48.390625 20.390625 44.140625 
Q 15.875 39.890625 15.1875 32.171875 
z
" id="DejaVuSans-101"/>
      <path id="DejaVuSans-32"/>
      <path d="M 8.59375 75.984375 
L 29.296875 75.984375 
L 29.296875 69 
L 17.578125 69 
L 17.578125 -6.203125 
L 29.296875 -6.203125 
L 29.296875 -13.1875 
L 8.59375 -13.1875 
z
" id="DejaVuSans-91"/>
      <path d="M 44.28125 53.078125 
L 44.28125 44.578125 
Q 40.484375 46.53125 36.375 47.5 
Q 32.28125 48.484375 27.875 48.484375 
Q 21.1875 48.484375 17.84375 46.4375 
Q 14.5 44.390625 14.5 40.28125 
Q 14.5 37.15625 16.890625 35.375 
Q 19.28125 33.59375 26.515625 31.984375 
L 29.59375 31.296875 
Q 39.15625 29.25 43.1875 25.515625 
Q 47.21875 21.78125 47.21875 15.09375 
Q 47.21875 7.46875 41.1875 3.015625 
Q 35.15625 -1.421875 24.609375 -1.421875 
Q 20.21875 -1.421875 15.453125 -0.5625 
Q 10.6875 0.296875 5.421875 2 
L 5.421875 11.28125 
Q 10.40625 8.6875 15.234375 7.390625 
Q 20.0625 6.109375 24.8125 6.109375 
Q 31.15625 6.109375 34.5625 8.28125 
Q 37.984375 10.453125 37.984375 14.40625 
Q 37.984375 18.0625 35.515625 20.015625 
Q 33.0625 21.96875 24.703125 23.78125 
L 21.578125 24.515625 
Q 13.234375 26.265625 9.515625 29.90625 
Q 5.8125 33.546875 5.8125 39.890625 
Q 5.8125 47.609375 11.28125 51.796875 
Q 16.75 56 26.8125 56 
Q 31.78125 56 36.171875 55.265625 
Q 40.578125 54.546875 44.28125 53.078125 
z
" id="DejaVuSans-115"/>
      <path d="M 30.421875 75.984375 
L 30.421875 -13.1875 
L 9.71875 -13.1875 
L 9.71875 -6.203125 
L 21.390625 -6.203125 
L 21.390625 69 
L 9.71875 69 
L 9.71875 75.984375 
z
" id="DejaVuSans-93"/>
     </defs>
     <g transform="translate(186.540033 342.194844)scale(0.15 -0.15)">
      <use xlink:href="#DejaVuSans-116"/>
      <use x="39.208984" xlink:href="#DejaVuSans-105"/>
      <use x="66.992188" xlink:href="#DejaVuSans-109"/>
      <use x="164.404297" xlink:href="#DejaVuSans-101"/>
      <use x="225.927734" xlink:href="#DejaVuSans-32"/>
      <use x="257.714844" xlink:href="#DejaVuSans-91"/>
      <use x="296.728516" xlink:href="#DejaVuSans-115"/>
      <use x="348.828125" xlink:href="#DejaVuSans-93"/>
     </g>
    </g>
   </g>
   <g id="matplotlib.axis_2">
    <g id="ytick_1">
     <g id="line2d_5">
      <defs>
       <path d="M 0 0 
L -3.5 0 
" id="m599e51fb58" style="stroke:#000000;stroke-width:0.8;"/>
      </defs>
      <g>
       <use style="stroke:#000000;stroke-width:0.8;" x="47.298857" xlink:href="#m599e51fb58" y="274.741802"/>
      </g>
     </g>
     <g id="text_6">
      <!-- 0 -->
      <g transform="translate(30.755107 280.44063)scale(0.15 -0.15)">
       <use xlink:href="#DejaVuSans-48"/>
      </g>
     </g>
    </g>
    <g id="ytick_2">
     <g id="line2d_6">
      <g>
       <use style="stroke:#000000;stroke-width:0.8;" x="47.298857" xlink:href="#m599e51fb58" y="224.845336"/>
      </g>
     </g>
     <g id="text_7">
      <!-- 2 -->
      <g transform="translate(30.755107 230.544164)scale(0.15 -0.15)">
       <use xlink:href="#DejaVuSans-50"/>
      </g>
     </g>
    </g>
    <g id="ytick_3">
     <g id="line2d_7">
      <g>
       <use style="stroke:#000000;stroke-width:0.8;" x="47.298857" xlink:href="#m599e51fb58" y="174.948869"/>
      </g>
     </g>
     <g id="text_8">
      <!-- 4 -->
      <g transform="translate(30.755107 180.647697)scale(0.15 -0.15)">
       <use xlink:href="#DejaVuSans-52"/>
      </g>
     </g>
    </g>
    <g id="ytick_4">
     <g id="line2d_8">
      <g>
       <use style="stroke:#000000;stroke-width:0.8;" x="47.298857" xlink:href="#m599e51fb58" y="125.052403"/>
      </g>
     </g>
     <g id="text_9">
      <!-- 6 -->
      <g transform="translate(30.755107 130.751231)scale(0.15 -0.15)">
       <use xlink:href="#DejaVuSans-54"/>
      </g>
     </g>
    </g>
    <g id="ytick_5">
     <g id="line2d_9">
      <g>
       <use style="stroke:#000000;stroke-width:0.8;" x="47.298857" xlink:href="#m599e51fb58" y="75.155936"/>
      </g>
     </g>
     <g id="text_10">
      <!-- 8 -->
      <defs>
       <path d="M 31.78125 34.625 
Q 24.75 34.625 20.71875 30.859375 
Q 16.703125 27.09375 16.703125 20.515625 
Q 16.703125 13.921875 20.71875 10.15625 
Q 24.75 6.390625 31.78125 6.390625 
Q 38.8125 6.390625 42.859375 10.171875 
Q 46.921875 13.96875 46.921875 20.515625 
Q 46.921875 27.09375 42.890625 30.859375 
Q 38.875 34.625 31.78125 34.625 
z
M 21.921875 38.8125 
Q 15.578125 40.375 12.03125 44.71875 
Q 8.5 49.078125 8.5 55.328125 
Q 8.5 64.0625 14.71875 69.140625 
Q 20.953125 74.21875 31.78125 74.21875 
Q 42.671875 74.21875 48.875 69.140625 
Q 55.078125 64.0625 55.078125 55.328125 
Q 55.078125 49.078125 51.53125 44.71875 
Q 48 40.375 41.703125 38.8125 
Q 48.828125 37.15625 52.796875 32.3125 
Q 56.78125 27.484375 56.78125 20.515625 
Q 56.78125 9.90625 50.3125 4.234375 
Q 43.84375 -1.421875 31.78125 -1.421875 
Q 19.734375 -1.421875 13.25 4.234375 
Q 6.78125 9.90625 6.78125 20.515625 
Q 6.78125 27.484375 10.78125 32.3125 
Q 14.796875 37.15625 21.921875 38.8125 
z
M 18.3125 54.390625 
Q 18.3125 48.734375 21.84375 45.5625 
Q 25.390625 42.390625 31.78125 42.390625 
Q 38.140625 42.390625 41.71875 45.5625 
Q 45.3125 48.734375 45.3125 54.390625 
Q 45.3125 60.0625 41.71875 63.234375 
Q 38.140625 66.40625 31.78125 66.40625 
Q 25.390625 66.40625 21.84375 63.234375 
Q 18.3125 60.0625 18.3125 54.390625 
z
" id="DejaVuSans-56"/>
      </defs>
      <g transform="translate(30.755107 80.854765)scale(0.15 -0.15)">
       <use xlink:href="#DejaVuSans-56"/>
      </g>
     </g>
    </g>
    <g id="ytick_6">
     <g id="line2d_10">
      <g>
       <use style="stroke:#000000;stroke-width:0.8;" x="47.298857" xlink:href="#m599e51fb58" y="25.25947"/>
      </g>
     </g>
     <g id="text_11">
      <!-- 10 -->
      <defs>
       <path d="M 12.40625 8.296875 
L 28.515625 8.296875 
L 28.515625 63.921875 
L 10.984375 60.40625 
L 10.984375 69.390625 
L 28.421875 72.90625 
L 38.28125 72.90625 
L 38.28125 8.296875 
L 54.390625 8.296875 
L 54.390625 0 
L 12.40625 0 
z
" id="DejaVuSans-49"/>
      </defs>
      <g transform="translate(21.211357 30.958298)scale(0.15 -0.15)">
       <use xlink:href="#DejaVuSans-49"/>
       <use x="63.623047" xlink:href="#DejaVuSans-48"/>
      </g>
     </g>
    </g>
    <g id="text_12">
     <!-- velocity [m/s] -->
     <defs>
      <path d="M 2.984375 54.6875 
L 12.5 54.6875 
L 29.59375 8.796875 
L 46.6875 54.6875 
L 56.203125 54.6875 
L 35.6875 0 
L 23.484375 0 
z
" id="DejaVuSans-118"/>
      <path d="M 9.421875 75.984375 
L 18.40625 75.984375 
L 18.40625 0 
L 9.421875 0 
z
" id="DejaVuSans-108"/>
      <path d="M 30.609375 48.390625 
Q 23.390625 48.390625 19.1875 42.75 
Q 14.984375 37.109375 14.984375 27.296875 
Q 14.984375 17.484375 19.15625 11.84375 
Q 23.34375 6.203125 30.609375 6.203125 
Q 37.796875 6.203125 41.984375 11.859375 
Q 46.1875 17.53125 46.1875 27.296875 
Q 46.1875 37.015625 41.984375 42.703125 
Q 37.796875 48.390625 30.609375 48.390625 
z
M 30.609375 56 
Q 42.328125 56 49.015625 48.375 
Q 55.71875 40.765625 55.71875 27.296875 
Q 55.71875 13.875 49.015625 6.21875 
Q 42.328125 -1.421875 30.609375 -1.421875 
Q 18.84375 -1.421875 12.171875 6.21875 
Q 5.515625 13.875 5.515625 27.296875 
Q 5.515625 40.765625 12.171875 48.375 
Q 18.84375 56 30.609375 56 
z
" id="DejaVuSans-111"/>
      <path d="M 48.78125 52.59375 
L 48.78125 44.1875 
Q 44.96875 46.296875 41.140625 47.34375 
Q 37.3125 48.390625 33.40625 48.390625 
Q 24.65625 48.390625 19.8125 42.84375 
Q 14.984375 37.3125 14.984375 27.296875 
Q 14.984375 17.28125 19.8125 11.734375 
Q 24.65625 6.203125 33.40625 6.203125 
Q 37.3125 6.203125 41.140625 7.25 
Q 44.96875 8.296875 48.78125 10.40625 
L 48.78125 2.09375 
Q 45.015625 0.34375 40.984375 -0.53125 
Q 36.96875 -1.421875 32.421875 -1.421875 
Q 20.0625 -1.421875 12.78125 6.34375 
Q 5.515625 14.109375 5.515625 27.296875 
Q 5.515625 40.671875 12.859375 48.328125 
Q 20.21875 56 33.015625 56 
Q 37.15625 56 41.109375 55.140625 
Q 45.0625 54.296875 48.78125 52.59375 
z
" id="DejaVuSans-99"/>
      <path d="M 32.171875 -5.078125 
Q 28.375 -14.84375 24.75 -17.8125 
Q 21.140625 -20.796875 15.09375 -20.796875 
L 7.90625 -20.796875 
L 7.90625 -13.28125 
L 13.1875 -13.28125 
Q 16.890625 -13.28125 18.9375 -11.515625 
Q 21 -9.765625 23.484375 -3.21875 
L 25.09375 0.875 
L 2.984375 54.6875 
L 12.5 54.6875 
L 29.59375 11.921875 
L 46.6875 54.6875 
L 56.203125 54.6875 
z
" id="DejaVuSans-121"/>
      <path d="M 25.390625 72.90625 
L 33.6875 72.90625 
L 8.296875 -9.28125 
L 0 -9.28125 
z
" id="DejaVuSans-47"/>
     </defs>
     <g transform="translate(14.091826 215.036853)rotate(-90)scale(0.15 -0.15)">
      <use xlink:href="#DejaVuSans-118"/>
      <use x="59.179688" xlink:href="#DejaVuSans-101"/>
      <use x="120.703125" xlink:href="#DejaVuSans-108"/>
      <use x="148.486328" xlink:href="#DejaVuSans-111"/>
      <use x="209.667969" xlink:href="#DejaVuSans-99"/>
      <use x="264.648438" xlink:href="#DejaVuSans-105"/>
      <use x="292.431641" xlink:href="#DejaVuSans-116"/>
      <use x="331.640625" xlink:href="#DejaVuSans-121"/>
      <use x="390.820312" xlink:href="#DejaVuSans-32"/>
      <use x="422.607422" xlink:href="#DejaVuSans-91"/>
      <use x="461.621094" xlink:href="#DejaVuSans-109"/>
      <use x="559.033203" xlink:href="#DejaVuSans-47"/>
      <use x="592.724609" xlink:href="#DejaVuSans-115"/>
      <use x="644.824219" xlink:href="#DejaVuSans-93"/>
     </g>
    </g>
   </g>
   <g id="patch_3">
    <path d="M 47.298857 305.28 
L 47.298857 22.217143 
" style="fill:none;stroke:#000000;stroke-linecap:square;stroke-linejoin:miter;stroke-width:0.8;"/>
   </g>
   <g id="patch_4">
    <path d="M 383.955429 305.28 
L 383.955429 22.217143 
" style="fill:none;stroke:#000000;stroke-linecap:square;stroke-linejoin:miter;stroke-width:0.8;"/>
   </g>
   <g id="patch_5">
    <path d="M 47.298857 305.28 
L 383.955429 305.28 
" style="fill:none;stroke:#000000;stroke-linecap:square;stroke-linejoin:miter;stroke-width:0.8;"/>
   </g>
   <g id="patch_6">
    <path d="M 47.298857 22.217143 
L 383.955429 22.217143 
" style="fill:none;stroke:#000000;stroke-linecap:square;stroke-linejoin:miter;stroke-width:0.8;"/>
   </g>
   <g id="text_13">
    <!-- Bag 70 -->
    <defs>
     <path d="M 19.671875 34.8125 
L 19.671875 8.109375 
L 35.5 8.109375 
Q 43.453125 8.109375 47.28125 11.40625 
Q 51.125 14.703125 51.125 21.484375 
Q 51.125 28.328125 47.28125 31.5625 
Q 43.453125 34.8125 35.5 34.8125 
z
M 19.671875 64.796875 
L 19.671875 42.828125 
L 34.28125 42.828125 
Q 41.5 42.828125 45.03125 45.53125 
Q 48.578125 48.25 48.578125 53.8125 
Q 48.578125 59.328125 45.03125 62.0625 
Q 41.5 64.796875 34.28125 64.796875 
z
M 9.8125 72.90625 
L 35.015625 72.90625 
Q 46.296875 72.90625 52.390625 68.21875 
Q 58.5 63.53125 58.5 54.890625 
Q 58.5 48.1875 55.375 44.234375 
Q 52.25 40.28125 46.1875 39.3125 
Q 53.46875 37.75 57.5 32.78125 
Q 61.53125 27.828125 61.53125 20.40625 
Q 61.53125 10.640625 54.890625 5.3125 
Q 48.25 0 35.984375 0 
L 9.8125 0 
z
" id="DejaVuSans-66"/>
     <path d="M 34.28125 27.484375 
Q 23.390625 27.484375 19.1875 25 
Q 14.984375 22.515625 14.984375 16.5 
Q 14.984375 11.71875 18.140625 8.90625 
Q 21.296875 6.109375 26.703125 6.109375 
Q 34.1875 6.109375 38.703125 11.40625 
Q 43.21875 16.703125 43.21875 25.484375 
L 43.21875 27.484375 
z
M 52.203125 31.203125 
L 52.203125 0 
L 43.21875 0 
L 43.21875 8.296875 
Q 40.140625 3.328125 35.546875 0.953125 
Q 30.953125 -1.421875 24.3125 -1.421875 
Q 15.921875 -1.421875 10.953125 3.296875 
Q 6 8.015625 6 15.921875 
Q 6 25.140625 12.171875 29.828125 
Q 18.359375 34.515625 30.609375 34.515625 
L 43.21875 34.515625 
L 43.21875 35.40625 
Q 43.21875 41.609375 39.140625 45 
Q 35.0625 48.390625 27.6875 48.390625 
Q 23 48.390625 18.546875 47.265625 
Q 14.109375 46.140625 10.015625 43.890625 
L 10.015625 52.203125 
Q 14.9375 54.109375 19.578125 55.046875 
Q 24.21875 56 28.609375 56 
Q 40.484375 56 46.34375 49.84375 
Q 52.203125 43.703125 52.203125 31.203125 
z
" id="DejaVuSans-97"/>
     <path d="M 45.40625 27.984375 
Q 45.40625 37.75 41.375 43.109375 
Q 37.359375 48.484375 30.078125 48.484375 
Q 22.859375 48.484375 18.828125 43.109375 
Q 14.796875 37.75 14.796875 27.984375 
Q 14.796875 18.265625 18.828125 12.890625 
Q 22.859375 7.515625 30.078125 7.515625 
Q 37.359375 7.515625 41.375 12.890625 
Q 45.40625 18.265625 45.40625 27.984375 
z
M 54.390625 6.78125 
Q 54.390625 -7.171875 48.1875 -13.984375 
Q 42 -20.796875 29.203125 -20.796875 
Q 24.46875 -20.796875 20.265625 -20.09375 
Q 16.0625 -19.390625 12.109375 -17.921875 
L 12.109375 -9.1875 
Q 16.0625 -11.328125 19.921875 -12.34375 
Q 23.78125 -13.375 27.78125 -13.375 
Q 36.625 -13.375 41.015625 -8.765625 
Q 45.40625 -4.15625 45.40625 5.171875 
L 45.40625 9.625 
Q 42.625 4.78125 38.28125 2.390625 
Q 33.9375 0 27.875 0 
Q 17.828125 0 11.671875 7.65625 
Q 5.515625 15.328125 5.515625 27.984375 
Q 5.515625 40.671875 11.671875 48.328125 
Q 17.828125 56 27.875 56 
Q 33.9375 56 38.28125 53.609375 
Q 42.625 51.21875 45.40625 46.390625 
L 45.40625 54.6875 
L 54.390625 54.6875 
z
" id="DejaVuSans-103"/>
     <path d="M 8.203125 72.90625 
L 55.078125 72.90625 
L 55.078125 68.703125 
L 28.609375 0 
L 18.3125 0 
L 43.21875 64.59375 
L 8.203125 64.59375 
z
" id="DejaVuSans-55"/>
    </defs>
    <g transform="translate(183.91058 16.217143)scale(0.18 -0.18)">
     <use xlink:href="#DejaVuSans-66"/>
     <use x="68.603516" xlink:href="#DejaVuSans-97"/>
     <use x="129.882812" xlink:href="#DejaVuSans-103"/>
     <use x="193.359375" xlink:href="#DejaVuSans-32"/>
     <use x="225.146484" xlink:href="#DejaVuSans-55"/>
     <use x="288.769531" xlink:href="#DejaVuSans-48"/>
    </g>
   </g>
   <g id="legend_1">
    <g id="patch_7">
     <path d="M 255.904647 188.015759 
L 373.455429 188.015759 
Q 376.455429 188.015759 376.455429 185.015759 
L 376.455429 142.481384 
Q 376.455429 139.481384 373.455429 139.481384 
L 255.904647 139.481384 
Q 252.904647 139.481384 252.904647 142.481384 
L 252.904647 185.015759 
Q 252.904647 188.015759 255.904647 188.015759 
z
" style="fill:#ffffff;opacity:0.8;stroke:#cccccc;stroke-linejoin:miter;"/>
    </g>
    <g id="PathCollection_3">
     <g>
      <use style="fill:#1f77b4;stroke:#1f77b4;" x="273.904647" xlink:href="#mc30b8f5296" y="152.94154"/>
     </g>
    </g>
    <g id="text_14">
     <!-- Radar -->
     <defs>
      <path d="M 44.390625 34.1875 
Q 47.5625 33.109375 50.5625 29.59375 
Q 53.5625 26.078125 56.59375 19.921875 
L 66.609375 0 
L 56 0 
L 46.6875 18.703125 
Q 43.0625 26.03125 39.671875 28.421875 
Q 36.28125 30.8125 30.421875 30.8125 
L 19.671875 30.8125 
L 19.671875 0 
L 9.8125 0 
L 9.8125 72.90625 
L 32.078125 72.90625 
Q 44.578125 72.90625 50.734375 67.671875 
Q 56.890625 62.453125 56.890625 51.90625 
Q 56.890625 45.015625 53.6875 40.46875 
Q 50.484375 35.9375 44.390625 34.1875 
z
M 19.671875 64.796875 
L 19.671875 38.921875 
L 32.078125 38.921875 
Q 39.203125 38.921875 42.84375 42.21875 
Q 46.484375 45.515625 46.484375 51.90625 
Q 46.484375 58.296875 42.84375 61.546875 
Q 39.203125 64.796875 32.078125 64.796875 
z
" id="DejaVuSans-82"/>
      <path d="M 45.40625 46.390625 
L 45.40625 75.984375 
L 54.390625 75.984375 
L 54.390625 0 
L 45.40625 0 
L 45.40625 8.203125 
Q 42.578125 3.328125 38.25 0.953125 
Q 33.9375 -1.421875 27.875 -1.421875 
Q 17.96875 -1.421875 11.734375 6.484375 
Q 5.515625 14.40625 5.515625 27.296875 
Q 5.515625 40.1875 11.734375 48.09375 
Q 17.96875 56 27.875 56 
Q 33.9375 56 38.25 53.625 
Q 42.578125 51.265625 45.40625 46.390625 
z
M 14.796875 27.296875 
Q 14.796875 17.390625 18.875 11.75 
Q 22.953125 6.109375 30.078125 6.109375 
Q 37.203125 6.109375 41.296875 11.75 
Q 45.40625 17.390625 45.40625 27.296875 
Q 45.40625 37.203125 41.296875 42.84375 
Q 37.203125 48.484375 30.078125 48.484375 
Q 22.953125 48.484375 18.875 42.84375 
Q 14.796875 37.203125 14.796875 27.296875 
z
" id="DejaVuSans-100"/>
      <path d="M 41.109375 46.296875 
Q 39.59375 47.171875 37.8125 47.578125 
Q 36.03125 48 33.890625 48 
Q 26.265625 48 22.1875 43.046875 
Q 18.109375 38.09375 18.109375 28.8125 
L 18.109375 0 
L 9.078125 0 
L 9.078125 54.6875 
L 18.109375 54.6875 
L 18.109375 46.1875 
Q 20.953125 51.171875 25.484375 53.578125 
Q 30.03125 56 36.53125 56 
Q 37.453125 56 38.578125 55.875 
Q 39.703125 55.765625 41.0625 55.515625 
z
" id="DejaVuSans-114"/>
     </defs>
     <g transform="translate(300.904647 156.87904)scale(0.15 -0.15)">
      <use xlink:href="#DejaVuSans-82"/>
      <use x="67.232422" xlink:href="#DejaVuSans-97"/>
      <use x="128.511719" xlink:href="#DejaVuSans-100"/>
      <use x="191.988281" xlink:href="#DejaVuSans-97"/>
      <use x="253.267578" xlink:href="#DejaVuSans-114"/>
     </g>
    </g>
    <g id="PathCollection_4">
     <g>
      <use style="fill:#ff7f0e;stroke:#ff7f0e;" x="273.904647" xlink:href="#mb9260d4efa" y="174.958728"/>
     </g>
    </g>
    <g id="text_15">
     <!-- Optitrack -->
     <defs>
      <path d="M 39.40625 66.21875 
Q 28.65625 66.21875 22.328125 58.203125 
Q 16.015625 50.203125 16.015625 36.375 
Q 16.015625 22.609375 22.328125 14.59375 
Q 28.65625 6.59375 39.40625 6.59375 
Q 50.140625 6.59375 56.421875 14.59375 
Q 62.703125 22.609375 62.703125 36.375 
Q 62.703125 50.203125 56.421875 58.203125 
Q 50.140625 66.21875 39.40625 66.21875 
z
M 39.40625 74.21875 
Q 54.734375 74.21875 63.90625 63.9375 
Q 73.09375 53.65625 73.09375 36.375 
Q 73.09375 19.140625 63.90625 8.859375 
Q 54.734375 -1.421875 39.40625 -1.421875 
Q 24.03125 -1.421875 14.8125 8.828125 
Q 5.609375 19.09375 5.609375 36.375 
Q 5.609375 53.65625 14.8125 63.9375 
Q 24.03125 74.21875 39.40625 74.21875 
z
" id="DejaVuSans-79"/>
      <path d="M 18.109375 8.203125 
L 18.109375 -20.796875 
L 9.078125 -20.796875 
L 9.078125 54.6875 
L 18.109375 54.6875 
L 18.109375 46.390625 
Q 20.953125 51.265625 25.265625 53.625 
Q 29.59375 56 35.59375 56 
Q 45.5625 56 51.78125 48.09375 
Q 58.015625 40.1875 58.015625 27.296875 
Q 58.015625 14.40625 51.78125 6.484375 
Q 45.5625 -1.421875 35.59375 -1.421875 
Q 29.59375 -1.421875 25.265625 0.953125 
Q 20.953125 3.328125 18.109375 8.203125 
z
M 48.6875 27.296875 
Q 48.6875 37.203125 44.609375 42.84375 
Q 40.53125 48.484375 33.40625 48.484375 
Q 26.265625 48.484375 22.1875 42.84375 
Q 18.109375 37.203125 18.109375 27.296875 
Q 18.109375 17.390625 22.1875 11.75 
Q 26.265625 6.109375 33.40625 6.109375 
Q 40.53125 6.109375 44.609375 11.75 
Q 48.6875 17.390625 48.6875 27.296875 
z
" id="DejaVuSans-112"/>
      <path d="M 9.078125 75.984375 
L 18.109375 75.984375 
L 18.109375 31.109375 
L 44.921875 54.6875 
L 56.390625 54.6875 
L 27.390625 29.109375 
L 57.625 0 
L 45.90625 0 
L 18.109375 26.703125 
L 18.109375 0 
L 9.078125 0 
z
" id="DejaVuSans-107"/>
     </defs>
     <g transform="translate(300.904647 178.896228)scale(0.15 -0.15)">
      <use xlink:href="#DejaVuSans-79"/>
      <use x="78.710938" xlink:href="#DejaVuSans-112"/>
      <use x="142.1875" xlink:href="#DejaVuSans-116"/>
      <use x="181.396484" xlink:href="#DejaVuSans-105"/>
      <use x="209.179688" xlink:href="#DejaVuSans-116"/>
      <use x="248.388672" xlink:href="#DejaVuSans-114"/>
      <use x="289.501953" xlink:href="#DejaVuSans-97"/>
      <use x="350.78125" xlink:href="#DejaVuSans-99"/>
      <use x="405.761719" xlink:href="#DejaVuSans-107"/>
     </g>
    </g>
   </g>
  </g>
 </g>
 <defs>
  <clipPath id="p4724230b00">
   <rect height="283.062857" width="336.656571" x="47.298857" y="22.217143"/>
  </clipPath>
 </defs>
</svg>
