<?xml version="1.0" encoding="utf-8" standalone="no"?>
<!DOCTYPE svg PUBLIC "-//W3C//DTD SVG 1.1//EN"
  "http://www.w3.org/Graphics/SVG/1.1/DTD/svg11.dtd">
<!-- Created with matplotlib (https://matplotlib.org/) -->
<svg height="345.6pt" version="1.1" viewBox="0 0 416.88 345.6" width="416.88pt" xmlns="http://www.w3.org/2000/svg" xmlns:xlink="http://www.w3.org/1999/xlink">
 <defs>
  <style type="text/css">
*{stroke-linecap:butt;stroke-linejoin:round;}
  </style>
 </defs>
 <g id="figure_1">
  <g id="patch_1">
   <path d="M 0 345.6 
L 416.88 345.6 
L 416.88 0 
L 0 0 
z
" style="fill:#ffffff;"/>
  </g>
  <g id="axes_1">
   <g id="patch_2">
    <path d="M 46.650857 304.457143 
L 410.924571 304.457143 
L 410.924571 22.217143 
L 46.650857 22.217143 
z
" style="fill:#ffffff;"/>
   </g>
   <g id="PathCollection_1">
    <defs>
     <path d="M 0 3 
C 0.795609 3 1.55874 2.683901 2.12132 2.12132 
C 2.683901 1.55874 3 0.795609 3 0 
C 3 -0.795609 2.683901 -1.55874 2.12132 -2.12132 
C 1.55874 -2.683901 0.795609 -3 0 -3 
C -0.795609 -3 -1.55874 -2.683901 -2.12132 -2.12132 
C -2.683901 -1.55874 -3 -0.795609 -3 0 
C -3 0.795609 -2.683901 1.55874 -2.12132 2.12132 
C -1.55874 2.683901 -0.795609 3 0 3 
z
" id="m1dccde3124" style="stroke:#1f77b4;"/>
    </defs>
    <g clip-path="url(#pa5f338e455)">
     <use style="fill:#1f77b4;stroke:#1f77b4;" x="63.208753" xlink:href="#m1dccde3124" y="242.664172"/>
     <use style="fill:#1f77b4;stroke:#1f77b4;" x="66.553783" xlink:href="#m1dccde3124" y="222.111871"/>
     <use style="fill:#1f77b4;stroke:#1f77b4;" x="69.898812" xlink:href="#m1dccde3124" y="262.903872"/>
     <use style="fill:#1f77b4;stroke:#1f77b4;" x="73.243842" xlink:href="#m1dccde3124" y="281.644345"/>
     <use style="fill:#1f77b4;stroke:#1f77b4;" x="76.588871" xlink:href="#m1dccde3124" y="215.105481"/>
     <use style="fill:#1f77b4;stroke:#1f77b4;" x="79.933901" xlink:href="#m1dccde3124" y="249.594164"/>
     <use style="fill:#1f77b4;stroke:#1f77b4;" x="83.27893" xlink:href="#m1dccde3124" y="187.202559"/>
     <use style="fill:#1f77b4;stroke:#1f77b4;" x="86.62396" xlink:href="#m1dccde3124" y="205.247469"/>
     <use style="fill:#1f77b4;stroke:#1f77b4;" x="89.968989" xlink:href="#m1dccde3124" y="223.489203"/>
     <use style="fill:#1f77b4;stroke:#1f77b4;" x="93.314019" xlink:href="#m1dccde3124" y="273.911578"/>
     <use style="fill:#1f77b4;stroke:#1f77b4;" x="96.659048" xlink:href="#m1dccde3124" y="269.432086"/>
     <use style="fill:#1f77b4;stroke:#1f77b4;" x="100.004078" xlink:href="#m1dccde3124" y="267.150236"/>
     <use style="fill:#1f77b4;stroke:#1f77b4;" x="103.349107" xlink:href="#m1dccde3124" y="247.857226"/>
     <use style="fill:#1f77b4;stroke:#1f77b4;" x="106.694137" xlink:href="#m1dccde3124" y="227.481155"/>
     <use style="fill:#1f77b4;stroke:#1f77b4;" x="113.384196" xlink:href="#m1dccde3124" y="257.180754"/>
     <use style="fill:#1f77b4;stroke:#1f77b4;" x="116.729226" xlink:href="#m1dccde3124" y="259.81611"/>
     <use style="fill:#1f77b4;stroke:#1f77b4;" x="120.074255" xlink:href="#m1dccde3124" y="218.073051"/>
     <use style="fill:#1f77b4;stroke:#1f77b4;" x="123.419285" xlink:href="#m1dccde3124" y="193.878327"/>
     <use style="fill:#1f77b4;stroke:#1f77b4;" x="126.764314" xlink:href="#m1dccde3124" y="221.954031"/>
     <use style="fill:#1f77b4;stroke:#1f77b4;" x="130.109344" xlink:href="#m1dccde3124" y="275.635914"/>
     <use style="fill:#1f77b4;stroke:#1f77b4;" x="133.454373" xlink:href="#m1dccde3124" y="285.745743"/>
     <use style="fill:#1f77b4;stroke:#1f77b4;" x="136.799403" xlink:href="#m1dccde3124" y="268.826422"/>
     <use style="fill:#1f77b4;stroke:#1f77b4;" x="140.144432" xlink:href="#m1dccde3124" y="242.715624"/>
     <use style="fill:#1f77b4;stroke:#1f77b4;" x="143.489462" xlink:href="#m1dccde3124" y="217.282922"/>
     <use style="fill:#1f77b4;stroke:#1f77b4;" x="146.834491" xlink:href="#m1dccde3124" y="206.597421"/>
     <use style="fill:#1f77b4;stroke:#1f77b4;" x="150.179521" xlink:href="#m1dccde3124" y="254.940991"/>
     <use style="fill:#1f77b4;stroke:#1f77b4;" x="153.52455" xlink:href="#m1dccde3124" y="285.169168"/>
     <use style="fill:#1f77b4;stroke:#1f77b4;" x="156.86958" xlink:href="#m1dccde3124" y="259.458904"/>
     <use style="fill:#1f77b4;stroke:#1f77b4;" x="160.214609" xlink:href="#m1dccde3124" y="234.695504"/>
     <use style="fill:#1f77b4;stroke:#1f77b4;" x="163.559639" xlink:href="#m1dccde3124" y="198.04007"/>
     <use style="fill:#1f77b4;stroke:#1f77b4;" x="166.904668" xlink:href="#m1dccde3124" y="217.918359"/>
     <use style="fill:#1f77b4;stroke:#1f77b4;" x="170.249698" xlink:href="#m1dccde3124" y="282.260885"/>
     <use style="fill:#1f77b4;stroke:#1f77b4;" x="173.594727" xlink:href="#m1dccde3124" y="284.501041"/>
     <use style="fill:#1f77b4;stroke:#1f77b4;" x="176.939757" xlink:href="#m1dccde3124" y="274.813321"/>
     <use style="fill:#1f77b4;stroke:#1f77b4;" x="180.284786" xlink:href="#m1dccde3124" y="245.778377"/>
     <use style="fill:#1f77b4;stroke:#1f77b4;" x="183.629816" xlink:href="#m1dccde3124" y="234.742332"/>
     <use style="fill:#1f77b4;stroke:#1f77b4;" x="186.974845" xlink:href="#m1dccde3124" y="243.081723"/>
     <use style="fill:#1f77b4;stroke:#1f77b4;" x="190.319875" xlink:href="#m1dccde3124" y="275.617616"/>
     <use style="fill:#1f77b4;stroke:#1f77b4;" x="193.664904" xlink:href="#m1dccde3124" y="285.098739"/>
     <use style="fill:#1f77b4;stroke:#1f77b4;" x="197.009934" xlink:href="#m1dccde3124" y="263.024115"/>
     <use style="fill:#1f77b4;stroke:#1f77b4;" x="200.354963" xlink:href="#m1dccde3124" y="243.305631"/>
     <use style="fill:#1f77b4;stroke:#1f77b4;" x="203.699993" xlink:href="#m1dccde3124" y="203.112449"/>
     <use style="fill:#1f77b4;stroke:#1f77b4;" x="207.045022" xlink:href="#m1dccde3124" y="175.329816"/>
     <use style="fill:#1f77b4;stroke:#1f77b4;" x="210.390052" xlink:href="#m1dccde3124" y="272.825994"/>
     <use style="fill:#1f77b4;stroke:#1f77b4;" x="213.735081" xlink:href="#m1dccde3124" y="280.482077"/>
     <use style="fill:#1f77b4;stroke:#1f77b4;" x="217.080111" xlink:href="#m1dccde3124" y="275.468532"/>
     <use style="fill:#1f77b4;stroke:#1f77b4;" x="220.42514" xlink:href="#m1dccde3124" y="256.411026"/>
     <use style="fill:#1f77b4;stroke:#1f77b4;" x="223.77017" xlink:href="#m1dccde3124" y="230.21717"/>
     <use style="fill:#1f77b4;stroke:#1f77b4;" x="227.1152" xlink:href="#m1dccde3124" y="208.049171"/>
     <use style="fill:#1f77b4;stroke:#1f77b4;" x="230.460229" xlink:href="#m1dccde3124" y="273.626816"/>
     <use style="fill:#1f77b4;stroke:#1f77b4;" x="233.805259" xlink:href="#m1dccde3124" y="280.769191"/>
     <use style="fill:#1f77b4;stroke:#1f77b4;" x="237.150288" xlink:href="#m1dccde3124" y="269.648562"/>
     <use style="fill:#1f77b4;stroke:#1f77b4;" x="240.495318" xlink:href="#m1dccde3124" y="244.929612"/>
     <use style="fill:#1f77b4;stroke:#1f77b4;" x="243.840347" xlink:href="#m1dccde3124" y="211.594416"/>
     <use style="fill:#1f77b4;stroke:#1f77b4;" x="247.185377" xlink:href="#m1dccde3124" y="35.046234"/>
     <use style="fill:#1f77b4;stroke:#1f77b4;" x="250.530406" xlink:href="#m1dccde3124" y="269.982339"/>
     <use style="fill:#1f77b4;stroke:#1f77b4;" x="253.875436" xlink:href="#m1dccde3124" y="283.196902"/>
     <use style="fill:#1f77b4;stroke:#1f77b4;" x="257.220465" xlink:href="#m1dccde3124" y="276.802785"/>
     <use style="fill:#1f77b4;stroke:#1f77b4;" x="260.565495" xlink:href="#m1dccde3124" y="253.116"/>
     <use style="fill:#1f77b4;stroke:#1f77b4;" x="263.910524" xlink:href="#m1dccde3124" y="241.297188"/>
     <use style="fill:#1f77b4;stroke:#1f77b4;" x="267.255554" xlink:href="#m1dccde3124" y="228.050563"/>
     <use style="fill:#1f77b4;stroke:#1f77b4;" x="270.600583" xlink:href="#m1dccde3124" y="283.829446"/>
     <use style="fill:#1f77b4;stroke:#1f77b4;" x="273.945613" xlink:href="#m1dccde3124" y="266.562414"/>
     <use style="fill:#1f77b4;stroke:#1f77b4;" x="277.290642" xlink:href="#m1dccde3124" y="272.01686"/>
     <use style="fill:#1f77b4;stroke:#1f77b4;" x="280.635672" xlink:href="#m1dccde3124" y="243.940339"/>
     <use style="fill:#1f77b4;stroke:#1f77b4;" x="283.980701" xlink:href="#m1dccde3124" y="217.059448"/>
     <use style="fill:#1f77b4;stroke:#1f77b4;" x="287.325731" xlink:href="#m1dccde3124" y="276.722983"/>
     <use style="fill:#1f77b4;stroke:#1f77b4;" x="294.01579" xlink:href="#m1dccde3124" y="287.823945"/>
     <use style="fill:#1f77b4;stroke:#1f77b4;" x="297.360819" xlink:href="#m1dccde3124" y="272.661813"/>
     <use style="fill:#1f77b4;stroke:#1f77b4;" x="300.705849" xlink:href="#m1dccde3124" y="269.997866"/>
     <use style="fill:#1f77b4;stroke:#1f77b4;" x="304.050878" xlink:href="#m1dccde3124" y="213.651763"/>
     <use style="fill:#1f77b4;stroke:#1f77b4;" x="307.395908" xlink:href="#m1dccde3124" y="226.051134"/>
     <use style="fill:#1f77b4;stroke:#1f77b4;" x="310.740937" xlink:href="#m1dccde3124" y="280.557251"/>
     <use style="fill:#1f77b4;stroke:#1f77b4;" x="314.085967" xlink:href="#m1dccde3124" y="291.628052"/>
     <use style="fill:#1f77b4;stroke:#1f77b4;" x="317.430996" xlink:href="#m1dccde3124" y="261.980598"/>
     <use style="fill:#1f77b4;stroke:#1f77b4;" x="320.776026" xlink:href="#m1dccde3124" y="240.348942"/>
     <use style="fill:#1f77b4;stroke:#1f77b4;" x="324.121055" xlink:href="#m1dccde3124" y="215.38348"/>
     <use style="fill:#1f77b4;stroke:#1f77b4;" x="327.466085" xlink:href="#m1dccde3124" y="251.638556"/>
     <use style="fill:#1f77b4;stroke:#1f77b4;" x="330.811115" xlink:href="#m1dccde3124" y="270.755704"/>
     <use style="fill:#1f77b4;stroke:#1f77b4;" x="334.156144" xlink:href="#m1dccde3124" y="271.955144"/>
     <use style="fill:#1f77b4;stroke:#1f77b4;" x="337.501174" xlink:href="#m1dccde3124" y="273.782144"/>
     <use style="fill:#1f77b4;stroke:#1f77b4;" x="340.846203" xlink:href="#m1dccde3124" y="226.409968"/>
     <use style="fill:#1f77b4;stroke:#1f77b4;" x="344.191233" xlink:href="#m1dccde3124" y="215.449695"/>
     <use style="fill:#1f77b4;stroke:#1f77b4;" x="347.536262" xlink:href="#m1dccde3124" y="269.418422"/>
     <use style="fill:#1f77b4;stroke:#1f77b4;" x="350.881292" xlink:href="#m1dccde3124" y="284.536821"/>
     <use style="fill:#1f77b4;stroke:#1f77b4;" x="354.226321" xlink:href="#m1dccde3124" y="287.899119"/>
     <use style="fill:#1f77b4;stroke:#1f77b4;" x="357.571351" xlink:href="#m1dccde3124" y="264.702137"/>
     <use style="fill:#1f77b4;stroke:#1f77b4;" x="360.91638" xlink:href="#m1dccde3124" y="230.664157"/>
     <use style="fill:#1f77b4;stroke:#1f77b4;" x="364.26141" xlink:href="#m1dccde3124" y="203.351208"/>
     <use style="fill:#1f77b4;stroke:#1f77b4;" x="367.606439" xlink:href="#m1dccde3124" y="198.955637"/>
     <use style="fill:#1f77b4;stroke:#1f77b4;" x="370.951469" xlink:href="#m1dccde3124" y="284.857102"/>
     <use style="fill:#1f77b4;stroke:#1f77b4;" x="374.296498" xlink:href="#m1dccde3124" y="273.5174"/>
     <use style="fill:#1f77b4;stroke:#1f77b4;" x="380.986557" xlink:href="#m1dccde3124" y="238.167605"/>
     <use style="fill:#1f77b4;stroke:#1f77b4;" x="384.331587" xlink:href="#m1dccde3124" y="202.083423"/>
     <use style="fill:#1f77b4;stroke:#1f77b4;" x="387.676616" xlink:href="#m1dccde3124" y="241.077975"/>
     <use style="fill:#1f77b4;stroke:#1f77b4;" x="391.021646" xlink:href="#m1dccde3124" y="272.606944"/>
     <use style="fill:#1f77b4;stroke:#1f77b4;" x="394.366675" xlink:href="#m1dccde3124" y="283.134401"/>
    </g>
   </g>
   <g id="matplotlib.axis_1">
    <g id="xtick_1">
     <g id="line2d_1">
      <defs>
       <path d="M 0 0 
L 0 3.5 
" id="m4a99de07df" style="stroke:#000000;stroke-width:0.8;"/>
      </defs>
      <g>
       <use style="stroke:#000000;stroke-width:0.8;" x="59.863724" xlink:href="#m4a99de07df" y="304.457143"/>
      </g>
     </g>
     <g id="text_1">
      <!-- 0 -->
      <defs>
       <path d="M 31.78125 66.40625 
Q 24.171875 66.40625 20.328125 58.90625 
Q 16.5 51.421875 16.5 36.375 
Q 16.5 21.390625 20.328125 13.890625 
Q 24.171875 6.390625 31.78125 6.390625 
Q 39.453125 6.390625 43.28125 13.890625 
Q 47.125 21.390625 47.125 36.375 
Q 47.125 51.421875 43.28125 58.90625 
Q 39.453125 66.40625 31.78125 66.40625 
z
M 31.78125 74.21875 
Q 44.046875 74.21875 50.515625 64.515625 
Q 56.984375 54.828125 56.984375 36.375 
Q 56.984375 17.96875 50.515625 8.265625 
Q 44.046875 -1.421875 31.78125 -1.421875 
Q 19.53125 -1.421875 13.0625 8.265625 
Q 6.59375 17.96875 6.59375 36.375 
Q 6.59375 54.828125 13.0625 64.515625 
Q 19.53125 74.21875 31.78125 74.21875 
z
" id="DejaVuSans-48"/>
      </defs>
      <g transform="translate(55.091849 322.854799)scale(0.15 -0.15)">
       <use xlink:href="#DejaVuSans-48"/>
      </g>
     </g>
    </g>
    <g id="xtick_2">
     <g id="line2d_2">
      <g>
       <use style="stroke:#000000;stroke-width:0.8;" x="126.764314" xlink:href="#m4a99de07df" y="304.457143"/>
      </g>
     </g>
     <g id="text_2">
      <!-- 20 -->
      <defs>
       <path d="M 19.1875 8.296875 
L 53.609375 8.296875 
L 53.609375 0 
L 7.328125 0 
L 7.328125 8.296875 
Q 12.9375 14.109375 22.625 23.890625 
Q 32.328125 33.6875 34.8125 36.53125 
Q 39.546875 41.84375 41.421875 45.53125 
Q 43.3125 49.21875 43.3125 52.78125 
Q 43.3125 58.59375 39.234375 62.25 
Q 35.15625 65.921875 28.609375 65.921875 
Q 23.96875 65.921875 18.8125 64.3125 
Q 13.671875 62.703125 7.8125 59.421875 
L 7.8125 69.390625 
Q 13.765625 71.78125 18.9375 73 
Q 24.125 74.21875 28.421875 74.21875 
Q 39.75 74.21875 46.484375 68.546875 
Q 53.21875 62.890625 53.21875 53.421875 
Q 53.21875 48.921875 51.53125 44.890625 
Q 49.859375 40.875 45.40625 35.40625 
Q 44.1875 33.984375 37.640625 27.21875 
Q 31.109375 20.453125 19.1875 8.296875 
z
" id="DejaVuSans-50"/>
      </defs>
      <g transform="translate(117.220564 322.854799)scale(0.15 -0.15)">
       <use xlink:href="#DejaVuSans-50"/>
       <use x="63.623047" xlink:href="#DejaVuSans-48"/>
      </g>
     </g>
    </g>
    <g id="xtick_3">
     <g id="line2d_3">
      <g>
       <use style="stroke:#000000;stroke-width:0.8;" x="193.664904" xlink:href="#m4a99de07df" y="304.457143"/>
      </g>
     </g>
     <g id="text_3">
      <!-- 40 -->
      <defs>
       <path d="M 37.796875 64.3125 
L 12.890625 25.390625 
L 37.796875 25.390625 
z
M 35.203125 72.90625 
L 47.609375 72.90625 
L 47.609375 25.390625 
L 58.015625 25.390625 
L 58.015625 17.1875 
L 47.609375 17.1875 
L 47.609375 0 
L 37.796875 0 
L 37.796875 17.1875 
L 4.890625 17.1875 
L 4.890625 26.703125 
z
" id="DejaVuSans-52"/>
      </defs>
      <g transform="translate(184.121154 322.854799)scale(0.15 -0.15)">
       <use xlink:href="#DejaVuSans-52"/>
       <use x="63.623047" xlink:href="#DejaVuSans-48"/>
      </g>
     </g>
    </g>
    <g id="xtick_4">
     <g id="line2d_4">
      <g>
       <use style="stroke:#000000;stroke-width:0.8;" x="260.565495" xlink:href="#m4a99de07df" y="304.457143"/>
      </g>
     </g>
     <g id="text_4">
      <!-- 60 -->
      <defs>
       <path d="M 33.015625 40.375 
Q 26.375 40.375 22.484375 35.828125 
Q 18.609375 31.296875 18.609375 23.390625 
Q 18.609375 15.53125 22.484375 10.953125 
Q 26.375 6.390625 33.015625 6.390625 
Q 39.65625 6.390625 43.53125 10.953125 
Q 47.40625 15.53125 47.40625 23.390625 
Q 47.40625 31.296875 43.53125 35.828125 
Q 39.65625 40.375 33.015625 40.375 
z
M 52.59375 71.296875 
L 52.59375 62.3125 
Q 48.875 64.0625 45.09375 64.984375 
Q 41.3125 65.921875 37.59375 65.921875 
Q 27.828125 65.921875 22.671875 59.328125 
Q 17.53125 52.734375 16.796875 39.40625 
Q 19.671875 43.65625 24.015625 45.921875 
Q 28.375 48.1875 33.59375 48.1875 
Q 44.578125 48.1875 50.953125 41.515625 
Q 57.328125 34.859375 57.328125 23.390625 
Q 57.328125 12.15625 50.6875 5.359375 
Q 44.046875 -1.421875 33.015625 -1.421875 
Q 20.359375 -1.421875 13.671875 8.265625 
Q 6.984375 17.96875 6.984375 36.375 
Q 6.984375 53.65625 15.1875 63.9375 
Q 23.390625 74.21875 37.203125 74.21875 
Q 40.921875 74.21875 44.703125 73.484375 
Q 48.484375 72.75 52.59375 71.296875 
z
" id="DejaVuSans-54"/>
      </defs>
      <g transform="translate(251.021745 322.854799)scale(0.15 -0.15)">
       <use xlink:href="#DejaVuSans-54"/>
       <use x="63.623047" xlink:href="#DejaVuSans-48"/>
      </g>
     </g>
    </g>
    <g id="xtick_5">
     <g id="line2d_5">
      <g>
       <use style="stroke:#000000;stroke-width:0.8;" x="327.466085" xlink:href="#m4a99de07df" y="304.457143"/>
      </g>
     </g>
     <g id="text_5">
      <!-- 80 -->
      <defs>
       <path d="M 31.78125 34.625 
Q 24.75 34.625 20.71875 30.859375 
Q 16.703125 27.09375 16.703125 20.515625 
Q 16.703125 13.921875 20.71875 10.15625 
Q 24.75 6.390625 31.78125 6.390625 
Q 38.8125 6.390625 42.859375 10.171875 
Q 46.921875 13.96875 46.921875 20.515625 
Q 46.921875 27.09375 42.890625 30.859375 
Q 38.875 34.625 31.78125 34.625 
z
M 21.921875 38.8125 
Q 15.578125 40.375 12.03125 44.71875 
Q 8.5 49.078125 8.5 55.328125 
Q 8.5 64.0625 14.71875 69.140625 
Q 20.953125 74.21875 31.78125 74.21875 
Q 42.671875 74.21875 48.875 69.140625 
Q 55.078125 64.0625 55.078125 55.328125 
Q 55.078125 49.078125 51.53125 44.71875 
Q 48 40.375 41.703125 38.8125 
Q 48.828125 37.15625 52.796875 32.3125 
Q 56.78125 27.484375 56.78125 20.515625 
Q 56.78125 9.90625 50.3125 4.234375 
Q 43.84375 -1.421875 31.78125 -1.421875 
Q 19.734375 -1.421875 13.25 4.234375 
Q 6.78125 9.90625 6.78125 20.515625 
Q 6.78125 27.484375 10.78125 32.3125 
Q 14.796875 37.15625 21.921875 38.8125 
z
M 18.3125 54.390625 
Q 18.3125 48.734375 21.84375 45.5625 
Q 25.390625 42.390625 31.78125 42.390625 
Q 38.140625 42.390625 41.71875 45.5625 
Q 45.3125 48.734375 45.3125 54.390625 
Q 45.3125 60.0625 41.71875 63.234375 
Q 38.140625 66.40625 31.78125 66.40625 
Q 25.390625 66.40625 21.84375 63.234375 
Q 18.3125 60.0625 18.3125 54.390625 
z
" id="DejaVuSans-56"/>
      </defs>
      <g transform="translate(317.922335 322.854799)scale(0.15 -0.15)">
       <use xlink:href="#DejaVuSans-56"/>
       <use x="63.623047" xlink:href="#DejaVuSans-48"/>
      </g>
     </g>
    </g>
    <g id="xtick_6">
     <g id="line2d_6">
      <g>
       <use style="stroke:#000000;stroke-width:0.8;" x="394.366675" xlink:href="#m4a99de07df" y="304.457143"/>
      </g>
     </g>
     <g id="text_6">
      <!-- 100 -->
      <defs>
       <path d="M 12.40625 8.296875 
L 28.515625 8.296875 
L 28.515625 63.921875 
L 10.984375 60.40625 
L 10.984375 69.390625 
L 28.421875 72.90625 
L 38.28125 72.90625 
L 38.28125 8.296875 
L 54.390625 8.296875 
L 54.390625 0 
L 12.40625 0 
z
" id="DejaVuSans-49"/>
      </defs>
      <g transform="translate(380.05105 322.854799)scale(0.15 -0.15)">
       <use xlink:href="#DejaVuSans-49"/>
       <use x="63.623047" xlink:href="#DejaVuSans-48"/>
       <use x="127.246094" xlink:href="#DejaVuSans-48"/>
      </g>
     </g>
    </g>
    <g id="text_7">
     <!-- Bag number -->
     <defs>
      <path d="M 19.671875 34.8125 
L 19.671875 8.109375 
L 35.5 8.109375 
Q 43.453125 8.109375 47.28125 11.40625 
Q 51.125 14.703125 51.125 21.484375 
Q 51.125 28.328125 47.28125 31.5625 
Q 43.453125 34.8125 35.5 34.8125 
z
M 19.671875 64.796875 
L 19.671875 42.828125 
L 34.28125 42.828125 
Q 41.5 42.828125 45.03125 45.53125 
Q 48.578125 48.25 48.578125 53.8125 
Q 48.578125 59.328125 45.03125 62.0625 
Q 41.5 64.796875 34.28125 64.796875 
z
M 9.8125 72.90625 
L 35.015625 72.90625 
Q 46.296875 72.90625 52.390625 68.21875 
Q 58.5 63.53125 58.5 54.890625 
Q 58.5 48.1875 55.375 44.234375 
Q 52.25 40.28125 46.1875 39.3125 
Q 53.46875 37.75 57.5 32.78125 
Q 61.53125 27.828125 61.53125 20.40625 
Q 61.53125 10.640625 54.890625 5.3125 
Q 48.25 0 35.984375 0 
L 9.8125 0 
z
" id="DejaVuSans-66"/>
      <path d="M 34.28125 27.484375 
Q 23.390625 27.484375 19.1875 25 
Q 14.984375 22.515625 14.984375 16.5 
Q 14.984375 11.71875 18.140625 8.90625 
Q 21.296875 6.109375 26.703125 6.109375 
Q 34.1875 6.109375 38.703125 11.40625 
Q 43.21875 16.703125 43.21875 25.484375 
L 43.21875 27.484375 
z
M 52.203125 31.203125 
L 52.203125 0 
L 43.21875 0 
L 43.21875 8.296875 
Q 40.140625 3.328125 35.546875 0.953125 
Q 30.953125 -1.421875 24.3125 -1.421875 
Q 15.921875 -1.421875 10.953125 3.296875 
Q 6 8.015625 6 15.921875 
Q 6 25.140625 12.171875 29.828125 
Q 18.359375 34.515625 30.609375 34.515625 
L 43.21875 34.515625 
L 43.21875 35.40625 
Q 43.21875 41.609375 39.140625 45 
Q 35.0625 48.390625 27.6875 48.390625 
Q 23 48.390625 18.546875 47.265625 
Q 14.109375 46.140625 10.015625 43.890625 
L 10.015625 52.203125 
Q 14.9375 54.109375 19.578125 55.046875 
Q 24.21875 56 28.609375 56 
Q 40.484375 56 46.34375 49.84375 
Q 52.203125 43.703125 52.203125 31.203125 
z
" id="DejaVuSans-97"/>
      <path d="M 45.40625 27.984375 
Q 45.40625 37.75 41.375 43.109375 
Q 37.359375 48.484375 30.078125 48.484375 
Q 22.859375 48.484375 18.828125 43.109375 
Q 14.796875 37.75 14.796875 27.984375 
Q 14.796875 18.265625 18.828125 12.890625 
Q 22.859375 7.515625 30.078125 7.515625 
Q 37.359375 7.515625 41.375 12.890625 
Q 45.40625 18.265625 45.40625 27.984375 
z
M 54.390625 6.78125 
Q 54.390625 -7.171875 48.1875 -13.984375 
Q 42 -20.796875 29.203125 -20.796875 
Q 24.46875 -20.796875 20.265625 -20.09375 
Q 16.0625 -19.390625 12.109375 -17.921875 
L 12.109375 -9.1875 
Q 16.0625 -11.328125 19.921875 -12.34375 
Q 23.78125 -13.375 27.78125 -13.375 
Q 36.625 -13.375 41.015625 -8.765625 
Q 45.40625 -4.15625 45.40625 5.171875 
L 45.40625 9.625 
Q 42.625 4.78125 38.28125 2.390625 
Q 33.9375 0 27.875 0 
Q 17.828125 0 11.671875 7.65625 
Q 5.515625 15.328125 5.515625 27.984375 
Q 5.515625 40.671875 11.671875 48.328125 
Q 17.828125 56 27.875 56 
Q 33.9375 56 38.28125 53.609375 
Q 42.625 51.21875 45.40625 46.390625 
L 45.40625 54.6875 
L 54.390625 54.6875 
z
" id="DejaVuSans-103"/>
      <path id="DejaVuSans-32"/>
      <path d="M 54.890625 33.015625 
L 54.890625 0 
L 45.90625 0 
L 45.90625 32.71875 
Q 45.90625 40.484375 42.875 44.328125 
Q 39.84375 48.1875 33.796875 48.1875 
Q 26.515625 48.1875 22.3125 43.546875 
Q 18.109375 38.921875 18.109375 30.90625 
L 18.109375 0 
L 9.078125 0 
L 9.078125 54.6875 
L 18.109375 54.6875 
L 18.109375 46.1875 
Q 21.34375 51.125 25.703125 53.5625 
Q 30.078125 56 35.796875 56 
Q 45.21875 56 50.046875 50.171875 
Q 54.890625 44.34375 54.890625 33.015625 
z
" id="DejaVuSans-110"/>
      <path d="M 8.5 21.578125 
L 8.5 54.6875 
L 17.484375 54.6875 
L 17.484375 21.921875 
Q 17.484375 14.15625 20.5 10.265625 
Q 23.53125 6.390625 29.59375 6.390625 
Q 36.859375 6.390625 41.078125 11.03125 
Q 45.3125 15.671875 45.3125 23.6875 
L 45.3125 54.6875 
L 54.296875 54.6875 
L 54.296875 0 
L 45.3125 0 
L 45.3125 8.40625 
Q 42.046875 3.421875 37.71875 1 
Q 33.40625 -1.421875 27.6875 -1.421875 
Q 18.265625 -1.421875 13.375 4.4375 
Q 8.5 10.296875 8.5 21.578125 
z
M 31.109375 56 
z
" id="DejaVuSans-117"/>
      <path d="M 52 44.1875 
Q 55.375 50.25 60.0625 53.125 
Q 64.75 56 71.09375 56 
Q 79.640625 56 84.28125 50.015625 
Q 88.921875 44.046875 88.921875 33.015625 
L 88.921875 0 
L 79.890625 0 
L 79.890625 32.71875 
Q 79.890625 40.578125 77.09375 44.375 
Q 74.3125 48.1875 68.609375 48.1875 
Q 61.625 48.1875 57.5625 43.546875 
Q 53.515625 38.921875 53.515625 30.90625 
L 53.515625 0 
L 44.484375 0 
L 44.484375 32.71875 
Q 44.484375 40.625 41.703125 44.40625 
Q 38.921875 48.1875 33.109375 48.1875 
Q 26.21875 48.1875 22.15625 43.53125 
Q 18.109375 38.875 18.109375 30.90625 
L 18.109375 0 
L 9.078125 0 
L 9.078125 54.6875 
L 18.109375 54.6875 
L 18.109375 46.1875 
Q 21.1875 51.21875 25.484375 53.609375 
Q 29.78125 56 35.6875 56 
Q 41.65625 56 45.828125 52.96875 
Q 50 49.953125 52 44.1875 
z
" id="DejaVuSans-109"/>
      <path d="M 48.6875 27.296875 
Q 48.6875 37.203125 44.609375 42.84375 
Q 40.53125 48.484375 33.40625 48.484375 
Q 26.265625 48.484375 22.1875 42.84375 
Q 18.109375 37.203125 18.109375 27.296875 
Q 18.109375 17.390625 22.1875 11.75 
Q 26.265625 6.109375 33.40625 6.109375 
Q 40.53125 6.109375 44.609375 11.75 
Q 48.6875 17.390625 48.6875 27.296875 
z
M 18.109375 46.390625 
Q 20.953125 51.265625 25.265625 53.625 
Q 29.59375 56 35.59375 56 
Q 45.5625 56 51.78125 48.09375 
Q 58.015625 40.1875 58.015625 27.296875 
Q 58.015625 14.40625 51.78125 6.484375 
Q 45.5625 -1.421875 35.59375 -1.421875 
Q 29.59375 -1.421875 25.265625 0.953125 
Q 20.953125 3.328125 18.109375 8.203125 
L 18.109375 0 
L 9.078125 0 
L 9.078125 75.984375 
L 18.109375 75.984375 
z
" id="DejaVuSans-98"/>
      <path d="M 56.203125 29.59375 
L 56.203125 25.203125 
L 14.890625 25.203125 
Q 15.484375 15.921875 20.484375 11.0625 
Q 25.484375 6.203125 34.421875 6.203125 
Q 39.59375 6.203125 44.453125 7.46875 
Q 49.3125 8.734375 54.109375 11.28125 
L 54.109375 2.78125 
Q 49.265625 0.734375 44.1875 -0.34375 
Q 39.109375 -1.421875 33.890625 -1.421875 
Q 20.796875 -1.421875 13.15625 6.1875 
Q 5.515625 13.8125 5.515625 26.8125 
Q 5.515625 40.234375 12.765625 48.109375 
Q 20.015625 56 32.328125 56 
Q 43.359375 56 49.78125 48.890625 
Q 56.203125 41.796875 56.203125 29.59375 
z
M 47.21875 32.234375 
Q 47.125 39.59375 43.09375 43.984375 
Q 39.0625 48.390625 32.421875 48.390625 
Q 24.90625 48.390625 20.390625 44.140625 
Q 15.875 39.890625 15.1875 32.171875 
z
" id="DejaVuSans-101"/>
      <path d="M 41.109375 46.296875 
Q 39.59375 47.171875 37.8125 47.578125 
Q 36.03125 48 33.890625 48 
Q 26.265625 48 22.1875 43.046875 
Q 18.109375 38.09375 18.109375 28.8125 
L 18.109375 0 
L 9.078125 0 
L 9.078125 54.6875 
L 18.109375 54.6875 
L 18.109375 46.1875 
Q 20.953125 51.171875 25.484375 53.578125 
Q 30.03125 56 36.53125 56 
Q 37.453125 56 38.578125 55.875 
Q 39.703125 55.765625 41.0625 55.515625 
z
" id="DejaVuSans-114"/>
     </defs>
     <g transform="translate(182.629902 341.371987)scale(0.15 -0.15)">
      <use xlink:href="#DejaVuSans-66"/>
      <use x="68.603516" xlink:href="#DejaVuSans-97"/>
      <use x="129.882812" xlink:href="#DejaVuSans-103"/>
      <use x="193.359375" xlink:href="#DejaVuSans-32"/>
      <use x="225.146484" xlink:href="#DejaVuSans-110"/>
      <use x="288.525391" xlink:href="#DejaVuSans-117"/>
      <use x="351.904297" xlink:href="#DejaVuSans-109"/>
      <use x="449.316406" xlink:href="#DejaVuSans-98"/>
      <use x="512.792969" xlink:href="#DejaVuSans-101"/>
      <use x="574.316406" xlink:href="#DejaVuSans-114"/>
     </g>
    </g>
   </g>
   <g id="matplotlib.axis_2">
    <g id="ytick_1">
     <g id="line2d_7">
      <defs>
       <path d="M 0 0 
L -3.5 0 
" id="m268db9e184" style="stroke:#000000;stroke-width:0.8;"/>
      </defs>
      <g>
       <use style="stroke:#000000;stroke-width:0.8;" x="46.650857" xlink:href="#m268db9e184" y="303.495569"/>
      </g>
     </g>
     <g id="text_8">
      <!-- 0 -->
      <g transform="translate(30.107107 309.194397)scale(0.15 -0.15)">
       <use xlink:href="#DejaVuSans-48"/>
      </g>
     </g>
    </g>
    <g id="ytick_2">
     <g id="line2d_8">
      <g>
       <use style="stroke:#000000;stroke-width:0.8;" x="46.650857" xlink:href="#m268db9e184" y="246.55187"/>
      </g>
     </g>
     <g id="text_9">
      <!-- 10 -->
      <g transform="translate(20.563357 252.250698)scale(0.15 -0.15)">
       <use xlink:href="#DejaVuSans-49"/>
       <use x="63.623047" xlink:href="#DejaVuSans-48"/>
      </g>
     </g>
    </g>
    <g id="ytick_3">
     <g id="line2d_9">
      <g>
       <use style="stroke:#000000;stroke-width:0.8;" x="46.650857" xlink:href="#m268db9e184" y="189.608171"/>
      </g>
     </g>
     <g id="text_10">
      <!-- 20 -->
      <g transform="translate(20.563357 195.307)scale(0.15 -0.15)">
       <use xlink:href="#DejaVuSans-50"/>
       <use x="63.623047" xlink:href="#DejaVuSans-48"/>
      </g>
     </g>
    </g>
    <g id="ytick_4">
     <g id="line2d_10">
      <g>
       <use style="stroke:#000000;stroke-width:0.8;" x="46.650857" xlink:href="#m268db9e184" y="132.664472"/>
      </g>
     </g>
     <g id="text_11">
      <!-- 30 -->
      <defs>
       <path d="M 40.578125 39.3125 
Q 47.65625 37.796875 51.625 33 
Q 55.609375 28.21875 55.609375 21.1875 
Q 55.609375 10.40625 48.1875 4.484375 
Q 40.765625 -1.421875 27.09375 -1.421875 
Q 22.515625 -1.421875 17.65625 -0.515625 
Q 12.796875 0.390625 7.625 2.203125 
L 7.625 11.71875 
Q 11.71875 9.328125 16.59375 8.109375 
Q 21.484375 6.890625 26.8125 6.890625 
Q 36.078125 6.890625 40.9375 10.546875 
Q 45.796875 14.203125 45.796875 21.1875 
Q 45.796875 27.640625 41.28125 31.265625 
Q 36.765625 34.90625 28.71875 34.90625 
L 20.21875 34.90625 
L 20.21875 43.015625 
L 29.109375 43.015625 
Q 36.375 43.015625 40.234375 45.921875 
Q 44.09375 48.828125 44.09375 54.296875 
Q 44.09375 59.90625 40.109375 62.90625 
Q 36.140625 65.921875 28.71875 65.921875 
Q 24.65625 65.921875 20.015625 65.03125 
Q 15.375 64.15625 9.8125 62.3125 
L 9.8125 71.09375 
Q 15.4375 72.65625 20.34375 73.4375 
Q 25.25 74.21875 29.59375 74.21875 
Q 40.828125 74.21875 47.359375 69.109375 
Q 53.90625 64.015625 53.90625 55.328125 
Q 53.90625 49.265625 50.4375 45.09375 
Q 46.96875 40.921875 40.578125 39.3125 
z
" id="DejaVuSans-51"/>
      </defs>
      <g transform="translate(20.563357 138.363301)scale(0.15 -0.15)">
       <use xlink:href="#DejaVuSans-51"/>
       <use x="63.623047" xlink:href="#DejaVuSans-48"/>
      </g>
     </g>
    </g>
    <g id="ytick_5">
     <g id="line2d_11">
      <g>
       <use style="stroke:#000000;stroke-width:0.8;" x="46.650857" xlink:href="#m268db9e184" y="75.720774"/>
      </g>
     </g>
     <g id="text_12">
      <!-- 40 -->
      <g transform="translate(20.563357 81.419602)scale(0.15 -0.15)">
       <use xlink:href="#DejaVuSans-52"/>
       <use x="63.623047" xlink:href="#DejaVuSans-48"/>
      </g>
     </g>
    </g>
    <g id="text_13">
     <!-- Angle error [deg] -->
     <defs>
      <path d="M 34.1875 63.1875 
L 20.796875 26.90625 
L 47.609375 26.90625 
z
M 28.609375 72.90625 
L 39.796875 72.90625 
L 67.578125 0 
L 57.328125 0 
L 50.6875 18.703125 
L 17.828125 18.703125 
L 11.1875 0 
L 0.78125 0 
z
" id="DejaVuSans-65"/>
      <path d="M 9.421875 75.984375 
L 18.40625 75.984375 
L 18.40625 0 
L 9.421875 0 
z
" id="DejaVuSans-108"/>
      <path d="M 30.609375 48.390625 
Q 23.390625 48.390625 19.1875 42.75 
Q 14.984375 37.109375 14.984375 27.296875 
Q 14.984375 17.484375 19.15625 11.84375 
Q 23.34375 6.203125 30.609375 6.203125 
Q 37.796875 6.203125 41.984375 11.859375 
Q 46.1875 17.53125 46.1875 27.296875 
Q 46.1875 37.015625 41.984375 42.703125 
Q 37.796875 48.390625 30.609375 48.390625 
z
M 30.609375 56 
Q 42.328125 56 49.015625 48.375 
Q 55.71875 40.765625 55.71875 27.296875 
Q 55.71875 13.875 49.015625 6.21875 
Q 42.328125 -1.421875 30.609375 -1.421875 
Q 18.84375 -1.421875 12.171875 6.21875 
Q 5.515625 13.875 5.515625 27.296875 
Q 5.515625 40.765625 12.171875 48.375 
Q 18.84375 56 30.609375 56 
z
" id="DejaVuSans-111"/>
      <path d="M 8.59375 75.984375 
L 29.296875 75.984375 
L 29.296875 69 
L 17.578125 69 
L 17.578125 -6.203125 
L 29.296875 -6.203125 
L 29.296875 -13.1875 
L 8.59375 -13.1875 
z
" id="DejaVuSans-91"/>
      <path d="M 45.40625 46.390625 
L 45.40625 75.984375 
L 54.390625 75.984375 
L 54.390625 0 
L 45.40625 0 
L 45.40625 8.203125 
Q 42.578125 3.328125 38.25 0.953125 
Q 33.9375 -1.421875 27.875 -1.421875 
Q 17.96875 -1.421875 11.734375 6.484375 
Q 5.515625 14.40625 5.515625 27.296875 
Q 5.515625 40.1875 11.734375 48.09375 
Q 17.96875 56 27.875 56 
Q 33.9375 56 38.25 53.625 
Q 42.578125 51.265625 45.40625 46.390625 
z
M 14.796875 27.296875 
Q 14.796875 17.390625 18.875 11.75 
Q 22.953125 6.109375 30.078125 6.109375 
Q 37.203125 6.109375 41.296875 11.75 
Q 45.40625 17.390625 45.40625 27.296875 
Q 45.40625 37.203125 41.296875 42.84375 
Q 37.203125 48.484375 30.078125 48.484375 
Q 22.953125 48.484375 18.875 42.84375 
Q 14.796875 37.203125 14.796875 27.296875 
z
" id="DejaVuSans-100"/>
      <path d="M 30.421875 75.984375 
L 30.421875 -13.1875 
L 9.71875 -13.1875 
L 9.71875 -6.203125 
L 21.390625 -6.203125 
L 21.390625 69 
L 9.71875 69 
L 9.71875 75.984375 
z
" id="DejaVuSans-93"/>
     </defs>
     <g transform="translate(13.443826 227.591049)rotate(-90)scale(0.15 -0.15)">
      <use xlink:href="#DejaVuSans-65"/>
      <use x="68.408203" xlink:href="#DejaVuSans-110"/>
      <use x="131.787109" xlink:href="#DejaVuSans-103"/>
      <use x="195.263672" xlink:href="#DejaVuSans-108"/>
      <use x="223.046875" xlink:href="#DejaVuSans-101"/>
      <use x="284.570312" xlink:href="#DejaVuSans-32"/>
      <use x="316.357422" xlink:href="#DejaVuSans-101"/>
      <use x="377.880859" xlink:href="#DejaVuSans-114"/>
      <use x="417.244141" xlink:href="#DejaVuSans-114"/>
      <use x="456.107422" xlink:href="#DejaVuSans-111"/>
      <use x="517.289062" xlink:href="#DejaVuSans-114"/>
      <use x="558.402344" xlink:href="#DejaVuSans-32"/>
      <use x="590.189453" xlink:href="#DejaVuSans-91"/>
      <use x="629.203125" xlink:href="#DejaVuSans-100"/>
      <use x="692.679688" xlink:href="#DejaVuSans-101"/>
      <use x="754.203125" xlink:href="#DejaVuSans-103"/>
      <use x="817.679688" xlink:href="#DejaVuSans-93"/>
     </g>
    </g>
   </g>
   <g id="line2d_12">
    <path clip-path="url(#pa5f338e455)" d="M 46.650857 247.84624 
L 410.924571 247.84624 
" style="fill:none;stroke:#ff0000;stroke-linecap:square;stroke-width:1.5;"/>
   </g>
   <g id="patch_3">
    <path d="M 46.650857 304.457143 
L 46.650857 22.217143 
" style="fill:none;stroke:#000000;stroke-linecap:square;stroke-linejoin:miter;stroke-width:0.8;"/>
   </g>
   <g id="patch_4">
    <path d="M 410.924571 304.457143 
L 410.924571 22.217143 
" style="fill:none;stroke:#000000;stroke-linecap:square;stroke-linejoin:miter;stroke-width:0.8;"/>
   </g>
   <g id="patch_5">
    <path d="M 46.650857 304.457143 
L 410.924571 304.457143 
" style="fill:none;stroke:#000000;stroke-linecap:square;stroke-linejoin:miter;stroke-width:0.8;"/>
   </g>
   <g id="patch_6">
    <path d="M 46.650857 22.217143 
L 410.924571 22.217143 
" style="fill:none;stroke:#000000;stroke-linecap:square;stroke-linejoin:miter;stroke-width:0.8;"/>
   </g>
   <g id="text_14">
    <!-- Angle error all bags -->
    <defs>
     <path d="M 44.28125 53.078125 
L 44.28125 44.578125 
Q 40.484375 46.53125 36.375 47.5 
Q 32.28125 48.484375 27.875 48.484375 
Q 21.1875 48.484375 17.84375 46.4375 
Q 14.5 44.390625 14.5 40.28125 
Q 14.5 37.15625 16.890625 35.375 
Q 19.28125 33.59375 26.515625 31.984375 
L 29.59375 31.296875 
Q 39.15625 29.25 43.1875 25.515625 
Q 47.21875 21.78125 47.21875 15.09375 
Q 47.21875 7.46875 41.1875 3.015625 
Q 35.15625 -1.421875 24.609375 -1.421875 
Q 20.21875 -1.421875 15.453125 -0.5625 
Q 10.6875 0.296875 5.421875 2 
L 5.421875 11.28125 
Q 10.40625 8.6875 15.234375 7.390625 
Q 20.0625 6.109375 24.8125 6.109375 
Q 31.15625 6.109375 34.5625 8.28125 
Q 37.984375 10.453125 37.984375 14.40625 
Q 37.984375 18.0625 35.515625 20.015625 
Q 33.0625 21.96875 24.703125 23.78125 
L 21.578125 24.515625 
Q 13.234375 26.265625 9.515625 29.90625 
Q 5.8125 33.546875 5.8125 39.890625 
Q 5.8125 47.609375 11.28125 51.796875 
Q 16.75 56 26.8125 56 
Q 31.78125 56 36.171875 55.265625 
Q 40.578125 54.546875 44.28125 53.078125 
z
" id="DejaVuSans-115"/>
    </defs>
    <g transform="translate(140.663652 16.217143)scale(0.18 -0.18)">
     <use xlink:href="#DejaVuSans-65"/>
     <use x="68.408203" xlink:href="#DejaVuSans-110"/>
     <use x="131.787109" xlink:href="#DejaVuSans-103"/>
     <use x="195.263672" xlink:href="#DejaVuSans-108"/>
     <use x="223.046875" xlink:href="#DejaVuSans-101"/>
     <use x="284.570312" xlink:href="#DejaVuSans-32"/>
     <use x="316.357422" xlink:href="#DejaVuSans-101"/>
     <use x="377.880859" xlink:href="#DejaVuSans-114"/>
     <use x="417.244141" xlink:href="#DejaVuSans-114"/>
     <use x="456.107422" xlink:href="#DejaVuSans-111"/>
     <use x="517.289062" xlink:href="#DejaVuSans-114"/>
     <use x="558.402344" xlink:href="#DejaVuSans-32"/>
     <use x="590.189453" xlink:href="#DejaVuSans-97"/>
     <use x="651.46875" xlink:href="#DejaVuSans-108"/>
     <use x="679.251953" xlink:href="#DejaVuSans-108"/>
     <use x="707.035156" xlink:href="#DejaVuSans-32"/>
     <use x="738.822266" xlink:href="#DejaVuSans-98"/>
     <use x="802.298828" xlink:href="#DejaVuSans-97"/>
     <use x="863.578125" xlink:href="#DejaVuSans-103"/>
     <use x="927.054688" xlink:href="#DejaVuSans-115"/>
    </g>
   </g>
  </g>
 </g>
 <defs>
  <clipPath id="pa5f338e455">
   <rect height="282.24" width="364.273714" x="46.650857" y="22.217143"/>
  </clipPath>
 </defs>
</svg>
