<?xml version="1.0" encoding="utf-8" standalone="no"?>
<!DOCTYPE svg PUBLIC "-//W3C//DTD SVG 1.1//EN"
  "http://www.w3.org/Graphics/SVG/1.1/DTD/svg11.dtd">
<!-- Created with matplotlib (https://matplotlib.org/) -->
<svg height="345.6pt" version="1.1" viewBox="0 0 401.04 345.6" width="401.04pt" xmlns="http://www.w3.org/2000/svg" xmlns:xlink="http://www.w3.org/1999/xlink">
 <defs>
  <style type="text/css">
*{stroke-linecap:butt;stroke-linejoin:round;}
  </style>
 </defs>
 <g id="figure_1">
  <g id="patch_1">
   <path d="M 0 345.6 
L 401.04 345.6 
L 401.04 0 
L 0 0 
z
" style="fill:#ffffff;"/>
  </g>
  <g id="axes_1">
   <g id="patch_2">
    <path d="M 57.291429 304.457143 
L 394.356 304.457143 
L 394.356 24.685714 
L 57.291429 24.685714 
z
" style="fill:#ffffff;"/>
   </g>
   <g id="PathCollection_1">
    <defs>
     <path d="M 0 3 
C 0.795609 3 1.55874 2.683901 2.12132 2.12132 
C 2.683901 1.55874 3 0.795609 3 0 
C 3 -0.795609 2.683901 -1.55874 2.12132 -2.12132 
C 1.55874 -2.683901 0.795609 -3 0 -3 
C -0.795609 -3 -1.55874 -2.683901 -2.12132 -2.12132 
C -2.683901 -1.55874 -3 -0.795609 -3 0 
C -3 0.795609 -2.683901 1.55874 -2.12132 2.12132 
C -1.55874 2.683901 -0.795609 3 0 3 
z
" id="mcbecb42cc9" style="stroke:#1f77b4;"/>
    </defs>
    <g clip-path="url(#pebfb2ae52f)">
     <use style="fill:#1f77b4;stroke:#1f77b4;" x="72.612545" xlink:href="#mcbecb42cc9" y="272.152632"/>
     <use style="fill:#1f77b4;stroke:#1f77b4;" x="75.707721" xlink:href="#mcbecb42cc9" y="267.454456"/>
     <use style="fill:#1f77b4;stroke:#1f77b4;" x="78.802896" xlink:href="#mcbecb42cc9" y="291.715137"/>
     <use style="fill:#1f77b4;stroke:#1f77b4;" x="81.898071" xlink:href="#mcbecb42cc9" y="234.683623"/>
     <use style="fill:#1f77b4;stroke:#1f77b4;" x="84.993246" xlink:href="#mcbecb42cc9" y="131.601308"/>
     <use style="fill:#1f77b4;stroke:#1f77b4;" x="88.088421" xlink:href="#mcbecb42cc9" y="264.660041"/>
     <use style="fill:#1f77b4;stroke:#1f77b4;" x="91.183596" xlink:href="#mcbecb42cc9" y="234.836641"/>
     <use style="fill:#1f77b4;stroke:#1f77b4;" x="94.278771" xlink:href="#mcbecb42cc9" y="272.170832"/>
     <use style="fill:#1f77b4;stroke:#1f77b4;" x="97.373946" xlink:href="#mcbecb42cc9" y="130.914876"/>
     <use style="fill:#1f77b4;stroke:#1f77b4;" x="100.469122" xlink:href="#mcbecb42cc9" y="279.047664"/>
     <use style="fill:#1f77b4;stroke:#1f77b4;" x="103.564297" xlink:href="#mcbecb42cc9" y="275.17969"/>
     <use style="fill:#1f77b4;stroke:#1f77b4;" x="106.659472" xlink:href="#mcbecb42cc9" y="227.77924"/>
     <use style="fill:#1f77b4;stroke:#1f77b4;" x="109.754647" xlink:href="#mcbecb42cc9" y="254.013783"/>
     <use style="fill:#1f77b4;stroke:#1f77b4;" x="112.849822" xlink:href="#mcbecb42cc9" y="266.912463"/>
     <use style="fill:#1f77b4;stroke:#1f77b4;" x="119.040172" xlink:href="#mcbecb42cc9" y="269.724969"/>
     <use style="fill:#1f77b4;stroke:#1f77b4;" x="122.135348" xlink:href="#mcbecb42cc9" y="270.179552"/>
     <use style="fill:#1f77b4;stroke:#1f77b4;" x="125.230523" xlink:href="#mcbecb42cc9" y="266.504021"/>
     <use style="fill:#1f77b4;stroke:#1f77b4;" x="128.325698" xlink:href="#mcbecb42cc9" y="261.956648"/>
     <use style="fill:#1f77b4;stroke:#1f77b4;" x="131.420873" xlink:href="#mcbecb42cc9" y="266.630208"/>
     <use style="fill:#1f77b4;stroke:#1f77b4;" x="134.516048" xlink:href="#mcbecb42cc9" y="284.084595"/>
     <use style="fill:#1f77b4;stroke:#1f77b4;" x="137.611223" xlink:href="#mcbecb42cc9" y="268.892081"/>
     <use style="fill:#1f77b4;stroke:#1f77b4;" x="140.706398" xlink:href="#mcbecb42cc9" y="273.540892"/>
     <use style="fill:#1f77b4;stroke:#1f77b4;" x="143.801573" xlink:href="#mcbecb42cc9" y="285.108401"/>
     <use style="fill:#1f77b4;stroke:#1f77b4;" x="146.896749" xlink:href="#mcbecb42cc9" y="291.74026"/>
     <use style="fill:#1f77b4;stroke:#1f77b4;" x="149.991924" xlink:href="#mcbecb42cc9" y="244.482826"/>
     <use style="fill:#1f77b4;stroke:#1f77b4;" x="153.087099" xlink:href="#mcbecb42cc9" y="195.094085"/>
     <use style="fill:#1f77b4;stroke:#1f77b4;" x="156.182274" xlink:href="#mcbecb42cc9" y="267.447312"/>
     <use style="fill:#1f77b4;stroke:#1f77b4;" x="159.277449" xlink:href="#mcbecb42cc9" y="265.565651"/>
     <use style="fill:#1f77b4;stroke:#1f77b4;" x="162.372624" xlink:href="#mcbecb42cc9" y="267.718198"/>
     <use style="fill:#1f77b4;stroke:#1f77b4;" x="165.467799" xlink:href="#mcbecb42cc9" y="281.764614"/>
     <use style="fill:#1f77b4;stroke:#1f77b4;" x="168.562974" xlink:href="#mcbecb42cc9" y="269.107602"/>
     <use style="fill:#1f77b4;stroke:#1f77b4;" x="171.65815" xlink:href="#mcbecb42cc9" y="280.878723"/>
     <use style="fill:#1f77b4;stroke:#1f77b4;" x="174.753325" xlink:href="#mcbecb42cc9" y="270.334363"/>
     <use style="fill:#1f77b4;stroke:#1f77b4;" x="177.8485" xlink:href="#mcbecb42cc9" y="269.718045"/>
     <use style="fill:#1f77b4;stroke:#1f77b4;" x="180.943675" xlink:href="#mcbecb42cc9" y="275.839901"/>
     <use style="fill:#1f77b4;stroke:#1f77b4;" x="184.03885" xlink:href="#mcbecb42cc9" y="289.662897"/>
     <use style="fill:#1f77b4;stroke:#1f77b4;" x="187.134025" xlink:href="#mcbecb42cc9" y="281.490648"/>
     <use style="fill:#1f77b4;stroke:#1f77b4;" x="190.2292" xlink:href="#mcbecb42cc9" y="276.850073"/>
     <use style="fill:#1f77b4;stroke:#1f77b4;" x="193.324375" xlink:href="#mcbecb42cc9" y="269.419752"/>
     <use style="fill:#1f77b4;stroke:#1f77b4;" x="196.419551" xlink:href="#mcbecb42cc9" y="256.774784"/>
     <use style="fill:#1f77b4;stroke:#1f77b4;" x="199.514726" xlink:href="#mcbecb42cc9" y="286.251163"/>
     <use style="fill:#1f77b4;stroke:#1f77b4;" x="202.609901" xlink:href="#mcbecb42cc9" y="271.452436"/>
     <use style="fill:#1f77b4;stroke:#1f77b4;" x="205.705076" xlink:href="#mcbecb42cc9" y="83.244773"/>
     <use style="fill:#1f77b4;stroke:#1f77b4;" x="208.800251" xlink:href="#mcbecb42cc9" y="264.976759"/>
     <use style="fill:#1f77b4;stroke:#1f77b4;" x="211.895426" xlink:href="#mcbecb42cc9" y="268.467202"/>
     <use style="fill:#1f77b4;stroke:#1f77b4;" x="214.990601" xlink:href="#mcbecb42cc9" y="279.076507"/>
     <use style="fill:#1f77b4;stroke:#1f77b4;" x="218.085776" xlink:href="#mcbecb42cc9" y="278.04973"/>
     <use style="fill:#1f77b4;stroke:#1f77b4;" x="221.180952" xlink:href="#mcbecb42cc9" y="288.357593"/>
     <use style="fill:#1f77b4;stroke:#1f77b4;" x="224.276127" xlink:href="#mcbecb42cc9" y="262.781022"/>
     <use style="fill:#1f77b4;stroke:#1f77b4;" x="227.371302" xlink:href="#mcbecb42cc9" y="280.57187"/>
     <use style="fill:#1f77b4;stroke:#1f77b4;" x="230.466477" xlink:href="#mcbecb42cc9" y="156.812538"/>
     <use style="fill:#1f77b4;stroke:#1f77b4;" x="233.561652" xlink:href="#mcbecb42cc9" y="259.924382"/>
     <use style="fill:#1f77b4;stroke:#1f77b4;" x="236.656827" xlink:href="#mcbecb42cc9" y="263.543028"/>
     <use style="fill:#1f77b4;stroke:#1f77b4;" x="239.752002" xlink:href="#mcbecb42cc9" y="267.992473"/>
     <use style="fill:#1f77b4;stroke:#1f77b4;" x="242.847177" xlink:href="#mcbecb42cc9" y="37.402597"/>
     <use style="fill:#1f77b4;stroke:#1f77b4;" x="245.942353" xlink:href="#mcbecb42cc9" y="275.790847"/>
     <use style="fill:#1f77b4;stroke:#1f77b4;" x="249.037528" xlink:href="#mcbecb42cc9" y="262.33651"/>
     <use style="fill:#1f77b4;stroke:#1f77b4;" x="252.132703" xlink:href="#mcbecb42cc9" y="116.645102"/>
     <use style="fill:#1f77b4;stroke:#1f77b4;" x="255.227878" xlink:href="#mcbecb42cc9" y="277.320025"/>
     <use style="fill:#1f77b4;stroke:#1f77b4;" x="258.323053" xlink:href="#mcbecb42cc9" y="262.692114"/>
     <use style="fill:#1f77b4;stroke:#1f77b4;" x="261.418228" xlink:href="#mcbecb42cc9" y="273.145509"/>
     <use style="fill:#1f77b4;stroke:#1f77b4;" x="264.513403" xlink:href="#mcbecb42cc9" y="283.729382"/>
     <use style="fill:#1f77b4;stroke:#1f77b4;" x="267.608579" xlink:href="#mcbecb42cc9" y="244.135973"/>
     <use style="fill:#1f77b4;stroke:#1f77b4;" x="270.703754" xlink:href="#mcbecb42cc9" y="271.204067"/>
     <use style="fill:#1f77b4;stroke:#1f77b4;" x="273.798929" xlink:href="#mcbecb42cc9" y="231.850451"/>
     <use style="fill:#1f77b4;stroke:#1f77b4;" x="276.894104" xlink:href="#mcbecb42cc9" y="263.07398"/>
     <use style="fill:#1f77b4;stroke:#1f77b4;" x="279.989279" xlink:href="#mcbecb42cc9" y="281.553457"/>
     <use style="fill:#1f77b4;stroke:#1f77b4;" x="286.179629" xlink:href="#mcbecb42cc9" y="235.267106"/>
     <use style="fill:#1f77b4;stroke:#1f77b4;" x="289.274804" xlink:href="#mcbecb42cc9" y="253.393862"/>
     <use style="fill:#1f77b4;stroke:#1f77b4;" x="292.36998" xlink:href="#mcbecb42cc9" y="80.409211"/>
     <use style="fill:#1f77b4;stroke:#1f77b4;" x="295.465155" xlink:href="#mcbecb42cc9" y="281.920769"/>
     <use style="fill:#1f77b4;stroke:#1f77b4;" x="298.56033" xlink:href="#mcbecb42cc9" y="276.61895"/>
     <use style="fill:#1f77b4;stroke:#1f77b4;" x="301.655505" xlink:href="#mcbecb42cc9" y="265.674283"/>
     <use style="fill:#1f77b4;stroke:#1f77b4;" x="304.75068" xlink:href="#mcbecb42cc9" y="270.096961"/>
     <use style="fill:#1f77b4;stroke:#1f77b4;" x="307.845855" xlink:href="#mcbecb42cc9" y="270.481476"/>
     <use style="fill:#1f77b4;stroke:#1f77b4;" x="310.94103" xlink:href="#mcbecb42cc9" y="275.15857"/>
     <use style="fill:#1f77b4;stroke:#1f77b4;" x="314.036205" xlink:href="#mcbecb42cc9" y="282.294409"/>
     <use style="fill:#1f77b4;stroke:#1f77b4;" x="317.131381" xlink:href="#mcbecb42cc9" y="285.844254"/>
     <use style="fill:#1f77b4;stroke:#1f77b4;" x="320.226556" xlink:href="#mcbecb42cc9" y="279.133936"/>
     <use style="fill:#1f77b4;stroke:#1f77b4;" x="323.321731" xlink:href="#mcbecb42cc9" y="265.057286"/>
     <use style="fill:#1f77b4;stroke:#1f77b4;" x="326.416906" xlink:href="#mcbecb42cc9" y="266.695148"/>
     <use style="fill:#1f77b4;stroke:#1f77b4;" x="329.512081" xlink:href="#mcbecb42cc9" y="259.009884"/>
     <use style="fill:#1f77b4;stroke:#1f77b4;" x="332.607256" xlink:href="#mcbecb42cc9" y="260.435779"/>
     <use style="fill:#1f77b4;stroke:#1f77b4;" x="335.702431" xlink:href="#mcbecb42cc9" y="273.570485"/>
     <use style="fill:#1f77b4;stroke:#1f77b4;" x="338.797606" xlink:href="#mcbecb42cc9" y="286.011919"/>
     <use style="fill:#1f77b4;stroke:#1f77b4;" x="341.892782" xlink:href="#mcbecb42cc9" y="263.939672"/>
     <use style="fill:#1f77b4;stroke:#1f77b4;" x="344.987957" xlink:href="#mcbecb42cc9" y="282.237865"/>
     <use style="fill:#1f77b4;stroke:#1f77b4;" x="348.083132" xlink:href="#mcbecb42cc9" y="284.860199"/>
     <use style="fill:#1f77b4;stroke:#1f77b4;" x="351.178307" xlink:href="#mcbecb42cc9" y="267.282908"/>
     <use style="fill:#1f77b4;stroke:#1f77b4;" x="354.273482" xlink:href="#mcbecb42cc9" y="107.928262"/>
     <use style="fill:#1f77b4;stroke:#1f77b4;" x="357.368657" xlink:href="#mcbecb42cc9" y="261.467703"/>
     <use style="fill:#1f77b4;stroke:#1f77b4;" x="360.463832" xlink:href="#mcbecb42cc9" y="269.608496"/>
     <use style="fill:#1f77b4;stroke:#1f77b4;" x="366.654183" xlink:href="#mcbecb42cc9" y="240.423003"/>
     <use style="fill:#1f77b4;stroke:#1f77b4;" x="369.749358" xlink:href="#mcbecb42cc9" y="243.496831"/>
     <use style="fill:#1f77b4;stroke:#1f77b4;" x="372.844533" xlink:href="#mcbecb42cc9" y="280.82048"/>
     <use style="fill:#1f77b4;stroke:#1f77b4;" x="375.939708" xlink:href="#mcbecb42cc9" y="246.878084"/>
     <use style="fill:#1f77b4;stroke:#1f77b4;" x="379.034883" xlink:href="#mcbecb42cc9" y="191.128025"/>
    </g>
   </g>
   <g id="matplotlib.axis_1">
    <g id="xtick_1">
     <g id="line2d_1">
      <defs>
       <path d="M 0 0 
L 0 3.5 
" id="m0318db02bf" style="stroke:#000000;stroke-width:0.8;"/>
      </defs>
      <g>
       <use style="stroke:#000000;stroke-width:0.8;" x="69.51737" xlink:href="#m0318db02bf" y="304.457143"/>
      </g>
     </g>
     <g id="text_1">
      <!-- 0 -->
      <defs>
       <path d="M 31.78125 66.40625 
Q 24.171875 66.40625 20.328125 58.90625 
Q 16.5 51.421875 16.5 36.375 
Q 16.5 21.390625 20.328125 13.890625 
Q 24.171875 6.390625 31.78125 6.390625 
Q 39.453125 6.390625 43.28125 13.890625 
Q 47.125 21.390625 47.125 36.375 
Q 47.125 51.421875 43.28125 58.90625 
Q 39.453125 66.40625 31.78125 66.40625 
z
M 31.78125 74.21875 
Q 44.046875 74.21875 50.515625 64.515625 
Q 56.984375 54.828125 56.984375 36.375 
Q 56.984375 17.96875 50.515625 8.265625 
Q 44.046875 -1.421875 31.78125 -1.421875 
Q 19.53125 -1.421875 13.0625 8.265625 
Q 6.59375 17.96875 6.59375 36.375 
Q 6.59375 54.828125 13.0625 64.515625 
Q 19.53125 74.21875 31.78125 74.21875 
z
" id="DejaVuSans-48"/>
      </defs>
      <g transform="translate(64.745495 322.854799)scale(0.15 -0.15)">
       <use xlink:href="#DejaVuSans-48"/>
      </g>
     </g>
    </g>
    <g id="xtick_2">
     <g id="line2d_2">
      <g>
       <use style="stroke:#000000;stroke-width:0.8;" x="131.420873" xlink:href="#m0318db02bf" y="304.457143"/>
      </g>
     </g>
     <g id="text_2">
      <!-- 20 -->
      <defs>
       <path d="M 19.1875 8.296875 
L 53.609375 8.296875 
L 53.609375 0 
L 7.328125 0 
L 7.328125 8.296875 
Q 12.9375 14.109375 22.625 23.890625 
Q 32.328125 33.6875 34.8125 36.53125 
Q 39.546875 41.84375 41.421875 45.53125 
Q 43.3125 49.21875 43.3125 52.78125 
Q 43.3125 58.59375 39.234375 62.25 
Q 35.15625 65.921875 28.609375 65.921875 
Q 23.96875 65.921875 18.8125 64.3125 
Q 13.671875 62.703125 7.8125 59.421875 
L 7.8125 69.390625 
Q 13.765625 71.78125 18.9375 73 
Q 24.125 74.21875 28.421875 74.21875 
Q 39.75 74.21875 46.484375 68.546875 
Q 53.21875 62.890625 53.21875 53.421875 
Q 53.21875 48.921875 51.53125 44.890625 
Q 49.859375 40.875 45.40625 35.40625 
Q 44.1875 33.984375 37.640625 27.21875 
Q 31.109375 20.453125 19.1875 8.296875 
z
" id="DejaVuSans-50"/>
      </defs>
      <g transform="translate(121.877123 322.854799)scale(0.15 -0.15)">
       <use xlink:href="#DejaVuSans-50"/>
       <use x="63.623047" xlink:href="#DejaVuSans-48"/>
      </g>
     </g>
    </g>
    <g id="xtick_3">
     <g id="line2d_3">
      <g>
       <use style="stroke:#000000;stroke-width:0.8;" x="193.324375" xlink:href="#m0318db02bf" y="304.457143"/>
      </g>
     </g>
     <g id="text_3">
      <!-- 40 -->
      <defs>
       <path d="M 37.796875 64.3125 
L 12.890625 25.390625 
L 37.796875 25.390625 
z
M 35.203125 72.90625 
L 47.609375 72.90625 
L 47.609375 25.390625 
L 58.015625 25.390625 
L 58.015625 17.1875 
L 47.609375 17.1875 
L 47.609375 0 
L 37.796875 0 
L 37.796875 17.1875 
L 4.890625 17.1875 
L 4.890625 26.703125 
z
" id="DejaVuSans-52"/>
      </defs>
      <g transform="translate(183.780625 322.854799)scale(0.15 -0.15)">
       <use xlink:href="#DejaVuSans-52"/>
       <use x="63.623047" xlink:href="#DejaVuSans-48"/>
      </g>
     </g>
    </g>
    <g id="xtick_4">
     <g id="line2d_4">
      <g>
       <use style="stroke:#000000;stroke-width:0.8;" x="255.227878" xlink:href="#m0318db02bf" y="304.457143"/>
      </g>
     </g>
     <g id="text_4">
      <!-- 60 -->
      <defs>
       <path d="M 33.015625 40.375 
Q 26.375 40.375 22.484375 35.828125 
Q 18.609375 31.296875 18.609375 23.390625 
Q 18.609375 15.53125 22.484375 10.953125 
Q 26.375 6.390625 33.015625 6.390625 
Q 39.65625 6.390625 43.53125 10.953125 
Q 47.40625 15.53125 47.40625 23.390625 
Q 47.40625 31.296875 43.53125 35.828125 
Q 39.65625 40.375 33.015625 40.375 
z
M 52.59375 71.296875 
L 52.59375 62.3125 
Q 48.875 64.0625 45.09375 64.984375 
Q 41.3125 65.921875 37.59375 65.921875 
Q 27.828125 65.921875 22.671875 59.328125 
Q 17.53125 52.734375 16.796875 39.40625 
Q 19.671875 43.65625 24.015625 45.921875 
Q 28.375 48.1875 33.59375 48.1875 
Q 44.578125 48.1875 50.953125 41.515625 
Q 57.328125 34.859375 57.328125 23.390625 
Q 57.328125 12.15625 50.6875 5.359375 
Q 44.046875 -1.421875 33.015625 -1.421875 
Q 20.359375 -1.421875 13.671875 8.265625 
Q 6.984375 17.96875 6.984375 36.375 
Q 6.984375 53.65625 15.1875 63.9375 
Q 23.390625 74.21875 37.203125 74.21875 
Q 40.921875 74.21875 44.703125 73.484375 
Q 48.484375 72.75 52.59375 71.296875 
z
" id="DejaVuSans-54"/>
      </defs>
      <g transform="translate(245.684128 322.854799)scale(0.15 -0.15)">
       <use xlink:href="#DejaVuSans-54"/>
       <use x="63.623047" xlink:href="#DejaVuSans-48"/>
      </g>
     </g>
    </g>
    <g id="xtick_5">
     <g id="line2d_5">
      <g>
       <use style="stroke:#000000;stroke-width:0.8;" x="317.131381" xlink:href="#m0318db02bf" y="304.457143"/>
      </g>
     </g>
     <g id="text_5">
      <!-- 80 -->
      <defs>
       <path d="M 31.78125 34.625 
Q 24.75 34.625 20.71875 30.859375 
Q 16.703125 27.09375 16.703125 20.515625 
Q 16.703125 13.921875 20.71875 10.15625 
Q 24.75 6.390625 31.78125 6.390625 
Q 38.8125 6.390625 42.859375 10.171875 
Q 46.921875 13.96875 46.921875 20.515625 
Q 46.921875 27.09375 42.890625 30.859375 
Q 38.875 34.625 31.78125 34.625 
z
M 21.921875 38.8125 
Q 15.578125 40.375 12.03125 44.71875 
Q 8.5 49.078125 8.5 55.328125 
Q 8.5 64.0625 14.71875 69.140625 
Q 20.953125 74.21875 31.78125 74.21875 
Q 42.671875 74.21875 48.875 69.140625 
Q 55.078125 64.0625 55.078125 55.328125 
Q 55.078125 49.078125 51.53125 44.71875 
Q 48 40.375 41.703125 38.8125 
Q 48.828125 37.15625 52.796875 32.3125 
Q 56.78125 27.484375 56.78125 20.515625 
Q 56.78125 9.90625 50.3125 4.234375 
Q 43.84375 -1.421875 31.78125 -1.421875 
Q 19.734375 -1.421875 13.25 4.234375 
Q 6.78125 9.90625 6.78125 20.515625 
Q 6.78125 27.484375 10.78125 32.3125 
Q 14.796875 37.15625 21.921875 38.8125 
z
M 18.3125 54.390625 
Q 18.3125 48.734375 21.84375 45.5625 
Q 25.390625 42.390625 31.78125 42.390625 
Q 38.140625 42.390625 41.71875 45.5625 
Q 45.3125 48.734375 45.3125 54.390625 
Q 45.3125 60.0625 41.71875 63.234375 
Q 38.140625 66.40625 31.78125 66.40625 
Q 25.390625 66.40625 21.84375 63.234375 
Q 18.3125 60.0625 18.3125 54.390625 
z
" id="DejaVuSans-56"/>
      </defs>
      <g transform="translate(307.587631 322.854799)scale(0.15 -0.15)">
       <use xlink:href="#DejaVuSans-56"/>
       <use x="63.623047" xlink:href="#DejaVuSans-48"/>
      </g>
     </g>
    </g>
    <g id="xtick_6">
     <g id="line2d_6">
      <g>
       <use style="stroke:#000000;stroke-width:0.8;" x="379.034883" xlink:href="#m0318db02bf" y="304.457143"/>
      </g>
     </g>
     <g id="text_6">
      <!-- 100 -->
      <defs>
       <path d="M 12.40625 8.296875 
L 28.515625 8.296875 
L 28.515625 63.921875 
L 10.984375 60.40625 
L 10.984375 69.390625 
L 28.421875 72.90625 
L 38.28125 72.90625 
L 38.28125 8.296875 
L 54.390625 8.296875 
L 54.390625 0 
L 12.40625 0 
z
" id="DejaVuSans-49"/>
      </defs>
      <g transform="translate(364.719258 322.854799)scale(0.15 -0.15)">
       <use xlink:href="#DejaVuSans-49"/>
       <use x="63.623047" xlink:href="#DejaVuSans-48"/>
       <use x="127.246094" xlink:href="#DejaVuSans-48"/>
      </g>
     </g>
    </g>
    <g id="text_7">
     <!-- Bag number -->
     <defs>
      <path d="M 19.671875 34.8125 
L 19.671875 8.109375 
L 35.5 8.109375 
Q 43.453125 8.109375 47.28125 11.40625 
Q 51.125 14.703125 51.125 21.484375 
Q 51.125 28.328125 47.28125 31.5625 
Q 43.453125 34.8125 35.5 34.8125 
z
M 19.671875 64.796875 
L 19.671875 42.828125 
L 34.28125 42.828125 
Q 41.5 42.828125 45.03125 45.53125 
Q 48.578125 48.25 48.578125 53.8125 
Q 48.578125 59.328125 45.03125 62.0625 
Q 41.5 64.796875 34.28125 64.796875 
z
M 9.8125 72.90625 
L 35.015625 72.90625 
Q 46.296875 72.90625 52.390625 68.21875 
Q 58.5 63.53125 58.5 54.890625 
Q 58.5 48.1875 55.375 44.234375 
Q 52.25 40.28125 46.1875 39.3125 
Q 53.46875 37.75 57.5 32.78125 
Q 61.53125 27.828125 61.53125 20.40625 
Q 61.53125 10.640625 54.890625 5.3125 
Q 48.25 0 35.984375 0 
L 9.8125 0 
z
" id="DejaVuSans-66"/>
      <path d="M 34.28125 27.484375 
Q 23.390625 27.484375 19.1875 25 
Q 14.984375 22.515625 14.984375 16.5 
Q 14.984375 11.71875 18.140625 8.90625 
Q 21.296875 6.109375 26.703125 6.109375 
Q 34.1875 6.109375 38.703125 11.40625 
Q 43.21875 16.703125 43.21875 25.484375 
L 43.21875 27.484375 
z
M 52.203125 31.203125 
L 52.203125 0 
L 43.21875 0 
L 43.21875 8.296875 
Q 40.140625 3.328125 35.546875 0.953125 
Q 30.953125 -1.421875 24.3125 -1.421875 
Q 15.921875 -1.421875 10.953125 3.296875 
Q 6 8.015625 6 15.921875 
Q 6 25.140625 12.171875 29.828125 
Q 18.359375 34.515625 30.609375 34.515625 
L 43.21875 34.515625 
L 43.21875 35.40625 
Q 43.21875 41.609375 39.140625 45 
Q 35.0625 48.390625 27.6875 48.390625 
Q 23 48.390625 18.546875 47.265625 
Q 14.109375 46.140625 10.015625 43.890625 
L 10.015625 52.203125 
Q 14.9375 54.109375 19.578125 55.046875 
Q 24.21875 56 28.609375 56 
Q 40.484375 56 46.34375 49.84375 
Q 52.203125 43.703125 52.203125 31.203125 
z
" id="DejaVuSans-97"/>
      <path d="M 45.40625 27.984375 
Q 45.40625 37.75 41.375 43.109375 
Q 37.359375 48.484375 30.078125 48.484375 
Q 22.859375 48.484375 18.828125 43.109375 
Q 14.796875 37.75 14.796875 27.984375 
Q 14.796875 18.265625 18.828125 12.890625 
Q 22.859375 7.515625 30.078125 7.515625 
Q 37.359375 7.515625 41.375 12.890625 
Q 45.40625 18.265625 45.40625 27.984375 
z
M 54.390625 6.78125 
Q 54.390625 -7.171875 48.1875 -13.984375 
Q 42 -20.796875 29.203125 -20.796875 
Q 24.46875 -20.796875 20.265625 -20.09375 
Q 16.0625 -19.390625 12.109375 -17.921875 
L 12.109375 -9.1875 
Q 16.0625 -11.328125 19.921875 -12.34375 
Q 23.78125 -13.375 27.78125 -13.375 
Q 36.625 -13.375 41.015625 -8.765625 
Q 45.40625 -4.15625 45.40625 5.171875 
L 45.40625 9.625 
Q 42.625 4.78125 38.28125 2.390625 
Q 33.9375 0 27.875 0 
Q 17.828125 0 11.671875 7.65625 
Q 5.515625 15.328125 5.515625 27.984375 
Q 5.515625 40.671875 11.671875 48.328125 
Q 17.828125 56 27.875 56 
Q 33.9375 56 38.28125 53.609375 
Q 42.625 51.21875 45.40625 46.390625 
L 45.40625 54.6875 
L 54.390625 54.6875 
z
" id="DejaVuSans-103"/>
      <path id="DejaVuSans-32"/>
      <path d="M 54.890625 33.015625 
L 54.890625 0 
L 45.90625 0 
L 45.90625 32.71875 
Q 45.90625 40.484375 42.875 44.328125 
Q 39.84375 48.1875 33.796875 48.1875 
Q 26.515625 48.1875 22.3125 43.546875 
Q 18.109375 38.921875 18.109375 30.90625 
L 18.109375 0 
L 9.078125 0 
L 9.078125 54.6875 
L 18.109375 54.6875 
L 18.109375 46.1875 
Q 21.34375 51.125 25.703125 53.5625 
Q 30.078125 56 35.796875 56 
Q 45.21875 56 50.046875 50.171875 
Q 54.890625 44.34375 54.890625 33.015625 
z
" id="DejaVuSans-110"/>
      <path d="M 8.5 21.578125 
L 8.5 54.6875 
L 17.484375 54.6875 
L 17.484375 21.921875 
Q 17.484375 14.15625 20.5 10.265625 
Q 23.53125 6.390625 29.59375 6.390625 
Q 36.859375 6.390625 41.078125 11.03125 
Q 45.3125 15.671875 45.3125 23.6875 
L 45.3125 54.6875 
L 54.296875 54.6875 
L 54.296875 0 
L 45.3125 0 
L 45.3125 8.40625 
Q 42.046875 3.421875 37.71875 1 
Q 33.40625 -1.421875 27.6875 -1.421875 
Q 18.265625 -1.421875 13.375 4.4375 
Q 8.5 10.296875 8.5 21.578125 
z
M 31.109375 56 
z
" id="DejaVuSans-117"/>
      <path d="M 52 44.1875 
Q 55.375 50.25 60.0625 53.125 
Q 64.75 56 71.09375 56 
Q 79.640625 56 84.28125 50.015625 
Q 88.921875 44.046875 88.921875 33.015625 
L 88.921875 0 
L 79.890625 0 
L 79.890625 32.71875 
Q 79.890625 40.578125 77.09375 44.375 
Q 74.3125 48.1875 68.609375 48.1875 
Q 61.625 48.1875 57.5625 43.546875 
Q 53.515625 38.921875 53.515625 30.90625 
L 53.515625 0 
L 44.484375 0 
L 44.484375 32.71875 
Q 44.484375 40.625 41.703125 44.40625 
Q 38.921875 48.1875 33.109375 48.1875 
Q 26.21875 48.1875 22.15625 43.53125 
Q 18.109375 38.875 18.109375 30.90625 
L 18.109375 0 
L 9.078125 0 
L 9.078125 54.6875 
L 18.109375 54.6875 
L 18.109375 46.1875 
Q 21.1875 51.21875 25.484375 53.609375 
Q 29.78125 56 35.6875 56 
Q 41.65625 56 45.828125 52.96875 
Q 50 49.953125 52 44.1875 
z
" id="DejaVuSans-109"/>
      <path d="M 48.6875 27.296875 
Q 48.6875 37.203125 44.609375 42.84375 
Q 40.53125 48.484375 33.40625 48.484375 
Q 26.265625 48.484375 22.1875 42.84375 
Q 18.109375 37.203125 18.109375 27.296875 
Q 18.109375 17.390625 22.1875 11.75 
Q 26.265625 6.109375 33.40625 6.109375 
Q 40.53125 6.109375 44.609375 11.75 
Q 48.6875 17.390625 48.6875 27.296875 
z
M 18.109375 46.390625 
Q 20.953125 51.265625 25.265625 53.625 
Q 29.59375 56 35.59375 56 
Q 45.5625 56 51.78125 48.09375 
Q 58.015625 40.1875 58.015625 27.296875 
Q 58.015625 14.40625 51.78125 6.484375 
Q 45.5625 -1.421875 35.59375 -1.421875 
Q 29.59375 -1.421875 25.265625 0.953125 
Q 20.953125 3.328125 18.109375 8.203125 
L 18.109375 0 
L 9.078125 0 
L 9.078125 75.984375 
L 18.109375 75.984375 
z
" id="DejaVuSans-98"/>
      <path d="M 56.203125 29.59375 
L 56.203125 25.203125 
L 14.890625 25.203125 
Q 15.484375 15.921875 20.484375 11.0625 
Q 25.484375 6.203125 34.421875 6.203125 
Q 39.59375 6.203125 44.453125 7.46875 
Q 49.3125 8.734375 54.109375 11.28125 
L 54.109375 2.78125 
Q 49.265625 0.734375 44.1875 -0.34375 
Q 39.109375 -1.421875 33.890625 -1.421875 
Q 20.796875 -1.421875 13.15625 6.1875 
Q 5.515625 13.8125 5.515625 26.8125 
Q 5.515625 40.234375 12.765625 48.109375 
Q 20.015625 56 32.328125 56 
Q 43.359375 56 49.78125 48.890625 
Q 56.203125 41.796875 56.203125 29.59375 
z
M 47.21875 32.234375 
Q 47.125 39.59375 43.09375 43.984375 
Q 39.0625 48.390625 32.421875 48.390625 
Q 24.90625 48.390625 20.390625 44.140625 
Q 15.875 39.890625 15.1875 32.171875 
z
" id="DejaVuSans-101"/>
      <path d="M 41.109375 46.296875 
Q 39.59375 47.171875 37.8125 47.578125 
Q 36.03125 48 33.890625 48 
Q 26.265625 48 22.1875 43.046875 
Q 18.109375 38.09375 18.109375 28.8125 
L 18.109375 0 
L 9.078125 0 
L 9.078125 54.6875 
L 18.109375 54.6875 
L 18.109375 46.1875 
Q 20.953125 51.171875 25.484375 53.578125 
Q 30.03125 56 36.53125 56 
Q 37.453125 56 38.578125 55.875 
Q 39.703125 55.765625 41.0625 55.515625 
z
" id="DejaVuSans-114"/>
     </defs>
     <g transform="translate(179.665902 341.371987)scale(0.15 -0.15)">
      <use xlink:href="#DejaVuSans-66"/>
      <use x="68.603516" xlink:href="#DejaVuSans-97"/>
      <use x="129.882812" xlink:href="#DejaVuSans-103"/>
      <use x="193.359375" xlink:href="#DejaVuSans-32"/>
      <use x="225.146484" xlink:href="#DejaVuSans-110"/>
      <use x="288.525391" xlink:href="#DejaVuSans-117"/>
      <use x="351.904297" xlink:href="#DejaVuSans-109"/>
      <use x="449.316406" xlink:href="#DejaVuSans-98"/>
      <use x="512.792969" xlink:href="#DejaVuSans-101"/>
      <use x="574.316406" xlink:href="#DejaVuSans-114"/>
     </g>
    </g>
   </g>
   <g id="matplotlib.axis_2">
    <g id="ytick_1">
     <g id="line2d_7">
      <defs>
       <path d="M 0 0 
L -3.5 0 
" id="m8d90342fa7" style="stroke:#000000;stroke-width:0.8;"/>
      </defs>
      <g>
       <use style="stroke:#000000;stroke-width:0.8;" x="57.291429" xlink:href="#m8d90342fa7" y="302.503159"/>
      </g>
     </g>
     <g id="text_8">
      <!-- 0 -->
      <g transform="translate(40.747679 308.201987)scale(0.15 -0.15)">
       <use xlink:href="#DejaVuSans-48"/>
      </g>
     </g>
    </g>
    <g id="ytick_2">
     <g id="line2d_8">
      <g>
       <use style="stroke:#000000;stroke-width:0.8;" x="57.291429" xlink:href="#m8d90342fa7" y="267.418911"/>
      </g>
     </g>
     <g id="text_9">
      <!-- 20 -->
      <g transform="translate(31.203929 273.117739)scale(0.15 -0.15)">
       <use xlink:href="#DejaVuSans-50"/>
       <use x="63.623047" xlink:href="#DejaVuSans-48"/>
      </g>
     </g>
    </g>
    <g id="ytick_3">
     <g id="line2d_9">
      <g>
       <use style="stroke:#000000;stroke-width:0.8;" x="57.291429" xlink:href="#m8d90342fa7" y="232.334664"/>
      </g>
     </g>
     <g id="text_10">
      <!-- 40 -->
      <g transform="translate(31.203929 238.033492)scale(0.15 -0.15)">
       <use xlink:href="#DejaVuSans-52"/>
       <use x="63.623047" xlink:href="#DejaVuSans-48"/>
      </g>
     </g>
    </g>
    <g id="ytick_4">
     <g id="line2d_10">
      <g>
       <use style="stroke:#000000;stroke-width:0.8;" x="57.291429" xlink:href="#m8d90342fa7" y="197.250416"/>
      </g>
     </g>
     <g id="text_11">
      <!-- 60 -->
      <g transform="translate(31.203929 202.949244)scale(0.15 -0.15)">
       <use xlink:href="#DejaVuSans-54"/>
       <use x="63.623047" xlink:href="#DejaVuSans-48"/>
      </g>
     </g>
    </g>
    <g id="ytick_5">
     <g id="line2d_11">
      <g>
       <use style="stroke:#000000;stroke-width:0.8;" x="57.291429" xlink:href="#m8d90342fa7" y="162.166169"/>
      </g>
     </g>
     <g id="text_12">
      <!-- 80 -->
      <g transform="translate(31.203929 167.864997)scale(0.15 -0.15)">
       <use xlink:href="#DejaVuSans-56"/>
       <use x="63.623047" xlink:href="#DejaVuSans-48"/>
      </g>
     </g>
    </g>
    <g id="ytick_6">
     <g id="line2d_12">
      <g>
       <use style="stroke:#000000;stroke-width:0.8;" x="57.291429" xlink:href="#m8d90342fa7" y="127.081921"/>
      </g>
     </g>
     <g id="text_13">
      <!-- 100 -->
      <g transform="translate(21.660179 132.780749)scale(0.15 -0.15)">
       <use xlink:href="#DejaVuSans-49"/>
       <use x="63.623047" xlink:href="#DejaVuSans-48"/>
       <use x="127.246094" xlink:href="#DejaVuSans-48"/>
      </g>
     </g>
    </g>
    <g id="ytick_7">
     <g id="line2d_13">
      <g>
       <use style="stroke:#000000;stroke-width:0.8;" x="57.291429" xlink:href="#m8d90342fa7" y="91.997674"/>
      </g>
     </g>
     <g id="text_14">
      <!-- 120 -->
      <g transform="translate(21.660179 97.696502)scale(0.15 -0.15)">
       <use xlink:href="#DejaVuSans-49"/>
       <use x="63.623047" xlink:href="#DejaVuSans-50"/>
       <use x="127.246094" xlink:href="#DejaVuSans-48"/>
      </g>
     </g>
    </g>
    <g id="ytick_8">
     <g id="line2d_14">
      <g>
       <use style="stroke:#000000;stroke-width:0.8;" x="57.291429" xlink:href="#m8d90342fa7" y="56.913426"/>
      </g>
     </g>
     <g id="text_15">
      <!-- 140 -->
      <g transform="translate(21.660179 62.612254)scale(0.15 -0.15)">
       <use xlink:href="#DejaVuSans-49"/>
       <use x="63.623047" xlink:href="#DejaVuSans-52"/>
       <use x="127.246094" xlink:href="#DejaVuSans-48"/>
      </g>
     </g>
    </g>
    <g id="text_16">
     <!-- Range error [%] -->
     <defs>
      <path d="M 44.390625 34.1875 
Q 47.5625 33.109375 50.5625 29.59375 
Q 53.5625 26.078125 56.59375 19.921875 
L 66.609375 0 
L 56 0 
L 46.6875 18.703125 
Q 43.0625 26.03125 39.671875 28.421875 
Q 36.28125 30.8125 30.421875 30.8125 
L 19.671875 30.8125 
L 19.671875 0 
L 9.8125 0 
L 9.8125 72.90625 
L 32.078125 72.90625 
Q 44.578125 72.90625 50.734375 67.671875 
Q 56.890625 62.453125 56.890625 51.90625 
Q 56.890625 45.015625 53.6875 40.46875 
Q 50.484375 35.9375 44.390625 34.1875 
z
M 19.671875 64.796875 
L 19.671875 38.921875 
L 32.078125 38.921875 
Q 39.203125 38.921875 42.84375 42.21875 
Q 46.484375 45.515625 46.484375 51.90625 
Q 46.484375 58.296875 42.84375 61.546875 
Q 39.203125 64.796875 32.078125 64.796875 
z
" id="DejaVuSans-82"/>
      <path d="M 30.609375 48.390625 
Q 23.390625 48.390625 19.1875 42.75 
Q 14.984375 37.109375 14.984375 27.296875 
Q 14.984375 17.484375 19.15625 11.84375 
Q 23.34375 6.203125 30.609375 6.203125 
Q 37.796875 6.203125 41.984375 11.859375 
Q 46.1875 17.53125 46.1875 27.296875 
Q 46.1875 37.015625 41.984375 42.703125 
Q 37.796875 48.390625 30.609375 48.390625 
z
M 30.609375 56 
Q 42.328125 56 49.015625 48.375 
Q 55.71875 40.765625 55.71875 27.296875 
Q 55.71875 13.875 49.015625 6.21875 
Q 42.328125 -1.421875 30.609375 -1.421875 
Q 18.84375 -1.421875 12.171875 6.21875 
Q 5.515625 13.875 5.515625 27.296875 
Q 5.515625 40.765625 12.171875 48.375 
Q 18.84375 56 30.609375 56 
z
" id="DejaVuSans-111"/>
      <path d="M 8.59375 75.984375 
L 29.296875 75.984375 
L 29.296875 69 
L 17.578125 69 
L 17.578125 -6.203125 
L 29.296875 -6.203125 
L 29.296875 -13.1875 
L 8.59375 -13.1875 
z
" id="DejaVuSans-91"/>
      <path d="M 72.703125 32.078125 
Q 68.453125 32.078125 66.03125 28.46875 
Q 63.625 24.859375 63.625 18.40625 
Q 63.625 12.0625 66.03125 8.421875 
Q 68.453125 4.78125 72.703125 4.78125 
Q 76.859375 4.78125 79.265625 8.421875 
Q 81.6875 12.0625 81.6875 18.40625 
Q 81.6875 24.8125 79.265625 28.4375 
Q 76.859375 32.078125 72.703125 32.078125 
z
M 72.703125 38.28125 
Q 80.421875 38.28125 84.953125 32.90625 
Q 89.5 27.546875 89.5 18.40625 
Q 89.5 9.28125 84.9375 3.921875 
Q 80.375 -1.421875 72.703125 -1.421875 
Q 64.890625 -1.421875 60.34375 3.921875 
Q 55.8125 9.28125 55.8125 18.40625 
Q 55.8125 27.59375 60.375 32.9375 
Q 64.9375 38.28125 72.703125 38.28125 
z
M 22.3125 68.015625 
Q 18.109375 68.015625 15.6875 64.375 
Q 13.28125 60.75 13.28125 54.390625 
Q 13.28125 47.953125 15.671875 44.328125 
Q 18.0625 40.71875 22.3125 40.71875 
Q 26.5625 40.71875 28.96875 44.328125 
Q 31.390625 47.953125 31.390625 54.390625 
Q 31.390625 60.6875 28.953125 64.34375 
Q 26.515625 68.015625 22.3125 68.015625 
z
M 66.40625 74.21875 
L 74.21875 74.21875 
L 28.609375 -1.421875 
L 20.796875 -1.421875 
z
M 22.3125 74.21875 
Q 30.03125 74.21875 34.609375 68.875 
Q 39.203125 63.53125 39.203125 54.390625 
Q 39.203125 45.171875 34.640625 39.84375 
Q 30.078125 34.515625 22.3125 34.515625 
Q 14.546875 34.515625 10.03125 39.859375 
Q 5.515625 45.21875 5.515625 54.390625 
Q 5.515625 63.484375 10.046875 68.84375 
Q 14.59375 74.21875 22.3125 74.21875 
z
" id="DejaVuSans-37"/>
      <path d="M 30.421875 75.984375 
L 30.421875 -13.1875 
L 9.71875 -13.1875 
L 9.71875 -6.203125 
L 21.390625 -6.203125 
L 21.390625 69 
L 9.71875 69 
L 9.71875 75.984375 
z
" id="DejaVuSans-93"/>
     </defs>
     <g transform="translate(14.540647 224.238616)rotate(-90)scale(0.15 -0.15)">
      <use xlink:href="#DejaVuSans-82"/>
      <use x="67.232422" xlink:href="#DejaVuSans-97"/>
      <use x="128.511719" xlink:href="#DejaVuSans-110"/>
      <use x="191.890625" xlink:href="#DejaVuSans-103"/>
      <use x="255.367188" xlink:href="#DejaVuSans-101"/>
      <use x="316.890625" xlink:href="#DejaVuSans-32"/>
      <use x="348.677734" xlink:href="#DejaVuSans-101"/>
      <use x="410.201172" xlink:href="#DejaVuSans-114"/>
      <use x="449.564453" xlink:href="#DejaVuSans-114"/>
      <use x="488.427734" xlink:href="#DejaVuSans-111"/>
      <use x="549.609375" xlink:href="#DejaVuSans-114"/>
      <use x="590.722656" xlink:href="#DejaVuSans-32"/>
      <use x="622.509766" xlink:href="#DejaVuSans-91"/>
      <use x="661.523438" xlink:href="#DejaVuSans-37"/>
      <use x="756.542969" xlink:href="#DejaVuSans-93"/>
     </g>
    </g>
   </g>
   <g id="line2d_15">
    <path clip-path="url(#pebfb2ae52f)" d="M 57.291429 253.640833 
L 394.356 253.640833 
" style="fill:none;stroke:#ff0000;stroke-linecap:square;stroke-width:1.5;"/>
   </g>
   <g id="patch_3">
    <path d="M 57.291429 304.457143 
L 57.291429 24.685714 
" style="fill:none;stroke:#000000;stroke-linecap:square;stroke-linejoin:miter;stroke-width:0.8;"/>
   </g>
   <g id="patch_4">
    <path d="M 394.356 304.457143 
L 394.356 24.685714 
" style="fill:none;stroke:#000000;stroke-linecap:square;stroke-linejoin:miter;stroke-width:0.8;"/>
   </g>
   <g id="patch_5">
    <path d="M 57.291429 304.457143 
L 394.356 304.457143 
" style="fill:none;stroke:#000000;stroke-linecap:square;stroke-linejoin:miter;stroke-width:0.8;"/>
   </g>
   <g id="patch_6">
    <path d="M 57.291429 24.685714 
L 394.356 24.685714 
" style="fill:none;stroke:#000000;stroke-linecap:square;stroke-linejoin:miter;stroke-width:0.8;"/>
   </g>
   <g id="text_17">
    <!-- Range error all bags -->
    <defs>
     <path d="M 9.421875 75.984375 
L 18.40625 75.984375 
L 18.40625 0 
L 9.421875 0 
z
" id="DejaVuSans-108"/>
     <path d="M 44.28125 53.078125 
L 44.28125 44.578125 
Q 40.484375 46.53125 36.375 47.5 
Q 32.28125 48.484375 27.875 48.484375 
Q 21.1875 48.484375 17.84375 46.4375 
Q 14.5 44.390625 14.5 40.28125 
Q 14.5 37.15625 16.890625 35.375 
Q 19.28125 33.59375 26.515625 31.984375 
L 29.59375 31.296875 
Q 39.15625 29.25 43.1875 25.515625 
Q 47.21875 21.78125 47.21875 15.09375 
Q 47.21875 7.46875 41.1875 3.015625 
Q 35.15625 -1.421875 24.609375 -1.421875 
Q 20.21875 -1.421875 15.453125 -0.5625 
Q 10.6875 0.296875 5.421875 2 
L 5.421875 11.28125 
Q 10.40625 8.6875 15.234375 7.390625 
Q 20.0625 6.109375 24.8125 6.109375 
Q 31.15625 6.109375 34.5625 8.28125 
Q 37.984375 10.453125 37.984375 14.40625 
Q 37.984375 18.0625 35.515625 20.015625 
Q 33.0625 21.96875 24.703125 23.78125 
L 21.578125 24.515625 
Q 13.234375 26.265625 9.515625 29.90625 
Q 5.8125 33.546875 5.8125 39.890625 
Q 5.8125 47.609375 11.28125 51.796875 
Q 16.75 56 26.8125 56 
Q 31.78125 56 36.171875 55.265625 
Q 40.578125 54.546875 44.28125 53.078125 
z
" id="DejaVuSans-115"/>
    </defs>
    <g transform="translate(134.790121 18.685714)scale(0.18 -0.18)">
     <use xlink:href="#DejaVuSans-82"/>
     <use x="67.232422" xlink:href="#DejaVuSans-97"/>
     <use x="128.511719" xlink:href="#DejaVuSans-110"/>
     <use x="191.890625" xlink:href="#DejaVuSans-103"/>
     <use x="255.367188" xlink:href="#DejaVuSans-101"/>
     <use x="316.890625" xlink:href="#DejaVuSans-32"/>
     <use x="348.677734" xlink:href="#DejaVuSans-101"/>
     <use x="410.201172" xlink:href="#DejaVuSans-114"/>
     <use x="449.564453" xlink:href="#DejaVuSans-114"/>
     <use x="488.427734" xlink:href="#DejaVuSans-111"/>
     <use x="549.609375" xlink:href="#DejaVuSans-114"/>
     <use x="590.722656" xlink:href="#DejaVuSans-32"/>
     <use x="622.509766" xlink:href="#DejaVuSans-97"/>
     <use x="683.789062" xlink:href="#DejaVuSans-108"/>
     <use x="711.572266" xlink:href="#DejaVuSans-108"/>
     <use x="739.355469" xlink:href="#DejaVuSans-32"/>
     <use x="771.142578" xlink:href="#DejaVuSans-98"/>
     <use x="834.619141" xlink:href="#DejaVuSans-97"/>
     <use x="895.898438" xlink:href="#DejaVuSans-103"/>
     <use x="959.375" xlink:href="#DejaVuSans-115"/>
    </g>
   </g>
  </g>
 </g>
 <defs>
  <clipPath id="pebfb2ae52f">
   <rect height="279.771429" width="337.064571" x="57.291429" y="24.685714"/>
  </clipPath>
 </defs>
</svg>
