<?xml version="1.0" encoding="utf-8" standalone="no"?>
<!DOCTYPE svg PUBLIC "-//W3C//DTD SVG 1.1//EN"
  "http://www.w3.org/Graphics/SVG/1.1/DTD/svg11.dtd">
<!-- Created with matplotlib (https://matplotlib.org/) -->
<svg height="344.88pt" version="1.1" viewBox="0 0 414.72 344.88" width="414.72pt" xmlns="http://www.w3.org/2000/svg" xmlns:xlink="http://www.w3.org/1999/xlink">
 <defs>
  <style type="text/css">
*{stroke-linecap:butt;stroke-linejoin:round;}
  </style>
 </defs>
 <g id="figure_1">
  <g id="patch_1">
   <path d="M 0 344.88 
L 414.72 344.88 
L 414.72 0 
L 0 0 
z
" style="fill:#ffffff;"/>
  </g>
  <g id="axes_1">
   <g id="patch_2">
    <path d="M 51.84 306.9432 
L 373.248 306.9432 
L 373.248 41.3856 
L 51.84 41.3856 
z
" style="fill:#ffffff;"/>
   </g>
   <g id="PathCollection_1">
    <defs>
     <path d="M 0 3 
C 0.795609 3 1.55874 2.683901 2.12132 2.12132 
C 2.683901 1.55874 3 0.795609 3 0 
C 3 -0.795609 2.683901 -1.55874 2.12132 -2.12132 
C 1.55874 -2.683901 0.795609 -3 0 -3 
C -0.795609 -3 -1.55874 -2.683901 -2.12132 -2.12132 
C -2.683901 -1.55874 -3 -0.795609 -3 0 
C -3 0.795609 -2.683901 1.55874 -2.12132 2.12132 
C -1.55874 2.683901 -0.795609 3 0 3 
z
" id="m84b1c87f5a" style="stroke:#1f77b4;"/>
    </defs>
    <g clip-path="url(#pdaae47f2c6)">
     <use style="fill:#1f77b4;stroke:#1f77b4;" x="66.449455" xlink:href="#m84b1c87f5a" y="93.6924"/>
     <use style="fill:#1f77b4;stroke:#1f77b4;" x="68.646365" xlink:href="#m84b1c87f5a" y="93.6924"/>
     <use style="fill:#1f77b4;stroke:#1f77b4;" x="70.843275" xlink:href="#m84b1c87f5a" y="93.6924"/>
     <use style="fill:#1f77b4;stroke:#1f77b4;" x="73.040186" xlink:href="#m84b1c87f5a" y="93.6924"/>
     <use style="fill:#1f77b4;stroke:#1f77b4;" x="75.237096" xlink:href="#m84b1c87f5a" y="93.6924"/>
     <use style="fill:#1f77b4;stroke:#1f77b4;" x="77.434007" xlink:href="#m84b1c87f5a" y="93.6924"/>
     <use style="fill:#1f77b4;stroke:#1f77b4;" x="79.630917" xlink:href="#m84b1c87f5a" y="93.6924"/>
     <use style="fill:#1f77b4;stroke:#1f77b4;" x="81.827828" xlink:href="#m84b1c87f5a" y="93.6924"/>
     <use style="fill:#1f77b4;stroke:#1f77b4;" x="84.024738" xlink:href="#m84b1c87f5a" y="73.5744"/>
     <use style="fill:#1f77b4;stroke:#1f77b4;" x="86.221649" xlink:href="#m84b1c87f5a" y="73.5744"/>
     <use style="fill:#1f77b4;stroke:#1f77b4;" x="88.418559" xlink:href="#m84b1c87f5a" y="73.5744"/>
     <use style="fill:#1f77b4;stroke:#1f77b4;" x="90.61547" xlink:href="#m84b1c87f5a" y="93.6924"/>
     <use style="fill:#1f77b4;stroke:#1f77b4;" x="92.81238" xlink:href="#m84b1c87f5a" y="93.6924"/>
     <use style="fill:#1f77b4;stroke:#1f77b4;" x="95.00929" xlink:href="#m84b1c87f5a" y="93.6924"/>
     <use style="fill:#1f77b4;stroke:#1f77b4;" x="97.206201" xlink:href="#m84b1c87f5a" y="93.6924"/>
     <use style="fill:#1f77b4;stroke:#1f77b4;" x="99.403111" xlink:href="#m84b1c87f5a" y="93.6924"/>
     <use style="fill:#1f77b4;stroke:#1f77b4;" x="101.600022" xlink:href="#m84b1c87f5a" y="93.6924"/>
     <use style="fill:#1f77b4;stroke:#1f77b4;" x="103.796932" xlink:href="#m84b1c87f5a" y="93.6924"/>
     <use style="fill:#1f77b4;stroke:#1f77b4;" x="105.993843" xlink:href="#m84b1c87f5a" y="73.5744"/>
     <use style="fill:#1f77b4;stroke:#1f77b4;" x="108.190753" xlink:href="#m84b1c87f5a" y="93.6924"/>
     <use style="fill:#1f77b4;stroke:#1f77b4;" x="110.387664" xlink:href="#m84b1c87f5a" y="93.6924"/>
     <use style="fill:#1f77b4;stroke:#1f77b4;" x="112.584574" xlink:href="#m84b1c87f5a" y="93.6924"/>
     <use style="fill:#1f77b4;stroke:#1f77b4;" x="114.781485" xlink:href="#m84b1c87f5a" y="93.6924"/>
     <use style="fill:#1f77b4;stroke:#1f77b4;" x="116.978395" xlink:href="#m84b1c87f5a" y="93.6924"/>
     <use style="fill:#1f77b4;stroke:#1f77b4;" x="119.175306" xlink:href="#m84b1c87f5a" y="93.6924"/>
     <use style="fill:#1f77b4;stroke:#1f77b4;" x="121.372216" xlink:href="#m84b1c87f5a" y="93.6924"/>
     <use style="fill:#1f77b4;stroke:#1f77b4;" x="123.569126" xlink:href="#m84b1c87f5a" y="93.6924"/>
     <use style="fill:#1f77b4;stroke:#1f77b4;" x="125.766037" xlink:href="#m84b1c87f5a" y="93.6924"/>
     <use style="fill:#1f77b4;stroke:#1f77b4;" x="127.962947" xlink:href="#m84b1c87f5a" y="93.6924"/>
     <use style="fill:#1f77b4;stroke:#1f77b4;" x="130.159858" xlink:href="#m84b1c87f5a" y="93.6924"/>
     <use style="fill:#1f77b4;stroke:#1f77b4;" x="132.356768" xlink:href="#m84b1c87f5a" y="294.8724"/>
     <use style="fill:#1f77b4;stroke:#1f77b4;" x="134.553679" xlink:href="#m84b1c87f5a" y="294.8724"/>
     <use style="fill:#1f77b4;stroke:#1f77b4;" x="136.750589" xlink:href="#m84b1c87f5a" y="113.8104"/>
     <use style="fill:#1f77b4;stroke:#1f77b4;" x="138.9475" xlink:href="#m84b1c87f5a" y="93.6924"/>
     <use style="fill:#1f77b4;stroke:#1f77b4;" x="141.14441" xlink:href="#m84b1c87f5a" y="294.8724"/>
     <use style="fill:#1f77b4;stroke:#1f77b4;" x="143.341321" xlink:href="#m84b1c87f5a" y="113.8104"/>
     <use style="fill:#1f77b4;stroke:#1f77b4;" x="145.538231" xlink:href="#m84b1c87f5a" y="113.8104"/>
     <use style="fill:#1f77b4;stroke:#1f77b4;" x="147.735141" xlink:href="#m84b1c87f5a" y="113.8104"/>
     <use style="fill:#1f77b4;stroke:#1f77b4;" x="149.932052" xlink:href="#m84b1c87f5a" y="93.6924"/>
     <use style="fill:#1f77b4;stroke:#1f77b4;" x="152.128962" xlink:href="#m84b1c87f5a" y="113.8104"/>
     <use style="fill:#1f77b4;stroke:#1f77b4;" x="154.325873" xlink:href="#m84b1c87f5a" y="93.6924"/>
     <use style="fill:#1f77b4;stroke:#1f77b4;" x="156.522783" xlink:href="#m84b1c87f5a" y="113.8104"/>
     <use style="fill:#1f77b4;stroke:#1f77b4;" x="158.719694" xlink:href="#m84b1c87f5a" y="113.8104"/>
     <use style="fill:#1f77b4;stroke:#1f77b4;" x="160.916604" xlink:href="#m84b1c87f5a" y="113.8104"/>
     <use style="fill:#1f77b4;stroke:#1f77b4;" x="163.113515" xlink:href="#m84b1c87f5a" y="113.8104"/>
     <use style="fill:#1f77b4;stroke:#1f77b4;" x="165.310425" xlink:href="#m84b1c87f5a" y="113.8104"/>
     <use style="fill:#1f77b4;stroke:#1f77b4;" x="167.507336" xlink:href="#m84b1c87f5a" y="294.8724"/>
     <use style="fill:#1f77b4;stroke:#1f77b4;" x="169.704246" xlink:href="#m84b1c87f5a" y="113.8104"/>
     <use style="fill:#1f77b4;stroke:#1f77b4;" x="171.901157" xlink:href="#m84b1c87f5a" y="113.8104"/>
     <use style="fill:#1f77b4;stroke:#1f77b4;" x="174.098067" xlink:href="#m84b1c87f5a" y="113.8104"/>
     <use style="fill:#1f77b4;stroke:#1f77b4;" x="176.294977" xlink:href="#m84b1c87f5a" y="113.8104"/>
     <use style="fill:#1f77b4;stroke:#1f77b4;" x="178.491888" xlink:href="#m84b1c87f5a" y="113.8104"/>
     <use style="fill:#1f77b4;stroke:#1f77b4;" x="180.688798" xlink:href="#m84b1c87f5a" y="113.8104"/>
     <use style="fill:#1f77b4;stroke:#1f77b4;" x="182.885709" xlink:href="#m84b1c87f5a" y="133.9284"/>
     <use style="fill:#1f77b4;stroke:#1f77b4;" x="185.082619" xlink:href="#m84b1c87f5a" y="133.9284"/>
     <use style="fill:#1f77b4;stroke:#1f77b4;" x="187.27953" xlink:href="#m84b1c87f5a" y="113.8104"/>
     <use style="fill:#1f77b4;stroke:#1f77b4;" x="189.47644" xlink:href="#m84b1c87f5a" y="133.9284"/>
     <use style="fill:#1f77b4;stroke:#1f77b4;" x="191.673351" xlink:href="#m84b1c87f5a" y="133.9284"/>
     <use style="fill:#1f77b4;stroke:#1f77b4;" x="193.870261" xlink:href="#m84b1c87f5a" y="133.9284"/>
     <use style="fill:#1f77b4;stroke:#1f77b4;" x="196.067172" xlink:href="#m84b1c87f5a" y="133.9284"/>
     <use style="fill:#1f77b4;stroke:#1f77b4;" x="198.264082" xlink:href="#m84b1c87f5a" y="133.9284"/>
     <use style="fill:#1f77b4;stroke:#1f77b4;" x="200.460992" xlink:href="#m84b1c87f5a" y="133.9284"/>
     <use style="fill:#1f77b4;stroke:#1f77b4;" x="202.657903" xlink:href="#m84b1c87f5a" y="133.9284"/>
     <use style="fill:#1f77b4;stroke:#1f77b4;" x="204.854813" xlink:href="#m84b1c87f5a" y="133.9284"/>
     <use style="fill:#1f77b4;stroke:#1f77b4;" x="207.051724" xlink:href="#m84b1c87f5a" y="133.9284"/>
     <use style="fill:#1f77b4;stroke:#1f77b4;" x="209.248634" xlink:href="#m84b1c87f5a" y="133.9284"/>
     <use style="fill:#1f77b4;stroke:#1f77b4;" x="211.445545" xlink:href="#m84b1c87f5a" y="133.9284"/>
     <use style="fill:#1f77b4;stroke:#1f77b4;" x="213.642455" xlink:href="#m84b1c87f5a" y="133.9284"/>
     <use style="fill:#1f77b4;stroke:#1f77b4;" x="215.839366" xlink:href="#m84b1c87f5a" y="133.9284"/>
     <use style="fill:#1f77b4;stroke:#1f77b4;" x="218.036276" xlink:href="#m84b1c87f5a" y="133.9284"/>
     <use style="fill:#1f77b4;stroke:#1f77b4;" x="220.233187" xlink:href="#m84b1c87f5a" y="154.0464"/>
     <use style="fill:#1f77b4;stroke:#1f77b4;" x="222.430097" xlink:href="#m84b1c87f5a" y="133.9284"/>
     <use style="fill:#1f77b4;stroke:#1f77b4;" x="224.627008" xlink:href="#m84b1c87f5a" y="154.0464"/>
     <use style="fill:#1f77b4;stroke:#1f77b4;" x="226.823918" xlink:href="#m84b1c87f5a" y="154.0464"/>
     <use style="fill:#1f77b4;stroke:#1f77b4;" x="229.020828" xlink:href="#m84b1c87f5a" y="154.0464"/>
     <use style="fill:#1f77b4;stroke:#1f77b4;" x="231.217739" xlink:href="#m84b1c87f5a" y="154.0464"/>
     <use style="fill:#1f77b4;stroke:#1f77b4;" x="233.414649" xlink:href="#m84b1c87f5a" y="154.0464"/>
     <use style="fill:#1f77b4;stroke:#1f77b4;" x="235.61156" xlink:href="#m84b1c87f5a" y="154.0464"/>
     <use style="fill:#1f77b4;stroke:#1f77b4;" x="237.80847" xlink:href="#m84b1c87f5a" y="174.1644"/>
     <use style="fill:#1f77b4;stroke:#1f77b4;" x="240.005381" xlink:href="#m84b1c87f5a" y="154.0464"/>
     <use style="fill:#1f77b4;stroke:#1f77b4;" x="242.202291" xlink:href="#m84b1c87f5a" y="154.0464"/>
     <use style="fill:#1f77b4;stroke:#1f77b4;" x="244.399202" xlink:href="#m84b1c87f5a" y="174.1644"/>
     <use style="fill:#1f77b4;stroke:#1f77b4;" x="246.596112" xlink:href="#m84b1c87f5a" y="174.1644"/>
     <use style="fill:#1f77b4;stroke:#1f77b4;" x="248.793023" xlink:href="#m84b1c87f5a" y="174.1644"/>
     <use style="fill:#1f77b4;stroke:#1f77b4;" x="250.989933" xlink:href="#m84b1c87f5a" y="174.1644"/>
     <use style="fill:#1f77b4;stroke:#1f77b4;" x="253.186843" xlink:href="#m84b1c87f5a" y="194.2824"/>
     <use style="fill:#1f77b4;stroke:#1f77b4;" x="255.383754" xlink:href="#m84b1c87f5a" y="194.2824"/>
     <use style="fill:#1f77b4;stroke:#1f77b4;" x="257.580664" xlink:href="#m84b1c87f5a" y="194.2824"/>
     <use style="fill:#1f77b4;stroke:#1f77b4;" x="259.777575" xlink:href="#m84b1c87f5a" y="194.2824"/>
     <use style="fill:#1f77b4;stroke:#1f77b4;" x="261.974485" xlink:href="#m84b1c87f5a" y="194.2824"/>
     <use style="fill:#1f77b4;stroke:#1f77b4;" x="264.171396" xlink:href="#m84b1c87f5a" y="194.2824"/>
     <use style="fill:#1f77b4;stroke:#1f77b4;" x="266.368306" xlink:href="#m84b1c87f5a" y="214.4004"/>
     <use style="fill:#1f77b4;stroke:#1f77b4;" x="268.565217" xlink:href="#m84b1c87f5a" y="214.4004"/>
     <use style="fill:#1f77b4;stroke:#1f77b4;" x="270.762127" xlink:href="#m84b1c87f5a" y="214.4004"/>
     <use style="fill:#1f77b4;stroke:#1f77b4;" x="272.959038" xlink:href="#m84b1c87f5a" y="214.4004"/>
     <use style="fill:#1f77b4;stroke:#1f77b4;" x="275.155948" xlink:href="#m84b1c87f5a" y="214.4004"/>
     <use style="fill:#1f77b4;stroke:#1f77b4;" x="277.352859" xlink:href="#m84b1c87f5a" y="214.4004"/>
     <use style="fill:#1f77b4;stroke:#1f77b4;" x="279.549769" xlink:href="#m84b1c87f5a" y="214.4004"/>
     <use style="fill:#1f77b4;stroke:#1f77b4;" x="281.746679" xlink:href="#m84b1c87f5a" y="234.5184"/>
     <use style="fill:#1f77b4;stroke:#1f77b4;" x="283.94359" xlink:href="#m84b1c87f5a" y="234.5184"/>
     <use style="fill:#1f77b4;stroke:#1f77b4;" x="286.1405" xlink:href="#m84b1c87f5a" y="214.4004"/>
     <use style="fill:#1f77b4;stroke:#1f77b4;" x="288.337411" xlink:href="#m84b1c87f5a" y="214.4004"/>
     <use style="fill:#1f77b4;stroke:#1f77b4;" x="290.534321" xlink:href="#m84b1c87f5a" y="234.5184"/>
     <use style="fill:#1f77b4;stroke:#1f77b4;" x="292.731232" xlink:href="#m84b1c87f5a" y="234.5184"/>
     <use style="fill:#1f77b4;stroke:#1f77b4;" x="294.928142" xlink:href="#m84b1c87f5a" y="234.5184"/>
     <use style="fill:#1f77b4;stroke:#1f77b4;" x="297.125053" xlink:href="#m84b1c87f5a" y="234.5184"/>
     <use style="fill:#1f77b4;stroke:#1f77b4;" x="299.321963" xlink:href="#m84b1c87f5a" y="234.5184"/>
     <use style="fill:#1f77b4;stroke:#1f77b4;" x="301.518874" xlink:href="#m84b1c87f5a" y="234.5184"/>
     <use style="fill:#1f77b4;stroke:#1f77b4;" x="303.715784" xlink:href="#m84b1c87f5a" y="254.6364"/>
     <use style="fill:#1f77b4;stroke:#1f77b4;" x="305.912694" xlink:href="#m84b1c87f5a" y="254.6364"/>
     <use style="fill:#1f77b4;stroke:#1f77b4;" x="308.109605" xlink:href="#m84b1c87f5a" y="254.6364"/>
     <use style="fill:#1f77b4;stroke:#1f77b4;" x="310.306515" xlink:href="#m84b1c87f5a" y="254.6364"/>
     <use style="fill:#1f77b4;stroke:#1f77b4;" x="312.503426" xlink:href="#m84b1c87f5a" y="254.6364"/>
     <use style="fill:#1f77b4;stroke:#1f77b4;" x="314.700336" xlink:href="#m84b1c87f5a" y="254.6364"/>
     <use style="fill:#1f77b4;stroke:#1f77b4;" x="316.897247" xlink:href="#m84b1c87f5a" y="254.6364"/>
     <use style="fill:#1f77b4;stroke:#1f77b4;" x="319.094157" xlink:href="#m84b1c87f5a" y="254.6364"/>
     <use style="fill:#1f77b4;stroke:#1f77b4;" x="321.291068" xlink:href="#m84b1c87f5a" y="274.7544"/>
     <use style="fill:#1f77b4;stroke:#1f77b4;" x="323.487978" xlink:href="#m84b1c87f5a" y="254.6364"/>
     <use style="fill:#1f77b4;stroke:#1f77b4;" x="325.684889" xlink:href="#m84b1c87f5a" y="274.7544"/>
     <use style="fill:#1f77b4;stroke:#1f77b4;" x="327.881799" xlink:href="#m84b1c87f5a" y="274.7544"/>
     <use style="fill:#1f77b4;stroke:#1f77b4;" x="330.07871" xlink:href="#m84b1c87f5a" y="274.7544"/>
     <use style="fill:#1f77b4;stroke:#1f77b4;" x="332.27562" xlink:href="#m84b1c87f5a" y="294.8724"/>
     <use style="fill:#1f77b4;stroke:#1f77b4;" x="334.47253" xlink:href="#m84b1c87f5a" y="294.8724"/>
     <use style="fill:#1f77b4;stroke:#1f77b4;" x="336.669441" xlink:href="#m84b1c87f5a" y="294.8724"/>
     <use style="fill:#1f77b4;stroke:#1f77b4;" x="338.866351" xlink:href="#m84b1c87f5a" y="274.7544"/>
     <use style="fill:#1f77b4;stroke:#1f77b4;" x="341.063262" xlink:href="#m84b1c87f5a" y="274.7544"/>
     <use style="fill:#1f77b4;stroke:#1f77b4;" x="343.260172" xlink:href="#m84b1c87f5a" y="274.7544"/>
     <use style="fill:#1f77b4;stroke:#1f77b4;" x="345.457083" xlink:href="#m84b1c87f5a" y="274.7544"/>
     <use style="fill:#1f77b4;stroke:#1f77b4;" x="347.653993" xlink:href="#m84b1c87f5a" y="294.8724"/>
     <use style="fill:#1f77b4;stroke:#1f77b4;" x="349.850904" xlink:href="#m84b1c87f5a" y="294.8724"/>
     <use style="fill:#1f77b4;stroke:#1f77b4;" x="352.047814" xlink:href="#m84b1c87f5a" y="294.8724"/>
     <use style="fill:#1f77b4;stroke:#1f77b4;" x="354.244725" xlink:href="#m84b1c87f5a" y="294.8724"/>
     <use style="fill:#1f77b4;stroke:#1f77b4;" x="356.441635" xlink:href="#m84b1c87f5a" y="274.7544"/>
     <use style="fill:#1f77b4;stroke:#1f77b4;" x="358.638545" xlink:href="#m84b1c87f5a" y="53.4564"/>
    </g>
   </g>
   <g id="PathCollection_2">
    <defs>
     <path d="M 0 3 
C 0.795609 3 1.55874 2.683901 2.12132 2.12132 
C 2.683901 1.55874 3 0.795609 3 0 
C 3 -0.795609 2.683901 -1.55874 2.12132 -2.12132 
C 1.55874 -2.683901 0.795609 -3 0 -3 
C -0.795609 -3 -1.55874 -2.683901 -2.12132 -2.12132 
C -2.683901 -1.55874 -3 -0.795609 -3 0 
C -3 0.795609 -2.683901 1.55874 -2.12132 2.12132 
C -1.55874 2.683901 -0.795609 3 0 3 
z
" id="mdc0c6e479e" style="stroke:#ff7f0e;"/>
    </defs>
    <g clip-path="url(#pdaae47f2c6)">
     <use style="fill:#ff7f0e;stroke:#ff7f0e;" x="66.449455" xlink:href="#mdc0c6e479e" y="84.528542"/>
     <use style="fill:#ff7f0e;stroke:#ff7f0e;" x="68.646365" xlink:href="#mdc0c6e479e" y="84.546232"/>
     <use style="fill:#ff7f0e;stroke:#ff7f0e;" x="70.843275" xlink:href="#mdc0c6e479e" y="84.725576"/>
     <use style="fill:#ff7f0e;stroke:#ff7f0e;" x="73.040186" xlink:href="#mdc0c6e479e" y="84.737444"/>
     <use style="fill:#ff7f0e;stroke:#ff7f0e;" x="75.237096" xlink:href="#mdc0c6e479e" y="84.833126"/>
     <use style="fill:#ff7f0e;stroke:#ff7f0e;" x="77.434007" xlink:href="#mdc0c6e479e" y="84.983523"/>
     <use style="fill:#ff7f0e;stroke:#ff7f0e;" x="79.630917" xlink:href="#mdc0c6e479e" y="85.067776"/>
     <use style="fill:#ff7f0e;stroke:#ff7f0e;" x="81.827828" xlink:href="#mdc0c6e479e" y="85.253763"/>
     <use style="fill:#ff7f0e;stroke:#ff7f0e;" x="84.024738" xlink:href="#mdc0c6e479e" y="85.31305"/>
     <use style="fill:#ff7f0e;stroke:#ff7f0e;" x="86.221649" xlink:href="#mdc0c6e479e" y="85.391397"/>
     <use style="fill:#ff7f0e;stroke:#ff7f0e;" x="88.418559" xlink:href="#mdc0c6e479e" y="85.524554"/>
     <use style="fill:#ff7f0e;stroke:#ff7f0e;" x="90.61547" xlink:href="#mdc0c6e479e" y="85.696226"/>
     <use style="fill:#ff7f0e;stroke:#ff7f0e;" x="92.81238" xlink:href="#mdc0c6e479e" y="85.874707"/>
     <use style="fill:#ff7f0e;stroke:#ff7f0e;" x="95.00929" xlink:href="#mdc0c6e479e" y="85.935853"/>
     <use style="fill:#ff7f0e;stroke:#ff7f0e;" x="97.206201" xlink:href="#mdc0c6e479e" y="85.989342"/>
     <use style="fill:#ff7f0e;stroke:#ff7f0e;" x="99.403111" xlink:href="#mdc0c6e479e" y="86.230332"/>
     <use style="fill:#ff7f0e;stroke:#ff7f0e;" x="101.600022" xlink:href="#mdc0c6e479e" y="86.400304"/>
     <use style="fill:#ff7f0e;stroke:#ff7f0e;" x="103.796932" xlink:href="#mdc0c6e479e" y="86.534675"/>
     <use style="fill:#ff7f0e;stroke:#ff7f0e;" x="105.993843" xlink:href="#mdc0c6e479e" y="86.772074"/>
     <use style="fill:#ff7f0e;stroke:#ff7f0e;" x="108.190753" xlink:href="#mdc0c6e479e" y="86.950254"/>
     <use style="fill:#ff7f0e;stroke:#ff7f0e;" x="110.387664" xlink:href="#mdc0c6e479e" y="87.287607"/>
     <use style="fill:#ff7f0e;stroke:#ff7f0e;" x="112.584574" xlink:href="#mdc0c6e479e" y="87.673141"/>
     <use style="fill:#ff7f0e;stroke:#ff7f0e;" x="114.781485" xlink:href="#mdc0c6e479e" y="88.137387"/>
     <use style="fill:#ff7f0e;stroke:#ff7f0e;" x="116.978395" xlink:href="#mdc0c6e479e" y="88.621567"/>
     <use style="fill:#ff7f0e;stroke:#ff7f0e;" x="119.175306" xlink:href="#mdc0c6e479e" y="89.081795"/>
     <use style="fill:#ff7f0e;stroke:#ff7f0e;" x="121.372216" xlink:href="#mdc0c6e479e" y="89.641427"/>
     <use style="fill:#ff7f0e;stroke:#ff7f0e;" x="123.569126" xlink:href="#mdc0c6e479e" y="90.043406"/>
     <use style="fill:#ff7f0e;stroke:#ff7f0e;" x="125.766037" xlink:href="#mdc0c6e479e" y="90.827851"/>
     <use style="fill:#ff7f0e;stroke:#ff7f0e;" x="127.962947" xlink:href="#mdc0c6e479e" y="91.617118"/>
     <use style="fill:#ff7f0e;stroke:#ff7f0e;" x="130.159858" xlink:href="#mdc0c6e479e" y="92.327243"/>
     <use style="fill:#ff7f0e;stroke:#ff7f0e;" x="132.356768" xlink:href="#mdc0c6e479e" y="92.994731"/>
     <use style="fill:#ff7f0e;stroke:#ff7f0e;" x="134.553679" xlink:href="#mdc0c6e479e" y="93.712596"/>
     <use style="fill:#ff7f0e;stroke:#ff7f0e;" x="136.750589" xlink:href="#mdc0c6e479e" y="94.526152"/>
     <use style="fill:#ff7f0e;stroke:#ff7f0e;" x="138.9475" xlink:href="#mdc0c6e479e" y="95.404821"/>
     <use style="fill:#ff7f0e;stroke:#ff7f0e;" x="141.14441" xlink:href="#mdc0c6e479e" y="96.126258"/>
     <use style="fill:#ff7f0e;stroke:#ff7f0e;" x="143.341321" xlink:href="#mdc0c6e479e" y="96.965844"/>
     <use style="fill:#ff7f0e;stroke:#ff7f0e;" x="145.538231" xlink:href="#mdc0c6e479e" y="97.759408"/>
     <use style="fill:#ff7f0e;stroke:#ff7f0e;" x="147.735141" xlink:href="#mdc0c6e479e" y="98.526343"/>
     <use style="fill:#ff7f0e;stroke:#ff7f0e;" x="149.932052" xlink:href="#mdc0c6e479e" y="99.369084"/>
     <use style="fill:#ff7f0e;stroke:#ff7f0e;" x="152.128962" xlink:href="#mdc0c6e479e" y="100.325966"/>
     <use style="fill:#ff7f0e;stroke:#ff7f0e;" x="154.325873" xlink:href="#mdc0c6e479e" y="101.160519"/>
     <use style="fill:#ff7f0e;stroke:#ff7f0e;" x="156.522783" xlink:href="#mdc0c6e479e" y="101.99421"/>
     <use style="fill:#ff7f0e;stroke:#ff7f0e;" x="158.719694" xlink:href="#mdc0c6e479e" y="102.826594"/>
     <use style="fill:#ff7f0e;stroke:#ff7f0e;" x="160.916604" xlink:href="#mdc0c6e479e" y="103.676936"/>
     <use style="fill:#ff7f0e;stroke:#ff7f0e;" x="163.113515" xlink:href="#mdc0c6e479e" y="104.691698"/>
     <use style="fill:#ff7f0e;stroke:#ff7f0e;" x="165.310425" xlink:href="#mdc0c6e479e" y="105.572325"/>
     <use style="fill:#ff7f0e;stroke:#ff7f0e;" x="167.507336" xlink:href="#mdc0c6e479e" y="106.474505"/>
     <use style="fill:#ff7f0e;stroke:#ff7f0e;" x="169.704246" xlink:href="#mdc0c6e479e" y="107.384527"/>
     <use style="fill:#ff7f0e;stroke:#ff7f0e;" x="171.901157" xlink:href="#mdc0c6e479e" y="108.274845"/>
     <use style="fill:#ff7f0e;stroke:#ff7f0e;" x="174.098067" xlink:href="#mdc0c6e479e" y="109.25537"/>
     <use style="fill:#ff7f0e;stroke:#ff7f0e;" x="176.294977" xlink:href="#mdc0c6e479e" y="110.407008"/>
     <use style="fill:#ff7f0e;stroke:#ff7f0e;" x="178.491888" xlink:href="#mdc0c6e479e" y="111.395605"/>
     <use style="fill:#ff7f0e;stroke:#ff7f0e;" x="180.688798" xlink:href="#mdc0c6e479e" y="112.466375"/>
     <use style="fill:#ff7f0e;stroke:#ff7f0e;" x="182.885709" xlink:href="#mdc0c6e479e" y="113.53651"/>
     <use style="fill:#ff7f0e;stroke:#ff7f0e;" x="185.082619" xlink:href="#mdc0c6e479e" y="114.551922"/>
     <use style="fill:#ff7f0e;stroke:#ff7f0e;" x="187.27953" xlink:href="#mdc0c6e479e" y="115.686363"/>
     <use style="fill:#ff7f0e;stroke:#ff7f0e;" x="189.47644" xlink:href="#mdc0c6e479e" y="117.054238"/>
     <use style="fill:#ff7f0e;stroke:#ff7f0e;" x="191.673351" xlink:href="#mdc0c6e479e" y="118.296953"/>
     <use style="fill:#ff7f0e;stroke:#ff7f0e;" x="193.870261" xlink:href="#mdc0c6e479e" y="119.436734"/>
     <use style="fill:#ff7f0e;stroke:#ff7f0e;" x="196.067172" xlink:href="#mdc0c6e479e" y="120.737046"/>
     <use style="fill:#ff7f0e;stroke:#ff7f0e;" x="198.264082" xlink:href="#mdc0c6e479e" y="122.064577"/>
     <use style="fill:#ff7f0e;stroke:#ff7f0e;" x="200.460992" xlink:href="#mdc0c6e479e" y="123.344056"/>
     <use style="fill:#ff7f0e;stroke:#ff7f0e;" x="202.657903" xlink:href="#mdc0c6e479e" y="125.048842"/>
     <use style="fill:#ff7f0e;stroke:#ff7f0e;" x="204.854813" xlink:href="#mdc0c6e479e" y="126.481177"/>
     <use style="fill:#ff7f0e;stroke:#ff7f0e;" x="207.051724" xlink:href="#mdc0c6e479e" y="127.672403"/>
     <use style="fill:#ff7f0e;stroke:#ff7f0e;" x="209.248634" xlink:href="#mdc0c6e479e" y="129.442351"/>
     <use style="fill:#ff7f0e;stroke:#ff7f0e;" x="211.445545" xlink:href="#mdc0c6e479e" y="131.084589"/>
     <use style="fill:#ff7f0e;stroke:#ff7f0e;" x="213.642455" xlink:href="#mdc0c6e479e" y="133.083998"/>
     <use style="fill:#ff7f0e;stroke:#ff7f0e;" x="215.839366" xlink:href="#mdc0c6e479e" y="134.797097"/>
     <use style="fill:#ff7f0e;stroke:#ff7f0e;" x="218.036276" xlink:href="#mdc0c6e479e" y="136.585187"/>
     <use style="fill:#ff7f0e;stroke:#ff7f0e;" x="220.233187" xlink:href="#mdc0c6e479e" y="138.409413"/>
     <use style="fill:#ff7f0e;stroke:#ff7f0e;" x="222.430097" xlink:href="#mdc0c6e479e" y="140.299681"/>
     <use style="fill:#ff7f0e;stroke:#ff7f0e;" x="224.627008" xlink:href="#mdc0c6e479e" y="142.652593"/>
     <use style="fill:#ff7f0e;stroke:#ff7f0e;" x="226.823918" xlink:href="#mdc0c6e479e" y="144.68146"/>
     <use style="fill:#ff7f0e;stroke:#ff7f0e;" x="229.020828" xlink:href="#mdc0c6e479e" y="146.763385"/>
     <use style="fill:#ff7f0e;stroke:#ff7f0e;" x="231.217739" xlink:href="#mdc0c6e479e" y="148.910733"/>
     <use style="fill:#ff7f0e;stroke:#ff7f0e;" x="233.414649" xlink:href="#mdc0c6e479e" y="151.120994"/>
     <use style="fill:#ff7f0e;stroke:#ff7f0e;" x="235.61156" xlink:href="#mdc0c6e479e" y="153.39124"/>
     <use style="fill:#ff7f0e;stroke:#ff7f0e;" x="237.80847" xlink:href="#mdc0c6e479e" y="156.160738"/>
     <use style="fill:#ff7f0e;stroke:#ff7f0e;" x="240.005381" xlink:href="#mdc0c6e479e" y="158.545492"/>
     <use style="fill:#ff7f0e;stroke:#ff7f0e;" x="242.202291" xlink:href="#mdc0c6e479e" y="160.866151"/>
     <use style="fill:#ff7f0e;stroke:#ff7f0e;" x="244.399202" xlink:href="#mdc0c6e479e" y="163.451743"/>
     <use style="fill:#ff7f0e;stroke:#ff7f0e;" x="246.596112" xlink:href="#mdc0c6e479e" y="165.975503"/>
     <use style="fill:#ff7f0e;stroke:#ff7f0e;" x="248.793023" xlink:href="#mdc0c6e479e" y="168.554667"/>
     <use style="fill:#ff7f0e;stroke:#ff7f0e;" x="250.989933" xlink:href="#mdc0c6e479e" y="171.689779"/>
     <use style="fill:#ff7f0e;stroke:#ff7f0e;" x="253.186843" xlink:href="#mdc0c6e479e" y="174.35359"/>
     <use style="fill:#ff7f0e;stroke:#ff7f0e;" x="255.383754" xlink:href="#mdc0c6e479e" y="177.046423"/>
     <use style="fill:#ff7f0e;stroke:#ff7f0e;" x="257.580664" xlink:href="#mdc0c6e479e" y="179.76343"/>
     <use style="fill:#ff7f0e;stroke:#ff7f0e;" x="259.777575" xlink:href="#mdc0c6e479e" y="182.510653"/>
     <use style="fill:#ff7f0e;stroke:#ff7f0e;" x="261.974485" xlink:href="#mdc0c6e479e" y="185.645082"/>
     <use style="fill:#ff7f0e;stroke:#ff7f0e;" x="264.171396" xlink:href="#mdc0c6e479e" y="188.560302"/>
     <use style="fill:#ff7f0e;stroke:#ff7f0e;" x="266.368306" xlink:href="#mdc0c6e479e" y="191.358527"/>
     <use style="fill:#ff7f0e;stroke:#ff7f0e;" x="268.565217" xlink:href="#mdc0c6e479e" y="194.106061"/>
     <use style="fill:#ff7f0e;stroke:#ff7f0e;" x="270.762127" xlink:href="#mdc0c6e479e" y="196.889162"/>
     <use style="fill:#ff7f0e;stroke:#ff7f0e;" x="272.959038" xlink:href="#mdc0c6e479e" y="199.515011"/>
     <use style="fill:#ff7f0e;stroke:#ff7f0e;" x="275.155948" xlink:href="#mdc0c6e479e" y="202.860803"/>
     <use style="fill:#ff7f0e;stroke:#ff7f0e;" x="277.352859" xlink:href="#mdc0c6e479e" y="205.54747"/>
     <use style="fill:#ff7f0e;stroke:#ff7f0e;" x="279.549769" xlink:href="#mdc0c6e479e" y="208.193482"/>
     <use style="fill:#ff7f0e;stroke:#ff7f0e;" x="281.746679" xlink:href="#mdc0c6e479e" y="210.614352"/>
     <use style="fill:#ff7f0e;stroke:#ff7f0e;" x="283.94359" xlink:href="#mdc0c6e479e" y="213.371724"/>
     <use style="fill:#ff7f0e;stroke:#ff7f0e;" x="286.1405" xlink:href="#mdc0c6e479e" y="216.403845"/>
     <use style="fill:#ff7f0e;stroke:#ff7f0e;" x="288.337411" xlink:href="#mdc0c6e479e" y="218.817346"/>
     <use style="fill:#ff7f0e;stroke:#ff7f0e;" x="290.534321" xlink:href="#mdc0c6e479e" y="221.270448"/>
     <use style="fill:#ff7f0e;stroke:#ff7f0e;" x="292.731232" xlink:href="#mdc0c6e479e" y="223.768408"/>
     <use style="fill:#ff7f0e;stroke:#ff7f0e;" x="294.928142" xlink:href="#mdc0c6e479e" y="225.92132"/>
     <use style="fill:#ff7f0e;stroke:#ff7f0e;" x="297.125053" xlink:href="#mdc0c6e479e" y="228.492627"/>
     <use style="fill:#ff7f0e;stroke:#ff7f0e;" x="299.321963" xlink:href="#mdc0c6e479e" y="231.305597"/>
     <use style="fill:#ff7f0e;stroke:#ff7f0e;" x="301.518874" xlink:href="#mdc0c6e479e" y="233.604543"/>
     <use style="fill:#ff7f0e;stroke:#ff7f0e;" x="303.715784" xlink:href="#mdc0c6e479e" y="235.91151"/>
     <use style="fill:#ff7f0e;stroke:#ff7f0e;" x="305.912694" xlink:href="#mdc0c6e479e" y="238.083056"/>
     <use style="fill:#ff7f0e;stroke:#ff7f0e;" x="308.109605" xlink:href="#mdc0c6e479e" y="240.270065"/>
     <use style="fill:#ff7f0e;stroke:#ff7f0e;" x="310.306515" xlink:href="#mdc0c6e479e" y="242.75922"/>
     <use style="fill:#ff7f0e;stroke:#ff7f0e;" x="312.503426" xlink:href="#mdc0c6e479e" y="245.389924"/>
     <use style="fill:#ff7f0e;stroke:#ff7f0e;" x="314.700336" xlink:href="#mdc0c6e479e" y="247.633723"/>
     <use style="fill:#ff7f0e;stroke:#ff7f0e;" x="316.897247" xlink:href="#mdc0c6e479e" y="250.013846"/>
     <use style="fill:#ff7f0e;stroke:#ff7f0e;" x="319.094157" xlink:href="#mdc0c6e479e" y="252.281614"/>
     <use style="fill:#ff7f0e;stroke:#ff7f0e;" x="321.291068" xlink:href="#mdc0c6e479e" y="254.575827"/>
     <use style="fill:#ff7f0e;stroke:#ff7f0e;" x="323.487978" xlink:href="#mdc0c6e479e" y="257.187467"/>
     <use style="fill:#ff7f0e;stroke:#ff7f0e;" x="325.684889" xlink:href="#mdc0c6e479e" y="259.611161"/>
     <use style="fill:#ff7f0e;stroke:#ff7f0e;" x="327.881799" xlink:href="#mdc0c6e479e" y="261.903873"/>
     <use style="fill:#ff7f0e;stroke:#ff7f0e;" x="330.07871" xlink:href="#mdc0c6e479e" y="264.087733"/>
     <use style="fill:#ff7f0e;stroke:#ff7f0e;" x="332.27562" xlink:href="#mdc0c6e479e" y="266.372782"/>
     <use style="fill:#ff7f0e;stroke:#ff7f0e;" x="334.47253" xlink:href="#mdc0c6e479e" y="268.708786"/>
     <use style="fill:#ff7f0e;stroke:#ff7f0e;" x="336.669441" xlink:href="#mdc0c6e479e" y="271.400843"/>
     <use style="fill:#ff7f0e;stroke:#ff7f0e;" x="338.866351" xlink:href="#mdc0c6e479e" y="273.586879"/>
     <use style="fill:#ff7f0e;stroke:#ff7f0e;" x="341.063262" xlink:href="#mdc0c6e479e" y="275.749548"/>
     <use style="fill:#ff7f0e;stroke:#ff7f0e;" x="343.260172" xlink:href="#mdc0c6e479e" y="277.847322"/>
     <use style="fill:#ff7f0e;stroke:#ff7f0e;" x="345.457083" xlink:href="#mdc0c6e479e" y="280.076948"/>
     <use style="fill:#ff7f0e;stroke:#ff7f0e;" x="347.653993" xlink:href="#mdc0c6e479e" y="282.454232"/>
     <use style="fill:#ff7f0e;stroke:#ff7f0e;" x="349.850904" xlink:href="#mdc0c6e479e" y="284.346725"/>
     <use style="fill:#ff7f0e;stroke:#ff7f0e;" x="352.047814" xlink:href="#mdc0c6e479e" y="286.156311"/>
     <use style="fill:#ff7f0e;stroke:#ff7f0e;" x="354.244725" xlink:href="#mdc0c6e479e" y="287.845367"/>
     <use style="fill:#ff7f0e;stroke:#ff7f0e;" x="356.441635" xlink:href="#mdc0c6e479e" y="289.388208"/>
     <use style="fill:#ff7f0e;stroke:#ff7f0e;" x="358.638545" xlink:href="#mdc0c6e479e" y="290.853603"/>
    </g>
   </g>
   <g id="matplotlib.axis_1">
    <g id="xtick_1">
     <g id="line2d_1">
      <defs>
       <path d="M 0 0 
L 0 3.5 
" id="mb44b093ff7" style="stroke:#000000;stroke-width:0.8;"/>
      </defs>
      <g>
       <use style="stroke:#000000;stroke-width:0.8;" x="66.449455" xlink:href="#mb44b093ff7" y="306.9432"/>
      </g>
     </g>
     <g id="text_1">
      <!-- 0 -->
      <defs>
       <path d="M 31.78125 66.40625 
Q 24.171875 66.40625 20.328125 58.90625 
Q 16.5 51.421875 16.5 36.375 
Q 16.5 21.390625 20.328125 13.890625 
Q 24.171875 6.390625 31.78125 6.390625 
Q 39.453125 6.390625 43.28125 13.890625 
Q 47.125 21.390625 47.125 36.375 
Q 47.125 51.421875 43.28125 58.90625 
Q 39.453125 66.40625 31.78125 66.40625 
z
M 31.78125 74.21875 
Q 44.046875 74.21875 50.515625 64.515625 
Q 56.984375 54.828125 56.984375 36.375 
Q 56.984375 17.96875 50.515625 8.265625 
Q 44.046875 -1.421875 31.78125 -1.421875 
Q 19.53125 -1.421875 13.0625 8.265625 
Q 6.59375 17.96875 6.59375 36.375 
Q 6.59375 54.828125 13.0625 64.515625 
Q 19.53125 74.21875 31.78125 74.21875 
z
" id="DejaVuSans-48"/>
      </defs>
      <g transform="translate(63.268205 321.541637)scale(0.1 -0.1)">
       <use xlink:href="#DejaVuSans-48"/>
      </g>
     </g>
    </g>
    <g id="xtick_2">
     <g id="line2d_2">
      <g>
       <use style="stroke:#000000;stroke-width:0.8;" x="133.915944" xlink:href="#mb44b093ff7" y="306.9432"/>
      </g>
     </g>
     <g id="text_2">
      <!-- 2 -->
      <defs>
       <path d="M 19.1875 8.296875 
L 53.609375 8.296875 
L 53.609375 0 
L 7.328125 0 
L 7.328125 8.296875 
Q 12.9375 14.109375 22.625 23.890625 
Q 32.328125 33.6875 34.8125 36.53125 
Q 39.546875 41.84375 41.421875 45.53125 
Q 43.3125 49.21875 43.3125 52.78125 
Q 43.3125 58.59375 39.234375 62.25 
Q 35.15625 65.921875 28.609375 65.921875 
Q 23.96875 65.921875 18.8125 64.3125 
Q 13.671875 62.703125 7.8125 59.421875 
L 7.8125 69.390625 
Q 13.765625 71.78125 18.9375 73 
Q 24.125 74.21875 28.421875 74.21875 
Q 39.75 74.21875 46.484375 68.546875 
Q 53.21875 62.890625 53.21875 53.421875 
Q 53.21875 48.921875 51.53125 44.890625 
Q 49.859375 40.875 45.40625 35.40625 
Q 44.1875 33.984375 37.640625 27.21875 
Q 31.109375 20.453125 19.1875 8.296875 
z
" id="DejaVuSans-50"/>
      </defs>
      <g transform="translate(130.734694 321.541637)scale(0.1 -0.1)">
       <use xlink:href="#DejaVuSans-50"/>
      </g>
     </g>
    </g>
    <g id="xtick_3">
     <g id="line2d_3">
      <g>
       <use style="stroke:#000000;stroke-width:0.8;" x="201.382434" xlink:href="#mb44b093ff7" y="306.9432"/>
      </g>
     </g>
     <g id="text_3">
      <!-- 4 -->
      <defs>
       <path d="M 37.796875 64.3125 
L 12.890625 25.390625 
L 37.796875 25.390625 
z
M 35.203125 72.90625 
L 47.609375 72.90625 
L 47.609375 25.390625 
L 58.015625 25.390625 
L 58.015625 17.1875 
L 47.609375 17.1875 
L 47.609375 0 
L 37.796875 0 
L 37.796875 17.1875 
L 4.890625 17.1875 
L 4.890625 26.703125 
z
" id="DejaVuSans-52"/>
      </defs>
      <g transform="translate(198.201184 321.541637)scale(0.1 -0.1)">
       <use xlink:href="#DejaVuSans-52"/>
      </g>
     </g>
    </g>
    <g id="xtick_4">
     <g id="line2d_4">
      <g>
       <use style="stroke:#000000;stroke-width:0.8;" x="268.848924" xlink:href="#mb44b093ff7" y="306.9432"/>
      </g>
     </g>
     <g id="text_4">
      <!-- 6 -->
      <defs>
       <path d="M 33.015625 40.375 
Q 26.375 40.375 22.484375 35.828125 
Q 18.609375 31.296875 18.609375 23.390625 
Q 18.609375 15.53125 22.484375 10.953125 
Q 26.375 6.390625 33.015625 6.390625 
Q 39.65625 6.390625 43.53125 10.953125 
Q 47.40625 15.53125 47.40625 23.390625 
Q 47.40625 31.296875 43.53125 35.828125 
Q 39.65625 40.375 33.015625 40.375 
z
M 52.59375 71.296875 
L 52.59375 62.3125 
Q 48.875 64.0625 45.09375 64.984375 
Q 41.3125 65.921875 37.59375 65.921875 
Q 27.828125 65.921875 22.671875 59.328125 
Q 17.53125 52.734375 16.796875 39.40625 
Q 19.671875 43.65625 24.015625 45.921875 
Q 28.375 48.1875 33.59375 48.1875 
Q 44.578125 48.1875 50.953125 41.515625 
Q 57.328125 34.859375 57.328125 23.390625 
Q 57.328125 12.15625 50.6875 5.359375 
Q 44.046875 -1.421875 33.015625 -1.421875 
Q 20.359375 -1.421875 13.671875 8.265625 
Q 6.984375 17.96875 6.984375 36.375 
Q 6.984375 53.65625 15.1875 63.9375 
Q 23.390625 74.21875 37.203125 74.21875 
Q 40.921875 74.21875 44.703125 73.484375 
Q 48.484375 72.75 52.59375 71.296875 
z
" id="DejaVuSans-54"/>
      </defs>
      <g transform="translate(265.667674 321.541637)scale(0.1 -0.1)">
       <use xlink:href="#DejaVuSans-54"/>
      </g>
     </g>
    </g>
    <g id="xtick_5">
     <g id="line2d_5">
      <g>
       <use style="stroke:#000000;stroke-width:0.8;" x="336.315414" xlink:href="#mb44b093ff7" y="306.9432"/>
      </g>
     </g>
     <g id="text_5">
      <!-- 8 -->
      <defs>
       <path d="M 31.78125 34.625 
Q 24.75 34.625 20.71875 30.859375 
Q 16.703125 27.09375 16.703125 20.515625 
Q 16.703125 13.921875 20.71875 10.15625 
Q 24.75 6.390625 31.78125 6.390625 
Q 38.8125 6.390625 42.859375 10.171875 
Q 46.921875 13.96875 46.921875 20.515625 
Q 46.921875 27.09375 42.890625 30.859375 
Q 38.875 34.625 31.78125 34.625 
z
M 21.921875 38.8125 
Q 15.578125 40.375 12.03125 44.71875 
Q 8.5 49.078125 8.5 55.328125 
Q 8.5 64.0625 14.71875 69.140625 
Q 20.953125 74.21875 31.78125 74.21875 
Q 42.671875 74.21875 48.875 69.140625 
Q 55.078125 64.0625 55.078125 55.328125 
Q 55.078125 49.078125 51.53125 44.71875 
Q 48 40.375 41.703125 38.8125 
Q 48.828125 37.15625 52.796875 32.3125 
Q 56.78125 27.484375 56.78125 20.515625 
Q 56.78125 9.90625 50.3125 4.234375 
Q 43.84375 -1.421875 31.78125 -1.421875 
Q 19.734375 -1.421875 13.25 4.234375 
Q 6.78125 9.90625 6.78125 20.515625 
Q 6.78125 27.484375 10.78125 32.3125 
Q 14.796875 37.15625 21.921875 38.8125 
z
M 18.3125 54.390625 
Q 18.3125 48.734375 21.84375 45.5625 
Q 25.390625 42.390625 31.78125 42.390625 
Q 38.140625 42.390625 41.71875 45.5625 
Q 45.3125 48.734375 45.3125 54.390625 
Q 45.3125 60.0625 41.71875 63.234375 
Q 38.140625 66.40625 31.78125 66.40625 
Q 25.390625 66.40625 21.84375 63.234375 
Q 18.3125 60.0625 18.3125 54.390625 
z
" id="DejaVuSans-56"/>
      </defs>
      <g transform="translate(333.134164 321.541637)scale(0.1 -0.1)">
       <use xlink:href="#DejaVuSans-56"/>
      </g>
     </g>
    </g>
    <g id="text_6">
     <!-- time [s] -->
     <defs>
      <path d="M 18.3125 70.21875 
L 18.3125 54.6875 
L 36.8125 54.6875 
L 36.8125 47.703125 
L 18.3125 47.703125 
L 18.3125 18.015625 
Q 18.3125 11.328125 20.140625 9.421875 
Q 21.96875 7.515625 27.59375 7.515625 
L 36.8125 7.515625 
L 36.8125 0 
L 27.59375 0 
Q 17.1875 0 13.234375 3.875 
Q 9.28125 7.765625 9.28125 18.015625 
L 9.28125 47.703125 
L 2.6875 47.703125 
L 2.6875 54.6875 
L 9.28125 54.6875 
L 9.28125 70.21875 
z
" id="DejaVuSans-116"/>
      <path d="M 9.421875 54.6875 
L 18.40625 54.6875 
L 18.40625 0 
L 9.421875 0 
z
M 9.421875 75.984375 
L 18.40625 75.984375 
L 18.40625 64.59375 
L 9.421875 64.59375 
z
" id="DejaVuSans-105"/>
      <path d="M 52 44.1875 
Q 55.375 50.25 60.0625 53.125 
Q 64.75 56 71.09375 56 
Q 79.640625 56 84.28125 50.015625 
Q 88.921875 44.046875 88.921875 33.015625 
L 88.921875 0 
L 79.890625 0 
L 79.890625 32.71875 
Q 79.890625 40.578125 77.09375 44.375 
Q 74.3125 48.1875 68.609375 48.1875 
Q 61.625 48.1875 57.5625 43.546875 
Q 53.515625 38.921875 53.515625 30.90625 
L 53.515625 0 
L 44.484375 0 
L 44.484375 32.71875 
Q 44.484375 40.625 41.703125 44.40625 
Q 38.921875 48.1875 33.109375 48.1875 
Q 26.21875 48.1875 22.15625 43.53125 
Q 18.109375 38.875 18.109375 30.90625 
L 18.109375 0 
L 9.078125 0 
L 9.078125 54.6875 
L 18.109375 54.6875 
L 18.109375 46.1875 
Q 21.1875 51.21875 25.484375 53.609375 
Q 29.78125 56 35.6875 56 
Q 41.65625 56 45.828125 52.96875 
Q 50 49.953125 52 44.1875 
z
" id="DejaVuSans-109"/>
      <path d="M 56.203125 29.59375 
L 56.203125 25.203125 
L 14.890625 25.203125 
Q 15.484375 15.921875 20.484375 11.0625 
Q 25.484375 6.203125 34.421875 6.203125 
Q 39.59375 6.203125 44.453125 7.46875 
Q 49.3125 8.734375 54.109375 11.28125 
L 54.109375 2.78125 
Q 49.265625 0.734375 44.1875 -0.34375 
Q 39.109375 -1.421875 33.890625 -1.421875 
Q 20.796875 -1.421875 13.15625 6.1875 
Q 5.515625 13.8125 5.515625 26.8125 
Q 5.515625 40.234375 12.765625 48.109375 
Q 20.015625 56 32.328125 56 
Q 43.359375 56 49.78125 48.890625 
Q 56.203125 41.796875 56.203125 29.59375 
z
M 47.21875 32.234375 
Q 47.125 39.59375 43.09375 43.984375 
Q 39.0625 48.390625 32.421875 48.390625 
Q 24.90625 48.390625 20.390625 44.140625 
Q 15.875 39.890625 15.1875 32.171875 
z
" id="DejaVuSans-101"/>
      <path id="DejaVuSans-32"/>
      <path d="M 8.59375 75.984375 
L 29.296875 75.984375 
L 29.296875 69 
L 17.578125 69 
L 17.578125 -6.203125 
L 29.296875 -6.203125 
L 29.296875 -13.1875 
L 8.59375 -13.1875 
z
" id="DejaVuSans-91"/>
      <path d="M 44.28125 53.078125 
L 44.28125 44.578125 
Q 40.484375 46.53125 36.375 47.5 
Q 32.28125 48.484375 27.875 48.484375 
Q 21.1875 48.484375 17.84375 46.4375 
Q 14.5 44.390625 14.5 40.28125 
Q 14.5 37.15625 16.890625 35.375 
Q 19.28125 33.59375 26.515625 31.984375 
L 29.59375 31.296875 
Q 39.15625 29.25 43.1875 25.515625 
Q 47.21875 21.78125 47.21875 15.09375 
Q 47.21875 7.46875 41.1875 3.015625 
Q 35.15625 -1.421875 24.609375 -1.421875 
Q 20.21875 -1.421875 15.453125 -0.5625 
Q 10.6875 0.296875 5.421875 2 
L 5.421875 11.28125 
Q 10.40625 8.6875 15.234375 7.390625 
Q 20.0625 6.109375 24.8125 6.109375 
Q 31.15625 6.109375 34.5625 8.28125 
Q 37.984375 10.453125 37.984375 14.40625 
Q 37.984375 18.0625 35.515625 20.015625 
Q 33.0625 21.96875 24.703125 23.78125 
L 21.578125 24.515625 
Q 13.234375 26.265625 9.515625 29.90625 
Q 5.8125 33.546875 5.8125 39.890625 
Q 5.8125 47.609375 11.28125 51.796875 
Q 16.75 56 26.8125 56 
Q 31.78125 56 36.171875 55.265625 
Q 40.578125 54.546875 44.28125 53.078125 
z
" id="DejaVuSans-115"/>
      <path d="M 30.421875 75.984375 
L 30.421875 -13.1875 
L 9.71875 -13.1875 
L 9.71875 -6.203125 
L 21.390625 -6.203125 
L 21.390625 69 
L 9.71875 69 
L 9.71875 75.984375 
z
" id="DejaVuSans-93"/>
     </defs>
     <g transform="translate(193.152594 335.219763)scale(0.1 -0.1)">
      <use xlink:href="#DejaVuSans-116"/>
      <use x="39.208984" xlink:href="#DejaVuSans-105"/>
      <use x="66.992188" xlink:href="#DejaVuSans-109"/>
      <use x="164.404297" xlink:href="#DejaVuSans-101"/>
      <use x="225.927734" xlink:href="#DejaVuSans-32"/>
      <use x="257.714844" xlink:href="#DejaVuSans-91"/>
      <use x="296.728516" xlink:href="#DejaVuSans-115"/>
      <use x="348.828125" xlink:href="#DejaVuSans-93"/>
     </g>
    </g>
   </g>
   <g id="matplotlib.axis_2">
    <g id="ytick_1">
     <g id="line2d_6">
      <defs>
       <path d="M 0 0 
L -3.5 0 
" id="m6d3043c540" style="stroke:#000000;stroke-width:0.8;"/>
      </defs>
      <g>
       <use style="stroke:#000000;stroke-width:0.8;" x="51.84" xlink:href="#m6d3043c540" y="263.48832"/>
      </g>
     </g>
     <g id="text_7">
      <!-- 1 -->
      <defs>
       <path d="M 12.40625 8.296875 
L 28.515625 8.296875 
L 28.515625 63.921875 
L 10.984375 60.40625 
L 10.984375 69.390625 
L 28.421875 72.90625 
L 38.28125 72.90625 
L 38.28125 8.296875 
L 54.390625 8.296875 
L 54.390625 0 
L 12.40625 0 
z
" id="DejaVuSans-49"/>
      </defs>
      <g transform="translate(38.4775 267.287539)scale(0.1 -0.1)">
       <use xlink:href="#DejaVuSans-49"/>
      </g>
     </g>
    </g>
    <g id="ytick_2">
     <g id="line2d_7">
      <g>
       <use style="stroke:#000000;stroke-width:0.8;" x="51.84" xlink:href="#m6d3043c540" y="211.98624"/>
      </g>
     </g>
     <g id="text_8">
      <!-- 2 -->
      <g transform="translate(38.4775 215.785459)scale(0.1 -0.1)">
       <use xlink:href="#DejaVuSans-50"/>
      </g>
     </g>
    </g>
    <g id="ytick_3">
     <g id="line2d_8">
      <g>
       <use style="stroke:#000000;stroke-width:0.8;" x="51.84" xlink:href="#m6d3043c540" y="160.48416"/>
      </g>
     </g>
     <g id="text_9">
      <!-- 3 -->
      <defs>
       <path d="M 40.578125 39.3125 
Q 47.65625 37.796875 51.625 33 
Q 55.609375 28.21875 55.609375 21.1875 
Q 55.609375 10.40625 48.1875 4.484375 
Q 40.765625 -1.421875 27.09375 -1.421875 
Q 22.515625 -1.421875 17.65625 -0.515625 
Q 12.796875 0.390625 7.625 2.203125 
L 7.625 11.71875 
Q 11.71875 9.328125 16.59375 8.109375 
Q 21.484375 6.890625 26.8125 6.890625 
Q 36.078125 6.890625 40.9375 10.546875 
Q 45.796875 14.203125 45.796875 21.1875 
Q 45.796875 27.640625 41.28125 31.265625 
Q 36.765625 34.90625 28.71875 34.90625 
L 20.21875 34.90625 
L 20.21875 43.015625 
L 29.109375 43.015625 
Q 36.375 43.015625 40.234375 45.921875 
Q 44.09375 48.828125 44.09375 54.296875 
Q 44.09375 59.90625 40.109375 62.90625 
Q 36.140625 65.921875 28.71875 65.921875 
Q 24.65625 65.921875 20.015625 65.03125 
Q 15.375 64.15625 9.8125 62.3125 
L 9.8125 71.09375 
Q 15.4375 72.65625 20.34375 73.4375 
Q 25.25 74.21875 29.59375 74.21875 
Q 40.828125 74.21875 47.359375 69.109375 
Q 53.90625 64.015625 53.90625 55.328125 
Q 53.90625 49.265625 50.4375 45.09375 
Q 46.96875 40.921875 40.578125 39.3125 
z
" id="DejaVuSans-51"/>
      </defs>
      <g transform="translate(38.4775 164.283379)scale(0.1 -0.1)">
       <use xlink:href="#DejaVuSans-51"/>
      </g>
     </g>
    </g>
    <g id="ytick_4">
     <g id="line2d_9">
      <g>
       <use style="stroke:#000000;stroke-width:0.8;" x="51.84" xlink:href="#m6d3043c540" y="108.98208"/>
      </g>
     </g>
     <g id="text_10">
      <!-- 4 -->
      <g transform="translate(38.4775 112.781299)scale(0.1 -0.1)">
       <use xlink:href="#DejaVuSans-52"/>
      </g>
     </g>
    </g>
    <g id="ytick_5">
     <g id="line2d_10">
      <g>
       <use style="stroke:#000000;stroke-width:0.8;" x="51.84" xlink:href="#m6d3043c540" y="57.48"/>
      </g>
     </g>
     <g id="text_11">
      <!-- 5 -->
      <defs>
       <path d="M 10.796875 72.90625 
L 49.515625 72.90625 
L 49.515625 64.59375 
L 19.828125 64.59375 
L 19.828125 46.734375 
Q 21.96875 47.46875 24.109375 47.828125 
Q 26.265625 48.1875 28.421875 48.1875 
Q 40.625 48.1875 47.75 41.5 
Q 54.890625 34.8125 54.890625 23.390625 
Q 54.890625 11.625 47.5625 5.09375 
Q 40.234375 -1.421875 26.90625 -1.421875 
Q 22.3125 -1.421875 17.546875 -0.640625 
Q 12.796875 0.140625 7.71875 1.703125 
L 7.71875 11.625 
Q 12.109375 9.234375 16.796875 8.0625 
Q 21.484375 6.890625 26.703125 6.890625 
Q 35.15625 6.890625 40.078125 11.328125 
Q 45.015625 15.765625 45.015625 23.390625 
Q 45.015625 31 40.078125 35.4375 
Q 35.15625 39.890625 26.703125 39.890625 
Q 22.75 39.890625 18.8125 39.015625 
Q 14.890625 38.140625 10.796875 36.28125 
z
" id="DejaVuSans-53"/>
      </defs>
      <g transform="translate(38.4775 61.279219)scale(0.1 -0.1)">
       <use xlink:href="#DejaVuSans-53"/>
      </g>
     </g>
    </g>
    <g id="text_12">
     <!-- range [m] -->
     <defs>
      <path d="M 41.109375 46.296875 
Q 39.59375 47.171875 37.8125 47.578125 
Q 36.03125 48 33.890625 48 
Q 26.265625 48 22.1875 43.046875 
Q 18.109375 38.09375 18.109375 28.8125 
L 18.109375 0 
L 9.078125 0 
L 9.078125 54.6875 
L 18.109375 54.6875 
L 18.109375 46.1875 
Q 20.953125 51.171875 25.484375 53.578125 
Q 30.03125 56 36.53125 56 
Q 37.453125 56 38.578125 55.875 
Q 39.703125 55.765625 41.0625 55.515625 
z
" id="DejaVuSans-114"/>
      <path d="M 34.28125 27.484375 
Q 23.390625 27.484375 19.1875 25 
Q 14.984375 22.515625 14.984375 16.5 
Q 14.984375 11.71875 18.140625 8.90625 
Q 21.296875 6.109375 26.703125 6.109375 
Q 34.1875 6.109375 38.703125 11.40625 
Q 43.21875 16.703125 43.21875 25.484375 
L 43.21875 27.484375 
z
M 52.203125 31.203125 
L 52.203125 0 
L 43.21875 0 
L 43.21875 8.296875 
Q 40.140625 3.328125 35.546875 0.953125 
Q 30.953125 -1.421875 24.3125 -1.421875 
Q 15.921875 -1.421875 10.953125 3.296875 
Q 6 8.015625 6 15.921875 
Q 6 25.140625 12.171875 29.828125 
Q 18.359375 34.515625 30.609375 34.515625 
L 43.21875 34.515625 
L 43.21875 35.40625 
Q 43.21875 41.609375 39.140625 45 
Q 35.0625 48.390625 27.6875 48.390625 
Q 23 48.390625 18.546875 47.265625 
Q 14.109375 46.140625 10.015625 43.890625 
L 10.015625 52.203125 
Q 14.9375 54.109375 19.578125 55.046875 
Q 24.21875 56 28.609375 56 
Q 40.484375 56 46.34375 49.84375 
Q 52.203125 43.703125 52.203125 31.203125 
z
" id="DejaVuSans-97"/>
      <path d="M 54.890625 33.015625 
L 54.890625 0 
L 45.90625 0 
L 45.90625 32.71875 
Q 45.90625 40.484375 42.875 44.328125 
Q 39.84375 48.1875 33.796875 48.1875 
Q 26.515625 48.1875 22.3125 43.546875 
Q 18.109375 38.921875 18.109375 30.90625 
L 18.109375 0 
L 9.078125 0 
L 9.078125 54.6875 
L 18.109375 54.6875 
L 18.109375 46.1875 
Q 21.34375 51.125 25.703125 53.5625 
Q 30.078125 56 35.796875 56 
Q 45.21875 56 50.046875 50.171875 
Q 54.890625 44.34375 54.890625 33.015625 
z
" id="DejaVuSans-110"/>
      <path d="M 45.40625 27.984375 
Q 45.40625 37.75 41.375 43.109375 
Q 37.359375 48.484375 30.078125 48.484375 
Q 22.859375 48.484375 18.828125 43.109375 
Q 14.796875 37.75 14.796875 27.984375 
Q 14.796875 18.265625 18.828125 12.890625 
Q 22.859375 7.515625 30.078125 7.515625 
Q 37.359375 7.515625 41.375 12.890625 
Q 45.40625 18.265625 45.40625 27.984375 
z
M 54.390625 6.78125 
Q 54.390625 -7.171875 48.1875 -13.984375 
Q 42 -20.796875 29.203125 -20.796875 
Q 24.46875 -20.796875 20.265625 -20.09375 
Q 16.0625 -19.390625 12.109375 -17.921875 
L 12.109375 -9.1875 
Q 16.0625 -11.328125 19.921875 -12.34375 
Q 23.78125 -13.375 27.78125 -13.375 
Q 36.625 -13.375 41.015625 -8.765625 
Q 45.40625 -4.15625 45.40625 5.171875 
L 45.40625 9.625 
Q 42.625 4.78125 38.28125 2.390625 
Q 33.9375 0 27.875 0 
Q 17.828125 0 11.671875 7.65625 
Q 5.515625 15.328125 5.515625 27.984375 
Q 5.515625 40.671875 11.671875 48.328125 
Q 17.828125 56 27.875 56 
Q 33.9375 56 38.28125 53.609375 
Q 42.625 51.21875 45.40625 46.390625 
L 45.40625 54.6875 
L 54.390625 54.6875 
z
" id="DejaVuSans-103"/>
     </defs>
     <g transform="translate(32.397812 199.0644)rotate(-90)scale(0.1 -0.1)">
      <use xlink:href="#DejaVuSans-114"/>
      <use x="41.113281" xlink:href="#DejaVuSans-97"/>
      <use x="102.392578" xlink:href="#DejaVuSans-110"/>
      <use x="165.771484" xlink:href="#DejaVuSans-103"/>
      <use x="229.248047" xlink:href="#DejaVuSans-101"/>
      <use x="290.771484" xlink:href="#DejaVuSans-32"/>
      <use x="322.558594" xlink:href="#DejaVuSans-91"/>
      <use x="361.572266" xlink:href="#DejaVuSans-109"/>
      <use x="458.984375" xlink:href="#DejaVuSans-93"/>
     </g>
    </g>
   </g>
   <g id="patch_3">
    <path d="M 51.84 306.9432 
L 51.84 41.3856 
" style="fill:none;stroke:#000000;stroke-linecap:square;stroke-linejoin:miter;stroke-width:0.8;"/>
   </g>
   <g id="patch_4">
    <path d="M 373.248 306.9432 
L 373.248 41.3856 
" style="fill:none;stroke:#000000;stroke-linecap:square;stroke-linejoin:miter;stroke-width:0.8;"/>
   </g>
   <g id="patch_5">
    <path d="M 51.84 306.9432 
L 373.248 306.9432 
" style="fill:none;stroke:#000000;stroke-linecap:square;stroke-linejoin:miter;stroke-width:0.8;"/>
   </g>
   <g id="patch_6">
    <path d="M 51.84 41.3856 
L 373.248 41.3856 
" style="fill:none;stroke:#000000;stroke-linecap:square;stroke-linejoin:miter;stroke-width:0.8;"/>
   </g>
   <g id="text_13">
    <!-- Bag 40 -->
    <defs>
     <path d="M 19.671875 34.8125 
L 19.671875 8.109375 
L 35.5 8.109375 
Q 43.453125 8.109375 47.28125 11.40625 
Q 51.125 14.703125 51.125 21.484375 
Q 51.125 28.328125 47.28125 31.5625 
Q 43.453125 34.8125 35.5 34.8125 
z
M 19.671875 64.796875 
L 19.671875 42.828125 
L 34.28125 42.828125 
Q 41.5 42.828125 45.03125 45.53125 
Q 48.578125 48.25 48.578125 53.8125 
Q 48.578125 59.328125 45.03125 62.0625 
Q 41.5 64.796875 34.28125 64.796875 
z
M 9.8125 72.90625 
L 35.015625 72.90625 
Q 46.296875 72.90625 52.390625 68.21875 
Q 58.5 63.53125 58.5 54.890625 
Q 58.5 48.1875 55.375 44.234375 
Q 52.25 40.28125 46.1875 39.3125 
Q 53.46875 37.75 57.5 32.78125 
Q 61.53125 27.828125 61.53125 20.40625 
Q 61.53125 10.640625 54.890625 5.3125 
Q 48.25 0 35.984375 0 
L 9.8125 0 
z
" id="DejaVuSans-66"/>
    </defs>
    <g transform="translate(191.399625 35.3856)scale(0.12 -0.12)">
     <use xlink:href="#DejaVuSans-66"/>
     <use x="68.603516" xlink:href="#DejaVuSans-97"/>
     <use x="129.882812" xlink:href="#DejaVuSans-103"/>
     <use x="193.359375" xlink:href="#DejaVuSans-32"/>
     <use x="225.146484" xlink:href="#DejaVuSans-52"/>
     <use x="288.769531" xlink:href="#DejaVuSans-48"/>
    </g>
   </g>
   <g id="legend_1">
    <g id="patch_7">
     <path d="M 287.880812 190.342525 
L 366.248 190.342525 
Q 368.248 190.342525 368.248 188.342525 
L 368.248 159.986275 
Q 368.248 157.986275 366.248 157.986275 
L 287.880812 157.986275 
Q 285.880812 157.986275 285.880812 159.986275 
L 285.880812 188.342525 
Q 285.880812 190.342525 287.880812 190.342525 
z
" style="fill:#ffffff;opacity:0.8;stroke:#cccccc;stroke-linejoin:miter;"/>
    </g>
    <g id="PathCollection_3">
     <g>
      <use style="fill:#1f77b4;stroke:#1f77b4;" x="299.880812" xlink:href="#m84b1c87f5a" y="166.959712"/>
     </g>
    </g>
    <g id="text_14">
     <!-- Radar -->
     <defs>
      <path d="M 44.390625 34.1875 
Q 47.5625 33.109375 50.5625 29.59375 
Q 53.5625 26.078125 56.59375 19.921875 
L 66.609375 0 
L 56 0 
L 46.6875 18.703125 
Q 43.0625 26.03125 39.671875 28.421875 
Q 36.28125 30.8125 30.421875 30.8125 
L 19.671875 30.8125 
L 19.671875 0 
L 9.8125 0 
L 9.8125 72.90625 
L 32.078125 72.90625 
Q 44.578125 72.90625 50.734375 67.671875 
Q 56.890625 62.453125 56.890625 51.90625 
Q 56.890625 45.015625 53.6875 40.46875 
Q 50.484375 35.9375 44.390625 34.1875 
z
M 19.671875 64.796875 
L 19.671875 38.921875 
L 32.078125 38.921875 
Q 39.203125 38.921875 42.84375 42.21875 
Q 46.484375 45.515625 46.484375 51.90625 
Q 46.484375 58.296875 42.84375 61.546875 
Q 39.203125 64.796875 32.078125 64.796875 
z
" id="DejaVuSans-82"/>
      <path d="M 45.40625 46.390625 
L 45.40625 75.984375 
L 54.390625 75.984375 
L 54.390625 0 
L 45.40625 0 
L 45.40625 8.203125 
Q 42.578125 3.328125 38.25 0.953125 
Q 33.9375 -1.421875 27.875 -1.421875 
Q 17.96875 -1.421875 11.734375 6.484375 
Q 5.515625 14.40625 5.515625 27.296875 
Q 5.515625 40.1875 11.734375 48.09375 
Q 17.96875 56 27.875 56 
Q 33.9375 56 38.25 53.625 
Q 42.578125 51.265625 45.40625 46.390625 
z
M 14.796875 27.296875 
Q 14.796875 17.390625 18.875 11.75 
Q 22.953125 6.109375 30.078125 6.109375 
Q 37.203125 6.109375 41.296875 11.75 
Q 45.40625 17.390625 45.40625 27.296875 
Q 45.40625 37.203125 41.296875 42.84375 
Q 37.203125 48.484375 30.078125 48.484375 
Q 22.953125 48.484375 18.875 42.84375 
Q 14.796875 37.203125 14.796875 27.296875 
z
" id="DejaVuSans-100"/>
     </defs>
     <g transform="translate(317.880812 169.584712)scale(0.1 -0.1)">
      <use xlink:href="#DejaVuSans-82"/>
      <use x="67.232422" xlink:href="#DejaVuSans-97"/>
      <use x="128.511719" xlink:href="#DejaVuSans-100"/>
      <use x="191.988281" xlink:href="#DejaVuSans-97"/>
      <use x="253.267578" xlink:href="#DejaVuSans-114"/>
     </g>
    </g>
    <g id="PathCollection_4">
     <g>
      <use style="fill:#ff7f0e;stroke:#ff7f0e;" x="299.880812" xlink:href="#mdc0c6e479e" y="181.637837"/>
     </g>
    </g>
    <g id="text_15">
     <!-- Optitrack -->
     <defs>
      <path d="M 39.40625 66.21875 
Q 28.65625 66.21875 22.328125 58.203125 
Q 16.015625 50.203125 16.015625 36.375 
Q 16.015625 22.609375 22.328125 14.59375 
Q 28.65625 6.59375 39.40625 6.59375 
Q 50.140625 6.59375 56.421875 14.59375 
Q 62.703125 22.609375 62.703125 36.375 
Q 62.703125 50.203125 56.421875 58.203125 
Q 50.140625 66.21875 39.40625 66.21875 
z
M 39.40625 74.21875 
Q 54.734375 74.21875 63.90625 63.9375 
Q 73.09375 53.65625 73.09375 36.375 
Q 73.09375 19.140625 63.90625 8.859375 
Q 54.734375 -1.421875 39.40625 -1.421875 
Q 24.03125 -1.421875 14.8125 8.828125 
Q 5.609375 19.09375 5.609375 36.375 
Q 5.609375 53.65625 14.8125 63.9375 
Q 24.03125 74.21875 39.40625 74.21875 
z
" id="DejaVuSans-79"/>
      <path d="M 18.109375 8.203125 
L 18.109375 -20.796875 
L 9.078125 -20.796875 
L 9.078125 54.6875 
L 18.109375 54.6875 
L 18.109375 46.390625 
Q 20.953125 51.265625 25.265625 53.625 
Q 29.59375 56 35.59375 56 
Q 45.5625 56 51.78125 48.09375 
Q 58.015625 40.1875 58.015625 27.296875 
Q 58.015625 14.40625 51.78125 6.484375 
Q 45.5625 -1.421875 35.59375 -1.421875 
Q 29.59375 -1.421875 25.265625 0.953125 
Q 20.953125 3.328125 18.109375 8.203125 
z
M 48.6875 27.296875 
Q 48.6875 37.203125 44.609375 42.84375 
Q 40.53125 48.484375 33.40625 48.484375 
Q 26.265625 48.484375 22.1875 42.84375 
Q 18.109375 37.203125 18.109375 27.296875 
Q 18.109375 17.390625 22.1875 11.75 
Q 26.265625 6.109375 33.40625 6.109375 
Q 40.53125 6.109375 44.609375 11.75 
Q 48.6875 17.390625 48.6875 27.296875 
z
" id="DejaVuSans-112"/>
      <path d="M 48.78125 52.59375 
L 48.78125 44.1875 
Q 44.96875 46.296875 41.140625 47.34375 
Q 37.3125 48.390625 33.40625 48.390625 
Q 24.65625 48.390625 19.8125 42.84375 
Q 14.984375 37.3125 14.984375 27.296875 
Q 14.984375 17.28125 19.8125 11.734375 
Q 24.65625 6.203125 33.40625 6.203125 
Q 37.3125 6.203125 41.140625 7.25 
Q 44.96875 8.296875 48.78125 10.40625 
L 48.78125 2.09375 
Q 45.015625 0.34375 40.984375 -0.53125 
Q 36.96875 -1.421875 32.421875 -1.421875 
Q 20.0625 -1.421875 12.78125 6.34375 
Q 5.515625 14.109375 5.515625 27.296875 
Q 5.515625 40.671875 12.859375 48.328125 
Q 20.21875 56 33.015625 56 
Q 37.15625 56 41.109375 55.140625 
Q 45.0625 54.296875 48.78125 52.59375 
z
" id="DejaVuSans-99"/>
      <path d="M 9.078125 75.984375 
L 18.109375 75.984375 
L 18.109375 31.109375 
L 44.921875 54.6875 
L 56.390625 54.6875 
L 27.390625 29.109375 
L 57.625 0 
L 45.90625 0 
L 18.109375 26.703125 
L 18.109375 0 
L 9.078125 0 
z
" id="DejaVuSans-107"/>
     </defs>
     <g transform="translate(317.880812 184.262837)scale(0.1 -0.1)">
      <use xlink:href="#DejaVuSans-79"/>
      <use x="78.710938" xlink:href="#DejaVuSans-112"/>
      <use x="142.1875" xlink:href="#DejaVuSans-116"/>
      <use x="181.396484" xlink:href="#DejaVuSans-105"/>
      <use x="209.179688" xlink:href="#DejaVuSans-116"/>
      <use x="248.388672" xlink:href="#DejaVuSans-114"/>
      <use x="289.501953" xlink:href="#DejaVuSans-97"/>
      <use x="350.78125" xlink:href="#DejaVuSans-99"/>
      <use x="405.761719" xlink:href="#DejaVuSans-107"/>
     </g>
    </g>
   </g>
  </g>
 </g>
 <defs>
  <clipPath id="pdaae47f2c6">
   <rect height="265.5576" width="321.408" x="51.84" y="41.3856"/>
  </clipPath>
 </defs>
</svg>
