<?xml version="1.0" encoding="utf-8" standalone="no"?>
<!DOCTYPE svg PUBLIC "-//W3C//DTD SVG 1.1//EN"
  "http://www.w3.org/Graphics/SVG/1.1/DTD/svg11.dtd">
<!-- Created with matplotlib (https://matplotlib.org/) -->
<svg height="345.6pt" version="1.1" viewBox="0 0 413.28 345.6" width="413.28pt" xmlns="http://www.w3.org/2000/svg" xmlns:xlink="http://www.w3.org/1999/xlink">
 <defs>
  <style type="text/css">
*{stroke-linecap:butt;stroke-linejoin:round;}
  </style>
 </defs>
 <g id="figure_1">
  <g id="patch_1">
   <path d="M 0 345.6 
L 413.28 345.6 
L 413.28 0 
L 0 0 
z
" style="fill:#ffffff;"/>
  </g>
  <g id="axes_1">
   <g id="patch_2">
    <path d="M 39.36 312.685714 
L 407.376 312.685714 
L 407.376 17.28 
L 39.36 17.28 
z
" style="fill:#ffffff;"/>
   </g>
   <g id="PathCollection_1">
    <defs>
     <path d="M 0 3 
C 0.795609 3 1.55874 2.683901 2.12132 2.12132 
C 2.683901 1.55874 3 0.795609 3 0 
C 3 -0.795609 2.683901 -1.55874 2.12132 -2.12132 
C 1.55874 -2.683901 0.795609 -3 0 -3 
C -0.795609 -3 -1.55874 -2.683901 -2.12132 -2.12132 
C -2.683901 -1.55874 -3 -0.795609 -3 0 
C -3 0.795609 -2.683901 1.55874 -2.12132 2.12132 
C -1.55874 2.683901 -0.795609 3 0 3 
z
" id="mff02ca583e" style="stroke:#1f77b4;"/>
    </defs>
    <g clip-path="url(#pecdfb6b642)">
     <use style="fill:#1f77b4;stroke:#1f77b4;" x="56.088" xlink:href="#mff02ca583e" y="233.48375"/>
     <use style="fill:#1f77b4;stroke:#1f77b4;" x="59.467394" xlink:href="#mff02ca583e" y="218.199175"/>
     <use style="fill:#1f77b4;stroke:#1f77b4;" x="62.846788" xlink:href="#mff02ca583e" y="219.135446"/>
     <use style="fill:#1f77b4;stroke:#1f77b4;" x="66.226182" xlink:href="#mff02ca583e" y="232.308332"/>
     <use style="fill:#1f77b4;stroke:#1f77b4;" x="69.605576" xlink:href="#mff02ca583e" y="155.292836"/>
     <use style="fill:#1f77b4;stroke:#1f77b4;" x="72.98497" xlink:href="#mff02ca583e" y="221.01065"/>
     <use style="fill:#1f77b4;stroke:#1f77b4;" x="76.364364" xlink:href="#mff02ca583e" y="143.778889"/>
     <use style="fill:#1f77b4;stroke:#1f77b4;" x="79.743758" xlink:href="#mff02ca583e" y="209.422178"/>
     <use style="fill:#1f77b4;stroke:#1f77b4;" x="83.123152" xlink:href="#mff02ca583e" y="30.707532"/>
     <use style="fill:#1f77b4;stroke:#1f77b4;" x="86.502545" xlink:href="#mff02ca583e" y="239.789383"/>
     <use style="fill:#1f77b4;stroke:#1f77b4;" x="89.881939" xlink:href="#mff02ca583e" y="278.965108"/>
     <use style="fill:#1f77b4;stroke:#1f77b4;" x="93.261333" xlink:href="#mff02ca583e" y="66.835688"/>
     <use style="fill:#1f77b4;stroke:#1f77b4;" x="96.640727" xlink:href="#mff02ca583e" y="129.506518"/>
     <use style="fill:#1f77b4;stroke:#1f77b4;" x="100.020121" xlink:href="#mff02ca583e" y="241.84093"/>
     <use style="fill:#1f77b4;stroke:#1f77b4;" x="103.399515" xlink:href="#mff02ca583e" y="119.577233"/>
     <use style="fill:#1f77b4;stroke:#1f77b4;" x="106.778909" xlink:href="#mff02ca583e" y="260.661576"/>
     <use style="fill:#1f77b4;stroke:#1f77b4;" x="110.158303" xlink:href="#mff02ca583e" y="215.315466"/>
     <use style="fill:#1f77b4;stroke:#1f77b4;" x="113.537697" xlink:href="#mff02ca583e" y="249.181714"/>
     <use style="fill:#1f77b4;stroke:#1f77b4;" x="116.917091" xlink:href="#mff02ca583e" y="252.848971"/>
     <use style="fill:#1f77b4;stroke:#1f77b4;" x="120.296485" xlink:href="#mff02ca583e" y="297.40814"/>
     <use style="fill:#1f77b4;stroke:#1f77b4;" x="123.675879" xlink:href="#mff02ca583e" y="231.347621"/>
     <use style="fill:#1f77b4;stroke:#1f77b4;" x="127.055273" xlink:href="#mff02ca583e" y="257.172242"/>
     <use style="fill:#1f77b4;stroke:#1f77b4;" x="130.434667" xlink:href="#mff02ca583e" y="261.267225"/>
     <use style="fill:#1f77b4;stroke:#1f77b4;" x="133.814061" xlink:href="#mff02ca583e" y="225.809027"/>
     <use style="fill:#1f77b4;stroke:#1f77b4;" x="137.193455" xlink:href="#mff02ca583e" y="257.45042"/>
     <use style="fill:#1f77b4;stroke:#1f77b4;" x="140.572848" xlink:href="#mff02ca583e" y="296.635779"/>
     <use style="fill:#1f77b4;stroke:#1f77b4;" x="143.952242" xlink:href="#mff02ca583e" y="239.76338"/>
     <use style="fill:#1f77b4;stroke:#1f77b4;" x="147.331636" xlink:href="#mff02ca583e" y="260.159141"/>
     <use style="fill:#1f77b4;stroke:#1f77b4;" x="150.71103" xlink:href="#mff02ca583e" y="190.419658"/>
     <use style="fill:#1f77b4;stroke:#1f77b4;" x="154.090424" xlink:href="#mff02ca583e" y="262.488457"/>
     <use style="fill:#1f77b4;stroke:#1f77b4;" x="157.469818" xlink:href="#mff02ca583e" y="248.444383"/>
     <use style="fill:#1f77b4;stroke:#1f77b4;" x="160.849212" xlink:href="#mff02ca583e" y="290.612785"/>
     <use style="fill:#1f77b4;stroke:#1f77b4;" x="164.228606" xlink:href="#mff02ca583e" y="233.405085"/>
     <use style="fill:#1f77b4;stroke:#1f77b4;" x="167.608" xlink:href="#mff02ca583e" y="220.546679"/>
     <use style="fill:#1f77b4;stroke:#1f77b4;" x="170.987394" xlink:href="#mff02ca583e" y="226.178864"/>
     <use style="fill:#1f77b4;stroke:#1f77b4;" x="174.366788" xlink:href="#mff02ca583e" y="284.250982"/>
     <use style="fill:#1f77b4;stroke:#1f77b4;" x="177.746182" xlink:href="#mff02ca583e" y="294.783043"/>
     <use style="fill:#1f77b4;stroke:#1f77b4;" x="181.125576" xlink:href="#mff02ca583e" y="274.068826"/>
     <use style="fill:#1f77b4;stroke:#1f77b4;" x="184.50497" xlink:href="#mff02ca583e" y="202.054556"/>
     <use style="fill:#1f77b4;stroke:#1f77b4;" x="187.884364" xlink:href="#mff02ca583e" y="262.722497"/>
     <use style="fill:#1f77b4;stroke:#1f77b4;" x="191.263758" xlink:href="#mff02ca583e" y="212.525264"/>
     <use style="fill:#1f77b4;stroke:#1f77b4;" x="194.643152" xlink:href="#mff02ca583e" y="246.815939"/>
     <use style="fill:#1f77b4;stroke:#1f77b4;" x="198.022545" xlink:href="#mff02ca583e" y="247.025234"/>
     <use style="fill:#1f77b4;stroke:#1f77b4;" x="201.401939" xlink:href="#mff02ca583e" y="261.667997"/>
     <use style="fill:#1f77b4;stroke:#1f77b4;" x="204.781333" xlink:href="#mff02ca583e" y="159.695901"/>
     <use style="fill:#1f77b4;stroke:#1f77b4;" x="208.160727" xlink:href="#mff02ca583e" y="256.396427"/>
     <use style="fill:#1f77b4;stroke:#1f77b4;" x="211.540121" xlink:href="#mff02ca583e" y="254.982322"/>
     <use style="fill:#1f77b4;stroke:#1f77b4;" x="214.919515" xlink:href="#mff02ca583e" y="240.66677"/>
     <use style="fill:#1f77b4;stroke:#1f77b4;" x="218.298909" xlink:href="#mff02ca583e" y="190.666901"/>
     <use style="fill:#1f77b4;stroke:#1f77b4;" x="221.678303" xlink:href="#mff02ca583e" y="293.210607"/>
     <use style="fill:#1f77b4;stroke:#1f77b4;" x="225.057697" xlink:href="#mff02ca583e" y="229.193376"/>
     <use style="fill:#1f77b4;stroke:#1f77b4;" x="228.437091" xlink:href="#mff02ca583e" y="242.17597"/>
     <use style="fill:#1f77b4;stroke:#1f77b4;" x="231.816485" xlink:href="#mff02ca583e" y="186.237324"/>
     <use style="fill:#1f77b4;stroke:#1f77b4;" x="235.195879" xlink:href="#mff02ca583e" y="259.613638"/>
     <use style="fill:#1f77b4;stroke:#1f77b4;" x="238.575273" xlink:href="#mff02ca583e" y="265.868068"/>
     <use style="fill:#1f77b4;stroke:#1f77b4;" x="241.954667" xlink:href="#mff02ca583e" y="217.396017"/>
     <use style="fill:#1f77b4;stroke:#1f77b4;" x="245.334061" xlink:href="#mff02ca583e" y="248.292616"/>
     <use style="fill:#1f77b4;stroke:#1f77b4;" x="248.713455" xlink:href="#mff02ca583e" y="241.576436"/>
     <use style="fill:#1f77b4;stroke:#1f77b4;" x="252.092848" xlink:href="#mff02ca583e" y="222.659568"/>
     <use style="fill:#1f77b4;stroke:#1f77b4;" x="255.472242" xlink:href="#mff02ca583e" y="246.979211"/>
     <use style="fill:#1f77b4;stroke:#1f77b4;" x="258.851636" xlink:href="#mff02ca583e" y="255.572009"/>
     <use style="fill:#1f77b4;stroke:#1f77b4;" x="262.23103" xlink:href="#mff02ca583e" y="171.443976"/>
     <use style="fill:#1f77b4;stroke:#1f77b4;" x="265.610424" xlink:href="#mff02ca583e" y="244.178652"/>
     <use style="fill:#1f77b4;stroke:#1f77b4;" x="268.989818" xlink:href="#mff02ca583e" y="197.120599"/>
     <use style="fill:#1f77b4;stroke:#1f77b4;" x="272.369212" xlink:href="#mff02ca583e" y="253.438694"/>
     <use style="fill:#1f77b4;stroke:#1f77b4;" x="275.748606" xlink:href="#mff02ca583e" y="191.6217"/>
     <use style="fill:#1f77b4;stroke:#1f77b4;" x="279.128" xlink:href="#mff02ca583e" y="142.817583"/>
     <use style="fill:#1f77b4;stroke:#1f77b4;" x="282.507394" xlink:href="#mff02ca583e" y="299.258182"/>
     <use style="fill:#1f77b4;stroke:#1f77b4;" x="285.886788" xlink:href="#mff02ca583e" y="285.892324"/>
     <use style="fill:#1f77b4;stroke:#1f77b4;" x="289.266182" xlink:href="#mff02ca583e" y="238.208024"/>
     <use style="fill:#1f77b4;stroke:#1f77b4;" x="292.645576" xlink:href="#mff02ca583e" y="223.34133"/>
     <use style="fill:#1f77b4;stroke:#1f77b4;" x="296.02497" xlink:href="#mff02ca583e" y="210.094981"/>
     <use style="fill:#1f77b4;stroke:#1f77b4;" x="299.404364" xlink:href="#mff02ca583e" y="220.865534"/>
     <use style="fill:#1f77b4;stroke:#1f77b4;" x="302.783758" xlink:href="#mff02ca583e" y="247.930679"/>
     <use style="fill:#1f77b4;stroke:#1f77b4;" x="306.163152" xlink:href="#mff02ca583e" y="258.02261"/>
     <use style="fill:#1f77b4;stroke:#1f77b4;" x="309.542545" xlink:href="#mff02ca583e" y="232.677211"/>
     <use style="fill:#1f77b4;stroke:#1f77b4;" x="312.921939" xlink:href="#mff02ca583e" y="251.853736"/>
     <use style="fill:#1f77b4;stroke:#1f77b4;" x="316.301333" xlink:href="#mff02ca583e" y="230.347303"/>
     <use style="fill:#1f77b4;stroke:#1f77b4;" x="319.680727" xlink:href="#mff02ca583e" y="290.065392"/>
     <use style="fill:#1f77b4;stroke:#1f77b4;" x="323.060121" xlink:href="#mff02ca583e" y="245.696104"/>
     <use style="fill:#1f77b4;stroke:#1f77b4;" x="326.439515" xlink:href="#mff02ca583e" y="206.077624"/>
     <use style="fill:#1f77b4;stroke:#1f77b4;" x="329.818909" xlink:href="#mff02ca583e" y="187.864919"/>
     <use style="fill:#1f77b4;stroke:#1f77b4;" x="333.198303" xlink:href="#mff02ca583e" y="228.130716"/>
     <use style="fill:#1f77b4;stroke:#1f77b4;" x="336.577697" xlink:href="#mff02ca583e" y="278.388441"/>
     <use style="fill:#1f77b4;stroke:#1f77b4;" x="339.957091" xlink:href="#mff02ca583e" y="218.435875"/>
     <use style="fill:#1f77b4;stroke:#1f77b4;" x="343.336485" xlink:href="#mff02ca583e" y="232.616349"/>
     <use style="fill:#1f77b4;stroke:#1f77b4;" x="346.715879" xlink:href="#mff02ca583e" y="212.525106"/>
     <use style="fill:#1f77b4;stroke:#1f77b4;" x="350.095273" xlink:href="#mff02ca583e" y="196.320724"/>
     <use style="fill:#1f77b4;stroke:#1f77b4;" x="353.474667" xlink:href="#mff02ca583e" y="204.547078"/>
     <use style="fill:#1f77b4;stroke:#1f77b4;" x="356.854061" xlink:href="#mff02ca583e" y="232.583015"/>
     <use style="fill:#1f77b4;stroke:#1f77b4;" x="360.233455" xlink:href="#mff02ca583e" y="254.31935"/>
     <use style="fill:#1f77b4;stroke:#1f77b4;" x="363.612848" xlink:href="#mff02ca583e" y="263.532505"/>
     <use style="fill:#1f77b4;stroke:#1f77b4;" x="366.992242" xlink:href="#mff02ca583e" y="239.545168"/>
     <use style="fill:#1f77b4;stroke:#1f77b4;" x="370.371636" xlink:href="#mff02ca583e" y="257.371554"/>
     <use style="fill:#1f77b4;stroke:#1f77b4;" x="373.75103" xlink:href="#mff02ca583e" y="229.229474"/>
     <use style="fill:#1f77b4;stroke:#1f77b4;" x="377.130424" xlink:href="#mff02ca583e" y="257.813458"/>
     <use style="fill:#1f77b4;stroke:#1f77b4;" x="380.509818" xlink:href="#mff02ca583e" y="203.985449"/>
     <use style="fill:#1f77b4;stroke:#1f77b4;" x="383.889212" xlink:href="#mff02ca583e" y="216.817671"/>
     <use style="fill:#1f77b4;stroke:#1f77b4;" x="387.268606" xlink:href="#mff02ca583e" y="263.206168"/>
     <use style="fill:#1f77b4;stroke:#1f77b4;" x="390.648" xlink:href="#mff02ca583e" y="270.073638"/>
    </g>
   </g>
   <g id="matplotlib.axis_1">
    <g id="xtick_1">
     <g id="line2d_1">
      <defs>
       <path d="M 0 0 
L 0 3.5 
" id="m281fbe1b97" style="stroke:#000000;stroke-width:0.8;"/>
      </defs>
      <g>
       <use style="stroke:#000000;stroke-width:0.8;" x="52.708606" xlink:href="#m281fbe1b97" y="312.685714"/>
      </g>
     </g>
     <g id="text_1">
      <!-- 0 -->
      <defs>
       <path d="M 31.78125 66.40625 
Q 24.171875 66.40625 20.328125 58.90625 
Q 16.5 51.421875 16.5 36.375 
Q 16.5 21.390625 20.328125 13.890625 
Q 24.171875 6.390625 31.78125 6.390625 
Q 39.453125 6.390625 43.28125 13.890625 
Q 47.125 21.390625 47.125 36.375 
Q 47.125 51.421875 43.28125 58.90625 
Q 39.453125 66.40625 31.78125 66.40625 
z
M 31.78125 74.21875 
Q 44.046875 74.21875 50.515625 64.515625 
Q 56.984375 54.828125 56.984375 36.375 
Q 56.984375 17.96875 50.515625 8.265625 
Q 44.046875 -1.421875 31.78125 -1.421875 
Q 19.53125 -1.421875 13.0625 8.265625 
Q 6.59375 17.96875 6.59375 36.375 
Q 6.59375 54.828125 13.0625 64.515625 
Q 19.53125 74.21875 31.78125 74.21875 
z
" id="DejaVuSans-48"/>
      </defs>
      <g transform="translate(49.527356 327.284152)scale(0.1 -0.1)">
       <use xlink:href="#DejaVuSans-48"/>
      </g>
     </g>
    </g>
    <g id="xtick_2">
     <g id="line2d_2">
      <g>
       <use style="stroke:#000000;stroke-width:0.8;" x="120.296485" xlink:href="#m281fbe1b97" y="312.685714"/>
      </g>
     </g>
     <g id="text_2">
      <!-- 20 -->
      <defs>
       <path d="M 19.1875 8.296875 
L 53.609375 8.296875 
L 53.609375 0 
L 7.328125 0 
L 7.328125 8.296875 
Q 12.9375 14.109375 22.625 23.890625 
Q 32.328125 33.6875 34.8125 36.53125 
Q 39.546875 41.84375 41.421875 45.53125 
Q 43.3125 49.21875 43.3125 52.78125 
Q 43.3125 58.59375 39.234375 62.25 
Q 35.15625 65.921875 28.609375 65.921875 
Q 23.96875 65.921875 18.8125 64.3125 
Q 13.671875 62.703125 7.8125 59.421875 
L 7.8125 69.390625 
Q 13.765625 71.78125 18.9375 73 
Q 24.125 74.21875 28.421875 74.21875 
Q 39.75 74.21875 46.484375 68.546875 
Q 53.21875 62.890625 53.21875 53.421875 
Q 53.21875 48.921875 51.53125 44.890625 
Q 49.859375 40.875 45.40625 35.40625 
Q 44.1875 33.984375 37.640625 27.21875 
Q 31.109375 20.453125 19.1875 8.296875 
z
" id="DejaVuSans-50"/>
      </defs>
      <g transform="translate(113.933985 327.284152)scale(0.1 -0.1)">
       <use xlink:href="#DejaVuSans-50"/>
       <use x="63.623047" xlink:href="#DejaVuSans-48"/>
      </g>
     </g>
    </g>
    <g id="xtick_3">
     <g id="line2d_3">
      <g>
       <use style="stroke:#000000;stroke-width:0.8;" x="187.884364" xlink:href="#m281fbe1b97" y="312.685714"/>
      </g>
     </g>
     <g id="text_3">
      <!-- 40 -->
      <defs>
       <path d="M 37.796875 64.3125 
L 12.890625 25.390625 
L 37.796875 25.390625 
z
M 35.203125 72.90625 
L 47.609375 72.90625 
L 47.609375 25.390625 
L 58.015625 25.390625 
L 58.015625 17.1875 
L 47.609375 17.1875 
L 47.609375 0 
L 37.796875 0 
L 37.796875 17.1875 
L 4.890625 17.1875 
L 4.890625 26.703125 
z
" id="DejaVuSans-52"/>
      </defs>
      <g transform="translate(181.521864 327.284152)scale(0.1 -0.1)">
       <use xlink:href="#DejaVuSans-52"/>
       <use x="63.623047" xlink:href="#DejaVuSans-48"/>
      </g>
     </g>
    </g>
    <g id="xtick_4">
     <g id="line2d_4">
      <g>
       <use style="stroke:#000000;stroke-width:0.8;" x="255.472242" xlink:href="#m281fbe1b97" y="312.685714"/>
      </g>
     </g>
     <g id="text_4">
      <!-- 60 -->
      <defs>
       <path d="M 33.015625 40.375 
Q 26.375 40.375 22.484375 35.828125 
Q 18.609375 31.296875 18.609375 23.390625 
Q 18.609375 15.53125 22.484375 10.953125 
Q 26.375 6.390625 33.015625 6.390625 
Q 39.65625 6.390625 43.53125 10.953125 
Q 47.40625 15.53125 47.40625 23.390625 
Q 47.40625 31.296875 43.53125 35.828125 
Q 39.65625 40.375 33.015625 40.375 
z
M 52.59375 71.296875 
L 52.59375 62.3125 
Q 48.875 64.0625 45.09375 64.984375 
Q 41.3125 65.921875 37.59375 65.921875 
Q 27.828125 65.921875 22.671875 59.328125 
Q 17.53125 52.734375 16.796875 39.40625 
Q 19.671875 43.65625 24.015625 45.921875 
Q 28.375 48.1875 33.59375 48.1875 
Q 44.578125 48.1875 50.953125 41.515625 
Q 57.328125 34.859375 57.328125 23.390625 
Q 57.328125 12.15625 50.6875 5.359375 
Q 44.046875 -1.421875 33.015625 -1.421875 
Q 20.359375 -1.421875 13.671875 8.265625 
Q 6.984375 17.96875 6.984375 36.375 
Q 6.984375 53.65625 15.1875 63.9375 
Q 23.390625 74.21875 37.203125 74.21875 
Q 40.921875 74.21875 44.703125 73.484375 
Q 48.484375 72.75 52.59375 71.296875 
z
" id="DejaVuSans-54"/>
      </defs>
      <g transform="translate(249.109742 327.284152)scale(0.1 -0.1)">
       <use xlink:href="#DejaVuSans-54"/>
       <use x="63.623047" xlink:href="#DejaVuSans-48"/>
      </g>
     </g>
    </g>
    <g id="xtick_5">
     <g id="line2d_5">
      <g>
       <use style="stroke:#000000;stroke-width:0.8;" x="323.060121" xlink:href="#m281fbe1b97" y="312.685714"/>
      </g>
     </g>
     <g id="text_5">
      <!-- 80 -->
      <defs>
       <path d="M 31.78125 34.625 
Q 24.75 34.625 20.71875 30.859375 
Q 16.703125 27.09375 16.703125 20.515625 
Q 16.703125 13.921875 20.71875 10.15625 
Q 24.75 6.390625 31.78125 6.390625 
Q 38.8125 6.390625 42.859375 10.171875 
Q 46.921875 13.96875 46.921875 20.515625 
Q 46.921875 27.09375 42.890625 30.859375 
Q 38.875 34.625 31.78125 34.625 
z
M 21.921875 38.8125 
Q 15.578125 40.375 12.03125 44.71875 
Q 8.5 49.078125 8.5 55.328125 
Q 8.5 64.0625 14.71875 69.140625 
Q 20.953125 74.21875 31.78125 74.21875 
Q 42.671875 74.21875 48.875 69.140625 
Q 55.078125 64.0625 55.078125 55.328125 
Q 55.078125 49.078125 51.53125 44.71875 
Q 48 40.375 41.703125 38.8125 
Q 48.828125 37.15625 52.796875 32.3125 
Q 56.78125 27.484375 56.78125 20.515625 
Q 56.78125 9.90625 50.3125 4.234375 
Q 43.84375 -1.421875 31.78125 -1.421875 
Q 19.734375 -1.421875 13.25 4.234375 
Q 6.78125 9.90625 6.78125 20.515625 
Q 6.78125 27.484375 10.78125 32.3125 
Q 14.796875 37.15625 21.921875 38.8125 
z
M 18.3125 54.390625 
Q 18.3125 48.734375 21.84375 45.5625 
Q 25.390625 42.390625 31.78125 42.390625 
Q 38.140625 42.390625 41.71875 45.5625 
Q 45.3125 48.734375 45.3125 54.390625 
Q 45.3125 60.0625 41.71875 63.234375 
Q 38.140625 66.40625 31.78125 66.40625 
Q 25.390625 66.40625 21.84375 63.234375 
Q 18.3125 60.0625 18.3125 54.390625 
z
" id="DejaVuSans-56"/>
      </defs>
      <g transform="translate(316.697621 327.284152)scale(0.1 -0.1)">
       <use xlink:href="#DejaVuSans-56"/>
       <use x="63.623047" xlink:href="#DejaVuSans-48"/>
      </g>
     </g>
    </g>
    <g id="xtick_6">
     <g id="line2d_6">
      <g>
       <use style="stroke:#000000;stroke-width:0.8;" x="390.648" xlink:href="#m281fbe1b97" y="312.685714"/>
      </g>
     </g>
     <g id="text_6">
      <!-- 100 -->
      <defs>
       <path d="M 12.40625 8.296875 
L 28.515625 8.296875 
L 28.515625 63.921875 
L 10.984375 60.40625 
L 10.984375 69.390625 
L 28.421875 72.90625 
L 38.28125 72.90625 
L 38.28125 8.296875 
L 54.390625 8.296875 
L 54.390625 0 
L 12.40625 0 
z
" id="DejaVuSans-49"/>
      </defs>
      <g transform="translate(381.10425 327.284152)scale(0.1 -0.1)">
       <use xlink:href="#DejaVuSans-49"/>
       <use x="63.623047" xlink:href="#DejaVuSans-48"/>
       <use x="127.246094" xlink:href="#DejaVuSans-48"/>
      </g>
     </g>
    </g>
    <g id="text_7">
     <!-- Bag number -->
     <defs>
      <path d="M 19.671875 34.8125 
L 19.671875 8.109375 
L 35.5 8.109375 
Q 43.453125 8.109375 47.28125 11.40625 
Q 51.125 14.703125 51.125 21.484375 
Q 51.125 28.328125 47.28125 31.5625 
Q 43.453125 34.8125 35.5 34.8125 
z
M 19.671875 64.796875 
L 19.671875 42.828125 
L 34.28125 42.828125 
Q 41.5 42.828125 45.03125 45.53125 
Q 48.578125 48.25 48.578125 53.8125 
Q 48.578125 59.328125 45.03125 62.0625 
Q 41.5 64.796875 34.28125 64.796875 
z
M 9.8125 72.90625 
L 35.015625 72.90625 
Q 46.296875 72.90625 52.390625 68.21875 
Q 58.5 63.53125 58.5 54.890625 
Q 58.5 48.1875 55.375 44.234375 
Q 52.25 40.28125 46.1875 39.3125 
Q 53.46875 37.75 57.5 32.78125 
Q 61.53125 27.828125 61.53125 20.40625 
Q 61.53125 10.640625 54.890625 5.3125 
Q 48.25 0 35.984375 0 
L 9.8125 0 
z
" id="DejaVuSans-66"/>
      <path d="M 34.28125 27.484375 
Q 23.390625 27.484375 19.1875 25 
Q 14.984375 22.515625 14.984375 16.5 
Q 14.984375 11.71875 18.140625 8.90625 
Q 21.296875 6.109375 26.703125 6.109375 
Q 34.1875 6.109375 38.703125 11.40625 
Q 43.21875 16.703125 43.21875 25.484375 
L 43.21875 27.484375 
z
M 52.203125 31.203125 
L 52.203125 0 
L 43.21875 0 
L 43.21875 8.296875 
Q 40.140625 3.328125 35.546875 0.953125 
Q 30.953125 -1.421875 24.3125 -1.421875 
Q 15.921875 -1.421875 10.953125 3.296875 
Q 6 8.015625 6 15.921875 
Q 6 25.140625 12.171875 29.828125 
Q 18.359375 34.515625 30.609375 34.515625 
L 43.21875 34.515625 
L 43.21875 35.40625 
Q 43.21875 41.609375 39.140625 45 
Q 35.0625 48.390625 27.6875 48.390625 
Q 23 48.390625 18.546875 47.265625 
Q 14.109375 46.140625 10.015625 43.890625 
L 10.015625 52.203125 
Q 14.9375 54.109375 19.578125 55.046875 
Q 24.21875 56 28.609375 56 
Q 40.484375 56 46.34375 49.84375 
Q 52.203125 43.703125 52.203125 31.203125 
z
" id="DejaVuSans-97"/>
      <path d="M 45.40625 27.984375 
Q 45.40625 37.75 41.375 43.109375 
Q 37.359375 48.484375 30.078125 48.484375 
Q 22.859375 48.484375 18.828125 43.109375 
Q 14.796875 37.75 14.796875 27.984375 
Q 14.796875 18.265625 18.828125 12.890625 
Q 22.859375 7.515625 30.078125 7.515625 
Q 37.359375 7.515625 41.375 12.890625 
Q 45.40625 18.265625 45.40625 27.984375 
z
M 54.390625 6.78125 
Q 54.390625 -7.171875 48.1875 -13.984375 
Q 42 -20.796875 29.203125 -20.796875 
Q 24.46875 -20.796875 20.265625 -20.09375 
Q 16.0625 -19.390625 12.109375 -17.921875 
L 12.109375 -9.1875 
Q 16.0625 -11.328125 19.921875 -12.34375 
Q 23.78125 -13.375 27.78125 -13.375 
Q 36.625 -13.375 41.015625 -8.765625 
Q 45.40625 -4.15625 45.40625 5.171875 
L 45.40625 9.625 
Q 42.625 4.78125 38.28125 2.390625 
Q 33.9375 0 27.875 0 
Q 17.828125 0 11.671875 7.65625 
Q 5.515625 15.328125 5.515625 27.984375 
Q 5.515625 40.671875 11.671875 48.328125 
Q 17.828125 56 27.875 56 
Q 33.9375 56 38.28125 53.609375 
Q 42.625 51.21875 45.40625 46.390625 
L 45.40625 54.6875 
L 54.390625 54.6875 
z
" id="DejaVuSans-103"/>
      <path id="DejaVuSans-32"/>
      <path d="M 54.890625 33.015625 
L 54.890625 0 
L 45.90625 0 
L 45.90625 32.71875 
Q 45.90625 40.484375 42.875 44.328125 
Q 39.84375 48.1875 33.796875 48.1875 
Q 26.515625 48.1875 22.3125 43.546875 
Q 18.109375 38.921875 18.109375 30.90625 
L 18.109375 0 
L 9.078125 0 
L 9.078125 54.6875 
L 18.109375 54.6875 
L 18.109375 46.1875 
Q 21.34375 51.125 25.703125 53.5625 
Q 30.078125 56 35.796875 56 
Q 45.21875 56 50.046875 50.171875 
Q 54.890625 44.34375 54.890625 33.015625 
z
" id="DejaVuSans-110"/>
      <path d="M 8.5 21.578125 
L 8.5 54.6875 
L 17.484375 54.6875 
L 17.484375 21.921875 
Q 17.484375 14.15625 20.5 10.265625 
Q 23.53125 6.390625 29.59375 6.390625 
Q 36.859375 6.390625 41.078125 11.03125 
Q 45.3125 15.671875 45.3125 23.6875 
L 45.3125 54.6875 
L 54.296875 54.6875 
L 54.296875 0 
L 45.3125 0 
L 45.3125 8.40625 
Q 42.046875 3.421875 37.71875 1 
Q 33.40625 -1.421875 27.6875 -1.421875 
Q 18.265625 -1.421875 13.375 4.4375 
Q 8.5 10.296875 8.5 21.578125 
z
M 31.109375 56 
z
" id="DejaVuSans-117"/>
      <path d="M 52 44.1875 
Q 55.375 50.25 60.0625 53.125 
Q 64.75 56 71.09375 56 
Q 79.640625 56 84.28125 50.015625 
Q 88.921875 44.046875 88.921875 33.015625 
L 88.921875 0 
L 79.890625 0 
L 79.890625 32.71875 
Q 79.890625 40.578125 77.09375 44.375 
Q 74.3125 48.1875 68.609375 48.1875 
Q 61.625 48.1875 57.5625 43.546875 
Q 53.515625 38.921875 53.515625 30.90625 
L 53.515625 0 
L 44.484375 0 
L 44.484375 32.71875 
Q 44.484375 40.625 41.703125 44.40625 
Q 38.921875 48.1875 33.109375 48.1875 
Q 26.21875 48.1875 22.15625 43.53125 
Q 18.109375 38.875 18.109375 30.90625 
L 18.109375 0 
L 9.078125 0 
L 9.078125 54.6875 
L 18.109375 54.6875 
L 18.109375 46.1875 
Q 21.1875 51.21875 25.484375 53.609375 
Q 29.78125 56 35.6875 56 
Q 41.65625 56 45.828125 52.96875 
Q 50 49.953125 52 44.1875 
z
" id="DejaVuSans-109"/>
      <path d="M 48.6875 27.296875 
Q 48.6875 37.203125 44.609375 42.84375 
Q 40.53125 48.484375 33.40625 48.484375 
Q 26.265625 48.484375 22.1875 42.84375 
Q 18.109375 37.203125 18.109375 27.296875 
Q 18.109375 17.390625 22.1875 11.75 
Q 26.265625 6.109375 33.40625 6.109375 
Q 40.53125 6.109375 44.609375 11.75 
Q 48.6875 17.390625 48.6875 27.296875 
z
M 18.109375 46.390625 
Q 20.953125 51.265625 25.265625 53.625 
Q 29.59375 56 35.59375 56 
Q 45.5625 56 51.78125 48.09375 
Q 58.015625 40.1875 58.015625 27.296875 
Q 58.015625 14.40625 51.78125 6.484375 
Q 45.5625 -1.421875 35.59375 -1.421875 
Q 29.59375 -1.421875 25.265625 0.953125 
Q 20.953125 3.328125 18.109375 8.203125 
L 18.109375 0 
L 9.078125 0 
L 9.078125 75.984375 
L 18.109375 75.984375 
z
" id="DejaVuSans-98"/>
      <path d="M 56.203125 29.59375 
L 56.203125 25.203125 
L 14.890625 25.203125 
Q 15.484375 15.921875 20.484375 11.0625 
Q 25.484375 6.203125 34.421875 6.203125 
Q 39.59375 6.203125 44.453125 7.46875 
Q 49.3125 8.734375 54.109375 11.28125 
L 54.109375 2.78125 
Q 49.265625 0.734375 44.1875 -0.34375 
Q 39.109375 -1.421875 33.890625 -1.421875 
Q 20.796875 -1.421875 13.15625 6.1875 
Q 5.515625 13.8125 5.515625 26.8125 
Q 5.515625 40.234375 12.765625 48.109375 
Q 20.015625 56 32.328125 56 
Q 43.359375 56 49.78125 48.890625 
Q 56.203125 41.796875 56.203125 29.59375 
z
M 47.21875 32.234375 
Q 47.125 39.59375 43.09375 43.984375 
Q 39.0625 48.390625 32.421875 48.390625 
Q 24.90625 48.390625 20.390625 44.140625 
Q 15.875 39.890625 15.1875 32.171875 
z
" id="DejaVuSans-101"/>
      <path d="M 41.109375 46.296875 
Q 39.59375 47.171875 37.8125 47.578125 
Q 36.03125 48 33.890625 48 
Q 26.265625 48 22.1875 43.046875 
Q 18.109375 38.09375 18.109375 28.8125 
L 18.109375 0 
L 9.078125 0 
L 9.078125 54.6875 
L 18.109375 54.6875 
L 18.109375 46.1875 
Q 20.953125 51.171875 25.484375 53.578125 
Q 30.03125 56 36.53125 56 
Q 37.453125 56 38.578125 55.875 
Q 39.703125 55.765625 41.0625 55.515625 
z
" id="DejaVuSans-114"/>
     </defs>
     <g transform="translate(192.596125 340.962277)scale(0.1 -0.1)">
      <use xlink:href="#DejaVuSans-66"/>
      <use x="68.603516" xlink:href="#DejaVuSans-97"/>
      <use x="129.882812" xlink:href="#DejaVuSans-103"/>
      <use x="193.359375" xlink:href="#DejaVuSans-32"/>
      <use x="225.146484" xlink:href="#DejaVuSans-110"/>
      <use x="288.525391" xlink:href="#DejaVuSans-117"/>
      <use x="351.904297" xlink:href="#DejaVuSans-109"/>
      <use x="449.316406" xlink:href="#DejaVuSans-98"/>
      <use x="512.792969" xlink:href="#DejaVuSans-101"/>
      <use x="574.316406" xlink:href="#DejaVuSans-114"/>
     </g>
    </g>
   </g>
   <g id="matplotlib.axis_2">
    <g id="ytick_1">
     <g id="line2d_7">
      <defs>
       <path d="M 0 0 
L -3.5 0 
" id="m8fcaeddf89" style="stroke:#000000;stroke-width:0.8;"/>
      </defs>
      <g>
       <use style="stroke:#000000;stroke-width:0.8;" x="39.36" xlink:href="#m8fcaeddf89" y="304.206254"/>
      </g>
     </g>
     <g id="text_8">
      <!-- 0.0 -->
      <defs>
       <path d="M 10.6875 12.40625 
L 21 12.40625 
L 21 0 
L 10.6875 0 
z
" id="DejaVuSans-46"/>
      </defs>
      <g transform="translate(16.456875 308.005473)scale(0.1 -0.1)">
       <use xlink:href="#DejaVuSans-48"/>
       <use x="63.623047" xlink:href="#DejaVuSans-46"/>
       <use x="95.410156" xlink:href="#DejaVuSans-48"/>
      </g>
     </g>
    </g>
    <g id="ytick_2">
     <g id="line2d_8">
      <g>
       <use style="stroke:#000000;stroke-width:0.8;" x="39.36" xlink:href="#m8fcaeddf89" y="269.491628"/>
      </g>
     </g>
     <g id="text_9">
      <!-- 0.2 -->
      <g transform="translate(16.456875 273.290847)scale(0.1 -0.1)">
       <use xlink:href="#DejaVuSans-48"/>
       <use x="63.623047" xlink:href="#DejaVuSans-46"/>
       <use x="95.410156" xlink:href="#DejaVuSans-50"/>
      </g>
     </g>
    </g>
    <g id="ytick_3">
     <g id="line2d_9">
      <g>
       <use style="stroke:#000000;stroke-width:0.8;" x="39.36" xlink:href="#m8fcaeddf89" y="234.777002"/>
      </g>
     </g>
     <g id="text_10">
      <!-- 0.4 -->
      <g transform="translate(16.456875 238.576221)scale(0.1 -0.1)">
       <use xlink:href="#DejaVuSans-48"/>
       <use x="63.623047" xlink:href="#DejaVuSans-46"/>
       <use x="95.410156" xlink:href="#DejaVuSans-52"/>
      </g>
     </g>
    </g>
    <g id="ytick_4">
     <g id="line2d_10">
      <g>
       <use style="stroke:#000000;stroke-width:0.8;" x="39.36" xlink:href="#m8fcaeddf89" y="200.062376"/>
      </g>
     </g>
     <g id="text_11">
      <!-- 0.6 -->
      <g transform="translate(16.456875 203.861595)scale(0.1 -0.1)">
       <use xlink:href="#DejaVuSans-48"/>
       <use x="63.623047" xlink:href="#DejaVuSans-46"/>
       <use x="95.410156" xlink:href="#DejaVuSans-54"/>
      </g>
     </g>
    </g>
    <g id="ytick_5">
     <g id="line2d_11">
      <g>
       <use style="stroke:#000000;stroke-width:0.8;" x="39.36" xlink:href="#m8fcaeddf89" y="165.347751"/>
      </g>
     </g>
     <g id="text_12">
      <!-- 0.8 -->
      <g transform="translate(16.456875 169.146969)scale(0.1 -0.1)">
       <use xlink:href="#DejaVuSans-48"/>
       <use x="63.623047" xlink:href="#DejaVuSans-46"/>
       <use x="95.410156" xlink:href="#DejaVuSans-56"/>
      </g>
     </g>
    </g>
    <g id="ytick_6">
     <g id="line2d_12">
      <g>
       <use style="stroke:#000000;stroke-width:0.8;" x="39.36" xlink:href="#m8fcaeddf89" y="130.633125"/>
      </g>
     </g>
     <g id="text_13">
      <!-- 1.0 -->
      <g transform="translate(16.456875 134.432343)scale(0.1 -0.1)">
       <use xlink:href="#DejaVuSans-49"/>
       <use x="63.623047" xlink:href="#DejaVuSans-46"/>
       <use x="95.410156" xlink:href="#DejaVuSans-48"/>
      </g>
     </g>
    </g>
    <g id="ytick_7">
     <g id="line2d_13">
      <g>
       <use style="stroke:#000000;stroke-width:0.8;" x="39.36" xlink:href="#m8fcaeddf89" y="95.918499"/>
      </g>
     </g>
     <g id="text_14">
      <!-- 1.2 -->
      <g transform="translate(16.456875 99.717717)scale(0.1 -0.1)">
       <use xlink:href="#DejaVuSans-49"/>
       <use x="63.623047" xlink:href="#DejaVuSans-46"/>
       <use x="95.410156" xlink:href="#DejaVuSans-50"/>
      </g>
     </g>
    </g>
    <g id="ytick_8">
     <g id="line2d_14">
      <g>
       <use style="stroke:#000000;stroke-width:0.8;" x="39.36" xlink:href="#m8fcaeddf89" y="61.203873"/>
      </g>
     </g>
     <g id="text_15">
      <!-- 1.4 -->
      <g transform="translate(16.456875 65.003092)scale(0.1 -0.1)">
       <use xlink:href="#DejaVuSans-49"/>
       <use x="63.623047" xlink:href="#DejaVuSans-46"/>
       <use x="95.410156" xlink:href="#DejaVuSans-52"/>
      </g>
     </g>
    </g>
    <g id="ytick_9">
     <g id="line2d_15">
      <g>
       <use style="stroke:#000000;stroke-width:0.8;" x="39.36" xlink:href="#m8fcaeddf89" y="26.489247"/>
      </g>
     </g>
     <g id="text_16">
      <!-- 1.6 -->
      <g transform="translate(16.456875 30.288466)scale(0.1 -0.1)">
       <use xlink:href="#DejaVuSans-49"/>
       <use x="63.623047" xlink:href="#DejaVuSans-46"/>
       <use x="95.410156" xlink:href="#DejaVuSans-54"/>
      </g>
     </g>
    </g>
    <g id="text_17">
     <!-- Velocity error [m/s] -->
     <defs>
      <path d="M 28.609375 0 
L 0.78125 72.90625 
L 11.078125 72.90625 
L 34.1875 11.53125 
L 57.328125 72.90625 
L 67.578125 72.90625 
L 39.796875 0 
z
" id="DejaVuSans-86"/>
      <path d="M 9.421875 75.984375 
L 18.40625 75.984375 
L 18.40625 0 
L 9.421875 0 
z
" id="DejaVuSans-108"/>
      <path d="M 30.609375 48.390625 
Q 23.390625 48.390625 19.1875 42.75 
Q 14.984375 37.109375 14.984375 27.296875 
Q 14.984375 17.484375 19.15625 11.84375 
Q 23.34375 6.203125 30.609375 6.203125 
Q 37.796875 6.203125 41.984375 11.859375 
Q 46.1875 17.53125 46.1875 27.296875 
Q 46.1875 37.015625 41.984375 42.703125 
Q 37.796875 48.390625 30.609375 48.390625 
z
M 30.609375 56 
Q 42.328125 56 49.015625 48.375 
Q 55.71875 40.765625 55.71875 27.296875 
Q 55.71875 13.875 49.015625 6.21875 
Q 42.328125 -1.421875 30.609375 -1.421875 
Q 18.84375 -1.421875 12.171875 6.21875 
Q 5.515625 13.875 5.515625 27.296875 
Q 5.515625 40.765625 12.171875 48.375 
Q 18.84375 56 30.609375 56 
z
" id="DejaVuSans-111"/>
      <path d="M 48.78125 52.59375 
L 48.78125 44.1875 
Q 44.96875 46.296875 41.140625 47.34375 
Q 37.3125 48.390625 33.40625 48.390625 
Q 24.65625 48.390625 19.8125 42.84375 
Q 14.984375 37.3125 14.984375 27.296875 
Q 14.984375 17.28125 19.8125 11.734375 
Q 24.65625 6.203125 33.40625 6.203125 
Q 37.3125 6.203125 41.140625 7.25 
Q 44.96875 8.296875 48.78125 10.40625 
L 48.78125 2.09375 
Q 45.015625 0.34375 40.984375 -0.53125 
Q 36.96875 -1.421875 32.421875 -1.421875 
Q 20.0625 -1.421875 12.78125 6.34375 
Q 5.515625 14.109375 5.515625 27.296875 
Q 5.515625 40.671875 12.859375 48.328125 
Q 20.21875 56 33.015625 56 
Q 37.15625 56 41.109375 55.140625 
Q 45.0625 54.296875 48.78125 52.59375 
z
" id="DejaVuSans-99"/>
      <path d="M 9.421875 54.6875 
L 18.40625 54.6875 
L 18.40625 0 
L 9.421875 0 
z
M 9.421875 75.984375 
L 18.40625 75.984375 
L 18.40625 64.59375 
L 9.421875 64.59375 
z
" id="DejaVuSans-105"/>
      <path d="M 18.3125 70.21875 
L 18.3125 54.6875 
L 36.8125 54.6875 
L 36.8125 47.703125 
L 18.3125 47.703125 
L 18.3125 18.015625 
Q 18.3125 11.328125 20.140625 9.421875 
Q 21.96875 7.515625 27.59375 7.515625 
L 36.8125 7.515625 
L 36.8125 0 
L 27.59375 0 
Q 17.1875 0 13.234375 3.875 
Q 9.28125 7.765625 9.28125 18.015625 
L 9.28125 47.703125 
L 2.6875 47.703125 
L 2.6875 54.6875 
L 9.28125 54.6875 
L 9.28125 70.21875 
z
" id="DejaVuSans-116"/>
      <path d="M 32.171875 -5.078125 
Q 28.375 -14.84375 24.75 -17.8125 
Q 21.140625 -20.796875 15.09375 -20.796875 
L 7.90625 -20.796875 
L 7.90625 -13.28125 
L 13.1875 -13.28125 
Q 16.890625 -13.28125 18.9375 -11.515625 
Q 21 -9.765625 23.484375 -3.21875 
L 25.09375 0.875 
L 2.984375 54.6875 
L 12.5 54.6875 
L 29.59375 11.921875 
L 46.6875 54.6875 
L 56.203125 54.6875 
z
" id="DejaVuSans-121"/>
      <path d="M 8.59375 75.984375 
L 29.296875 75.984375 
L 29.296875 69 
L 17.578125 69 
L 17.578125 -6.203125 
L 29.296875 -6.203125 
L 29.296875 -13.1875 
L 8.59375 -13.1875 
z
" id="DejaVuSans-91"/>
      <path d="M 25.390625 72.90625 
L 33.6875 72.90625 
L 8.296875 -9.28125 
L 0 -9.28125 
z
" id="DejaVuSans-47"/>
      <path d="M 44.28125 53.078125 
L 44.28125 44.578125 
Q 40.484375 46.53125 36.375 47.5 
Q 32.28125 48.484375 27.875 48.484375 
Q 21.1875 48.484375 17.84375 46.4375 
Q 14.5 44.390625 14.5 40.28125 
Q 14.5 37.15625 16.890625 35.375 
Q 19.28125 33.59375 26.515625 31.984375 
L 29.59375 31.296875 
Q 39.15625 29.25 43.1875 25.515625 
Q 47.21875 21.78125 47.21875 15.09375 
Q 47.21875 7.46875 41.1875 3.015625 
Q 35.15625 -1.421875 24.609375 -1.421875 
Q 20.21875 -1.421875 15.453125 -0.5625 
Q 10.6875 0.296875 5.421875 2 
L 5.421875 11.28125 
Q 10.40625 8.6875 15.234375 7.390625 
Q 20.0625 6.109375 24.8125 6.109375 
Q 31.15625 6.109375 34.5625 8.28125 
Q 37.984375 10.453125 37.984375 14.40625 
Q 37.984375 18.0625 35.515625 20.015625 
Q 33.0625 21.96875 24.703125 23.78125 
L 21.578125 24.515625 
Q 13.234375 26.265625 9.515625 29.90625 
Q 5.8125 33.546875 5.8125 39.890625 
Q 5.8125 47.609375 11.28125 51.796875 
Q 16.75 56 26.8125 56 
Q 31.78125 56 36.171875 55.265625 
Q 40.578125 54.546875 44.28125 53.078125 
z
" id="DejaVuSans-115"/>
      <path d="M 30.421875 75.984375 
L 30.421875 -13.1875 
L 9.71875 -13.1875 
L 9.71875 -6.203125 
L 21.390625 -6.203125 
L 21.390625 69 
L 9.71875 69 
L 9.71875 75.984375 
z
" id="DejaVuSans-93"/>
     </defs>
     <g transform="translate(10.377187 212.939888)rotate(-90)scale(0.1 -0.1)">
      <use xlink:href="#DejaVuSans-86"/>
      <use x="60.658203" xlink:href="#DejaVuSans-101"/>
      <use x="122.181641" xlink:href="#DejaVuSans-108"/>
      <use x="149.964844" xlink:href="#DejaVuSans-111"/>
      <use x="211.146484" xlink:href="#DejaVuSans-99"/>
      <use x="266.126953" xlink:href="#DejaVuSans-105"/>
      <use x="293.910156" xlink:href="#DejaVuSans-116"/>
      <use x="333.119141" xlink:href="#DejaVuSans-121"/>
      <use x="392.298828" xlink:href="#DejaVuSans-32"/>
      <use x="424.085938" xlink:href="#DejaVuSans-101"/>
      <use x="485.609375" xlink:href="#DejaVuSans-114"/>
      <use x="524.972656" xlink:href="#DejaVuSans-114"/>
      <use x="563.835938" xlink:href="#DejaVuSans-111"/>
      <use x="625.017578" xlink:href="#DejaVuSans-114"/>
      <use x="666.130859" xlink:href="#DejaVuSans-32"/>
      <use x="697.917969" xlink:href="#DejaVuSans-91"/>
      <use x="736.931641" xlink:href="#DejaVuSans-109"/>
      <use x="834.34375" xlink:href="#DejaVuSans-47"/>
      <use x="868.035156" xlink:href="#DejaVuSans-115"/>
      <use x="920.134766" xlink:href="#DejaVuSans-93"/>
     </g>
    </g>
   </g>
   <g id="patch_3">
    <path d="M 39.36 312.685714 
L 39.36 17.28 
" style="fill:none;stroke:#000000;stroke-linecap:square;stroke-linejoin:miter;stroke-width:0.8;"/>
   </g>
   <g id="patch_4">
    <path d="M 407.376 312.685714 
L 407.376 17.28 
" style="fill:none;stroke:#000000;stroke-linecap:square;stroke-linejoin:miter;stroke-width:0.8;"/>
   </g>
   <g id="patch_5">
    <path d="M 39.36 312.685714 
L 407.376 312.685714 
" style="fill:none;stroke:#000000;stroke-linecap:square;stroke-linejoin:miter;stroke-width:0.8;"/>
   </g>
   <g id="patch_6">
    <path d="M 39.36 17.28 
L 407.376 17.28 
" style="fill:none;stroke:#000000;stroke-linecap:square;stroke-linejoin:miter;stroke-width:0.8;"/>
   </g>
   <g id="text_18">
    <!-- Velocity error all bags -->
    <g transform="translate(158.154562 11.28)scale(0.12 -0.12)">
     <use xlink:href="#DejaVuSans-86"/>
     <use x="60.658203" xlink:href="#DejaVuSans-101"/>
     <use x="122.181641" xlink:href="#DejaVuSans-108"/>
     <use x="149.964844" xlink:href="#DejaVuSans-111"/>
     <use x="211.146484" xlink:href="#DejaVuSans-99"/>
     <use x="266.126953" xlink:href="#DejaVuSans-105"/>
     <use x="293.910156" xlink:href="#DejaVuSans-116"/>
     <use x="333.119141" xlink:href="#DejaVuSans-121"/>
     <use x="392.298828" xlink:href="#DejaVuSans-32"/>
     <use x="424.085938" xlink:href="#DejaVuSans-101"/>
     <use x="485.609375" xlink:href="#DejaVuSans-114"/>
     <use x="524.972656" xlink:href="#DejaVuSans-114"/>
     <use x="563.835938" xlink:href="#DejaVuSans-111"/>
     <use x="625.017578" xlink:href="#DejaVuSans-114"/>
     <use x="666.130859" xlink:href="#DejaVuSans-32"/>
     <use x="697.917969" xlink:href="#DejaVuSans-97"/>
     <use x="759.197266" xlink:href="#DejaVuSans-108"/>
     <use x="786.980469" xlink:href="#DejaVuSans-108"/>
     <use x="814.763672" xlink:href="#DejaVuSans-32"/>
     <use x="846.550781" xlink:href="#DejaVuSans-98"/>
     <use x="910.027344" xlink:href="#DejaVuSans-97"/>
     <use x="971.306641" xlink:href="#DejaVuSans-103"/>
     <use x="1034.783203" xlink:href="#DejaVuSans-115"/>
    </g>
   </g>
  </g>
 </g>
 <defs>
  <clipPath id="pecdfb6b642">
   <rect height="295.405714" width="368.016" x="39.36" y="17.28"/>
  </clipPath>
 </defs>
</svg>
