<?xml version="1.0" encoding="utf-8" standalone="no"?>
<!DOCTYPE svg PUBLIC "-//W3C//DTD SVG 1.1//EN"
  "http://www.w3.org/Graphics/SVG/1.1/DTD/svg11.dtd">
<!-- Created with matplotlib (https://matplotlib.org/) -->
<svg height="345.6pt" version="1.1" viewBox="0 0 431.28 345.6" width="431.28pt" xmlns="http://www.w3.org/2000/svg" xmlns:xlink="http://www.w3.org/1999/xlink">
 <defs>
  <style type="text/css">
*{stroke-linecap:butt;stroke-linejoin:round;}
  </style>
 </defs>
 <g id="figure_1">
  <g id="patch_1">
   <path d="M 0 345.6 
L 431.28 345.6 
L 431.28 0 
L 0 0 
z
" style="fill:#ffffff;"/>
  </g>
  <g id="axes_1">
   <g id="patch_2">
    <path d="M 53.91 307.584 
L 388.152 307.584 
L 388.152 41.472 
L 53.91 41.472 
z
" style="fill:#ffffff;"/>
   </g>
   <g id="PathCollection_1">
    <defs>
     <path d="M 0 3 
C 0.795609 3 1.55874 2.683901 2.12132 2.12132 
C 2.683901 1.55874 3 0.795609 3 0 
C 3 -0.795609 2.683901 -1.55874 2.12132 -2.12132 
C 1.55874 -2.683901 0.795609 -3 0 -3 
C -0.795609 -3 -1.55874 -2.683901 -2.12132 -2.12132 
C -2.683901 -1.55874 -3 -0.795609 -3 0 
C -3 0.795609 -2.683901 1.55874 -2.12132 2.12132 
C -1.55874 2.683901 -0.795609 3 0 3 
z
" id="m599e11975b" style="stroke:#1f77b4;"/>
    </defs>
    <g clip-path="url(#p1e0f583e66)">
     <use style="fill:#1f77b4;stroke:#1f77b4;" x="60.616737" xlink:href="#m599e11975b" y="284.652434"/>
     <use style="fill:#1f77b4;stroke:#1f77b4;" x="62.999901" xlink:href="#m599e11975b" y="282.464419"/>
     <use style="fill:#1f77b4;stroke:#1f77b4;" x="65.383065" xlink:href="#m599e11975b" y="274.838315"/>
     <use style="fill:#1f77b4;stroke:#1f77b4;" x="67.766229" xlink:href="#m599e11975b" y="279.167714"/>
     <use style="fill:#1f77b4;stroke:#1f77b4;" x="70.149393" xlink:href="#m599e11975b" y="283.474789"/>
     <use style="fill:#1f77b4;stroke:#1f77b4;" x="72.532557" xlink:href="#m599e11975b" y="284.003956"/>
     <use style="fill:#1f77b4;stroke:#1f77b4;" x="74.915721" xlink:href="#m599e11975b" y="284.910409"/>
     <use style="fill:#1f77b4;stroke:#1f77b4;" x="77.298885" xlink:href="#m599e11975b" y="278.427121"/>
     <use style="fill:#1f77b4;stroke:#1f77b4;" x="79.682049" xlink:href="#m599e11975b" y="277.568076"/>
     <use style="fill:#1f77b4;stroke:#1f77b4;" x="82.065213" xlink:href="#m599e11975b" y="283.945918"/>
     <use style="fill:#1f77b4;stroke:#1f77b4;" x="84.448377" xlink:href="#m599e11975b" y="280.943317"/>
     <use style="fill:#1f77b4;stroke:#1f77b4;" x="86.831541" xlink:href="#m599e11975b" y="280.651998"/>
     <use style="fill:#1f77b4;stroke:#1f77b4;" x="89.214705" xlink:href="#m599e11975b" y="283.665621"/>
     <use style="fill:#1f77b4;stroke:#1f77b4;" x="91.597869" xlink:href="#m599e11975b" y="281.113791"/>
     <use style="fill:#1f77b4;stroke:#1f77b4;" x="93.981033" xlink:href="#m599e11975b" y="276.206867"/>
     <use style="fill:#1f77b4;stroke:#1f77b4;" x="96.364197" xlink:href="#m599e11975b" y="285.764645"/>
     <use style="fill:#1f77b4;stroke:#1f77b4;" x="98.747362" xlink:href="#m599e11975b" y="274.94892"/>
     <use style="fill:#1f77b4;stroke:#1f77b4;" x="101.130526" xlink:href="#m599e11975b" y="273.081411"/>
     <use style="fill:#1f77b4;stroke:#1f77b4;" x="103.51369" xlink:href="#m599e11975b" y="275.25159"/>
     <use style="fill:#1f77b4;stroke:#1f77b4;" x="105.896854" xlink:href="#m599e11975b" y="279.329469"/>
     <use style="fill:#1f77b4;stroke:#1f77b4;" x="108.280018" xlink:href="#m599e11975b" y="260.683252"/>
     <use style="fill:#1f77b4;stroke:#1f77b4;" x="110.663182" xlink:href="#m599e11975b" y="272.764344"/>
     <use style="fill:#1f77b4;stroke:#1f77b4;" x="113.046346" xlink:href="#m599e11975b" y="261.899363"/>
     <use style="fill:#1f77b4;stroke:#1f77b4;" x="115.42951" xlink:href="#m599e11975b" y="266.611332"/>
     <use style="fill:#1f77b4;stroke:#1f77b4;" x="117.812674" xlink:href="#m599e11975b" y="261.901034"/>
     <use style="fill:#1f77b4;stroke:#1f77b4;" x="120.195838" xlink:href="#m599e11975b" y="256.629117"/>
     <use style="fill:#1f77b4;stroke:#1f77b4;" x="122.579002" xlink:href="#m599e11975b" y="257.782486"/>
     <use style="fill:#1f77b4;stroke:#1f77b4;" x="124.962166" xlink:href="#m599e11975b" y="256.687004"/>
     <use style="fill:#1f77b4;stroke:#1f77b4;" x="127.34533" xlink:href="#m599e11975b" y="246.959236"/>
     <use style="fill:#1f77b4;stroke:#1f77b4;" x="129.728494" xlink:href="#m599e11975b" y="260.270923"/>
     <use style="fill:#1f77b4;stroke:#1f77b4;" x="132.111658" xlink:href="#m599e11975b" y="280.781511"/>
     <use style="fill:#1f77b4;stroke:#1f77b4;" x="134.494822" xlink:href="#m599e11975b" y="281.875934"/>
     <use style="fill:#1f77b4;stroke:#1f77b4;" x="136.877986" xlink:href="#m599e11975b" y="257.84498"/>
     <use style="fill:#1f77b4;stroke:#1f77b4;" x="139.26115" xlink:href="#m599e11975b" y="245.728427"/>
     <use style="fill:#1f77b4;stroke:#1f77b4;" x="141.644314" xlink:href="#m599e11975b" y="283.685976"/>
     <use style="fill:#1f77b4;stroke:#1f77b4;" x="144.027478" xlink:href="#m599e11975b" y="241.917397"/>
     <use style="fill:#1f77b4;stroke:#1f77b4;" x="146.410642" xlink:href="#m599e11975b" y="260.820535"/>
     <use style="fill:#1f77b4;stroke:#1f77b4;" x="148.793807" xlink:href="#m599e11975b" y="246.043392"/>
     <use style="fill:#1f77b4;stroke:#1f77b4;" x="151.176971" xlink:href="#m599e11975b" y="255.020692"/>
     <use style="fill:#1f77b4;stroke:#1f77b4;" x="153.560135" xlink:href="#m599e11975b" y="242.791281"/>
     <use style="fill:#1f77b4;stroke:#1f77b4;" x="155.943299" xlink:href="#m599e11975b" y="257.790537"/>
     <use style="fill:#1f77b4;stroke:#1f77b4;" x="158.326463" xlink:href="#m599e11975b" y="231.659563"/>
     <use style="fill:#1f77b4;stroke:#1f77b4;" x="160.709627" xlink:href="#m599e11975b" y="251.633182"/>
     <use style="fill:#1f77b4;stroke:#1f77b4;" x="163.092791" xlink:href="#m599e11975b" y="246.196058"/>
     <use style="fill:#1f77b4;stroke:#1f77b4;" x="165.475955" xlink:href="#m599e11975b" y="237.74056"/>
     <use style="fill:#1f77b4;stroke:#1f77b4;" x="167.859119" xlink:href="#m599e11975b" y="247.315339"/>
     <use style="fill:#1f77b4;stroke:#1f77b4;" x="170.242283" xlink:href="#m599e11975b" y="271.846879"/>
     <use style="fill:#1f77b4;stroke:#1f77b4;" x="172.625447" xlink:href="#m599e11975b" y="250.18708"/>
     <use style="fill:#1f77b4;stroke:#1f77b4;" x="175.008611" xlink:href="#m599e11975b" y="238.038745"/>
     <use style="fill:#1f77b4;stroke:#1f77b4;" x="177.391775" xlink:href="#m599e11975b" y="242.777931"/>
     <use style="fill:#1f77b4;stroke:#1f77b4;" x="179.774939" xlink:href="#m599e11975b" y="238.090549"/>
     <use style="fill:#1f77b4;stroke:#1f77b4;" x="182.158103" xlink:href="#m599e11975b" y="240.330085"/>
     <use style="fill:#1f77b4;stroke:#1f77b4;" x="184.541267" xlink:href="#m599e11975b" y="237.569525"/>
     <use style="fill:#1f77b4;stroke:#1f77b4;" x="186.924431" xlink:href="#m599e11975b" y="227.790783"/>
     <use style="fill:#1f77b4;stroke:#1f77b4;" x="189.307595" xlink:href="#m599e11975b" y="239.167272"/>
     <use style="fill:#1f77b4;stroke:#1f77b4;" x="191.690759" xlink:href="#m599e11975b" y="232.616695"/>
     <use style="fill:#1f77b4;stroke:#1f77b4;" x="194.073923" xlink:href="#m599e11975b" y="233.665839"/>
     <use style="fill:#1f77b4;stroke:#1f77b4;" x="196.457087" xlink:href="#m599e11975b" y="235.417019"/>
     <use style="fill:#1f77b4;stroke:#1f77b4;" x="198.840252" xlink:href="#m599e11975b" y="231.200216"/>
     <use style="fill:#1f77b4;stroke:#1f77b4;" x="201.223416" xlink:href="#m599e11975b" y="225.562872"/>
     <use style="fill:#1f77b4;stroke:#1f77b4;" x="203.60658" xlink:href="#m599e11975b" y="221.862721"/>
     <use style="fill:#1f77b4;stroke:#1f77b4;" x="205.989744" xlink:href="#m599e11975b" y="221.735442"/>
     <use style="fill:#1f77b4;stroke:#1f77b4;" x="208.372908" xlink:href="#m599e11975b" y="221.597723"/>
     <use style="fill:#1f77b4;stroke:#1f77b4;" x="210.756072" xlink:href="#m599e11975b" y="224.960726"/>
     <use style="fill:#1f77b4;stroke:#1f77b4;" x="213.139236" xlink:href="#m599e11975b" y="210.609651"/>
     <use style="fill:#1f77b4;stroke:#1f77b4;" x="215.5224" xlink:href="#m599e11975b" y="219.12843"/>
     <use style="fill:#1f77b4;stroke:#1f77b4;" x="217.905564" xlink:href="#m599e11975b" y="199.1916"/>
     <use style="fill:#1f77b4;stroke:#1f77b4;" x="220.288728" xlink:href="#m599e11975b" y="216.257969"/>
     <use style="fill:#1f77b4;stroke:#1f77b4;" x="222.671892" xlink:href="#m599e11975b" y="215.111015"/>
     <use style="fill:#1f77b4;stroke:#1f77b4;" x="225.055056" xlink:href="#m599e11975b" y="194.109271"/>
     <use style="fill:#1f77b4;stroke:#1f77b4;" x="227.43822" xlink:href="#m599e11975b" y="203.522007"/>
     <use style="fill:#1f77b4;stroke:#1f77b4;" x="229.821384" xlink:href="#m599e11975b" y="190.767835"/>
     <use style="fill:#1f77b4;stroke:#1f77b4;" x="232.204548" xlink:href="#m599e11975b" y="193.531926"/>
     <use style="fill:#1f77b4;stroke:#1f77b4;" x="234.587712" xlink:href="#m599e11975b" y="211.526093"/>
     <use style="fill:#1f77b4;stroke:#1f77b4;" x="236.970876" xlink:href="#m599e11975b" y="178.11269"/>
     <use style="fill:#1f77b4;stroke:#1f77b4;" x="239.35404" xlink:href="#m599e11975b" y="179.503167"/>
     <use style="fill:#1f77b4;stroke:#1f77b4;" x="241.737204" xlink:href="#m599e11975b" y="182.160462"/>
     <use style="fill:#1f77b4;stroke:#1f77b4;" x="244.120368" xlink:href="#m599e11975b" y="186.1024"/>
     <use style="fill:#1f77b4;stroke:#1f77b4;" x="246.503532" xlink:href="#m599e11975b" y="176.075455"/>
     <use style="fill:#1f77b4;stroke:#1f77b4;" x="248.886697" xlink:href="#m599e11975b" y="175.73924"/>
     <use style="fill:#1f77b4;stroke:#1f77b4;" x="251.269861" xlink:href="#m599e11975b" y="166.435427"/>
     <use style="fill:#1f77b4;stroke:#1f77b4;" x="253.653025" xlink:href="#m599e11975b" y="166.015757"/>
     <use style="fill:#1f77b4;stroke:#1f77b4;" x="256.036189" xlink:href="#m599e11975b" y="161.120241"/>
     <use style="fill:#1f77b4;stroke:#1f77b4;" x="258.419353" xlink:href="#m599e11975b" y="166.980278"/>
     <use style="fill:#1f77b4;stroke:#1f77b4;" x="260.802517" xlink:href="#m599e11975b" y="162.284402"/>
     <use style="fill:#1f77b4;stroke:#1f77b4;" x="263.185681" xlink:href="#m599e11975b" y="159.847377"/>
     <use style="fill:#1f77b4;stroke:#1f77b4;" x="265.568845" xlink:href="#m599e11975b" y="179.056657"/>
     <use style="fill:#1f77b4;stroke:#1f77b4;" x="267.952009" xlink:href="#m599e11975b" y="151.582717"/>
     <use style="fill:#1f77b4;stroke:#1f77b4;" x="270.335173" xlink:href="#m599e11975b" y="156.469957"/>
     <use style="fill:#1f77b4;stroke:#1f77b4;" x="272.718337" xlink:href="#m599e11975b" y="149.243431"/>
     <use style="fill:#1f77b4;stroke:#1f77b4;" x="275.101501" xlink:href="#m599e11975b" y="144.804228"/>
     <use style="fill:#1f77b4;stroke:#1f77b4;" x="277.484665" xlink:href="#m599e11975b" y="155.986711"/>
     <use style="fill:#1f77b4;stroke:#1f77b4;" x="279.867829" xlink:href="#m599e11975b" y="153.864635"/>
     <use style="fill:#1f77b4;stroke:#1f77b4;" x="282.250993" xlink:href="#m599e11975b" y="152.020004"/>
     <use style="fill:#1f77b4;stroke:#1f77b4;" x="284.634157" xlink:href="#m599e11975b" y="166.254696"/>
     <use style="fill:#1f77b4;stroke:#1f77b4;" x="287.017321" xlink:href="#m599e11975b" y="163.503279"/>
     <use style="fill:#1f77b4;stroke:#1f77b4;" x="289.400485" xlink:href="#m599e11975b" y="163.810029"/>
     <use style="fill:#1f77b4;stroke:#1f77b4;" x="291.783649" xlink:href="#m599e11975b" y="168.952935"/>
     <use style="fill:#1f77b4;stroke:#1f77b4;" x="294.166813" xlink:href="#m599e11975b" y="183.134012"/>
     <use style="fill:#1f77b4;stroke:#1f77b4;" x="296.549977" xlink:href="#m599e11975b" y="188.934371"/>
     <use style="fill:#1f77b4;stroke:#1f77b4;" x="298.933142" xlink:href="#m599e11975b" y="154.690561"/>
     <use style="fill:#1f77b4;stroke:#1f77b4;" x="299.167368" xlink:href="#m599e11975b" y="-1"/>
     <use style="fill:#1f77b4;stroke:#1f77b4;" x="303.433891" xlink:href="#m599e11975b" y="-1"/>
     <use style="fill:#1f77b4;stroke:#1f77b4;" x="303.69947" xlink:href="#m599e11975b" y="178.144444"/>
     <use style="fill:#1f77b4;stroke:#1f77b4;" x="306.082634" xlink:href="#m599e11975b" y="184.096448"/>
     <use style="fill:#1f77b4;stroke:#1f77b4;" x="308.465798" xlink:href="#m599e11975b" y="171.713254"/>
     <use style="fill:#1f77b4;stroke:#1f77b4;" x="310.848962" xlink:href="#m599e11975b" y="177.171851"/>
     <use style="fill:#1f77b4;stroke:#1f77b4;" x="313.232126" xlink:href="#m599e11975b" y="167.93506"/>
     <use style="fill:#1f77b4;stroke:#1f77b4;" x="315.61529" xlink:href="#m599e11975b" y="193.807861"/>
     <use style="fill:#1f77b4;stroke:#1f77b4;" x="317.998454" xlink:href="#m599e11975b" y="174.945848"/>
     <use style="fill:#1f77b4;stroke:#1f77b4;" x="320.381618" xlink:href="#m599e11975b" y="186.184009"/>
     <use style="fill:#1f77b4;stroke:#1f77b4;" x="322.764782" xlink:href="#m599e11975b" y="187.184785"/>
     <use style="fill:#1f77b4;stroke:#1f77b4;" x="325.147946" xlink:href="#m599e11975b" y="189.10976"/>
     <use style="fill:#1f77b4;stroke:#1f77b4;" x="327.53111" xlink:href="#m599e11975b" y="178.885093"/>
     <use style="fill:#1f77b4;stroke:#1f77b4;" x="329.914274" xlink:href="#m599e11975b" y="177.988675"/>
     <use style="fill:#1f77b4;stroke:#1f77b4;" x="332.297438" xlink:href="#m599e11975b" y="197.771121"/>
     <use style="fill:#1f77b4;stroke:#1f77b4;" x="334.680602" xlink:href="#m599e11975b" y="171.369524"/>
     <use style="fill:#1f77b4;stroke:#1f77b4;" x="337.063766" xlink:href="#m599e11975b" y="190.904318"/>
     <use style="fill:#1f77b4;stroke:#1f77b4;" x="337.345065" xlink:href="#m599e11975b" y="-1"/>
     <use style="fill:#1f77b4;stroke:#1f77b4;" x="341.56189" xlink:href="#m599e11975b" y="-1"/>
     <use style="fill:#1f77b4;stroke:#1f77b4;" x="341.830094" xlink:href="#m599e11975b" y="180.838371"/>
     <use style="fill:#1f77b4;stroke:#1f77b4;" x="344.213258" xlink:href="#m599e11975b" y="192.584963"/>
     <use style="fill:#1f77b4;stroke:#1f77b4;" x="346.596422" xlink:href="#m599e11975b" y="173.057848"/>
     <use style="fill:#1f77b4;stroke:#1f77b4;" x="348.979587" xlink:href="#m599e11975b" y="189.821687"/>
     <use style="fill:#1f77b4;stroke:#1f77b4;" x="351.362751" xlink:href="#m599e11975b" y="207.348302"/>
     <use style="fill:#1f77b4;stroke:#1f77b4;" x="353.745915" xlink:href="#m599e11975b" y="208.296191"/>
     <use style="fill:#1f77b4;stroke:#1f77b4;" x="356.129079" xlink:href="#m599e11975b" y="177.860042"/>
     <use style="fill:#1f77b4;stroke:#1f77b4;" x="358.512243" xlink:href="#m599e11975b" y="191.63164"/>
     <use style="fill:#1f77b4;stroke:#1f77b4;" x="360.895407" xlink:href="#m599e11975b" y="193.3221"/>
     <use style="fill:#1f77b4;stroke:#1f77b4;" x="363.278571" xlink:href="#m599e11975b" y="201.139725"/>
     <use style="fill:#1f77b4;stroke:#1f77b4;" x="365.661735" xlink:href="#m599e11975b" y="210.567451"/>
     <use style="fill:#1f77b4;stroke:#1f77b4;" x="368.044899" xlink:href="#m599e11975b" y="200.331557"/>
     <use style="fill:#1f77b4;stroke:#1f77b4;" x="370.428063" xlink:href="#m599e11975b" y="224.451652"/>
     <use style="fill:#1f77b4;stroke:#1f77b4;" x="372.811227" xlink:href="#m599e11975b" y="228.110627"/>
     <use style="fill:#1f77b4;stroke:#1f77b4;" x="375.194391" xlink:href="#m599e11975b" y="213.825552"/>
     <use style="fill:#1f77b4;stroke:#1f77b4;" x="377.577555" xlink:href="#m599e11975b" y="178.389141"/>
    </g>
   </g>
   <g id="PathCollection_2">
    <defs>
     <path d="M 0 3 
C 0.795609 3 1.55874 2.683901 2.12132 2.12132 
C 2.683901 1.55874 3 0.795609 3 0 
C 3 -0.795609 2.683901 -1.55874 2.12132 -2.12132 
C 1.55874 -2.683901 0.795609 -3 0 -3 
C -0.795609 -3 -1.55874 -2.683901 -2.12132 -2.12132 
C -2.683901 -1.55874 -3 -0.795609 -3 0 
C -3 0.795609 -2.683901 1.55874 -2.12132 2.12132 
C -1.55874 2.683901 -0.795609 3 0 3 
z
" id="m2498718317" style="stroke:#ff7f0e;"/>
    </defs>
    <g clip-path="url(#p1e0f583e66)">
     <use style="fill:#ff7f0e;stroke:#ff7f0e;" x="60.616737" xlink:href="#m2498718317" y="284.893201"/>
     <use style="fill:#ff7f0e;stroke:#ff7f0e;" x="62.999901" xlink:href="#m2498718317" y="275.845017"/>
     <use style="fill:#ff7f0e;stroke:#ff7f0e;" x="65.383065" xlink:href="#m2498718317" y="285.219984"/>
     <use style="fill:#ff7f0e;stroke:#ff7f0e;" x="67.766229" xlink:href="#m2498718317" y="280.49905"/>
     <use style="fill:#ff7f0e;stroke:#ff7f0e;" x="70.149393" xlink:href="#m2498718317" y="277.489388"/>
     <use style="fill:#ff7f0e;stroke:#ff7f0e;" x="72.532557" xlink:href="#m2498718317" y="281.17755"/>
     <use style="fill:#ff7f0e;stroke:#ff7f0e;" x="74.915721" xlink:href="#m2498718317" y="275.454909"/>
     <use style="fill:#ff7f0e;stroke:#ff7f0e;" x="77.298885" xlink:href="#m2498718317" y="282.57259"/>
     <use style="fill:#ff7f0e;stroke:#ff7f0e;" x="79.682049" xlink:href="#m2498718317" y="281.549373"/>
     <use style="fill:#ff7f0e;stroke:#ff7f0e;" x="82.065213" xlink:href="#m2498718317" y="278.402637"/>
     <use style="fill:#ff7f0e;stroke:#ff7f0e;" x="84.448377" xlink:href="#m2498718317" y="276.854376"/>
     <use style="fill:#ff7f0e;stroke:#ff7f0e;" x="86.831541" xlink:href="#m2498718317" y="275.192921"/>
     <use style="fill:#ff7f0e;stroke:#ff7f0e;" x="89.214705" xlink:href="#m2498718317" y="282.444248"/>
     <use style="fill:#ff7f0e;stroke:#ff7f0e;" x="91.597869" xlink:href="#m2498718317" y="282.880052"/>
     <use style="fill:#ff7f0e;stroke:#ff7f0e;" x="93.981033" xlink:href="#m2498718317" y="272.299011"/>
     <use style="fill:#ff7f0e;stroke:#ff7f0e;" x="96.364197" xlink:href="#m2498718317" y="276.470451"/>
     <use style="fill:#ff7f0e;stroke:#ff7f0e;" x="98.747362" xlink:href="#m2498718317" y="278.320245"/>
     <use style="fill:#ff7f0e;stroke:#ff7f0e;" x="101.130526" xlink:href="#m2498718317" y="272.522683"/>
     <use style="fill:#ff7f0e;stroke:#ff7f0e;" x="103.51369" xlink:href="#m2498718317" y="275.946279"/>
     <use style="fill:#ff7f0e;stroke:#ff7f0e;" x="105.896854" xlink:href="#m2498718317" y="266.892612"/>
     <use style="fill:#ff7f0e;stroke:#ff7f0e;" x="108.280018" xlink:href="#m2498718317" y="264.158781"/>
     <use style="fill:#ff7f0e;stroke:#ff7f0e;" x="110.663182" xlink:href="#m2498718317" y="259.887001"/>
     <use style="fill:#ff7f0e;stroke:#ff7f0e;" x="113.046346" xlink:href="#m2498718317" y="260.358813"/>
     <use style="fill:#ff7f0e;stroke:#ff7f0e;" x="115.42951" xlink:href="#m2498718317" y="258.216914"/>
     <use style="fill:#ff7f0e;stroke:#ff7f0e;" x="117.812674" xlink:href="#m2498718317" y="254.593809"/>
     <use style="fill:#ff7f0e;stroke:#ff7f0e;" x="120.195838" xlink:href="#m2498718317" y="263.047107"/>
     <use style="fill:#ff7f0e;stroke:#ff7f0e;" x="122.579002" xlink:href="#m2498718317" y="241.648954"/>
     <use style="fill:#ff7f0e;stroke:#ff7f0e;" x="124.962166" xlink:href="#m2498718317" y="241.463163"/>
     <use style="fill:#ff7f0e;stroke:#ff7f0e;" x="127.34533" xlink:href="#m2498718317" y="245.911106"/>
     <use style="fill:#ff7f0e;stroke:#ff7f0e;" x="129.728494" xlink:href="#m2498718317" y="248.140226"/>
     <use style="fill:#ff7f0e;stroke:#ff7f0e;" x="132.111658" xlink:href="#m2498718317" y="245.376927"/>
     <use style="fill:#ff7f0e;stroke:#ff7f0e;" x="134.494822" xlink:href="#m2498718317" y="240.349797"/>
     <use style="fill:#ff7f0e;stroke:#ff7f0e;" x="136.877986" xlink:href="#m2498718317" y="236.412069"/>
     <use style="fill:#ff7f0e;stroke:#ff7f0e;" x="139.26115" xlink:href="#m2498718317" y="245.222056"/>
     <use style="fill:#ff7f0e;stroke:#ff7f0e;" x="141.644314" xlink:href="#m2498718317" y="238.198046"/>
     <use style="fill:#ff7f0e;stroke:#ff7f0e;" x="144.027478" xlink:href="#m2498718317" y="244.044479"/>
     <use style="fill:#ff7f0e;stroke:#ff7f0e;" x="146.410642" xlink:href="#m2498718317" y="239.538331"/>
     <use style="fill:#ff7f0e;stroke:#ff7f0e;" x="148.793807" xlink:href="#m2498718317" y="238.367069"/>
     <use style="fill:#ff7f0e;stroke:#ff7f0e;" x="151.176971" xlink:href="#m2498718317" y="232.422074"/>
     <use style="fill:#ff7f0e;stroke:#ff7f0e;" x="153.560135" xlink:href="#m2498718317" y="239.212097"/>
     <use style="fill:#ff7f0e;stroke:#ff7f0e;" x="155.943299" xlink:href="#m2498718317" y="238.82833"/>
     <use style="fill:#ff7f0e;stroke:#ff7f0e;" x="158.326463" xlink:href="#m2498718317" y="239.066657"/>
     <use style="fill:#ff7f0e;stroke:#ff7f0e;" x="160.709627" xlink:href="#m2498718317" y="238.04666"/>
     <use style="fill:#ff7f0e;stroke:#ff7f0e;" x="163.092791" xlink:href="#m2498718317" y="229.059948"/>
     <use style="fill:#ff7f0e;stroke:#ff7f0e;" x="165.475955" xlink:href="#m2498718317" y="237.019764"/>
     <use style="fill:#ff7f0e;stroke:#ff7f0e;" x="167.859119" xlink:href="#m2498718317" y="235.004537"/>
     <use style="fill:#ff7f0e;stroke:#ff7f0e;" x="170.242283" xlink:href="#m2498718317" y="234.570335"/>
     <use style="fill:#ff7f0e;stroke:#ff7f0e;" x="172.625447" xlink:href="#m2498718317" y="235.702659"/>
     <use style="fill:#ff7f0e;stroke:#ff7f0e;" x="175.008611" xlink:href="#m2498718317" y="230.961704"/>
     <use style="fill:#ff7f0e;stroke:#ff7f0e;" x="177.391775" xlink:href="#m2498718317" y="221.315651"/>
     <use style="fill:#ff7f0e;stroke:#ff7f0e;" x="179.774939" xlink:href="#m2498718317" y="230.092027"/>
     <use style="fill:#ff7f0e;stroke:#ff7f0e;" x="182.158103" xlink:href="#m2498718317" y="225.499087"/>
     <use style="fill:#ff7f0e;stroke:#ff7f0e;" x="184.541267" xlink:href="#m2498718317" y="225.603528"/>
     <use style="fill:#ff7f0e;stroke:#ff7f0e;" x="186.924431" xlink:href="#m2498718317" y="229.148625"/>
     <use style="fill:#ff7f0e;stroke:#ff7f0e;" x="189.307595" xlink:href="#m2498718317" y="221.848109"/>
     <use style="fill:#ff7f0e;stroke:#ff7f0e;" x="191.690759" xlink:href="#m2498718317" y="209.431603"/>
     <use style="fill:#ff7f0e;stroke:#ff7f0e;" x="194.073923" xlink:href="#m2498718317" y="215.786104"/>
     <use style="fill:#ff7f0e;stroke:#ff7f0e;" x="196.457087" xlink:href="#m2498718317" y="225.845029"/>
     <use style="fill:#ff7f0e;stroke:#ff7f0e;" x="198.840252" xlink:href="#m2498718317" y="207.126439"/>
     <use style="fill:#ff7f0e;stroke:#ff7f0e;" x="201.223416" xlink:href="#m2498718317" y="210.996972"/>
     <use style="fill:#ff7f0e;stroke:#ff7f0e;" x="203.60658" xlink:href="#m2498718317" y="213.93743"/>
     <use style="fill:#ff7f0e;stroke:#ff7f0e;" x="205.989744" xlink:href="#m2498718317" y="189.693692"/>
     <use style="fill:#ff7f0e;stroke:#ff7f0e;" x="208.372908" xlink:href="#m2498718317" y="204.963883"/>
     <use style="fill:#ff7f0e;stroke:#ff7f0e;" x="210.756072" xlink:href="#m2498718317" y="218.771212"/>
     <use style="fill:#ff7f0e;stroke:#ff7f0e;" x="213.139236" xlink:href="#m2498718317" y="186.2871"/>
     <use style="fill:#ff7f0e;stroke:#ff7f0e;" x="215.5224" xlink:href="#m2498718317" y="193.610164"/>
     <use style="fill:#ff7f0e;stroke:#ff7f0e;" x="217.905564" xlink:href="#m2498718317" y="173.077697"/>
     <use style="fill:#ff7f0e;stroke:#ff7f0e;" x="220.288728" xlink:href="#m2498718317" y="189.430456"/>
     <use style="fill:#ff7f0e;stroke:#ff7f0e;" x="222.671892" xlink:href="#m2498718317" y="185.237123"/>
     <use style="fill:#ff7f0e;stroke:#ff7f0e;" x="225.055056" xlink:href="#m2498718317" y="183.292411"/>
     <use style="fill:#ff7f0e;stroke:#ff7f0e;" x="227.43822" xlink:href="#m2498718317" y="179.164561"/>
     <use style="fill:#ff7f0e;stroke:#ff7f0e;" x="229.821384" xlink:href="#m2498718317" y="153.268244"/>
     <use style="fill:#ff7f0e;stroke:#ff7f0e;" x="232.204548" xlink:href="#m2498718317" y="171.113491"/>
     <use style="fill:#ff7f0e;stroke:#ff7f0e;" x="234.587712" xlink:href="#m2498718317" y="175.999784"/>
     <use style="fill:#ff7f0e;stroke:#ff7f0e;" x="236.970876" xlink:href="#m2498718317" y="155.852795"/>
     <use style="fill:#ff7f0e;stroke:#ff7f0e;" x="239.35404" xlink:href="#m2498718317" y="161.481167"/>
     <use style="fill:#ff7f0e;stroke:#ff7f0e;" x="241.737204" xlink:href="#m2498718317" y="157.94328"/>
     <use style="fill:#ff7f0e;stroke:#ff7f0e;" x="244.120368" xlink:href="#m2498718317" y="130.074237"/>
     <use style="fill:#ff7f0e;stroke:#ff7f0e;" x="246.503532" xlink:href="#m2498718317" y="151.419382"/>
     <use style="fill:#ff7f0e;stroke:#ff7f0e;" x="248.886697" xlink:href="#m2498718317" y="154.706179"/>
     <use style="fill:#ff7f0e;stroke:#ff7f0e;" x="251.269861" xlink:href="#m2498718317" y="140.202796"/>
     <use style="fill:#ff7f0e;stroke:#ff7f0e;" x="253.653025" xlink:href="#m2498718317" y="152.98877"/>
     <use style="fill:#ff7f0e;stroke:#ff7f0e;" x="256.036189" xlink:href="#m2498718317" y="129.995369"/>
     <use style="fill:#ff7f0e;stroke:#ff7f0e;" x="258.419353" xlink:href="#m2498718317" y="109.066424"/>
     <use style="fill:#ff7f0e;stroke:#ff7f0e;" x="260.802517" xlink:href="#m2498718317" y="135.706706"/>
     <use style="fill:#ff7f0e;stroke:#ff7f0e;" x="263.185681" xlink:href="#m2498718317" y="134.122971"/>
     <use style="fill:#ff7f0e;stroke:#ff7f0e;" x="265.568845" xlink:href="#m2498718317" y="132.846102"/>
     <use style="fill:#ff7f0e;stroke:#ff7f0e;" x="267.952009" xlink:href="#m2498718317" y="131.933369"/>
     <use style="fill:#ff7f0e;stroke:#ff7f0e;" x="270.335173" xlink:href="#m2498718317" y="110.549591"/>
     <use style="fill:#ff7f0e;stroke:#ff7f0e;" x="272.718337" xlink:href="#m2498718317" y="122.514735"/>
     <use style="fill:#ff7f0e;stroke:#ff7f0e;" x="275.101501" xlink:href="#m2498718317" y="128.206217"/>
     <use style="fill:#ff7f0e;stroke:#ff7f0e;" x="277.484665" xlink:href="#m2498718317" y="131.134217"/>
     <use style="fill:#ff7f0e;stroke:#ff7f0e;" x="279.867829" xlink:href="#m2498718317" y="131.360653"/>
     <use style="fill:#ff7f0e;stroke:#ff7f0e;" x="282.250993" xlink:href="#m2498718317" y="138.007455"/>
     <use style="fill:#ff7f0e;stroke:#ff7f0e;" x="284.634157" xlink:href="#m2498718317" y="98.250099"/>
     <use style="fill:#ff7f0e;stroke:#ff7f0e;" x="287.017321" xlink:href="#m2498718317" y="136.231172"/>
     <use style="fill:#ff7f0e;stroke:#ff7f0e;" x="289.400485" xlink:href="#m2498718317" y="136.430585"/>
     <use style="fill:#ff7f0e;stroke:#ff7f0e;" x="291.783649" xlink:href="#m2498718317" y="149.254342"/>
     <use style="fill:#ff7f0e;stroke:#ff7f0e;" x="294.166813" xlink:href="#m2498718317" y="130.284778"/>
     <use style="fill:#ff7f0e;stroke:#ff7f0e;" x="296.549977" xlink:href="#m2498718317" y="126.80837"/>
     <use style="fill:#ff7f0e;stroke:#ff7f0e;" x="298.933142" xlink:href="#m2498718317" y="140.172924"/>
     <use style="fill:#ff7f0e;stroke:#ff7f0e;" x="301.316306" xlink:href="#m2498718317" y="147.677074"/>
     <use style="fill:#ff7f0e;stroke:#ff7f0e;" x="303.69947" xlink:href="#m2498718317" y="145.355678"/>
     <use style="fill:#ff7f0e;stroke:#ff7f0e;" x="306.082634" xlink:href="#m2498718317" y="164.436168"/>
     <use style="fill:#ff7f0e;stroke:#ff7f0e;" x="308.465798" xlink:href="#m2498718317" y="140.911762"/>
     <use style="fill:#ff7f0e;stroke:#ff7f0e;" x="310.848962" xlink:href="#m2498718317" y="127.312029"/>
     <use style="fill:#ff7f0e;stroke:#ff7f0e;" x="313.232126" xlink:href="#m2498718317" y="156.225359"/>
     <use style="fill:#ff7f0e;stroke:#ff7f0e;" x="315.61529" xlink:href="#m2498718317" y="156.661112"/>
     <use style="fill:#ff7f0e;stroke:#ff7f0e;" x="317.998454" xlink:href="#m2498718317" y="164.276691"/>
     <use style="fill:#ff7f0e;stroke:#ff7f0e;" x="320.381618" xlink:href="#m2498718317" y="162.708796"/>
     <use style="fill:#ff7f0e;stroke:#ff7f0e;" x="322.764782" xlink:href="#m2498718317" y="146.951632"/>
     <use style="fill:#ff7f0e;stroke:#ff7f0e;" x="325.147946" xlink:href="#m2498718317" y="138.598079"/>
     <use style="fill:#ff7f0e;stroke:#ff7f0e;" x="327.53111" xlink:href="#m2498718317" y="160.34328"/>
     <use style="fill:#ff7f0e;stroke:#ff7f0e;" x="329.914274" xlink:href="#m2498718317" y="151.889905"/>
     <use style="fill:#ff7f0e;stroke:#ff7f0e;" x="332.297438" xlink:href="#m2498718317" y="159.744389"/>
     <use style="fill:#ff7f0e;stroke:#ff7f0e;" x="334.680602" xlink:href="#m2498718317" y="157.619826"/>
     <use style="fill:#ff7f0e;stroke:#ff7f0e;" x="337.063766" xlink:href="#m2498718317" y="140.006185"/>
     <use style="fill:#ff7f0e;stroke:#ff7f0e;" x="339.44693" xlink:href="#m2498718317" y="149.830223"/>
     <use style="fill:#ff7f0e;stroke:#ff7f0e;" x="341.830094" xlink:href="#m2498718317" y="156.713507"/>
     <use style="fill:#ff7f0e;stroke:#ff7f0e;" x="344.213258" xlink:href="#m2498718317" y="163.47139"/>
     <use style="fill:#ff7f0e;stroke:#ff7f0e;" x="346.596422" xlink:href="#m2498718317" y="158.450429"/>
     <use style="fill:#ff7f0e;stroke:#ff7f0e;" x="348.979587" xlink:href="#m2498718317" y="154.646552"/>
     <use style="fill:#ff7f0e;stroke:#ff7f0e;" x="351.362751" xlink:href="#m2498718317" y="134.238728"/>
     <use style="fill:#ff7f0e;stroke:#ff7f0e;" x="353.745915" xlink:href="#m2498718317" y="162.452883"/>
     <use style="fill:#ff7f0e;stroke:#ff7f0e;" x="356.129079" xlink:href="#m2498718317" y="164.24844"/>
     <use style="fill:#ff7f0e;stroke:#ff7f0e;" x="358.512243" xlink:href="#m2498718317" y="167.192621"/>
     <use style="fill:#ff7f0e;stroke:#ff7f0e;" x="360.895407" xlink:href="#m2498718317" y="158.940586"/>
     <use style="fill:#ff7f0e;stroke:#ff7f0e;" x="363.278571" xlink:href="#m2498718317" y="160.453206"/>
     <use style="fill:#ff7f0e;stroke:#ff7f0e;" x="365.661735" xlink:href="#m2498718317" y="171.402963"/>
     <use style="fill:#ff7f0e;stroke:#ff7f0e;" x="368.044899" xlink:href="#m2498718317" y="183.54924"/>
     <use style="fill:#ff7f0e;stroke:#ff7f0e;" x="370.428063" xlink:href="#m2498718317" y="191.416377"/>
     <use style="fill:#ff7f0e;stroke:#ff7f0e;" x="372.811227" xlink:href="#m2498718317" y="198.879682"/>
     <use style="fill:#ff7f0e;stroke:#ff7f0e;" x="375.194391" xlink:href="#m2498718317" y="203.265288"/>
     <use style="fill:#ff7f0e;stroke:#ff7f0e;" x="377.577555" xlink:href="#m2498718317" y="203.52029"/>
    </g>
   </g>
   <g id="matplotlib.axis_1">
    <g id="xtick_1">
     <g id="line2d_1">
      <defs>
       <path d="M 0 0 
L 0 3.5 
" id="mc9b78ed367" style="stroke:#000000;stroke-width:0.8;"/>
      </defs>
      <g>
       <use style="stroke:#000000;stroke-width:0.8;" x="60.616737" xlink:href="#mc9b78ed367" y="307.584"/>
      </g>
     </g>
     <g id="text_1">
      <!-- 0 -->
      <defs>
       <path d="M 31.78125 66.40625 
Q 24.171875 66.40625 20.328125 58.90625 
Q 16.5 51.421875 16.5 36.375 
Q 16.5 21.390625 20.328125 13.890625 
Q 24.171875 6.390625 31.78125 6.390625 
Q 39.453125 6.390625 43.28125 13.890625 
Q 47.125 21.390625 47.125 36.375 
Q 47.125 51.421875 43.28125 58.90625 
Q 39.453125 66.40625 31.78125 66.40625 
z
M 31.78125 74.21875 
Q 44.046875 74.21875 50.515625 64.515625 
Q 56.984375 54.828125 56.984375 36.375 
Q 56.984375 17.96875 50.515625 8.265625 
Q 44.046875 -1.421875 31.78125 -1.421875 
Q 19.53125 -1.421875 13.0625 8.265625 
Q 6.59375 17.96875 6.59375 36.375 
Q 6.59375 54.828125 13.0625 64.515625 
Q 19.53125 74.21875 31.78125 74.21875 
z
" id="DejaVuSans-48"/>
      </defs>
      <g transform="translate(57.435487 322.182437)scale(0.1 -0.1)">
       <use xlink:href="#DejaVuSans-48"/>
      </g>
     </g>
    </g>
    <g id="xtick_2">
     <g id="line2d_2">
      <g>
       <use style="stroke:#000000;stroke-width:0.8;" x="133.803021" xlink:href="#mc9b78ed367" y="307.584"/>
      </g>
     </g>
     <g id="text_2">
      <!-- 2 -->
      <defs>
       <path d="M 19.1875 8.296875 
L 53.609375 8.296875 
L 53.609375 0 
L 7.328125 0 
L 7.328125 8.296875 
Q 12.9375 14.109375 22.625 23.890625 
Q 32.328125 33.6875 34.8125 36.53125 
Q 39.546875 41.84375 41.421875 45.53125 
Q 43.3125 49.21875 43.3125 52.78125 
Q 43.3125 58.59375 39.234375 62.25 
Q 35.15625 65.921875 28.609375 65.921875 
Q 23.96875 65.921875 18.8125 64.3125 
Q 13.671875 62.703125 7.8125 59.421875 
L 7.8125 69.390625 
Q 13.765625 71.78125 18.9375 73 
Q 24.125 74.21875 28.421875 74.21875 
Q 39.75 74.21875 46.484375 68.546875 
Q 53.21875 62.890625 53.21875 53.421875 
Q 53.21875 48.921875 51.53125 44.890625 
Q 49.859375 40.875 45.40625 35.40625 
Q 44.1875 33.984375 37.640625 27.21875 
Q 31.109375 20.453125 19.1875 8.296875 
z
" id="DejaVuSans-50"/>
      </defs>
      <g transform="translate(130.621771 322.182437)scale(0.1 -0.1)">
       <use xlink:href="#DejaVuSans-50"/>
      </g>
     </g>
    </g>
    <g id="xtick_3">
     <g id="line2d_3">
      <g>
       <use style="stroke:#000000;stroke-width:0.8;" x="206.989305" xlink:href="#mc9b78ed367" y="307.584"/>
      </g>
     </g>
     <g id="text_3">
      <!-- 4 -->
      <defs>
       <path d="M 37.796875 64.3125 
L 12.890625 25.390625 
L 37.796875 25.390625 
z
M 35.203125 72.90625 
L 47.609375 72.90625 
L 47.609375 25.390625 
L 58.015625 25.390625 
L 58.015625 17.1875 
L 47.609375 17.1875 
L 47.609375 0 
L 37.796875 0 
L 37.796875 17.1875 
L 4.890625 17.1875 
L 4.890625 26.703125 
z
" id="DejaVuSans-52"/>
      </defs>
      <g transform="translate(203.808055 322.182437)scale(0.1 -0.1)">
       <use xlink:href="#DejaVuSans-52"/>
      </g>
     </g>
    </g>
    <g id="xtick_4">
     <g id="line2d_4">
      <g>
       <use style="stroke:#000000;stroke-width:0.8;" x="280.175589" xlink:href="#mc9b78ed367" y="307.584"/>
      </g>
     </g>
     <g id="text_4">
      <!-- 6 -->
      <defs>
       <path d="M 33.015625 40.375 
Q 26.375 40.375 22.484375 35.828125 
Q 18.609375 31.296875 18.609375 23.390625 
Q 18.609375 15.53125 22.484375 10.953125 
Q 26.375 6.390625 33.015625 6.390625 
Q 39.65625 6.390625 43.53125 10.953125 
Q 47.40625 15.53125 47.40625 23.390625 
Q 47.40625 31.296875 43.53125 35.828125 
Q 39.65625 40.375 33.015625 40.375 
z
M 52.59375 71.296875 
L 52.59375 62.3125 
Q 48.875 64.0625 45.09375 64.984375 
Q 41.3125 65.921875 37.59375 65.921875 
Q 27.828125 65.921875 22.671875 59.328125 
Q 17.53125 52.734375 16.796875 39.40625 
Q 19.671875 43.65625 24.015625 45.921875 
Q 28.375 48.1875 33.59375 48.1875 
Q 44.578125 48.1875 50.953125 41.515625 
Q 57.328125 34.859375 57.328125 23.390625 
Q 57.328125 12.15625 50.6875 5.359375 
Q 44.046875 -1.421875 33.015625 -1.421875 
Q 20.359375 -1.421875 13.671875 8.265625 
Q 6.984375 17.96875 6.984375 36.375 
Q 6.984375 53.65625 15.1875 63.9375 
Q 23.390625 74.21875 37.203125 74.21875 
Q 40.921875 74.21875 44.703125 73.484375 
Q 48.484375 72.75 52.59375 71.296875 
z
" id="DejaVuSans-54"/>
      </defs>
      <g transform="translate(276.994339 322.182437)scale(0.1 -0.1)">
       <use xlink:href="#DejaVuSans-54"/>
      </g>
     </g>
    </g>
    <g id="xtick_5">
     <g id="line2d_5">
      <g>
       <use style="stroke:#000000;stroke-width:0.8;" x="353.361874" xlink:href="#mc9b78ed367" y="307.584"/>
      </g>
     </g>
     <g id="text_5">
      <!-- 8 -->
      <defs>
       <path d="M 31.78125 34.625 
Q 24.75 34.625 20.71875 30.859375 
Q 16.703125 27.09375 16.703125 20.515625 
Q 16.703125 13.921875 20.71875 10.15625 
Q 24.75 6.390625 31.78125 6.390625 
Q 38.8125 6.390625 42.859375 10.171875 
Q 46.921875 13.96875 46.921875 20.515625 
Q 46.921875 27.09375 42.890625 30.859375 
Q 38.875 34.625 31.78125 34.625 
z
M 21.921875 38.8125 
Q 15.578125 40.375 12.03125 44.71875 
Q 8.5 49.078125 8.5 55.328125 
Q 8.5 64.0625 14.71875 69.140625 
Q 20.953125 74.21875 31.78125 74.21875 
Q 42.671875 74.21875 48.875 69.140625 
Q 55.078125 64.0625 55.078125 55.328125 
Q 55.078125 49.078125 51.53125 44.71875 
Q 48 40.375 41.703125 38.8125 
Q 48.828125 37.15625 52.796875 32.3125 
Q 56.78125 27.484375 56.78125 20.515625 
Q 56.78125 9.90625 50.3125 4.234375 
Q 43.84375 -1.421875 31.78125 -1.421875 
Q 19.734375 -1.421875 13.25 4.234375 
Q 6.78125 9.90625 6.78125 20.515625 
Q 6.78125 27.484375 10.78125 32.3125 
Q 14.796875 37.15625 21.921875 38.8125 
z
M 18.3125 54.390625 
Q 18.3125 48.734375 21.84375 45.5625 
Q 25.390625 42.390625 31.78125 42.390625 
Q 38.140625 42.390625 41.71875 45.5625 
Q 45.3125 48.734375 45.3125 54.390625 
Q 45.3125 60.0625 41.71875 63.234375 
Q 38.140625 66.40625 31.78125 66.40625 
Q 25.390625 66.40625 21.84375 63.234375 
Q 18.3125 60.0625 18.3125 54.390625 
z
" id="DejaVuSans-56"/>
      </defs>
      <g transform="translate(350.180624 322.182437)scale(0.1 -0.1)">
       <use xlink:href="#DejaVuSans-56"/>
      </g>
     </g>
    </g>
    <g id="text_6">
     <!-- time [s] -->
     <defs>
      <path d="M 18.3125 70.21875 
L 18.3125 54.6875 
L 36.8125 54.6875 
L 36.8125 47.703125 
L 18.3125 47.703125 
L 18.3125 18.015625 
Q 18.3125 11.328125 20.140625 9.421875 
Q 21.96875 7.515625 27.59375 7.515625 
L 36.8125 7.515625 
L 36.8125 0 
L 27.59375 0 
Q 17.1875 0 13.234375 3.875 
Q 9.28125 7.765625 9.28125 18.015625 
L 9.28125 47.703125 
L 2.6875 47.703125 
L 2.6875 54.6875 
L 9.28125 54.6875 
L 9.28125 70.21875 
z
" id="DejaVuSans-116"/>
      <path d="M 9.421875 54.6875 
L 18.40625 54.6875 
L 18.40625 0 
L 9.421875 0 
z
M 9.421875 75.984375 
L 18.40625 75.984375 
L 18.40625 64.59375 
L 9.421875 64.59375 
z
" id="DejaVuSans-105"/>
      <path d="M 52 44.1875 
Q 55.375 50.25 60.0625 53.125 
Q 64.75 56 71.09375 56 
Q 79.640625 56 84.28125 50.015625 
Q 88.921875 44.046875 88.921875 33.015625 
L 88.921875 0 
L 79.890625 0 
L 79.890625 32.71875 
Q 79.890625 40.578125 77.09375 44.375 
Q 74.3125 48.1875 68.609375 48.1875 
Q 61.625 48.1875 57.5625 43.546875 
Q 53.515625 38.921875 53.515625 30.90625 
L 53.515625 0 
L 44.484375 0 
L 44.484375 32.71875 
Q 44.484375 40.625 41.703125 44.40625 
Q 38.921875 48.1875 33.109375 48.1875 
Q 26.21875 48.1875 22.15625 43.53125 
Q 18.109375 38.875 18.109375 30.90625 
L 18.109375 0 
L 9.078125 0 
L 9.078125 54.6875 
L 18.109375 54.6875 
L 18.109375 46.1875 
Q 21.1875 51.21875 25.484375 53.609375 
Q 29.78125 56 35.6875 56 
Q 41.65625 56 45.828125 52.96875 
Q 50 49.953125 52 44.1875 
z
" id="DejaVuSans-109"/>
      <path d="M 56.203125 29.59375 
L 56.203125 25.203125 
L 14.890625 25.203125 
Q 15.484375 15.921875 20.484375 11.0625 
Q 25.484375 6.203125 34.421875 6.203125 
Q 39.59375 6.203125 44.453125 7.46875 
Q 49.3125 8.734375 54.109375 11.28125 
L 54.109375 2.78125 
Q 49.265625 0.734375 44.1875 -0.34375 
Q 39.109375 -1.421875 33.890625 -1.421875 
Q 20.796875 -1.421875 13.15625 6.1875 
Q 5.515625 13.8125 5.515625 26.8125 
Q 5.515625 40.234375 12.765625 48.109375 
Q 20.015625 56 32.328125 56 
Q 43.359375 56 49.78125 48.890625 
Q 56.203125 41.796875 56.203125 29.59375 
z
M 47.21875 32.234375 
Q 47.125 39.59375 43.09375 43.984375 
Q 39.0625 48.390625 32.421875 48.390625 
Q 24.90625 48.390625 20.390625 44.140625 
Q 15.875 39.890625 15.1875 32.171875 
z
" id="DejaVuSans-101"/>
      <path id="DejaVuSans-32"/>
      <path d="M 8.59375 75.984375 
L 29.296875 75.984375 
L 29.296875 69 
L 17.578125 69 
L 17.578125 -6.203125 
L 29.296875 -6.203125 
L 29.296875 -13.1875 
L 8.59375 -13.1875 
z
" id="DejaVuSans-91"/>
      <path d="M 44.28125 53.078125 
L 44.28125 44.578125 
Q 40.484375 46.53125 36.375 47.5 
Q 32.28125 48.484375 27.875 48.484375 
Q 21.1875 48.484375 17.84375 46.4375 
Q 14.5 44.390625 14.5 40.28125 
Q 14.5 37.15625 16.890625 35.375 
Q 19.28125 33.59375 26.515625 31.984375 
L 29.59375 31.296875 
Q 39.15625 29.25 43.1875 25.515625 
Q 47.21875 21.78125 47.21875 15.09375 
Q 47.21875 7.46875 41.1875 3.015625 
Q 35.15625 -1.421875 24.609375 -1.421875 
Q 20.21875 -1.421875 15.453125 -0.5625 
Q 10.6875 0.296875 5.421875 2 
L 5.421875 11.28125 
Q 10.40625 8.6875 15.234375 7.390625 
Q 20.0625 6.109375 24.8125 6.109375 
Q 31.15625 6.109375 34.5625 8.28125 
Q 37.984375 10.453125 37.984375 14.40625 
Q 37.984375 18.0625 35.515625 20.015625 
Q 33.0625 21.96875 24.703125 23.78125 
L 21.578125 24.515625 
Q 13.234375 26.265625 9.515625 29.90625 
Q 5.8125 33.546875 5.8125 39.890625 
Q 5.8125 47.609375 11.28125 51.796875 
Q 16.75 56 26.8125 56 
Q 31.78125 56 36.171875 55.265625 
Q 40.578125 54.546875 44.28125 53.078125 
z
" id="DejaVuSans-115"/>
      <path d="M 30.421875 75.984375 
L 30.421875 -13.1875 
L 9.71875 -13.1875 
L 9.71875 -6.203125 
L 21.390625 -6.203125 
L 21.390625 69 
L 9.71875 69 
L 9.71875 75.984375 
z
" id="DejaVuSans-93"/>
     </defs>
     <g transform="translate(201.639594 335.860562)scale(0.1 -0.1)">
      <use xlink:href="#DejaVuSans-116"/>
      <use x="39.208984" xlink:href="#DejaVuSans-105"/>
      <use x="66.992188" xlink:href="#DejaVuSans-109"/>
      <use x="164.404297" xlink:href="#DejaVuSans-101"/>
      <use x="225.927734" xlink:href="#DejaVuSans-32"/>
      <use x="257.714844" xlink:href="#DejaVuSans-91"/>
      <use x="296.728516" xlink:href="#DejaVuSans-115"/>
      <use x="348.828125" xlink:href="#DejaVuSans-93"/>
     </g>
    </g>
   </g>
   <g id="matplotlib.axis_2">
    <g id="ytick_1">
     <g id="line2d_6">
      <defs>
       <path d="M 0 0 
L -3.5 0 
" id="ma74e43c687" style="stroke:#000000;stroke-width:0.8;"/>
      </defs>
      <g>
       <use style="stroke:#000000;stroke-width:0.8;" x="53.91" xlink:href="#ma74e43c687" y="285.888762"/>
      </g>
     </g>
     <g id="text_7">
      <!-- 0.0 -->
      <defs>
       <path d="M 10.6875 12.40625 
L 21 12.40625 
L 21 0 
L 10.6875 0 
z
" id="DejaVuSans-46"/>
      </defs>
      <g transform="translate(31.006875 289.687981)scale(0.1 -0.1)">
       <use xlink:href="#DejaVuSans-48"/>
       <use x="63.623047" xlink:href="#DejaVuSans-46"/>
       <use x="95.410156" xlink:href="#DejaVuSans-48"/>
      </g>
     </g>
    </g>
    <g id="ytick_2">
     <g id="line2d_7">
      <g>
       <use style="stroke:#000000;stroke-width:0.8;" x="53.91" xlink:href="#ma74e43c687" y="248.800906"/>
      </g>
     </g>
     <g id="text_8">
      <!-- 0.2 -->
      <g transform="translate(31.006875 252.600124)scale(0.1 -0.1)">
       <use xlink:href="#DejaVuSans-48"/>
       <use x="63.623047" xlink:href="#DejaVuSans-46"/>
       <use x="95.410156" xlink:href="#DejaVuSans-50"/>
      </g>
     </g>
    </g>
    <g id="ytick_3">
     <g id="line2d_8">
      <g>
       <use style="stroke:#000000;stroke-width:0.8;" x="53.91" xlink:href="#ma74e43c687" y="211.71305"/>
      </g>
     </g>
     <g id="text_9">
      <!-- 0.4 -->
      <g transform="translate(31.006875 215.512268)scale(0.1 -0.1)">
       <use xlink:href="#DejaVuSans-48"/>
       <use x="63.623047" xlink:href="#DejaVuSans-46"/>
       <use x="95.410156" xlink:href="#DejaVuSans-52"/>
      </g>
     </g>
    </g>
    <g id="ytick_4">
     <g id="line2d_9">
      <g>
       <use style="stroke:#000000;stroke-width:0.8;" x="53.91" xlink:href="#ma74e43c687" y="174.625194"/>
      </g>
     </g>
     <g id="text_10">
      <!-- 0.6 -->
      <g transform="translate(31.006875 178.424412)scale(0.1 -0.1)">
       <use xlink:href="#DejaVuSans-48"/>
       <use x="63.623047" xlink:href="#DejaVuSans-46"/>
       <use x="95.410156" xlink:href="#DejaVuSans-54"/>
      </g>
     </g>
    </g>
    <g id="ytick_5">
     <g id="line2d_10">
      <g>
       <use style="stroke:#000000;stroke-width:0.8;" x="53.91" xlink:href="#ma74e43c687" y="137.537337"/>
      </g>
     </g>
     <g id="text_11">
      <!-- 0.8 -->
      <g transform="translate(31.006875 141.336556)scale(0.1 -0.1)">
       <use xlink:href="#DejaVuSans-48"/>
       <use x="63.623047" xlink:href="#DejaVuSans-46"/>
       <use x="95.410156" xlink:href="#DejaVuSans-56"/>
      </g>
     </g>
    </g>
    <g id="ytick_6">
     <g id="line2d_11">
      <g>
       <use style="stroke:#000000;stroke-width:0.8;" x="53.91" xlink:href="#ma74e43c687" y="100.449481"/>
      </g>
     </g>
     <g id="text_12">
      <!-- 1.0 -->
      <defs>
       <path d="M 12.40625 8.296875 
L 28.515625 8.296875 
L 28.515625 63.921875 
L 10.984375 60.40625 
L 10.984375 69.390625 
L 28.421875 72.90625 
L 38.28125 72.90625 
L 38.28125 8.296875 
L 54.390625 8.296875 
L 54.390625 0 
L 12.40625 0 
z
" id="DejaVuSans-49"/>
      </defs>
      <g transform="translate(31.006875 104.2487)scale(0.1 -0.1)">
       <use xlink:href="#DejaVuSans-49"/>
       <use x="63.623047" xlink:href="#DejaVuSans-46"/>
       <use x="95.410156" xlink:href="#DejaVuSans-48"/>
      </g>
     </g>
    </g>
    <g id="ytick_7">
     <g id="line2d_12">
      <g>
       <use style="stroke:#000000;stroke-width:0.8;" x="53.91" xlink:href="#ma74e43c687" y="63.361625"/>
      </g>
     </g>
     <g id="text_13">
      <!-- 1.2 -->
      <g transform="translate(31.006875 67.160844)scale(0.1 -0.1)">
       <use xlink:href="#DejaVuSans-49"/>
       <use x="63.623047" xlink:href="#DejaVuSans-46"/>
       <use x="95.410156" xlink:href="#DejaVuSans-50"/>
      </g>
     </g>
    </g>
    <g id="text_14">
     <!-- velocity [m/s] -->
     <defs>
      <path d="M 2.984375 54.6875 
L 12.5 54.6875 
L 29.59375 8.796875 
L 46.6875 54.6875 
L 56.203125 54.6875 
L 35.6875 0 
L 23.484375 0 
z
" id="DejaVuSans-118"/>
      <path d="M 9.421875 75.984375 
L 18.40625 75.984375 
L 18.40625 0 
L 9.421875 0 
z
" id="DejaVuSans-108"/>
      <path d="M 30.609375 48.390625 
Q 23.390625 48.390625 19.1875 42.75 
Q 14.984375 37.109375 14.984375 27.296875 
Q 14.984375 17.484375 19.15625 11.84375 
Q 23.34375 6.203125 30.609375 6.203125 
Q 37.796875 6.203125 41.984375 11.859375 
Q 46.1875 17.53125 46.1875 27.296875 
Q 46.1875 37.015625 41.984375 42.703125 
Q 37.796875 48.390625 30.609375 48.390625 
z
M 30.609375 56 
Q 42.328125 56 49.015625 48.375 
Q 55.71875 40.765625 55.71875 27.296875 
Q 55.71875 13.875 49.015625 6.21875 
Q 42.328125 -1.421875 30.609375 -1.421875 
Q 18.84375 -1.421875 12.171875 6.21875 
Q 5.515625 13.875 5.515625 27.296875 
Q 5.515625 40.765625 12.171875 48.375 
Q 18.84375 56 30.609375 56 
z
" id="DejaVuSans-111"/>
      <path d="M 48.78125 52.59375 
L 48.78125 44.1875 
Q 44.96875 46.296875 41.140625 47.34375 
Q 37.3125 48.390625 33.40625 48.390625 
Q 24.65625 48.390625 19.8125 42.84375 
Q 14.984375 37.3125 14.984375 27.296875 
Q 14.984375 17.28125 19.8125 11.734375 
Q 24.65625 6.203125 33.40625 6.203125 
Q 37.3125 6.203125 41.140625 7.25 
Q 44.96875 8.296875 48.78125 10.40625 
L 48.78125 2.09375 
Q 45.015625 0.34375 40.984375 -0.53125 
Q 36.96875 -1.421875 32.421875 -1.421875 
Q 20.0625 -1.421875 12.78125 6.34375 
Q 5.515625 14.109375 5.515625 27.296875 
Q 5.515625 40.671875 12.859375 48.328125 
Q 20.21875 56 33.015625 56 
Q 37.15625 56 41.109375 55.140625 
Q 45.0625 54.296875 48.78125 52.59375 
z
" id="DejaVuSans-99"/>
      <path d="M 32.171875 -5.078125 
Q 28.375 -14.84375 24.75 -17.8125 
Q 21.140625 -20.796875 15.09375 -20.796875 
L 7.90625 -20.796875 
L 7.90625 -13.28125 
L 13.1875 -13.28125 
Q 16.890625 -13.28125 18.9375 -11.515625 
Q 21 -9.765625 23.484375 -3.21875 
L 25.09375 0.875 
L 2.984375 54.6875 
L 12.5 54.6875 
L 29.59375 11.921875 
L 46.6875 54.6875 
L 56.203125 54.6875 
z
" id="DejaVuSans-121"/>
      <path d="M 25.390625 72.90625 
L 33.6875 72.90625 
L 8.296875 -9.28125 
L 0 -9.28125 
z
" id="DejaVuSans-47"/>
     </defs>
     <g transform="translate(24.927187 208.720188)rotate(-90)scale(0.1 -0.1)">
      <use xlink:href="#DejaVuSans-118"/>
      <use x="59.179688" xlink:href="#DejaVuSans-101"/>
      <use x="120.703125" xlink:href="#DejaVuSans-108"/>
      <use x="148.486328" xlink:href="#DejaVuSans-111"/>
      <use x="209.667969" xlink:href="#DejaVuSans-99"/>
      <use x="264.648438" xlink:href="#DejaVuSans-105"/>
      <use x="292.431641" xlink:href="#DejaVuSans-116"/>
      <use x="331.640625" xlink:href="#DejaVuSans-121"/>
      <use x="390.820312" xlink:href="#DejaVuSans-32"/>
      <use x="422.607422" xlink:href="#DejaVuSans-91"/>
      <use x="461.621094" xlink:href="#DejaVuSans-109"/>
      <use x="559.033203" xlink:href="#DejaVuSans-47"/>
      <use x="592.724609" xlink:href="#DejaVuSans-115"/>
      <use x="644.824219" xlink:href="#DejaVuSans-93"/>
     </g>
    </g>
   </g>
   <g id="patch_3">
    <path d="M 53.91 307.584 
L 53.91 41.472 
" style="fill:none;stroke:#000000;stroke-linecap:square;stroke-linejoin:miter;stroke-width:0.8;"/>
   </g>
   <g id="patch_4">
    <path d="M 388.152 307.584 
L 388.152 41.472 
" style="fill:none;stroke:#000000;stroke-linecap:square;stroke-linejoin:miter;stroke-width:0.8;"/>
   </g>
   <g id="patch_5">
    <path d="M 53.91 307.584 
L 388.152 307.584 
" style="fill:none;stroke:#000000;stroke-linecap:square;stroke-linejoin:miter;stroke-width:0.8;"/>
   </g>
   <g id="patch_6">
    <path d="M 53.91 41.472 
L 388.152 41.472 
" style="fill:none;stroke:#000000;stroke-linecap:square;stroke-linejoin:miter;stroke-width:0.8;"/>
   </g>
   <g id="text_15">
    <!-- Bag 40 -->
    <defs>
     <path d="M 19.671875 34.8125 
L 19.671875 8.109375 
L 35.5 8.109375 
Q 43.453125 8.109375 47.28125 11.40625 
Q 51.125 14.703125 51.125 21.484375 
Q 51.125 28.328125 47.28125 31.5625 
Q 43.453125 34.8125 35.5 34.8125 
z
M 19.671875 64.796875 
L 19.671875 42.828125 
L 34.28125 42.828125 
Q 41.5 42.828125 45.03125 45.53125 
Q 48.578125 48.25 48.578125 53.8125 
Q 48.578125 59.328125 45.03125 62.0625 
Q 41.5 64.796875 34.28125 64.796875 
z
M 9.8125 72.90625 
L 35.015625 72.90625 
Q 46.296875 72.90625 52.390625 68.21875 
Q 58.5 63.53125 58.5 54.890625 
Q 58.5 48.1875 55.375 44.234375 
Q 52.25 40.28125 46.1875 39.3125 
Q 53.46875 37.75 57.5 32.78125 
Q 61.53125 27.828125 61.53125 20.40625 
Q 61.53125 10.640625 54.890625 5.3125 
Q 48.25 0 35.984375 0 
L 9.8125 0 
z
" id="DejaVuSans-66"/>
     <path d="M 34.28125 27.484375 
Q 23.390625 27.484375 19.1875 25 
Q 14.984375 22.515625 14.984375 16.5 
Q 14.984375 11.71875 18.140625 8.90625 
Q 21.296875 6.109375 26.703125 6.109375 
Q 34.1875 6.109375 38.703125 11.40625 
Q 43.21875 16.703125 43.21875 25.484375 
L 43.21875 27.484375 
z
M 52.203125 31.203125 
L 52.203125 0 
L 43.21875 0 
L 43.21875 8.296875 
Q 40.140625 3.328125 35.546875 0.953125 
Q 30.953125 -1.421875 24.3125 -1.421875 
Q 15.921875 -1.421875 10.953125 3.296875 
Q 6 8.015625 6 15.921875 
Q 6 25.140625 12.171875 29.828125 
Q 18.359375 34.515625 30.609375 34.515625 
L 43.21875 34.515625 
L 43.21875 35.40625 
Q 43.21875 41.609375 39.140625 45 
Q 35.0625 48.390625 27.6875 48.390625 
Q 23 48.390625 18.546875 47.265625 
Q 14.109375 46.140625 10.015625 43.890625 
L 10.015625 52.203125 
Q 14.9375 54.109375 19.578125 55.046875 
Q 24.21875 56 28.609375 56 
Q 40.484375 56 46.34375 49.84375 
Q 52.203125 43.703125 52.203125 31.203125 
z
" id="DejaVuSans-97"/>
     <path d="M 45.40625 27.984375 
Q 45.40625 37.75 41.375 43.109375 
Q 37.359375 48.484375 30.078125 48.484375 
Q 22.859375 48.484375 18.828125 43.109375 
Q 14.796875 37.75 14.796875 27.984375 
Q 14.796875 18.265625 18.828125 12.890625 
Q 22.859375 7.515625 30.078125 7.515625 
Q 37.359375 7.515625 41.375 12.890625 
Q 45.40625 18.265625 45.40625 27.984375 
z
M 54.390625 6.78125 
Q 54.390625 -7.171875 48.1875 -13.984375 
Q 42 -20.796875 29.203125 -20.796875 
Q 24.46875 -20.796875 20.265625 -20.09375 
Q 16.0625 -19.390625 12.109375 -17.921875 
L 12.109375 -9.1875 
Q 16.0625 -11.328125 19.921875 -12.34375 
Q 23.78125 -13.375 27.78125 -13.375 
Q 36.625 -13.375 41.015625 -8.765625 
Q 45.40625 -4.15625 45.40625 5.171875 
L 45.40625 9.625 
Q 42.625 4.78125 38.28125 2.390625 
Q 33.9375 0 27.875 0 
Q 17.828125 0 11.671875 7.65625 
Q 5.515625 15.328125 5.515625 27.984375 
Q 5.515625 40.671875 11.671875 48.328125 
Q 17.828125 56 27.875 56 
Q 33.9375 56 38.28125 53.609375 
Q 42.625 51.21875 45.40625 46.390625 
L 45.40625 54.6875 
L 54.390625 54.6875 
z
" id="DejaVuSans-103"/>
    </defs>
    <g transform="translate(199.886625 35.472)scale(0.12 -0.12)">
     <use xlink:href="#DejaVuSans-66"/>
     <use x="68.603516" xlink:href="#DejaVuSans-97"/>
     <use x="129.882812" xlink:href="#DejaVuSans-103"/>
     <use x="193.359375" xlink:href="#DejaVuSans-32"/>
     <use x="225.146484" xlink:href="#DejaVuSans-52"/>
     <use x="288.769531" xlink:href="#DejaVuSans-48"/>
    </g>
   </g>
   <g id="legend_1">
    <g id="patch_7">
     <path d="M 302.784813 78.82825 
L 381.152 78.82825 
Q 383.152 78.82825 383.152 76.82825 
L 383.152 48.472 
Q 383.152 46.472 381.152 46.472 
L 302.784813 46.472 
Q 300.784813 46.472 300.784813 48.472 
L 300.784813 76.82825 
Q 300.784813 78.82825 302.784813 78.82825 
z
" style="fill:#ffffff;opacity:0.8;stroke:#cccccc;stroke-linejoin:miter;"/>
    </g>
    <g id="PathCollection_3">
     <g>
      <use style="fill:#1f77b4;stroke:#1f77b4;" x="314.784813" xlink:href="#m599e11975b" y="55.445437"/>
     </g>
    </g>
    <g id="text_16">
     <!-- Radar -->
     <defs>
      <path d="M 44.390625 34.1875 
Q 47.5625 33.109375 50.5625 29.59375 
Q 53.5625 26.078125 56.59375 19.921875 
L 66.609375 0 
L 56 0 
L 46.6875 18.703125 
Q 43.0625 26.03125 39.671875 28.421875 
Q 36.28125 30.8125 30.421875 30.8125 
L 19.671875 30.8125 
L 19.671875 0 
L 9.8125 0 
L 9.8125 72.90625 
L 32.078125 72.90625 
Q 44.578125 72.90625 50.734375 67.671875 
Q 56.890625 62.453125 56.890625 51.90625 
Q 56.890625 45.015625 53.6875 40.46875 
Q 50.484375 35.9375 44.390625 34.1875 
z
M 19.671875 64.796875 
L 19.671875 38.921875 
L 32.078125 38.921875 
Q 39.203125 38.921875 42.84375 42.21875 
Q 46.484375 45.515625 46.484375 51.90625 
Q 46.484375 58.296875 42.84375 61.546875 
Q 39.203125 64.796875 32.078125 64.796875 
z
" id="DejaVuSans-82"/>
      <path d="M 45.40625 46.390625 
L 45.40625 75.984375 
L 54.390625 75.984375 
L 54.390625 0 
L 45.40625 0 
L 45.40625 8.203125 
Q 42.578125 3.328125 38.25 0.953125 
Q 33.9375 -1.421875 27.875 -1.421875 
Q 17.96875 -1.421875 11.734375 6.484375 
Q 5.515625 14.40625 5.515625 27.296875 
Q 5.515625 40.1875 11.734375 48.09375 
Q 17.96875 56 27.875 56 
Q 33.9375 56 38.25 53.625 
Q 42.578125 51.265625 45.40625 46.390625 
z
M 14.796875 27.296875 
Q 14.796875 17.390625 18.875 11.75 
Q 22.953125 6.109375 30.078125 6.109375 
Q 37.203125 6.109375 41.296875 11.75 
Q 45.40625 17.390625 45.40625 27.296875 
Q 45.40625 37.203125 41.296875 42.84375 
Q 37.203125 48.484375 30.078125 48.484375 
Q 22.953125 48.484375 18.875 42.84375 
Q 14.796875 37.203125 14.796875 27.296875 
z
" id="DejaVuSans-100"/>
      <path d="M 41.109375 46.296875 
Q 39.59375 47.171875 37.8125 47.578125 
Q 36.03125 48 33.890625 48 
Q 26.265625 48 22.1875 43.046875 
Q 18.109375 38.09375 18.109375 28.8125 
L 18.109375 0 
L 9.078125 0 
L 9.078125 54.6875 
L 18.109375 54.6875 
L 18.109375 46.1875 
Q 20.953125 51.171875 25.484375 53.578125 
Q 30.03125 56 36.53125 56 
Q 37.453125 56 38.578125 55.875 
Q 39.703125 55.765625 41.0625 55.515625 
z
" id="DejaVuSans-114"/>
     </defs>
     <g transform="translate(332.784813 58.070437)scale(0.1 -0.1)">
      <use xlink:href="#DejaVuSans-82"/>
      <use x="67.232422" xlink:href="#DejaVuSans-97"/>
      <use x="128.511719" xlink:href="#DejaVuSans-100"/>
      <use x="191.988281" xlink:href="#DejaVuSans-97"/>
      <use x="253.267578" xlink:href="#DejaVuSans-114"/>
     </g>
    </g>
    <g id="PathCollection_4">
     <g>
      <use style="fill:#ff7f0e;stroke:#ff7f0e;" x="314.784813" xlink:href="#m2498718317" y="70.123562"/>
     </g>
    </g>
    <g id="text_17">
     <!-- Optitrack -->
     <defs>
      <path d="M 39.40625 66.21875 
Q 28.65625 66.21875 22.328125 58.203125 
Q 16.015625 50.203125 16.015625 36.375 
Q 16.015625 22.609375 22.328125 14.59375 
Q 28.65625 6.59375 39.40625 6.59375 
Q 50.140625 6.59375 56.421875 14.59375 
Q 62.703125 22.609375 62.703125 36.375 
Q 62.703125 50.203125 56.421875 58.203125 
Q 50.140625 66.21875 39.40625 66.21875 
z
M 39.40625 74.21875 
Q 54.734375 74.21875 63.90625 63.9375 
Q 73.09375 53.65625 73.09375 36.375 
Q 73.09375 19.140625 63.90625 8.859375 
Q 54.734375 -1.421875 39.40625 -1.421875 
Q 24.03125 -1.421875 14.8125 8.828125 
Q 5.609375 19.09375 5.609375 36.375 
Q 5.609375 53.65625 14.8125 63.9375 
Q 24.03125 74.21875 39.40625 74.21875 
z
" id="DejaVuSans-79"/>
      <path d="M 18.109375 8.203125 
L 18.109375 -20.796875 
L 9.078125 -20.796875 
L 9.078125 54.6875 
L 18.109375 54.6875 
L 18.109375 46.390625 
Q 20.953125 51.265625 25.265625 53.625 
Q 29.59375 56 35.59375 56 
Q 45.5625 56 51.78125 48.09375 
Q 58.015625 40.1875 58.015625 27.296875 
Q 58.015625 14.40625 51.78125 6.484375 
Q 45.5625 -1.421875 35.59375 -1.421875 
Q 29.59375 -1.421875 25.265625 0.953125 
Q 20.953125 3.328125 18.109375 8.203125 
z
M 48.6875 27.296875 
Q 48.6875 37.203125 44.609375 42.84375 
Q 40.53125 48.484375 33.40625 48.484375 
Q 26.265625 48.484375 22.1875 42.84375 
Q 18.109375 37.203125 18.109375 27.296875 
Q 18.109375 17.390625 22.1875 11.75 
Q 26.265625 6.109375 33.40625 6.109375 
Q 40.53125 6.109375 44.609375 11.75 
Q 48.6875 17.390625 48.6875 27.296875 
z
" id="DejaVuSans-112"/>
      <path d="M 9.078125 75.984375 
L 18.109375 75.984375 
L 18.109375 31.109375 
L 44.921875 54.6875 
L 56.390625 54.6875 
L 27.390625 29.109375 
L 57.625 0 
L 45.90625 0 
L 18.109375 26.703125 
L 18.109375 0 
L 9.078125 0 
z
" id="DejaVuSans-107"/>
     </defs>
     <g transform="translate(332.784813 72.748562)scale(0.1 -0.1)">
      <use xlink:href="#DejaVuSans-79"/>
      <use x="78.710938" xlink:href="#DejaVuSans-112"/>
      <use x="142.1875" xlink:href="#DejaVuSans-116"/>
      <use x="181.396484" xlink:href="#DejaVuSans-105"/>
      <use x="209.179688" xlink:href="#DejaVuSans-116"/>
      <use x="248.388672" xlink:href="#DejaVuSans-114"/>
      <use x="289.501953" xlink:href="#DejaVuSans-97"/>
      <use x="350.78125" xlink:href="#DejaVuSans-99"/>
      <use x="405.761719" xlink:href="#DejaVuSans-107"/>
     </g>
    </g>
   </g>
  </g>
 </g>
 <defs>
  <clipPath id="p1e0f583e66">
   <rect height="266.112" width="334.242" x="53.91" y="41.472"/>
  </clipPath>
 </defs>
</svg>
