<?xml version="1.0" encoding="utf-8" standalone="no"?>
<!DOCTYPE svg PUBLIC "-//W3C//DTD SVG 1.1//EN"
  "http://www.w3.org/Graphics/SVG/1.1/DTD/svg11.dtd">
<!-- Created with matplotlib (https://matplotlib.org/) -->
<svg height="345.6pt" version="1.1" viewBox="0 0 399.6 345.6" width="399.6pt" xmlns="http://www.w3.org/2000/svg" xmlns:xlink="http://www.w3.org/1999/xlink">
 <defs>
  <style type="text/css">
*{stroke-linecap:butt;stroke-linejoin:round;}
  </style>
 </defs>
 <g id="figure_1">
  <g id="patch_1">
   <path d="M 0 345.6 
L 399.6 345.6 
L 399.6 0 
L 0 0 
z
" style="fill:#ffffff;"/>
  </g>
  <g id="axes_1">
   <g id="patch_2">
    <path d="M 39.008571 312.685714 
L 394.842857 312.685714 
L 394.842857 17.28 
L 39.008571 17.28 
z
" style="fill:#ffffff;"/>
   </g>
   <g id="PathCollection_1">
    <defs>
     <path d="M 0 3 
C 0.795609 3 1.55874 2.683901 2.12132 2.12132 
C 2.683901 1.55874 3 0.795609 3 0 
C 3 -0.795609 2.683901 -1.55874 2.12132 -2.12132 
C 1.55874 -2.683901 0.795609 -3 0 -3 
C -0.795609 -3 -1.55874 -2.683901 -2.12132 -2.12132 
C -2.683901 -1.55874 -3 -0.795609 -3 0 
C -3 0.795609 -2.683901 1.55874 -2.12132 2.12132 
C -1.55874 2.683901 -0.795609 3 0 3 
z
" id="m8df7e6b4e8" style="stroke:#1f77b4;"/>
    </defs>
    <g clip-path="url(#p12e5ae8798)">
     <use style="fill:#1f77b4;stroke:#1f77b4;" x="55.182857" xlink:href="#m8df7e6b4e8" y="234.890362"/>
     <use style="fill:#1f77b4;stroke:#1f77b4;" x="58.45039" xlink:href="#m8df7e6b4e8" y="219.499762"/>
     <use style="fill:#1f77b4;stroke:#1f77b4;" x="61.717922" xlink:href="#m8df7e6b4e8" y="220.442528"/>
     <use style="fill:#1f77b4;stroke:#1f77b4;" x="64.985455" xlink:href="#m8df7e6b4e8" y="233.706791"/>
     <use style="fill:#1f77b4;stroke:#1f77b4;" x="68.252987" xlink:href="#m8df7e6b4e8" y="156.157056"/>
     <use style="fill:#1f77b4;stroke:#1f77b4;" x="71.520519" xlink:href="#m8df7e6b4e8" y="222.330739"/>
     <use style="fill:#1f77b4;stroke:#1f77b4;" x="74.788052" xlink:href="#m8df7e6b4e8" y="144.563239"/>
     <use style="fill:#1f77b4;stroke:#1f77b4;" x="78.055584" xlink:href="#m8df7e6b4e8" y="210.661882"/>
     <use style="fill:#1f77b4;stroke:#1f77b4;" x="81.323117" xlink:href="#m8df7e6b4e8" y="30.707532"/>
     <use style="fill:#1f77b4;stroke:#1f77b4;" x="84.590649" xlink:href="#m8df7e6b4e8" y="241.239737"/>
     <use style="fill:#1f77b4;stroke:#1f77b4;" x="87.858182" xlink:href="#m8df7e6b4e8" y="280.687215"/>
     <use style="fill:#1f77b4;stroke:#1f77b4;" x="91.125714" xlink:href="#m8df7e6b4e8" y="67.086301"/>
     <use style="fill:#1f77b4;stroke:#1f77b4;" x="94.393247" xlink:href="#m8df7e6b4e8" y="130.191864"/>
     <use style="fill:#1f77b4;stroke:#1f77b4;" x="97.660779" xlink:href="#m8df7e6b4e8" y="243.305514"/>
     <use style="fill:#1f77b4;stroke:#1f77b4;" x="104.195844" xlink:href="#m8df7e6b4e8" y="262.256715"/>
     <use style="fill:#1f77b4;stroke:#1f77b4;" x="107.463377" xlink:href="#m8df7e6b4e8" y="216.59605"/>
     <use style="fill:#1f77b4;stroke:#1f77b4;" x="110.730909" xlink:href="#m8df7e6b4e8" y="250.69722"/>
     <use style="fill:#1f77b4;stroke:#1f77b4;" x="113.998442" xlink:href="#m8df7e6b4e8" y="254.389916"/>
     <use style="fill:#1f77b4;stroke:#1f77b4;" x="117.265974" xlink:href="#m8df7e6b4e8" y="299.258182"/>
     <use style="fill:#1f77b4;stroke:#1f77b4;" x="120.533506" xlink:href="#m8df7e6b4e8" y="232.739416"/>
     <use style="fill:#1f77b4;stroke:#1f77b4;" x="123.801039" xlink:href="#m8df7e6b4e8" y="258.743176"/>
     <use style="fill:#1f77b4;stroke:#1f77b4;" x="127.068571" xlink:href="#m8df7e6b4e8" y="262.866565"/>
     <use style="fill:#1f77b4;stroke:#1f77b4;" x="130.336104" xlink:href="#m8df7e6b4e8" y="227.162402"/>
     <use style="fill:#1f77b4;stroke:#1f77b4;" x="133.603636" xlink:href="#m8df7e6b4e8" y="259.023284"/>
     <use style="fill:#1f77b4;stroke:#1f77b4;" x="136.871169" xlink:href="#m8df7e6b4e8" y="298.480463"/>
     <use style="fill:#1f77b4;stroke:#1f77b4;" x="140.138701" xlink:href="#m8df7e6b4e8" y="241.213553"/>
     <use style="fill:#1f77b4;stroke:#1f77b4;" x="143.406234" xlink:href="#m8df7e6b4e8" y="261.750795"/>
     <use style="fill:#1f77b4;stroke:#1f77b4;" x="146.673766" xlink:href="#m8df7e6b4e8" y="191.527545"/>
     <use style="fill:#1f77b4;stroke:#1f77b4;" x="149.941299" xlink:href="#m8df7e6b4e8" y="264.096269"/>
     <use style="fill:#1f77b4;stroke:#1f77b4;" x="153.208831" xlink:href="#m8df7e6b4e8" y="249.954774"/>
     <use style="fill:#1f77b4;stroke:#1f77b4;" x="156.476364" xlink:href="#m8df7e6b4e8" y="292.415689"/>
     <use style="fill:#1f77b4;stroke:#1f77b4;" x="159.743896" xlink:href="#m8df7e6b4e8" y="234.811152"/>
     <use style="fill:#1f77b4;stroke:#1f77b4;" x="163.011429" xlink:href="#m8df7e6b4e8" y="221.863551"/>
     <use style="fill:#1f77b4;stroke:#1f77b4;" x="166.278961" xlink:href="#m8df7e6b4e8" y="227.534805"/>
     <use style="fill:#1f77b4;stroke:#1f77b4;" x="169.546494" xlink:href="#m8df7e6b4e8" y="286.009755"/>
     <use style="fill:#1f77b4;stroke:#1f77b4;" x="172.814026" xlink:href="#m8df7e6b4e8" y="296.614875"/>
     <use style="fill:#1f77b4;stroke:#1f77b4;" x="176.081558" xlink:href="#m8df7e6b4e8" y="275.756969"/>
     <use style="fill:#1f77b4;stroke:#1f77b4;" x="179.349091" xlink:href="#m8df7e6b4e8" y="203.243151"/>
     <use style="fill:#1f77b4;stroke:#1f77b4;" x="182.616623" xlink:href="#m8df7e6b4e8" y="264.331932"/>
     <use style="fill:#1f77b4;stroke:#1f77b4;" x="185.884156" xlink:href="#m8df7e6b4e8" y="213.786493"/>
     <use style="fill:#1f77b4;stroke:#1f77b4;" x="189.151688" xlink:href="#m8df7e6b4e8" y="248.315034"/>
     <use style="fill:#1f77b4;stroke:#1f77b4;" x="192.419221" xlink:href="#m8df7e6b4e8" y="248.525781"/>
     <use style="fill:#1f77b4;stroke:#1f77b4;" x="195.686753" xlink:href="#m8df7e6b4e8" y="263.270117"/>
     <use style="fill:#1f77b4;stroke:#1f77b4;" x="198.954286" xlink:href="#m8df7e6b4e8" y="160.590664"/>
     <use style="fill:#1f77b4;stroke:#1f77b4;" x="202.221818" xlink:href="#m8df7e6b4e8" y="257.961979"/>
     <use style="fill:#1f77b4;stroke:#1f77b4;" x="205.489351" xlink:href="#m8df7e6b4e8" y="256.538065"/>
     <use style="fill:#1f77b4;stroke:#1f77b4;" x="208.756883" xlink:href="#m8df7e6b4e8" y="242.123209"/>
     <use style="fill:#1f77b4;stroke:#1f77b4;" x="212.024416" xlink:href="#m8df7e6b4e8" y="191.776503"/>
     <use style="fill:#1f77b4;stroke:#1f77b4;" x="215.291948" xlink:href="#m8df7e6b4e8" y="295.031531"/>
     <use style="fill:#1f77b4;stroke:#1f77b4;" x="218.559481" xlink:href="#m8df7e6b4e8" y="230.570228"/>
     <use style="fill:#1f77b4;stroke:#1f77b4;" x="221.827013" xlink:href="#m8df7e6b4e8" y="243.642879"/>
     <use style="fill:#1f77b4;stroke:#1f77b4;" x="225.094545" xlink:href="#m8df7e6b4e8" y="187.316199"/>
     <use style="fill:#1f77b4;stroke:#1f77b4;" x="228.362078" xlink:href="#m8df7e6b4e8" y="261.201507"/>
     <use style="fill:#1f77b4;stroke:#1f77b4;" x="231.62961" xlink:href="#m8df7e6b4e8" y="267.499323"/>
     <use style="fill:#1f77b4;stroke:#1f77b4;" x="234.897143" xlink:href="#m8df7e6b4e8" y="218.691033"/>
     <use style="fill:#1f77b4;stroke:#1f77b4;" x="238.164675" xlink:href="#m8df7e6b4e8" y="249.801954"/>
     <use style="fill:#1f77b4;stroke:#1f77b4;" x="241.432208" xlink:href="#m8df7e6b4e8" y="243.039186"/>
     <use style="fill:#1f77b4;stroke:#1f77b4;" x="244.69974" xlink:href="#m8df7e6b4e8" y="223.991096"/>
     <use style="fill:#1f77b4;stroke:#1f77b4;" x="247.967273" xlink:href="#m8df7e6b4e8" y="248.479439"/>
     <use style="fill:#1f77b4;stroke:#1f77b4;" x="251.234805" xlink:href="#m8df7e6b4e8" y="257.131843"/>
     <use style="fill:#1f77b4;stroke:#1f77b4;" x="254.502338" xlink:href="#m8df7e6b4e8" y="172.420233"/>
     <use style="fill:#1f77b4;stroke:#1f77b4;" x="257.76987" xlink:href="#m8df7e6b4e8" y="245.659452"/>
     <use style="fill:#1f77b4;stroke:#1f77b4;" x="261.037403" xlink:href="#m8df7e6b4e8" y="198.274969"/>
     <use style="fill:#1f77b4;stroke:#1f77b4;" x="264.304935" xlink:href="#m8df7e6b4e8" y="254.98373"/>
     <use style="fill:#1f77b4;stroke:#1f77b4;" x="267.572468" xlink:href="#m8df7e6b4e8" y="192.737925"/>
     <use style="fill:#1f77b4;stroke:#1f77b4;" x="270.84" xlink:href="#m8df7e6b4e8" y="143.595265"/>
     <use style="fill:#1f77b4;stroke:#1f77b4;" x="274.107532" xlink:href="#m8df7e6b4e8" y="287.662483"/>
     <use style="fill:#1f77b4;stroke:#1f77b4;" x="280.642597" xlink:href="#m8df7e6b4e8" y="239.647408"/>
     <use style="fill:#1f77b4;stroke:#1f77b4;" x="283.91013" xlink:href="#m8df7e6b4e8" y="224.677587"/>
     <use style="fill:#1f77b4;stroke:#1f77b4;" x="287.177662" xlink:href="#m8df7e6b4e8" y="211.339351"/>
     <use style="fill:#1f77b4;stroke:#1f77b4;" x="290.445195" xlink:href="#m8df7e6b4e8" y="222.184617"/>
     <use style="fill:#1f77b4;stroke:#1f77b4;" x="293.712727" xlink:href="#m8df7e6b4e8" y="249.437507"/>
     <use style="fill:#1f77b4;stroke:#1f77b4;" x="296.98026" xlink:href="#m8df7e6b4e8" y="259.599443"/>
     <use style="fill:#1f77b4;stroke:#1f77b4;" x="300.247792" xlink:href="#m8df7e6b4e8" y="234.078229"/>
     <use style="fill:#1f77b4;stroke:#1f77b4;" x="303.515325" xlink:href="#m8df7e6b4e8" y="253.387777"/>
     <use style="fill:#1f77b4;stroke:#1f77b4;" x="306.782857" xlink:href="#m8df7e6b4e8" y="231.732159"/>
     <use style="fill:#1f77b4;stroke:#1f77b4;" x="310.05039" xlink:href="#m8df7e6b4e8" y="291.864499"/>
     <use style="fill:#1f77b4;stroke:#1f77b4;" x="313.317922" xlink:href="#m8df7e6b4e8" y="247.187431"/>
     <use style="fill:#1f77b4;stroke:#1f77b4;" x="316.585455" xlink:href="#m8df7e6b4e8" y="207.294127"/>
     <use style="fill:#1f77b4;stroke:#1f77b4;" x="319.852987" xlink:href="#m8df7e6b4e8" y="188.955085"/>
     <use style="fill:#1f77b4;stroke:#1f77b4;" x="323.120519" xlink:href="#m8df7e6b4e8" y="229.500196"/>
     <use style="fill:#1f77b4;stroke:#1f77b4;" x="326.388052" xlink:href="#m8df7e6b4e8" y="280.106548"/>
     <use style="fill:#1f77b4;stroke:#1f77b4;" x="329.655584" xlink:href="#m8df7e6b4e8" y="219.738104"/>
     <use style="fill:#1f77b4;stroke:#1f77b4;" x="332.923117" xlink:href="#m8df7e6b4e8" y="234.016945"/>
     <use style="fill:#1f77b4;stroke:#1f77b4;" x="336.190649" xlink:href="#m8df7e6b4e8" y="213.786333"/>
     <use style="fill:#1f77b4;stroke:#1f77b4;" x="339.458182" xlink:href="#m8df7e6b4e8" y="197.469545"/>
     <use style="fill:#1f77b4;stroke:#1f77b4;" x="342.725714" xlink:href="#m8df7e6b4e8" y="205.752963"/>
     <use style="fill:#1f77b4;stroke:#1f77b4;" x="345.993247" xlink:href="#m8df7e6b4e8" y="233.98338"/>
     <use style="fill:#1f77b4;stroke:#1f77b4;" x="349.260779" xlink:href="#m8df7e6b4e8" y="255.870495"/>
     <use style="fill:#1f77b4;stroke:#1f77b4;" x="352.528312" xlink:href="#m8df7e6b4e8" y="265.147559"/>
     <use style="fill:#1f77b4;stroke:#1f77b4;" x="355.795844" xlink:href="#m8df7e6b4e8" y="258.943871"/>
     <use style="fill:#1f77b4;stroke:#1f77b4;" x="359.063377" xlink:href="#m8df7e6b4e8" y="230.606576"/>
     <use style="fill:#1f77b4;stroke:#1f77b4;" x="365.598442" xlink:href="#m8df7e6b4e8" y="259.38884"/>
     <use style="fill:#1f77b4;stroke:#1f77b4;" x="368.865974" xlink:href="#m8df7e6b4e8" y="205.187439"/>
     <use style="fill:#1f77b4;stroke:#1f77b4;" x="372.133506" xlink:href="#m8df7e6b4e8" y="218.108675"/>
     <use style="fill:#1f77b4;stroke:#1f77b4;" x="375.401039" xlink:href="#m8df7e6b4e8" y="264.818958"/>
     <use style="fill:#1f77b4;stroke:#1f77b4;" x="378.668571" xlink:href="#m8df7e6b4e8" y="271.734067"/>
    </g>
   </g>
   <g id="matplotlib.axis_1">
    <g id="xtick_1">
     <g id="line2d_1">
      <defs>
       <path d="M 0 0 
L 0 3.5 
" id="m25c209942e" style="stroke:#000000;stroke-width:0.8;"/>
      </defs>
      <g>
       <use style="stroke:#000000;stroke-width:0.8;" x="51.915325" xlink:href="#m25c209942e" y="312.685714"/>
      </g>
     </g>
     <g id="text_1">
      <!-- 0 -->
      <defs>
       <path d="M 31.78125 66.40625 
Q 24.171875 66.40625 20.328125 58.90625 
Q 16.5 51.421875 16.5 36.375 
Q 16.5 21.390625 20.328125 13.890625 
Q 24.171875 6.390625 31.78125 6.390625 
Q 39.453125 6.390625 43.28125 13.890625 
Q 47.125 21.390625 47.125 36.375 
Q 47.125 51.421875 43.28125 58.90625 
Q 39.453125 66.40625 31.78125 66.40625 
z
M 31.78125 74.21875 
Q 44.046875 74.21875 50.515625 64.515625 
Q 56.984375 54.828125 56.984375 36.375 
Q 56.984375 17.96875 50.515625 8.265625 
Q 44.046875 -1.421875 31.78125 -1.421875 
Q 19.53125 -1.421875 13.0625 8.265625 
Q 6.59375 17.96875 6.59375 36.375 
Q 6.59375 54.828125 13.0625 64.515625 
Q 19.53125 74.21875 31.78125 74.21875 
z
" id="DejaVuSans-48"/>
      </defs>
      <g transform="translate(48.734075 327.284152)scale(0.1 -0.1)">
       <use xlink:href="#DejaVuSans-48"/>
      </g>
     </g>
    </g>
    <g id="xtick_2">
     <g id="line2d_2">
      <g>
       <use style="stroke:#000000;stroke-width:0.8;" x="117.265974" xlink:href="#m25c209942e" y="312.685714"/>
      </g>
     </g>
     <g id="text_2">
      <!-- 20 -->
      <defs>
       <path d="M 19.1875 8.296875 
L 53.609375 8.296875 
L 53.609375 0 
L 7.328125 0 
L 7.328125 8.296875 
Q 12.9375 14.109375 22.625 23.890625 
Q 32.328125 33.6875 34.8125 36.53125 
Q 39.546875 41.84375 41.421875 45.53125 
Q 43.3125 49.21875 43.3125 52.78125 
Q 43.3125 58.59375 39.234375 62.25 
Q 35.15625 65.921875 28.609375 65.921875 
Q 23.96875 65.921875 18.8125 64.3125 
Q 13.671875 62.703125 7.8125 59.421875 
L 7.8125 69.390625 
Q 13.765625 71.78125 18.9375 73 
Q 24.125 74.21875 28.421875 74.21875 
Q 39.75 74.21875 46.484375 68.546875 
Q 53.21875 62.890625 53.21875 53.421875 
Q 53.21875 48.921875 51.53125 44.890625 
Q 49.859375 40.875 45.40625 35.40625 
Q 44.1875 33.984375 37.640625 27.21875 
Q 31.109375 20.453125 19.1875 8.296875 
z
" id="DejaVuSans-50"/>
      </defs>
      <g transform="translate(110.903474 327.284152)scale(0.1 -0.1)">
       <use xlink:href="#DejaVuSans-50"/>
       <use x="63.623047" xlink:href="#DejaVuSans-48"/>
      </g>
     </g>
    </g>
    <g id="xtick_3">
     <g id="line2d_3">
      <g>
       <use style="stroke:#000000;stroke-width:0.8;" x="182.616623" xlink:href="#m25c209942e" y="312.685714"/>
      </g>
     </g>
     <g id="text_3">
      <!-- 40 -->
      <defs>
       <path d="M 37.796875 64.3125 
L 12.890625 25.390625 
L 37.796875 25.390625 
z
M 35.203125 72.90625 
L 47.609375 72.90625 
L 47.609375 25.390625 
L 58.015625 25.390625 
L 58.015625 17.1875 
L 47.609375 17.1875 
L 47.609375 0 
L 37.796875 0 
L 37.796875 17.1875 
L 4.890625 17.1875 
L 4.890625 26.703125 
z
" id="DejaVuSans-52"/>
      </defs>
      <g transform="translate(176.254123 327.284152)scale(0.1 -0.1)">
       <use xlink:href="#DejaVuSans-52"/>
       <use x="63.623047" xlink:href="#DejaVuSans-48"/>
      </g>
     </g>
    </g>
    <g id="xtick_4">
     <g id="line2d_4">
      <g>
       <use style="stroke:#000000;stroke-width:0.8;" x="247.967273" xlink:href="#m25c209942e" y="312.685714"/>
      </g>
     </g>
     <g id="text_4">
      <!-- 60 -->
      <defs>
       <path d="M 33.015625 40.375 
Q 26.375 40.375 22.484375 35.828125 
Q 18.609375 31.296875 18.609375 23.390625 
Q 18.609375 15.53125 22.484375 10.953125 
Q 26.375 6.390625 33.015625 6.390625 
Q 39.65625 6.390625 43.53125 10.953125 
Q 47.40625 15.53125 47.40625 23.390625 
Q 47.40625 31.296875 43.53125 35.828125 
Q 39.65625 40.375 33.015625 40.375 
z
M 52.59375 71.296875 
L 52.59375 62.3125 
Q 48.875 64.0625 45.09375 64.984375 
Q 41.3125 65.921875 37.59375 65.921875 
Q 27.828125 65.921875 22.671875 59.328125 
Q 17.53125 52.734375 16.796875 39.40625 
Q 19.671875 43.65625 24.015625 45.921875 
Q 28.375 48.1875 33.59375 48.1875 
Q 44.578125 48.1875 50.953125 41.515625 
Q 57.328125 34.859375 57.328125 23.390625 
Q 57.328125 12.15625 50.6875 5.359375 
Q 44.046875 -1.421875 33.015625 -1.421875 
Q 20.359375 -1.421875 13.671875 8.265625 
Q 6.984375 17.96875 6.984375 36.375 
Q 6.984375 53.65625 15.1875 63.9375 
Q 23.390625 74.21875 37.203125 74.21875 
Q 40.921875 74.21875 44.703125 73.484375 
Q 48.484375 72.75 52.59375 71.296875 
z
" id="DejaVuSans-54"/>
      </defs>
      <g transform="translate(241.604773 327.284152)scale(0.1 -0.1)">
       <use xlink:href="#DejaVuSans-54"/>
       <use x="63.623047" xlink:href="#DejaVuSans-48"/>
      </g>
     </g>
    </g>
    <g id="xtick_5">
     <g id="line2d_5">
      <g>
       <use style="stroke:#000000;stroke-width:0.8;" x="313.317922" xlink:href="#m25c209942e" y="312.685714"/>
      </g>
     </g>
     <g id="text_5">
      <!-- 80 -->
      <defs>
       <path d="M 31.78125 34.625 
Q 24.75 34.625 20.71875 30.859375 
Q 16.703125 27.09375 16.703125 20.515625 
Q 16.703125 13.921875 20.71875 10.15625 
Q 24.75 6.390625 31.78125 6.390625 
Q 38.8125 6.390625 42.859375 10.171875 
Q 46.921875 13.96875 46.921875 20.515625 
Q 46.921875 27.09375 42.890625 30.859375 
Q 38.875 34.625 31.78125 34.625 
z
M 21.921875 38.8125 
Q 15.578125 40.375 12.03125 44.71875 
Q 8.5 49.078125 8.5 55.328125 
Q 8.5 64.0625 14.71875 69.140625 
Q 20.953125 74.21875 31.78125 74.21875 
Q 42.671875 74.21875 48.875 69.140625 
Q 55.078125 64.0625 55.078125 55.328125 
Q 55.078125 49.078125 51.53125 44.71875 
Q 48 40.375 41.703125 38.8125 
Q 48.828125 37.15625 52.796875 32.3125 
Q 56.78125 27.484375 56.78125 20.515625 
Q 56.78125 9.90625 50.3125 4.234375 
Q 43.84375 -1.421875 31.78125 -1.421875 
Q 19.734375 -1.421875 13.25 4.234375 
Q 6.78125 9.90625 6.78125 20.515625 
Q 6.78125 27.484375 10.78125 32.3125 
Q 14.796875 37.15625 21.921875 38.8125 
z
M 18.3125 54.390625 
Q 18.3125 48.734375 21.84375 45.5625 
Q 25.390625 42.390625 31.78125 42.390625 
Q 38.140625 42.390625 41.71875 45.5625 
Q 45.3125 48.734375 45.3125 54.390625 
Q 45.3125 60.0625 41.71875 63.234375 
Q 38.140625 66.40625 31.78125 66.40625 
Q 25.390625 66.40625 21.84375 63.234375 
Q 18.3125 60.0625 18.3125 54.390625 
z
" id="DejaVuSans-56"/>
      </defs>
      <g transform="translate(306.955422 327.284152)scale(0.1 -0.1)">
       <use xlink:href="#DejaVuSans-56"/>
       <use x="63.623047" xlink:href="#DejaVuSans-48"/>
      </g>
     </g>
    </g>
    <g id="xtick_6">
     <g id="line2d_6">
      <g>
       <use style="stroke:#000000;stroke-width:0.8;" x="378.668571" xlink:href="#m25c209942e" y="312.685714"/>
      </g>
     </g>
     <g id="text_6">
      <!-- 100 -->
      <defs>
       <path d="M 12.40625 8.296875 
L 28.515625 8.296875 
L 28.515625 63.921875 
L 10.984375 60.40625 
L 10.984375 69.390625 
L 28.421875 72.90625 
L 38.28125 72.90625 
L 38.28125 8.296875 
L 54.390625 8.296875 
L 54.390625 0 
L 12.40625 0 
z
" id="DejaVuSans-49"/>
      </defs>
      <g transform="translate(369.124821 327.284152)scale(0.1 -0.1)">
       <use xlink:href="#DejaVuSans-49"/>
       <use x="63.623047" xlink:href="#DejaVuSans-48"/>
       <use x="127.246094" xlink:href="#DejaVuSans-48"/>
      </g>
     </g>
    </g>
    <g id="text_7">
     <!-- Bag number -->
     <defs>
      <path d="M 19.671875 34.8125 
L 19.671875 8.109375 
L 35.5 8.109375 
Q 43.453125 8.109375 47.28125 11.40625 
Q 51.125 14.703125 51.125 21.484375 
Q 51.125 28.328125 47.28125 31.5625 
Q 43.453125 34.8125 35.5 34.8125 
z
M 19.671875 64.796875 
L 19.671875 42.828125 
L 34.28125 42.828125 
Q 41.5 42.828125 45.03125 45.53125 
Q 48.578125 48.25 48.578125 53.8125 
Q 48.578125 59.328125 45.03125 62.0625 
Q 41.5 64.796875 34.28125 64.796875 
z
M 9.8125 72.90625 
L 35.015625 72.90625 
Q 46.296875 72.90625 52.390625 68.21875 
Q 58.5 63.53125 58.5 54.890625 
Q 58.5 48.1875 55.375 44.234375 
Q 52.25 40.28125 46.1875 39.3125 
Q 53.46875 37.75 57.5 32.78125 
Q 61.53125 27.828125 61.53125 20.40625 
Q 61.53125 10.640625 54.890625 5.3125 
Q 48.25 0 35.984375 0 
L 9.8125 0 
z
" id="DejaVuSans-66"/>
      <path d="M 34.28125 27.484375 
Q 23.390625 27.484375 19.1875 25 
Q 14.984375 22.515625 14.984375 16.5 
Q 14.984375 11.71875 18.140625 8.90625 
Q 21.296875 6.109375 26.703125 6.109375 
Q 34.1875 6.109375 38.703125 11.40625 
Q 43.21875 16.703125 43.21875 25.484375 
L 43.21875 27.484375 
z
M 52.203125 31.203125 
L 52.203125 0 
L 43.21875 0 
L 43.21875 8.296875 
Q 40.140625 3.328125 35.546875 0.953125 
Q 30.953125 -1.421875 24.3125 -1.421875 
Q 15.921875 -1.421875 10.953125 3.296875 
Q 6 8.015625 6 15.921875 
Q 6 25.140625 12.171875 29.828125 
Q 18.359375 34.515625 30.609375 34.515625 
L 43.21875 34.515625 
L 43.21875 35.40625 
Q 43.21875 41.609375 39.140625 45 
Q 35.0625 48.390625 27.6875 48.390625 
Q 23 48.390625 18.546875 47.265625 
Q 14.109375 46.140625 10.015625 43.890625 
L 10.015625 52.203125 
Q 14.9375 54.109375 19.578125 55.046875 
Q 24.21875 56 28.609375 56 
Q 40.484375 56 46.34375 49.84375 
Q 52.203125 43.703125 52.203125 31.203125 
z
" id="DejaVuSans-97"/>
      <path d="M 45.40625 27.984375 
Q 45.40625 37.75 41.375 43.109375 
Q 37.359375 48.484375 30.078125 48.484375 
Q 22.859375 48.484375 18.828125 43.109375 
Q 14.796875 37.75 14.796875 27.984375 
Q 14.796875 18.265625 18.828125 12.890625 
Q 22.859375 7.515625 30.078125 7.515625 
Q 37.359375 7.515625 41.375 12.890625 
Q 45.40625 18.265625 45.40625 27.984375 
z
M 54.390625 6.78125 
Q 54.390625 -7.171875 48.1875 -13.984375 
Q 42 -20.796875 29.203125 -20.796875 
Q 24.46875 -20.796875 20.265625 -20.09375 
Q 16.0625 -19.390625 12.109375 -17.921875 
L 12.109375 -9.1875 
Q 16.0625 -11.328125 19.921875 -12.34375 
Q 23.78125 -13.375 27.78125 -13.375 
Q 36.625 -13.375 41.015625 -8.765625 
Q 45.40625 -4.15625 45.40625 5.171875 
L 45.40625 9.625 
Q 42.625 4.78125 38.28125 2.390625 
Q 33.9375 0 27.875 0 
Q 17.828125 0 11.671875 7.65625 
Q 5.515625 15.328125 5.515625 27.984375 
Q 5.515625 40.671875 11.671875 48.328125 
Q 17.828125 56 27.875 56 
Q 33.9375 56 38.28125 53.609375 
Q 42.625 51.21875 45.40625 46.390625 
L 45.40625 54.6875 
L 54.390625 54.6875 
z
" id="DejaVuSans-103"/>
      <path id="DejaVuSans-32"/>
      <path d="M 54.890625 33.015625 
L 54.890625 0 
L 45.90625 0 
L 45.90625 32.71875 
Q 45.90625 40.484375 42.875 44.328125 
Q 39.84375 48.1875 33.796875 48.1875 
Q 26.515625 48.1875 22.3125 43.546875 
Q 18.109375 38.921875 18.109375 30.90625 
L 18.109375 0 
L 9.078125 0 
L 9.078125 54.6875 
L 18.109375 54.6875 
L 18.109375 46.1875 
Q 21.34375 51.125 25.703125 53.5625 
Q 30.078125 56 35.796875 56 
Q 45.21875 56 50.046875 50.171875 
Q 54.890625 44.34375 54.890625 33.015625 
z
" id="DejaVuSans-110"/>
      <path d="M 8.5 21.578125 
L 8.5 54.6875 
L 17.484375 54.6875 
L 17.484375 21.921875 
Q 17.484375 14.15625 20.5 10.265625 
Q 23.53125 6.390625 29.59375 6.390625 
Q 36.859375 6.390625 41.078125 11.03125 
Q 45.3125 15.671875 45.3125 23.6875 
L 45.3125 54.6875 
L 54.296875 54.6875 
L 54.296875 0 
L 45.3125 0 
L 45.3125 8.40625 
Q 42.046875 3.421875 37.71875 1 
Q 33.40625 -1.421875 27.6875 -1.421875 
Q 18.265625 -1.421875 13.375 4.4375 
Q 8.5 10.296875 8.5 21.578125 
z
M 31.109375 56 
z
" id="DejaVuSans-117"/>
      <path d="M 52 44.1875 
Q 55.375 50.25 60.0625 53.125 
Q 64.75 56 71.09375 56 
Q 79.640625 56 84.28125 50.015625 
Q 88.921875 44.046875 88.921875 33.015625 
L 88.921875 0 
L 79.890625 0 
L 79.890625 32.71875 
Q 79.890625 40.578125 77.09375 44.375 
Q 74.3125 48.1875 68.609375 48.1875 
Q 61.625 48.1875 57.5625 43.546875 
Q 53.515625 38.921875 53.515625 30.90625 
L 53.515625 0 
L 44.484375 0 
L 44.484375 32.71875 
Q 44.484375 40.625 41.703125 44.40625 
Q 38.921875 48.1875 33.109375 48.1875 
Q 26.21875 48.1875 22.15625 43.53125 
Q 18.109375 38.875 18.109375 30.90625 
L 18.109375 0 
L 9.078125 0 
L 9.078125 54.6875 
L 18.109375 54.6875 
L 18.109375 46.1875 
Q 21.1875 51.21875 25.484375 53.609375 
Q 29.78125 56 35.6875 56 
Q 41.65625 56 45.828125 52.96875 
Q 50 49.953125 52 44.1875 
z
" id="DejaVuSans-109"/>
      <path d="M 48.6875 27.296875 
Q 48.6875 37.203125 44.609375 42.84375 
Q 40.53125 48.484375 33.40625 48.484375 
Q 26.265625 48.484375 22.1875 42.84375 
Q 18.109375 37.203125 18.109375 27.296875 
Q 18.109375 17.390625 22.1875 11.75 
Q 26.265625 6.109375 33.40625 6.109375 
Q 40.53125 6.109375 44.609375 11.75 
Q 48.6875 17.390625 48.6875 27.296875 
z
M 18.109375 46.390625 
Q 20.953125 51.265625 25.265625 53.625 
Q 29.59375 56 35.59375 56 
Q 45.5625 56 51.78125 48.09375 
Q 58.015625 40.1875 58.015625 27.296875 
Q 58.015625 14.40625 51.78125 6.484375 
Q 45.5625 -1.421875 35.59375 -1.421875 
Q 29.59375 -1.421875 25.265625 0.953125 
Q 20.953125 3.328125 18.109375 8.203125 
L 18.109375 0 
L 9.078125 0 
L 9.078125 75.984375 
L 18.109375 75.984375 
z
" id="DejaVuSans-98"/>
      <path d="M 56.203125 29.59375 
L 56.203125 25.203125 
L 14.890625 25.203125 
Q 15.484375 15.921875 20.484375 11.0625 
Q 25.484375 6.203125 34.421875 6.203125 
Q 39.59375 6.203125 44.453125 7.46875 
Q 49.3125 8.734375 54.109375 11.28125 
L 54.109375 2.78125 
Q 49.265625 0.734375 44.1875 -0.34375 
Q 39.109375 -1.421875 33.890625 -1.421875 
Q 20.796875 -1.421875 13.15625 6.1875 
Q 5.515625 13.8125 5.515625 26.8125 
Q 5.515625 40.234375 12.765625 48.109375 
Q 20.015625 56 32.328125 56 
Q 43.359375 56 49.78125 48.890625 
Q 56.203125 41.796875 56.203125 29.59375 
z
M 47.21875 32.234375 
Q 47.125 39.59375 43.09375 43.984375 
Q 39.0625 48.390625 32.421875 48.390625 
Q 24.90625 48.390625 20.390625 44.140625 
Q 15.875 39.890625 15.1875 32.171875 
z
" id="DejaVuSans-101"/>
      <path d="M 41.109375 46.296875 
Q 39.59375 47.171875 37.8125 47.578125 
Q 36.03125 48 33.890625 48 
Q 26.265625 48 22.1875 43.046875 
Q 18.109375 38.09375 18.109375 28.8125 
L 18.109375 0 
L 9.078125 0 
L 9.078125 54.6875 
L 18.109375 54.6875 
L 18.109375 46.1875 
Q 20.953125 51.171875 25.484375 53.578125 
Q 30.03125 56 36.53125 56 
Q 37.453125 56 38.578125 55.875 
Q 39.703125 55.765625 41.0625 55.515625 
z
" id="DejaVuSans-114"/>
     </defs>
     <g transform="translate(186.153839 340.962277)scale(0.1 -0.1)">
      <use xlink:href="#DejaVuSans-66"/>
      <use x="68.603516" xlink:href="#DejaVuSans-97"/>
      <use x="129.882812" xlink:href="#DejaVuSans-103"/>
      <use x="193.359375" xlink:href="#DejaVuSans-32"/>
      <use x="225.146484" xlink:href="#DejaVuSans-110"/>
      <use x="288.525391" xlink:href="#DejaVuSans-117"/>
      <use x="351.904297" xlink:href="#DejaVuSans-109"/>
      <use x="449.316406" xlink:href="#DejaVuSans-98"/>
      <use x="512.792969" xlink:href="#DejaVuSans-101"/>
      <use x="574.316406" xlink:href="#DejaVuSans-114"/>
     </g>
    </g>
   </g>
   <g id="matplotlib.axis_2">
    <g id="ytick_1">
     <g id="line2d_7">
      <defs>
       <path d="M 0 0 
L -3.5 0 
" id="m14429affe0" style="stroke:#000000;stroke-width:0.8;"/>
      </defs>
      <g>
       <use style="stroke:#000000;stroke-width:0.8;" x="39.008571" xlink:href="#m14429affe0" y="306.103453"/>
      </g>
     </g>
     <g id="text_8">
      <!-- 0.0 -->
      <defs>
       <path d="M 10.6875 12.40625 
L 21 12.40625 
L 21 0 
L 10.6875 0 
z
" id="DejaVuSans-46"/>
      </defs>
      <g transform="translate(16.105446 309.902672)scale(0.1 -0.1)">
       <use xlink:href="#DejaVuSans-48"/>
       <use x="63.623047" xlink:href="#DejaVuSans-46"/>
       <use x="95.410156" xlink:href="#DejaVuSans-48"/>
      </g>
     </g>
    </g>
    <g id="ytick_2">
     <g id="line2d_8">
      <g>
       <use style="stroke:#000000;stroke-width:0.8;" x="39.008571" xlink:href="#m14429affe0" y="271.148019"/>
      </g>
     </g>
     <g id="text_9">
      <!-- 0.2 -->
      <g transform="translate(16.105446 274.947238)scale(0.1 -0.1)">
       <use xlink:href="#DejaVuSans-48"/>
       <use x="63.623047" xlink:href="#DejaVuSans-46"/>
       <use x="95.410156" xlink:href="#DejaVuSans-50"/>
      </g>
     </g>
    </g>
    <g id="ytick_3">
     <g id="line2d_9">
      <g>
       <use style="stroke:#000000;stroke-width:0.8;" x="39.008571" xlink:href="#m14429affe0" y="236.192586"/>
      </g>
     </g>
     <g id="text_10">
      <!-- 0.4 -->
      <g transform="translate(16.105446 239.991805)scale(0.1 -0.1)">
       <use xlink:href="#DejaVuSans-48"/>
       <use x="63.623047" xlink:href="#DejaVuSans-46"/>
       <use x="95.410156" xlink:href="#DejaVuSans-52"/>
      </g>
     </g>
    </g>
    <g id="ytick_4">
     <g id="line2d_10">
      <g>
       <use style="stroke:#000000;stroke-width:0.8;" x="39.008571" xlink:href="#m14429affe0" y="201.237153"/>
      </g>
     </g>
     <g id="text_11">
      <!-- 0.6 -->
      <g transform="translate(16.105446 205.036371)scale(0.1 -0.1)">
       <use xlink:href="#DejaVuSans-48"/>
       <use x="63.623047" xlink:href="#DejaVuSans-46"/>
       <use x="95.410156" xlink:href="#DejaVuSans-54"/>
      </g>
     </g>
    </g>
    <g id="ytick_5">
     <g id="line2d_11">
      <g>
       <use style="stroke:#000000;stroke-width:0.8;" x="39.008571" xlink:href="#m14429affe0" y="166.281719"/>
      </g>
     </g>
     <g id="text_12">
      <!-- 0.8 -->
      <g transform="translate(16.105446 170.080938)scale(0.1 -0.1)">
       <use xlink:href="#DejaVuSans-48"/>
       <use x="63.623047" xlink:href="#DejaVuSans-46"/>
       <use x="95.410156" xlink:href="#DejaVuSans-56"/>
      </g>
     </g>
    </g>
    <g id="ytick_6">
     <g id="line2d_12">
      <g>
       <use style="stroke:#000000;stroke-width:0.8;" x="39.008571" xlink:href="#m14429affe0" y="131.326286"/>
      </g>
     </g>
     <g id="text_13">
      <!-- 1.0 -->
      <g transform="translate(16.105446 135.125505)scale(0.1 -0.1)">
       <use xlink:href="#DejaVuSans-49"/>
       <use x="63.623047" xlink:href="#DejaVuSans-46"/>
       <use x="95.410156" xlink:href="#DejaVuSans-48"/>
      </g>
     </g>
    </g>
    <g id="ytick_7">
     <g id="line2d_13">
      <g>
       <use style="stroke:#000000;stroke-width:0.8;" x="39.008571" xlink:href="#m14429affe0" y="96.370852"/>
      </g>
     </g>
     <g id="text_14">
      <!-- 1.2 -->
      <g transform="translate(16.105446 100.170071)scale(0.1 -0.1)">
       <use xlink:href="#DejaVuSans-49"/>
       <use x="63.623047" xlink:href="#DejaVuSans-46"/>
       <use x="95.410156" xlink:href="#DejaVuSans-50"/>
      </g>
     </g>
    </g>
    <g id="ytick_8">
     <g id="line2d_14">
      <g>
       <use style="stroke:#000000;stroke-width:0.8;" x="39.008571" xlink:href="#m14429affe0" y="61.415419"/>
      </g>
     </g>
     <g id="text_15">
      <!-- 1.4 -->
      <g transform="translate(16.105446 65.214638)scale(0.1 -0.1)">
       <use xlink:href="#DejaVuSans-49"/>
       <use x="63.623047" xlink:href="#DejaVuSans-46"/>
       <use x="95.410156" xlink:href="#DejaVuSans-52"/>
      </g>
     </g>
    </g>
    <g id="ytick_9">
     <g id="line2d_15">
      <g>
       <use style="stroke:#000000;stroke-width:0.8;" x="39.008571" xlink:href="#m14429affe0" y="26.459986"/>
      </g>
     </g>
     <g id="text_16">
      <!-- 1.6 -->
      <g transform="translate(16.105446 30.259204)scale(0.1 -0.1)">
       <use xlink:href="#DejaVuSans-49"/>
       <use x="63.623047" xlink:href="#DejaVuSans-46"/>
       <use x="95.410156" xlink:href="#DejaVuSans-54"/>
      </g>
     </g>
    </g>
    <g id="text_17">
     <!-- Velocity error [m/s] -->
     <defs>
      <path d="M 28.609375 0 
L 0.78125 72.90625 
L 11.078125 72.90625 
L 34.1875 11.53125 
L 57.328125 72.90625 
L 67.578125 72.90625 
L 39.796875 0 
z
" id="DejaVuSans-86"/>
      <path d="M 9.421875 75.984375 
L 18.40625 75.984375 
L 18.40625 0 
L 9.421875 0 
z
" id="DejaVuSans-108"/>
      <path d="M 30.609375 48.390625 
Q 23.390625 48.390625 19.1875 42.75 
Q 14.984375 37.109375 14.984375 27.296875 
Q 14.984375 17.484375 19.15625 11.84375 
Q 23.34375 6.203125 30.609375 6.203125 
Q 37.796875 6.203125 41.984375 11.859375 
Q 46.1875 17.53125 46.1875 27.296875 
Q 46.1875 37.015625 41.984375 42.703125 
Q 37.796875 48.390625 30.609375 48.390625 
z
M 30.609375 56 
Q 42.328125 56 49.015625 48.375 
Q 55.71875 40.765625 55.71875 27.296875 
Q 55.71875 13.875 49.015625 6.21875 
Q 42.328125 -1.421875 30.609375 -1.421875 
Q 18.84375 -1.421875 12.171875 6.21875 
Q 5.515625 13.875 5.515625 27.296875 
Q 5.515625 40.765625 12.171875 48.375 
Q 18.84375 56 30.609375 56 
z
" id="DejaVuSans-111"/>
      <path d="M 48.78125 52.59375 
L 48.78125 44.1875 
Q 44.96875 46.296875 41.140625 47.34375 
Q 37.3125 48.390625 33.40625 48.390625 
Q 24.65625 48.390625 19.8125 42.84375 
Q 14.984375 37.3125 14.984375 27.296875 
Q 14.984375 17.28125 19.8125 11.734375 
Q 24.65625 6.203125 33.40625 6.203125 
Q 37.3125 6.203125 41.140625 7.25 
Q 44.96875 8.296875 48.78125 10.40625 
L 48.78125 2.09375 
Q 45.015625 0.34375 40.984375 -0.53125 
Q 36.96875 -1.421875 32.421875 -1.421875 
Q 20.0625 -1.421875 12.78125 6.34375 
Q 5.515625 14.109375 5.515625 27.296875 
Q 5.515625 40.671875 12.859375 48.328125 
Q 20.21875 56 33.015625 56 
Q 37.15625 56 41.109375 55.140625 
Q 45.0625 54.296875 48.78125 52.59375 
z
" id="DejaVuSans-99"/>
      <path d="M 9.421875 54.6875 
L 18.40625 54.6875 
L 18.40625 0 
L 9.421875 0 
z
M 9.421875 75.984375 
L 18.40625 75.984375 
L 18.40625 64.59375 
L 9.421875 64.59375 
z
" id="DejaVuSans-105"/>
      <path d="M 18.3125 70.21875 
L 18.3125 54.6875 
L 36.8125 54.6875 
L 36.8125 47.703125 
L 18.3125 47.703125 
L 18.3125 18.015625 
Q 18.3125 11.328125 20.140625 9.421875 
Q 21.96875 7.515625 27.59375 7.515625 
L 36.8125 7.515625 
L 36.8125 0 
L 27.59375 0 
Q 17.1875 0 13.234375 3.875 
Q 9.28125 7.765625 9.28125 18.015625 
L 9.28125 47.703125 
L 2.6875 47.703125 
L 2.6875 54.6875 
L 9.28125 54.6875 
L 9.28125 70.21875 
z
" id="DejaVuSans-116"/>
      <path d="M 32.171875 -5.078125 
Q 28.375 -14.84375 24.75 -17.8125 
Q 21.140625 -20.796875 15.09375 -20.796875 
L 7.90625 -20.796875 
L 7.90625 -13.28125 
L 13.1875 -13.28125 
Q 16.890625 -13.28125 18.9375 -11.515625 
Q 21 -9.765625 23.484375 -3.21875 
L 25.09375 0.875 
L 2.984375 54.6875 
L 12.5 54.6875 
L 29.59375 11.921875 
L 46.6875 54.6875 
L 56.203125 54.6875 
z
" id="DejaVuSans-121"/>
      <path d="M 8.59375 75.984375 
L 29.296875 75.984375 
L 29.296875 69 
L 17.578125 69 
L 17.578125 -6.203125 
L 29.296875 -6.203125 
L 29.296875 -13.1875 
L 8.59375 -13.1875 
z
" id="DejaVuSans-91"/>
      <path d="M 25.390625 72.90625 
L 33.6875 72.90625 
L 8.296875 -9.28125 
L 0 -9.28125 
z
" id="DejaVuSans-47"/>
      <path d="M 44.28125 53.078125 
L 44.28125 44.578125 
Q 40.484375 46.53125 36.375 47.5 
Q 32.28125 48.484375 27.875 48.484375 
Q 21.1875 48.484375 17.84375 46.4375 
Q 14.5 44.390625 14.5 40.28125 
Q 14.5 37.15625 16.890625 35.375 
Q 19.28125 33.59375 26.515625 31.984375 
L 29.59375 31.296875 
Q 39.15625 29.25 43.1875 25.515625 
Q 47.21875 21.78125 47.21875 15.09375 
Q 47.21875 7.46875 41.1875 3.015625 
Q 35.15625 -1.421875 24.609375 -1.421875 
Q 20.21875 -1.421875 15.453125 -0.5625 
Q 10.6875 0.296875 5.421875 2 
L 5.421875 11.28125 
Q 10.40625 8.6875 15.234375 7.390625 
Q 20.0625 6.109375 24.8125 6.109375 
Q 31.15625 6.109375 34.5625 8.28125 
Q 37.984375 10.453125 37.984375 14.40625 
Q 37.984375 18.0625 35.515625 20.015625 
Q 33.0625 21.96875 24.703125 23.78125 
L 21.578125 24.515625 
Q 13.234375 26.265625 9.515625 29.90625 
Q 5.8125 33.546875 5.8125 39.890625 
Q 5.8125 47.609375 11.28125 51.796875 
Q 16.75 56 26.8125 56 
Q 31.78125 56 36.171875 55.265625 
Q 40.578125 54.546875 44.28125 53.078125 
z
" id="DejaVuSans-115"/>
      <path d="M 30.421875 75.984375 
L 30.421875 -13.1875 
L 9.71875 -13.1875 
L 9.71875 -6.203125 
L 21.390625 -6.203125 
L 21.390625 69 
L 9.71875 69 
L 9.71875 75.984375 
z
" id="DejaVuSans-93"/>
     </defs>
     <g transform="translate(10.025759 212.939888)rotate(-90)scale(0.1 -0.1)">
      <use xlink:href="#DejaVuSans-86"/>
      <use x="60.658203" xlink:href="#DejaVuSans-101"/>
      <use x="122.181641" xlink:href="#DejaVuSans-108"/>
      <use x="149.964844" xlink:href="#DejaVuSans-111"/>
      <use x="211.146484" xlink:href="#DejaVuSans-99"/>
      <use x="266.126953" xlink:href="#DejaVuSans-105"/>
      <use x="293.910156" xlink:href="#DejaVuSans-116"/>
      <use x="333.119141" xlink:href="#DejaVuSans-121"/>
      <use x="392.298828" xlink:href="#DejaVuSans-32"/>
      <use x="424.085938" xlink:href="#DejaVuSans-101"/>
      <use x="485.609375" xlink:href="#DejaVuSans-114"/>
      <use x="524.972656" xlink:href="#DejaVuSans-114"/>
      <use x="563.835938" xlink:href="#DejaVuSans-111"/>
      <use x="625.017578" xlink:href="#DejaVuSans-114"/>
      <use x="666.130859" xlink:href="#DejaVuSans-32"/>
      <use x="697.917969" xlink:href="#DejaVuSans-91"/>
      <use x="736.931641" xlink:href="#DejaVuSans-109"/>
      <use x="834.34375" xlink:href="#DejaVuSans-47"/>
      <use x="868.035156" xlink:href="#DejaVuSans-115"/>
      <use x="920.134766" xlink:href="#DejaVuSans-93"/>
     </g>
    </g>
   </g>
   <g id="patch_3">
    <path d="M 39.008571 312.685714 
L 39.008571 17.28 
" style="fill:none;stroke:#000000;stroke-linecap:square;stroke-linejoin:miter;stroke-width:0.8;"/>
   </g>
   <g id="patch_4">
    <path d="M 394.842857 312.685714 
L 394.842857 17.28 
" style="fill:none;stroke:#000000;stroke-linecap:square;stroke-linejoin:miter;stroke-width:0.8;"/>
   </g>
   <g id="patch_5">
    <path d="M 39.008571 312.685714 
L 394.842857 312.685714 
" style="fill:none;stroke:#000000;stroke-linecap:square;stroke-linejoin:miter;stroke-width:0.8;"/>
   </g>
   <g id="patch_6">
    <path d="M 39.008571 17.28 
L 394.842857 17.28 
" style="fill:none;stroke:#000000;stroke-linecap:square;stroke-linejoin:miter;stroke-width:0.8;"/>
   </g>
   <g id="text_18">
    <!-- Velocity error all bags -->
    <g transform="translate(151.712277 11.28)scale(0.12 -0.12)">
     <use xlink:href="#DejaVuSans-86"/>
     <use x="60.658203" xlink:href="#DejaVuSans-101"/>
     <use x="122.181641" xlink:href="#DejaVuSans-108"/>
     <use x="149.964844" xlink:href="#DejaVuSans-111"/>
     <use x="211.146484" xlink:href="#DejaVuSans-99"/>
     <use x="266.126953" xlink:href="#DejaVuSans-105"/>
     <use x="293.910156" xlink:href="#DejaVuSans-116"/>
     <use x="333.119141" xlink:href="#DejaVuSans-121"/>
     <use x="392.298828" xlink:href="#DejaVuSans-32"/>
     <use x="424.085938" xlink:href="#DejaVuSans-101"/>
     <use x="485.609375" xlink:href="#DejaVuSans-114"/>
     <use x="524.972656" xlink:href="#DejaVuSans-114"/>
     <use x="563.835938" xlink:href="#DejaVuSans-111"/>
     <use x="625.017578" xlink:href="#DejaVuSans-114"/>
     <use x="666.130859" xlink:href="#DejaVuSans-32"/>
     <use x="697.917969" xlink:href="#DejaVuSans-97"/>
     <use x="759.197266" xlink:href="#DejaVuSans-108"/>
     <use x="786.980469" xlink:href="#DejaVuSans-108"/>
     <use x="814.763672" xlink:href="#DejaVuSans-32"/>
     <use x="846.550781" xlink:href="#DejaVuSans-98"/>
     <use x="910.027344" xlink:href="#DejaVuSans-97"/>
     <use x="971.306641" xlink:href="#DejaVuSans-103"/>
     <use x="1034.783203" xlink:href="#DejaVuSans-115"/>
    </g>
   </g>
  </g>
 </g>
 <defs>
  <clipPath id="p12e5ae8798">
   <rect height="295.405714" width="355.834286" x="39.008571" y="17.28"/>
  </clipPath>
 </defs>
</svg>
