<?xml version="1.0" encoding="utf-8" standalone="no"?>
<!DOCTYPE svg PUBLIC "-//W3C//DTD SVG 1.1//EN"
  "http://www.w3.org/Graphics/SVG/1.1/DTD/svg11.dtd">
<!-- Created with matplotlib (https://matplotlib.org/) -->
<svg height="345.6pt" version="1.1" viewBox="0 0 396 345.6" width="396pt" xmlns="http://www.w3.org/2000/svg" xmlns:xlink="http://www.w3.org/1999/xlink">
 <defs>
  <style type="text/css">
*{stroke-linecap:butt;stroke-linejoin:round;}
  </style>
 </defs>
 <g id="figure_1">
  <g id="patch_1">
   <path d="M 0 345.6 
L 396 345.6 
L 396 0 
L 0 0 
z
" style="fill:#ffffff;"/>
  </g>
  <g id="axes_1">
   <g id="patch_2">
    <path d="M 52.8 304.457143 
L 390.342857 304.457143 
L 390.342857 22.217143 
L 52.8 22.217143 
z
" style="fill:#ffffff;"/>
   </g>
   <g id="PathCollection_1">
    <defs>
     <path d="M 0 3 
C 0.795609 3 1.55874 2.683901 2.12132 2.12132 
C 2.683901 1.55874 3 0.795609 3 0 
C 3 -0.795609 2.683901 -1.55874 2.12132 -2.12132 
C 1.55874 -2.683901 0.795609 -3 0 -3 
C -0.795609 -3 -1.55874 -2.683901 -2.12132 -2.12132 
C -2.683901 -1.55874 -3 -0.795609 -3 0 
C -3 0.795609 -2.683901 1.55874 -2.12132 2.12132 
C -1.55874 2.683901 -0.795609 3 0 3 
z
" id="m1930b616c1" style="stroke:#1f77b4;"/>
    </defs>
    <g clip-path="url(#p40143db027)">
     <use style="fill:#1f77b4;stroke:#1f77b4;" x="68.142857" xlink:href="#m1930b616c1" y="230.128993"/>
     <use style="fill:#1f77b4;stroke:#1f77b4;" x="71.242424" xlink:href="#m1930b616c1" y="215.424325"/>
     <use style="fill:#1f77b4;stroke:#1f77b4;" x="74.341991" xlink:href="#m1930b616c1" y="216.325074"/>
     <use style="fill:#1f77b4;stroke:#1f77b4;" x="77.441558" xlink:href="#m1930b616c1" y="228.998171"/>
     <use style="fill:#1f77b4;stroke:#1f77b4;" x="80.541126" xlink:href="#m1930b616c1" y="154.904693"/>
     <use style="fill:#1f77b4;stroke:#1f77b4;" x="83.640693" xlink:href="#m1930b616c1" y="218.12913"/>
     <use style="fill:#1f77b4;stroke:#1f77b4;" x="86.74026" xlink:href="#m1930b616c1" y="143.827592"/>
     <use style="fill:#1f77b4;stroke:#1f77b4;" x="89.839827" xlink:href="#m1930b616c1" y="206.980333"/>
     <use style="fill:#1f77b4;stroke:#1f77b4;" x="92.939394" xlink:href="#m1930b616c1" y="35.046234"/>
     <use style="fill:#1f77b4;stroke:#1f77b4;" x="96.038961" xlink:href="#m1930b616c1" y="236.195387"/>
     <use style="fill:#1f77b4;stroke:#1f77b4;" x="99.138528" xlink:href="#m1930b616c1" y="273.88476"/>
     <use style="fill:#1f77b4;stroke:#1f77b4;" x="102.238095" xlink:href="#m1930b616c1" y="69.803664"/>
     <use style="fill:#1f77b4;stroke:#1f77b4;" x="105.337662" xlink:href="#m1930b616c1" y="130.096723"/>
     <use style="fill:#1f77b4;stroke:#1f77b4;" x="108.437229" xlink:href="#m1930b616c1" y="238.169097"/>
     <use style="fill:#1f77b4;stroke:#1f77b4;" x="114.636364" xlink:href="#m1930b616c1" y="256.275676"/>
     <use style="fill:#1f77b4;stroke:#1f77b4;" x="117.735931" xlink:href="#m1930b616c1" y="212.650026"/>
     <use style="fill:#1f77b4;stroke:#1f77b4;" x="120.835498" xlink:href="#m1930b616c1" y="245.231367"/>
     <use style="fill:#1f77b4;stroke:#1f77b4;" x="123.935065" xlink:href="#m1930b616c1" y="248.759486"/>
     <use style="fill:#1f77b4;stroke:#1f77b4;" x="127.034632" xlink:href="#m1930b616c1" y="291.628052"/>
     <use style="fill:#1f77b4;stroke:#1f77b4;" x="130.134199" xlink:href="#m1930b616c1" y="228.07391"/>
     <use style="fill:#1f77b4;stroke:#1f77b4;" x="133.233766" xlink:href="#m1930b616c1" y="252.918729"/>
     <use style="fill:#1f77b4;stroke:#1f77b4;" x="136.333333" xlink:href="#m1930b616c1" y="256.858346"/>
     <use style="fill:#1f77b4;stroke:#1f77b4;" x="139.4329" xlink:href="#m1930b616c1" y="222.745454"/>
     <use style="fill:#1f77b4;stroke:#1f77b4;" x="142.532468" xlink:href="#m1930b616c1" y="253.186353"/>
     <use style="fill:#1f77b4;stroke:#1f77b4;" x="145.632035" xlink:href="#m1930b616c1" y="290.884995"/>
     <use style="fill:#1f77b4;stroke:#1f77b4;" x="148.731602" xlink:href="#m1930b616c1" y="236.170371"/>
     <use style="fill:#1f77b4;stroke:#1f77b4;" x="151.831169" xlink:href="#m1930b616c1" y="255.792303"/>
     <use style="fill:#1f77b4;stroke:#1f77b4;" x="154.930736" xlink:href="#m1930b616c1" y="188.698781"/>
     <use style="fill:#1f77b4;stroke:#1f77b4;" x="158.030303" xlink:href="#m1930b616c1" y="258.033244"/>
     <use style="fill:#1f77b4;stroke:#1f77b4;" x="161.12987" xlink:href="#m1930b616c1" y="244.522011"/>
     <use style="fill:#1f77b4;stroke:#1f77b4;" x="164.229437" xlink:href="#m1930b616c1" y="285.090517"/>
     <use style="fill:#1f77b4;stroke:#1f77b4;" x="167.329004" xlink:href="#m1930b616c1" y="230.053313"/>
     <use style="fill:#1f77b4;stroke:#1f77b4;" x="170.428571" xlink:href="#m1930b616c1" y="217.682764"/>
     <use style="fill:#1f77b4;stroke:#1f77b4;" x="173.528139" xlink:href="#m1930b616c1" y="223.10126"/>
     <use style="fill:#1f77b4;stroke:#1f77b4;" x="176.627706" xlink:href="#m1930b616c1" y="278.970084"/>
     <use style="fill:#1f77b4;stroke:#1f77b4;" x="179.727273" xlink:href="#m1930b616c1" y="289.102553"/>
     <use style="fill:#1f77b4;stroke:#1f77b4;" x="182.82684" xlink:href="#m1930b616c1" y="269.174247"/>
     <use style="fill:#1f77b4;stroke:#1f77b4;" x="185.926407" xlink:href="#m1930b616c1" y="199.892243"/>
     <use style="fill:#1f77b4;stroke:#1f77b4;" x="189.025974" xlink:href="#m1930b616c1" y="258.258404"/>
     <use style="fill:#1f77b4;stroke:#1f77b4;" x="192.125541" xlink:href="#m1930b616c1" y="209.965686"/>
     <use style="fill:#1f77b4;stroke:#1f77b4;" x="195.225108" xlink:href="#m1930b616c1" y="242.955351"/>
     <use style="fill:#1f77b4;stroke:#1f77b4;" x="198.324675" xlink:href="#m1930b616c1" y="243.156705"/>
     <use style="fill:#1f77b4;stroke:#1f77b4;" x="201.424242" xlink:href="#m1930b616c1" y="257.243912"/>
     <use style="fill:#1f77b4;stroke:#1f77b4;" x="204.52381" xlink:href="#m1930b616c1" y="159.140702"/>
     <use style="fill:#1f77b4;stroke:#1f77b4;" x="207.623377" xlink:href="#m1930b616c1" y="252.172349"/>
     <use style="fill:#1f77b4;stroke:#1f77b4;" x="210.722944" xlink:href="#m1930b616c1" y="250.811896"/>
     <use style="fill:#1f77b4;stroke:#1f77b4;" x="213.822511" xlink:href="#m1930b616c1" y="237.039485"/>
     <use style="fill:#1f77b4;stroke:#1f77b4;" x="216.922078" xlink:href="#m1930b616c1" y="188.936643"/>
     <use style="fill:#1f77b4;stroke:#1f77b4;" x="220.021645" xlink:href="#m1930b616c1" y="287.589776"/>
     <use style="fill:#1f77b4;stroke:#1f77b4;" x="223.121212" xlink:href="#m1930b616c1" y="226.001399"/>
     <use style="fill:#1f77b4;stroke:#1f77b4;" x="226.220779" xlink:href="#m1930b616c1" y="238.491426"/>
     <use style="fill:#1f77b4;stroke:#1f77b4;" x="229.320346" xlink:href="#m1930b616c1" y="184.675127"/>
     <use style="fill:#1f77b4;stroke:#1f77b4;" x="232.419913" xlink:href="#m1930b616c1" y="255.267497"/>
     <use style="fill:#1f77b4;stroke:#1f77b4;" x="235.519481" xlink:href="#m1930b616c1" y="261.28463"/>
     <use style="fill:#1f77b4;stroke:#1f77b4;" x="238.619048" xlink:href="#m1930b616c1" y="214.651639"/>
     <use style="fill:#1f77b4;stroke:#1f77b4;" x="241.718615" xlink:href="#m1930b616c1" y="244.376001"/>
     <use style="fill:#1f77b4;stroke:#1f77b4;" x="244.818182" xlink:href="#m1930b616c1" y="237.914638"/>
     <use style="fill:#1f77b4;stroke:#1f77b4;" x="247.917749" xlink:href="#m1930b616c1" y="219.715488"/>
     <use style="fill:#1f77b4;stroke:#1f77b4;" x="251.017316" xlink:href="#m1930b616c1" y="243.112429"/>
     <use style="fill:#1f77b4;stroke:#1f77b4;" x="254.116883" xlink:href="#m1930b616c1" y="251.37921"/>
     <use style="fill:#1f77b4;stroke:#1f77b4;" x="257.21645" xlink:href="#m1930b616c1" y="170.443048"/>
     <use style="fill:#1f77b4;stroke:#1f77b4;" x="260.316017" xlink:href="#m1930b616c1" y="240.418124"/>
     <use style="fill:#1f77b4;stroke:#1f77b4;" x="263.415584" xlink:href="#m1930b616c1" y="195.145484"/>
     <use style="fill:#1f77b4;stroke:#1f77b4;" x="266.515152" xlink:href="#m1930b616c1" y="249.326834"/>
     <use style="fill:#1f77b4;stroke:#1f77b4;" x="269.614719" xlink:href="#m1930b616c1" y="189.855216"/>
     <use style="fill:#1f77b4;stroke:#1f77b4;" x="272.714286" xlink:href="#m1930b616c1" y="142.902758"/>
     <use style="fill:#1f77b4;stroke:#1f77b4;" x="275.813853" xlink:href="#m1930b616c1" y="280.549153"/>
     <use style="fill:#1f77b4;stroke:#1f77b4;" x="282.012987" xlink:href="#m1930b616c1" y="234.674026"/>
     <use style="fill:#1f77b4;stroke:#1f77b4;" x="285.112554" xlink:href="#m1930b616c1" y="220.371383"/>
     <use style="fill:#1f77b4;stroke:#1f77b4;" x="288.212121" xlink:href="#m1930b616c1" y="207.627609"/>
     <use style="fill:#1f77b4;stroke:#1f77b4;" x="291.311688" xlink:href="#m1930b616c1" y="217.989521"/>
     <use style="fill:#1f77b4;stroke:#1f77b4;" x="294.411255" xlink:href="#m1930b616c1" y="244.027797"/>
     <use style="fill:#1f77b4;stroke:#1f77b4;" x="297.510823" xlink:href="#m1930b616c1" y="253.736834"/>
     <use style="fill:#1f77b4;stroke:#1f77b4;" x="300.61039" xlink:href="#m1930b616c1" y="229.353055"/>
     <use style="fill:#1f77b4;stroke:#1f77b4;" x="303.709957" xlink:href="#m1930b616c1" y="247.802011"/>
     <use style="fill:#1f77b4;stroke:#1f77b4;" x="306.809524" xlink:href="#m1930b616c1" y="227.111546"/>
     <use style="fill:#1f77b4;stroke:#1f77b4;" x="309.909091" xlink:href="#m1930b616c1" y="284.563892"/>
     <use style="fill:#1f77b4;stroke:#1f77b4;" x="313.008658" xlink:href="#m1930b616c1" y="241.878003"/>
     <use style="fill:#1f77b4;stroke:#1f77b4;" x="316.108225" xlink:href="#m1930b616c1" y="203.762674"/>
     <use style="fill:#1f77b4;stroke:#1f77b4;" x="319.207792" xlink:href="#m1930b616c1" y="186.24097"/>
     <use style="fill:#1f77b4;stroke:#1f77b4;" x="322.307359" xlink:href="#m1930b616c1" y="224.979057"/>
     <use style="fill:#1f77b4;stroke:#1f77b4;" x="325.406926" xlink:href="#m1930b616c1" y="273.329973"/>
     <use style="fill:#1f77b4;stroke:#1f77b4;" x="328.506494" xlink:href="#m1930b616c1" y="215.652045"/>
     <use style="fill:#1f77b4;stroke:#1f77b4;" x="331.606061" xlink:href="#m1930b616c1" y="229.294502"/>
     <use style="fill:#1f77b4;stroke:#1f77b4;" x="334.705628" xlink:href="#m1930b616c1" y="209.965533"/>
     <use style="fill:#1f77b4;stroke:#1f77b4;" x="337.805195" xlink:href="#m1930b616c1" y="194.375956"/>
     <use style="fill:#1f77b4;stroke:#1f77b4;" x="340.904762" xlink:href="#m1930b616c1" y="202.290197"/>
     <use style="fill:#1f77b4;stroke:#1f77b4;" x="344.004329" xlink:href="#m1930b616c1" y="229.262433"/>
     <use style="fill:#1f77b4;stroke:#1f77b4;" x="347.103896" xlink:href="#m1930b616c1" y="250.174078"/>
     <use style="fill:#1f77b4;stroke:#1f77b4;" x="350.203463" xlink:href="#m1930b616c1" y="259.03768"/>
     <use style="fill:#1f77b4;stroke:#1f77b4;" x="353.30303" xlink:href="#m1930b616c1" y="253.11048"/>
     <use style="fill:#1f77b4;stroke:#1f77b4;" x="356.402597" xlink:href="#m1930b616c1" y="226.036128"/>
     <use style="fill:#1f77b4;stroke:#1f77b4;" x="362.601732" xlink:href="#m1930b616c1" y="253.535617"/>
     <use style="fill:#1f77b4;stroke:#1f77b4;" x="365.701299" xlink:href="#m1930b616c1" y="201.749877"/>
     <use style="fill:#1f77b4;stroke:#1f77b4;" x="368.800866" xlink:href="#m1930b616c1" y="214.095236"/>
     <use style="fill:#1f77b4;stroke:#1f77b4;" x="371.900433" xlink:href="#m1930b616c1" y="258.723724"/>
     <use style="fill:#1f77b4;stroke:#1f77b4;" x="375" xlink:href="#m1930b616c1" y="265.330638"/>
    </g>
   </g>
   <g id="matplotlib.axis_1">
    <g id="xtick_1">
     <g id="line2d_1">
      <defs>
       <path d="M 0 0 
L 0 3.5 
" id="me4c217f526" style="stroke:#000000;stroke-width:0.8;"/>
      </defs>
      <g>
       <use style="stroke:#000000;stroke-width:0.8;" x="65.04329" xlink:href="#me4c217f526" y="304.457143"/>
      </g>
     </g>
     <g id="text_1">
      <!-- 0 -->
      <defs>
       <path d="M 31.78125 66.40625 
Q 24.171875 66.40625 20.328125 58.90625 
Q 16.5 51.421875 16.5 36.375 
Q 16.5 21.390625 20.328125 13.890625 
Q 24.171875 6.390625 31.78125 6.390625 
Q 39.453125 6.390625 43.28125 13.890625 
Q 47.125 21.390625 47.125 36.375 
Q 47.125 51.421875 43.28125 58.90625 
Q 39.453125 66.40625 31.78125 66.40625 
z
M 31.78125 74.21875 
Q 44.046875 74.21875 50.515625 64.515625 
Q 56.984375 54.828125 56.984375 36.375 
Q 56.984375 17.96875 50.515625 8.265625 
Q 44.046875 -1.421875 31.78125 -1.421875 
Q 19.53125 -1.421875 13.0625 8.265625 
Q 6.59375 17.96875 6.59375 36.375 
Q 6.59375 54.828125 13.0625 64.515625 
Q 19.53125 74.21875 31.78125 74.21875 
z
" id="DejaVuSans-48"/>
      </defs>
      <g transform="translate(60.271415 322.854799)scale(0.15 -0.15)">
       <use xlink:href="#DejaVuSans-48"/>
      </g>
     </g>
    </g>
    <g id="xtick_2">
     <g id="line2d_2">
      <g>
       <use style="stroke:#000000;stroke-width:0.8;" x="127.034632" xlink:href="#me4c217f526" y="304.457143"/>
      </g>
     </g>
     <g id="text_2">
      <!-- 20 -->
      <defs>
       <path d="M 19.1875 8.296875 
L 53.609375 8.296875 
L 53.609375 0 
L 7.328125 0 
L 7.328125 8.296875 
Q 12.9375 14.109375 22.625 23.890625 
Q 32.328125 33.6875 34.8125 36.53125 
Q 39.546875 41.84375 41.421875 45.53125 
Q 43.3125 49.21875 43.3125 52.78125 
Q 43.3125 58.59375 39.234375 62.25 
Q 35.15625 65.921875 28.609375 65.921875 
Q 23.96875 65.921875 18.8125 64.3125 
Q 13.671875 62.703125 7.8125 59.421875 
L 7.8125 69.390625 
Q 13.765625 71.78125 18.9375 73 
Q 24.125 74.21875 28.421875 74.21875 
Q 39.75 74.21875 46.484375 68.546875 
Q 53.21875 62.890625 53.21875 53.421875 
Q 53.21875 48.921875 51.53125 44.890625 
Q 49.859375 40.875 45.40625 35.40625 
Q 44.1875 33.984375 37.640625 27.21875 
Q 31.109375 20.453125 19.1875 8.296875 
z
" id="DejaVuSans-50"/>
      </defs>
      <g transform="translate(117.490882 322.854799)scale(0.15 -0.15)">
       <use xlink:href="#DejaVuSans-50"/>
       <use x="63.623047" xlink:href="#DejaVuSans-48"/>
      </g>
     </g>
    </g>
    <g id="xtick_3">
     <g id="line2d_3">
      <g>
       <use style="stroke:#000000;stroke-width:0.8;" x="189.025974" xlink:href="#me4c217f526" y="304.457143"/>
      </g>
     </g>
     <g id="text_3">
      <!-- 40 -->
      <defs>
       <path d="M 37.796875 64.3125 
L 12.890625 25.390625 
L 37.796875 25.390625 
z
M 35.203125 72.90625 
L 47.609375 72.90625 
L 47.609375 25.390625 
L 58.015625 25.390625 
L 58.015625 17.1875 
L 47.609375 17.1875 
L 47.609375 0 
L 37.796875 0 
L 37.796875 17.1875 
L 4.890625 17.1875 
L 4.890625 26.703125 
z
" id="DejaVuSans-52"/>
      </defs>
      <g transform="translate(179.482224 322.854799)scale(0.15 -0.15)">
       <use xlink:href="#DejaVuSans-52"/>
       <use x="63.623047" xlink:href="#DejaVuSans-48"/>
      </g>
     </g>
    </g>
    <g id="xtick_4">
     <g id="line2d_4">
      <g>
       <use style="stroke:#000000;stroke-width:0.8;" x="251.017316" xlink:href="#me4c217f526" y="304.457143"/>
      </g>
     </g>
     <g id="text_4">
      <!-- 60 -->
      <defs>
       <path d="M 33.015625 40.375 
Q 26.375 40.375 22.484375 35.828125 
Q 18.609375 31.296875 18.609375 23.390625 
Q 18.609375 15.53125 22.484375 10.953125 
Q 26.375 6.390625 33.015625 6.390625 
Q 39.65625 6.390625 43.53125 10.953125 
Q 47.40625 15.53125 47.40625 23.390625 
Q 47.40625 31.296875 43.53125 35.828125 
Q 39.65625 40.375 33.015625 40.375 
z
M 52.59375 71.296875 
L 52.59375 62.3125 
Q 48.875 64.0625 45.09375 64.984375 
Q 41.3125 65.921875 37.59375 65.921875 
Q 27.828125 65.921875 22.671875 59.328125 
Q 17.53125 52.734375 16.796875 39.40625 
Q 19.671875 43.65625 24.015625 45.921875 
Q 28.375 48.1875 33.59375 48.1875 
Q 44.578125 48.1875 50.953125 41.515625 
Q 57.328125 34.859375 57.328125 23.390625 
Q 57.328125 12.15625 50.6875 5.359375 
Q 44.046875 -1.421875 33.015625 -1.421875 
Q 20.359375 -1.421875 13.671875 8.265625 
Q 6.984375 17.96875 6.984375 36.375 
Q 6.984375 53.65625 15.1875 63.9375 
Q 23.390625 74.21875 37.203125 74.21875 
Q 40.921875 74.21875 44.703125 73.484375 
Q 48.484375 72.75 52.59375 71.296875 
z
" id="DejaVuSans-54"/>
      </defs>
      <g transform="translate(241.473566 322.854799)scale(0.15 -0.15)">
       <use xlink:href="#DejaVuSans-54"/>
       <use x="63.623047" xlink:href="#DejaVuSans-48"/>
      </g>
     </g>
    </g>
    <g id="xtick_5">
     <g id="line2d_5">
      <g>
       <use style="stroke:#000000;stroke-width:0.8;" x="313.008658" xlink:href="#me4c217f526" y="304.457143"/>
      </g>
     </g>
     <g id="text_5">
      <!-- 80 -->
      <defs>
       <path d="M 31.78125 34.625 
Q 24.75 34.625 20.71875 30.859375 
Q 16.703125 27.09375 16.703125 20.515625 
Q 16.703125 13.921875 20.71875 10.15625 
Q 24.75 6.390625 31.78125 6.390625 
Q 38.8125 6.390625 42.859375 10.171875 
Q 46.921875 13.96875 46.921875 20.515625 
Q 46.921875 27.09375 42.890625 30.859375 
Q 38.875 34.625 31.78125 34.625 
z
M 21.921875 38.8125 
Q 15.578125 40.375 12.03125 44.71875 
Q 8.5 49.078125 8.5 55.328125 
Q 8.5 64.0625 14.71875 69.140625 
Q 20.953125 74.21875 31.78125 74.21875 
Q 42.671875 74.21875 48.875 69.140625 
Q 55.078125 64.0625 55.078125 55.328125 
Q 55.078125 49.078125 51.53125 44.71875 
Q 48 40.375 41.703125 38.8125 
Q 48.828125 37.15625 52.796875 32.3125 
Q 56.78125 27.484375 56.78125 20.515625 
Q 56.78125 9.90625 50.3125 4.234375 
Q 43.84375 -1.421875 31.78125 -1.421875 
Q 19.734375 -1.421875 13.25 4.234375 
Q 6.78125 9.90625 6.78125 20.515625 
Q 6.78125 27.484375 10.78125 32.3125 
Q 14.796875 37.15625 21.921875 38.8125 
z
M 18.3125 54.390625 
Q 18.3125 48.734375 21.84375 45.5625 
Q 25.390625 42.390625 31.78125 42.390625 
Q 38.140625 42.390625 41.71875 45.5625 
Q 45.3125 48.734375 45.3125 54.390625 
Q 45.3125 60.0625 41.71875 63.234375 
Q 38.140625 66.40625 31.78125 66.40625 
Q 25.390625 66.40625 21.84375 63.234375 
Q 18.3125 60.0625 18.3125 54.390625 
z
" id="DejaVuSans-56"/>
      </defs>
      <g transform="translate(303.464908 322.854799)scale(0.15 -0.15)">
       <use xlink:href="#DejaVuSans-56"/>
       <use x="63.623047" xlink:href="#DejaVuSans-48"/>
      </g>
     </g>
    </g>
    <g id="xtick_6">
     <g id="line2d_6">
      <g>
       <use style="stroke:#000000;stroke-width:0.8;" x="375" xlink:href="#me4c217f526" y="304.457143"/>
      </g>
     </g>
     <g id="text_6">
      <!-- 100 -->
      <defs>
       <path d="M 12.40625 8.296875 
L 28.515625 8.296875 
L 28.515625 63.921875 
L 10.984375 60.40625 
L 10.984375 69.390625 
L 28.421875 72.90625 
L 38.28125 72.90625 
L 38.28125 8.296875 
L 54.390625 8.296875 
L 54.390625 0 
L 12.40625 0 
z
" id="DejaVuSans-49"/>
      </defs>
      <g transform="translate(360.684375 322.854799)scale(0.15 -0.15)">
       <use xlink:href="#DejaVuSans-49"/>
       <use x="63.623047" xlink:href="#DejaVuSans-48"/>
       <use x="127.246094" xlink:href="#DejaVuSans-48"/>
      </g>
     </g>
    </g>
    <g id="text_7">
     <!-- Bag number -->
     <defs>
      <path d="M 19.671875 34.8125 
L 19.671875 8.109375 
L 35.5 8.109375 
Q 43.453125 8.109375 47.28125 11.40625 
Q 51.125 14.703125 51.125 21.484375 
Q 51.125 28.328125 47.28125 31.5625 
Q 43.453125 34.8125 35.5 34.8125 
z
M 19.671875 64.796875 
L 19.671875 42.828125 
L 34.28125 42.828125 
Q 41.5 42.828125 45.03125 45.53125 
Q 48.578125 48.25 48.578125 53.8125 
Q 48.578125 59.328125 45.03125 62.0625 
Q 41.5 64.796875 34.28125 64.796875 
z
M 9.8125 72.90625 
L 35.015625 72.90625 
Q 46.296875 72.90625 52.390625 68.21875 
Q 58.5 63.53125 58.5 54.890625 
Q 58.5 48.1875 55.375 44.234375 
Q 52.25 40.28125 46.1875 39.3125 
Q 53.46875 37.75 57.5 32.78125 
Q 61.53125 27.828125 61.53125 20.40625 
Q 61.53125 10.640625 54.890625 5.3125 
Q 48.25 0 35.984375 0 
L 9.8125 0 
z
" id="DejaVuSans-66"/>
      <path d="M 34.28125 27.484375 
Q 23.390625 27.484375 19.1875 25 
Q 14.984375 22.515625 14.984375 16.5 
Q 14.984375 11.71875 18.140625 8.90625 
Q 21.296875 6.109375 26.703125 6.109375 
Q 34.1875 6.109375 38.703125 11.40625 
Q 43.21875 16.703125 43.21875 25.484375 
L 43.21875 27.484375 
z
M 52.203125 31.203125 
L 52.203125 0 
L 43.21875 0 
L 43.21875 8.296875 
Q 40.140625 3.328125 35.546875 0.953125 
Q 30.953125 -1.421875 24.3125 -1.421875 
Q 15.921875 -1.421875 10.953125 3.296875 
Q 6 8.015625 6 15.921875 
Q 6 25.140625 12.171875 29.828125 
Q 18.359375 34.515625 30.609375 34.515625 
L 43.21875 34.515625 
L 43.21875 35.40625 
Q 43.21875 41.609375 39.140625 45 
Q 35.0625 48.390625 27.6875 48.390625 
Q 23 48.390625 18.546875 47.265625 
Q 14.109375 46.140625 10.015625 43.890625 
L 10.015625 52.203125 
Q 14.9375 54.109375 19.578125 55.046875 
Q 24.21875 56 28.609375 56 
Q 40.484375 56 46.34375 49.84375 
Q 52.203125 43.703125 52.203125 31.203125 
z
" id="DejaVuSans-97"/>
      <path d="M 45.40625 27.984375 
Q 45.40625 37.75 41.375 43.109375 
Q 37.359375 48.484375 30.078125 48.484375 
Q 22.859375 48.484375 18.828125 43.109375 
Q 14.796875 37.75 14.796875 27.984375 
Q 14.796875 18.265625 18.828125 12.890625 
Q 22.859375 7.515625 30.078125 7.515625 
Q 37.359375 7.515625 41.375 12.890625 
Q 45.40625 18.265625 45.40625 27.984375 
z
M 54.390625 6.78125 
Q 54.390625 -7.171875 48.1875 -13.984375 
Q 42 -20.796875 29.203125 -20.796875 
Q 24.46875 -20.796875 20.265625 -20.09375 
Q 16.0625 -19.390625 12.109375 -17.921875 
L 12.109375 -9.1875 
Q 16.0625 -11.328125 19.921875 -12.34375 
Q 23.78125 -13.375 27.78125 -13.375 
Q 36.625 -13.375 41.015625 -8.765625 
Q 45.40625 -4.15625 45.40625 5.171875 
L 45.40625 9.625 
Q 42.625 4.78125 38.28125 2.390625 
Q 33.9375 0 27.875 0 
Q 17.828125 0 11.671875 7.65625 
Q 5.515625 15.328125 5.515625 27.984375 
Q 5.515625 40.671875 11.671875 48.328125 
Q 17.828125 56 27.875 56 
Q 33.9375 56 38.28125 53.609375 
Q 42.625 51.21875 45.40625 46.390625 
L 45.40625 54.6875 
L 54.390625 54.6875 
z
" id="DejaVuSans-103"/>
      <path id="DejaVuSans-32"/>
      <path d="M 54.890625 33.015625 
L 54.890625 0 
L 45.90625 0 
L 45.90625 32.71875 
Q 45.90625 40.484375 42.875 44.328125 
Q 39.84375 48.1875 33.796875 48.1875 
Q 26.515625 48.1875 22.3125 43.546875 
Q 18.109375 38.921875 18.109375 30.90625 
L 18.109375 0 
L 9.078125 0 
L 9.078125 54.6875 
L 18.109375 54.6875 
L 18.109375 46.1875 
Q 21.34375 51.125 25.703125 53.5625 
Q 30.078125 56 35.796875 56 
Q 45.21875 56 50.046875 50.171875 
Q 54.890625 44.34375 54.890625 33.015625 
z
" id="DejaVuSans-110"/>
      <path d="M 8.5 21.578125 
L 8.5 54.6875 
L 17.484375 54.6875 
L 17.484375 21.921875 
Q 17.484375 14.15625 20.5 10.265625 
Q 23.53125 6.390625 29.59375 6.390625 
Q 36.859375 6.390625 41.078125 11.03125 
Q 45.3125 15.671875 45.3125 23.6875 
L 45.3125 54.6875 
L 54.296875 54.6875 
L 54.296875 0 
L 45.3125 0 
L 45.3125 8.40625 
Q 42.046875 3.421875 37.71875 1 
Q 33.40625 -1.421875 27.6875 -1.421875 
Q 18.265625 -1.421875 13.375 4.4375 
Q 8.5 10.296875 8.5 21.578125 
z
M 31.109375 56 
z
" id="DejaVuSans-117"/>
      <path d="M 52 44.1875 
Q 55.375 50.25 60.0625 53.125 
Q 64.75 56 71.09375 56 
Q 79.640625 56 84.28125 50.015625 
Q 88.921875 44.046875 88.921875 33.015625 
L 88.921875 0 
L 79.890625 0 
L 79.890625 32.71875 
Q 79.890625 40.578125 77.09375 44.375 
Q 74.3125 48.1875 68.609375 48.1875 
Q 61.625 48.1875 57.5625 43.546875 
Q 53.515625 38.921875 53.515625 30.90625 
L 53.515625 0 
L 44.484375 0 
L 44.484375 32.71875 
Q 44.484375 40.625 41.703125 44.40625 
Q 38.921875 48.1875 33.109375 48.1875 
Q 26.21875 48.1875 22.15625 43.53125 
Q 18.109375 38.875 18.109375 30.90625 
L 18.109375 0 
L 9.078125 0 
L 9.078125 54.6875 
L 18.109375 54.6875 
L 18.109375 46.1875 
Q 21.1875 51.21875 25.484375 53.609375 
Q 29.78125 56 35.6875 56 
Q 41.65625 56 45.828125 52.96875 
Q 50 49.953125 52 44.1875 
z
" id="DejaVuSans-109"/>
      <path d="M 48.6875 27.296875 
Q 48.6875 37.203125 44.609375 42.84375 
Q 40.53125 48.484375 33.40625 48.484375 
Q 26.265625 48.484375 22.1875 42.84375 
Q 18.109375 37.203125 18.109375 27.296875 
Q 18.109375 17.390625 22.1875 11.75 
Q 26.265625 6.109375 33.40625 6.109375 
Q 40.53125 6.109375 44.609375 11.75 
Q 48.6875 17.390625 48.6875 27.296875 
z
M 18.109375 46.390625 
Q 20.953125 51.265625 25.265625 53.625 
Q 29.59375 56 35.59375 56 
Q 45.5625 56 51.78125 48.09375 
Q 58.015625 40.1875 58.015625 27.296875 
Q 58.015625 14.40625 51.78125 6.484375 
Q 45.5625 -1.421875 35.59375 -1.421875 
Q 29.59375 -1.421875 25.265625 0.953125 
Q 20.953125 3.328125 18.109375 8.203125 
L 18.109375 0 
L 9.078125 0 
L 9.078125 75.984375 
L 18.109375 75.984375 
z
" id="DejaVuSans-98"/>
      <path d="M 56.203125 29.59375 
L 56.203125 25.203125 
L 14.890625 25.203125 
Q 15.484375 15.921875 20.484375 11.0625 
Q 25.484375 6.203125 34.421875 6.203125 
Q 39.59375 6.203125 44.453125 7.46875 
Q 49.3125 8.734375 54.109375 11.28125 
L 54.109375 2.78125 
Q 49.265625 0.734375 44.1875 -0.34375 
Q 39.109375 -1.421875 33.890625 -1.421875 
Q 20.796875 -1.421875 13.15625 6.1875 
Q 5.515625 13.8125 5.515625 26.8125 
Q 5.515625 40.234375 12.765625 48.109375 
Q 20.015625 56 32.328125 56 
Q 43.359375 56 49.78125 48.890625 
Q 56.203125 41.796875 56.203125 29.59375 
z
M 47.21875 32.234375 
Q 47.125 39.59375 43.09375 43.984375 
Q 39.0625 48.390625 32.421875 48.390625 
Q 24.90625 48.390625 20.390625 44.140625 
Q 15.875 39.890625 15.1875 32.171875 
z
" id="DejaVuSans-101"/>
      <path d="M 41.109375 46.296875 
Q 39.59375 47.171875 37.8125 47.578125 
Q 36.03125 48 33.890625 48 
Q 26.265625 48 22.1875 43.046875 
Q 18.109375 38.09375 18.109375 28.8125 
L 18.109375 0 
L 9.078125 0 
L 9.078125 54.6875 
L 18.109375 54.6875 
L 18.109375 46.1875 
Q 20.953125 51.171875 25.484375 53.578125 
Q 30.03125 56 36.53125 56 
Q 37.453125 56 38.578125 55.875 
Q 39.703125 55.765625 41.0625 55.515625 
z
" id="DejaVuSans-114"/>
     </defs>
     <g transform="translate(175.413616 341.371987)scale(0.15 -0.15)">
      <use xlink:href="#DejaVuSans-66"/>
      <use x="68.603516" xlink:href="#DejaVuSans-97"/>
      <use x="129.882812" xlink:href="#DejaVuSans-103"/>
      <use x="193.359375" xlink:href="#DejaVuSans-32"/>
      <use x="225.146484" xlink:href="#DejaVuSans-110"/>
      <use x="288.525391" xlink:href="#DejaVuSans-117"/>
      <use x="351.904297" xlink:href="#DejaVuSans-109"/>
      <use x="449.316406" xlink:href="#DejaVuSans-98"/>
      <use x="512.792969" xlink:href="#DejaVuSans-101"/>
      <use x="574.316406" xlink:href="#DejaVuSans-114"/>
     </g>
    </g>
   </g>
   <g id="matplotlib.axis_2">
    <g id="ytick_1">
     <g id="line2d_7">
      <defs>
       <path d="M 0 0 
L -3.5 0 
" id="mfe73b2bb26" style="stroke:#000000;stroke-width:0.8;"/>
      </defs>
      <g>
       <use style="stroke:#000000;stroke-width:0.8;" x="52.8" xlink:href="#mfe73b2bb26" y="298.168241"/>
      </g>
     </g>
     <g id="text_8">
      <!-- 0.0 -->
      <defs>
       <path d="M 10.6875 12.40625 
L 21 12.40625 
L 21 0 
L 10.6875 0 
z
" id="DejaVuSans-46"/>
      </defs>
      <g transform="translate(21.945313 303.867069)scale(0.15 -0.15)">
       <use xlink:href="#DejaVuSans-48"/>
       <use x="63.623047" xlink:href="#DejaVuSans-46"/>
       <use x="95.410156" xlink:href="#DejaVuSans-48"/>
      </g>
     </g>
    </g>
    <g id="ytick_2">
     <g id="line2d_8">
      <g>
       <use style="stroke:#000000;stroke-width:0.8;" x="52.8" xlink:href="#mfe73b2bb26" y="264.77071"/>
      </g>
     </g>
     <g id="text_9">
      <!-- 0.2 -->
      <g transform="translate(21.945313 270.469538)scale(0.15 -0.15)">
       <use xlink:href="#DejaVuSans-48"/>
       <use x="63.623047" xlink:href="#DejaVuSans-46"/>
       <use x="95.410156" xlink:href="#DejaVuSans-50"/>
      </g>
     </g>
    </g>
    <g id="ytick_3">
     <g id="line2d_9">
      <g>
       <use style="stroke:#000000;stroke-width:0.8;" x="52.8" xlink:href="#mfe73b2bb26" y="231.373179"/>
      </g>
     </g>
     <g id="text_10">
      <!-- 0.4 -->
      <g transform="translate(21.945313 237.072007)scale(0.15 -0.15)">
       <use xlink:href="#DejaVuSans-48"/>
       <use x="63.623047" xlink:href="#DejaVuSans-46"/>
       <use x="95.410156" xlink:href="#DejaVuSans-52"/>
      </g>
     </g>
    </g>
    <g id="ytick_4">
     <g id="line2d_10">
      <g>
       <use style="stroke:#000000;stroke-width:0.8;" x="52.8" xlink:href="#mfe73b2bb26" y="197.975648"/>
      </g>
     </g>
     <g id="text_11">
      <!-- 0.6 -->
      <g transform="translate(21.945313 203.674476)scale(0.15 -0.15)">
       <use xlink:href="#DejaVuSans-48"/>
       <use x="63.623047" xlink:href="#DejaVuSans-46"/>
       <use x="95.410156" xlink:href="#DejaVuSans-54"/>
      </g>
     </g>
    </g>
    <g id="ytick_5">
     <g id="line2d_11">
      <g>
       <use style="stroke:#000000;stroke-width:0.8;" x="52.8" xlink:href="#mfe73b2bb26" y="164.578117"/>
      </g>
     </g>
     <g id="text_12">
      <!-- 0.8 -->
      <g transform="translate(21.945313 170.276945)scale(0.15 -0.15)">
       <use xlink:href="#DejaVuSans-48"/>
       <use x="63.623047" xlink:href="#DejaVuSans-46"/>
       <use x="95.410156" xlink:href="#DejaVuSans-56"/>
      </g>
     </g>
    </g>
    <g id="ytick_6">
     <g id="line2d_12">
      <g>
       <use style="stroke:#000000;stroke-width:0.8;" x="52.8" xlink:href="#mfe73b2bb26" y="131.180586"/>
      </g>
     </g>
     <g id="text_13">
      <!-- 1.0 -->
      <g transform="translate(21.945313 136.879414)scale(0.15 -0.15)">
       <use xlink:href="#DejaVuSans-49"/>
       <use x="63.623047" xlink:href="#DejaVuSans-46"/>
       <use x="95.410156" xlink:href="#DejaVuSans-48"/>
      </g>
     </g>
    </g>
    <g id="ytick_7">
     <g id="line2d_13">
      <g>
       <use style="stroke:#000000;stroke-width:0.8;" x="52.8" xlink:href="#mfe73b2bb26" y="97.783055"/>
      </g>
     </g>
     <g id="text_14">
      <!-- 1.2 -->
      <g transform="translate(21.945313 103.481883)scale(0.15 -0.15)">
       <use xlink:href="#DejaVuSans-49"/>
       <use x="63.623047" xlink:href="#DejaVuSans-46"/>
       <use x="95.410156" xlink:href="#DejaVuSans-50"/>
      </g>
     </g>
    </g>
    <g id="ytick_8">
     <g id="line2d_14">
      <g>
       <use style="stroke:#000000;stroke-width:0.8;" x="52.8" xlink:href="#mfe73b2bb26" y="64.385524"/>
      </g>
     </g>
     <g id="text_15">
      <!-- 1.4 -->
      <g transform="translate(21.945313 70.084352)scale(0.15 -0.15)">
       <use xlink:href="#DejaVuSans-49"/>
       <use x="63.623047" xlink:href="#DejaVuSans-46"/>
       <use x="95.410156" xlink:href="#DejaVuSans-52"/>
      </g>
     </g>
    </g>
    <g id="ytick_9">
     <g id="line2d_15">
      <g>
       <use style="stroke:#000000;stroke-width:0.8;" x="52.8" xlink:href="#mfe73b2bb26" y="30.987993"/>
      </g>
     </g>
     <g id="text_16">
      <!-- 1.6 -->
      <g transform="translate(21.945313 36.686821)scale(0.15 -0.15)">
       <use xlink:href="#DejaVuSans-49"/>
       <use x="63.623047" xlink:href="#DejaVuSans-46"/>
       <use x="95.410156" xlink:href="#DejaVuSans-54"/>
      </g>
     </g>
    </g>
    <g id="text_17">
     <!-- Velocity error [m/s] -->
     <defs>
      <path d="M 28.609375 0 
L 0.78125 72.90625 
L 11.078125 72.90625 
L 34.1875 11.53125 
L 57.328125 72.90625 
L 67.578125 72.90625 
L 39.796875 0 
z
" id="DejaVuSans-86"/>
      <path d="M 9.421875 75.984375 
L 18.40625 75.984375 
L 18.40625 0 
L 9.421875 0 
z
" id="DejaVuSans-108"/>
      <path d="M 30.609375 48.390625 
Q 23.390625 48.390625 19.1875 42.75 
Q 14.984375 37.109375 14.984375 27.296875 
Q 14.984375 17.484375 19.15625 11.84375 
Q 23.34375 6.203125 30.609375 6.203125 
Q 37.796875 6.203125 41.984375 11.859375 
Q 46.1875 17.53125 46.1875 27.296875 
Q 46.1875 37.015625 41.984375 42.703125 
Q 37.796875 48.390625 30.609375 48.390625 
z
M 30.609375 56 
Q 42.328125 56 49.015625 48.375 
Q 55.71875 40.765625 55.71875 27.296875 
Q 55.71875 13.875 49.015625 6.21875 
Q 42.328125 -1.421875 30.609375 -1.421875 
Q 18.84375 -1.421875 12.171875 6.21875 
Q 5.515625 13.875 5.515625 27.296875 
Q 5.515625 40.765625 12.171875 48.375 
Q 18.84375 56 30.609375 56 
z
" id="DejaVuSans-111"/>
      <path d="M 48.78125 52.59375 
L 48.78125 44.1875 
Q 44.96875 46.296875 41.140625 47.34375 
Q 37.3125 48.390625 33.40625 48.390625 
Q 24.65625 48.390625 19.8125 42.84375 
Q 14.984375 37.3125 14.984375 27.296875 
Q 14.984375 17.28125 19.8125 11.734375 
Q 24.65625 6.203125 33.40625 6.203125 
Q 37.3125 6.203125 41.140625 7.25 
Q 44.96875 8.296875 48.78125 10.40625 
L 48.78125 2.09375 
Q 45.015625 0.34375 40.984375 -0.53125 
Q 36.96875 -1.421875 32.421875 -1.421875 
Q 20.0625 -1.421875 12.78125 6.34375 
Q 5.515625 14.109375 5.515625 27.296875 
Q 5.515625 40.671875 12.859375 48.328125 
Q 20.21875 56 33.015625 56 
Q 37.15625 56 41.109375 55.140625 
Q 45.0625 54.296875 48.78125 52.59375 
z
" id="DejaVuSans-99"/>
      <path d="M 9.421875 54.6875 
L 18.40625 54.6875 
L 18.40625 0 
L 9.421875 0 
z
M 9.421875 75.984375 
L 18.40625 75.984375 
L 18.40625 64.59375 
L 9.421875 64.59375 
z
" id="DejaVuSans-105"/>
      <path d="M 18.3125 70.21875 
L 18.3125 54.6875 
L 36.8125 54.6875 
L 36.8125 47.703125 
L 18.3125 47.703125 
L 18.3125 18.015625 
Q 18.3125 11.328125 20.140625 9.421875 
Q 21.96875 7.515625 27.59375 7.515625 
L 36.8125 7.515625 
L 36.8125 0 
L 27.59375 0 
Q 17.1875 0 13.234375 3.875 
Q 9.28125 7.765625 9.28125 18.015625 
L 9.28125 47.703125 
L 2.6875 47.703125 
L 2.6875 54.6875 
L 9.28125 54.6875 
L 9.28125 70.21875 
z
" id="DejaVuSans-116"/>
      <path d="M 32.171875 -5.078125 
Q 28.375 -14.84375 24.75 -17.8125 
Q 21.140625 -20.796875 15.09375 -20.796875 
L 7.90625 -20.796875 
L 7.90625 -13.28125 
L 13.1875 -13.28125 
Q 16.890625 -13.28125 18.9375 -11.515625 
Q 21 -9.765625 23.484375 -3.21875 
L 25.09375 0.875 
L 2.984375 54.6875 
L 12.5 54.6875 
L 29.59375 11.921875 
L 46.6875 54.6875 
L 56.203125 54.6875 
z
" id="DejaVuSans-121"/>
      <path d="M 8.59375 75.984375 
L 29.296875 75.984375 
L 29.296875 69 
L 17.578125 69 
L 17.578125 -6.203125 
L 29.296875 -6.203125 
L 29.296875 -13.1875 
L 8.59375 -13.1875 
z
" id="DejaVuSans-91"/>
      <path d="M 25.390625 72.90625 
L 33.6875 72.90625 
L 8.296875 -9.28125 
L 0 -9.28125 
z
" id="DejaVuSans-47"/>
      <path d="M 44.28125 53.078125 
L 44.28125 44.578125 
Q 40.484375 46.53125 36.375 47.5 
Q 32.28125 48.484375 27.875 48.484375 
Q 21.1875 48.484375 17.84375 46.4375 
Q 14.5 44.390625 14.5 40.28125 
Q 14.5 37.15625 16.890625 35.375 
Q 19.28125 33.59375 26.515625 31.984375 
L 29.59375 31.296875 
Q 39.15625 29.25 43.1875 25.515625 
Q 47.21875 21.78125 47.21875 15.09375 
Q 47.21875 7.46875 41.1875 3.015625 
Q 35.15625 -1.421875 24.609375 -1.421875 
Q 20.21875 -1.421875 15.453125 -0.5625 
Q 10.6875 0.296875 5.421875 2 
L 5.421875 11.28125 
Q 10.40625 8.6875 15.234375 7.390625 
Q 20.0625 6.109375 24.8125 6.109375 
Q 31.15625 6.109375 34.5625 8.28125 
Q 37.984375 10.453125 37.984375 14.40625 
Q 37.984375 18.0625 35.515625 20.015625 
Q 33.0625 21.96875 24.703125 23.78125 
L 21.578125 24.515625 
Q 13.234375 26.265625 9.515625 29.90625 
Q 5.8125 33.546875 5.8125 39.890625 
Q 5.8125 47.609375 11.28125 51.796875 
Q 16.75 56 26.8125 56 
Q 31.78125 56 36.171875 55.265625 
Q 40.578125 54.546875 44.28125 53.078125 
z
" id="DejaVuSans-115"/>
      <path d="M 30.421875 75.984375 
L 30.421875 -13.1875 
L 9.71875 -13.1875 
L 9.71875 -6.203125 
L 21.390625 -6.203125 
L 21.390625 69 
L 9.71875 69 
L 9.71875 75.984375 
z
" id="DejaVuSans-93"/>
     </defs>
     <g transform="translate(14.825781 235.27269)rotate(-90)scale(0.15 -0.15)">
      <use xlink:href="#DejaVuSans-86"/>
      <use x="60.658203" xlink:href="#DejaVuSans-101"/>
      <use x="122.181641" xlink:href="#DejaVuSans-108"/>
      <use x="149.964844" xlink:href="#DejaVuSans-111"/>
      <use x="211.146484" xlink:href="#DejaVuSans-99"/>
      <use x="266.126953" xlink:href="#DejaVuSans-105"/>
      <use x="293.910156" xlink:href="#DejaVuSans-116"/>
      <use x="333.119141" xlink:href="#DejaVuSans-121"/>
      <use x="392.298828" xlink:href="#DejaVuSans-32"/>
      <use x="424.085938" xlink:href="#DejaVuSans-101"/>
      <use x="485.609375" xlink:href="#DejaVuSans-114"/>
      <use x="524.972656" xlink:href="#DejaVuSans-114"/>
      <use x="563.835938" xlink:href="#DejaVuSans-111"/>
      <use x="625.017578" xlink:href="#DejaVuSans-114"/>
      <use x="666.130859" xlink:href="#DejaVuSans-32"/>
      <use x="697.917969" xlink:href="#DejaVuSans-91"/>
      <use x="736.931641" xlink:href="#DejaVuSans-109"/>
      <use x="834.34375" xlink:href="#DejaVuSans-47"/>
      <use x="868.035156" xlink:href="#DejaVuSans-115"/>
      <use x="920.134766" xlink:href="#DejaVuSans-93"/>
     </g>
    </g>
   </g>
   <g id="line2d_16">
    <path clip-path="url(#p40143db027)" d="M 52.8 228.105915 
L 390.342857 228.105915 
" style="fill:none;stroke:#ff0000;stroke-linecap:square;stroke-width:1.5;"/>
   </g>
   <g id="patch_3">
    <path d="M 52.8 304.457143 
L 52.8 22.217143 
" style="fill:none;stroke:#000000;stroke-linecap:square;stroke-linejoin:miter;stroke-width:0.8;"/>
   </g>
   <g id="patch_4">
    <path d="M 390.342857 304.457143 
L 390.342857 22.217143 
" style="fill:none;stroke:#000000;stroke-linecap:square;stroke-linejoin:miter;stroke-width:0.8;"/>
   </g>
   <g id="patch_5">
    <path d="M 52.8 304.457143 
L 390.342857 304.457143 
" style="fill:none;stroke:#000000;stroke-linecap:square;stroke-linejoin:miter;stroke-width:0.8;"/>
   </g>
   <g id="patch_6">
    <path d="M 52.8 22.217143 
L 390.342857 22.217143 
" style="fill:none;stroke:#000000;stroke-linecap:square;stroke-linejoin:miter;stroke-width:0.8;"/>
   </g>
   <g id="text_18">
    <!-- Velocity error all bags -->
    <g transform="translate(123.751272 16.217143)scale(0.18 -0.18)">
     <use xlink:href="#DejaVuSans-86"/>
     <use x="60.658203" xlink:href="#DejaVuSans-101"/>
     <use x="122.181641" xlink:href="#DejaVuSans-108"/>
     <use x="149.964844" xlink:href="#DejaVuSans-111"/>
     <use x="211.146484" xlink:href="#DejaVuSans-99"/>
     <use x="266.126953" xlink:href="#DejaVuSans-105"/>
     <use x="293.910156" xlink:href="#DejaVuSans-116"/>
     <use x="333.119141" xlink:href="#DejaVuSans-121"/>
     <use x="392.298828" xlink:href="#DejaVuSans-32"/>
     <use x="424.085938" xlink:href="#DejaVuSans-101"/>
     <use x="485.609375" xlink:href="#DejaVuSans-114"/>
     <use x="524.972656" xlink:href="#DejaVuSans-114"/>
     <use x="563.835938" xlink:href="#DejaVuSans-111"/>
     <use x="625.017578" xlink:href="#DejaVuSans-114"/>
     <use x="666.130859" xlink:href="#DejaVuSans-32"/>
     <use x="697.917969" xlink:href="#DejaVuSans-97"/>
     <use x="759.197266" xlink:href="#DejaVuSans-108"/>
     <use x="786.980469" xlink:href="#DejaVuSans-108"/>
     <use x="814.763672" xlink:href="#DejaVuSans-32"/>
     <use x="846.550781" xlink:href="#DejaVuSans-98"/>
     <use x="910.027344" xlink:href="#DejaVuSans-97"/>
     <use x="971.306641" xlink:href="#DejaVuSans-103"/>
     <use x="1034.783203" xlink:href="#DejaVuSans-115"/>
    </g>
   </g>
  </g>
 </g>
 <defs>
  <clipPath id="p40143db027">
   <rect height="282.24" width="337.542857" x="52.8" y="22.217143"/>
  </clipPath>
 </defs>
</svg>
